<svg xmlns="http://www.w3.org/2000/svg" width="1000" height="1000" viewBox="0 0 1000 1000" version="1.1">
	<path d="M 0 500.001 L 0 1000.002 500.250 999.751 L 1000.500 999.500 1000.751 499.750 L 1001.002 0 500.501 0 L 0 0 0 500.001 M 0.496 500.500 C 0.496 775.500, 0.610 887.851, 0.750 750.168 C 0.890 612.486, 0.890 387.486, 0.750 250.168 C 0.610 112.851, 0.496 225.500, 0.496 500.500 M 762.500 87.411 C 748.820 90.433, 743.133 92.285, 732 97.344 C 718.923 103.288, 703.801 114.146, 693.095 125.282 C 684.868 133.839, 684.131 134.769, 676.089 146.754 C 669.355 156.790, 668.848 157.029, 662 153.405 C 657.477 151.012, 651.026 148.408, 630 140.490 C 618.311 136.087, 585.802 127.285, 572.500 124.921 C 541.973 119.494, 520.207 117.704, 492.500 118.340 C 469.930 118.859, 461.118 119.711, 438.914 123.525 C 434.191 124.336, 429.405 125, 428.279 125 C 427.152 125, 424.040 125.662, 421.365 126.472 C 418.689 127.281, 409.525 129.724, 401 131.901 C 383.284 136.425, 379.966 137.460, 364.500 143.280 C 349.133 149.063, 324.104 160.735, 312.500 167.530 C 308.650 169.785, 304.825 171.953, 304 172.348 C 300.198 174.171, 274.449 191.706, 269.394 195.914 C 267.686 197.336, 265.009 199.400, 263.445 200.500 C 259.326 203.398, 240.348 219.902, 234.500 225.673 C 212.284 247.596, 192.099 272.061, 177.436 294.837 C 175.546 297.773, 174 300.321, 174 300.500 C 174 300.679, 172.414 303.227, 170.476 306.163 C 168.538 309.098, 166.038 313.300, 164.922 315.500 C 163.806 317.700, 160.419 324.225, 157.396 330 C 152.356 339.628, 146.098 353.513, 142.297 363.500 C 141.460 365.700, 140.158 369.075, 139.404 371 C 136.710 377.877, 131.868 392.594, 130.521 398 C 129.766 401.025, 128.432 406.200, 127.556 409.500 C 124.939 419.350, 122.054 433.827, 120.481 445 C 119.667 450.775, 118.470 459.100, 117.820 463.500 C 116.275 473.966, 116.288 528.339, 117.839 541.500 C 120.086 560.554, 121.765 572.526, 122.958 578 C 126.221 592.960, 131.388 613.789, 132.503 616.478 C 133.193 618.140, 134.561 622.200, 135.545 625.500 C 136.528 628.800, 138.201 633.750, 139.263 636.500 C 140.325 639.250, 141.781 643.075, 142.500 645 C 145.289 652.473, 148.372 659.757, 151.281 665.747 C 154.226 671.810, 154.262 672.053, 152.503 673.997 C 151.506 675.099, 150.342 676, 149.916 676 C 149.233 676, 146.647 677.689, 133.618 686.643 C 129.386 689.552, 116.211 702.468, 111.834 708 C 99.624 723.430, 90.569 742.050, 85.331 762.500 C 83.868 768.211, 83.548 773.460, 83.594 791 C 83.645 810.109, 83.904 813.445, 85.929 821 C 89.364 833.819, 91.470 839.662, 96.019 849 C 114.490 886.909, 151.874 914.937, 192.836 921.586 C 210.218 924.408, 242.510 922.682, 251 918.479 C 252.375 917.798, 255.075 916.906, 257 916.498 C 262.190 915.396, 278.221 907.687, 286.365 902.377 C 295.742 896.263, 308.031 885.432, 315.514 876.686 C 317.878 873.923, 326.851 861.185, 329.030 857.500 C 332.783 851.151, 332.015 851.188, 344 856.778 C 351.177 860.126, 354.836 861.580, 370.500 867.309 C 381.154 871.205, 400.141 877, 402.253 877 C 403.286 877, 404.961 877.444, 405.974 877.986 C 406.987 878.528, 412.245 879.887, 417.658 881.004 C 423.071 882.122, 429.750 883.518, 432.500 884.105 C 453.895 888.677, 506.283 891.379, 529.500 889.108 C 557.343 886.384, 583.222 882.144, 594.500 878.459 C 596.700 877.741, 600.075 876.860, 602 876.502 C 606.075 875.744, 623.395 870.243, 633.500 866.495 C 637.350 865.068, 641.625 863.521, 643 863.057 C 646.218 861.972, 661.120 855.527, 663.600 854.148 C 664.645 853.567, 670 850.900, 675.500 848.222 C 696.429 838.031, 714.661 826.417, 738.500 808.088 C 762.848 789.368, 799.163 751.655, 814.220 729.455 C 816.068 726.730, 819.172 722.250, 821.117 719.500 C 830.079 706.828, 847.377 675.675, 853.320 661.500 C 854.704 658.200, 856.545 654.150, 857.412 652.500 C 858.279 650.850, 858.990 648.894, 858.994 648.154 C 858.997 647.414, 859.620 645.614, 860.378 644.154 C 862.371 640.313, 866 630.673, 866 629.217 C 866 628.533, 866.418 627.191, 866.928 626.236 C 869.432 621.551, 875.873 597.299, 878.513 582.621 C 879.292 578.288, 880.370 573.338, 880.907 571.621 C 881.444 569.905, 882.179 565.350, 882.540 561.500 C 882.901 557.650, 883.587 552.665, 884.064 550.423 C 884.541 548.181, 885.432 537.156, 886.044 525.923 C 887.700 495.531, 885.414 458.153, 880.544 436 C 879.758 432.425, 878.828 427.475, 878.477 425 C 878.126 422.525, 877.230 418.250, 876.485 415.500 C 875.741 412.750, 874.376 407.575, 873.452 404 C 869.855 390.079, 861.812 365.763, 860.059 363.508 C 859.628 362.954, 858.987 361.291, 858.635 359.812 C 858.004 357.172, 853.472 346.657, 850.195 340.235 C 848.369 336.656, 849.077 334.369, 852.598 332.480 C 859.927 328.547, 874.446 317.565, 880.961 311.026 C 882.907 309.072, 887.098 304.329, 890.274 300.487 C 898.257 290.827, 898 291.163, 898 290.396 C 898 290.017, 899.504 287.410, 901.343 284.604 C 903.182 281.797, 905.711 277.250, 906.962 274.500 C 908.214 271.750, 909.673 268.658, 910.204 267.628 C 913.482 261.271, 917.962 242.715, 919.089 230.825 C 920.282 218.239, 918.911 195.839, 916.417 187.150 C 912 171.759, 910.567 167.786, 906.263 159 C 896.772 139.628, 881.707 121.502, 866.008 110.567 C 855.999 103.594, 846.566 98, 844.819 98 C 844.039 98, 842.893 97.493, 842.274 96.874 C 840.233 94.833, 821.697 89.079, 810.535 87.021 C 795.408 84.233, 776.186 84.389, 762.500 87.411 M 767.500 108.045 C 754.837 110.866, 743.422 114.575, 740.861 116.701 C 740.106 117.327, 738.272 118.145, 736.785 118.518 C 735.299 118.891, 733.558 119.827, 732.919 120.598 C 732.279 121.369, 731.334 122, 730.819 122 C 729.443 122, 715.134 133.071, 709.960 138.138 C 705.306 142.696, 695 155.449, 695 156.650 C 695 157.031, 694.369 158.053, 693.597 158.921 C 691.674 161.086, 685.527 173.510, 683.664 179 C 679.735 190.571, 677.615 202.133, 677.091 214.852 C 676.852 220.647, 679.039 239.262, 680.632 245 C 687.568 269.970, 701.167 290.686, 720 304.968 C 726.875 310.182, 739.289 318, 740.694 318 C 741.017 318, 743.130 318.870, 745.390 319.933 C 749.666 321.944, 755.805 323.774, 767.206 326.435 C 776.385 328.577, 800.084 328.559, 809.500 326.401 C 832.010 321.244, 849.207 312.286, 864.831 297.578 C 868.698 293.938, 879.449 280.681, 882.755 275.476 C 885.770 270.729, 890.794 259.926, 892.757 253.969 C 897.996 238.068, 898.467 235.109, 898.484 218 C 898.500 201.095, 897.687 195.663, 892.943 180.975 C 891.050 175.114, 882.652 157.843, 880.675 155.746 C 880.029 155.061, 878.277 152.700, 876.782 150.500 C 870.856 141.780, 856.061 128.424, 844.446 121.308 C 835.140 115.606, 820.071 110.130, 806.820 107.634 C 795.557 105.513, 778.043 105.696, 767.500 108.045 M 469 141.056 C 445.114 143.496, 417.979 148.441, 404 152.900 C 400.425 154.041, 396.825 154.983, 396 154.993 C 395.175 155.004, 393.328 155.624, 391.895 156.372 C 390.462 157.119, 386.973 158.287, 384.142 158.966 C 381.310 159.645, 378.744 160.606, 378.438 161.100 C 378.132 161.595, 377.072 162, 376.082 162 C 371.078 162, 328.432 182.524, 314 191.878 C 308.775 195.264, 303.825 198.337, 303 198.707 C 298.726 200.621, 271.307 221.235, 261.581 229.846 C 243.332 246.002, 220.299 271.151, 207.658 288.723 C 195.726 305.307, 192.751 309.927, 183.010 327 C 182.539 327.825, 179.012 334.800, 175.171 342.500 C 168.300 356.277, 166.098 361.085, 162.576 370 C 161.598 372.475, 160.169 375.978, 159.399 377.784 C 158.630 379.590, 158 381.547, 158 382.133 C 158 382.719, 157.375 384.616, 156.610 386.349 C 155.364 389.175, 153.393 395.452, 149.497 409 C 148.785 411.475, 147.233 418, 146.047 423.500 C 144.861 429, 143.472 435.395, 142.960 437.712 C 142.447 440.028, 141.578 445.895, 141.028 450.750 C 140.478 455.606, 139.558 462.035, 138.983 465.039 C 138.404 468.061, 137.927 483.872, 137.914 500.444 C 137.891 530.442, 139.159 548.394, 142.510 565.500 C 143.264 569.350, 144.190 574.525, 144.567 577 C 145.981 586.284, 153.502 613.707, 156.574 620.784 C 157.358 622.590, 158.002 624.615, 158.005 625.284 C 158.010 626.712, 162.417 637.750, 163.356 638.690 C 163.710 639.044, 164 639.958, 164 640.722 C 164 643.302, 172.400 661.257, 174.374 662.895 C 175.536 663.860, 177.474 663.762, 183.671 662.428 C 197.722 659.402, 200.323 659.120, 214.722 659.060 C 223.941 659.021, 231.679 659.555, 236.722 660.577 C 250.861 663.442, 252.519 663.928, 264.663 668.769 C 268.052 670.120, 271.315 670.923, 271.913 670.554 C 272.547 670.162, 273.015 666.473, 273.036 661.691 C 273.133 639.261, 276.040 625.643, 284.707 607.012 C 289.992 595.650, 298.389 583.736, 307.914 574.084 C 324.605 557.170, 341.518 547.677, 367.500 540.637 C 377.270 537.990, 388.052 537, 407.120 537 L 425.095 537 427.651 534.250 C 433.775 527.658, 437.508 515.984, 438.530 500.228 L 439.236 489.332 434.622 484.138 C 432.085 481.281, 429.223 477.719, 428.262 476.222 C 427.302 474.725, 425.703 472.604, 424.709 471.509 C 420.826 467.230, 410.869 448.876, 402.462 430.500 C 398.704 422.286, 391.316 400.857, 386.258 383.500 C 381.283 366.430, 379.008 351.311, 379.003 335.291 C 378.996 312.431, 384.305 294.571, 396.627 276 C 414.527 249.022, 448.921 231.204, 489.359 227.960 C 525.101 225.093, 564.510 235.962, 586.019 254.619 C 600.500 267.180, 607.168 275.412, 613.460 288.500 C 618.741 299.484, 621.457 309.835, 623.061 325.086 C 624.107 335.039, 624.040 338.702, 622.581 351.086 C 621.648 359.014, 620.500 367.075, 620.030 369 C 615.807 386.312, 606.714 415.461, 603.029 423.500 C 602.525 424.600, 600.420 429.550, 598.353 434.500 C 595.156 442.151, 590.651 451.046, 586.956 457 C 586.444 457.825, 585.285 459.850, 584.380 461.500 C 581.415 466.903, 572.018 479.810, 568.219 483.696 L 564.500 487.500 564.630 500.128 C 564.733 510.129, 565.198 514.022, 566.865 518.839 C 569.355 526.033, 574.443 534.632, 577.030 536.016 C 578.041 536.557, 586.886 537.014, 596.684 537.032 C 639.309 537.108, 665.156 546.506, 692.500 571.872 C 704.840 583.320, 717.737 603.417, 722.743 619 C 727.156 632.737, 728.001 637.011, 728.976 650.539 C 730.324 669.239, 730.311 768.339, 728.960 773.205 C 728.394 775.242, 726.761 777.829, 725.331 778.955 C 722.732 780.999, 722.600 781, 535.988 781 C 387.802 781, 349.035 781.258, 348.229 782.250 C 347.670 782.938, 346.981 788.450, 346.698 794.500 C 346.074 807.816, 344.577 818.534, 342.476 824.722 C 341.616 827.255, 341.130 829.895, 341.395 830.588 C 341.936 831.996, 355.813 838.823, 363.500 841.461 C 366.250 842.405, 369.337 843.622, 370.361 844.166 C 373.668 845.924, 404.229 855.558, 413.500 857.765 C 439.990 864.071, 450.559 865.739, 476.046 867.634 C 497.180 869.206, 500.057 869.201, 525 867.562 C 539.575 866.604, 553.975 865.231, 557 864.511 C 560.025 863.791, 564.913 862.910, 567.861 862.552 C 572.773 861.956, 578.955 860.637, 589.500 857.934 C 596.324 856.185, 619.334 848.873, 622.651 847.400 C 624.384 846.630, 626.281 846, 626.867 846 C 627.453 846, 629.410 845.356, 631.216 844.570 C 633.022 843.783, 637.200 842.102, 640.500 840.835 C 643.800 839.568, 652.253 835.712, 659.285 832.265 C 666.316 828.819, 672.265 826, 672.504 826 C 673.791 826, 703.864 807.411, 708.500 803.749 C 709.050 803.315, 712.702 800.606, 716.615 797.730 C 723.356 792.775, 728.168 789.012, 733.536 784.500 C 734.845 783.400, 738.059 780.700, 740.678 778.500 C 754.471 766.917, 782.616 736.958, 790 726 C 790.825 724.776, 793.741 720.787, 796.480 717.137 C 801.537 710.397, 808 701.055, 808 700.487 C 808 700.315, 809.575 697.783, 811.500 694.860 C 813.425 691.937, 815 689.220, 815 688.823 C 815 688.425, 816.337 686.119, 817.972 683.697 C 821.422 678.584, 829.608 662.399, 833.496 653 C 834.975 649.425, 836.594 646.072, 837.093 645.550 C 837.592 645.027, 838.003 643.902, 838.006 643.050 C 838.010 642.197, 838.674 640.231, 839.483 638.680 C 842.621 632.664, 850.140 609.809, 853.525 596 C 854.401 592.425, 855.758 587.250, 856.540 584.500 C 857.322 581.750, 858.406 576.800, 858.947 573.500 C 859.489 570.200, 860.379 564.800, 860.926 561.500 C 866.638 527.017, 866.627 482.094, 860.899 447 C 860.316 443.425, 859.430 438.025, 858.932 435 C 858.433 431.975, 857.345 426.913, 856.513 423.750 C 855.681 420.587, 854.274 415.188, 853.386 411.750 C 848.921 394.465, 841.948 372.909, 840.044 370.508 C 839.604 369.954, 838.920 368.375, 838.524 367 C 837.837 364.620, 835.254 358.672, 830.782 349.169 C 829.661 346.788, 828.115 344.597, 827.346 344.302 C 826.577 344.007, 822.022 344.771, 817.224 345.999 C 806.697 348.694, 782.996 349.781, 770 348.165 C 762.319 347.210, 746.594 343.305, 741.500 341.088 C 721.225 332.264, 703.883 320.856, 693.662 309.620 C 685.403 300.540, 682.398 296.790, 677.530 289.488 C 660.037 263.245, 652.809 230.161, 657.526 197.926 C 658.365 192.192, 659.490 186.195, 660.026 184.601 C 662.305 177.818, 661.647 176.668, 653.250 172.763 C 648.987 170.780, 641.225 167.521, 636 165.519 C 630.775 163.518, 624.925 161.258, 623 160.498 C 621.075 159.738, 618.375 158.839, 617 158.500 C 615.625 158.161, 612.925 157.282, 611 156.546 C 609.075 155.810, 604.800 154.520, 601.500 153.680 C 598.200 152.839, 593.475 151.603, 591 150.933 C 588.525 150.263, 583.800 149.139, 580.500 148.435 C 577.200 147.731, 572.700 146.728, 570.500 146.205 C 568.300 145.682, 561.325 144.551, 555 143.692 C 517.093 138.542, 499.033 137.988, 469 141.056 M 777.651 147.549 C 754.573 152.136, 736.496 166.172, 726.589 187.198 C 723.614 193.511, 722.788 193.996, 715.332 193.799 C 707.852 193.602, 705 195.727, 705 201.500 C 705 205.149, 705.452 206.250, 707.504 207.595 C 708.882 208.497, 711.715 209.212, 713.801 209.183 C 719.257 209.108, 720.263 210.125, 720.769 216.228 C 721.323 222.914, 719.689 225, 713.893 225 C 707.751 225, 705 227.334, 705 232.547 C 705 238.619, 708.414 240.996, 717.154 241.010 L 723.500 241.020 726.299 246.665 C 736.715 267.667, 753.084 280.796, 775.289 285.957 C 789.313 289.217, 801.472 288.336, 815.500 283.044 C 826.953 278.724, 829.013 276.856, 828.985 270.816 C 828.967 266.940, 828.294 265.717, 825.316 264.150 C 822.187 262.503, 820.528 262.698, 814.688 265.402 C 793.748 275.099, 771.630 271.921, 754.544 256.760 C 748.409 251.316, 742.869 243.504, 743.669 241.421 C 744.108 240.275, 747.299 240, 760.157 240 C 778.046 240, 781.373 239.133, 782.458 234.191 C 783.321 230.260, 781.536 226.154, 778.453 224.982 C 777.032 224.442, 767.606 224, 757.506 224 C 736.843 224, 736 223.730, 736 217.120 C 736 209.680, 736.337 209.562, 759.062 209 L 779.289 208.500 781.273 205.840 C 784.061 202.101, 782.981 196.323, 779.227 194.896 C 777.760 194.339, 769.272 193.796, 760.363 193.691 C 751.454 193.586, 743.842 193.177, 743.448 192.782 C 740.725 190.055, 753.877 175.341, 764.127 169.647 C 773.911 164.212, 780.031 162.601, 791 162.574 C 800.967 162.550, 804.306 163.327, 814.820 168.119 C 822.334 171.544, 822.418 171.551, 825.984 169.011 C 831.811 164.862, 830.644 157.428, 823.644 154.114 C 807.385 146.416, 793.397 144.420, 777.651 147.549 M 491 249.030 C 482.376 249.611, 476.641 250.738, 465.082 254.121 C 461.551 255.155, 458.299 256, 457.854 256 C 456.226 256, 441.374 263.350, 437 266.320 C 423.816 275.272, 414.516 285.687, 408.670 298.047 C 402.047 312.052, 401.500 315.155, 401.500 338.700 C 401.500 353.931, 401.840 360.241, 402.708 361.108 C 404.660 363.060, 406.723 360.533, 407.951 354.685 C 409.054 349.428, 414.448 331.165, 415.980 327.500 C 419.409 319.294, 426.529 305.092, 429.053 301.423 C 430.732 298.983, 433.779 296.133, 435.826 295.089 C 439.200 293.367, 439.868 293.325, 442.981 294.634 C 444.870 295.428, 449.809 299.633, 453.957 303.978 C 467.092 317.735, 478.578 322.028, 502.064 321.956 C 512.018 321.926, 517.742 321.465, 520.500 320.471 C 522.700 319.679, 525.087 319.023, 525.805 319.015 C 528.034 318.989, 536.307 314.889, 540.500 311.731 C 542.700 310.075, 547.672 305.408, 551.550 301.360 C 557.480 295.170, 559.116 294, 561.850 294 C 569.142 294, 574.823 300.335, 581.578 316 C 583.594 320.675, 585.842 325.850, 586.574 327.500 C 588.098 330.933, 594.310 351.522, 595.622 357.489 C 596.167 359.964, 597.138 361.600, 598.180 361.799 C 600.647 362.270, 601.475 355.588, 601.436 335.500 C 601.408 321.378, 601.048 317.225, 599.309 310.970 C 593.584 290.389, 579.537 273.755, 557.500 261.461 C 552.691 258.778, 532.949 252, 529.944 252 C 528.769 252, 525.489 251.361, 522.654 250.580 C 516.557 248.901, 502.866 248.230, 491 249.030 M 440.327 325.250 C 439.423 326.481, 436.759 333.176, 433.663 342 C 431.495 348.177, 426.009 369.091, 424.482 377 C 423.791 380.575, 422.021 389.800, 420.548 397.500 L 417.868 411.500 421.621 421 C 423.686 426.225, 425.746 431.003, 426.201 431.619 C 426.655 432.234, 428.875 436.468, 431.133 441.028 C 441.731 462.425, 458.040 480.667, 473.418 488.325 C 493.375 498.263, 508.396 498.503, 527.904 489.193 C 546.611 480.266, 567.528 454.109, 579.636 424.500 C 580.985 421.200, 582.578 417.520, 583.175 416.323 C 584.715 413.233, 584.055 407.798, 578.638 379 C 577.008 370.332, 571.646 349.579, 569.337 343 C 565.451 331.925, 563.495 327.367, 561.867 325.586 C 560.154 323.714, 560.001 323.758, 554.808 327.622 C 542.931 336.459, 529.138 341.401, 511.863 343.008 C 486.659 345.354, 465.296 340.219, 448.409 327.757 C 442.903 323.694, 441.736 323.332, 440.327 325.250 M 459.673 507.750 C 459.429 508.163, 458.920 510.975, 458.543 514 C 457.367 523.435, 452.113 537.430, 447.399 543.683 C 444.615 547.377, 444.342 550.209, 446.589 552.074 C 447.463 552.799, 452.075 558.364, 456.839 564.440 C 461.603 570.516, 466.175 576.166, 467 576.994 C 467.825 577.823, 470.721 581.426, 473.435 585 C 476.149 588.575, 479.749 593.090, 481.435 595.033 C 483.121 596.976, 485.400 599.823, 486.500 601.360 C 487.600 602.896, 489.400 605.155, 490.500 606.379 C 491.600 607.602, 494.075 610.704, 496 613.271 C 497.925 615.838, 500.187 617.952, 501.027 617.969 C 502.767 618.004, 505.150 615.428, 515.244 602.599 C 519.181 597.594, 522.875 592.953, 523.451 592.285 C 524.028 591.616, 525.175 590.285, 526 589.326 C 526.825 588.367, 530.200 584.154, 533.500 579.964 C 536.800 575.773, 543.260 567.685, 547.855 561.990 C 556.967 550.695, 559.023 547.265, 557.328 546.178 C 555.811 545.205, 550.219 535.009, 547.796 528.796 C 546.660 525.883, 545.217 520.167, 544.590 516.093 C 543.182 506.939, 542.005 505.967, 535.949 508.959 C 528.620 512.580, 518.025 515.753, 508.948 517.045 C 501.671 518.082, 498.968 518.020, 490.819 516.631 C 482.186 515.159, 466.975 510.085, 464.550 507.869 C 463.384 506.803, 460.280 506.727, 459.673 507.750 M 378 560.029 C 363.240 563.583, 355.890 566.267, 345.339 571.959 C 336.847 576.539, 334.515 578.315, 324.854 587.553 C 313.020 598.871, 311.047 601.869, 299.878 625.500 C 296.148 633.393, 294.116 648.323, 294.051 668.321 L 294 684.143 306.250 696.418 C 320.274 710.471, 324.923 716.667, 331.884 730.584 C 337.165 741.140, 339.542 747.045, 341.109 753.500 C 341.643 755.700, 342.823 758.063, 343.731 758.750 C 345.013 759.720, 359.722 759.997, 409.441 759.985 C 445.480 759.976, 474.120 759.577, 474.917 759.073 C 476.405 758.131, 473.705 754.388, 464.044 744 C 461.743 741.525, 457.769 737.025, 455.214 734 C 452.660 730.975, 447.176 724.675, 443.029 720 C 438.881 715.325, 432.812 708.350, 429.541 704.500 C 426.270 700.650, 422.898 696.784, 422.047 695.908 C 421.196 695.032, 418.475 691.902, 416 688.951 C 413.525 686, 409.025 680.829, 406 677.460 C 395.096 665.315, 394.998 665.159, 395.032 660.147 C 395.049 657.591, 395.724 654.626, 396.532 653.559 C 397.339 652.491, 398 651.039, 398 650.331 C 398 649.196, 400.649 643.105, 407.086 629.434 C 410.746 621.661, 410.313 620.917, 397.750 613.401 C 383.536 604.898, 380.247 602.267, 378.961 598.377 C 377.907 595.187, 379.271 590.310, 383.401 582.500 C 384.274 580.850, 384.990 579.170, 384.994 578.766 C 384.997 578.362, 386.363 575.219, 388.028 571.781 C 389.694 568.343, 391.156 564.173, 391.278 562.515 C 391.496 559.553, 391.413 559.497, 386.500 559.343 C 383.750 559.257, 379.925 559.565, 378 560.029 M 416.750 560.054 C 415.788 560.629, 414.985 561.640, 414.966 562.300 C 414.947 562.960, 414.063 565.300, 413 567.500 C 411.937 569.700, 411.053 571.828, 411.034 572.228 C 411.015 572.629, 409.425 576.320, 407.500 580.432 C 405.575 584.543, 404 588.840, 404 589.979 C 404 591.437, 405.852 593.208, 410.250 595.958 C 413.688 598.106, 417.044 600.345, 417.708 600.932 C 418.372 601.519, 419.226 602, 419.604 602 C 421.047 602, 430.998 609.159, 432.464 611.252 C 434.116 613.611, 434.574 621.527, 433.111 622.432 C 432.622 622.734, 431.929 624.147, 431.572 625.571 C 431.214 626.995, 429.634 630.937, 428.060 634.330 C 423.746 643.633, 418 657.246, 418 658.165 C 418 658.613, 420.314 661.571, 423.142 664.739 C 429.281 671.616, 431.612 674.296, 439.471 683.504 C 442.755 687.352, 447.480 692.756, 449.971 695.513 C 452.462 698.270, 456.750 703.178, 459.500 706.420 C 462.250 709.661, 465.567 713.480, 466.872 714.906 C 468.176 716.333, 476.208 725.487, 484.721 735.250 C 493.234 745.013, 500.674 753, 501.254 753 C 502.362 753, 509.022 745.904, 518.741 734.367 C 521.923 730.590, 525.811 726.150, 527.381 724.500 C 528.951 722.850, 533.619 717.450, 537.755 712.500 C 541.891 707.550, 545.786 703.050, 546.410 702.500 C 547.034 701.950, 550.853 697.675, 554.896 693 C 558.940 688.325, 565.061 681.348, 568.499 677.495 C 579.228 665.472, 584 659.209, 584 657.148 C 584 656.056, 583.367 653.888, 582.593 652.331 C 581.818 650.774, 580.718 648.375, 580.147 647 C 579.575 645.625, 577.571 641.125, 575.692 637 C 573.812 632.875, 571.928 628.375, 571.503 627 C 571.078 625.625, 570.116 623.612, 569.365 622.527 C 566.812 618.839, 567.648 613.733, 571.402 610.095 C 574.668 606.930, 577.259 605.182, 592.312 595.995 C 598.888 591.981, 599.100 591.728, 598.446 588.669 C 598.074 586.926, 597.184 584.375, 596.469 583 C 595.753 581.625, 593.263 576, 590.935 570.500 C 588.606 565, 586.206 560.169, 585.601 559.765 C 584.995 559.361, 583.082 559.024, 581.349 559.015 C 578.709 559.002, 577.338 560.013, 572.889 565.250 C 569.969 568.688, 566.887 572.266, 566.040 573.202 C 564.256 575.174, 563.554 576.072, 559.553 581.501 C 557.932 583.700, 556.357 585.725, 556.053 586 C 555.749 586.275, 553.700 588.745, 551.500 591.488 C 549.300 594.232, 546.825 597.204, 546 598.094 C 545.175 598.984, 543.502 601.014, 542.283 602.606 C 536.747 609.832, 527.360 621.603, 526 623.025 C 525.175 623.887, 521.800 628.118, 518.500 632.428 C 508.324 645.717, 507.370 646.500, 501.347 646.500 C 494.968 646.500, 496.479 647.993, 473 618.497 C 469.425 614.006, 462.158 604.969, 456.851 598.416 C 451.545 591.862, 442.320 580.425, 436.351 573 C 426.441 560.671, 425.196 559.479, 422 559.255 C 420.075 559.120, 417.712 559.480, 416.750 560.054 M 611.255 560.250 C 610.560 561.128, 612.306 566.268, 617.113 577.500 C 620.880 586.300, 623.970 594.446, 623.981 595.602 C 624.019 599.785, 619.526 604.312, 608.784 610.914 C 602.890 614.536, 596.817 618.447, 595.288 619.605 L 592.507 621.711 600.263 639.605 C 604.653 649.735, 608.014 658.893, 608.009 660.711 C 608.003 663.040, 606.710 665.512, 603.304 669.711 C 599.612 674.261, 578.459 698.653, 570 708.113 C 569.175 709.035, 567.600 710.876, 566.500 712.203 C 563.325 716.033, 544.770 737.208, 538.600 744.042 C 531.502 751.905, 527.500 757.042, 527.500 758.292 C 527.500 759.225, 547.864 759.558, 616.945 759.755 C 666.139 759.896, 706.766 759.634, 707.227 759.173 C 707.688 758.712, 708.043 733.021, 708.017 702.081 C 707.971 648.538, 707.869 645.434, 705.895 637.663 C 702.485 624.238, 699.461 616.448, 694.964 609.500 C 693.896 607.850, 692.710 605.825, 692.329 605 C 689.217 598.270, 673.382 582.053, 663.491 575.469 C 647.307 564.694, 615.155 555.326, 611.255 560.250 M 193.500 681.946 C 170.586 686.963, 152.229 696.811, 136.716 712.407 C 129.356 719.807, 123.541 727.015, 120.079 733.031 C 112.196 746.729, 108.305 756.858, 105.378 771.303 C 103.128 782.408, 103.977 808.450, 106.900 818 C 110.634 830.203, 111.831 833.757, 112.835 835.628 C 113.387 836.658, 114.824 839.525, 116.028 842 C 122.604 855.514, 136.654 871.889, 150 881.591 C 161.603 890.025, 181.478 898.376, 196.236 901.016 C 205.229 902.625, 224.827 902.631, 233.500 901.028 C 246.583 898.609, 263.584 892.056, 272.800 885.881 C 275.165 884.297, 277.473 883, 277.928 883 C 278.866 883, 291.269 871.794, 297.850 865 C 301.556 861.174, 304.999 856.335, 311.735 845.489 C 314.563 840.935, 319.212 829.696, 321.658 821.500 C 326.852 804.097, 327.126 781.186, 322.347 764 C 316.319 742.320, 308.570 728.663, 293.566 713.277 C 278.136 697.453, 259.409 687.097, 237.500 682.272 C 226.933 679.945, 203.434 679.770, 193.500 681.946 M 207.911 720.422 C 207.589 720.744, 204.787 721.477, 201.684 722.051 C 184.016 725.317, 166.592 738.458, 156.076 756.449 L 150.043 766.772 143.070 767.166 C 137.420 767.485, 135.614 768.014, 133.549 769.954 C 130.446 772.869, 130.252 776.779, 133.034 780.316 C 134.729 782.471, 136.022 782.952, 140.784 783.201 L 146.500 783.500 146.500 791 L 146.500 798.500 140.645 799.020 C 134.063 799.605, 131 802.120, 131 806.936 C 131 811.687, 134.977 814.292, 143.215 814.937 L 150.404 815.500 153.032 820.500 C 158.284 830.492, 163.081 836.941, 169.779 843.011 C 187.078 858.691, 209.275 865.070, 230.791 860.544 C 246.304 857.281, 257 850.741, 257 844.519 C 257 842.202, 251.583 837, 249.170 837 C 248.079 837, 244.332 838.268, 240.843 839.817 C 225.782 846.506, 208.099 846.363, 193.450 839.433 C 183.857 834.895, 168.420 818.366, 170.552 814.916 C 170.863 814.412, 178.551 814, 187.636 814 L 204.154 814 207.077 811.077 C 208.685 809.469, 210 807.465, 210 806.624 C 210 804.176, 207.869 800.177, 206.115 799.333 C 205.227 798.905, 195.500 798.318, 184.500 798.028 L 164.500 797.500 163.946 792.674 C 162.887 783.455, 162.621 783.572, 185.837 783 C 206.029 782.502, 206.127 782.489, 208.037 780 C 210.620 776.634, 210.484 773.674, 207.589 770.306 L 205.178 767.500 188.032 767.183 C 174.392 766.932, 170.775 766.578, 170.344 765.453 C 170.045 764.675, 171.377 761.893, 173.303 759.270 C 184.317 744.269, 199.342 736.684, 218.025 736.692 C 227.676 736.697, 231.877 737.582, 240 741.326 C 246.491 744.317, 252.588 744.185, 255.035 741 C 257.504 737.786, 257.489 735.496, 254.975 731.965 C 252.603 728.633, 242.595 723.647, 234.901 721.964 C 228.901 720.651, 208.829 719.504, 207.911 720.422" stroke="none" fill="#ffffff" fill-rule="evenodd"/>
</svg>