<svg xmlns="http://www.w3.org/2000/svg" width="1000" height="1000" viewBox="0 0 1000 1000" version="1.1">
	<path d="M 0 500.001 L 0 1000.002 500.250 999.751 L 1000.500 999.500 1000.751 499.750 L 1001.002 0 500.501 0 L 0 0 0 500.001 M 0.496 500.500 C 0.496 775.500, 0.610 887.851, 0.750 750.168 C 0.890 612.486, 0.890 387.486, 0.750 250.168 C 0.610 112.851, 0.496 225.500, 0.496 500.500 M 766 86.536 C 761.875 87.351, 756.415 88.690, 753.866 89.509 C 751.317 90.329, 748.617 91.015, 747.866 91.034 C 747.115 91.053, 744.700 91.937, 742.500 93 C 740.300 94.063, 738.042 94.947, 737.481 94.966 C 735.096 95.046, 715.017 106.020, 715.006 107.250 C 715.003 107.662, 714.487 108, 713.861 108 C 710.092 108, 685.664 131.555, 680.500 140.168 C 679.950 141.085, 677.813 144.312, 675.750 147.337 C 673.688 150.363, 672 153.325, 672 153.919 C 672 155.499, 665.244 155.239, 662.154 153.541 C 659.462 152.062, 654.158 149.782, 646 146.597 C 643.525 145.631, 640.226 144.202, 638.669 143.420 C 637.112 142.639, 635.087 141.997, 634.169 141.994 C 633.251 141.990, 631.179 141.299, 629.565 140.457 C 627.952 139.616, 625.027 138.533, 623.065 138.052 C 621.104 137.570, 618.150 136.720, 616.500 136.161 C 593.574 128.401, 564.930 122.792, 528 118.831 C 516.557 117.603, 467.483 118.522, 461 120.085 C 458.525 120.682, 452.900 121.545, 448.500 122.003 C 436.851 123.214, 429.622 124.740, 391 134.140 C 388.525 134.742, 385.610 135.700, 384.523 136.268 C 383.435 136.836, 380.510 137.871, 378.023 138.567 C 375.535 139.264, 371.025 140.805, 368 141.992 C 364.975 143.179, 361.163 144.563, 359.530 145.068 C 357.896 145.573, 354.521 146.946, 352.030 148.119 C 349.538 149.291, 345.025 151.364, 342 152.726 C 327.729 159.149, 309.814 168.486, 303 173.053 C 302.175 173.606, 300.712 174.322, 299.750 174.646 C 298.787 174.969, 298 175.625, 298 176.103 C 298 176.582, 296.538 177.647, 294.750 178.470 C 290.278 180.531, 270.442 194.555, 263.590 200.500 C 262.323 201.600, 260.266 203.175, 259.020 204 C 257.774 204.825, 256.198 206.032, 255.517 206.682 C 254.836 207.332, 252.079 209.746, 249.390 212.047 C 231.103 227.693, 208.023 252.793, 189.206 277.500 C 186.091 281.590, 174 300.230, 174 300.942 C 174 301.432, 173.646 301.983, 173.213 302.167 C 171.311 302.972, 156.296 331.046, 148.701 348 C 147.592 350.475, 146.305 353.282, 145.842 354.237 C 143.325 359.425, 131.845 392.387, 130.948 397 C 130.467 399.475, 129.402 403.300, 128.581 405.500 C 127.760 407.700, 127.068 410.360, 127.044 411.412 C 127.020 412.464, 126.362 415.614, 125.582 418.412 C 123.198 426.969, 121.671 435.944, 117.825 464 C 116.303 475.107, 116.330 528.368, 117.865 542 C 119.179 553.672, 121.357 569.104, 123.089 579 C 124.216 585.443, 125.285 589.914, 128.471 601.500 C 129.379 604.800, 130.482 609.075, 130.922 611 C 131.601 613.967, 138.766 635.223, 143.056 647 C 144.340 650.525, 149.760 662.724, 152.718 668.748 C 154.204 671.775, 154.190 672.133, 152.502 673.998 C 151.505 675.099, 150.305 676, 149.835 676 C 149.364 676, 146.622 677.661, 143.740 679.691 C 140.858 681.722, 137.150 684.314, 135.500 685.451 C 125.899 692.071, 113.077 705.340, 106 715.977 C 105.175 717.217, 103.763 719.199, 102.862 720.381 C 100.757 723.144, 91.002 742.849, 90.994 744.355 C 90.990 744.985, 90.332 746.757, 89.531 748.292 C 88.730 749.828, 87.786 752.753, 87.434 754.792 C 87.081 756.832, 86.072 760.525, 85.192 763 C 83.111 768.854, 82.920 812.670, 84.955 817.500 C 85.651 819.150, 86.791 822.975, 87.491 826 C 89.291 833.790, 90.568 837.057, 96.678 849.500 C 103.181 862.743, 104 864.189, 107.319 868.298 C 108.741 870.059, 111.889 873.975, 114.314 877 C 121.701 886.216, 140.405 901.620, 149.263 905.784 C 151.782 906.968, 154.130 908.401, 154.480 908.968 C 154.831 909.536, 155.936 910, 156.937 910 C 157.937 910, 159.315 910.675, 160 911.500 C 160.685 912.325, 161.977 913.015, 162.872 913.034 C 163.768 913.053, 166.300 913.937, 168.500 915 C 170.700 916.063, 173.317 916.947, 174.316 916.966 C 175.314 916.985, 177.028 917.480, 178.123 918.066 C 183.112 920.736, 200.236 923, 215.439 923 C 230.662 923, 246.700 920.836, 251.832 918.090 C 252.952 917.491, 254.618 917, 255.533 917 C 258.928 917, 281.880 905.741, 290.021 900.081 C 296.784 895.380, 311.074 882.305, 315.509 876.761 C 319.257 872.076, 327.123 860.800, 329.115 857.258 C 331.097 853.732, 332.012 853.014, 334.527 853.008 C 336.193 853.003, 338.443 853.616, 339.527 854.369 C 341.384 855.658, 354.637 861.364, 363.500 864.690 C 365.700 865.516, 369.425 867.048, 371.777 868.096 C 374.129 869.143, 376.964 870, 378.076 870 C 379.189 870, 381.314 870.615, 382.800 871.366 C 384.285 872.118, 387.300 873.058, 389.500 873.456 C 391.700 873.854, 394.021 874.609, 394.657 875.135 C 395.294 875.661, 397.994 876.500, 400.657 877 C 403.321 877.500, 408.991 878.840, 413.257 879.978 C 427.269 883.715, 439.181 885.617, 469.500 888.955 C 480.673 890.185, 518.237 890.213, 531 889 C 553.706 886.843, 591.700 880.540, 595.262 878.338 C 595.761 878.029, 598.719 877.182, 601.835 876.456 C 612.018 874.082, 617.462 872.489, 619.684 871.234 C 620.886 870.555, 622.686 869.985, 623.684 869.966 C 624.683 869.947, 627.300 869.063, 629.500 868 C 631.700 866.937, 634.251 866.053, 635.169 866.034 C 636.087 866.015, 638.112 865.352, 639.669 864.561 C 641.226 863.769, 646.325 861.552, 651 859.633 C 655.675 857.715, 660.850 855.440, 662.500 854.579 C 664.150 853.717, 666.007 853.010, 666.628 853.006 C 667.248 853.003, 668.315 852.325, 669 851.500 C 669.685 850.675, 671.058 850, 672.051 850 C 673.044 850, 674.473 849.384, 675.225 848.632 C 675.978 847.879, 677.551 846.960, 678.722 846.588 C 679.893 846.217, 682.797 844.828, 685.175 843.503 C 687.554 842.178, 691.750 839.912, 694.500 838.468 C 697.250 837.024, 700.210 835.203, 701.079 834.421 C 701.947 833.639, 703.185 833, 703.829 833 C 704.473 833, 705 832.535, 705 831.968 C 705 831.400, 705.788 830.613, 706.750 830.218 C 712.479 827.868, 745.942 803.007, 757.500 792.514 C 765.252 785.476, 779.569 771.132, 785.500 764.461 C 788.800 760.749, 792.196 756.990, 793.046 756.106 C 793.896 755.223, 796.590 752.025, 799.032 749 C 801.474 745.975, 803.704 743.275, 803.986 743 C 805.876 741.160, 811.762 733.189, 812.292 731.750 C 812.647 730.788, 813.401 730, 813.969 730 C 814.536 730, 815 729.543, 815 728.985 C 815 728.426, 817.182 724.939, 819.850 721.235 C 824.366 714.963, 831.129 704.210, 835.275 696.711 C 836.251 694.945, 837.896 692.150, 838.932 690.500 C 841.204 686.879, 847.612 674.096, 851.965 664.500 C 853.712 660.650, 856.009 655.651, 857.070 653.390 C 858.132 651.130, 859 648.629, 859 647.832 C 859 647.034, 859.661 645.509, 860.468 644.441 C 861.276 643.374, 861.966 641.825, 862.002 641 C 862.038 640.175, 862.937 637.700, 864 635.500 C 865.063 633.300, 865.947 630.706, 865.966 629.736 C 865.985 628.766, 866.412 627.191, 866.916 626.236 C 868.288 623.634, 872 611.594, 872 609.745 C 872 608.857, 872.530 606.863, 873.179 605.315 C 873.827 603.767, 874.915 599.800, 875.597 596.500 C 876.278 593.200, 877.343 588.250, 877.962 585.500 C 881.464 569.961, 882.309 564.845, 885.146 542 C 886.496 531.129, 886.484 479.298, 885.129 467.500 C 883.461 452.969, 882.008 442.975, 880.479 435.500 C 879.692 431.650, 878.559 426.025, 877.963 423 C 876.004 413.071, 874.390 406.545, 873.186 403.685 C 872.534 402.137, 872 400.008, 872 398.955 C 872 397.902, 871.363 395.344, 870.585 393.270 C 869.806 391.197, 868.036 385.900, 866.652 381.500 C 863.126 370.297, 861.014 364.657, 859.930 363.550 C 859.418 363.028, 859 361.990, 859 361.245 C 859 359.750, 855.196 350.744, 850.237 340.500 C 848.376 336.654, 848.998 334.537, 852.567 332.567 C 853.630 331.980, 854.725 331.230, 855 330.900 C 855.275 330.570, 856.625 329.717, 858 329.006 C 861.776 327.052, 876.964 315.068, 881.500 310.463 C 888.940 302.910, 897.140 292.567, 899.309 288 C 899.701 287.175, 900.908 285.150, 901.991 283.500 C 903.074 281.850, 905.347 277.575, 907.042 274 C 908.737 270.425, 910.546 266.719, 911.062 265.764 C 911.578 264.809, 912 263.221, 912 262.236 C 912 261.251, 912.613 259.557, 913.362 258.473 C 914.111 257.388, 915.056 254.250, 915.461 251.500 C 915.866 248.750, 916.628 245.696, 917.154 244.713 C 919.061 241.148, 920.052 219.904, 919.002 205.091 C 918.441 197.166, 917.575 190.191, 917.079 189.591 C 916.583 188.991, 915.732 186.250, 915.188 183.500 C 913.606 175.508, 906.904 158.203, 903.807 154.115 C 902.813 152.803, 902 151.336, 902 150.855 C 902 148.800, 889.768 132.532, 882.185 124.503 C 877.045 119.060, 859.506 105, 857.856 105 C 857.481 105, 854.783 103.425, 851.860 101.500 C 848.937 99.575, 845.803 98, 844.895 98 C 843.988 98, 842.685 97.325, 842 96.500 C 841.315 95.675, 840.091 95, 839.279 95 C 838.467 95, 836.384 94.373, 834.651 93.606 C 830.136 91.608, 822.642 89.380, 814 87.466 C 803.381 85.115, 775.881 84.582, 766 86.536 M 767.500 108.010 C 748.790 112.261, 739.422 116.026, 726.500 124.489 C 724.850 125.570, 723.275 126.689, 723 126.977 C 722.725 127.265, 720.255 129.300, 717.512 131.500 C 714.768 133.700, 710.943 137.084, 709.012 139.021 C 705.518 142.523, 695 155.563, 695 156.391 C 695 156.630, 693.425 159.217, 691.500 162.140 C 689.575 165.063, 688 168.197, 688 169.105 C 688 170.012, 687.325 171.315, 686.500 172 C 685.675 172.685, 685 174.225, 685 175.422 C 685 176.620, 684.586 178.028, 684.080 178.550 C 681.529 181.186, 677.044 204.845, 677.017 215.808 C 676.989 227.544, 680.667 249.221, 683.659 254.953 C 684.390 256.354, 684.990 258.232, 684.994 259.128 C 684.997 260.023, 685.675 261.315, 686.500 262 C 687.325 262.685, 688 263.841, 688 264.570 C 688 267.015, 696.682 282, 698.099 282 C 698.594 282, 699 282.469, 699 283.042 C 699 284.243, 699.108 284.380, 706.743 292.873 C 714.894 301.941, 728.331 312.064, 738.528 316.819 C 741.263 318.094, 744.694 319.781, 746.154 320.569 C 747.614 321.356, 749.571 322, 750.503 322 C 751.435 322, 753.616 322.637, 755.349 323.416 C 762.811 326.769, 787.380 329.210, 799.500 327.803 C 814.712 326.038, 829.683 321.467, 839.932 315.461 C 843.179 313.557, 846.117 312, 846.460 312 C 846.804 312, 847.628 311.557, 848.292 311.015 C 853.614 306.675, 855.879 305, 856.423 305 C 857.389 305, 875 287.625, 875 286.671 C 875 286.212, 876.462 283.961, 878.250 281.668 C 880.038 279.376, 882.072 276.600, 882.772 275.500 C 885.111 271.823, 892 257.299, 892 256.046 C 892 255.365, 892.625 253.614, 893.389 252.154 C 894.665 249.717, 895.459 246.574, 897.979 234 C 899.128 228.265, 899.125 208.038, 897.974 201.500 C 896.101 190.861, 894.777 185.392, 893.415 182.669 C 892.637 181.112, 892 179.207, 892 178.435 C 892 176.189, 882.966 158.524, 879.760 154.500 C 879.321 153.950, 878.071 152.419, 876.981 151.097 C 875.892 149.775, 875 148.354, 875 147.938 C 875 145.300, 848.169 122, 845.132 122 C 844.644 122, 843.709 121.354, 843.053 120.564 C 842.398 119.775, 840.543 118.839, 838.931 118.485 C 837.319 118.131, 836 117.448, 836 116.968 C 836 116.487, 834.538 115.646, 832.750 115.097 C 830.962 114.549, 826.800 113.149, 823.500 111.985 C 807.302 106.272, 782.802 104.533, 767.500 108.010 M 485.500 139.556 C 484.950 139.776, 476.623 140.609, 466.995 141.409 C 457.367 142.209, 448.367 143.281, 446.995 143.792 C 445.623 144.303, 441.575 145.017, 438 145.379 C 431.580 146.030, 427.144 146.958, 411.500 150.927 C 399.647 153.933, 392.746 155.873, 390.500 156.828 C 387.201 158.232, 378.729 161.077, 375.128 161.990 C 373.273 162.460, 371.270 163.330, 370.678 163.922 C 370.085 164.515, 368.986 165, 368.236 165 C 367.486 165, 364.313 166.168, 361.186 167.595 C 358.059 169.022, 353.025 171.311, 350 172.682 C 341.446 176.559, 327.555 183.392, 327 183.996 C 326.725 184.296, 325.375 185.099, 324 185.781 C 322.625 186.463, 320.150 187.912, 318.500 189 C 316.850 190.088, 314.825 191.290, 314 191.671 C 313.175 192.053, 311.375 193.132, 310 194.070 C 308.625 195.008, 304.800 197.506, 301.500 199.621 C 298.200 201.736, 295.050 203.820, 294.500 204.253 C 293.950 204.686, 287.875 209.252, 281 214.400 C 274.125 219.549, 266.925 225.195, 265 226.948 C 263.075 228.701, 259.535 231.792, 257.133 233.818 C 253.349 237.008, 243.363 246.965, 231.858 259.018 C 230.011 260.953, 226.700 264.774, 224.500 267.509 C 222.300 270.244, 219.456 273.611, 218.181 274.991 C 216.906 276.371, 214.467 279.413, 212.762 281.750 C 211.056 284.087, 209.287 286, 208.830 286 C 208.374 286, 208 286.455, 208 287.010 C 208 287.566, 206.349 290.378, 204.331 293.260 C 202.313 296.142, 199.725 299.850, 198.581 301.500 C 197.436 303.150, 196.275 304.725, 196 305 C 195.436 305.564, 195.076 306.160, 188.111 318.039 C 183.205 326.405, 168.639 354.868, 166.331 360.599 C 165.689 362.194, 164.184 365.975, 162.988 369 C 161.792 372.025, 160.347 375.625, 159.777 377 C 159.207 378.375, 158.377 380.850, 157.932 382.500 C 157.488 384.150, 155.927 388.650, 154.463 392.500 C 153 396.350, 151.480 401.300, 151.086 403.500 C 150.691 405.700, 149.887 408.400, 149.299 409.500 C 148.711 410.600, 147.902 413.975, 147.500 417 C 147.098 420.025, 146.313 423.367, 145.755 424.427 C 145.197 425.487, 144.390 428.862, 143.963 431.927 C 143.535 434.992, 142.699 440.425, 142.104 444 C 138.375 466.430, 138 471.676, 138 501.448 C 138 535.202, 139.918 556.426, 145.100 580 C 145.644 582.475, 146.654 587.210, 147.345 590.523 C 148.036 593.835, 149.002 597.194, 149.492 597.986 C 149.981 598.779, 150.712 601.243, 151.115 603.463 C 151.915 607.867, 154.413 615.684, 156.608 620.651 C 157.373 622.384, 158 624.506, 158 625.367 C 158 626.924, 159.923 631.928, 162.598 637.331 C 163.369 638.888, 164 640.600, 164 641.136 C 164 642.093, 165.875 646.520, 170.545 656.588 C 174.015 664.068, 174.457 664.275, 183.108 662.451 C 197.079 659.506, 200.536 659.146, 215 659.133 C 229.235 659.119, 231.929 659.407, 245 662.331 C 250.366 663.531, 261.779 667.366, 269.090 670.426 C 271.955 671.625, 272.730 668.695, 273.438 654 C 273.822 646.025, 274.530 637.700, 275.012 635.500 C 276.782 627.417, 278.225 622.432, 279.596 619.669 C 280.368 618.112, 281 616.359, 281 615.774 C 281 613.559, 288.485 599.167, 293.883 591.004 C 301.116 580.063, 315.093 566.177, 326.850 558.250 C 331.949 554.813, 336.320 552, 336.565 552 C 336.810 552, 339.370 550.845, 342.255 549.433 C 345.140 548.021, 351.100 545.738, 355.500 544.360 C 359.900 542.983, 364.577 541.418, 365.894 540.884 C 370.532 539.001, 391.678 537.016, 407.185 537.008 C 415.812 537.004, 423.912 536.600, 425.185 536.110 C 427.977 535.036, 432.641 527.863, 435.191 520.721 C 437.076 515.437, 439.208 493.681, 438.238 489.618 C 437.960 488.453, 436.512 486.150, 435.020 484.500 C 433.528 482.850, 431.001 479.700, 429.404 477.500 C 427.807 475.300, 426.050 472.953, 425.500 472.285 C 420.076 465.693, 417.029 460.509, 409.462 445 C 400.816 427.280, 397.597 419.606, 394.568 409.500 C 393.909 407.300, 392.887 404.375, 392.297 403 C 390.522 398.863, 385.147 380.784, 384.418 376.500 C 384.043 374.300, 383.345 371.741, 382.867 370.813 C 382.009 369.149, 380.655 358.884, 379.030 341.728 C 378.573 336.904, 378.586 330.154, 379.059 326.728 C 381.154 311.553, 382.225 305.431, 382.948 304.500 C 383.375 303.950, 384.027 302.150, 384.397 300.500 C 384.766 298.850, 385.697 296.150, 386.464 294.500 C 387.231 292.850, 388.695 289.700, 389.717 287.500 C 393.599 279.146, 403.663 265.669, 409.960 260.392 C 411.858 258.801, 414.509 256.488, 415.850 255.251 C 422.970 248.687, 443.172 237.795, 453.500 234.953 C 455.150 234.499, 459.875 233.186, 464 232.034 C 468.125 230.883, 478.025 229.249, 486 228.404 C 503.398 226.560, 521.913 227.766, 536.500 231.692 C 541.450 233.025, 547.224 234.486, 549.330 234.938 C 551.437 235.391, 553.665 236.265, 554.280 236.880 C 554.896 237.496, 556.013 238, 556.762 238 C 560.048 238, 578.176 248.056, 584.704 253.500 C 594.208 261.426, 606.234 274.411, 608.322 279 C 608.947 280.375, 609.727 281.725, 610.054 282 C 611.874 283.529, 616.623 294.543, 619.448 303.786 C 621.960 312.003, 624.263 331.636, 623.637 339.500 C 622.623 352.239, 621.001 364.412, 619.439 371 C 615.548 387.414, 614.043 393.051, 613.060 394.888 C 612.477 395.977, 611.985 397.686, 611.966 398.684 C 611.947 399.683, 611.063 402.300, 610 404.500 C 608.937 406.700, 608.038 409.400, 608.002 410.500 C 607.966 411.600, 607.276 413.374, 606.468 414.441 C 605.661 415.509, 605 417.239, 605 418.287 C 605 419.334, 604.344 421.386, 603.543 422.846 C 602.742 424.306, 600.417 429.550, 598.378 434.500 C 596.339 439.450, 594.104 444.175, 593.413 445 C 592.722 445.825, 591.847 447.738, 591.470 449.250 C 591.092 450.762, 590.426 452, 589.989 452 C 589.553 452, 588.688 453.237, 588.067 454.750 C 585.612 460.730, 572.836 479.200, 567.505 484.474 L 564.500 487.447 564.725 500.821 C 564.887 510.426, 565.380 515.056, 566.475 517.251 C 567.314 518.932, 568 520.936, 568 521.706 C 568 523.603, 571.968 530.661, 574.843 533.878 L 577.187 536.500 598.343 537.122 C 626.068 537.938, 632.524 538.941, 649.808 545.118 C 657.246 547.777, 668.435 553.072, 668.833 554.122 C 669.017 554.605, 669.723 555, 670.403 555 C 672.495 555, 685.194 564.794, 694.644 573.697 C 699.154 577.945, 709.217 591.119, 712.445 597 C 716.313 604.048, 722 615.779, 722 616.711 C 722 617.294, 722.672 619.060, 723.494 620.636 C 724.315 622.211, 724.990 624.683, 724.994 626.128 C 724.997 627.573, 725.670 630.358, 726.488 632.317 C 727.383 634.460, 728.377 642.172, 728.984 651.689 C 730.386 673.659, 730.319 767.848, 728.898 773.492 C 726.836 781.679, 744.355 781, 535.221 781 C 387.649 781, 349.035 781.258, 348.229 782.250 C 347.670 782.938, 346.980 788.450, 346.696 794.500 C 346.105 807.072, 344.293 820.936, 343.041 822.463 C 342.220 823.465, 341.675 827.637, 341.894 831.250 C 341.952 832.212, 342.644 833, 343.432 833 C 344.219 833, 347.482 834.334, 350.682 835.964 C 358.938 840.170, 365.647 843, 367.364 843 C 368.175 843, 370.112 843.639, 371.669 844.420 C 376.043 846.615, 387.331 850.658, 395.500 852.957 C 407.629 856.369, 419.123 859.381, 422.500 860.031 C 424.700 860.455, 429.200 861.331, 432.500 861.978 C 448.710 865.155, 454.647 866.018, 468.500 867.209 C 495.525 869.535, 540.956 867.946, 561 863.975 C 588.726 858.482, 601.231 855.313, 610.784 851.359 C 612.590 850.612, 614.840 849.985, 615.784 849.966 C 616.728 849.947, 619.300 849.063, 621.500 848 C 623.700 846.937, 626.400 846.038, 627.500 846.002 C 628.600 845.966, 630.374 845.276, 631.441 844.468 C 632.509 843.661, 634.016 843, 634.790 843 C 636.280 843, 639.120 841.811, 650.623 836.369 C 654.540 834.516, 658.198 833, 658.750 833 C 659.303 833, 660.291 832.354, 660.947 831.564 C 661.602 830.775, 663.457 829.839, 665.069 829.485 C 666.681 829.131, 668 828.463, 668 828 C 668 827.537, 669.319 826.869, 670.931 826.515 C 672.543 826.161, 674.398 825.225, 675.053 824.436 C 675.709 823.646, 676.674 823, 677.199 823 C 678.416 823, 695.858 812.506, 704.601 806.513 C 706.195 805.420, 708.007 804.070, 708.627 803.513 C 709.248 802.956, 710.768 801.825, 712.005 801 C 718.359 796.764, 725 791.568, 725 790.832 C 725 790.374, 725.575 790, 726.278 790 C 726.981 790, 728.266 789.213, 729.134 788.250 C 730.001 787.288, 731.866 785.676, 733.276 784.670 C 743.438 777.418, 780.253 740.230, 784.982 732.441 C 785.797 731.098, 786.809 730, 787.232 730 C 787.654 730, 788 729.425, 788 728.722 C 788 728.019, 788.788 726.701, 789.750 725.793 C 791.563 724.081, 791.784 723.810, 796.097 717.999 C 799.650 713.213, 808 700.954, 808 700.524 C 808 700.332, 809.575 697.783, 811.500 694.860 C 813.425 691.937, 815 689.220, 815 688.823 C 815 688.425, 816.285 686.165, 817.855 683.800 C 822.191 677.271, 831.432 658.498, 836.955 645 C 838.193 641.975, 839.776 638.150, 840.472 636.500 C 844.068 627.980, 845.620 623.439, 849.868 609 C 851.082 604.875, 852.557 600.150, 853.147 598.500 C 853.737 596.850, 854.572 593.250, 855.002 590.500 C 855.433 587.750, 856.275 584.375, 856.873 583 C 857.471 581.625, 858.377 577.575, 858.885 574 C 859.392 570.425, 860.290 564.800, 860.879 561.500 C 866.895 527.811, 866.744 478.662, 860.522 445 C 859.760 440.875, 858.840 435.475, 858.479 433 C 858.117 430.525, 857.186 426.572, 856.411 424.215 C 855.635 421.858, 855 418.647, 855 417.079 C 855 415.511, 854.328 412.940, 853.506 411.364 C 852.685 409.789, 852.010 407.714, 852.006 406.754 C 852.003 405.794, 851.087 402.194, 849.971 398.754 C 848.855 395.314, 847.245 390.250, 846.392 387.500 C 845.539 384.750, 844.246 380.925, 843.518 379 C 840.655 371.433, 837.816 364.361, 836.493 361.500 C 835.730 359.850, 833.750 355.501, 832.094 351.834 C 830.437 348.168, 828.633 344.891, 828.084 344.552 C 826.767 343.738, 814.056 345.861, 811.500 347.323 C 808.848 348.839, 776.204 349.461, 769 348.132 C 751.311 344.869, 737.839 340.496, 728 334.824 C 727.175 334.349, 725.150 333.287, 723.500 332.465 C 718.537 329.992, 715.515 327.922, 704.325 319.331 C 701.094 316.849, 688 304.192, 688 303.549 C 688 303.315, 686.618 301.633, 684.930 299.812 C 680.346 294.868, 668.183 274.715, 668.066 271.872 C 668.030 270.977, 667.325 269.685, 666.500 269 C 665.675 268.315, 665 267.031, 665 266.147 C 665 265.262, 664.147 262.280, 663.105 259.519 C 659.130 248.993, 656 230.304, 656 217.102 C 656 208.064, 658.594 187.673, 660.108 184.816 C 661.706 181.799, 661.179 175.996, 659.250 175.359 C 657.252 174.699, 645.903 169.585, 641.669 167.436 C 640.112 166.646, 638.312 165.985, 637.669 165.966 C 637.026 165.947, 634.700 165.063, 632.500 164 C 630.300 162.937, 627.825 162.050, 627 162.028 C 626.175 162.006, 624.293 161.358, 622.817 160.588 C 621.342 159.818, 618.644 158.861, 616.821 158.461 C 614.999 158.061, 612.156 157.160, 610.504 156.459 C 608.852 155.759, 604.800 154.503, 601.500 153.668 C 598.200 152.834, 593.475 151.603, 591 150.933 C 584.696 149.227, 574.577 147.071, 567.500 145.926 C 564.200 145.392, 559.475 144.480, 557 143.899 C 554.525 143.318, 547.100 142.445, 540.500 141.960 C 533.900 141.475, 526.076 140.610, 523.114 140.039 C 518.078 139.068, 487.703 138.678, 485.500 139.556 M 776 147.984 C 760.036 151.821, 751.299 156.593, 740.397 167.428 C 735.588 172.207, 728 182.151, 728 183.674 C 728 184.056, 727.067 186.296, 725.926 188.653 C 723.719 193.212, 722.131 193.886, 713.724 193.829 C 707.775 193.789, 705 196.187, 705 201.368 C 705 206.939, 707.171 208.995, 713.079 209.015 C 719.281 209.037, 720.250 209.966, 720.784 216.406 C 721.380 223.593, 720.249 225, 713.878 225 C 707.505 225, 704.998 227.332, 705.006 233.250 C 705.012 236.946, 705.413 237.728, 708.087 239.250 C 710.140 240.418, 713.307 241, 717.612 241 C 722.874 241, 724.167 241.323, 724.628 242.750 C 726.717 249.216, 733.144 259.289, 739.370 265.855 C 748.685 275.679, 762.993 283.781, 775.262 286.180 C 787.813 288.633, 806.300 287.334, 815 283.387 C 828.144 277.424, 829 276.614, 829 270.139 C 829 266.659, 828.595 265.945, 825.846 264.573 C 822.211 262.760, 820.660 262.630, 818.236 263.936 C 810.036 268.354, 799.836 271, 791 271 C 784.188 271, 772.591 268.527, 769.610 266.439 C 768.480 265.648, 766.948 265, 766.206 265 C 765.464 265, 764.246 264.438, 763.498 263.750 C 762.751 263.063, 759.954 260.966, 757.284 259.091 C 751.428 254.982, 744 245.626, 744 242.361 L 744 240 760.050 240 C 778.738 240, 781.496 239.203, 782.567 233.493 C 783.417 228.966, 781.210 225.492, 776.943 224.639 C 775.187 224.287, 766.001 224, 756.530 224 C 741.118 224, 739.136 223.808, 737.655 222.171 C 735.488 219.776, 735.539 213.777, 737.750 211.112 C 739.409 209.113, 740.536 208.990, 759.393 208.751 L 779.286 208.500 781.271 205.840 C 783.974 202.218, 782.981 196.323, 779.441 194.978 C 778.093 194.465, 770.038 193.988, 761.540 193.916 C 743.580 193.766, 742.032 193.248, 744.533 188.234 C 745.420 186.455, 746.564 185, 747.073 185 C 747.583 185, 748 184.416, 748 183.703 C 748 180.241, 766.440 166.916, 773.817 165.047 C 775.842 164.534, 779.300 163.649, 781.500 163.081 C 791.140 160.591, 802.804 162.451, 815.640 168.523 C 821.707 171.393, 821.744 171.398, 825.296 169.750 C 828.808 168.121, 830.410 163.475, 828.928 159.222 C 828.092 156.824, 826.583 155.492, 822.663 153.690 C 805.951 146.008, 791.547 144.247, 776 147.984 M 480.500 250.191 C 478.300 250.736, 474.025 251.777, 471 252.505 C 458.872 255.422, 456.525 256.180, 450.776 259.032 C 447.486 260.665, 444.152 262, 443.366 262 C 442.580 262, 441.678 262.675, 441.362 263.500 C 441.045 264.325, 440.200 265, 439.483 265 C 436.659 265, 420.975 278.970, 415.344 286.500 C 411.531 291.599, 405.002 304.341, 404.994 306.698 C 404.990 307.689, 404.206 309.850, 403.251 311.500 C 401.739 314.112, 401.514 317.499, 401.507 337.667 C 401.503 350.409, 401.859 361.193, 402.298 361.632 C 404.338 363.671, 406.638 359.764, 409.203 349.897 C 412.111 338.716, 414.426 331.282, 416.490 326.500 C 423.770 309.631, 425.012 307.180, 429.281 301.251 C 434.175 294.456, 438.528 292.425, 443.222 294.747 C 445.025 295.640, 449.875 299.856, 454 304.118 C 462.128 312.514, 468.416 316.404, 479.418 319.839 C 489.270 322.916, 512.575 322.968, 522.645 319.936 C 535.776 315.982, 540.082 313.212, 551.576 301.320 C 557.488 295.204, 559.182 294, 561.876 294 C 566.505 294, 570.076 296.178, 573.602 301.151 C 576.565 305.332, 580.375 313.083, 586.555 327.500 C 588.160 331.243, 594.522 352.116, 595.700 357.500 C 596.359 360.511, 597.060 361.500, 598.538 361.500 C 600.313 361.500, 600.576 360.497, 601.292 351 C 601.728 345.225, 601.833 334.978, 601.526 328.229 C 600.787 312.021, 598.114 303.536, 589.091 288.750 C 587.832 286.688, 586.397 285, 585.901 285 C 585.406 285, 585 284.535, 585 283.966 C 585 283.398, 583.712 281.710, 582.139 280.216 C 572.846 271.395, 570.087 269, 569.217 269 C 568.682 269, 567.646 268.278, 566.914 267.396 C 566.181 266.514, 564.664 265.371, 563.541 264.856 C 562.418 264.341, 559.025 262.604, 556 260.994 C 549.827 257.711, 535.296 252.978, 524 250.572 C 515.492 248.760, 487.278 248.513, 480.500 250.191 M 440.189 326.039 C 438.985 327.160, 438 328.780, 438 329.638 C 438 330.496, 437.380 332.616, 436.622 334.349 C 433.076 342.455, 426.635 365.157, 424.831 375.908 C 424.331 378.882, 423.680 381.709, 423.383 382.190 C 423.086 382.670, 422.228 386.987, 421.477 391.782 C 420.727 396.577, 419.537 403.123, 418.833 406.329 C 417.697 411.505, 417.747 412.494, 419.277 415.160 C 420.225 416.811, 421 418.651, 421 419.248 C 421 420.320, 434.831 448.615, 437.253 452.500 C 437.939 453.600, 439.962 456.376, 441.750 458.668 C 443.538 460.961, 445 463.069, 445 463.354 C 445 464.053, 452.573 472.495, 457.450 477.234 C 461.574 481.240, 470.111 487.247, 474.149 488.984 C 475.442 489.540, 477.175 490.420, 478 490.940 C 478.825 491.459, 482.613 492.811, 486.418 493.942 C 495.640 496.685, 507.552 496.709, 515.260 494 C 518.389 492.900, 521.581 492, 522.353 492 C 523.124 492, 524.315 491.325, 525 490.500 C 525.685 489.675, 527.011 489, 527.947 489 C 530.416 489, 543.271 479.096, 550.462 471.652 C 555.613 466.320, 561.832 457.755, 568.723 446.498 C 570.260 443.988, 577.812 428.591, 579.635 424.250 C 580.386 422.462, 581.632 419.538, 582.403 417.750 C 584.750 412.316, 584.881 411.387, 583.864 407.371 C 583.325 405.242, 582.250 399.450, 581.476 394.500 C 579.335 380.813, 577.015 370.113, 573.434 357.412 C 572.645 354.614, 571.997 351.689, 571.994 350.912 C 571.990 350.135, 571.358 348.293, 570.588 346.817 C 569.818 345.342, 568.879 342.724, 568.500 341 C 568.121 339.276, 567.182 336.658, 566.412 335.183 C 565.642 333.707, 565.010 331.773, 565.006 330.885 C 564.999 329.110, 561.327 324, 560.058 324 C 559.620 324, 557.065 325.688, 554.381 327.750 C 543.346 336.228, 529.382 341.289, 512.232 343.026 C 487.650 345.514, 464.651 340.037, 448.409 327.827 C 445.609 325.722, 443.107 324, 442.848 324 C 442.589 324, 441.392 324.918, 440.189 326.039 M 459.515 507.976 C 459.183 508.513, 458.661 511.326, 458.356 514.226 C 457.391 523.385, 451.023 539.798, 446.386 545.079 C 444.493 547.234, 444.646 550.221, 446.750 552.207 C 447.712 553.116, 448.950 554.455, 449.500 555.184 C 454.714 562.090, 462.649 571.658, 463.696 572.300 C 464.413 572.740, 465 573.752, 465 574.550 C 465 575.347, 465.342 576, 465.760 576 C 466.178 576, 468.991 579.253, 472.010 583.228 C 475.030 587.204, 478.191 591.157, 479.036 592.014 C 479.880 592.870, 481.905 595.355, 483.536 597.535 C 487.754 603.175, 487.798 603.230, 490.266 606.082 C 491.494 607.503, 494.234 610.765, 496.353 613.332 C 498.473 615.900, 500.747 618, 501.408 618 C 502.725 618, 506.316 613.944, 516.458 601 C 520.121 596.325, 523.542 592.350, 524.059 592.167 C 524.577 591.983, 525 591.196, 525 590.417 C 525 589.638, 525.362 589, 525.804 589 C 526.246 589, 529.059 585.763, 532.054 581.806 C 535.049 577.849, 538.506 573.462, 539.734 572.056 C 540.963 570.650, 542.326 569.050, 542.763 568.500 C 552.179 556.647, 555.594 552.411, 556.069 552 C 557.855 550.453, 557.828 547.567, 556.003 545.005 C 554.902 543.457, 554 541.698, 554 541.096 C 554 540.493, 553.649 540, 553.219 540 C 552.790 540, 551.848 538.538, 551.126 536.750 C 550.405 534.962, 548.903 531.250, 547.788 528.500 C 546.674 525.750, 545.253 520.173, 544.631 516.108 C 543.229 506.943, 542.029 505.955, 535.949 508.959 C 529.384 512.202, 518.236 515.717, 512.210 516.442 C 509.300 516.793, 505.830 517.576, 504.499 518.183 C 502.635 519.032, 500.732 518.908, 496.223 517.643 C 493.003 516.739, 489.163 516, 487.688 516 C 484.809 516, 474.404 512.697, 469.500 510.226 C 467.850 509.395, 465.719 508.329, 464.764 507.857 C 462.463 506.721, 460.259 506.771, 459.515 507.976 M 379 559.631 C 371.193 560.887, 355.086 566.849, 345 572.217 C 328.258 581.125, 311.932 598.749, 303.979 616.500 C 302.254 620.350, 300.203 624.694, 299.421 626.154 C 298.640 627.614, 298 629.991, 298 631.436 C 298 632.882, 297.278 635.737, 296.395 637.782 C 295.158 640.646, 294.667 646.360, 294.256 662.659 L 293.724 683.818 305.862 695.823 C 312.538 702.425, 318 708.091, 318 708.412 C 318 708.734, 319.990 711.585, 322.423 714.749 C 324.855 717.912, 328.719 724.325, 331.010 729 C 333.301 733.675, 335.810 738.694, 336.587 740.154 C 337.364 741.614, 338.003 743.414, 338.006 744.154 C 338.010 744.894, 338.621 746.667, 339.365 748.093 C 340.110 749.519, 341.026 752.326, 341.402 754.331 C 341.782 756.357, 342.926 758.425, 343.977 758.988 C 346.357 760.262, 472.889 760.356, 474.895 759.086 C 476.297 758.198, 472.785 753.253, 464.500 744.453 C 462.850 742.701, 459.250 738.633, 456.500 735.413 C 450.573 728.475, 443.730 720.702, 442.931 720 C 442.618 719.725, 437.928 714.328, 432.510 708.008 C 427.091 701.687, 422.172 696.011, 421.579 695.395 C 420.986 694.779, 418.250 691.646, 415.500 688.433 C 412.750 685.220, 408.475 680.285, 406 677.466 C 394.775 664.685, 395 665.032, 395 660.485 C 395 658.107, 395.620 654.888, 396.378 653.331 C 397.135 651.774, 398.473 648.806, 399.351 646.735 C 401.053 642.717, 402.364 639.788, 406.435 630.904 C 409.456 624.313, 409.743 620.211, 407.250 619.292 C 406.288 618.936, 405.275 618.381, 405 618.058 C 404.725 617.735, 400.047 614.800, 394.606 611.537 C 379.220 602.310, 375.920 597.903, 379.348 591.154 C 380.900 588.099, 383.112 583.236, 385.559 577.500 C 386.497 575.300, 388.128 571.623, 389.183 569.329 C 390.239 567.035, 391.191 563.885, 391.301 562.329 C 391.494 559.590, 391.340 559.496, 386.500 559.364 C 383.750 559.290, 380.375 559.410, 379 559.631 M 416.750 560.080 C 415.788 560.641, 414.985 561.640, 414.966 562.300 C 414.947 562.960, 414.063 565.300, 413 567.500 C 411.937 569.700, 411.053 571.828, 411.034 572.228 C 411.015 572.629, 409.425 576.320, 407.500 580.432 C 405.575 584.543, 404 588.796, 404 589.881 C 404 591.766, 408.273 596, 410.175 596 C 411.107 596, 416.402 599.532, 418.794 601.750 C 419.536 602.438, 420.579 603, 421.112 603 C 422.282 603, 427.472 606.541, 431.250 609.917 C 433.520 611.945, 434 613.204, 434 617.128 C 434 619.743, 433.600 622.129, 433.111 622.432 C 432.622 622.734, 431.929 624.147, 431.572 625.571 C 430.981 627.924, 428.130 634.534, 422.930 645.610 C 421.868 647.870, 421 650.402, 421 651.237 C 421 652.072, 420.325 653.315, 419.500 654 C 418.675 654.685, 418 655.932, 418 656.771 C 418 658.565, 425.902 668.378, 439.488 683.454 C 440.594 684.682, 443.632 688.161, 446.237 691.184 C 448.842 694.206, 451.992 697.801, 453.237 699.172 C 454.482 700.543, 457.525 704.067, 460 707.003 C 462.475 709.939, 465.625 713.540, 467 715.005 C 473.819 722.270, 478 727.215, 478 728.015 C 478 728.502, 478.593 729.260, 479.317 729.700 C 480.041 730.140, 485.056 735.563, 490.462 741.750 C 495.868 747.938, 500.788 752.999, 501.395 752.997 C 502.003 752.995, 505.875 749.093, 510 744.324 C 517.772 735.339, 520.206 732.583, 524.858 727.500 C 526.368 725.850, 530.130 721.502, 533.217 717.837 C 539.715 710.123, 543.120 706.244, 548 701 C 553.303 695.301, 556.103 692.074, 561.451 685.500 C 564.135 682.200, 568.502 677.222, 571.156 674.437 C 577.131 668.168, 585.084 658.002, 584.689 657.141 C 582.583 652.557, 580.929 648.878, 579.680 646 C 578.845 644.075, 576.840 639.575, 575.225 636 C 573.609 632.425, 571.938 628.375, 571.509 627 C 571.081 625.625, 570.116 623.612, 569.365 622.527 C 568.614 621.443, 568 618.912, 568 616.905 C 568 613.872, 568.744 612.569, 572.401 609.198 C 574.821 606.967, 578.533 604.197, 580.651 603.043 C 582.768 601.888, 585.850 600.061, 587.500 598.983 C 589.150 597.904, 591.175 596.710, 592 596.329 C 592.825 595.947, 594.752 594.722, 596.283 593.605 C 598.626 591.896, 598.963 591.095, 598.417 588.538 C 598.061 586.867, 597.202 584.375, 596.509 583 C 595.816 581.625, 594.262 578.250, 593.056 575.500 C 591.850 572.750, 590.219 569.306, 589.431 567.846 C 588.644 566.386, 588 564.505, 588 563.667 C 588 561.113, 585.043 559, 581.468 559 C 577.817 559, 576.422 560.148, 570.223 568.250 C 568.224 570.862, 566.231 573, 565.795 573 C 565.358 573, 565 573.675, 565 574.500 C 565 575.325, 564.610 576, 564.133 576 C 563.656 576, 562.128 577.688, 560.736 579.750 C 558.158 583.573, 553.728 589.117, 550.964 591.980 C 550.120 592.855, 548.098 595.355, 546.470 597.536 C 544.843 599.716, 542.947 601.860, 542.256 602.300 C 541.565 602.740, 541 603.752, 541 604.550 C 541 605.347, 540.658 606, 540.240 606 C 539.822 606, 537.154 609.050, 534.311 612.777 C 531.469 616.504, 528.098 620.696, 526.821 622.092 C 525.545 623.489, 521.800 628.149, 518.500 632.447 C 508.290 645.748, 507.370 646.500, 501.314 646.500 C 496.676 646.500, 495.720 646.128, 493.275 643.374 C 487.709 637.102, 485 633.782, 485 633.231 C 485 632.921, 484.346 631.955, 483.546 631.084 C 478.742 625.849, 478 624.912, 478 624.083 C 478 623.579, 477.607 623.017, 477.126 622.833 C 476.645 622.650, 473.417 618.900, 469.951 614.500 C 466.486 610.100, 463.360 606.275, 463.005 606 C 462.379 605.515, 455.957 597.540, 437.697 574.572 C 424.935 558.519, 425.424 558.996, 421.757 559.030 C 419.965 559.047, 417.712 559.519, 416.750 560.080 M 611.301 559.722 C 610.412 560.339, 611.014 562.748, 613.627 569.028 C 622.955 591.446, 624.215 595.006, 623.638 597.307 C 622.580 601.521, 619.278 604.588, 609.547 610.395 C 595.466 618.798, 593.090 620.396, 593.034 621.500 C 592.958 623.006, 599.387 638.450, 600.250 638.833 C 600.663 639.017, 601 639.923, 601 640.848 C 601 641.773, 601.900 644.209, 603 646.261 C 604.100 648.314, 605 650.614, 605 651.374 C 605 652.134, 605.675 653.315, 606.500 654 C 607.393 654.741, 607.997 656.916, 607.993 659.372 C 607.986 663.986, 606.529 666.598, 599.943 673.798 C 599.087 674.734, 595.937 678.397, 592.943 681.938 C 589.950 685.478, 586.825 689.112, 586 690.013 C 580.011 696.554, 576.083 700.988, 573.610 704 C 572.029 705.925, 568.125 710.425, 564.934 714 C 561.743 717.575, 558.173 721.625, 557.001 723 C 550.658 730.438, 545.217 736.670, 543 739.035 C 541.625 740.502, 538.700 743.872, 536.500 746.523 C 534.300 749.174, 531.263 752.717, 529.750 754.395 C 526.415 758.095, 526.346 758.804, 529.250 759.506 C 530.487 759.805, 571.100 759.926, 619.500 759.775 L 707.500 759.500 707.758 702.033 C 707.972 654.543, 707.769 643.779, 706.591 640.033 C 705.808 637.540, 704.864 633.700, 704.494 631.500 C 704.124 629.300, 703.466 627.050, 703.033 626.500 C 702.599 625.950, 701.923 624.375, 701.530 623 C 700.655 619.942, 697.535 613.542, 694.949 609.500 C 693.894 607.850, 692.620 605.582, 692.119 604.459 C 691.618 603.336, 690.486 601.819, 689.604 601.086 C 688.722 600.354, 688 599.321, 688 598.791 C 688 597.190, 674.487 583, 672.961 583 C 672.433 583, 672 582.579, 672 582.063 C 672 578.951, 641.475 563.013, 635.478 562.994 C 634.390 562.990, 632.225 562.323, 630.668 561.510 C 627.400 559.806, 613.082 558.484, 611.301 559.722 M 199.065 680.912 C 198.276 681.426, 194.901 682.149, 191.565 682.518 C 188.229 682.887, 184.600 683.749, 183.500 684.434 C 182.400 685.119, 180.097 685.953, 178.382 686.288 C 175.021 686.945, 162.390 692.832, 157.500 696.020 C 155.850 697.096, 153.810 698.319, 152.967 698.738 C 147.355 701.527, 130.239 717.896, 125.503 725.002 C 123.854 727.476, 122.279 729.725, 122.003 730 C 120.205 731.788, 111 749.825, 111 751.560 C 111 752.457, 110.358 754.386, 109.573 755.846 C 106.258 762.010, 103.999 776.447, 104.044 791.184 C 104.068 799.058, 104.492 807.300, 104.987 809.500 C 105.482 811.700, 106.383 815.750, 106.989 818.500 C 107.596 821.250, 108.746 824.694, 109.546 826.154 C 110.346 827.614, 111 829.513, 111 830.373 C 111 831.805, 113.859 838.360, 116.071 842 C 116.572 842.825, 118.224 845.700, 119.741 848.389 C 125.172 858.012, 124.777 857.517, 136.500 869.428 C 145.565 878.639, 151.572 883.341, 159.949 887.783 C 162.452 889.110, 165.625 890.803, 167 891.544 C 179.571 898.319, 201.211 903.033, 217.500 902.544 C 230.802 902.144, 248.024 898.462, 256 894.313 C 257.375 893.598, 259.261 893.010, 260.191 893.006 C 261.121 893.003, 262.164 892.543, 262.509 891.985 C 262.854 891.427, 264.568 890.303, 266.318 889.489 C 271.341 887.151, 278.150 882.985, 282.474 879.606 C 291.826 872.297, 308 854.215, 308 851.070 C 308 850.481, 308.406 850, 308.902 850 C 309.398 850, 310.292 848.763, 310.888 847.250 C 311.484 845.737, 312.400 843.825, 312.924 843 C 314.013 841.285, 317.060 834.376, 319.320 828.500 C 325.638 812.069, 327.513 792.862, 324.544 775 C 322.723 764.045, 320.396 754.996, 319.057 753.657 C 318.476 753.076, 318 751.852, 318 750.938 C 318 748.813, 311.406 735.975, 306.407 728.368 C 304.287 725.141, 298.025 718, 292.493 712.500 C 281.763 701.832, 278.366 699, 276.297 699 C 275.583 699, 275 698.597, 275 698.105 C 275 697.123, 268.498 693.519, 258 688.682 C 256.075 687.795, 253.150 686.766, 251.500 686.397 C 249.850 686.027, 247.986 685.322, 247.358 684.829 C 243.377 681.710, 202.882 678.425, 199.065 680.912 M 206 720.918 C 205.175 721.389, 202.475 722.104, 200 722.506 C 193.839 723.507, 181.702 729.381, 174.694 734.753 C 167.964 739.911, 164 743.708, 164 744.996 C 164 745.493, 163.394 746.260, 162.653 746.700 C 161.913 747.140, 158.767 751.837, 155.662 757.137 L 150.017 766.773 142.888 767.176 C 136.594 767.532, 135.480 767.903, 133.379 770.345 C 128.071 776.516, 131.719 782.665, 141 783.189 L 146.500 783.500 146.500 791 L 146.500 798.500 140.645 799.020 C 134.063 799.605, 131 802.120, 131 806.936 C 131 811.693, 134.974 814.305, 142.720 814.640 C 149.981 814.954, 151.497 815.996, 154.159 822.500 C 154.834 824.150, 155.638 825.725, 155.946 826 C 156.254 826.275, 158.206 829.101, 160.283 832.280 C 163.921 837.846, 171.283 846, 172.671 846 C 173.040 846, 174.169 846.748, 175.178 847.661 C 177.373 849.647, 179.560 850.932, 187.500 854.902 C 206.455 864.378, 230.182 864.063, 249.414 854.080 C 253.476 851.971, 256.982 847.705, 256.993 844.856 C 257.003 842.439, 251.534 837, 249.094 837 C 247.937 837, 244.630 838.141, 241.745 839.535 C 220.698 849.707, 195.553 845.158, 178.006 828.006 C 176.353 826.390, 175 824.744, 175 824.348 C 175 823.953, 174.159 822.700, 173.131 821.564 C 172.103 820.429, 170.977 818.291, 170.628 816.813 L 169.994 814.126 187.886 813.813 C 205.578 813.504, 205.802 813.472, 207.856 811 C 208.999 809.625, 209.948 807.782, 209.967 806.904 C 209.993 805.650, 207.526 799.605, 206.677 798.841 C 206.580 798.753, 197.050 798.416, 185.500 798.091 L 164.500 797.500 164.500 790.500 L 164.500 783.500 185.196 783.230 L 205.892 782.960 207.946 780.076 C 210.803 776.064, 210.515 773.284, 206.894 769.901 L 203.788 767 187.453 767 C 178.469 767, 170.863 766.588, 170.552 766.084 C 169.361 764.157, 172.181 759.812, 178.860 753.280 C 187.560 744.772, 187.408 744.886, 194.007 741.836 C 209.358 734.738, 225.140 734.571, 240 741.347 C 246.514 744.318, 252.594 744.177, 255.035 741 C 259.671 734.966, 255.982 730.079, 242.500 724.396 C 233.750 720.708, 210.282 718.471, 206 720.918" stroke="none" fill="#ffffff" fill-rule="evenodd"/>
</svg>