<svg xmlns="http://www.w3.org/2000/svg" width="1000" height="729" viewBox="0 0 1000 729" version="1.1">
	<path d="M 513.148 38.913 C 510.205 39.930, 506.609 41.648, 505.157 42.732 C 501.939 45.135, 490.125 67.938, 485.529 80.619 C 483.711 85.635, 480.438 92.700, 478.255 96.319 C 476.072 99.939, 472.866 106.966, 471.130 111.935 C 469.395 116.905, 466.167 123.768, 463.957 127.188 C 461.746 130.608, 458.780 137.119, 457.365 141.658 C 455.906 146.338, 452.887 152.811, 450.391 156.611 C 447.613 160.841, 444.890 166.876, 443.007 172.976 C 441.031 179.382, 438.837 184.165, 436.498 187.166 C 434.255 190.045, 431.729 195.432, 429.560 201.962 C 427.628 207.778, 424.883 213.807, 423.229 215.866 C 419.262 220.802, 417.595 224.226, 415.007 232.750 C 413.796 236.738, 410.837 242.996, 408.432 246.658 C 406.027 250.321, 402.877 256.958, 401.432 261.408 C 399.988 265.859, 397.323 271.750, 395.510 274.500 C 390.903 281.488, 389.219 285.056, 386.886 292.783 C 385.770 296.477, 382.870 302.425, 380.440 306 C 377.759 309.945, 374.859 316.091, 373.063 321.636 C 371.436 326.661, 368.276 333.600, 366.041 337.058 C 363.807 340.515, 360.859 346.887, 359.491 351.218 C 356.685 360.101, 354.973 363.738, 350.889 369.500 C 349.329 371.700, 347.189 376.200, 346.133 379.500 C 343.036 389.182, 340.840 394.180, 337.345 399.500 C 335.539 402.250, 332.690 408.325, 331.015 413 C 329.340 417.675, 326.863 423.525, 325.512 426 C 321.323 433.670, 318.233 440.255, 315.894 446.500 C 314.658 449.800, 311.926 454.936, 309.823 457.913 C 305.270 464.359, 305.047 467.201, 308.802 470.956 C 313.436 475.590, 318.598 475.681, 339.500 471.497 C 349.400 469.516, 362.450 466.586, 368.500 464.987 C 374.550 463.389, 384.900 461.122, 391.500 459.949 C 398.100 458.777, 407.100 457.181, 411.500 456.402 C 425.177 453.983, 438.307 451.130, 443 449.557 C 448.107 447.847, 465.450 444.305, 487.500 440.470 C 495.749 439.035, 509.356 436.096, 517.736 433.939 C 526.117 431.782, 538.717 429.088, 545.737 427.951 C 566.284 424.625, 577.986 422.209, 586.059 419.627 C 594.493 416.930, 602.993 415.176, 623.246 411.957 C 635.330 410.036, 637.781 409.921, 643.508 411.002 C 647.092 411.678, 651.105 413.081, 652.427 414.121 C 653.767 415.175, 656.034 419.215, 657.554 423.255 C 659.052 427.240, 661.941 432.975, 663.973 436 C 666.005 439.025, 669.141 445.325, 670.942 450 C 675.649 462.220, 677.469 465.416, 681.721 468.928 C 690.004 475.769, 695.655 475.011, 705.785 465.698 C 709.061 462.686, 714.404 458.747, 717.657 456.945 C 724.859 452.955, 726.782 450.543, 728.217 443.702 C 729.565 437.273, 729.030 434.915, 724.790 428.604 C 718.587 419.373, 717.030 416.490, 715.010 410.500 C 713.897 407.200, 710.913 400.900, 708.380 396.500 C 705.847 392.100, 702.222 384.900, 700.325 380.500 C 698.427 376.100, 694.921 368.900, 692.533 364.500 C 690.146 360.100, 686.575 352.479, 684.599 347.563 C 682.623 342.648, 679.267 335.673, 677.141 332.063 C 670.315 320.471, 666 309.742, 666.004 304.374 C 666.008 298.974, 668.406 294.091, 672.310 291.533 C 674.184 290.305, 688.632 287.009, 692.173 287.001 C 692.544 287.001, 694.231 285.835, 695.923 284.411 C 698.476 282.263, 699 281.094, 699 277.544 C 699 272.675, 695.929 264.437, 691.856 258.383 C 690.333 256.119, 687.187 249.819, 684.866 244.383 C 682.544 238.947, 679.163 232.250, 677.352 229.500 C 675.541 226.750, 672.289 220.143, 670.125 214.818 C 667.961 209.494, 664.861 203.194, 663.236 200.818 C 661.612 198.443, 658.393 191.777, 656.085 186.005 C 653.777 180.232, 651.044 174.607, 650.012 173.505 C 647.652 170.982, 642.784 161.097, 640.595 154.381 C 639.677 151.566, 637.132 146.858, 634.940 143.919 C 632.444 140.575, 630.020 135.569, 628.459 130.538 C 625.293 120.335, 624.316 118.465, 621.471 117.169 C 618.180 115.669, 612.559 117.453, 608.381 121.323 C 605.804 123.710, 604.148 126.842, 601.725 133.913 C 596.880 148.053, 593.260 149.843, 584.861 142.255 C 578.258 136.290, 575.065 131.488, 571.935 122.816 C 569.247 115.370, 567.702 112.520, 562.535 105.469 C 561.717 104.352, 559.676 99.627, 558 94.969 C 556.324 90.311, 552.962 83.575, 550.529 80 C 548.096 76.425, 545.120 70.575, 543.917 67 C 540.896 58.027, 539.910 56.277, 532.945 47.511 C 529.158 42.746, 525.557 39.295, 523.453 38.416 C 519.298 36.680, 519.668 36.662, 513.148 38.913 M 513.249 165.886 C 508.851 170.444, 505.505 176.723, 500.098 190.564 C 497.936 196.099, 494.602 203.524, 492.690 207.064 C 490.777 210.604, 487.278 218.450, 484.913 224.500 C 482.548 230.550, 479.107 238.081, 477.267 241.235 C 475.427 244.390, 472.803 250.015, 471.436 253.735 C 467.415 264.680, 465.773 268.313, 463.343 271.652 C 460.871 275.047, 457.689 282.491, 455.287 290.500 C 454.462 293.250, 452.475 297.449, 450.872 299.832 C 446.613 306.162, 444.539 310.533, 441.543 319.500 C 440.072 323.900, 437.299 329.790, 435.380 332.589 C 433.460 335.387, 430.555 341.687, 428.923 346.589 C 427.291 351.490, 424.447 357.975, 422.603 361 C 417.145 369.954, 416 372.690, 416 376.776 C 416 381.858, 419.183 385, 424.333 385 C 428.869 385, 441.896 381.592, 446.854 379.108 C 451.828 376.616, 462.136 374.351, 476.708 372.546 C 493.636 370.450, 502.800 368.422, 510.889 364.979 C 518.032 361.940, 528.480 359.798, 545 357.987 C 556.452 356.731, 565.641 354.547, 572.890 351.358 C 575.855 350.053, 583.055 348.076, 588.890 346.963 C 603.965 344.089, 607.582 343.038, 609.930 340.851 C 613.090 337.907, 612.633 332.989, 608.721 327.827 C 606.918 325.447, 604.227 321.410, 602.741 318.855 C 597.728 310.237, 592.806 307.602, 586.325 310.066 C 582.701 311.444, 570.898 313.626, 559.500 315.024 C 554.550 315.632, 546.345 317, 541.267 318.064 C 529.963 320.434, 523.693 320.550, 521.571 318.429 C 520.522 317.380, 520 315.022, 520 311.338 C 520 306.525, 520.508 305.093, 523.963 300.159 C 526.142 297.047, 529.442 290.416, 531.294 285.425 C 533.147 280.434, 536.007 274.359, 537.649 271.925 C 540.802 267.251, 543.660 260.874, 546.432 252.327 C 547.355 249.482, 548.786 246.593, 549.612 245.907 C 550.439 245.221, 552.295 242.647, 553.736 240.188 C 555.966 236.382, 556.367 234.486, 556.428 227.464 C 556.496 219.685, 556.322 218.991, 553.404 215.356 C 549.605 210.623, 547.820 207.225, 544.498 198.397 C 543.080 194.632, 540.622 189.515, 539.034 187.026 C 537.446 184.537, 534.515 178.903, 532.520 174.507 C 527.858 164.235, 525.768 162, 520.825 162 C 517.689 162, 516.321 162.701, 513.249 165.886 M 561.200 592.200 C 558.065 595.335, 561.442 602.317, 565.847 601.807 C 568.022 601.555, 568.556 600.923, 568.810 598.296 C 568.980 596.534, 568.627 594.172, 568.025 593.046 C 566.815 590.786, 563.078 590.322, 561.200 592.200 M 634.926 593.589 C 633.988 594.720, 633.974 595.648, 634.867 597.608 C 636.362 600.888, 638.414 600.207, 638.804 596.301 C 639.151 592.823, 636.880 591.235, 634.926 593.589 M 677.001 595.998 C 675.842 598.164, 677.109 605.509, 678.962 607.362 C 680.334 608.734, 681.962 606.588, 681.985 603.375 C 682.035 596.441, 679.094 592.087, 677.001 595.998" stroke="none" fill="#ffffff" fill-rule="evenodd"/>
</svg>