<svg xmlns="http://www.w3.org/2000/svg" width="1000" height="484" viewBox="0 0 1000 484" version="1.1">
	<path d="M 392.685 1.379 C 391.822 3.627, 393.755 10.420, 395.565 11.500 C 401.732 15.180, 403.746 17.093, 405.638 21.073 C 406.814 23.546, 408.411 26.096, 409.186 26.740 C 409.962 27.383, 414.850 29.081, 420.048 30.512 C 432.929 34.059, 435.739 35.443, 438.065 39.386 C 439.716 42.184, 441.986 43.604, 451.125 47.554 C 460.479 51.597, 462.550 52.910, 464.538 56.060 C 467.283 60.408, 471.387 63.551, 476.707 65.377 C 479.068 66.188, 481.336 67.967, 482.713 70.090 C 487.330 77.202, 488.380 78.281, 492.446 80.079 C 497.388 82.265, 499.324 84.241, 502.294 90.127 C 504.900 95.293, 508.008 97.009, 516.082 97.741 C 522.970 98.366, 523.911 97.331, 521.953 91.291 C 520.565 87.009, 502.545 67.902, 495 62.712 C 492.525 61.009, 489.836 58.690, 489.024 57.558 C 486.297 53.756, 482.531 50.735, 478 48.714 C 475.525 47.610, 471.025 44.135, 468 40.992 C 463.481 36.296, 461.432 34.967, 456.513 33.541 C 448.528 31.227, 445.680 29.658, 440.706 24.830 C 435.855 20.122, 434.731 19.612, 422 16.337 C 408.901 12.968, 408 12.269, 408 5.477 L 408 0 400.607 0 C 395.247 0, 393.068 0.379, 392.685 1.379 M 299.123 64.993 C 294.408 66.119, 290.584 70.115, 291.490 72.970 C 292.667 76.676, 297.907 77.890, 321.687 79.964 C 334.234 81.058, 346.075 82.405, 348 82.957 C 349.925 83.509, 353.681 85.765, 356.346 87.970 C 361.267 92.041, 367.869 94.614, 379.500 96.996 C 386.890 98.509, 388.378 99.260, 393.822 104.229 C 397.720 107.786, 407.411 113, 410.127 113 C 412.883 113, 418.248 116.580, 419.698 119.385 C 421.703 123.266, 423.180 124.461, 429.643 127.431 C 433.359 129.139, 435.906 131.312, 438.825 135.263 C 441.046 138.270, 444.930 141.941, 447.455 143.421 C 450.677 145.309, 452.956 147.724, 455.100 151.523 C 457.205 155.253, 459.439 157.645, 462.289 159.218 C 466.230 161.394, 468.405 163.954, 472.203 170.890 C 473.528 173.309, 474.579 174, 476.930 174 C 486.419 174, 483.559 157.553, 472.621 149.218 C 469.873 147.123, 466.541 143.317, 464.990 140.500 C 462.929 136.758, 460.896 134.742, 456.909 132.487 C 453.979 130.830, 450.054 127.455, 448.187 124.987 C 445.945 122.023, 441.811 118.728, 436.011 115.281 C 431.182 112.411, 426.166 108.811, 424.865 107.281 C 420.718 102.403, 416.922 100.061, 409.654 97.897 C 404.015 96.218, 401.667 94.871, 398.144 91.297 C 392.873 85.951, 387.786 83.606, 377.046 81.568 C 367.094 79.680, 363.622 78.232, 358.252 73.726 C 353.152 69.446, 345.741 67.517, 328.944 66.096 C 308.893 64.400, 302.584 64.166, 299.123 64.993 M 402 328.111 C 397.891 329.355, 395.329 331.463, 393.404 335.185 C 392.296 337.327, 391.044 338.017, 387.257 338.569 C 380.765 339.515, 375.710 341.634, 374.208 344.039 C 373.519 345.142, 372.036 348.501, 370.913 351.503 C 369.664 354.840, 367.574 358.037, 365.532 359.730 C 361.438 363.127, 359.570 369.240, 360.519 376.141 C 361.054 380.025, 361.959 381.740, 364.996 384.618 C 367.417 386.912, 369.262 389.866, 370.064 392.729 C 371.732 398.685, 374.727 402.062, 380.912 404.959 C 384.121 406.462, 386.716 408.548, 387.926 410.599 C 391.669 416.943, 393.584 417.500, 411.633 417.500 C 426.571 417.500, 428.077 417.333, 430.677 415.392 C 434.550 412.500, 434.602 407.539, 430.788 404.691 C 428.223 402.776, 427.620 402.735, 419.605 403.927 C 412.923 404.921, 409.167 404.935, 401.817 403.993 C 391.723 402.699, 389.486 401.491, 388.450 396.773 C 387.409 392.033, 384.154 387.258, 380.369 384.919 C 375.341 381.812, 373.750 378.930, 374.523 374.333 C 375.883 366.256, 377.351 363.370, 383.095 357.490 C 386.324 354.185, 390.211 349.023, 391.733 346.019 C 394.085 341.377, 395.100 340.377, 398.500 339.355 C 405.041 337.390, 416.187 337.709, 422.075 340.030 C 426.031 341.589, 427.545 341.792, 428.612 340.907 C 431.559 338.461, 429.505 332.320, 424.812 329.548 C 421.175 327.400, 407.248 326.522, 402 328.111 M 855.316 327.963 C 850.498 329.109, 846.793 331.833, 840.091 339.153 C 835.779 343.864, 834 346.596, 834 348.510 C 834 351.897, 840.507 363.950, 843.590 366.276 C 845.410 367.649, 858.644 370.999, 862.250 371 C 864.100 371, 862.698 364.082, 859.500 357.433 C 853.991 345.979, 855.060 341.469, 863.989 338.504 C 866.732 337.593, 869.249 336.406, 869.582 335.867 C 870.952 333.650, 868.857 329.838, 865.497 328.434 C 861.772 326.878, 860.182 326.804, 855.316 327.963 M 155.185 329.953 C 150.547 331.101, 147.977 333.837, 141.540 344.477 C 135.105 355.112, 134 358.290, 134 366.155 C 134 378.935, 140.176 398.418, 145.055 401.029 C 146.851 401.991, 147.468 401.462, 151.786 395.262 C 155.309 390.205, 166 366.988, 166 364.396 C 166 363.116, 164.425 359.203, 162.500 355.701 C 157.134 345.940, 158.155 340.943, 166.604 335.598 C 169.022 334.068, 171 332.456, 171 332.015 C 171 330.016, 160.474 328.644, 155.185 329.953 M 232.351 330.448 C 229.415 331.726, 222.832 339.430, 220.016 344.885 C 218.168 348.465, 218.112 398.586, 219.952 402 C 223.248 408.115, 225.988 407.402, 235.209 398.032 C 247.392 385.651, 253.443 385.145, 259.500 396 C 261.293 399.213, 263.971 402.331, 265.941 403.500 C 267.796 404.600, 271.342 407.413, 273.821 409.750 C 278.806 414.449, 283.182 415.397, 284.917 412.155 C 286.148 409.855, 284.089 406.615, 280.080 404.541 C 278.541 403.746, 276.844 401.836, 276.310 400.297 C 271.950 387.753, 270 380.963, 270 378.321 C 270 376.526, 272.171 371.084, 275.159 365.390 C 283.161 350.143, 282.390 345.761, 270.500 338.903 C 267.750 337.317, 264.150 336.014, 262.500 336.009 L 259.500 335.999 259.500 349.918 C 259.500 363.384, 259.419 363.923, 257 366.513 C 254.733 368.941, 253.962 369.152, 248.737 368.780 C 243.025 368.374, 238.863 366.316, 236.645 362.799 C 235.928 361.662, 236.293 358.493, 237.908 351.849 C 240.459 341.351, 242.751 338.089, 249.747 334.994 C 252.086 333.959, 254 332.839, 254 332.505 C 254 332.171, 252.439 331.246, 250.532 330.449 C 246.195 328.637, 236.515 328.636, 232.351 330.448 M 942 329.661 C 930.133 330.082, 928 330.563, 928 332.822 C 928 333.803, 929.280 336.382, 930.845 338.553 C 932.410 340.724, 934.952 346.550, 936.494 351.500 C 939.198 360.180, 939.302 361.300, 939.399 383 C 939.512 408.094, 940.161 411.354, 944.933 410.799 C 946.707 410.592, 948.049 409.419, 949.277 407 C 950.829 403.941, 951.032 400.853, 950.887 382.500 L 950.721 361.500 954.482 352.500 C 956.550 347.550, 959.538 341.860, 961.122 339.856 C 968.024 331.118, 963.838 328.886, 942 329.661 M 765.445 330.959 C 760.088 333.129, 749.484 348.716, 747.275 357.670 C 745.737 363.900, 745.745 365.109, 747.396 376.415 C 748.367 383.062, 749.988 390.525, 750.998 393 C 752.009 395.475, 753.061 400.049, 753.337 403.164 C 753.986 410.503, 755.158 412.526, 760.283 415.160 C 768.433 419.347, 792.462 418.685, 798.102 414.119 C 801.651 411.245, 799.291 408.390, 792.254 407.047 C 778.971 404.511, 773.325 402.775, 768.695 399.804 C 764.139 396.880, 763.831 396.427, 764.329 393.361 C 764.623 391.546, 765.724 389.140, 766.774 388.012 C 769.691 384.881, 778.279 366.853, 778.308 363.801 C 778.322 362.317, 777.202 359.392, 775.820 357.301 C 774.438 355.210, 772.687 351.784, 771.930 349.686 C 770.683 346.234, 770.739 345.527, 772.526 342.216 C 773.612 340.205, 776.432 337.266, 778.793 335.685 C 782.258 333.364, 782.862 332.538, 781.921 331.405 C 780.619 329.837, 768.994 329.522, 765.445 330.959 M 601.578 336.250 C 599.123 340.014, 597.818 348.042, 598.516 355.080 C 599.353 363.515, 597.871 369.089, 593.904 372.427 C 588.591 376.898, 582.220 375.433, 575.962 368.301 C 574.127 366.210, 570.658 362.996, 568.251 361.157 C 565.845 359.318, 561.139 354.368, 557.793 350.157 C 552.154 343.059, 546.622 338.061, 543 336.789 C 540.426 335.886, 537.177 337.760, 535.355 341.198 C 533.777 344.174, 533.633 347.553, 533.892 375.445 C 534.078 395.462, 534.589 407.638, 535.340 409.922 C 536.851 414.523, 540.966 416.245, 543.964 413.532 C 547.066 410.726, 547.988 405.685, 547.996 391.500 C 548.004 376.261, 549.214 372.617, 555.244 369.670 C 561.030 366.843, 565.212 368.635, 569.161 375.632 C 571.255 379.341, 573.425 381.687, 575.963 382.981 C 579.949 385.015, 585.442 390.668, 586.418 393.741 C 587.253 396.372, 602.725 410, 604.877 410 C 607.644 410, 610.786 405.939, 611.840 401 C 612.415 398.305, 612.539 385.467, 612.150 369 C 611.524 342.508, 611.415 341.363, 609.168 337.750 C 606.501 333.459, 603.753 332.916, 601.578 336.250 M 327.724 336.250 C 326.812 336.938, 325.315 339.300, 324.399 341.500 C 322.961 344.953, 322.757 349.400, 322.909 374 C 323.118 407.822, 323.928 412.370, 329.880 413.177 C 331.536 413.402, 332.881 412.673, 334.303 410.780 C 336.247 408.192, 336.356 406.559, 336.542 377.280 C 336.739 346.542, 336.213 340.067, 333.252 336.750 C 331.403 334.679, 329.979 334.550, 327.724 336.250 M 650.161 339.547 C 647.206 346.031, 649.367 353.310, 655.873 358.796 C 660.808 362.957, 662.010 365.693, 665.039 379.665 C 666.330 385.622, 673.816 398.749, 678.715 403.648 C 685.102 410.035, 690.470 407.309, 693.593 396.092 C 696.624 385.205, 697.204 383.933, 701.578 378.564 C 706.544 372.467, 707.373 370.650, 709.542 361.113 C 710.513 356.847, 712.335 352.615, 714.535 349.521 C 717.895 344.795, 719.039 339.760, 717.034 338.521 C 715.640 337.659, 702.176 345.937, 700.065 348.952 C 698.386 351.350, 696.763 355.905, 694.090 365.714 C 691.427 375.485, 681.813 375.301, 674.366 365.335 C 672.790 363.226, 670.485 360.678, 669.245 359.673 C 664.933 356.181, 664.161 354.994, 662.023 348.569 C 660.840 345.016, 658.969 340.959, 657.864 339.554 C 655.239 336.217, 651.679 336.214, 650.161 339.547 M 57.230 341.551 C 54 343.814, 53.122 345.980, 51.914 354.660 C 50.565 364.365, 50.069 365.345, 43.396 371.500 C 38.900 375.647, 37.555 377.723, 35.509 383.670 C 34.153 387.613, 32.540 394.084, 31.924 398.050 C 30.657 406.219, 31.239 407.279, 36.453 406.292 C 42.340 405.176, 46.130 402.420, 52.287 394.775 C 56.295 389.799, 60.223 388.016, 67.203 388.006 C 72.503 387.998, 74.924 389.467, 79.878 395.694 C 83.172 399.837, 85.770 401.884, 90.378 403.972 C 93.745 405.497, 97.591 407.927, 98.924 409.372 C 100.258 410.818, 102.395 412, 103.674 412 C 106.993 412, 106.707 408.570, 103.042 404.395 C 101.415 402.542, 99.581 399.108, 98.967 396.763 C 94.422 379.424, 93.160 376.593, 87.675 371.430 C 82.560 366.615, 82.235 365.995, 80.074 356.950 C 78.832 351.752, 77.148 346.450, 76.330 345.166 C 73.318 340.435, 61.907 338.276, 57.230 341.551 M 483.441 344.297 C 481.241 346.190, 480.791 347.379, 480.890 351.047 C 480.956 353.496, 481.120 365.703, 481.255 378.173 C 481.485 399.434, 481.631 401.021, 483.600 403.673 C 486.474 407.542, 489.425 407.807, 491.659 404.397 C 493.260 401.954, 493.454 398.772, 493.535 373.649 C 493.619 347.852, 493.482 345.482, 491.813 343.813 C 489.374 341.374, 486.657 341.531, 483.441 344.297 M 865.542 372.791 C 864.595 373.738, 864.985 377.424, 866.265 379.614 C 870.890 387.531, 872.181 390.743, 872.331 394.705 C 872.473 398.472, 872.060 399.551, 869.694 401.586 C 866.193 404.599, 862.475 404.670, 850.069 401.962 C 842.343 400.276, 840.237 399.395, 837.865 396.855 C 836.046 394.909, 834.420 394.008, 833.417 394.393 C 832.548 394.727, 831.648 395, 831.418 395 C 831.188 395, 831 395.669, 831 396.487 C 831 397.306, 832.763 399.088, 834.918 400.448 C 838.144 402.485, 839.119 403.897, 840.444 408.455 C 842.351 415.016, 844.193 416.443, 852.720 417.966 C 865.717 420.288, 875.819 416.326, 883.496 405.898 C 885.937 402.583, 888.225 398.317, 888.581 396.418 C 889.707 390.418, 885.592 377.922, 881.827 375.907 C 879.362 374.588, 866.254 372.080, 865.542 372.791" stroke="none" fill="#ffffff" fill-rule="evenodd"/>
</svg>