<svg xmlns="http://www.w3.org/2000/svg" width="1000" height="477" viewBox="0 0 1000 477" version="1.1">
	<path d="M 497.500 36.190 C 496.400 36.812, 494.195 38.400, 492.601 39.721 C 491.007 41.041, 487.152 43.409, 484.036 44.982 C 480.660 46.686, 476.849 49.699, 474.606 52.436 C 472.535 54.963, 469.414 57.760, 467.670 58.652 C 465.927 59.543, 460.867 63.502, 456.427 67.449 C 451.986 71.395, 445.673 76.504, 442.398 78.802 C 433.455 85.075, 425.438 96.792, 423.076 107.042 C 422.511 109.494, 422.037 122.975, 422.022 137 L 421.996 162.500 426.161 172.375 C 429.737 180.856, 430.898 182.621, 434.380 184.875 C 436.610 186.319, 440.924 190.038, 443.967 193.139 C 447.010 196.241, 451.610 200.071, 454.188 201.650 C 456.767 203.229, 459.917 206.050, 461.188 207.919 C 462.460 209.787, 464.724 212.223, 466.221 213.332 C 468.480 215.005, 469.363 215.156, 471.418 214.219 C 475.783 212.231, 477.028 208.956, 478.009 196.894 C 478.688 188.537, 479.410 184.928, 480.765 183.113 C 484.227 178.477, 485.336 178.365, 491.117 182.075 C 498.321 186.698, 503.623 186.763, 510.343 182.312 C 512.991 180.558, 515.813 179.375, 516.616 179.683 C 519.450 180.770, 521.234 186.363, 522.067 196.776 C 522.945 207.739, 524.298 211.268, 528.331 213.105 C 531.372 214.490, 535.439 212.824, 537.632 209.295 C 540.533 204.627, 543.317 201.899, 547.223 199.896 C 549.271 198.846, 552.421 195.993, 554.223 193.556 C 556.026 191.119, 559.620 187.953, 562.211 186.521 C 568.708 182.930, 570.877 179.417, 572.885 169.230 C 574.373 161.686, 574.528 156.425, 574.030 130.500 C 573.497 102.747, 573.295 100.153, 571.333 95.862 C 568.933 90.615, 558.042 79.389, 550.460 74.347 C 547.688 72.504, 543.782 69.036, 541.780 66.641 C 539.777 64.245, 536.149 61.350, 533.716 60.207 C 531.242 59.044, 527.414 55.884, 525.030 53.036 C 522.589 50.121, 518.897 47.092, 516.394 45.952 C 513.989 44.856, 509.752 41.944, 506.977 39.480 C 501.629 34.730, 500.673 34.398, 497.500 36.190 M 491.696 65.978 C 489.113 67.616, 487 69.309, 487 69.741 C 487 70.816, 477.554 78.005, 471.750 81.348 C 469.137 82.853, 467 84.500, 467 85.007 C 467 87.032, 460.401 93.270, 455.785 95.609 C 451.951 97.552, 450.507 99, 449.118 102.295 C 445.223 111.535, 444.852 114.948, 445.180 138.534 C 445.527 163.424, 446.064 166.091, 451.296 168.891 C 454.604 170.661, 457.681 169.517, 459.602 165.802 C 460.940 163.215, 461.077 160.346, 460.494 147.123 C 459.961 135.019, 460.152 129.538, 461.345 122.791 C 463.271 111.901, 463.974 110.613, 470.018 106.894 C 473.059 105.023, 475.785 102.305, 477.208 99.728 C 479.499 95.577, 480.564 94.795, 489 91.067 C 491.475 89.973, 495.151 88.056, 497.170 86.807 L 500.840 84.536 504.714 87.650 C 506.845 89.362, 511.336 92.150, 514.695 93.846 C 519.372 96.207, 521.234 97.815, 522.651 100.714 C 523.668 102.796, 526.026 105.400, 527.892 106.500 C 534.811 110.580, 536.640 113.113, 537.903 120.363 C 538.554 124.102, 539.046 133.987, 538.997 142.330 C 538.859 165.666, 538.745 164.544, 541.589 167.923 C 544.877 171.831, 547.827 171.834, 551.563 167.934 L 554.500 164.869 554.500 137.684 L 554.500 110.500 551.500 105.049 C 549.460 101.343, 546.835 98.449, 543.299 96.010 C 540.439 94.037, 535.039 89.502, 531.299 85.931 C 527.560 82.360, 521.704 77.652, 518.286 75.469 C 514.868 73.286, 511.522 70.472, 510.849 69.216 C 509.108 65.966, 503.849 63, 499.828 63 C 497.733 63, 494.558 64.163, 491.696 65.978 M 497.311 110.037 C 494.179 110.710, 483.372 119.622, 480.119 124.214 C 478.887 125.954, 478.509 128.823, 478.538 136.228 C 478.580 146.781, 479.945 150.197, 485.097 152.639 C 486.419 153.266, 490.470 155.266, 494.100 157.084 L 500.701 160.390 505.600 156.831 C 508.295 154.873, 512.207 152.475, 514.294 151.501 C 519.244 149.191, 521.213 145.191, 521.791 136.273 C 522.329 127.988, 521.095 125.168, 515.483 121.858 C 513.630 120.764, 510.944 117.874, 509.515 115.435 C 508.085 112.996, 506.819 111, 506.701 111 C 506.583 111, 505.140 110.629, 503.493 110.176 C 501.847 109.723, 499.065 109.660, 497.311 110.037 M 498.200 128.200 C 496.555 129.845, 496.691 133.499, 498.452 134.960 C 500.551 136.702, 503.698 135.341, 504.444 132.369 C 505.525 128.060, 501.216 125.184, 498.200 128.200 M 411.445 304.068 C 409.765 304.557, 407.342 306.072, 406.061 307.435 L 403.732 309.915 403.697 373.208 C 403.672 419.286, 403.977 437.089, 404.820 438.663 C 407.772 444.179, 421.978 445.527, 426.675 440.736 L 428.867 438.500 429.138 374.387 C 429.391 314.645, 429.290 310.091, 427.652 307.592 C 424.807 303.249, 418.775 301.938, 411.445 304.068 M 879.030 304.279 C 877.672 304.967, 875.534 307.052, 874.280 308.912 L 872 312.296 872 373.583 C 872 410.976, 872.380 435.870, 872.975 437.434 C 875.366 443.723, 887.239 446.279, 892.608 441.661 L 895.327 439.322 895.126 375.538 C 894.912 307.748, 894.831 306.585, 890.150 304.080 C 887.458 302.639, 882.081 302.736, 879.030 304.279 M 242.299 305.960 C 235.792 309.927, 236 307.679, 236 373.982 C 236 443.225, 235.608 439.915, 244.105 442.438 C 246.997 443.297, 250.339 444, 251.532 444 C 255.235 444, 259.991 441.886, 261.147 439.725 C 261.923 438.276, 262.228 419.085, 262.172 375.407 C 262.085 308.852, 262.001 307.677, 257.150 305.080 C 253.852 303.315, 245.860 303.788, 242.299 305.960 M 95.437 308.065 C 92.754 310.865, 92.472 311.838, 92.175 319.315 C 91.741 330.242, 93.251 334.592, 98.763 338.290 C 103.999 341.803, 105.243 344.130, 107.929 355.437 C 109.153 360.591, 111.665 367.304, 113.908 371.413 C 116.387 375.954, 118.191 380.953, 118.931 385.326 C 120.610 395.255, 123.320 401.560, 129.455 409.814 C 134.037 415.979, 135.146 418.338, 136.508 424.814 C 139.117 437.221, 140.643 440.603, 144.449 442.409 C 148.911 444.526, 154.555 444.385, 159.750 442.027 C 163.624 440.268, 164 439.774, 164 436.440 C 164 434.304, 162.136 428.500, 159.521 422.495 C 157.058 416.838, 153.963 408.811, 152.644 404.657 C 151.325 400.504, 148.455 394.269, 146.266 390.803 C 143.892 387.043, 141.208 380.754, 139.616 375.217 C 136.679 365.009, 132.825 355.628, 131.140 354.587 C 129.497 353.571, 126.350 345.899, 122.445 333.392 C 119.853 325.087, 117.798 320.587, 114.641 316.298 C 106.083 304.673, 100.841 302.426, 95.437 308.065 M 729.308 307.010 C 724.105 309.105, 721.864 318.209, 724.008 328.536 C 725.079 333.696, 725.941 335.162, 730.458 339.503 C 735.111 343.973, 736.029 345.590, 738.978 354.506 C 740.795 360.003, 743.771 367.480, 745.590 371.123 C 747.409 374.766, 749.429 380.841, 750.079 384.623 C 751.702 394.063, 754.095 399.744, 760.507 409.381 C 764.515 415.405, 766.418 419.473, 767.604 424.556 C 771.142 439.707, 772.743 441.923, 781.324 443.533 C 785.991 444.409, 793.730 442.372, 795.040 439.924 C 796.700 436.824, 796.134 434.288, 791.083 422.199 C 788.379 415.727, 785.197 407.522, 784.011 403.965 C 782.826 400.409, 780.252 394.575, 778.292 391 C 776.332 387.425, 772.547 378.251, 769.880 370.613 C 767.214 362.975, 763.710 354.650, 762.094 352.113 C 758.843 347.009, 755.522 338.810, 751.570 326.126 C 748.347 315.786, 746.240 312.752, 739.660 308.978 C 734.207 305.851, 732.834 305.590, 729.308 307.010 M 528.285 309.476 C 526.518 310.245, 523.818 312.652, 522.285 314.826 C 520.753 317.001, 518.002 319.594, 516.170 320.590 C 511.251 323.265, 508.454 327.125, 505.932 334.717 C 504.692 338.447, 502.198 344.200, 500.388 347.500 C 493.352 360.331, 493.354 385.438, 500.392 397 C 502.233 400.025, 504.310 404.300, 505.006 406.500 C 507.519 414.433, 511.024 419.862, 517.207 425.395 C 530.882 437.634, 541.991 438.489, 540.720 427.205 C 540.146 422.118, 537.778 418.481, 532.908 415.212 C 525.184 410.026, 522.631 399.179, 522.621 371.500 C 522.613 351.864, 523.253 345.816, 526.534 334.530 C 527.926 329.741, 528.915 328.374, 533.475 324.931 C 541.956 318.528, 543.160 312.218, 536.436 309.409 C 532.382 307.715, 532.335 307.715, 528.285 309.476 M 941 310 C 938.773 312.227, 938.380 316.946, 940.142 320.316 C 940.770 321.517, 942.949 324.325, 944.984 326.556 C 948.197 330.078, 948.768 331.461, 949.319 337.056 C 950.068 344.655, 948.953 350.356, 946.131 353.360 C 943.142 356.542, 941 362.339, 941 367.245 C 941 371.752, 943.162 376, 945.456 376 C 946.195 376, 950.966 373.378, 956.058 370.174 C 966.503 363.601, 969.140 359.971, 971.103 349.463 C 972.382 342.618, 971.630 331.444, 969.556 326.481 C 967.850 322.396, 957.945 312.621, 952.790 309.934 C 948.008 307.441, 943.534 307.466, 941 310 M 308.500 310.195 C 304.194 312.637, 303.961 315.565, 307.540 322.287 C 309.151 325.314, 310.467 330.063, 311.139 335.279 C 312.071 342.514, 311.946 344.559, 310.099 352.329 C 306.563 367.202, 307.527 373.035, 313.549 373.206 C 318.166 373.338, 322.157 370.718, 328.857 363.162 C 336.927 354.059, 338.398 350.538, 338.335 340.475 C 338.277 331.375, 336.879 327.759, 331.542 322.902 C 329.667 321.196, 326.896 318.014, 325.383 315.830 C 323.869 313.647, 321.387 311.217, 319.865 310.430 C 316.573 308.728, 311.281 308.618, 308.500 310.195 M 610.500 309.697 C 604.318 310.666, 601.772 316.495, 606.250 319.428 C 610.818 322.420, 621.430 325.788, 623.650 324.950 C 628.290 323.198, 628.744 313.539, 624.298 311.159 C 621.960 309.908, 614.320 309.099, 610.500 309.697" stroke="none" fill="#ffffff" fill-rule="evenodd"/>
</svg>