<svg xmlns="http://www.w3.org/2000/svg" width="1000" height="552" viewBox="0 0 1000 552" version="1.1">
	<path d="M 242.958 210.660 C 237.575 211.584, 234.600 211.650, 232.266 210.898 C 228.531 209.694, 225.447 210.394, 224.584 212.640 C 223.442 215.616, 223.710 340.110, 224.860 341.260 C 225.604 342.004, 226.638 342.021, 228.217 341.316 C 230.471 340.310, 230.500 340.072, 230.500 322.399 C 230.500 301.902, 231.094 299.703, 237.500 296.500 C 241.164 294.668, 243.264 294.517, 262.500 294.702 C 286.028 294.928, 282.822 293.977, 290.333 302.962 C 293.795 307.103, 294.602 306.235, 295.554 297.337 C 296.336 290.037, 297.243 289.025, 305.542 286.202 C 314.532 283.144, 316.900 281.891, 317.547 279.853 C 317.869 278.838, 320.082 275.724, 322.466 272.932 C 327.727 266.768, 329 262.227, 329 249.622 C 329 236.467, 328.148 234.732, 317.800 226.828 C 315.876 225.358, 313.555 222.582, 312.643 220.660 C 310.628 216.413, 305.633 212.031, 302.673 211.914 C 301.478 211.867, 298.925 211.638, 297 211.406 C 293.877 211.028, 288.086 210.769, 258.458 209.677 C 254.035 209.514, 247.060 209.956, 242.958 210.660 M 415.859 210.731 C 409.692 211.222, 408.029 213.264, 406.945 221.676 C 405.919 229.637, 405.836 317.622, 406.844 329.728 C 407.889 342.293, 405.605 341.502, 440.789 341.491 C 457.130 341.486, 472.213 341.123, 474.306 340.685 C 478.461 339.815, 486 333.165, 486 330.369 C 486 328.011, 479.973 329.184, 472.813 332.937 C 464.600 337.243, 456.435 338.357, 438.106 337.674 C 419.784 336.991, 417.882 336.626, 414.080 333.074 C 411.591 330.750, 411.116 329.397, 410.520 322.946 C 410.142 318.851, 409.983 294.800, 410.167 269.500 C 410.524 220.193, 410.469 220.704, 415.741 217.250 C 418.101 215.703, 421.264 215.500, 442.956 215.500 L 467.500 215.500 472.959 218.373 C 475.962 219.953, 481.126 222.135, 484.436 223.221 C 490.717 225.283, 493.354 227.485, 497.798 234.377 C 499.260 236.644, 501.743 239.610, 503.315 240.967 C 507.288 244.396, 508.831 247.795, 509.998 255.692 C 513.152 277.021, 513.125 276.462, 511.480 287.141 C 509.161 302.196, 507.478 306.698, 501.974 312.573 C 497.966 316.852, 493 324.536, 493 326.460 C 493 327.972, 497.910 326.706, 499.632 324.750 C 502.255 321.771, 511.267 308.166, 512.714 305 C 514.975 300.055, 517.063 292.209, 518.527 283.162 C 520.295 272.230, 519.415 266.447, 513.468 249.912 C 510.557 241.817, 508.602 238.256, 503.854 232.400 C 499.037 226.458, 497.110 224.837, 493.807 223.948 C 491.447 223.313, 487.843 221.084, 485.279 218.674 C 479.143 212.906, 477.461 212.189, 467.354 211.031 C 459.103 210.085, 426.344 209.894, 415.859 210.731 M 88.400 211.739 C 85.827 213.518, 84.808 217.307, 85.472 222.621 C 85.841 225.580, 86.674 228.062, 87.322 228.137 C 89.495 228.390, 91.472 228.254, 96.086 227.536 C 100.363 226.870, 100.845 227.027, 103.224 229.854 C 104.936 231.888, 106.157 235.083, 106.938 239.565 C 108.483 248.440, 110.755 254.171, 115.809 261.949 C 120.399 269.011, 120.966 272.560, 118.615 279.500 C 116.265 286.439, 113.622 287.174, 92.500 286.761 C 77.830 286.475, 73.899 286.090, 71.250 284.679 L 68 282.949 68 274.702 C 68 266.970, 68.192 266.223, 71.076 262.724 C 73.437 259.859, 74.372 257.442, 75.097 252.319 C 75.666 248.298, 77.227 243.458, 79.021 240.145 C 82.472 233.773, 82.719 232, 80.155 232 C 76.836 232, 74.940 235.420, 74.148 242.835 C 73.473 249.151, 72.950 250.430, 69.253 254.814 C 64.549 260.394, 61 269.685, 61 276.422 C 61 280.393, 60.500 281.400, 56.635 285.210 C 53.198 288.598, 52.024 290.662, 51.112 294.916 C 49.726 301.375, 47.410 306.767, 43.153 313.446 C 41.419 316.166, 39.997 319.541, 39.994 320.946 C 39.985 325.478, 38.068 330.416, 34.952 333.937 C 31.235 338.136, 31.333 341.365, 35.189 341.811 C 39.512 342.310, 41.997 339.009, 42.013 332.750 C 42.025 328.151, 42.622 326.610, 46.833 320.322 C 49.477 316.374, 52.457 310.445, 53.456 307.146 C 54.455 303.847, 56.496 299.808, 57.993 298.169 C 61.614 294.205, 66.765 293.695, 98.668 294.147 C 127.257 294.552, 127.213 294.540, 131.611 303.218 C 133.055 306.068, 135.271 309.998, 136.536 311.950 C 137.801 313.903, 140.223 320.052, 141.919 325.615 C 145.231 336.479, 148.389 341, 152.668 341 C 156.007 341, 156.570 338.613, 154.138 334.765 C 150.040 328.282, 147.180 322.381, 146.003 317.983 C 145.343 315.517, 142.564 309.688, 139.827 305.029 C 136.639 299.603, 134.498 294.570, 133.869 291.029 C 132.491 283.257, 132.345 282.908, 128.857 279 C 124.675 274.314, 123 270.065, 123 264.144 C 123 260.128, 122.336 258.260, 119.385 253.970 C 115.454 248.255, 112.981 242.617, 110.566 233.865 C 109.711 230.765, 107.647 226.490, 105.981 224.365 C 104.314 222.239, 101.480 218.475, 99.683 216 C 97.027 212.343, 95.767 211.451, 92.958 211.239 C 91.056 211.095, 89.005 211.320, 88.400 211.739 M 728.001 216.088 C 720.876 220.467, 718.922 223.298, 717.105 231.876 C 716.479 234.833, 714.422 239.783, 712.533 242.876 C 710.644 245.969, 708.466 251.295, 707.692 254.711 C 706.842 258.464, 704.675 263.411, 702.215 267.211 C 697.817 274.006, 695 283.057, 695 290.394 C 695 293.691, 694.460 295.455, 693.100 296.600 C 684.186 304.106, 684 304.405, 684 311.224 C 684 317.578, 683.939 317.719, 678.481 324.022 C 672.991 330.362, 670.179 336.419, 671.333 339.425 C 672.530 342.545, 675.666 341.077, 679.186 335.750 C 683.371 329.417, 685 324.974, 685 319.890 C 685 316.856, 685.920 314.948, 689.505 310.547 C 691.982 307.505, 694.706 303.276, 695.557 301.149 C 698.177 294.600, 698.731 294.500, 732.405 294.500 C 760.522 294.500, 762.759 294.631, 766.435 296.500 C 771.859 299.256, 773.944 302.532, 774.992 309.942 C 775.599 314.241, 776.982 318.082, 779.291 321.889 C 781.162 324.975, 783.273 329.750, 783.982 332.500 C 786.244 341.280, 789.766 344.397, 793.009 340.489 C 794.034 339.254, 793.809 337.928, 791.777 333.239 C 790.410 330.083, 788.507 325.345, 787.548 322.711 C 786.589 320.076, 784.807 316.701, 783.587 315.211 C 779.554 310.281, 777 305.304, 777 302.375 C 777 296.586, 775.023 292.526, 769.916 287.832 L 764.836 283.161 765.487 277.831 C 766.101 272.799, 765.831 271.877, 760.660 261.377 C 757.647 255.260, 754.391 247.744, 753.424 244.676 C 752.426 241.509, 750.282 237.671, 748.466 235.799 C 745.255 232.487, 743 225.537, 743 218.951 C 743 215.429, 739.879 211.982, 736.750 212.047 C 735.513 212.073, 731.575 213.891, 728.001 216.088 M 591.587 213.859 C 590.504 215.611, 590.851 338.251, 591.941 339.341 C 594.888 342.288, 595.116 337.648, 595.030 276.501 C 594.983 242.520, 594.705 214.332, 594.413 213.859 C 594.121 213.387, 593.485 213, 593 213 C 592.515 213, 591.879 213.387, 591.587 213.859 M 969.532 213.948 C 969.174 214.527, 968.894 234.239, 968.911 257.751 C 968.927 281.263, 968.555 302.461, 968.085 304.858 C 966.320 313.845, 960.229 317.436, 954.125 313.089 C 952.550 311.967, 950.112 310.613, 948.707 310.079 C 947.073 309.458, 944.617 306.477, 941.887 301.804 C 939.541 297.787, 935.215 291.800, 932.275 288.500 C 929.334 285.200, 926.360 281.825, 925.665 281 C 924.971 280.175, 922.828 278.150, 920.903 276.500 C 918.978 274.850, 916.118 271.250, 914.547 268.500 C 912.976 265.750, 910.470 261.925, 908.978 260 C 907.487 258.075, 905.316 254.625, 904.156 252.334 C 902.995 250.043, 900.678 247.195, 899.008 246.005 C 897.337 244.816, 895.239 242.428, 894.345 240.700 C 893.451 238.972, 890.421 235.291, 887.610 232.519 C 884.800 229.747, 881.785 226.111, 880.910 224.438 C 878.705 220.219, 870.458 213.610, 868.389 214.404 C 867.102 214.898, 866.921 215.716, 867.532 218.265 C 868.560 222.553, 868.506 224.914, 867.147 235 C 866.518 239.675, 865.556 246.875, 865.010 251 C 863.933 259.132, 863.476 338.343, 864.496 339.993 C 865.464 341.560, 868.718 341.178, 869.393 339.418 C 869.727 338.548, 870 317.679, 870 293.043 C 870 268.407, 870.280 246.850, 870.622 245.139 C 871.449 241.004, 875.571 237, 879.002 237 C 882.380 237, 886.017 239.770, 888.405 244.161 C 889.404 245.997, 891.941 248.712, 894.043 250.192 C 896.145 251.673, 899.412 255.273, 901.303 258.192 C 903.194 261.112, 906.191 264.850, 907.962 266.500 C 909.734 268.150, 912.089 271.300, 913.196 273.500 C 914.303 275.700, 917.187 280.049, 919.605 283.166 C 922.022 286.282, 924 289.270, 924 289.807 C 924 290.344, 926.138 293.016, 928.750 295.746 C 931.362 298.476, 934.409 302.237, 935.520 304.105 C 936.631 305.972, 939.194 308.279, 941.215 309.232 C 943.943 310.518, 945.433 312.190, 946.994 315.720 C 949.326 320.991, 952.644 325, 954.674 325 C 957.384 325, 960 328.910, 960 332.961 C 960 339.032, 966.220 343.558, 971.028 340.985 C 972.983 339.939, 973.011 338.894, 972.757 276.794 C 972.567 230.043, 972.199 213.566, 971.342 213.280 C 970.705 213.068, 969.890 213.368, 969.532 213.948 M 238.424 216.895 C 231.576 220.005, 230.013 226.471, 230.006 251.712 C 230.001 268.681, 230.241 271.569, 232.063 276.439 C 235.537 285.725, 237.166 286.384, 258.500 287.128 C 268.400 287.473, 277.972 288.232, 279.770 288.814 C 282.533 289.708, 283.776 289.508, 287.770 287.530 C 293.636 284.626, 299.987 281.853, 306.473 279.364 C 311.369 277.485, 314.517 274.076, 322.042 262.500 C 325.391 257.348, 324.056 242.007, 320.042 239.526 C 319.499 239.190, 318.551 237.022, 317.936 234.708 C 316.086 227.749, 313.482 224.456, 308.253 222.460 C 305.639 221.463, 301.745 219.376, 299.600 217.823 L 295.700 215 269.100 215.022 C 245.376 215.042, 242.059 215.244, 238.424 216.895 M 725.261 229.250 C 723.344 231.316, 721.011 237.442, 719.558 244.228 C 719.236 245.728, 716.842 249.553, 714.237 252.728 L 709.500 258.500 709.170 270.675 L 708.840 282.849 711.572 284.639 C 716.864 288.107, 752.131 287.410, 756.750 283.747 C 757.558 283.105, 758 279.999, 758 274.954 C 758 268.191, 757.683 266.776, 755.613 264.317 C 753.126 261.361, 751.022 255.293, 750.996 251 C 750.979 248.244, 746.785 238.603, 744.774 236.698 C 733.980 226.472, 729.445 224.741, 725.261 229.250 M 294.376 312.130 C 294.720 313.851, 296.551 316.974, 298.444 319.070 C 300.338 321.166, 302.542 324.145, 303.343 325.690 C 305.692 330.222, 317.580 341.099, 319.415 340.394 C 320.287 340.060, 321 339.594, 321 339.360 C 321 337.703, 315.397 328.737, 312.143 325.186 C 309.969 322.814, 307.645 319.558, 306.980 317.951 C 305.846 315.215, 297.431 309, 294.860 309 C 294.150 309, 293.975 310.127, 294.376 312.130" stroke="none" fill="#ffffff" fill-rule="evenodd"/>
</svg>