<svg xmlns="http://www.w3.org/2000/svg" width="1000" height="351" viewBox="0 0 1000 351" version="1.1">
	<path d="M 637.364 1.494 C 637.048 2.316, 636.388 2.740, 635.895 2.435 C 635.403 2.131, 635 2.584, 635 3.441 C 635 4.298, 634.325 5, 633.500 5 C 632.675 5, 632 5.702, 632 6.559 C 632 7.416, 631.550 7.840, 631 7.500 C 630.450 7.160, 630 7.584, 630 8.441 C 630 9.298, 629.325 10, 628.500 10 C 627.675 10, 627 10.441, 627 10.981 C 627 11.520, 625.861 12.248, 624.468 12.597 C 622.125 13.185, 622.068 13.329, 623.705 14.527 C 625.296 15.690, 625.103 15.890, 621.785 16.512 C 619.756 16.893, 615.362 16.996, 612.021 16.742 C 608.680 16.487, 605.707 16.666, 605.414 17.139 C 605.121 17.613, 606.034 18, 607.441 18 C 610.120 18, 610.894 19.423, 608.750 20.407 C 608.063 20.723, 608.513 20.730, 609.750 20.423 C 611.027 20.107, 612 20.327, 612 20.933 C 612 21.520, 611.550 22, 611 22 C 610.450 22, 610 22.675, 610 23.500 C 610 24.325, 609.325 25, 608.500 25 C 607.675 25, 607 25.450, 607 26 C 607 26.550, 606.122 27, 605.050 27 C 603.977 27, 602.635 27.787, 602.068 28.750 C 601.168 30.277, 600.907 30.309, 600.018 29 C 599.113 27.667, 598.891 27.667, 598.015 29 C 597.474 29.825, 597.024 31.048, 597.015 31.719 C 597.006 32.443, 596.325 32.678, 595.336 32.299 C 594.294 31.899, 593.918 32.058, 594.329 32.723 C 594.701 33.325, 593.904 34.058, 592.493 34.412 C 591.122 34.757, 590 35.512, 590 36.090 C 590 38.139, 587.101 40, 583.911 40 C 581.540 40, 579.921 40.848, 577.839 43.180 C 576.278 44.929, 575 46.784, 575 47.303 C 575 47.821, 574.396 47.744, 573.658 47.131 C 571.851 45.632, 570.839 46.831, 572.032 49.059 C 573.061 50.982, 572.365 54, 570.893 54 C 570.402 54, 570 54.450, 570 55 C 570 57.069, 565.897 60, 563 60 C 560.467 60, 560 60.389, 560 62.500 C 560 63.875, 559.550 65, 559 65 C 558.450 65, 558 64.100, 558 63 C 558 59.960, 556.341 60.564, 551.192 65.477 C 547.866 68.650, 547.010 69.960, 548.250 69.977 C 551.169 70.015, 550.205 71.998, 547.250 72.033 C 544.347 72.068, 540 75.028, 540 76.969 C 540 77.601, 539.550 77.840, 539 77.500 C 538.450 77.160, 538 77.328, 538 77.874 C 538 78.419, 537.123 79.144, 536.051 79.484 C 534.878 79.856, 534.322 80.676, 534.655 81.543 C 534.960 82.338, 534.489 83.259, 533.604 83.599 C 532.722 83.937, 532 84.861, 532 85.651 C 532 86.441, 531.414 86.955, 530.697 86.794 C 529.470 86.517, 518.095 96.311, 504.616 109.250 C 501.321 112.412, 498.466 115, 498.271 115 C 497.557 115, 484.413 126.229, 477.795 132.493 C 475.757 134.422, 473.784 136, 473.410 136 C 473.036 136, 470.102 138.561, 466.889 141.690 C 463.676 144.820, 459.809 147.887, 458.295 148.506 C 456.652 149.177, 455.530 150.410, 455.512 151.565 C 455.454 155.137, 445.684 183, 444.488 183 C 443.839 183, 441.808 183.748, 439.976 184.662 C 436.939 186.177, 436.824 186.391, 438.672 187.074 C 440.523 187.759, 440.762 189.019, 441.411 201.533 C 442.085 214.527, 442.015 215.356, 440.058 217.438 C 438.214 219.401, 438.062 220.432, 438.629 227.137 C 439.018 231.746, 438.856 235.401, 438.207 236.614 C 437.588 237.769, 434.760 239.341, 431.384 240.405 C 427.137 241.744, 424.130 243.642, 419.969 247.611 C 414.777 252.563, 411.978 254.462, 413.500 252 C 413.840 251.450, 413.657 251, 413.094 251 C 411.447 251, 410 254.571, 410 258.634 C 410 261.284, 409.686 262.086, 408.941 261.341 C 408.359 260.759, 407.797 255.719, 407.691 250.142 C 407.486 239.261, 406.561 237.075, 405.410 244.750 C 405.019 247.363, 404.061 249.966, 403.283 250.535 C 402.090 251.407, 402.166 251.840, 403.766 253.288 C 405.565 254.916, 405.587 255.365, 404.188 261.879 C 402.828 268.215, 402.470 268.823, 399.606 269.654 C 397.898 270.150, 394.925 270.499, 393 270.429 C 391.075 270.359, 387.576 270.234, 385.225 270.151 C 381.572 270.022, 380.785 269.600, 379.809 267.250 C 379.181 265.738, 378.487 263.035, 378.266 261.244 C 377.888 258.184, 378.153 257.863, 382.648 255.936 C 386.330 254.358, 387.095 253.672, 385.966 252.958 C 385.160 252.448, 383.488 252.024, 382.250 252.015 C 381.012 252.007, 380 251.550, 380 251 C 380 250.450, 379.305 250, 378.455 250 C 377.213 250, 377.045 249.263, 377.599 246.250 C 377.978 244.188, 378.667 242.253, 379.129 241.951 C 379.591 241.649, 380.014 239.174, 380.069 236.451 C 380.191 230.383, 381.649 226.089, 384.410 223.663 C 385.559 222.653, 385.956 222.106, 385.291 222.447 C 384.626 222.788, 383.276 222.635, 382.291 222.107 C 381.306 221.578, 379.701 220.898, 378.725 220.595 C 377.382 220.178, 377.090 219.371, 377.525 217.272 C 378.677 211.707, 380.508 206.403, 382.728 202.197 C 383.978 199.830, 385 196.598, 385 195.014 C 385 191.526, 386.514 190.926, 394 191.448 L 399.500 191.832 395 189.782 C 392.525 188.655, 389.345 187.141, 387.933 186.418 C 385.800 185.325, 384.616 185.337, 380.933 186.485 C 378.495 187.244, 377.288 187.896, 378.250 187.933 C 380.361 188.014, 380.466 189.830, 378.612 194.216 C 373.131 207.180, 371 213.648, 371 217.321 C 371 219.687, 370.613 220, 367.691 220 C 365.871 220, 363.581 220.586, 362.601 221.303 C 360.981 222.487, 360.964 222.725, 362.410 223.925 C 363.623 224.932, 364.002 227.171, 364.009 233.372 C 364.013 237.843, 364.301 243.863, 364.648 246.750 L 365.279 252 369.389 252.150 C 372.728 252.272, 372.937 252.377, 370.500 252.710 C 368.850 252.936, 365.813 253.561, 363.750 254.099 L 360 255.077 360 263.917 L 360 272.756 353.828 275.064 C 349.609 276.642, 345.904 279.043, 342.117 282.653 C 339.046 285.580, 336.298 287.482, 335.950 286.920 C 335.103 285.548, 333.350 287.759, 332.454 291.329 C 330.944 297.342, 329.835 291.936, 330.164 280.166 L 330.500 268.105 333.750 264.755 C 336.043 262.392, 337 260.461, 337 258.202 C 337 256.441, 336.550 255, 336 255 C 335.450 255, 335 255.936, 335 257.079 C 335 259.188, 333.437 259.241, 326.750 257.358 C 324.408 256.699, 324.533 258.267, 327 260.500 C 329.197 262.489, 329.818 269.377, 327.906 270.558 C 327.304 270.930, 327.026 272.357, 327.289 273.729 C 327.551 275.101, 327.146 277.411, 326.389 278.862 C 324.601 282.288, 324.624 285, 326.441 285 C 328.746 285, 329.085 286.505, 327.962 291.744 C 326.852 296.916, 322.309 303, 319.556 303 C 318.700 303, 318 302.621, 318 302.157 C 318 301.694, 316.378 300.457, 314.396 299.407 C 310.546 297.370, 309 294.655, 309 289.935 C 309 287.932, 309.500 287, 310.573 287 C 311.533 287, 312.015 286.318, 311.810 285.252 C 311.589 284.104, 310.018 283.196, 307.237 282.610 C 303.273 281.773, 303 281.499, 303 278.358 C 303 276.511, 303.388 275, 303.861 275 C 304.335 275, 304.525 273.762, 304.283 272.250 C 303.939 270.100, 304.076 269.828, 304.906 271 C 305.704 272.125, 305.973 270.920, 305.985 266.179 C 306.006 257.331, 307.137 256.373, 316.099 257.612 C 324.050 258.711, 325.299 257.493, 319.250 254.540 C 316.874 253.380, 312.935 252.645, 308.500 252.533 C 304.650 252.437, 301.525 251.939, 301.556 251.429 C 301.698 249.054, 303.308 245, 304.108 245 C 304.599 245, 305 243.875, 305 242.500 C 305 241.125, 305.392 240, 305.872 240 C 306.352 240, 307.032 238.200, 307.384 236 C 307.736 233.800, 308.468 232, 309.012 232 C 309.555 232, 310 231.081, 310 229.958 C 310 228.835, 310.878 226.974, 311.951 225.823 C 313.553 224.103, 314.713 223.820, 318.451 224.242 C 320.953 224.524, 323 224.596, 323 224.403 C 323 224.210, 321.538 223.313, 319.750 222.412 C 317.962 221.510, 315.241 219.593, 313.703 218.153 C 312.039 216.596, 310.621 215.938, 310.203 216.531 C 309.816 217.078, 308.150 217.982, 306.500 218.540 C 304.850 219.098, 303.479 220.217, 303.454 221.027 C 303.428 221.837, 302.879 223.459, 302.232 224.631 C 300.484 227.801, 298.273 234.911, 297.467 239.954 C 296.417 246.525, 293.397 251.666, 289.864 252.898 C 287.996 253.549, 287.120 254.385, 287.560 255.097 C 287.950 255.729, 288.195 260.128, 288.103 264.873 C 288.011 269.618, 288.554 275.843, 289.310 278.706 L 290.684 283.912 287.226 285.291 L 283.768 286.671 283.634 295.085 L 283.500 303.500 278.386 306 C 275.573 307.375, 271.299 310.398, 268.887 312.717 C 265.547 315.930, 264.377 316.574, 263.971 315.419 C 263.127 313.010, 258.739 318.322, 258.608 321.911 C 258.383 328.113, 257.111 323.106, 256.471 313.500 C 255.828 303.843, 255 299.456, 255 305.708 C 255 307.380, 254.388 310.493, 253.641 312.624 C 252.861 314.848, 252.607 317.352, 253.046 318.500 C 253.930 320.814, 253.311 324.326, 251.325 328.267 C 250.161 330.577, 249.614 330.864, 248.006 330.003 C 246.947 329.437, 245.500 329.092, 244.791 329.236 C 243.834 329.432, 243.500 327.687, 243.500 322.500 L 243.500 315.500 239.250 315.193 L 235 314.885 235 308.443 C 235 304.814, 234.563 302, 234 302 C 232.699 302, 232.699 298.304, 234 297.500 C 234.550 297.160, 235 295.114, 235 292.953 L 235 289.024 240 289.500 C 244.381 289.917, 245 289.745, 245 288.113 C 245 286.014, 241.541 285, 234.375 285 C 231.267 285, 230 284.590, 230 283.583 C 230 282.804, 230.475 282.008, 231.054 281.815 C 231.634 281.622, 232.210 280.797, 232.333 279.982 C 232.456 279.167, 232.923 277.912, 233.372 277.193 C 233.821 276.474, 233.918 274.810, 233.588 273.495 C 233.151 271.753, 233.668 270.422, 235.494 268.597 C 236.872 267.219, 238 265.170, 238 264.045 C 238 262.920, 238.351 262, 238.781 262 C 239.210 262, 240.060 260.679, 240.670 259.065 C 241.539 256.761, 242.232 256.248, 243.889 256.681 C 246.537 257.374, 246.610 255.862, 244.040 253.536 C 242.962 252.560, 242.174 251.253, 242.290 250.631 C 242.405 250.009, 241.938 249.612, 241.250 249.750 C 240.563 249.887, 240 249.518, 240 248.929 C 240 248.339, 239.271 248.586, 238.379 249.478 C 237.488 250.369, 235.454 251.359, 233.859 251.678 C 231.154 252.219, 228.788 254, 230.774 254 C 231.265 254, 231.667 255.350, 231.667 257 C 231.667 258.650, 231.292 260, 230.833 260 C 230.375 260, 230 261.392, 230 263.092 C 230 264.793, 229.100 267.329, 228 268.727 C 226.900 270.126, 226 272.259, 226 273.468 C 226 274.677, 225.662 276.003, 225.250 276.415 C 224.837 276.827, 224.039 278.801, 223.477 280.801 C 222.680 283.634, 221.763 284.636, 219.335 285.333 C 216.254 286.216, 216.210 286.323, 215.539 294.378 C 214.840 302.766, 216.409 316, 218.103 316 C 220.035 316, 218.869 317.879, 216.750 318.180 C 214.641 318.480, 214.482 319.042, 214.212 327.159 L 213.925 335.818 207.974 338.199 C 204.669 339.522, 200.060 342.451, 197.607 344.790 C 192.772 349.398, 191.750 349.906, 192.666 347.250 C 193.156 345.829, 192.968 345.876, 191.666 347.500 C 188.082 351.973, 191.657 352.387, 196.576 348.068 C 200.138 344.940, 205.575 343.611, 212.500 344.174 C 216.202 344.476, 216.523 344.742, 216.813 347.750 L 217.127 351 240.563 351 L 264 351 264 339.617 C 264 329.074, 263.852 328.195, 262 327.710 C 260.649 327.357, 260 326.346, 260 324.594 C 260 321.170, 261.599 321.271, 262.479 324.750 L 263.174 327.500 264.502 323.655 C 267.145 315.999, 273.412 312.548, 283.516 313.186 L 288.500 313.500 288.681 319 C 288.780 322.025, 288.893 330.462, 288.931 337.750 L 289 351 297.567 351 C 305.596 351, 306.096 350.878, 305.518 349.057 C 305.179 347.989, 304.827 343.826, 304.736 339.807 C 304.588 333.318, 305.367 329.284, 308.076 322.500 C 308.515 321.400, 309.187 319.396, 309.569 318.047 C 310.483 314.819, 311.790 313.612, 315.934 312.171 C 320.102 310.720, 320.962 311.634, 320.985 317.539 C 320.993 319.760, 321.900 323.342, 323 325.500 C 324.100 327.658, 325 330.378, 325 331.545 C 325 332.712, 325.338 334.007, 325.750 334.422 C 326.163 334.838, 326.536 336.150, 326.579 337.339 C 326.622 338.527, 326.735 342.087, 326.829 345.250 L 327 351 331.959 351 L 336.917 351 337.209 320.417 L 337.500 289.833 340.711 286.966 C 342.477 285.389, 345.706 283.618, 347.886 283.031 C 353.185 281.604, 360.746 281.335, 361.889 282.533 C 362.848 283.537, 364.882 321.813, 364 322.251 C 363.725 322.388, 363.636 328.913, 363.803 336.750 L 364.105 351 370.553 351 L 377 351 377.014 338.750 C 377.029 325.076, 377.582 321.626, 379.631 322.412 C 380.384 322.701, 381 322.329, 381 321.585 C 381 320.842, 380.036 319.981, 378.858 319.673 C 376.813 319.138, 376.740 318.694, 377.245 309.844 C 377.557 304.372, 378.229 300.424, 378.887 300.204 C 379.499 300, 380 299.196, 380 298.417 C 380 297.637, 380.408 297, 380.906 297 C 381.405 297, 382.122 294.750, 382.500 292 C 382.878 289.250, 383.595 287, 384.094 287 C 384.592 287, 385 286.298, 385 285.441 C 385 284.584, 385.450 284.160, 386 284.500 C 386.550 284.840, 387 284.492, 387 283.727 C 387 282.962, 388.669 281.823, 390.709 281.197 C 394.604 280.002, 395.936 280.708, 395.998 284 C 396.013 284.825, 396.935 288.400, 398.046 291.944 C 399.156 295.488, 399.831 298.999, 399.544 299.746 C 399.240 300.539, 399.468 300.829, 400.093 300.443 C 400.736 300.045, 401.041 300.522, 400.856 301.641 C 400.688 302.663, 400.956 304.149, 401.452 304.941 C 402.553 306.699, 403.318 319.994, 403.341 337.750 L 403.359 351 408.051 351 L 412.744 351 413.380 335.250 C 413.730 326.588, 413.957 305.443, 413.885 288.262 C 413.737 253.119, 413.554 254.083, 421.243 249.624 C 426.497 246.576, 436.381 244.598, 439.096 246.051 C 440.810 246.968, 441.006 248.342, 441.059 259.785 C 441.091 266.778, 441.204 289.487, 441.309 310.250 C 441.415 331.216, 441.112 348, 440.628 348 C 440.148 348, 440.315 348.675, 441 349.500 C 442.095 350.819, 457.729 351, 570.622 351 L 699 351 699.015 347.250 C 699.024 345.188, 699.361 342.999, 699.765 342.387 C 700.423 341.391, 716.618 335.060, 745.500 324.510 C 766.515 316.833, 781.541 310.720, 783.843 308.909 C 785.159 307.874, 786.632 307.273, 787.118 307.573 C 787.603 307.873, 788.091 313.379, 788.201 319.809 L 788.402 331.500 788.951 319.592 L 789.500 307.684 825 294.356 C 844.525 287.025, 871.075 276.964, 884 271.998 C 896.925 267.031, 908.063 262.975, 908.750 262.984 C 909.438 262.993, 910 262.325, 910 261.500 C 910 260.675, 910.413 260, 910.918 260 C 911.423 260, 912.527 259.735, 913.371 259.411 C 914.638 258.925, 914.966 260.010, 915.256 265.661 L 915.608 272.500 915.804 265.942 L 916 259.385 947.250 247.545 C 964.438 241.033, 983.337 233.909, 989.250 231.713 L 1000 227.721 1000 223.361 C 1000 220.962, 999.637 219, 999.193 219 C 998.750 219, 993.687 220.832, 987.943 223.072 C 982.200 225.312, 970.525 229.765, 962 232.969 C 953.475 236.173, 942.450 240.383, 937.500 242.325 C 932.550 244.266, 907.125 254.030, 881 264.022 C 854.875 274.013, 824.950 285.480, 814.500 289.503 C 804.050 293.527, 785.150 300.730, 772.500 305.511 C 759.850 310.292, 740.725 317.582, 730 321.712 C 708.069 330.156, 681.849 340, 681.289 340 C 681.086 340, 680.988 335.028, 681.071 328.950 C 681.246 316.174, 680.592 317.080, 693.242 312.085 C 705.754 307.143, 704.902 308.426, 705.222 294.063 L 705.500 281.572 709.750 278.720 L 714 275.868 714 263.848 L 714 251.828 708.967 249.702 L 703.935 247.575 704.217 237.606 L 704.500 227.637 713.965 223.804 C 719.171 221.695, 723.873 219.527, 724.415 218.985 C 724.957 218.443, 726.066 218, 726.880 218 C 728.608 218, 774.786 199.171, 782.500 195.321 C 784.150 194.498, 787.300 193.235, 789.500 192.516 C 795.724 190.480, 843.257 171.012, 845.500 169.580 C 846.600 168.878, 849.300 167.723, 851.500 167.014 C 857.724 165.008, 906.056 145.231, 910.198 142.996 C 912.232 141.898, 914.409 141, 915.035 141 C 916.156 141, 963.339 121.707, 976 116.072 C 979.575 114.480, 986.438 111.724, 991.250 109.946 C 996.106 108.152, 1000 106.135, 1000 105.414 C 1000 104.505, 997.817 105.023, 992.750 107.135 C 988.763 108.797, 977.175 113.540, 967 117.675 C 956.825 121.810, 933.425 131.393, 915 138.970 C 896.575 146.548, 872.950 156.240, 862.500 160.508 C 852.050 164.776, 833.150 172.530, 820.500 177.739 C 807.850 182.947, 787.600 191.262, 775.500 196.217 C 763.400 201.171, 741.650 210.124, 727.168 216.112 C 712.685 222.101, 700.197 227, 699.418 227 C 698.370 227, 698 225.599, 698 221.634 L 698 216.268 704.750 213.305 C 708.462 211.675, 721.278 206.328, 733.229 201.421 L 754.958 192.500 754.979 188.469 C 754.998 184.875, 755.341 184.310, 758.147 183.251 C 762.128 181.748, 763.303 182.481, 762.767 186.131 C 762.290 189.384, 762.883 189.369, 770.500 185.937 C 774.579 184.099, 808.771 169.912, 851 152.535 C 873.926 143.102, 927.219 121.140, 975.500 101.230 L 999.500 91.332 999.760 45.666 C 1000.012 1.398, 999.962 0, 998.123 0 C 996.387 0, 996.237 0.784, 996.363 9.221 C 996.482 17.268, 996.277 18.487, 994.750 18.795 C 993.300 19.086, 992.999 18.406, 992.991 14.823 C 992.987 12.445, 992.699 8.138, 992.352 5.250 C 991.756 0.287, 991.565 0, 988.861 0 L 986 0 986 6.793 L 986 13.586 980.250 15.502 C 975.469 17.095, 960.419 23.330, 952.500 26.998 C 944.880 30.527, 922.490 40, 921.768 40 C 921.281 40, 921.163 39.545, 921.507 38.989 C 922.600 37.220, 920.844 17.069, 919.617 17.294 C 918.881 17.430, 918.401 14.511, 918.211 8.750 L 917.922 0 887.961 0 L 858 0 858 4.935 C 858 7.649, 857.495 11.137, 856.877 12.685 C 856.260 14.233, 855.634 16.625, 855.487 18 C 855.339 19.375, 854.755 22.075, 854.189 24 C 853.622 25.925, 852.437 30.425, 851.554 34 C 850.672 37.575, 849.511 41.882, 848.975 43.571 C 848.439 45.260, 848 48.109, 848 49.902 C 848 53.292, 841.900 63.718, 839.342 64.699 C 838.604 64.982, 838 65.852, 838 66.632 C 838 69.328, 830.981 82, 829.487 82 C 827.272 82, 827.638 83.250, 831.500 88.864 C 833.425 91.662, 835 94.196, 835 94.495 C 835 94.794, 833.856 94.751, 832.457 94.400 C 830.262 93.849, 828.886 94.803, 822.393 101.381 C 817.986 105.845, 814.041 109, 812.865 109 C 811.761 109, 810.128 109.730, 809.236 110.621 C 807.741 112.116, 807.481 112.077, 805.897 110.121 C 804.952 108.955, 803.934 108, 803.634 108 C 802.210 108, 811.222 128.122, 815.393 134.256 L 817.948 138.012 815.389 136.336 C 813.159 134.874, 812.364 134.828, 809.188 135.977 C 803.669 137.973, 789.892 136.892, 772 133.060 C 769.028 132.424, 766.403 132.444, 764.269 133.120 L 761.038 134.143 760.769 156.284 L 760.500 178.425 757.807 179.936 C 756.325 180.767, 754.890 181.224, 754.617 180.951 C 754.345 180.678, 753.802 173.582, 753.410 165.182 C 752.632 148.464, 752.437 148, 746.196 148 C 737.040 148, 708.182 136.271, 699.903 129.185 C 697.757 127.348, 696 126.259, 696 126.767 C 696 127.917, 691.693 133, 690.718 133 C 690.323 133, 690 132.325, 690 131.500 C 690 129.528, 688.378 129.572, 687.614 131.563 C 687.284 132.423, 686.561 132.847, 686.007 132.504 C 685.415 132.138, 685 133.142, 685 134.941 C 685 137.368, 684.572 138, 682.929 138 C 681.789 138, 680.182 138.675, 679.357 139.500 C 678.532 140.325, 676.127 141, 674.012 141 C 671.897 141, 670.017 141.436, 669.833 141.969 C 669.650 142.502, 665.868 143.343, 661.429 143.838 C 656.990 144.333, 652.378 145.263, 651.179 145.904 C 649.202 146.962, 649 146.831, 649 144.491 C 649 142.590, 648.540 141.990, 647.250 142.206 C 644.886 142.603, 644.223 138.235, 646.514 137.356 C 647.759 136.878, 647.858 136.530, 646.913 135.946 C 645.474 135.057, 646.683 132.856, 651.812 127.024 C 654.985 123.417, 654.695 121, 651.089 121 C 648.348 121, 638.048 133.989, 638.006 137.500 C 637.978 139.779, 637.742 140.141, 637.024 139.005 C 636.208 137.713, 635.894 137.762, 634.721 139.366 C 633.975 140.388, 626.644 144.250, 618.432 147.949 C 610.219 151.648, 591.431 160.191, 576.680 166.934 C 561.929 173.677, 549.663 178.996, 549.421 178.754 C 549.179 178.513, 552.023 175.464, 555.741 171.979 C 567.027 161.398, 610.217 119.626, 611.912 117.650 C 612.786 116.633, 616.020 113.033, 619.100 109.650 C 622.180 106.268, 626.680 101.250, 629.100 98.500 C 634.765 92.063, 641.688 85.837, 640.221 88.500 C 639.615 89.600, 635.722 94.100, 631.569 98.500 C 627.417 102.900, 624.016 106.779, 624.010 107.119 C 624 107.759, 632.056 111.478, 642.440 115.627 C 645.706 116.932, 649.650 118, 651.203 118 C 652.756 118, 654.809 118.390, 655.764 118.866 C 656.719 119.342, 661.307 120.635, 665.961 121.738 L 674.422 123.745 683.717 119.372 C 688.830 116.968, 693.244 115, 693.526 115 C 693.809 115, 695.804 113.886, 697.960 112.525 C 700.116 111.164, 709.220 106.830, 718.190 102.894 C 756.386 86.134, 769.118 80.449, 779.500 75.514 C 785.550 72.639, 793.141 69.248, 796.368 67.979 C 803.410 65.211, 808.474 61.284, 807.129 59.637 C 806.529 58.902, 806.763 57.981, 807.791 57.033 C 809.201 55.731, 809.306 55.760, 808.722 57.283 C 807.931 59.343, 809.297 59.552, 810.903 57.617 C 811.792 56.546, 811.688 56.094, 810.444 55.617 C 807.768 54.590, 804.198 54.923, 803.662 56.250 C 803.264 57.237, 803.141 57.233, 803.079 56.231 C 803.029 55.433, 802.165 55.161, 800.750 55.498 C 799.169 55.876, 797.310 55.064, 794.497 52.768 C 790.418 49.439, 790.173 48.542, 791.585 42.106 L 792.110 39.712 793.688 41.965 C 794.556 43.204, 794.869 44.506, 794.383 44.859 C 792.212 46.435, 793.271 47.694, 796.471 47.342 C 799.064 47.056, 799.944 47.379, 800.264 48.735 C 800.578 50.068, 800.868 49.826, 801.448 47.750 C 801.871 46.238, 802.648 45, 803.176 45 C 803.703 45, 803.859 45.870, 803.521 46.934 C 803.156 48.085, 803.602 49.681, 804.623 50.872 C 806.157 52.664, 806.556 52.724, 808.392 51.438 C 811.133 49.518, 812.773 49.624, 813.227 51.750 C 813.509 53.071, 814.068 52.641, 815.506 50 C 816.554 48.075, 817.291 46.079, 817.144 45.564 C 816.597 43.652, 818.085 40, 819.411 40 C 821.622 40, 822.394 35.008, 820.407 33.555 C 819.480 32.878, 804.272 25.048, 786.611 16.156 L 754.500 -0.012 696.219 -0.006 C 645.439 -0.001, 637.863 0.192, 637.364 1.494 M 594.589 1.856 C 594.298 2.326, 595.172 2.499, 596.530 2.239 C 597.889 1.979, 599 1.594, 599 1.383 C 599 0.610, 595.101 1.027, 594.589 1.856 M 583 3.061 C 583 3.757, 584.634 3.885, 587.750 3.433 C 594.208 2.496, 594.352 2, 588.167 2 C 585.190 2, 583 2.450, 583 3.061 M 579.813 3.683 C 580.534 3.972, 581.397 3.936, 581.729 3.604 C 582.061 3.272, 581.471 3.036, 580.417 3.079 C 579.252 3.127, 579.015 3.364, 579.813 3.683 M 680 6.106 C 680 6.714, 678.875 8.097, 677.500 9.179 C 676.060 10.311, 675 12.174, 675 13.573 C 675 15.171, 674.431 16, 673.334 16 C 671.615 16, 669.910 17.359, 665.223 22.468 C 663.725 24.100, 661.263 26.723, 659.750 28.295 C 658.237 29.867, 657 31.529, 657 31.988 C 657 32.447, 655.650 33.958, 654 35.347 C 652.350 36.735, 651 38.350, 651 38.935 C 651 39.521, 650.550 40, 650 40 C 649.450 40, 647.987 41.013, 646.750 42.250 C 644.872 44.128, 644.530 45.473, 644.679 50.379 C 644.896 57.510, 646.340 59.481, 648.981 56.250 C 649.993 55.012, 651.241 54, 651.755 54 C 652.269 54, 653.505 53.100, 654.500 52 C 655.495 50.900, 656.712 50, 657.203 50 C 657.694 50, 659.138 48.875, 660.412 47.500 C 661.687 46.125, 663.168 45, 663.704 45 C 664.240 45, 666.259 43.313, 668.191 41.250 C 670.122 39.188, 673.366 36.008, 675.398 34.184 C 678.311 31.569, 678.944 30.405, 678.392 28.684 C 676.274 22.083, 676.177 20, 677.987 20 C 679.759 20, 684.043 15.136, 685.323 11.671 C 686.527 8.410, 685.028 5, 682.392 5 C 681.076 5, 680 5.498, 680 6.106 M 615 6.833 C 615 7.292, 615.655 7.667, 616.456 7.667 C 617.257 7.667, 617.680 7.292, 617.397 6.833 C 616.730 5.753, 615 5.753, 615 6.833 M 915.079 10.583 C 915.127 11.748, 915.364 11.985, 915.683 11.188 C 915.972 10.466, 915.936 9.603, 915.604 9.271 C 915.272 8.939, 915.036 9.529, 915.079 10.583 M 687.479 18.024 C 686.345 19.276, 686.003 20.403, 686.580 20.980 C 687.158 21.558, 688.160 20.786, 689.210 18.957 C 691.157 15.565, 690.180 15.039, 687.479 18.024 M 915.232 20 C 915.232 21.925, 915.438 22.712, 915.689 21.750 C 915.941 20.788, 915.941 19.212, 915.689 18.250 C 915.438 17.288, 915.232 18.075, 915.232 20 M 680.607 24.582 C 679.840 26.581, 679.817 30, 680.571 30 C 681.647 30, 683.736 27.408, 684.435 25.203 C 684.994 23.444, 684.740 23, 683.174 23 C 682.096 23, 680.941 23.712, 680.607 24.582 M 742 24.378 C 742 24.585, 742.675 25.315, 743.500 26 C 744.729 27.020, 745 26.951, 745 25.622 C 745 24.730, 744.325 24, 743.500 24 C 742.675 24, 742 24.170, 742 24.378 M 752 26 C 752 26.550, 750.538 27.010, 748.750 27.023 L 745.500 27.046 748.929 28.735 C 751.465 29.983, 752.464 30.108, 752.763 29.212 C 752.985 28.545, 753.749 28, 754.461 28 C 755.173 28, 756.315 27.325, 757 26.500 C 758.061 25.221, 757.785 25, 755.122 25 C 753.405 25, 752 25.450, 752 26 M 991.664 27.750 C 990.695 29.352, 988.031 39.365, 988.460 39.794 C 989.748 41.081, 991.783 38.721, 992.305 35.336 C 992.630 33.226, 993.197 30.488, 993.565 29.250 C 994.191 27.143, 992.729 25.990, 991.664 27.750 M 672 29 C 672 29.550, 672.675 30, 673.500 30 C 674.325 30, 675 29.550, 675 29 C 675 28.450, 674.325 28, 673.500 28 C 672.675 28, 672 28.450, 672 29 M 767 28.833 C 767 29.500, 765.500 30, 763.500 30 C 761.575 30, 760 30.450, 760 31 C 760 31.550, 761.125 32, 762.500 32 C 764.056 32, 765 32.567, 765 33.500 C 765 34.327, 765.886 35, 766.975 35 C 768.663 35, 768.860 34.528, 768.331 31.750 C 767.683 28.343, 767 26.847, 767 28.833 M 755 30.393 C 755 30.609, 755.698 31.054, 756.552 31.382 C 757.442 31.723, 757.843 31.555, 757.493 30.989 C 756.906 30.038, 755 29.583, 755 30.393 M 760 34 C 760 34.550, 760.450 35, 761 35 C 761.550 35, 762 34.550, 762 34 C 762 33.450, 761.550 33, 761 33 C 760.450 33, 760 33.450, 760 34 M 765 39 C 765 39.550, 765.450 40, 766 40 C 766.550 40, 767 39.550, 767 39 C 767 38.450, 766.550 38, 766 38 C 765.450 38, 765 38.450, 765 39 M 913.176 42.671 C 911.737 45.360, 908.950 62.250, 908.430 71.433 C 908.033 78.443, 907.441 80.420, 903.338 88.433 C 900.785 93.420, 897.563 99.300, 896.177 101.500 C 894.792 103.700, 892.124 108.875, 890.248 113 C 888.372 117.125, 886.129 121.287, 885.263 122.250 C 883.298 124.436, 884.288 124.570, 886.447 122.410 C 887.322 121.535, 889.141 120.699, 890.490 120.551 C 893.142 120.259, 900 115.499, 900 113.949 C 900 113.427, 900.402 113, 900.894 113 C 901.386 113, 903.239 111.645, 905.011 109.990 C 906.783 108.334, 909.303 106.711, 910.610 106.383 C 911.917 106.055, 912.784 105.460, 912.537 105.060 C 912.290 104.660, 912.743 104.333, 913.544 104.333 C 914.345 104.333, 915 104.708, 915 105.167 C 915 105.625, 915.436 106, 915.969 106 C 916.501 106, 916.680 105.329, 916.365 104.508 C 916.020 103.610, 916.530 102.740, 917.646 102.320 C 918.666 101.937, 919.950 101.040, 920.500 100.327 C 921.050 99.613, 923.592 98.406, 926.149 97.643 C 930.437 96.364, 935.624 92.943, 941.967 87.210 C 944.040 85.337, 960.590 73.992, 964.569 71.717 C 965.260 71.322, 965.485 72.147, 965.206 74.053 C 964.968 75.674, 965.084 77, 965.465 77 C 965.845 77, 968.034 75.160, 970.328 72.912 C 976.693 66.674, 978.130 65.481, 978.997 65.716 C 979.436 65.835, 979.564 65.047, 979.281 63.966 C 978.923 62.599, 979.269 62, 980.415 62 C 981.321 62, 982.353 61.212, 982.708 60.250 C 983.063 59.288, 984.398 57.108, 985.676 55.406 C 988.011 52.296, 988.635 48.548, 987.195 46.282 C 986.689 45.484, 984.927 47.485, 982.095 52.074 C 977.324 59.805, 971.371 64.966, 964.179 67.606 C 957.878 69.920, 947.337 74.171, 923.657 83.951 C 912.743 88.459, 903.657 91.991, 903.467 91.800 C 903.276 91.609, 904.415 89.373, 905.997 86.831 C 909.027 81.963, 910.433 75.748, 911.501 62.500 C 911.856 58.100, 912.797 51.621, 913.593 48.103 C 915.078 41.534, 914.916 39.420, 913.176 42.671 M 783.975 43.016 C 782.814 43.733, 782.770 44.170, 783.758 45.158 C 784.441 45.841, 785 45.999, 785 45.509 C 785 45.019, 785.606 45.447, 786.347 46.460 C 787.399 47.899, 787.872 48.017, 788.502 46.997 C 789.072 46.074, 788.921 45.931, 787.985 46.510 C 787.035 47.096, 786.833 46.878, 787.271 45.737 C 788.074 43.643, 785.885 41.835, 783.975 43.016 M 818.079 43.583 C 818.127 44.748, 818.364 44.985, 818.683 44.188 C 818.972 43.466, 818.936 42.603, 818.604 42.271 C 818.272 41.939, 818.036 42.529, 818.079 43.583 M 640 52 C 640 52.550, 639.424 53, 638.721 53 C 638.017 53, 636.793 53.900, 636 55 C 635.207 56.100, 633.533 57, 632.279 57 C 631.026 57, 630 57.441, 630 57.981 C 630 59.978, 622.887 70, 621.469 70 C 620.661 70, 620 70.858, 620 71.906 C 620 73.320, 619.483 73.678, 618 73.290 C 616.900 73.002, 616 72.935, 616 73.140 C 616 73.345, 615.590 74.942, 615.090 76.688 C 614.439 78.955, 614.552 80.372, 615.482 81.644 C 616.727 83.348, 616.966 83.340, 620.881 81.463 C 623.134 80.383, 624.982 79.162, 624.989 78.749 C 624.995 78.336, 627.999 75.186, 631.665 71.749 C 645.089 59.164, 643.921 60.865, 642.724 55.638 C 642.141 53.087, 641.289 51, 640.832 51 C 640.374 51, 640 51.450, 640 52 M 552.053 65.902 C 551.187 67.520, 551.331 67.726, 553.017 67.285 C 554.108 67, 555 66.144, 555 65.383 C 555 63.377, 553.238 63.687, 552.053 65.902 M 543.500 74 C 543.160 74.550, 543.359 75, 543.941 75 C 544.523 75, 545 74.550, 545 74 C 545 73.450, 544.802 73, 544.559 73 C 544.316 73, 543.840 73.450, 543.500 74 M 610 82.500 C 610 84.500, 609.500 85, 607.500 85 C 605.500 85, 605 85.500, 605 87.500 C 605 89.500, 605.500 90, 607.500 90 C 609.056 90, 610 89.433, 610 88.500 C 610 87.675, 610.420 87, 610.933 87 C 612.235 87, 613.173 83.613, 612.416 81.641 C 611.462 79.157, 610 79.677, 610 82.500 M 651.750 134.080 C 650.788 134.641, 650 135.527, 650 136.050 C 650 137.656, 651.453 137.105, 652.768 135 C 654.189 132.724, 654.146 132.685, 651.750 134.080 M 643 143.571 C 643 143.886, 643.675 144.818, 644.500 145.643 C 646.128 147.271, 646.332 147.029, 645.393 144.582 C 644.823 143.095, 643 142.326, 643 143.571 M 400 169.883 C 400 170.369, 401.125 170.982, 402.500 171.245 C 405.254 171.771, 405.928 170.570, 403.418 169.607 C 401.197 168.755, 400 168.852, 400 169.883 M 335.500 198 L 333.500 198.859 335.500 198.811 C 336.600 198.785, 338.850 198.420, 340.500 198 L 343.500 197.237 340.500 197.189 C 338.850 197.162, 336.600 197.527, 335.500 198 M 326.134 199.104 C 327.955 200.258, 331.738 200.233, 332.461 199.062 C 332.788 198.534, 331.237 198.150, 328.905 198.182 C 326.175 198.220, 325.233 198.533, 326.134 199.104 M 597 218.094 C 597 218.592, 597.900 219, 599 219 C 600.100 219, 601 218.827, 601 218.617 C 601 218.406, 600.100 217.998, 599 217.710 C 597.900 217.423, 597 217.595, 597 218.094 M 412.764 220 C 412.359 221.375, 412.021 223.475, 412.014 224.667 C 412.006 225.858, 411.438 227.060, 410.750 227.338 C 409.965 227.655, 409.919 227.871, 410.628 227.921 C 412.726 228.068, 414.131 225.158, 413.815 221.320 C 413.533 217.904, 413.422 217.764, 412.764 220 M 407 230.441 C 407 232.832, 408.827 233.191, 409.985 231.028 C 410.910 229.299, 410.770 229, 409.035 229 C 407.916 229, 407 229.648, 407 230.441 M 261.657 231.058 C 257.893 231.495, 254.631 232.035, 254.408 232.258 C 254.185 232.481, 255.240 233.242, 256.752 233.948 C 258.263 234.655, 260.281 235.631, 261.236 236.117 C 263.844 237.443, 264.713 237.204, 265.290 235 C 265.577 233.900, 266.642 232.993, 267.656 232.985 C 268.670 232.977, 271.300 232.321, 273.500 231.529 L 277.500 230.088 273 230.175 C 270.525 230.223, 265.421 230.621, 261.657 231.058 M 252.569 237.923 C 250.660 240.033, 251.377 240.681, 253.872 239.100 C 254.626 238.622, 255.065 237.695, 254.846 237.039 C 254.590 236.269, 253.784 236.582, 252.569 237.923 M 243.655 244.829 C 241.758 246.924, 241.547 248, 243.031 248 C 243.599 248, 244.353 247.213, 244.708 246.250 C 245.064 245.287, 245.837 244.169, 246.427 243.765 C 247.185 243.246, 247.178 243.026, 246.405 243.015 C 245.803 243.007, 244.565 243.823, 243.655 244.829 M 377 252 C 377 252.550, 377.450 253, 378 253 C 378.550 253, 379 252.550, 379 252 C 379 251.450, 378.550 251, 378 251 C 377.450 251, 377 251.450, 377 252 M 411.079 261.583 C 411.127 262.748, 411.364 262.985, 411.683 262.188 C 411.972 261.466, 411.936 260.603, 411.604 260.271 C 411.272 259.939, 411.036 260.529, 411.079 261.583 M 262.167 288.250 C 261.131 291.188, 260.320 292, 258.422 292 C 255.642 292, 255.307 293.180, 257.557 295.048 C 258.867 296.134, 259.515 295.939, 261.632 293.823 C 263.541 291.914, 264.070 290.482, 263.819 287.903 L 263.489 284.500 262.167 288.250 M 334.158 294 C 334.158 295.375, 334.385 295.938, 334.662 295.250 C 334.940 294.563, 334.940 293.438, 334.662 292.750 C 334.385 292.063, 334.158 292.625, 334.158 294 M 256.624 298.539 C 256.281 299.432, 256.029 300.689, 256.063 301.332 C 256.098 301.974, 256.558 301.422, 257.085 300.105 C 257.612 298.787, 257.864 297.531, 257.645 297.312 C 257.426 297.093, 256.966 297.645, 256.624 298.539 M 245.158 347 C 245.158 348.375, 245.385 348.938, 245.662 348.250 C 245.940 347.563, 245.940 346.438, 245.662 345.750 C 245.385 345.063, 245.158 345.625, 245.158 347 M 996 349.500 L 992.500 350.848 996.250 350.924 C 998.950 350.979, 1000 350.580, 1000 349.500 C 1000 348.675, 999.888 348.034, 999.750 348.076 C 999.612 348.118, 997.925 348.759, 996 349.500" stroke="none" fill="#ffffff" fill-rule="evenodd"/>
</svg>