<svg xmlns="http://www.w3.org/2000/svg" width="1000" height="269" viewBox="0 0 1000 269" version="1.1">
	<path d="M 750.125 76.704 C 747.351 77.805, 745 81.073, 745 83.826 C 745 87.589, 748.469 90.621, 753.764 91.485 C 757.686 92.125, 758.269 91.923, 761.014 88.985 C 765.341 84.353, 764.722 80.043, 759.316 77.163 C 757.067 75.966, 752.552 75.740, 750.125 76.704 M 102.484 78.180 C 102.205 78.908, 102.094 97.503, 102.238 119.502 L 102.500 159.500 111 159.500 L 119.500 159.500 119.776 144.805 L 120.053 130.110 132.776 129.721 C 147.703 129.265, 151.934 128.025, 157.553 122.460 C 167.594 112.516, 167.406 94.322, 157.158 84.262 C 154.694 81.843, 151.861 80, 150.608 80 C 149.394 80, 147.838 79.438, 147.152 78.750 C 145.279 76.874, 103.192 76.337, 102.484 78.180 M 322.667 77.667 C 321.553 78.780, 321.878 145.806, 323 146.500 C 323.550 146.840, 324 147.957, 324 148.982 C 324 154.433, 334.276 160, 344.338 160 L 349 160 349 153.588 L 349 147.176 345.079 146.513 C 338.245 145.359, 338 144.032, 338 108.099 L 338 77 330.667 77 C 326.633 77, 323.033 77.300, 322.667 77.667 M 392.474 78.208 C 392.200 78.920, 392.094 97.503, 392.238 119.502 L 392.500 159.500 399.264 159.796 C 405.048 160.049, 406.110 159.832, 406.597 158.296 C 408.465 152.409, 408.325 152.468, 412.246 155.911 C 417.095 160.169, 421.095 161.215, 429.474 160.416 C 438.942 159.514, 444.678 155.451, 449.122 146.500 C 452.072 140.559, 452.015 120.533, 449.030 113.795 C 444.421 103.390, 437.042 98.499, 427.124 99.275 C 421.321 99.729, 414.287 101.959, 413.148 103.706 C 412.792 104.253, 411.500 105.227, 410.277 105.871 L 408.054 107.042 407.777 92.271 L 407.500 77.500 400.236 77.206 C 394.989 76.994, 392.833 77.272, 392.474 78.208 M 120.667 91.667 C 120.300 92.033, 120 97.658, 120 104.167 L 120 116 129.515 116 C 138.954 116, 139.059 115.973, 142.765 112.577 C 146.206 109.423, 146.500 108.723, 146.500 103.682 C 146.500 97.656, 144.957 95.123, 139.685 92.493 C 136.648 90.978, 121.992 90.341, 120.667 91.667 M 194.559 100.469 C 193.491 101.311, 191.794 102, 190.787 102 C 187.977 102, 180.249 109.705, 178.921 113.830 C 178.271 115.849, 177.407 117.950, 177 118.500 C 176.593 119.050, 175.951 122.342, 175.573 125.816 C 173.951 140.719, 180.011 152.700, 192 158.295 C 197.430 160.829, 212.575 161.228, 218.115 158.982 C 223.242 156.904, 231 151.092, 231 149.329 C 231 148.960, 231.607 147.947, 232.348 147.079 C 235.835 142.994, 237.830 122.430, 235.012 119.612 C 234.455 119.055, 234 117.738, 234 116.684 C 234 114.557, 227.369 105, 225.893 105 C 225.378 105, 223.101 103.771, 220.832 102.270 C 217.133 99.822, 215.660 99.508, 206.603 99.239 C 198.701 99.003, 196.077 99.271, 194.559 100.469 M 269 99.670 C 264.401 101.239, 258.856 104.229, 256.506 106.406 C 252.309 110.297, 247.991 122.005, 248.044 129.354 C 248.093 136.118, 249.920 144.320, 251.796 146.196 C 252.458 146.858, 253 147.955, 253 148.633 C 253 150.242, 260.528 156.305, 265 158.297 C 269.971 160.512, 279.719 161.338, 286.370 160.109 C 293.766 158.742, 300.099 154.327, 304.781 147.274 L 308.483 141.699 308.492 130.507 C 308.497 123.790, 308.055 118.752, 307.388 117.907 C 306.776 117.133, 306.005 115.362, 305.674 113.971 C 305.037 111.292, 300.841 106.317, 297.500 104.281 C 290.710 100.141, 286.576 99.002, 278.623 99.079 C 274.155 99.122, 269.825 99.388, 269 99.670 M 481 100.594 C 476.070 102.356, 470 106.511, 470 108.122 C 470 108.684, 469.423 109.720, 468.718 110.425 C 468.012 111.131, 467.450 113.236, 467.468 115.104 L 467.500 118.500 473.865 118.801 C 478.766 119.032, 480.664 118.709, 482.115 117.396 C 483.152 116.458, 484 115.182, 484 114.561 C 484 112.586, 489.659 110, 493.981 110 C 497.260 110, 498.780 110.626, 501.077 112.923 C 504.310 116.156, 504.875 120.029, 502.411 122.074 C 501.441 122.879, 497.252 123.541, 491.661 123.772 C 486.622 123.981, 481.082 124.793, 479.349 125.576 C 477.616 126.359, 475.740 127, 475.180 127 C 470.857 127, 464.332 134.644, 463.914 140.197 C 462.833 154.570, 471.824 162.140, 487.932 160.418 C 492.506 159.929, 495.440 159, 497.594 157.358 C 501.503 154.379, 502.379 154.403, 504.437 157.544 C 505.987 159.910, 506.575 160.068, 512.802 159.794 L 519.500 159.500 519.460 136 C 519.413 108.088, 519.119 106.950, 510.809 102.505 C 506.192 100.036, 504.197 99.622, 495.500 99.326 C 488.134 99.075, 484.315 99.410, 481 100.594 M 536.235 99.810 C 535.251 100.453, 535.028 107.199, 535.235 130.069 L 535.500 159.500 543 159.500 L 550.500 159.500 551 139.176 L 551.500 118.852 555 115.953 C 557.919 113.535, 559.413 113.052, 564 113.042 C 570.058 113.029, 570.834 113.357, 573.308 116.973 C 574.760 119.095, 575 122.316, 575 139.723 L 575 160 583 160 L 591 160 590.996 137.750 C 590.991 111.883, 590.152 107.867, 583.651 102.606 C 580.106 99.736, 579.263 99.511, 572.163 99.541 C 564.073 99.576, 559.391 100.966, 554.569 104.764 C 551.259 107.371, 551.004 107.259, 550.097 102.801 C 549.435 99.550, 549.336 99.496, 543.463 99.241 C 540.183 99.099, 536.931 99.355, 536.235 99.810 M 622.250 101.297 C 613.582 104.935, 610.089 109.013, 606.349 119.862 C 603.927 126.885, 605.431 140.555, 609.528 148.758 C 611.060 151.826, 616.702 157, 618.516 157 C 618.970 157, 620.078 157.666, 620.977 158.479 C 623.278 160.562, 638.494 161.617, 644.482 160.109 C 653.682 157.792, 661.040 150.632, 662.563 142.516 C 663.417 137.965, 662.300 137.031, 656 137.029 C 648.979 137.026, 647.092 137.861, 646.191 141.367 C 645.603 143.655, 644.235 145.107, 641.117 146.750 C 630.645 152.271, 622 145.146, 622 130.996 C 622 117.929, 625.543 112.814, 635.473 111.543 C 637.951 111.226, 639.535 111.817, 642.284 114.082 C 644.254 115.706, 646.008 118.039, 646.183 119.267 C 646.475 121.326, 647.099 121.523, 654.170 121.791 C 661.086 122.053, 661.901 121.886, 662.471 120.091 C 662.819 118.996, 662.405 116.750, 661.552 115.100 C 660.698 113.449, 660 111.432, 660 110.617 C 660 108.797, 652.853 103.034, 647.716 100.711 C 642.050 98.149, 629.037 98.448, 622.250 101.297 M 694 99.680 C 685.868 101.006, 678.836 107.625, 677.456 115.250 L 676.777 119 684.413 119 C 691.526 119, 692.111 118.837, 692.950 116.631 C 694.491 112.579, 698.756 109.998, 703.885 110.015 C 706.423 110.024, 709.006 110.361, 709.624 110.765 C 711.743 112.150, 714.772 118.154, 714.288 120.008 C 713.635 122.503, 711.980 123.008, 702.546 123.593 C 690.366 124.348, 683.341 126.700, 678.267 131.724 C 674.176 135.773, 674 136.198, 674 142.023 C 674 155.121, 680.383 160.563, 695.590 160.429 C 703.002 160.363, 704.084 160.085, 708.490 157.112 C 713.466 153.753, 714.948 154.023, 714.985 158.294 C 714.998 159.880, 715.840 160.054, 722.250 159.794 L 729.500 159.500 729.500 135.500 C 729.500 106.980, 729.435 106.768, 719.258 101.959 C 713.772 99.367, 711.971 99.017, 704.747 99.136 C 700.211 99.211, 695.375 99.456, 694 99.680 M 748.202 99.854 C 747.186 100.498, 746.903 106.933, 746.903 129.356 C 746.903 145.129, 747.177 158.477, 747.511 159.017 C 748.172 160.087, 758.857 160.376, 761.418 159.393 C 762.810 158.859, 763 155.335, 763 130.093 C 763 109.110, 762.678 101.078, 761.800 100.200 C 760.449 98.849, 750.198 98.588, 748.202 99.854 M 781.667 99.667 C 781.300 100.033, 781 113.758, 781 130.167 L 781 160 789 160 L 797 160 797 139.655 C 797 121.512, 797.189 119.149, 798.750 117.823 C 801.914 115.133, 807.732 113, 811.901 113 L 816 113 816 106 L 816 99 812.901 99 C 808.919 99, 803.462 101.598, 801.079 104.627 C 798.468 107.947, 797 107.583, 797 103.617 C 797 100.953, 796.521 100.105, 794.750 99.630 C 791.702 98.814, 782.494 98.839, 781.667 99.667 M 845.500 99.713 C 844.400 99.978, 843.072 100.600, 842.550 101.097 C 842.028 101.594, 840.622 102, 839.427 102 C 836.740 102, 829.444 109.703, 827.294 114.810 C 825.342 119.448, 824.360 134.959, 825.782 138.713 C 826.363 140.246, 827.094 142.683, 827.407 144.129 C 828.242 147.978, 836.491 156.729, 840.015 157.503 C 841.644 157.861, 843.234 158.569, 843.548 159.077 C 843.861 159.585, 849.070 160, 855.123 160 C 864.671 160, 866.836 159.676, 871.472 157.556 C 877.972 154.583, 881.519 150.938, 882.791 145.925 C 884.071 140.883, 882.978 140, 875.455 140 C 869.325 140, 866 141.694, 866 144.815 C 866 146.524, 859.350 149, 854.760 149 C 851.464 149, 850.097 148.332, 846.947 145.183 C 842.654 140.890, 841.131 136.752, 843.011 134.487 C 844.023 133.268, 847.622 133, 863 133 C 878.147 133, 881.986 132.722, 882.956 131.553 C 884.534 129.652, 883.386 119.885, 880.952 114.500 C 878.408 108.874, 871.414 102.490, 865.715 100.593 C 861.224 99.098, 850.075 98.613, 845.500 99.713 M 847.513 111.915 C 844.827 113.746, 842.279 118.369, 842.076 121.781 C 842.017 122.771, 844.783 122.998, 854.250 122.781 L 866.500 122.500 866.217 119 C 865.796 113.787, 862.460 110.995, 855.923 110.385 C 851.556 109.978, 849.919 110.276, 847.513 111.915 M 200.250 113.028 C 198.738 113.966, 196.376 115.954, 195.003 117.445 C 192.696 119.948, 192.505 120.901, 192.503 129.894 C 192.500 137.837, 192.823 139.957, 194.250 141.388 C 195.213 142.353, 196 143.584, 196 144.122 C 196 144.661, 197.637 145.786, 199.637 146.622 C 210.404 151.121, 218.470 145.479, 219.672 132.608 C 220.335 125.513, 218.932 119.806, 215.627 116.144 C 211.556 111.634, 204.727 110.250, 200.250 113.028 M 274.357 112.342 C 267.717 114.464, 265 119.992, 265 131.386 C 265 139.760, 267.858 144.926, 273.809 147.307 C 277.444 148.761, 278.194 148.754, 282.994 147.219 C 286.511 146.094, 288.492 144.835, 289.049 143.371 C 289.504 142.174, 290.354 140.899, 290.938 140.538 C 291.564 140.151, 292 136.066, 292 130.589 C 292 122.602, 291.684 120.829, 289.750 117.976 C 285.877 112.262, 280.624 110.339, 274.357 112.342 M 417.005 112.591 C 415.083 113.233, 412.205 115.372, 410.609 117.344 C 407.881 120.715, 407.709 121.468, 407.739 129.900 C 407.766 137.499, 408.107 139.341, 409.964 141.950 C 412.939 146.127, 416.935 148, 422.873 148 C 427.041 148, 428.321 147.525, 430.782 145.064 C 432.536 143.310, 433.971 140.594, 434.348 138.314 C 437.478 119.369, 429.984 108.253, 417.005 112.591 M 491 132.629 C 489.061 133.298, 484.914 135.028, 483 135.968 C 482.075 136.422, 481.385 138.441, 481.200 141.231 C 480.792 147.398, 482.539 149, 489.678 149 C 494.367 149, 495.814 148.523, 499.154 145.878 C 502.932 142.886, 503.084 142.542, 502.798 137.628 L 502.500 132.500 497.500 132.306 C 494.750 132.199, 491.825 132.345, 491 132.629 M 697.534 134.030 C 693.141 135.590, 692.409 136.274, 691.177 139.968 C 689.861 143.918, 689.908 144.274, 692.067 146.571 C 693.966 148.592, 695.306 149, 700.052 149 C 703.901 149, 706.160 148.512, 707 147.500 C 707.685 146.675, 708.859 146, 709.609 146 C 711.150 146, 714 139.885, 714 136.578 C 714 135.380, 713.460 133.860, 712.800 133.200 C 711.119 131.519, 703.430 131.937, 697.534 134.030" stroke="none" fill="#ffffff" fill-rule="evenodd"/>
</svg>