<svg xmlns="http://www.w3.org/2000/svg" width="1000" height="228" viewBox="0 0 1000 228" version="1.1">
	<path d="M 0 106 L 0 212 64.750 211.940 C 100.362 211.906, 143.404 211.519, 160.397 211.079 C 178.207 210.618, 192.979 210.657, 195.272 211.172 C 200.667 212.385, 203.420 210.478, 205.219 204.282 C 206.369 200.321, 206.457 192.464, 205.730 158.500 C 205.039 126.172, 205.260 68.325, 206.263 19.500 C 206.308 17.300, 205.716 12.013, 204.947 7.750 L 203.549 0 167.775 0 L 132 0 132 3.500 L 132 7 115 7 C 100.556 7, 98 6.775, 98 5.500 C 98 4.367, 96.778 4, 93 4 C 88.667 4, 88 3.733, 88 2 C 88 0.030, 87.333 0, 44 0 L 0 0 0 106 M 271 3.980 C 271 7.600, 270.647 8.139, 267.092 9.953 C 264.828 11.108, 261.186 14.574, 258.437 18.188 C 250.371 28.794, 250.141 36.322, 257.558 46.975 C 262.155 53.578, 269.785 60.177, 275.664 62.633 C 279.638 64.293, 291.983 64.301, 297.500 62.647 C 300.949 61.613, 301.543 61.012, 301.808 58.290 C 302.226 54.018, 299.925 52.837, 293.878 54.221 C 287.390 55.705, 278.257 54.408, 275.875 51.663 C 274.843 50.473, 271.692 46.922, 268.874 43.771 C 263.822 38.122, 263.755 37.964, 264.199 32.619 C 264.574 28.091, 265.213 26.633, 268.074 23.769 C 269.958 21.884, 273.075 18.526, 275 16.308 C 278.024 12.825, 279.235 12.182, 283.899 11.584 C 287.240 11.155, 291.150 11.366, 294.158 12.137 C 300.269 13.703, 301.176 12.919, 301.789 5.535 L 302.248 0 286.624 0 L 271 0 271 3.980 M 339.982 2.750 C 339.963 5.533, 334.926 17.324, 331.715 22.099 C 330.754 23.529, 328.818 28.665, 327.412 33.513 C 326.006 38.362, 323.275 45.347, 321.342 49.037 C 317.367 56.625, 317.215 60.318, 320.857 60.834 C 322.493 61.065, 324.023 60.240, 325.857 58.136 C 327.680 56.046, 330.917 54.291, 336.290 52.479 C 343.306 50.113, 344.597 49.962, 349.277 50.966 C 355.622 52.327, 358.490 54.114, 360.468 57.939 C 361.299 59.544, 362.905 61.152, 364.037 61.512 C 371.147 63.768, 370.542 49.561, 362.993 37 C 360.433 32.740, 358.485 27.753, 357.340 22.528 C 355.978 16.308, 354.858 13.742, 352.246 10.850 C 350.331 8.731, 348.650 5.615, 348.318 3.572 C 347.769 0.191, 347.531 0, 343.869 0 C 340.319 0, 339.998 0.227, 339.982 2.750 M 387 1.874 C 387 2.905, 386.274 5.718, 385.387 8.124 C 384.131 11.533, 383.718 17.142, 383.520 33.500 C 383.381 45.050, 383.657 55.544, 384.135 56.819 C 385.292 59.910, 388.644 59.382, 391.400 55.675 C 393.367 53.030, 393.500 51.601, 393.500 33.175 C 393.500 14.753, 393.357 13.217, 391.250 9.062 C 390.012 6.621, 389 3.584, 389 2.312 C 389 1.040, 388.550 0, 388 0 C 387.450 0, 387 0.843, 387 1.874 M 421 3.129 C 421 5.300, 419.929 7.443, 417.500 10.132 C 414.585 13.358, 414 14.763, 414 18.535 C 414 21.026, 414.643 24.603, 415.429 26.483 C 416.668 29.449, 417.629 30.118, 422.679 31.524 C 425.880 32.416, 429.625 33.483, 431 33.895 C 432.541 34.357, 434.219 36.151, 435.374 38.572 C 436.404 40.732, 438.317 43.772, 439.624 45.327 C 442.887 49.209, 442.639 51.471, 438.750 53.303 C 433.147 55.943, 428.772 56.293, 424.205 54.465 C 421.895 53.541, 419.328 53.044, 418.502 53.361 C 416.883 53.982, 416.487 58.643, 417.869 60.822 C 419.705 63.717, 434.656 65.062, 440.881 62.892 C 442.679 62.265, 444.710 60.528, 445.554 58.895 C 446.376 57.307, 448.615 55.352, 450.530 54.552 C 455.148 52.622, 456.471 49.131, 454.964 42.849 C 453.652 37.383, 453.380 37.116, 446 34.074 C 442.975 32.828, 438.914 30.163, 436.977 28.154 C 435.039 26.144, 432.001 23.733, 430.226 22.796 C 426.104 20.620, 424.279 16.878, 425.757 13.633 C 426.732 11.494, 427.612 11.222, 434.906 10.799 C 444.353 10.252, 447 8.621, 447 3.345 L 447 0 434 0 L 421 0 421 3.129 M 476 3.304 C 476 5.765, 475.110 7.470, 472.510 9.990 C 468.100 14.264, 467.194 18.601, 469.468 24.555 C 471.413 29.649, 472.017 30.057, 481.236 32.502 C 487.728 34.225, 488.081 34.481, 490.958 39.579 C 492.600 42.488, 494.572 45.236, 495.341 45.684 C 497.132 46.730, 498.178 50.144, 497.189 51.716 C 496.768 52.386, 493.584 53.660, 490.114 54.549 C 484.282 56.043, 483.422 56.041, 478.766 54.518 C 473.055 52.650, 471.677 53.300, 472.172 57.628 C 472.654 61.846, 477.598 63.996, 486.816 63.998 C 494.974 64, 496.062 63.598, 501.611 58.520 C 503.750 56.562, 506.512 54.086, 507.750 53.016 C 510.392 50.733, 510.793 44.833, 508.654 39.718 C 507.582 37.153, 506.212 36.108, 501.904 34.568 C 498.462 33.338, 494.829 30.978, 491.899 28.068 C 489.368 25.556, 485.768 22.594, 483.899 21.487 C 481.351 19.978, 480.423 18.680, 480.192 16.303 C 479.801 12.292, 481.369 11.426, 490.250 10.747 C 498.884 10.086, 502 8.158, 502 3.477 L 502 0 489 0 L 476 0 476 3.304 M 528 2.878 C 528 4.461, 527.353 7.303, 526.563 9.194 C 525.510 11.715, 525.063 17.954, 524.888 32.567 C 524.631 54.034, 525.414 59.079, 529.330 61.179 C 531.770 62.486, 555.424 63.612, 559.415 62.611 C 562.481 61.841, 562.927 58.566, 560.167 57.089 C 559.159 56.550, 555.606 56.147, 552.272 56.194 C 547.912 56.256, 544.918 55.655, 541.605 54.051 C 537.522 52.075, 537 51.450, 537 48.546 C 537 46.744, 537.836 44.197, 538.859 42.885 C 540.897 40.269, 543.506 35.430, 545.011 31.472 C 545.850 29.264, 545.475 28.376, 542.153 24.715 C 540.050 22.397, 538.043 19.709, 537.693 18.741 C 535.804 13.523, 542.585 9, 552.298 9 C 558.823 9, 562 7.017, 562 2.943 L 562 0 545 0 L 528 0 528 2.878 M 147.531 18.907 C 143.077 19.439, 142.271 19.935, 139.755 23.691 C 136.756 28.167, 136.180 28.467, 128.575 29.503 C 124.391 30.074, 122.939 30.913, 118.916 35.087 C 115.353 38.784, 113.453 40, 111.240 40 C 106.481 40, 102.039 42.024, 100.572 44.861 C 98.694 48.492, 96.283 50.372, 91 52.323 C 87.681 53.549, 85.975 54.953, 84.500 57.671 C 83.136 60.184, 81.387 61.724, 79 62.512 C 76.841 63.226, 74.514 65.116, 72.925 67.447 C 71.509 69.524, 69.622 71.632, 68.732 72.130 C 67.841 72.629, 62.527 73.473, 56.922 74.007 C 51.317 74.542, 46.070 75.527, 45.261 76.198 C 42.366 78.601, 41.786 82.152, 43.539 86.742 C 44.447 89.119, 44.954 91.677, 44.666 92.428 C 44.378 93.178, 41.861 94.550, 39.072 95.476 C 30.960 98.170, 28.806 103.714, 33.144 110.734 C 35.509 114.560, 34.727 115.955, 30.200 115.985 C 27.078 116.005, 22.286 118.597, 21.030 120.945 C 18.110 126.401, 21.564 131.253, 29.279 132.535 C 38.022 133.988, 39.959 136.185, 39.986 144.685 C 39.994 146.986, 40.680 152.100, 41.510 156.048 C 42.788 162.125, 43.748 164.060, 47.760 168.656 C 56.066 178.171, 64.431 186.652, 66.684 187.844 C 69.697 189.438, 74.370 189.290, 78.746 187.462 C 84.199 185.183, 85.958 183.231, 89.525 175.500 C 91.463 171.300, 93.966 167.616, 95.784 166.289 C 97.706 164.886, 99.406 162.294, 100.435 159.196 C 101.327 156.511, 104.058 151.970, 106.504 149.104 C 108.950 146.238, 111.498 142.070, 112.166 139.841 C 112.949 137.227, 114.742 134.695, 117.217 132.705 C 120.151 130.348, 121.425 128.313, 122.630 124.061 C 124.957 115.847, 126.406 114, 130.523 114 C 132.435 114, 134 114.457, 134 115.016 C 134 115.949, 135.436 116.696, 144.715 120.587 C 146.975 121.534, 148.610 123.356, 150.215 126.717 C 154.009 134.657, 161.034 135.271, 165.111 128.017 C 166.691 125.204, 168.392 123.705, 170.923 122.890 C 175.812 121.317, 176.691 120.461, 177.422 116.562 C 178.566 110.465, 176.565 104.963, 171.479 100.227 C 168.933 97.855, 165.965 93.915, 164.884 91.471 C 161.794 84.485, 158.548 83.461, 152.502 87.563 C 150.014 89.252, 148.389 89.789, 147.737 89.137 C 147.194 88.594, 146.426 84.853, 146.032 80.824 C 145.637 76.796, 144.369 71.362, 143.214 68.750 C 141.413 64.680, 140.703 64, 138.252 64 C 134.984 64, 130.827 67.889, 126.496 75 C 124.988 77.475, 122.490 80.522, 120.944 81.770 C 118.917 83.408, 117.821 85.547, 117.011 89.445 C 116.066 93.998, 115.196 95.418, 111.489 98.456 C 107.622 101.624, 106.944 102.796, 105.895 108.129 C 105.062 112.361, 103.918 114.922, 102.111 116.598 C 100.686 117.919, 99.233 119, 98.882 119 C 98.530 119, 97.695 120.462, 97.027 122.250 C 93.927 130.536, 92.541 133.052, 89.407 136.090 C 87.317 138.116, 85.474 141.297, 84.551 144.474 C 83.732 147.289, 81.916 150.669, 80.515 151.986 C 79.114 153.302, 76.831 156.318, 75.442 158.689 C 72.011 164.543, 70.105 164.265, 64.670 157.118 C 58.415 148.893, 58 147.897, 58 141.089 C 58 135.734, 58.287 134.858, 60.519 133.395 C 62.214 132.285, 64.173 131.929, 66.504 132.307 C 77.499 134.091, 83.036 125.467, 75.392 118.465 C 73.407 116.647, 72.084 114.674, 72.451 114.080 C 72.818 113.486, 75.131 113, 77.591 113 C 87.081 113, 92 108.447, 92 99.665 C 92 96.059, 92.459 94.929, 94.455 93.621 C 97.765 91.453, 100.867 88.079, 102.611 84.750 C 103.879 82.328, 103.862 81.634, 102.466 78.934 C 101.594 77.247, 101.019 74.661, 101.190 73.187 C 101.462 70.832, 102.205 70.323, 107.304 69.003 C 111.922 67.807, 113.518 66.848, 115.114 64.310 C 117.044 61.242, 120.853 59.426, 129.254 57.569 C 130.891 57.207, 132.919 55.552, 134.254 53.490 C 136.621 49.833, 139.336 48.590, 147.322 47.509 C 152.406 46.820, 154.414 45.325, 157.209 40.148 C 158.148 38.406, 159.967 36.583, 161.250 36.095 C 165.981 34.296, 167.840 28.945, 165.597 23.577 C 164.485 20.915, 163.294 19.898, 160.330 19.075 C 156.313 17.959, 155.557 17.949, 147.531 18.907 M 338.979 25.525 C 337.485 27.325, 338.208 39.651, 340.005 43.009 C 341.658 46.098, 346.090 45.329, 347.845 41.650 C 349.670 37.826, 348.531 28.531, 345.918 25.918 C 343.610 23.610, 340.705 23.445, 338.979 25.525 M 598.500 82.671 C 597.400 82.960, 595.150 83.808, 593.500 84.555 C 591.850 85.302, 587.959 86.848, 584.853 87.990 C 579.568 89.934, 579.067 90.407, 577.056 95.361 C 575.874 98.273, 573.578 102.111, 571.954 103.889 C 569.496 106.580, 569 107.975, 569 112.190 C 569 117.696, 571.577 123.074, 578.731 132.500 C 584.424 140, 588.218 141.500, 601.500 141.500 C 607.550 141.500, 613.634 141.180, 615.021 140.788 C 617.941 139.964, 623.486 134.838, 626.150 130.500 C 627.985 127.512, 628.688 118.956, 627.379 115.545 C 625.918 111.737, 615.604 109.536, 610.934 112.035 C 608.061 113.573, 608.576 116.427, 612.495 120.694 C 614.418 122.787, 615.993 125.056, 615.995 125.736 C 615.998 126.416, 614.143 128.200, 611.874 129.702 C 607.269 132.749, 601.012 133.210, 593.214 131.076 C 589.408 130.035, 588.645 129.304, 586.388 124.538 C 584.990 121.586, 582.982 118.388, 581.924 117.431 C 579.364 115.114, 579.465 114.210, 583.142 106.512 C 585.911 100.715, 590.171 96, 592.640 96 C 593.097 96, 595.872 94.785, 598.807 93.300 C 603.130 91.113, 604.462 90.826, 605.822 91.788 C 612.227 96.318, 617.048 96.923, 618.412 93.368 C 620.389 88.216, 606.263 80.627, 598.500 82.671 M 262.603 88.250 L 259.407 91.500 259.563 113.020 C 259.649 124.856, 260.022 135.495, 260.393 136.662 C 261.515 140.198, 265.818 141.206, 278.213 140.838 L 289.586 140.500 296.296 134.500 C 300.204 131.005, 303.445 127.170, 304.059 125.315 C 304.638 123.564, 305.199 117.714, 305.306 112.315 C 305.480 103.499, 305.246 102.046, 303 98.041 C 301.400 95.188, 298.727 92.487, 295.578 90.541 C 291.343 87.924, 289.667 87.493, 283.578 87.449 C 279.685 87.422, 275.517 86.859, 274.316 86.199 C 270.295 83.991, 266.064 84.732, 262.603 88.250 M 350.170 87.146 C 343.120 90.634, 342.976 91.155, 342.717 114.115 L 342.488 134.500 345.159 137.500 C 347.826 140.494, 347.856 140.501, 360.514 140.834 C 375.024 141.215, 377.611 140.801, 378.516 137.950 C 379.670 134.313, 377.362 133, 369.812 133 C 365.993 133, 361.886 132.479, 360.684 131.843 C 357.691 130.258, 355 127.035, 355 125.036 C 355 122.559, 358.759 118.994, 363.655 116.828 C 366.045 115.771, 368 114.489, 368 113.979 C 368 113.469, 366.538 112.311, 364.750 111.405 C 362.962 110.500, 360.712 109.068, 359.750 108.224 C 357.616 106.353, 357.486 100.523, 359.500 97 C 362.282 92.134, 360.900 86.909, 356.487 85.609 C 355.345 85.272, 352.614 85.937, 350.170 87.146 M 404.400 88.400 L 401 91.800 401 113.445 L 401 135.091 403.523 137.614 C 404.911 139.002, 406.812 139.990, 407.748 139.810 C 410.155 139.347, 411.968 135.234, 411.985 130.200 C 412.015 121.581, 416.149 118, 426.071 118 C 430.592 118, 431.196 117.657, 437.550 111.488 C 444.184 105.047, 444.252 104.927, 443.753 100.502 C 443.028 94.068, 440.904 91.482, 434.321 89.019 C 429.871 87.354, 428.064 87.105, 426.290 87.914 C 422.937 89.442, 423.446 92.518, 428 98.237 C 430.200 101.001, 432 103.630, 432 104.080 C 432 106.002, 424.723 110.277, 420.675 110.733 C 416.777 111.172, 416.104 110.913, 413.681 108.033 C 410.408 104.143, 410.403 103.825, 413.510 97.151 C 416.406 90.930, 416.596 88.739, 414.429 86.571 C 411.857 84, 408.118 84.682, 404.400 88.400 M 468.916 87.278 C 464.570 90.206, 460.443 98.404, 458.483 108 C 457.448 113.073, 455.986 116.794, 453.968 119.500 C 447.900 127.634, 445.483 136.340, 448.464 139.321 C 451.520 142.377, 453.002 141.618, 459.306 133.767 C 460.811 131.892, 463.305 130.575, 467.251 129.572 C 475.395 127.500, 481.851 129.440, 487.737 135.725 C 496.629 145.220, 503.401 138.025, 495.950 127 C 491.986 121.133, 490.306 117.131, 488.449 109.124 C 486.643 101.335, 481.222 91.206, 476.925 87.590 C 473.184 84.442, 473.127 84.440, 468.916 87.278 M 721.415 86.430 C 719.719 87.164, 717.356 89.003, 716.165 90.517 C 714.102 93.139, 714 94.255, 714 114.079 C 714 134.628, 714.030 134.924, 716.411 137.694 C 718.791 140.463, 718.992 140.504, 731.831 140.828 C 745.431 141.171, 749 140.409, 749 137.165 C 749 133.927, 746.820 133, 739.200 133 C 732.115 133, 731.655 132.855, 728.395 129.595 C 725.992 127.192, 725.182 125.647, 725.642 124.345 C 726.748 121.213, 731.166 117.100, 734.665 115.946 C 738.804 114.580, 738.871 113.603, 734.939 111.975 C 733.256 111.277, 730.708 109.173, 729.278 107.298 L 726.678 103.889 728.839 98.675 C 730.028 95.808, 731 92.288, 731 90.853 C 731 86.390, 726.406 84.270, 721.415 86.430 M 515.610 88.299 L 513.070 90.839 513.080 114.408 C 513.089 136.768, 513.190 138.031, 515.045 139.024 C 519.393 141.351, 523 136.581, 523 128.506 C 523 123.827, 524.873 121, 527.972 121 C 530.014 121, 539.097 125.006, 541.412 126.927 C 542.234 127.609, 543.620 130.623, 544.493 133.623 C 546.430 140.285, 549.405 142.275, 553.459 139.619 C 556.628 137.542, 556.634 136.184, 553.500 130 C 550.371 123.825, 550.234 117.010, 553.093 109.787 C 555.966 102.528, 555.463 92.603, 552.083 89.866 C 549.816 88.030, 544.687 87.415, 541.582 88.607 C 539.373 89.455, 539.609 91.713, 542.504 97.419 C 545.523 103.370, 545.617 105.383, 543 108 C 541.491 109.509, 539.667 110, 535.565 110 C 528.669 110, 525.279 108.706, 523.827 105.520 C 522.249 102.056, 523.898 98.745, 528.937 95.259 C 533.042 92.418, 534.323 88.722, 531.568 87.664 C 530.780 87.362, 527.439 86.810, 524.143 86.437 C 518.604 85.810, 517.958 85.951, 515.610 88.299 M 645.552 88.281 C 643.116 91.998, 642.232 134.179, 644.516 137.665 C 645.358 138.949, 646.881 140, 647.901 140 C 651.590 140, 652.500 137.241, 652.500 126.054 C 652.500 113.586, 653.951 110, 658.997 110 C 661.266 110, 662.308 110.695, 663.503 113.005 C 664.358 114.658, 666.775 117.095, 668.875 118.421 C 671.887 120.323, 673.181 122.136, 675.004 127.012 C 677.928 134.831, 682.307 139.592, 687.462 140.559 C 690.746 141.175, 691.618 140.955, 693.087 139.140 C 694.622 137.245, 694.832 134.317, 694.877 114.246 C 694.904 101.736, 694.688 90.712, 694.396 89.749 C 694.104 88.786, 693.005 87.538, 691.955 86.976 C 690.468 86.180, 689.598 86.402, 688.023 87.977 C 686.308 89.692, 686 91.301, 686 98.532 C 686 115.030, 680.073 120.783, 673.447 110.718 C 671.919 108.398, 669.115 104.700, 667.214 102.500 C 665.314 100.300, 663.013 96.475, 662.101 94 C 660.292 89.090, 657.493 87.144, 650.983 86.271 C 647.752 85.838, 646.961 86.130, 645.552 88.281 M 319.667 88.667 C 319.300 89.033, 319 90.608, 319 92.167 C 319 94.280, 319.481 95, 320.893 95 C 323.084 95, 324.308 92.545, 323.455 89.859 C 322.868 88.007, 320.935 87.399, 319.667 88.667 M 273.006 97.150 C 270.053 101.227, 270 101.518, 270 113.573 C 270 125.318, 270.111 125.979, 272.589 128.923 C 275.774 132.708, 280.341 132.953, 286.916 129.691 C 290.751 127.788, 291.584 126.776, 293.243 122 C 296.517 112.582, 294.295 98, 289.587 98 C 288.980 98, 286.371 96.875, 283.788 95.500 C 281.205 94.125, 278.399 93, 277.552 93 C 276.705 93, 274.660 94.868, 273.006 97.150 M 140.242 97.494 C 136.607 99.074, 134.742 102.754, 135.201 107.444 C 135.574 111.260, 138.210 111.830, 142.696 109.065 C 146.332 106.824, 147.931 101.609, 146.056 98.105 C 144.742 95.649, 144.537 95.627, 140.242 97.494 M 469.073 107.635 C 464.971 112.850, 467.576 121, 473.345 121 C 478.763 121, 481.190 111.728, 476.961 107.189 C 474.248 104.277, 471.596 104.427, 469.073 107.635 M 132.764 141.928 C 127.513 142.661, 123.964 144.909, 119.923 150.065 C 115.989 155.083, 115.513 158.324, 118.246 161.492 C 121.093 164.792, 126.103 165.952, 137.500 165.952 C 153.901 165.952, 158.880 163.300, 159.765 154.094 C 160.344 148.072, 159.523 146.805, 152.846 143.422 C 147.881 140.906, 142.799 140.528, 132.764 141.928 M 154.812 171.522 C 154.525 171.808, 144.437 172.050, 132.395 172.058 C 101.836 172.079, 99.703 172.887, 99.572 184.497 C 99.511 189.929, 99.859 191.303, 101.777 193.222 C 103.985 195.430, 104.827 195.522, 129.277 196.208 C 144.735 196.642, 155.908 196.542, 158.138 195.950 C 160.499 195.322, 162.766 193.671, 164.599 191.242 C 166.152 189.184, 168.678 186.228, 170.211 184.673 C 173.373 181.468, 173.678 179.413, 171.463 176.250 C 169.322 173.195, 156.718 169.615, 154.812 171.522 M 371.950 178.560 C 371.027 179.673, 370.926 180.887, 371.599 182.800 C 372.848 186.351, 375.482 186.721, 377.508 183.628 C 380.492 179.074, 375.388 174.418, 371.950 178.560 M 581.025 188.433 C 579.724 191.856, 579.730 194.161, 581.050 197.633 L 582.101 200.395 584.044 197.448 C 586.536 193.666, 586.529 189.789, 584.025 187.523 C 582.112 185.791, 582.019 185.819, 581.025 188.433 M 994.250 188.662 C 992.659 189.304, 992.627 193.227, 994.200 194.800 C 994.860 195.460, 996.435 196, 997.700 196 C 999.717 196, 1000 195.507, 1000 192 C 1000 188.495, 999.721 188.010, 997.750 188.079 C 996.513 188.122, 994.938 188.385, 994.250 188.662 M 971.626 190.533 C 970.602 193.201, 970.909 196.494, 972.368 198.489 C 973.689 200.295, 973.778 200.283, 974.928 198.134 C 976.567 195.072, 975.921 189.596, 973.876 189.209 C 972.983 189.040, 971.970 189.636, 971.626 190.533 M 330.490 192.030 C 329.661 194.643, 330.738 201, 332.010 201 C 333.607 201, 335.132 197.031, 334.810 193.712 C 334.440 189.894, 331.528 188.760, 330.490 192.030 M 416.934 195.674 C 415.849 198.528, 416.523 203.587, 418.121 204.575 C 420.900 206.292, 423.196 199.280, 421.393 194.582 C 420.451 192.128, 418.059 192.714, 416.934 195.674 M 667.667 200.667 C 666.691 201.642, 666.882 212.265, 667.904 213.878 C 668.384 214.636, 669.231 214.975, 669.788 214.631 C 671.269 213.716, 673.280 204.457, 672.518 202.058 C 671.892 200.084, 669.061 199.272, 667.667 200.667" stroke="none" fill="#ffffff" fill-rule="evenodd"/>
</svg>