<svg xmlns="http://www.w3.org/2000/svg" width="1000" height="317" viewBox="0 0 1000 317" version="1.1">
	<path d="M 78 5.032 C 78 10.580, 76.357 15.301, 72.702 20.250 C 69.566 24.496, 67.614 29.677, 64.131 42.998 C 62.183 50.447, 59.973 56.089, 57.191 60.714 C 52.219 68.981, 51.761 70.177, 47.954 84.840 C 45.873 92.854, 43.705 98.533, 41.018 103 C 36.326 110.802, 35.454 113.022, 33.421 122.334 C 30.948 133.664, 28.970 139.116, 25.326 144.653 C 21.635 150.261, 19.274 156.823, 16.182 170.068 C 12.686 185.042, 9.271 190, 2.453 190 C 0.133 190, 0 190.311, 0.007 195.750 L 0.014 201.500 5.652 201.778 C 8.753 201.931, 13.272 202.501, 15.694 203.043 C 23.200 204.726, 41.648 204.461, 44.441 202.631 C 48.046 200.269, 57.542 187.175, 60.924 179.904 C 64.224 172.810, 67.021 169.218, 71.454 166.387 C 74.143 164.669, 77.040 164.470, 103.803 164.170 C 124.614 163.936, 134.022 164.181, 136.016 165.007 C 140.681 166.939, 151.388 180.863, 157.422 192.845 C 162.898 203.719, 163.494 204, 181.088 204 C 189.971 204, 196.899 203.548, 198.385 202.870 C 204.493 200.087, 203.982 190.156, 197.087 177.646 C 194.547 173.038, 192.106 166.370, 190.214 158.871 C 188.600 152.475, 186.430 145.650, 185.390 143.704 C 184.351 141.759, 182.106 137.542, 180.402 134.333 C 178.693 131.116, 175.866 122.694, 174.096 115.550 C 171.772 106.173, 169.655 100.341, 166.424 94.412 C 163.434 88.928, 160.987 82.425, 159.013 74.715 C 155.516 61.058, 153.584 55.882, 149.975 50.500 C 146.902 45.917, 144.904 40.189, 142.029 27.721 C 140.916 22.893, 138.869 16.701, 137.480 13.961 C 136.092 11.221, 134.868 6.959, 134.760 4.490 L 134.565 0 106.283 0 L 78 0 78 5.032 M 259.250 52.096 C 246.162 53.039, 241.352 54.790, 234.498 61.109 C 226.390 68.582, 226.999 60.565, 227.006 159.700 C 227.009 220.639, 227.353 249.730, 228.100 252.421 C 228.699 254.578, 230.462 257.615, 232.017 259.171 C 234.485 261.639, 235.601 262, 240.767 262 C 250.868 262, 263.778 256.714, 267.200 251.176 C 269.290 247.795, 269.415 246.597, 269.165 232.373 C 268.731 207.699, 269.402 206.979, 293.858 205.879 C 313.680 204.988, 320.793 203.174, 327.870 197.206 C 330.442 195.038, 334.786 192.124, 337.523 190.731 C 343.551 187.663, 345.965 185.127, 349.410 178.244 C 350.856 175.353, 353.803 170.658, 355.959 167.810 C 362.283 159.454, 363.500 153.192, 363.500 129 C 363.500 104.970, 363.034 102.946, 354.518 90 C 343.978 73.976, 336.268 66.733, 325.594 62.824 C 322.792 61.798, 316.900 59.178, 312.500 57.003 C 300.584 51.111, 288.447 49.993, 259.250 52.096 M 426.643 52.134 C 417.123 53.356, 402.063 60.081, 397.479 65.155 C 393.030 70.079, 392.867 74.135, 396.892 79.693 C 400.189 84.243, 404.610 88, 406.668 88 C 407.437 88, 410.314 86.861, 413.062 85.469 C 419.828 82.040, 426.345 80.941, 440.168 80.899 C 448.822 80.873, 452.612 81.265, 454.842 82.419 C 458.772 84.451, 471.175 100.802, 470.790 103.444 C 470.013 108.775, 458.972 111.914, 441 111.914 C 423.090 111.914, 409.175 115.799, 403 122.525 C 401.625 124.022, 397.498 127.657, 393.830 130.603 C 388.340 135.010, 386.797 136.926, 385.113 141.428 C 382.367 148.767, 381.570 157.909, 382.882 167 C 384.501 178.212, 385.872 182.089, 389.409 185.453 C 408.409 203.530, 408.033 203.302, 421.907 205.149 C 435.853 207.006, 451.691 205.122, 461.399 200.452 C 469.275 196.663, 469.594 196.670, 477.500 200.815 C 484.166 204.310, 500.562 205.251, 506.414 202.474 C 513.573 199.077, 513.530 199.383, 513.200 154.500 C 512.645 79.002, 511.330 75.301, 478.971 58.203 C 471.416 54.211, 467.826 52.943, 461.648 52.084 C 452.664 50.834, 436.581 50.857, 426.643 52.134 M 546.067 54.933 C 544.525 56.475, 544 58.279, 544 62.032 C 544 68.717, 545.958 73.064, 551.036 77.652 C 553.345 79.737, 556.531 83.744, 558.118 86.556 C 559.705 89.368, 562.696 93.028, 564.765 94.691 C 566.834 96.353, 569.817 100.140, 571.395 103.107 C 572.973 106.073, 576.437 110.750, 579.093 113.500 C 584.683 119.288, 587 124.956, 587 132.841 C 587 138.369, 586.935 138.491, 581.105 143.965 C 577.862 147.009, 574.077 151.750, 572.694 154.500 C 571.310 157.250, 568.524 161.075, 566.501 163 C 564.478 164.925, 560.063 170.325, 556.688 175 C 553.314 179.675, 549.118 185.395, 547.364 187.711 C 542.252 194.464, 541.786 200.745, 546.222 203.119 C 549.355 204.796, 578.488 204.316, 581.940 202.531 C 583.420 201.766, 585.828 199.413, 587.290 197.303 C 588.752 195.193, 591.981 191.768, 594.465 189.691 C 597.081 187.505, 600.027 183.725, 601.468 180.708 C 602.835 177.844, 606.242 173.025, 609.037 170 C 611.833 166.975, 615.987 161.141, 618.268 157.035 C 620.607 152.826, 624.943 147.122, 628.208 143.956 C 634.110 138.234, 634.426 137.458, 634.083 129.500 C 633.761 122.039, 631.861 118.125, 626.229 113.312 C 622.850 110.426, 619.936 106.850, 618.717 104.093 C 617.621 101.616, 614.604 97.319, 612.012 94.545 C 609.419 91.770, 605.359 86.125, 602.988 82 C 598.592 74.350, 583.732 57.959, 579 55.540 C 577.565 54.807, 570.456 53.965, 562.317 53.564 C 548.822 52.900, 548.033 52.967, 546.067 54.933 M 659 53.950 C 656.737 54.633, 647.119 60.363, 641.147 64.585 C 637.319 67.292, 635.678 72.551, 636.415 79.751 C 637.359 88.964, 638.263 90.573, 647.612 99.694 C 658.835 110.643, 661.104 110.694, 666.456 100.123 C 668.301 96.481, 672.767 90.125, 676.382 86 C 681.151 80.558, 683.921 76.208, 686.477 70.150 C 690.660 60.237, 690.992 56.316, 687.750 55.120 C 684.592 53.955, 662.025 53.036, 659 53.950 M 99.088 62.906 C 97.171 64.957, 95.425 69.150, 93.154 77.156 C 91.383 83.395, 88.569 90.716, 86.900 93.424 C 82.932 99.864, 79 112.049, 79 117.905 C 79 123.173, 80.784 126.320, 85.011 128.506 C 89.039 130.589, 118.521 130.645, 123.466 128.579 C 127.223 127.009, 130.004 122.630, 129.993 118.300 C 129.982 113.508, 123.991 93.727, 121.119 89 C 118.520 84.722, 115.737 78.214, 112.821 69.593 C 111.154 64.664, 106.865 60, 104 60 C 102.791 60, 100.581 61.308, 99.088 62.906 M 278.388 84.980 C 275.241 86.252, 272.182 90.647, 270.498 96.319 C 268.557 102.856, 268.397 162.431, 270.306 167.951 C 272.269 173.624, 276.699 175.506, 288 175.467 C 299.268 175.428, 302.119 174.236, 310.558 166.033 C 317.325 159.456, 318.555 157.214, 320.567 147.789 C 322.847 137.111, 322.615 122.368, 319.993 111.198 C 317.520 100.667, 315.216 97.221, 308.120 93.441 C 305.579 92.087, 301.313 89.409, 298.641 87.490 C 294.221 84.316, 293.181 84.006, 287.141 84.063 C 283.488 84.098, 279.550 84.511, 278.388 84.980 M 441.475 137.882 C 432.747 140.538, 429.476 142.493, 426.968 146.552 C 422.698 153.462, 425.714 168.602, 432.323 173.435 C 434.794 175.242, 436.603 175.500, 446.823 175.500 C 457.433 175.500, 459.029 175.252, 464.290 172.787 C 469.296 170.441, 470.368 169.427, 472.210 165.287 C 474.893 159.256, 475.138 149.836, 472.727 145.330 C 471.581 143.188, 469.162 141.263, 465.266 139.394 C 457.915 135.867, 449.794 135.351, 441.475 137.882 M 649.485 159.671 C 642.703 164.624, 641.357 166.141, 638.860 171.649 C 635.262 179.583, 635.158 184.887, 638.486 190.567 C 641.199 195.195, 648.528 201.037, 653.899 202.852 C 658.132 204.282, 679.197 204.351, 684.238 202.951 C 690.568 201.193, 690.589 199.640, 684.450 187.255 C 680.626 179.540, 677.941 175.430, 675.517 173.581 C 673.611 172.127, 670.232 167.821, 668.007 164.013 C 664.139 157.389, 660.888 154, 658.403 154 C 657.769 154, 653.756 156.552, 649.485 159.671 M 722.035 273.934 C 720.214 277.336, 720.827 281.918, 723.455 284.545 C 726.265 287.356, 728.220 287.644, 729.991 285.511 C 731.738 283.406, 730.468 277.797, 727.525 274.622 C 724.628 271.496, 723.421 271.345, 722.035 273.934 M 485.865 284.397 C 485.250 285.747, 485.040 288.025, 485.400 289.457 C 486.192 292.611, 491.561 296.143, 495 295.771 C 500.160 295.212, 496.667 286.978, 489.742 283.375 C 487.140 282.021, 486.921 282.079, 485.865 284.397 M 566.571 288.571 C 563.291 291.852, 565.242 297, 569.766 297 C 575.713 297, 577.848 292.799, 573.811 289.039 C 571.191 286.597, 568.706 286.437, 566.571 288.571 M 893.450 291.883 C 892.124 293.209, 893.302 295, 895.500 295 C 897.307 295, 898 294.463, 898 293.062 C 898 291.725, 897.365 291.172, 895.950 291.279 C 894.823 291.364, 893.698 291.636, 893.450 291.883 M 993 294.500 C 991.235 296.627, 993.408 299, 997.122 299 C 999.653 299, 1000 298.638, 1000 296 C 1000 293.362, 999.653 293, 997.122 293 C 995.540 293, 993.685 293.675, 993 294.500" stroke="none" fill="#ffffff" fill-rule="evenodd"/>
</svg>