<svg xmlns="http://www.w3.org/2000/svg" width="1000" height="650" viewBox="0 0 1000 650" version="1.1">
	<path d="M 110.294 197.968 C 94.475 204.007, 93.362 204.684, 89.918 210.353 C 88.199 213.184, 85.512 216.850, 83.947 218.500 C 77.303 225.505, 77.528 223.059, 77.234 291.500 C 77.087 325.600, 77.322 368.575, 77.757 387 C 78.474 417.433, 78.727 420.862, 80.523 424.455 C 81.754 426.917, 83.632 428.861, 85.500 429.606 L 88.500 430.802 88.500 420.651 C 88.500 407.335, 91.133 395.713, 95.033 391.813 C 97.546 389.300, 98.547 389, 104.409 389 C 114.948 389, 119.561 390.698, 124.256 396.305 C 128.169 400.979, 128.364 401.080, 130.117 399.320 C 134.909 394.509, 139.577 346.540, 136.194 336.871 C 134.360 331.629, 132.213 330.164, 124.830 329.118 C 112.261 327.338, 109.487 324.079, 110.176 311.897 C 110.532 305.593, 110.902 304.481, 113.345 302.379 C 116.406 299.747, 120.184 299.376, 126.043 301.131 C 128.120 301.753, 130.976 301.972, 132.391 301.617 C 136.951 300.472, 137.821 297, 137.691 280.484 C 137.583 266.909, 137.785 265.031, 139.835 260.512 C 141.079 257.769, 142.925 254.619, 143.936 253.512 C 144.947 252.406, 146.776 249.475, 148 247 C 150.493 241.959, 153.779 238, 155.470 238 C 156.087 238, 159.946 235.974, 164.046 233.498 C 174.517 227.173, 179.270 225.950, 193.572 225.901 C 207.558 225.852, 212.336 227.106, 226.138 234.449 C 236.133 239.767, 238.513 243.042, 235.604 247.481 C 233.623 250.506, 227.557 253.735, 222.342 254.541 C 220.165 254.878, 215.683 254.462, 212 253.582 C 203.530 251.559, 192.788 251.648, 186.500 253.794 C 181.944 255.349, 181.236 256.028, 178.527 261.452 C 175.985 266.542, 175.503 268.787, 175.196 276.952 C 174.665 291.140, 176.277 304.722, 178.793 307.237 C 180.770 309.215, 181.269 309.235, 199.745 308.093 C 212.984 307.275, 221.952 306.161, 229.586 304.385 C 235.589 302.989, 245.225 301.008, 251 299.984 C 266.962 297.152, 271.142 296.076, 274.692 293.882 C 276.688 292.647, 279.214 291.991, 281.224 292.185 C 283.913 292.443, 284.859 293.217, 286.500 296.500 C 288.413 300.325, 288.513 302.825, 288.799 353.713 C 288.995 388.737, 288.738 408.260, 288.045 410.832 C 285.914 418.747, 278.914 424, 270.497 424 C 266.413 424, 265.358 423.483, 260.807 419.250 C 252.282 411.322, 252.193 410.903, 251.896 377 C 251.754 360.775, 251.991 344.082, 252.422 339.904 C 253.195 332.411, 253.169 332.278, 250.468 330.154 C 248.774 328.821, 246.305 328, 243.992 328 C 239.474 328, 227.461 330.970, 220.214 333.878 C 213.951 336.391, 197.751 338.407, 190 337.638 C 183.417 336.984, 178.390 338.536, 175.867 342 C 174.129 344.387, 174.107 345.919, 175.391 375.768 C 176.789 408.284, 176.534 413.073, 173.042 419.917 C 171.157 423.613, 163.552 430, 161.037 430 C 158.440 430, 138.388 441.194, 136.250 443.837 C 133.886 446.759, 134.736 449.993, 138.250 451.449 C 144.262 453.939, 172.128 454.963, 237 455.078 L 301.500 455.192 311.476 451.977 C 321.125 448.867, 321.701 448.511, 329.075 441.107 C 341.227 428.906, 340.500 436.261, 340.500 325.500 C 340.500 238.537, 340.396 233.063, 338.598 225.516 C 336.878 218.298, 336.158 216.959, 331.098 211.557 C 322.799 202.700, 322.419 202.456, 310.500 198.319 L 299.500 194.500 210 194.286 L 120.500 194.071 110.294 197.968 M 260.506 246.549 C 257.210 248.373, 253.453 251.097, 252.158 252.602 C 250.036 255.070, 249.839 256.111, 250.159 263.154 C 250.466 269.935, 250.843 271.280, 253.007 273.326 C 256.196 276.342, 265.288 280, 269.596 280 C 274.304 280, 284.103 276.250, 286.644 273.476 C 289.483 270.377, 290.552 261.136, 288.782 255 C 287.560 250.760, 287.051 250.287, 279.992 246.814 C 275.872 244.786, 271.150 243.151, 269.500 243.180 C 267.850 243.209, 263.803 244.725, 260.506 246.549 M 405.444 270.285 C 404.504 272.735, 406.048 274.665, 407.242 272.532 C 407.881 271.390, 407.845 270.445, 407.136 269.736 C 406.375 268.975, 405.886 269.134, 405.444 270.285 M 397.984 303.321 C 394.381 305.117, 394.342 307.608, 397.888 309.442 C 402.354 311.751, 407.671 311.483, 409.065 308.878 C 411.396 304.523, 403.507 300.567, 397.984 303.321 M 829.354 306.519 C 828.506 308.730, 829.765 312.696, 831.529 313.373 C 833.434 314.104, 834.427 311.837, 833.616 308.608 C 832.899 305.750, 830.164 304.409, 829.354 306.519 M 666 308.801 C 666 311.293, 668.240 315.863, 669.750 316.451 C 671.565 317.157, 671.343 311.935, 669.443 309.223 C 667.562 306.537, 666 306.346, 666 308.801 M 467.500 309 C 467.160 309.550, 467.359 310, 467.941 310 C 468.523 310, 469 309.550, 469 309 C 469 308.450, 468.802 308, 468.559 308 C 468.316 308, 467.840 308.450, 467.500 309 M 566 310.294 C 566 311.648, 566.710 313.344, 567.577 314.064 C 568.968 315.218, 569.116 314.975, 568.827 312.014 C 568.442 308.060, 566 306.575, 566 310.294 M 605.667 319.667 C 605.300 320.033, 605 324.708, 605 330.056 C 605 338.177, 605.318 340.167, 606.929 342.139 C 609.775 345.622, 611.520 343.537, 610.086 338.370 C 609.495 336.241, 609.002 332.025, 608.992 329 C 608.963 320.847, 607.787 317.546, 605.667 319.667 M 568 342 C 568 344.200, 568.450 346, 569 346 C 569.550 346, 570 344.200, 570 342 C 570 339.800, 569.550 338, 569 338 C 568.450 338, 568 339.800, 568 342 M 668.609 340.576 C 667.764 342.779, 668.692 343.708, 670.217 342.183 C 671.055 341.345, 671.089 340.689, 670.333 339.933 C 669.576 339.176, 669.074 339.364, 668.609 340.576 M 867.645 343.498 C 865.583 345.560, 865.554 347.918, 867.557 350.777 C 869.900 354.123, 871.002 353.472, 870.985 348.750 C 870.964 343.063, 869.843 341.300, 867.645 343.498 M 92 437.453 C 92 443.990, 95.767 446.727, 105.463 447.238 C 109.494 447.451, 110.492 447.175, 110.782 445.768 C 111.046 444.490, 109.668 443.386, 105.519 441.551 C 102.427 440.184, 98.735 438.150, 97.314 437.032 C 93.848 434.306, 92 434.453, 92 437.453" stroke="none" fill="#ffffff" fill-rule="evenodd"/>
</svg>