<svg xmlns="http://www.w3.org/2000/svg" width="1000" height="352" viewBox="0 0 1000 352" version="1.1">
	<path d="M 635 0.941 C 635 1.459, 635.441 2.154, 635.980 2.487 C 637.436 3.388, 634.859 7, 632.759 7 C 631.792 7, 631 7.450, 631 8 C 631 8.550, 629.411 9, 627.469 9 C 625.252 9, 623.723 9.559, 623.362 10.500 C 622.618 12.438, 620.274 12.417, 618.313 10.455 C 616.381 8.524, 614.927 8.965, 613.878 11.801 C 613.214 13.597, 613.425 14, 615.032 14 C 616.115 14, 617 14.360, 617 14.800 C 617 16.644, 614.557 17.804, 611.632 17.346 C 608.825 16.907, 608.087 17.383, 604.520 21.928 C 600.544 26.994, 598.562 28.108, 597.720 25.750 C 597.475 25.063, 596.934 24.816, 596.518 25.202 C 596.102 25.589, 596.378 26.586, 597.131 27.418 C 601.998 32.796, 601.964 33.142, 596.570 33.295 C 593.540 33.381, 593 33.745, 593 35.698 C 593 38.377, 590.331 38.835, 588.591 36.455 C 587.610 35.113, 587.076 35.311, 584.543 37.955 C 582.939 39.630, 582.160 41, 582.813 41 C 583.466 41, 584 41.394, 584 41.875 C 584 42.356, 582.876 42.750, 581.503 42.750 C 578.477 42.750, 575.878 44.725, 576.237 46.752 C 576.417 47.771, 575.424 48.360, 573.072 48.630 C 568.903 49.107, 568.833 49.172, 568.548 52.791 C 568.296 55.996, 560.135 64.836, 559.050 63.080 C 558.027 61.425, 554.323 62.996, 553.143 65.585 C 552.538 66.913, 551.564 68, 550.979 68 C 550.394 68, 549.372 68.458, 548.708 69.019 C 548.044 69.579, 546.449 70.903, 545.164 71.960 C 543.504 73.327, 543.017 74.479, 543.482 75.942 C 544.014 77.620, 543.702 78, 541.787 78 C 540.134 78, 535.643 81.696, 526.599 90.500 C 519.537 97.375, 513.247 103, 512.620 103 C 511.994 103, 510.910 103.914, 510.212 105.032 C 509.514 106.150, 507.675 107.837, 506.125 108.782 C 504.576 109.727, 497.276 116.294, 489.904 123.376 C 482.532 130.458, 475.418 136.750, 474.096 137.357 C 471.613 138.498, 466.021 143.639, 465.972 144.827 C 465.957 145.197, 464.052 146.454, 461.739 147.619 C 458.620 149.191, 457.377 150.501, 456.930 152.689 C 456.598 154.312, 455.578 157.140, 454.663 158.973 C 453.748 160.807, 452.990 163.026, 452.978 163.904 C 452.966 164.782, 452.014 167.525, 450.862 170 C 449.711 172.475, 448.596 175.850, 448.384 177.500 C 447.775 182.258, 447.393 182.731, 442.309 185.015 C 437.535 187.160, 437.516 187.187, 439.750 188.710 C 441.893 190.171, 442 190.875, 442 203.487 C 442 215.234, 441.773 217.019, 439.992 219.283 C 438.155 221.618, 438.072 222.454, 439.010 229.069 C 439.902 235.362, 439.818 236.543, 438.363 238.152 C 437.443 239.168, 436.282 240, 435.783 240 C 431.558 240, 410.787 253.764, 411.099 256.357 C 411.582 260.358, 410.905 262.901, 409.500 262.362 C 408.262 261.886, 408.007 259.318, 408.041 247.643 L 408.081 233.500 411.041 230.038 C 414.022 226.550, 414.849 224, 413 224 C 412.450 224, 412 224.948, 412 226.107 C 412 227.530, 411.533 228.035, 410.560 227.661 C 407.767 226.589, 404.782 240.695, 404.562 256.003 C 404.446 264.112, 404.101 265.944, 402.212 268.503 C 400.147 271.298, 399.627 271.477, 394.497 271.157 C 391.472 270.969, 389.218 270.457, 389.488 270.019 C 389.758 269.582, 387.847 268.904, 385.240 268.513 C 377.511 267.354, 377 266.803, 377 259.614 C 377 256.140, 377.425 251.994, 377.945 250.399 C 378.464 248.805, 379.080 243.767, 379.312 239.205 C 379.655 232.483, 380.140 230.480, 381.868 228.641 C 384.735 225.588, 384.544 223.816, 381.135 221.878 C 378.828 220.565, 378.306 219.610, 378.403 216.878 C 378.551 212.710, 382.081 201, 383.189 201 C 383.635 201, 384 200.178, 384 199.174 C 384 196.322, 388.530 192.682, 391.960 192.780 C 399.675 192.999, 393.531 187.950, 385.333 187.335 L 380 186.935 379.996 190.217 C 379.994 192.023, 379.070 195.013, 377.942 196.863 C 376.815 198.712, 376.104 200.437, 376.363 200.696 C 376.621 200.955, 375.746 204.165, 374.417 207.829 C 373.087 211.493, 372 215.677, 372 217.127 C 372 219.411, 371.407 219.912, 367.559 220.881 C 362.715 222.101, 360.980 223.671, 363.437 224.614 C 364.738 225.113, 365 227.286, 365 237.557 C 365 247.880, 365.264 250.049, 366.615 250.804 C 368.043 251.604, 367.965 251.955, 365.939 253.843 C 364.678 255.017, 362.774 256.254, 361.706 256.593 C 359.972 257.144, 359.835 257.829, 360.423 263.021 C 361.459 272.180, 360.927 273.098, 352.073 277.402 C 347.778 279.491, 343.169 282.167, 341.829 283.350 C 340.490 284.532, 338.518 285.998, 337.447 286.607 C 336.376 287.216, 335.346 288.497, 335.158 289.453 C 334.701 291.779, 331.849 295.025, 330.822 294.390 C 330.370 294.110, 330 288.734, 330 282.441 C 330 276.139, 329.587 271, 329.079 271 C 328.160 271, 326.706 275.917, 327.127 277.606 C 327.249 278.098, 326.771 279.688, 326.064 281.140 C 324.934 283.463, 325.023 284.023, 326.806 285.806 C 329.819 288.819, 328.773 295.465, 324.610 299.758 L 321.451 303.016 317.183 301.340 C 314.607 300.328, 313.105 299.168, 313.394 298.414 C 313.658 297.728, 313.166 296.894, 312.301 296.562 C 311.001 296.063, 310.840 294.864, 311.374 289.650 L 312.021 283.342 308.592 282.290 C 306.179 281.549, 304.847 281.553, 304.098 282.302 C 302.643 283.757, 301.451 282.366, 302.781 280.764 C 303.367 280.058, 303.967 275.884, 304.114 271.490 C 304.486 260.392, 304.637 260, 308.533 260 C 310.348 260, 312.015 259.456, 312.237 258.790 C 312.544 257.867, 313.755 257.836, 317.343 258.657 C 324.462 260.286, 325.228 257.147, 318.236 254.997 C 316.181 254.365, 313.825 253.593, 313 253.280 C 312.175 252.968, 309.025 252.665, 306 252.606 C 301.301 252.515, 300.499 252.223, 300.495 250.599 C 300.492 249.554, 299.625 248.395, 298.568 248.024 C 296.879 247.431, 296.845 247.273, 298.291 246.719 C 299.196 246.371, 300.216 246.540, 300.558 247.093 C 301.436 248.515, 306 243.329, 306 240.909 C 306 239.815, 306.900 237.156, 308 235 C 309.100 232.844, 310 229.985, 310 228.647 C 310 225.977, 311.630 225, 316.082 225 C 319.866 225, 319.823 223.482, 316 222.150 C 313.236 221.186, 311.700 218, 314 218 C 314.550 218, 315 217.087, 315 215.970 C 315 213.965, 314.966 213.963, 312.250 215.827 C 310.738 216.864, 308.330 218.419, 306.899 219.282 C 304.981 220.439, 303.696 222.771, 301.999 228.175 C 300.734 232.204, 299.317 235.927, 298.850 236.450 C 298.382 236.972, 298 238.429, 298 239.686 C 298 240.943, 297.438 244.078, 296.750 246.652 C 295.623 250.872, 293.426 253.282, 288.917 255.246 C 288.111 255.597, 289.502 281.090, 290.445 283.242 C 290.986 284.477, 290.669 285.175, 289.354 285.644 C 284.900 287.230, 284.280 288.679, 284.772 296.343 L 285.241 303.650 276.989 308.325 C 272.451 310.896, 268.321 313, 267.810 313 C 267.300 313, 267.162 313.453, 267.505 314.008 C 267.847 314.562, 267.460 315.683, 266.644 316.499 C 265.528 317.615, 265.057 317.675, 264.743 316.741 C 264.420 315.780, 263.950 315.810, 262.663 316.872 C 260.806 318.405, 260.426 321, 262.059 321 C 264.680 321, 261.732 322.703, 258.975 322.782 C 256.018 322.866, 255.890 322.705, 256.115 319.185 C 256.484 313.408, 256.055 301.612, 255.496 302.171 C 254.927 302.740, 252.771 317.693, 252.925 320 C 253.248 324.821, 252.747 327.506, 251.143 329.546 L 249.336 331.843 246.632 329.671 C 243.046 326.791, 242.577 321.932, 245.750 320.524 C 249.083 319.045, 248.503 318.104, 243.794 317.351 C 237.147 316.288, 235 313.402, 235 305.532 C 235 301.924, 234.479 298.139, 233.842 297.119 C 232.130 294.377, 233.348 292.475, 236.995 292.197 C 238.770 292.062, 241.043 291.512, 242.046 290.976 C 243.048 290.439, 244.911 289.997, 246.184 289.994 C 248.395 289.988, 248.374 289.922, 245.724 288.540 C 242.568 286.893, 233.257 285, 228.316 285 C 223.803 285, 224.097 283.197, 228.673 282.810 C 232.326 282.502, 234.762 280, 231.409 280 C 229.824 280, 229.854 279.780, 231.717 277.750 C 234.023 275.239, 238 266.924, 238 264.614 C 238 263.791, 238.450 262.840, 239 262.500 C 239.550 262.160, 240 261.009, 240 259.941 C 240 258.340, 240.744 257.983, 244.250 257.900 C 247.655 257.820, 248.003 257.663, 246 257.111 C 243.993 256.557, 243.439 255.690, 243.190 252.711 C 242.835 248.476, 241.477 248.050, 237.727 251 C 236.329 252.100, 234.286 253, 233.187 253 C 231.435 253, 231.256 253.489, 231.727 257 C 232.044 259.364, 231.853 261, 231.260 261 C 230.709 261, 229.951 263.312, 229.576 266.137 C 229.201 268.963, 227.858 273.350, 226.590 275.887 C 225.323 278.424, 224.005 281.670, 223.662 283.100 C 223.221 284.935, 222.081 285.974, 219.789 286.631 L 216.542 287.563 216.564 301.393 C 216.583 313.808, 216.780 315.366, 218.484 316.612 C 219.528 317.375, 219.878 318, 219.263 318 C 216.314 318, 215 321.211, 215 328.414 L 215 335.685 211.250 337.593 C 205.561 340.486, 197.073 345.854, 194.721 348.046 C 193.567 349.121, 192.258 350, 191.811 350 C 191.365 350, 191 350.450, 191 351 C 191 352.884, 193.405 351.999, 196.538 348.963 C 199.385 346.204, 200.451 345.871, 208.199 345.324 L 216.725 344.722 217.408 348.361 L 218.091 352 241.045 352 L 264 352 264.158 343.250 C 264.244 338.438, 264.227 333.825, 264.118 333 C 263.126 325.439, 266.341 318.982, 272.608 315.948 C 275.738 314.433, 278.372 313.975, 282.674 314.198 L 288.500 314.500 289.124 329 C 289.468 336.975, 289.805 345.413, 289.874 347.750 L 290 352 298 352 L 306 352 306.180 343.750 C 306.279 339.212, 306.245 333.925, 306.104 332 C 305.577 324.761, 306.957 320.138, 310.744 316.460 C 314.441 312.870, 318.057 311.299, 319.943 312.465 C 320.524 312.824, 321 314.689, 321 316.609 C 321 318.529, 321.739 321.529, 322.643 323.276 C 325.197 328.216, 326.925 336.803, 326.964 344.750 L 327 352 331.841 352 L 336.682 352 337.359 327.111 C 337.792 311.158, 337.674 301.272, 337.029 299.576 C 335.647 295.942, 338.867 289.274, 343.537 286.098 C 347.870 283.150, 361.122 281.779, 362.586 284.127 C 363.708 285.926, 363.791 288.266, 363.965 322.750 L 364.112 352 371.056 352 L 378 352 378.177 334.750 C 378.274 325.262, 378.226 313.628, 378.069 308.895 C 377.803 300.864, 377.925 300.253, 379.892 299.738 C 381.371 299.352, 382.034 298.339, 382.115 296.344 C 382.329 291.069, 383.574 288, 385.499 288 C 386.205 288, 387.063 286.883, 387.406 285.518 C 388.200 282.354, 393.545 279.378, 395.508 281.006 C 396.258 281.629, 397.182 283.570, 397.561 285.319 C 397.941 287.069, 398.532 288.725, 398.876 289 C 399.219 289.275, 400.009 290.924, 400.631 292.665 C 401.619 295.430, 401.533 295.889, 399.951 296.303 C 398.216 296.756, 398.223 297.042, 400.127 303.138 C 401.863 308.697, 403.754 331.401, 403.967 349.250 C 403.999 351.879, 404.220 352, 409 352 L 414 352 414.005 304.750 L 414.009 257.500 417.056 254.249 C 420.934 250.112, 424.267 248.406, 430.783 247.221 C 440.993 245.365, 440.674 244.891, 441.286 262.843 C 441.579 271.454, 441.860 294.925, 441.910 315 L 442.001 351.500 571.001 351.754 L 700 352.008 700 347.453 C 700 343.135, 700.195 342.816, 703.750 341.327 C 709.104 339.084, 738.740 327.981, 743.500 326.435 C 753.940 323.043, 781.414 311.935, 783.071 310.436 C 784.224 309.392, 785.785 308.972, 787.165 309.333 C 788.392 309.654, 789.947 309.459, 790.620 308.900 C 791.294 308.341, 795.367 306.604, 799.672 305.040 C 803.978 303.476, 815.375 299.195, 825 295.527 C 834.625 291.860, 844.075 288.282, 846 287.577 C 847.925 286.872, 859.850 282.344, 872.500 277.515 C 885.150 272.686, 898.650 267.578, 902.500 266.165 C 906.350 264.752, 909.983 262.959, 910.573 262.180 C 911.163 261.401, 912.861 260.630, 914.346 260.467 C 916.620 260.218, 935.505 253.490, 948 248.477 C 949.925 247.705, 957.575 244.795, 965 242.011 C 972.425 239.226, 983.337 235.090, 989.250 232.819 L 1000 228.689 1000 224.238 C 1000 220.399, 999.759 219.882, 998.250 220.482 C 997.288 220.866, 990.200 223.563, 982.500 226.476 C 966.945 232.361, 955.534 236.752, 952.500 238.019 C 951.400 238.479, 946.675 240.280, 942 242.023 C 937.325 243.765, 925.625 248.261, 916 252.014 C 906.375 255.766, 894.006 260.496, 888.513 262.524 C 883.020 264.551, 872.220 268.671, 864.513 271.678 C 856.806 274.686, 847.125 278.433, 843 280.005 C 838.875 281.577, 828.300 285.632, 819.500 289.017 C 803.098 295.326, 790.772 300.041, 772.750 306.902 C 767.112 309.048, 758.450 312.376, 753.500 314.296 C 748.550 316.216, 740 319.435, 734.500 321.449 C 729 323.463, 723.600 325.524, 722.500 326.029 C 714.675 329.621, 682.648 340.900, 681.785 340.367 C 680.416 339.521, 681.465 319.135, 682.954 317.646 C 683.531 317.069, 688.615 314.751, 694.252 312.495 L 704.500 308.393 704.803 297.946 C 705.169 285.378, 705.960 281.832, 708.706 280.461 C 713.835 277.899, 714 277.418, 714 265 C 714 252.180, 713.980 252.132, 707.750 249.926 L 704 248.598 704 239.422 C 704 233.275, 704.413 229.918, 705.250 229.256 C 705.938 228.712, 711 226.304, 716.500 223.905 C 729.872 218.073, 726.276 217.697, 712.214 223.456 C 706.113 225.955, 700.418 228, 699.560 228 C 698.356 228, 698 226.866, 698 223.023 C 698 217.158, 698.180 217.005, 711.500 211.527 C 716.450 209.491, 722.975 206.788, 726 205.519 C 729.025 204.250, 736.675 201.071, 743 198.454 C 749.325 195.837, 755.043 193.275, 755.708 192.760 C 756.417 192.211, 756.683 190.663, 756.351 189.006 C 755.898 186.740, 756.291 185.855, 758.350 184.507 C 759.759 183.583, 761.382 183.118, 761.956 183.473 C 763.603 184.491, 763.174 187.799, 761.250 188.920 C 760.288 189.481, 759.779 189.953, 760.120 189.970 C 761.123 190.019, 772.617 186.238, 774.641 185.193 C 775.664 184.665, 777.625 183.776, 779 183.216 C 780.375 182.657, 783.532 181.302, 786.015 180.205 C 788.499 179.108, 794.799 176.563, 800.015 174.549 C 805.232 172.536, 815.125 168.480, 822 165.537 C 828.875 162.594, 837.650 158.971, 841.500 157.484 C 845.350 155.998, 850.876 153.706, 853.780 152.391 C 856.683 151.076, 859.260 150, 859.505 150 C 859.750 150, 862.897 148.650, 866.500 147 C 870.103 145.350, 873.358 144, 873.734 144 C 874.110 144, 878.036 142.471, 882.459 140.602 C 886.881 138.733, 896.800 134.641, 904.500 131.509 C 912.200 128.377, 920.408 124.956, 922.739 123.907 C 925.071 122.858, 927.195 122, 927.459 122 C 927.724 122, 930.400 120.875, 933.406 119.500 C 936.412 118.125, 939.113 117, 939.409 117 C 939.704 117, 942.320 115.923, 945.223 114.608 C 948.125 113.292, 952.525 111.455, 955 110.526 C 957.475 109.596, 961.075 108.152, 963 107.316 C 964.925 106.480, 967.400 105.432, 968.500 104.988 C 969.600 104.544, 972.555 103.240, 975.066 102.090 C 977.577 100.941, 979.926 100, 980.286 100 C 980.646 100, 983.317 98.954, 986.220 97.675 C 989.124 96.396, 993.413 94.528, 995.750 93.523 L 1000 91.696 1000 45.848 C 1000 4.147, 999.853 0, 998.371 0 C 996.933 0, 996.825 1.065, 997.452 9.080 C 998.088 17.205, 997.970 18.307, 996.331 19.548 C 993.656 21.576, 993.407 21.383, 993.361 17.250 C 993.338 15.188, 992.957 10.462, 992.515 6.750 C 991.732 0.180, 991.634 -0, 988.855 -0 L 986 0 986 6.878 C 986 14.753, 985.575 15.331, 978.487 17.089 C 973.914 18.223, 969.280 20.115, 955.500 26.475 C 944.065 31.752, 924.156 40, 922.852 40 C 922.247 40, 922.006 39.084, 922.308 37.929 C 923.306 34.114, 921.350 20.045, 919.546 18.051 C 918.105 16.459, 917.954 14.947, 918.553 8.087 L 919.258 -0 889.129 -0 L 859 0 858.976 3.750 C 858.963 5.813, 858.483 9.300, 857.910 11.500 C 857.336 13.700, 856.491 17.075, 856.032 19 C 855.572 20.925, 854.734 23.850, 854.170 25.500 C 852.007 31.825, 850.061 39.768, 849.025 46.500 C 847.829 54.277, 843.533 63.696, 840.785 64.568 C 839.803 64.880, 839.001 65.667, 839.003 66.317 C 839.009 68.618, 831.482 82.999, 830.271 82.999 C 828.846 83, 830.166 86.676, 833.201 91.154 C 834.191 92.614, 835 94.071, 835 94.393 C 835 94.714, 833.211 95.262, 831.024 95.612 C 828.023 96.092, 826.373 97.137, 824.294 99.874 C 820.244 105.204, 815.253 110, 813.756 110 C 813.035 110, 811.416 110.721, 810.158 111.602 C 808.034 113.089, 807.769 113.072, 806.467 111.352 C 805.103 109.552, 805.063 109.552, 805.032 111.374 C 804.994 113.577, 811.456 128.315, 814.143 132.154 C 816.664 135.757, 816.484 136.695, 813.250 136.817 C 811.737 136.874, 807.350 137.193, 803.500 137.525 C 796.942 138.092, 784.015 136.675, 772 134.071 C 768.959 133.413, 766.414 133.441, 764.149 134.159 C 760.807 135.219, 760.799 135.236, 761.364 140.361 C 761.904 145.261, 762.385 167.336, 762.123 175.224 C 762.021 178.317, 761.476 179.220, 758.907 180.548 C 757.206 181.428, 755.544 181.878, 755.215 181.548 C 754.885 181.219, 754.485 178.823, 754.325 176.224 C 752.556 147.438, 753.008 149.547, 748.561 149.323 C 744.854 149.136, 730.586 145.727, 725.500 143.813 C 717.396 140.763, 702.568 132.717, 699.241 129.563 C 697.183 127.613, 695.073 126.013, 694.550 126.009 C 694.028 126.004, 694.140 126.540, 694.800 127.200 C 696.745 129.145, 696.260 129.834, 691.112 132.443 C 688.424 133.805, 684.696 136.705, 682.829 138.887 C 680.962 141.068, 678.211 143.160, 676.717 143.535 C 675.223 143.910, 674 144.843, 674 145.608 C 674 146.374, 673.100 147, 672 147 C 670.889 147, 670 146.333, 670 145.500 C 670 144.667, 669.111 144, 668 144 C 666.900 144, 666 144.629, 666 145.399 C 666 146.400, 663.954 147.002, 658.788 147.521 C 652.121 148.191, 651.468 148.085, 650.166 146.123 C 648.582 143.738, 647 143.331, 647 145.309 C 647 146.029, 646.384 147.460, 645.632 148.489 C 644.316 150.289, 644.215 150.270, 643.005 148.009 C 641.945 146.029, 642.001 145.473, 643.358 144.480 C 644.244 143.832, 644.687 143.020, 644.342 142.675 C 643.021 141.355, 646.360 138.874, 648.676 139.455 C 650.344 139.873, 651 139.609, 651 138.519 C 651 137.565, 650.069 137, 648.500 137 C 647.125 137, 646 136.634, 646 136.187 C 646 135.740, 648.010 133.153, 650.467 130.437 C 655.489 124.886, 655.932 123.431, 652.895 122.467 C 648.908 121.201, 638.323 133.676, 639.253 138.543 C 639.781 141.305, 639.626 141.405, 637.001 140.001 C 635.545 139.221, 635.012 139.387, 634.579 140.751 C 634.100 142.259, 625.657 147, 623.450 147 C 622.711 147, 618.394 148.916, 592.500 160.736 C 576.757 167.922, 572.600 169.802, 566 172.721 C 562.975 174.059, 558.591 176.097, 556.257 177.251 C 553.923 178.404, 551.776 179.109, 551.484 178.818 C 551.193 178.526, 564.438 165.317, 580.917 149.463 C 597.396 133.610, 615.744 115.013, 621.690 108.137 C 632.879 95.197, 639.123 88.790, 639.844 89.511 C 640.305 89.972, 631.694 100.109, 627.601 103.924 C 624.579 106.741, 624.272 108.811, 626.750 109.668 C 627.712 110.001, 632.685 112.237, 637.799 114.637 C 643.707 117.409, 648.495 119, 650.927 119 C 653.033 119, 656.273 119.617, 658.128 120.370 C 659.983 121.124, 662.102 121.523, 662.837 121.258 C 663.573 120.992, 666.171 121.802, 668.612 123.058 L 673.049 125.340 680.775 122.052 C 690.563 117.887, 695.233 115.614, 701.500 111.965 C 704.250 110.364, 712.800 106.292, 720.500 102.916 C 753.792 88.319, 777.525 77.682, 783.778 74.556 C 787.475 72.708, 793.363 70.037, 796.863 68.622 C 804.093 65.697, 809.013 61.327, 806.832 59.765 C 805.849 59.061, 805.973 58.965, 807.306 59.396 C 809.086 59.972, 813.869 55.752, 813.991 53.500 C 814.020 52.950, 814.924 51.375, 816 50 C 818.001 47.442, 818.590 44.496, 817.250 43.747 C 816.837 43.517, 817.063 43.465, 817.750 43.633 C 818.438 43.800, 819 43.469, 819 42.897 C 819 42.325, 819.675 41.182, 820.500 40.357 C 821.325 39.532, 822 37.869, 822 36.660 C 822 34.789, 818.477 32.720, 798.250 22.711 C 785.188 16.248, 773.975 10.969, 773.333 10.980 C 772.692 10.991, 772.017 10.662, 771.833 10.250 C 771.650 9.837, 769.025 8.211, 766 6.636 C 762.975 5.061, 759.753 2.923, 758.840 1.886 C 757.342 0.185, 755.601 0, 741.090 0 L 725 0 725 8 C 725 12.400, 724.602 16, 724.117 16 C 722.628 16, 722.045 11.860, 722.680 5.786 L 723.285 0 710.726 -0 C 701.614 -0, 698.028 0.343, 697.662 1.250 C 697.259 2.250, 697.142 2.250, 697.079 1.250 C 697.018 0.279, 690.091 0, 666 0 C 647.296 0, 635 0.373, 635 0.941 M 587.725 2.907 C 585.099 3.233, 582.965 3.916, 582.983 4.424 C 583.015 5.378, 594.763 5.264, 596.332 4.295 C 597.330 3.678, 595.032 1.955, 593.500 2.172 C 592.950 2.250, 590.351 2.581, 587.725 2.907 M 619 4.500 C 617.987 5.721, 618.037 6, 619.271 6 C 620.104 6, 621.045 5.325, 621.362 4.500 C 621.678 3.675, 621.556 3, 621.091 3 C 620.626 3, 619.685 3.675, 619 4.500 M 680.983 7.521 C 680.307 8.334, 679.135 9, 678.378 9 C 677.482 9, 677 10.170, 677 12.345 C 677 15.940, 673.765 20.047, 672.520 18.032 C 671.621 16.577, 647.715 40.974, 645.531 45.575 C 643.985 48.834, 643.983 49.433, 645.506 54.017 C 647.144 58.949, 647.146 58.951, 649.613 57.334 C 650.970 56.445, 652.529 54.880, 653.076 53.858 C 653.623 52.836, 654.730 52, 655.535 52 C 656.341 52, 657 51.375, 657 50.611 C 657 49.816, 658.495 48.942, 660.500 48.566 C 662.425 48.205, 664 47.432, 664 46.849 C 664 45.703, 668.174 42.131, 671.440 40.481 C 674.590 38.890, 677.965 32.049, 677.984 27.219 C 677.995 24.347, 678.494 22.748, 679.500 22.362 C 680.325 22.045, 681 20.654, 681 19.271 C 681 17.130, 681.227 16.944, 682.524 18.020 C 684.498 19.659, 684.611 19.467, 685.312 13.259 C 685.813 8.819, 685.621 7.868, 684.057 7.030 C 682.707 6.308, 681.880 6.440, 680.983 7.521 M 755 7 C 755 7.550, 755.477 8, 756.059 8 C 756.641 8, 756.840 7.550, 756.500 7 C 756.160 6.450, 755.684 6, 755.441 6 C 755.198 6, 755 6.450, 755 7 M 688 9.941 C 688 11.009, 688.450 12.160, 689 12.500 C 689.567 12.851, 690 12.010, 690 10.559 C 690 9.152, 689.550 8, 689 8 C 688.450 8, 688 8.873, 688 9.941 M 618.364 16.493 C 618.018 17.396, 618.214 18.614, 618.800 19.200 C 620.324 20.724, 623.210 19.331, 622.812 17.265 C 622.369 14.963, 619.165 14.407, 618.364 16.493 M 734.022 17.250 C 734.072 20.026, 738.006 23.331, 744.543 26.089 C 752.491 29.442, 753 29.527, 753 27.500 C 753 26.667, 752.111 26, 751 26 C 749.900 26, 749 25.550, 749 25 C 749 24.450, 747.953 24, 746.674 24 C 745.395 24, 743.292 22.875, 742 21.500 C 740.708 20.125, 739.055 19, 738.326 19 C 737.597 19, 737 18.325, 737 17.500 C 737 16.675, 736.325 16, 735.500 16 C 734.675 16, 734.010 16.563, 734.022 17.250 M 688.683 17.650 C 687.618 18.715, 687.881 22, 689.031 22 C 690.510 22, 691.441 19.041, 690.316 17.916 C 689.794 17.394, 689.059 17.274, 688.683 17.650 M 605.241 23.986 C 604.558 25.079, 604 26.429, 604 26.986 C 604 28.661, 605.721 28.129, 606.384 26.250 C 606.724 25.288, 607.263 23.938, 607.584 23.250 C 608.532 21.216, 606.590 21.826, 605.241 23.986 M 680.667 24.667 C 680.300 25.033, 680 26.693, 680 28.354 L 680 31.374 683 28.500 C 684.650 26.919, 686 25.260, 686 24.813 C 686 23.838, 681.615 23.718, 680.667 24.667 M 992.999 26.750 C 992.999 27.712, 992.099 30.867, 990.999 33.761 C 989.900 36.654, 989.010 40.029, 989.022 41.261 C 989.066 45.676, 992.801 38.964, 993.940 32.422 C 995.235 24.985, 995.235 25, 994 25 C 993.450 25, 993 25.788, 992.999 26.750 M 591 30.500 C 590.306 31.337, 590.197 32, 590.755 32 C 591.305 32, 592.315 31.325, 593 30.500 C 593.694 29.663, 593.803 29, 593.245 29 C 592.695 29, 591.685 29.675, 591 30.500 M 765.500 39 C 765.840 39.550, 766.766 40, 767.559 40 C 768.352 40, 769 39.550, 769 39 C 769 38.450, 768.073 38, 766.941 38 C 765.809 38, 765.160 38.450, 765.500 39 M 772.247 41.240 C 772.474 41.923, 774.199 42.935, 776.080 43.490 C 777.961 44.046, 780.092 44.883, 780.817 45.350 C 782.680 46.554, 783.345 45.510, 782.601 42.547 C 782.021 40.237, 781.490 40, 776.898 40 C 773.311 40, 771.954 40.362, 772.247 41.240 M 913.079 46.583 C 913.127 47.748, 913.364 47.985, 913.683 47.188 C 913.972 46.466, 913.936 45.603, 913.604 45.271 C 913.272 44.939, 913.036 45.529, 913.079 46.583 M 985.068 49.904 C 983.931 51.502, 982.997 53.189, 982.994 53.654 C 982.990 54.119, 981.178 56.610, 978.967 59.190 C 974.609 64.274, 969.660 66.980, 955.823 71.843 C 951.051 73.520, 944.755 76.104, 941.833 77.585 C 938.910 79.066, 935.389 80.635, 934.009 81.071 C 932.629 81.507, 925.534 84.320, 918.242 87.323 C 910.278 90.602, 904.736 92.382, 904.364 91.779 C 904.023 91.228, 904.139 90.489, 904.622 90.138 C 908.602 87.246, 912.048 72.397, 911.849 59 L 911.737 51.500 910.940 58.370 C 910.501 62.148, 909.643 67.323, 909.034 69.870 C 908.424 72.416, 908.018 75.850, 908.131 77.500 C 908.337 80.515, 903.398 90.985, 895 105.337 C 892.800 109.097, 891 112.602, 891 113.126 C 891 113.651, 890.119 115.806, 889.043 117.916 C 887.966 120.026, 887.335 122.002, 887.641 122.307 C 888.580 123.246, 891 121.867, 891 120.393 C 891 119.627, 891.900 119, 893 119 C 894.100 119, 895.900 118.100, 897 117 C 898.100 115.900, 899.717 115, 900.592 115 C 901.468 115, 903.329 114.100, 904.727 113 C 906.610 111.519, 906.845 111, 905.635 111 C 904.736 111, 904 111.477, 904 112.059 C 904 112.641, 903.550 112.840, 903 112.500 C 901.191 111.382, 901.954 110.048, 904.750 109.439 C 906.263 109.110, 909.930 108.118, 912.900 107.236 C 916.936 106.037, 917.825 105.465, 916.420 104.972 C 914.348 104.245, 915.834 103.424, 927.171 99.030 C 930.290 97.821, 933.660 95.928, 934.660 94.823 C 937.508 91.677, 939.751 90.796, 941.939 91.968 C 943.229 92.658, 944.086 92.670, 944.498 92.003 C 944.839 91.451, 944.191 91, 943.059 91 C 939.890 91, 940.580 89.812, 945.964 86 C 948.682 84.075, 950.927 82.162, 950.953 81.750 C 950.979 81.338, 951.590 81, 952.311 81 C 953.033 81, 954.530 80.155, 955.638 79.122 C 956.747 78.090, 958.742 76.899, 960.073 76.477 C 961.404 76.055, 963.008 75.004, 963.638 74.142 C 964.577 72.858, 965.060 72.805, 966.316 73.847 C 967.985 75.233, 975 74.458, 975 72.889 C 975 72.400, 974.550 72, 974 72 C 973.450 72, 973 71.014, 973 69.809 C 973 67.753, 973.081 67.729, 974.315 69.416 C 975.552 71.108, 975.729 71.062, 977.315 68.642 C 978.242 67.228, 979 65.656, 979 65.150 C 979 64.644, 980.070 63.529, 981.378 62.672 C 982.853 61.705, 984.025 59.681, 984.464 57.341 C 984.853 55.265, 986.033 52.358, 987.086 50.879 C 989.220 47.883, 989.443 47, 988.068 47 C 987.556 47, 986.206 48.307, 985.068 49.904 M 809.195 52.500 C 809.215 54.150, 809.439 54.704, 809.693 53.731 C 809.947 52.758, 809.930 51.408, 809.656 50.731 C 809.382 50.054, 809.175 50.850, 809.195 52.500 M 635.500 55.962 C 628.126 63.221, 627.103 64.483, 625.534 68.250 C 624.159 71.554, 623.564 72, 620.532 72 C 617.371 72, 617.035 72.294, 616.413 75.610 C 615.295 81.573, 619.833 82.860, 625.906 78.302 C 630.243 75.046, 641.658 63.507, 642.974 61.048 C 644.146 58.859, 642.420 51.995, 640.703 52.012 C 640.041 52.019, 637.700 53.797, 635.500 55.962 M 793.500 55 C 793.840 55.550, 795.666 56, 797.559 56 C 799.452 56, 801 55.550, 801 55 C 801 54.450, 799.173 54, 796.941 54 C 794.490 54, 793.127 54.396, 793.500 55 M 964.250 77.689 C 965.212 77.941, 966 78.564, 966 79.073 C 966 79.583, 966.505 80, 967.122 80 C 967.898 80, 967.860 79.536, 967 78.500 C 966.315 77.675, 965.023 77.052, 964.128 77.116 C 962.754 77.214, 962.774 77.303, 964.250 77.689 M 959 79 C 959 79.550, 959.702 80, 960.559 80 C 961.416 80, 961.840 79.550, 961.500 79 C 961.160 78.450, 960.459 78, 959.941 78 C 959.423 78, 959 78.450, 959 79 M 607.557 89.582 C 606.491 90.362, 604.354 91, 602.809 91 C 600.667 91, 600 91.475, 600 93 C 600 95.693, 601.429 95.518, 605.817 92.290 C 607.843 90.800, 609.688 89.450, 609.917 89.290 C 610.146 89.131, 610.145 88.812, 609.915 88.582 C 609.685 88.352, 608.624 88.802, 607.557 89.582 M 989.629 109.550 C 980.961 113.248, 979.760 114, 982.515 114 C 984.989 114, 1000 107.822, 1000 106.803 C 1000 105.469, 997.871 106.033, 989.629 109.550 M 946.500 127.100 C 930.550 133.676, 916.600 139.465, 915.500 139.963 C 913.098 141.052, 893.760 148.946, 866.500 159.968 C 855.500 164.415, 845.150 168.697, 843.500 169.484 C 841.850 170.270, 832.625 174.127, 823 178.055 C 813.375 181.983, 801.900 186.676, 797.500 188.483 C 793.100 190.291, 782.300 194.714, 773.500 198.313 C 764.700 201.912, 751.425 207.395, 744 210.498 C 736.575 213.601, 729.712 216.386, 728.750 216.687 C 727.163 217.182, 726.223 219, 727.554 219 C 729.328 219, 784.187 196.211, 785.450 194.949 C 785.972 194.427, 787.101 194, 787.957 194 C 788.814 194, 797.837 190.593, 808.007 186.429 C 818.178 182.264, 830.697 177.203, 835.826 175.182 C 840.956 173.161, 846.034 170.686, 847.111 169.682 C 848.189 168.678, 849.617 168.042, 850.285 168.269 C 850.953 168.496, 854.650 167.338, 858.500 165.695 C 862.350 164.052, 875.850 158.500, 888.499 153.356 C 901.149 148.213, 911.649 143.553, 911.833 143.002 C 912.016 142.451, 913.198 142, 914.459 142 C 915.720 142, 919.363 140.845, 922.555 139.433 C 925.747 138.022, 929.966 136.266, 931.929 135.531 C 942.536 131.565, 977.557 116.843, 978.407 115.993 C 981.044 113.356, 973.266 116.064, 946.500 127.100 M 884.020 125.476 C 883.231 126.426, 883.155 127, 883.819 127 C 885.027 127, 886.436 125.103, 885.743 124.409 C 885.491 124.158, 884.716 124.638, 884.020 125.476 M 655 135 C 653.625 136.076, 652.768 136.966, 653.096 136.978 C 653.989 137.011, 660 133.919, 660 133.427 C 660 132.364, 657.273 133.222, 655 135 M 399 173 C 399 173.550, 399.450 174, 400 174 C 400.550 174, 401 173.550, 401 173 C 401 172.450, 400.550 172, 400 172 C 399.450 172, 399 172.450, 399 173 M 389.597 181.844 C 389.251 182.404, 389.455 183.163, 390.050 183.531 C 391.588 184.481, 392.580 183.180, 391.296 181.896 C 390.578 181.178, 390.019 181.161, 389.597 181.844 M 327.074 202.411 C 325.206 204.662, 327.169 204.873, 331.500 202.887 L 335.500 201.052 331.872 201.026 C 329.877 201.012, 327.718 201.635, 327.074 202.411 M 487 208.500 C 487 209.325, 487.450 210, 488 210 C 488.550 210, 489 209.325, 489 208.500 C 489 207.675, 488.550 207, 488 207 C 487.450 207, 487 207.675, 487 208.500 M 319 211 C 319 211.550, 319.450 212, 320 212 C 320.550 212, 321 211.550, 321 211 C 321 210.450, 320.550 210, 320 210 C 319.450 210, 319 210.450, 319 211 M 260.750 232.742 C 256.916 233.039, 256 233.468, 256 234.971 C 256 235.995, 255.438 237.034, 254.750 237.280 C 254.063 237.525, 253.845 238.095, 254.267 238.546 C 254.688 238.998, 255.566 238.834, 256.217 238.183 C 256.868 237.532, 259.222 236.990, 261.450 236.978 C 263.922 236.964, 266.474 236.194, 268 235 C 269.375 233.924, 269.974 233.034, 269.332 233.022 C 268.689 233.010, 267.564 232.859, 266.832 232.687 C 266.099 232.516, 263.363 232.540, 260.750 232.742 M 249.158 243 C 249.158 244.375, 249.385 244.938, 249.662 244.250 C 249.940 243.563, 249.940 242.438, 249.662 241.750 C 249.385 241.063, 249.158 241.625, 249.158 243 M 380.667 249.667 C 380.300 250.033, 380 251.833, 380 253.667 C 380 256.689, 380.275 257, 382.941 257 C 386.729 257, 387.463 255.729, 384.976 253.479 C 383.889 252.495, 383 251.085, 383 250.345 C 383 248.916, 381.774 248.559, 380.667 249.667 M 488.543 254.931 C 488.226 255.443, 488.425 256.144, 488.984 256.490 C 489.543 256.835, 490 256.416, 490 255.559 C 490 253.802, 489.400 253.544, 488.543 254.931 M 335.180 257.079 C 334.128 258.766, 333.215 259.078, 330.680 258.615 C 328.931 258.295, 326.825 258.495, 326 259.061 C 324.717 259.939, 324.826 260.317, 326.750 261.666 C 327.988 262.534, 329 264.052, 329 265.040 C 329 267.544, 330.043 270, 331.107 270 C 331.598 270, 332 269.459, 332 268.798 C 332 268.136, 333.321 266.224, 334.935 264.548 C 337.414 261.974, 337.763 260.992, 337.185 258.231 C 336.522 255.065, 336.458 255.028, 335.180 257.079 M 486.639 267.498 C 485.580 270.258, 485.913 272, 487.500 272 C 489.130 272, 489.478 269.302, 488.124 267.166 C 487.449 266.102, 487.149 266.169, 486.639 267.498 M 483.408 277.378 C 482.591 279.509, 483.277 282.260, 484.750 282.750 C 485.566 283.022, 486 282.117, 486 280.142 C 486 276.805, 484.317 275.010, 483.408 277.378 M 262 287.781 C 262 291.063, 261.605 291.711, 259 292.694 C 256.409 293.672, 256 294.332, 256 297.537 L 256 301.247 260 297 C 263.410 293.379, 264 292.108, 264 288.376 C 264 285.969, 263.550 284, 263 284 C 262.450 284, 262 285.701, 262 287.781 M 260 324.941 C 260 325.459, 260.450 326.160, 261 326.500 C 261.550 326.840, 262 326.416, 262 325.559 C 262 324.702, 261.550 324, 261 324 C 260.450 324, 260 324.423, 260 324.941 M 482 348 C 483.971 349.274, 488 349.274, 488 348 C 488 347.450, 486.313 347.007, 484.250 347.015 C 481.461 347.027, 480.884 347.279, 482 348 M 996.500 351 C 994.728 351.762, 994.813 351.867, 997.250 351.930 C 998.763 351.968, 1000 351.550, 1000 351 C 1000 349.826, 999.231 349.826, 996.500 351" stroke="none" fill="#ffffff" fill-rule="evenodd"/>
</svg>