<svg xmlns="http://www.w3.org/2000/svg" width="1000" height="277" viewBox="0 0 1000 277" version="1.1">
	<path d="M 110.500 10.002 C 102.240 11.244, 96.747 13.015, 92 15.967 C 89.525 17.507, 84.408 19.774, 80.628 21.005 C 76.848 22.237, 72.824 24.176, 71.685 25.315 C 70.546 26.454, 67.564 28.536, 65.057 29.943 C 53.640 36.349, 37.205 51, 30.779 60.500 C 28.546 63.800, 25.692 67.625, 24.437 69 C 23.181 70.375, 21.369 73.480, 20.408 75.900 C 19.448 78.320, 17.196 82.480, 15.404 85.143 C 13.529 87.929, 11.657 92.431, 10.996 95.743 C 8.876 106.367, 7.874 109.217, 5.386 111.705 C 4.021 113.069, 2.258 113.929, 1.456 113.621 C 0.208 113.142, -0 116.338, -0 136.031 L 0 159 3.427 159 C 7.384 159, 10.440 155.877, 11.547 150.703 C 12.788 144.904, 15.156 138.723, 17.531 135.083 C 18.817 133.112, 20.650 129.475, 21.604 127 C 25.311 117.388, 40.296 100.036, 50.500 93.539 C 52.150 92.489, 54.369 90.475, 55.432 89.065 C 56.495 87.654, 59.693 84.250, 62.539 81.500 C 65.603 78.540, 68.412 74.664, 69.425 72 C 70.366 69.525, 72.393 65.916, 73.930 63.980 C 75.467 62.044, 77.650 58.646, 78.781 56.429 C 82.011 50.098, 99.421 31.985, 105.184 28.960 C 107.210 27.897, 109.505 26.117, 110.285 25.004 C 111.064 23.891, 114.581 21.818, 118.101 20.396 C 125.399 17.447, 128 15.473, 128 12.880 C 128 9.202, 122.179 8.245, 110.500 10.002 M 178.500 25.593 C 175.750 26.442, 169.174 28.457, 163.886 30.070 C 157.969 31.874, 152.800 34.172, 150.442 36.046 C 148.335 37.721, 145.108 39.804, 143.271 40.676 C 141.434 41.548, 139.516 43.036, 139.008 43.984 C 138.501 44.932, 136.492 47.616, 134.543 49.949 C 128.772 56.856, 130.376 61.601, 138.354 61.217 C 152.418 60.541, 177.907 64.204, 184.799 67.892 C 185.944 68.505, 190.939 70.093, 195.898 71.420 C 201.051 72.799, 206.381 74.952, 208.337 76.444 C 210.220 77.880, 214.604 80.169, 218.080 81.531 C 221.555 82.893, 225.546 85.079, 226.949 86.390 C 228.352 87.700, 230.850 89.457, 232.500 90.294 C 237.325 92.741, 253.951 108.979, 256.185 113.424 C 258.748 118.525, 260.890 120.996, 263.669 122.059 C 264.862 122.515, 266.440 124.146, 267.176 125.682 C 267.913 127.219, 269.298 128.626, 270.255 128.811 C 274.039 129.539, 274.801 119.484, 271.457 112.946 C 270.739 111.541, 269.182 106.265, 267.998 101.222 C 266.778 96.022, 264.736 90.417, 263.284 88.277 C 261.876 86.201, 259.285 81.352, 257.527 77.502 C 255.769 73.651, 253.535 69.845, 252.564 69.043 C 251.592 68.242, 249.300 65.317, 247.471 62.543 C 239.707 50.770, 221.218 34.171, 209.500 28.452 C 202.238 24.908, 200.670 24.525, 192.500 24.298 C 186.555 24.133, 181.803 24.572, 178.500 25.593 M 904.250 62.731 C 903.563 62.970, 903 63.981, 903 64.976 C 903 66.921, 904.725 67.976, 906.750 67.269 C 907.438 67.030, 908 66.019, 908 65.024 C 908 63.079, 906.275 62.024, 904.250 62.731 M 992.889 63.662 C 989.825 64.481, 988.933 68.499, 990.086 76.280 C 990.675 80.251, 991.139 89.525, 991.118 96.889 C 991.071 112.811, 992.160 115.947, 997.750 115.985 L 1000 116 1000 89.500 L 1000 63 997.250 63.116 C 995.737 63.180, 993.775 63.426, 992.889 63.662 M 478.678 73.250 C 477.451 74.487, 475.127 79.401, 473.515 84.169 L 470.582 92.837 472.845 99.669 C 475.696 108.276, 477.709 110.702, 483.983 113.085 C 489.166 115.055, 490.040 114.806, 487.560 112.066 C 483.921 108.045, 482.974 88.296, 485.998 79.506 C 487.499 75.144, 487.717 73.364, 486.875 72.350 C 485.171 70.296, 481.171 70.735, 478.678 73.250 M 771.256 71.980 C 766.706 73.053, 765.324 74.476, 763.635 79.827 C 761.341 87.093, 760.826 93.190, 761.927 100.026 C 762.927 106.235, 765.823 111, 768.598 111 C 769.285 111, 771.184 112.125, 772.818 113.500 C 776.179 116.328, 781 116.890, 781 114.453 C 781 113.603, 779.643 112.140, 777.984 111.203 C 773.952 108.926, 772.593 103.993, 772.553 91.491 C 772.525 82.605, 772.781 81.116, 774.833 78.235 C 777.122 75.020, 777.431 71.875, 775.500 71.441 C 774.950 71.317, 773.040 71.560, 771.256 71.980 M 923.083 76.191 C 921.783 79.920, 922.604 107.611, 924.167 112.750 C 924.783 114.776, 925.804 116, 926.878 116 C 930.352 116, 930.979 114.016, 930.342 105.041 C 929.874 98.447, 930.132 95.058, 931.444 90.544 C 934.062 81.539, 931.692 73, 926.575 73 C 924.799 73, 923.914 73.809, 923.083 76.191 M 593.578 83.319 C 591.849 84.584, 591.860 84.805, 593.848 88.703 C 595.359 91.664, 596.108 95.649, 596.608 103.383 C 597.073 110.574, 597.747 114.375, 598.697 115.164 C 601.101 117.159, 603.039 113.900, 604.130 106.029 C 605.278 97.747, 603.816 85.959, 601.334 83.477 C 599.502 81.645, 595.966 81.573, 593.578 83.319 M 960.488 83.385 C 958.643 84.734, 958.641 84.878, 960.417 88.817 C 962.893 94.307, 962.328 105.264, 959.453 107.505 C 957.586 108.961, 956.563 108.952, 949.199 107.416 C 946.851 106.926, 946.199 107.267, 945.169 109.528 C 943.047 114.185, 944.798 115, 956.931 115 C 969.970 115, 971.890 114.104, 970.009 108.901 C 968.969 106.026, 969.030 104.678, 970.380 100.701 C 971.678 96.877, 971.789 95.016, 970.942 91.221 C 969.032 82.657, 965.304 79.863, 960.488 83.385 M 576.277 85.700 C 574.832 87.905, 574.519 90.516, 574.568 99.950 C 574.633 112.274, 575.675 116, 579.060 116 C 581.905 116, 583 112.235, 583 102.455 C 583 97.058, 583.576 92.600, 584.608 90.022 C 586.717 84.750, 585.957 83, 581.554 83 C 578.846 83, 577.643 83.616, 576.277 85.700 M 661.055 84.267 C 657.797 85.916, 654.786 91.261, 654.860 95.264 C 654.996 102.601, 656.894 114.316, 658.064 115.039 C 661.120 116.928, 664 112.883, 664 106.701 C 664 104.958, 665.868 99.602, 668.150 94.799 C 671.603 87.534, 672.086 85.809, 671.028 84.533 C 669.500 82.692, 664.434 82.557, 661.055 84.267 M 829.009 83.973 C 827.709 84.795, 827.756 85.318, 829.377 88.061 C 830.878 90.603, 831.265 93.499, 831.390 103.153 C 831.554 115.812, 831.985 116.951, 836.628 116.985 C 840.290 117.011, 840.949 114.854, 841.230 101.921 C 841.455 91.562, 841.205 88.960, 839.724 86.250 C 838.209 83.477, 837.402 83.002, 834.224 83.015 C 832.176 83.024, 829.829 83.455, 829.009 83.973 M 855.273 85.703 C 853.741 88.038, 853.459 91.339, 853.197 109.999 C 852.868 133.537, 853.401 137, 857.353 137 C 860.992 137, 862.158 134.772, 863.245 125.745 C 864.576 114.683, 864.526 113.182, 862.667 108.337 C 861.328 104.847, 861.233 102.747, 862.077 95.337 C 863.042 86.879, 862.992 86.425, 860.932 84.750 C 858.053 82.410, 857.356 82.528, 855.273 85.703 M 873.064 83.939 C 870.774 85.388, 873.630 88, 877.506 88 C 881.436 88, 881.967 89.368, 881.986 99.559 C 882.002 107.740, 881.067 109.424, 875.514 111.215 C 870.794 112.737, 869.621 115.616, 873.340 116.549 C 876.114 117.245, 879.839 115.614, 881.807 112.841 C 882.525 111.829, 883.903 111, 884.868 111 C 887.254 111, 890.836 107.501, 891.611 104.413 C 893.535 96.747, 889.918 89, 884.415 89 C 882.800 89, 881.560 88.050, 880.500 86 C 878.908 82.921, 875.963 82.105, 873.064 83.939 M 635.724 85.134 C 633.722 86.255, 633.493 89.793, 635.183 93.503 C 636.139 95.601, 636.954 96.042, 639.425 95.800 C 643 95.449, 643.783 93.305, 641.951 88.883 C 640.453 85.265, 638.062 83.826, 635.724 85.134 M 538.776 86.750 C 533.870 92.345, 532.856 99.257, 535.571 108.595 C 537.531 115.340, 539.409 117.365, 542.892 116.491 C 544.324 116.132, 545.682 115.652, 545.908 115.425 C 546.135 115.198, 545.789 112.633, 545.138 109.725 C 544.383 106.351, 544.200 101.250, 544.632 95.624 C 545.173 88.592, 545.026 86.630, 543.905 85.920 C 541.807 84.592, 540.479 84.807, 538.776 86.750 M 904.125 86.349 C 901.473 89.544, 900.661 103.151, 902.556 112.640 C 903.077 115.250, 905.760 116.444, 907.627 114.895 C 908.660 114.037, 909 110.589, 909 100.959 C 909 93.922, 908.727 87.452, 908.393 86.582 C 907.650 84.645, 905.631 84.535, 904.125 86.349 M 556.667 88.667 C 555.455 89.878, 555.974 94.734, 557.445 95.954 C 559.760 97.876, 563.451 96.843, 563.830 94.168 C 564.381 90.279, 559.106 86.228, 556.667 88.667 M 616.073 91.635 C 614.480 93.660, 614 95.711, 614 100.498 C 614 105.895, 614.352 107.079, 616.636 109.364 C 618.086 110.814, 619.774 112.010, 620.386 112.022 C 620.999 112.034, 622.625 112.924, 624 114 C 626.794 116.185, 630.511 116.601, 631.593 114.849 C 632.008 114.177, 630.928 112.573, 629.002 111.002 C 625.873 108.448, 625.664 107.861, 625.027 99.845 C 624.658 95.192, 624.024 90.848, 623.619 90.192 C 622.324 88.097, 618.242 88.877, 616.073 91.635 M 687.536 92.712 C 686.566 96.578, 687.999 111.754, 689.448 112.957 C 690.284 113.651, 691.263 113.528, 692.582 112.563 C 694.167 111.404, 694.484 109.973, 694.411 104.330 C 694.269 93.535, 689.397 85.299, 687.536 92.712 M 709.612 91.644 L 706.725 93.208 710.858 96.854 C 713.132 98.859, 715.681 102.201, 716.522 104.281 C 718.060 108.080, 722.960 111.989, 726.193 111.996 C 728.310 112.001, 731 108.278, 731 105.344 C 731 103.856, 729.610 102.200, 726.750 100.282 C 724.387 98.698, 721.720 95.783, 720.742 93.716 C 719.237 90.535, 718.518 90.006, 715.742 90.040 C 713.959 90.062, 711.201 90.784, 709.612 91.644 M 515.945 102.850 C 512.793 105.358, 509.573 111.445, 510.341 113.445 C 511.155 115.567, 514.844 115.392, 518.686 113.050 C 522.553 110.692, 524.227 107.802, 523.812 104.201 C 523.413 100.745, 519.447 100.065, 515.945 102.850 M 814.972 103.533 C 814.273 104.376, 813.496 107.190, 813.247 109.785 C 812.875 113.648, 813.170 114.844, 814.871 116.383 C 816.677 118.018, 817.341 118.102, 819.941 117.024 C 823.364 115.606, 824.366 113.394, 823.421 109.335 C 821.900 102.792, 817.879 100.031, 814.972 103.533 M 476.327 150.623 C 474.838 152.896, 474.628 155.827, 474.753 172.593 C 474.840 184.321, 475.325 192.739, 475.984 193.970 C 477.314 196.455, 482.491 196.769, 483.393 194.418 C 483.727 193.548, 484 191.059, 484 188.887 C 484 186.714, 484.892 182.288, 485.983 179.050 C 487.794 173.674, 487.838 172.856, 486.483 169.614 C 485.623 167.554, 485 162.936, 485 158.614 C 485 149.253, 484.518 148, 480.916 148 C 478.922 148, 477.521 148.801, 476.327 150.623 M 497.441 149.426 C 495.776 150.649, 495.532 151.932, 495.722 158.439 C 495.959 166.554, 497.124 170, 499.631 170 C 501.826 170, 506.442 167.123, 507.841 164.883 C 510.028 161.381, 503.877 148, 500.080 148 C 499.696 148, 498.509 148.642, 497.441 149.426 M 585.113 154.584 C 581.417 159.282, 580.478 164.237, 582.381 168.994 C 583.665 172.204, 583.893 174.851, 583.397 180.815 C 582.558 190.919, 584.393 196, 588.882 196 C 592.756 196, 593.300 194.164, 592.045 185.315 C 591.399 180.761, 591.390 176.258, 592.021 172.410 C 594.573 156.825, 590.869 147.266, 585.113 154.584 M 624.750 162.080 C 622.301 163.507, 622.551 165.222, 626 170.661 C 627.650 173.263, 629 175.923, 629 176.573 C 629 177.223, 629.644 178.289, 630.430 178.942 C 632.827 180.931, 634.335 176.634, 633.700 169.626 C 632.995 161.858, 629.782 159.149, 624.750 162.080 M 524.907 163.250 C 524.856 163.387, 524.734 170.241, 524.636 178.479 C 524.480 191.627, 524.675 193.675, 526.229 195.229 C 528.363 197.363, 529.988 197.461, 532.521 195.608 C 534.170 194.403, 534.457 192.706, 534.664 182.961 C 534.905 171.651, 533.674 165.683, 530.711 163.800 C 529.599 163.094, 525.123 162.669, 524.907 163.250 M 607.364 164.788 C 605.514 167.751, 605.031 173.933, 605.785 185 C 606.440 194.614, 606.676 195.525, 608.588 195.798 C 609.736 195.962, 611.134 195.512, 611.695 194.798 C 612.850 193.328, 615.356 165.385, 614.463 163.940 C 613.461 162.319, 608.539 162.908, 607.364 164.788 M 697.302 164.078 C 693.136 165.630, 691.485 170.557, 691.652 180.942 C 691.774 188.545, 692.134 190.625, 693.499 191.623 C 696.206 193.603, 698 192.191, 698 188.081 C 698 186.043, 698.843 182.604, 699.873 180.438 C 701.411 177.206, 703.222 169.700, 703.451 165.615 C 703.532 164.164, 699.666 163.198, 697.302 164.078 M 551.194 166.294 C 548.057 169.633, 547 174.126, 547 184.121 C 547 194.012, 548.177 196.151, 552.530 194.168 C 554.657 193.199, 555 192.377, 555 188.244 C 555 183.740, 556.304 180.665, 559.683 177.205 C 561.220 175.631, 563.239 168.487, 562.800 166.175 C 562.569 164.958, 561.244 164.419, 557.958 164.204 C 554.258 163.962, 553.027 164.342, 551.194 166.294 M 720 169.891 C 716.055 170.982, 716.239 174.366, 720.382 176.927 C 722.580 178.285, 724.303 180.389, 725.036 182.608 C 725.758 184.797, 727.756 187.260, 730.313 189.111 C 735.338 192.752, 739.054 192.671, 740.375 188.890 C 741.877 184.593, 740.396 181.243, 736.005 179.002 C 733.825 177.890, 731.352 175.648, 730.510 174.020 C 728.149 169.453, 725.436 168.387, 720 169.891 M 645.763 173.565 C 640.258 176.552, 641.401 184.465, 647.632 186.501 C 651.533 187.776, 653.689 189.578, 655.266 192.878 C 656.749 195.983, 660.121 196.764, 662.043 194.448 C 663.222 193.027, 663.043 192.087, 660.743 187.649 C 659.275 184.817, 657.792 180.582, 657.447 178.237 C 656.545 172.107, 651.884 170.244, 645.763 173.565 M 508.161 185.547 C 506.558 189.065, 506.707 194.512, 508.445 195.954 C 510.670 197.801, 514.272 196.787, 515.914 193.852 C 517.249 191.467, 517.213 190.798, 515.546 187.102 C 513.332 182.191, 510.008 181.491, 508.161 185.547" stroke="none" fill="#ffffff" fill-rule="evenodd"/>
</svg>