<svg xmlns="http://www.w3.org/2000/svg" width="1000" height="352" viewBox="0 0 1000 352" version="1.1">
	<path d="M 635 2 C 635 3.100, 634.438 4.007, 633.750 4.015 C 632.796 4.027, 632.783 4.211, 633.697 4.792 C 635.388 5.867, 633.579 8.436, 631.652 7.697 C 630.660 7.316, 629.880 7.803, 629.484 9.051 C 629.144 10.123, 628.390 11, 627.810 11 C 627.154 11, 627.226 10.432, 628 9.500 C 629.016 8.276, 628.958 8, 627.686 8 C 626.659 8, 626.020 9.106, 625.813 11.242 C 625.590 13.555, 624.927 14.588, 623.500 14.849 C 622.400 15.051, 620.894 15.708, 620.153 16.311 C 619.051 17.206, 619.143 17.542, 620.653 18.152 C 621.669 18.563, 619.959 18.640, 616.852 18.324 C 611.802 17.809, 611.085 17.973, 610.067 19.874 C 609.442 21.043, 608.259 22, 607.440 22 C 605.534 22, 603.753 26.624, 604.597 29.382 C 605.187 31.310, 605.047 31.276, 603.028 29 C 601.053 26.773, 600.848 26.719, 601.155 28.500 C 601.435 30.125, 601.020 30.444, 598.944 30.204 C 597.078 29.988, 596.033 30.570, 595.076 32.358 C 594.354 33.706, 594.069 35.302, 594.441 35.905 C 595.291 37.280, 593.916 37.299, 590.392 35.959 C 588.220 35.133, 587.328 35.248, 586.077 36.513 C 584.641 37.966, 584.645 38.053, 586.121 37.497 C 587.101 37.127, 587.980 37.504, 588.343 38.451 C 589.098 40.418, 582.950 43.355, 581.765 41.593 C 581.352 40.979, 581.024 41.558, 581.015 42.917 C 581.007 44.246, 580.716 45.049, 580.369 44.702 C 579.499 43.833, 575.782 45.919, 574.182 48.175 C 573.456 49.197, 572.444 49.774, 571.932 49.458 C 571.419 49.141, 571 49.632, 571 50.548 C 571 51.558, 571.546 52.004, 572.387 51.682 C 573.347 51.313, 573.624 51.720, 573.288 53.006 C 572.582 55.708, 570 56.418, 570 53.910 C 570 52.704, 569.559 52.154, 568.913 52.554 C 568.315 52.923, 568.048 54.075, 568.319 55.113 C 568.591 56.151, 568.477 57, 568.067 57 C 567.657 57, 566.808 58.125, 566.182 59.500 C 565.246 61.555, 564.337 62, 561.078 62 C 557.880 62, 555.893 62.932, 550.807 66.814 C 547.338 69.462, 544.061 72.600, 543.525 73.786 C 542.989 74.973, 541.414 76.424, 540.025 77.011 C 538.636 77.598, 536.176 79.860, 534.558 82.039 C 532.940 84.218, 531.261 86, 530.827 86 C 530.393 86, 526.992 88.840, 523.269 92.312 C 519.546 95.784, 515.150 99.575, 513.500 100.737 C 511.850 101.899, 507.085 106.146, 502.911 110.175 C 494.249 118.535, 486.515 125.345, 480 130.347 C 477.525 132.248, 474.349 135.085, 472.942 136.651 C 469.568 140.410, 460.167 148.330, 458.119 149.141 C 457.170 149.517, 455.505 153.032, 454.093 157.641 C 452.769 161.964, 450.632 168.277, 449.343 171.671 C 448.054 175.064, 447 178.786, 447 179.940 C 447 181.499, 445.650 182.659, 441.750 184.450 C 437.181 186.547, 436.785 186.947, 438.699 187.533 C 440.808 188.179, 440.909 188.777, 441.199 202.353 C 441.464 214.789, 441.286 216.718, 439.731 218.306 C 438.213 219.857, 438.056 221.236, 438.623 228.033 C 439.080 233.507, 438.922 236.390, 438.111 237.366 C 437.466 238.143, 434.256 239.782, 430.978 241.008 C 427.133 242.446, 422.975 245.110, 419.259 248.516 C 415.958 251.542, 413.226 253.354, 412.857 252.762 C 411.926 251.265, 410.010 255.295, 410.564 257.588 C 411.109 259.845, 409.463 262.796, 408.304 261.638 C 407.862 261.195, 407.444 258.621, 407.375 255.917 C 406.905 237.442, 406.835 236.556, 406 238.500 C 405.527 239.600, 405.109 242.386, 405.070 244.691 C 405.032 246.996, 404.523 249.177, 403.940 249.537 C 403.255 249.960, 403.091 252.904, 403.476 257.846 C 404.035 265.018, 403.916 265.673, 401.584 268.250 C 398.860 271.260, 396.951 271.501, 384.841 270.357 C 378.710 269.778, 378.142 269.525, 377.694 267.177 C 377.099 264.067, 377.864 261.788, 379.338 262.279 C 379.938 262.479, 381.120 261.267, 381.964 259.585 C 382.809 257.904, 384.552 256.010, 385.838 255.378 C 387.318 254.650, 387.765 253.973, 387.055 253.534 C 385.264 252.427, 379 251.895, 379 252.850 C 379 253.328, 375.836 253.799, 371.968 253.897 C 360.374 254.189, 360.130 254.403, 359.790 264.568 L 359.500 273.216 353.451 275.634 C 349.329 277.281, 345.664 279.789, 341.951 283.503 C 336.306 289.149, 334.605 290.192, 335.701 287.336 C 336.124 286.236, 335.953 285.911, 335.198 286.378 C 334.569 286.766, 333.517 288.881, 332.859 291.078 C 331.026 297.196, 330.033 293.955, 330.015 281.797 C 329.999 270.342, 330.910 266.944, 334.654 264.491 C 336.702 263.149, 336.980 262.226, 336.840 257.227 C 336.741 253.693, 336.525 252.744, 336.277 254.750 C 335.842 258.249, 335.420 258.423, 328.250 258.044 C 323.538 257.795, 323.059 258.376, 325.943 260.840 C 327.012 261.753, 327.999 263.175, 328.136 264 C 328.594 266.760, 326.855 278.972, 325.922 279.548 C 324.229 280.595, 324.949 284.902, 327 286 C 329.405 287.287, 329.710 292.166, 327.500 294 C 326.675 294.685, 326 296.038, 326 297.007 C 326 299.062, 321.946 302, 319.112 302 C 318.035 302, 315.769 300.835, 314.077 299.411 C 311.443 297.195, 311 296.144, 311 292.111 C 311 289.520, 311.533 286.867, 312.183 286.217 C 313.678 284.722, 312.995 284.041, 309.373 283.417 C 302.532 282.237, 302.793 282.721, 303.578 272.686 C 304.553 260.224, 305.041 258.767, 308.557 257.823 C 310.176 257.388, 312.175 257.237, 313 257.488 C 313.825 257.738, 316.412 258.177, 318.750 258.463 C 321.934 258.851, 323 258.638, 323 257.612 C 323 255.206, 309.747 251.457, 304.957 252.509 C 303.435 252.844, 301.966 252.753, 301.692 252.309 C 301.419 251.864, 302.951 247.923, 305.097 243.552 C 307.244 239.180, 309 234.536, 309 233.230 C 309 231.925, 309.563 230.230, 310.250 229.463 C 310.938 228.697, 312.108 227.350, 312.850 226.470 C 313.593 225.590, 315.393 224.947, 316.850 225.041 C 321.786 225.359, 322.369 225.150, 321.032 223.539 C 320.365 222.735, 318.848 221.785, 317.660 221.427 C 316.472 221.070, 314.034 220.100, 312.242 219.271 C 307.185 216.933, 303.956 218.765, 301.655 225.277 C 299.440 231.545, 295.969 244.288, 295.296 248.621 C 294.895 251.206, 294.133 251.966, 290.865 253.044 C 287.889 254.027, 287.083 254.734, 287.585 255.923 C 287.952 256.791, 288.339 261.775, 288.446 267 C 288.554 272.225, 288.997 278.365, 289.432 280.645 C 290.205 284.700, 290.149 284.817, 286.861 286.005 L 283.500 287.220 283.853 295.618 L 284.206 304.016 278.841 306.473 C 275.890 307.824, 271.702 310.745, 269.535 312.965 C 265.480 317.117, 263.342 318.157, 264.371 315.477 C 264.850 314.229, 264.593 314.147, 262.949 315.027 C 261.846 315.618, 260.218 317.914, 259.331 320.131 C 257.170 325.532, 256.335 323.733, 256.139 313.256 C 256.050 308.520, 255.807 304.474, 255.598 304.265 C 255.142 303.809, 252.866 314.662, 252.823 317.500 C 252.806 318.600, 252.853 320.400, 252.926 321.500 C 253.153 324.885, 251.852 329.878, 250.439 331.051 C 249.402 331.911, 248.399 331.454, 246.047 329.049 C 242.630 325.552, 242.091 321.661, 244.636 318.850 C 246.560 316.723, 246.115 316.483, 238.579 315.581 C 235.872 315.257, 233.467 314.801, 233.234 314.567 C 232.338 313.672, 232.808 300.305, 233.872 296.413 C 235.090 291.957, 237.890 290, 243.047 290 C 244.671 290, 246 289.539, 246 288.975 C 246 287.632, 241.621 286, 238.017 286 C 233.747 286, 232.001 285.026, 231.995 282.643 C 231.989 280.049, 235.200 270.633, 236.250 270.167 C 236.663 269.983, 237 269.392, 237 268.852 C 237 265.963, 241.382 258.133, 243.276 257.638 C 245.367 257.091, 245.369 257.065, 243.457 254.953 C 240.730 251.939, 241.034 249.796, 244.500 247.596 C 246.581 246.276, 247.067 245.545, 246.087 245.209 C 245.310 244.943, 244.073 245.548, 243.337 246.554 C 242.602 247.559, 242 248.054, 242 247.652 C 242 247.251, 241.002 247.852, 239.781 248.989 C 238.561 250.126, 236.199 251.421, 234.531 251.867 C 231.891 252.572, 231.532 253.081, 231.750 255.810 C 231.887 257.533, 230.840 261.543, 229.423 264.722 C 226.293 271.740, 224.261 277.651, 223.825 281 C 223.608 282.670, 222.306 284.139, 219.902 285.426 C 217.205 286.871, 216.304 287.996, 216.302 289.926 C 216.301 291.342, 215.942 294.671, 215.504 297.325 C 214.665 302.411, 216.598 316, 218.160 316 C 219.822 316, 218.954 317.546, 216.750 318.513 C 214.729 319.400, 214.470 320.309, 214.204 327.453 C 214.042 331.827, 213.484 335.916, 212.966 336.541 C 212.448 337.165, 210.249 338.208, 208.079 338.858 C 205.909 339.508, 201.629 342.081, 198.567 344.575 C 195.505 347.069, 193 348.549, 193 347.864 C 193 346.583, 190.089 349.904, 190.032 351.250 C 189.956 353.044, 193.914 351.779, 195.381 349.541 C 197.461 346.366, 202.966 344.779, 210.500 345.180 C 216.462 345.498, 216.502 345.520, 216.813 348.750 L 217.127 352 240.563 352 L 264 352 264.004 338.250 C 264.008 323.404, 264.978 320.018, 270.202 316.610 C 273.519 314.446, 281.651 312.844, 285.578 313.581 L 288.957 314.214 289.228 332.857 L 289.500 351.500 297.088 351.789 L 304.677 352.078 304.802 339.750 C 304.892 330.794, 305.378 326.337, 306.576 323.460 C 307.483 321.282, 308.521 319.275, 308.883 319 C 309.245 318.725, 310.039 317.362, 310.648 315.972 C 311.257 314.582, 312.597 313.347, 313.627 313.229 C 314.657 313.110, 316.390 312.898, 317.478 312.757 C 319.087 312.548, 319.560 313.245, 320.013 316.500 C 320.319 318.700, 320.868 320.980, 321.231 321.567 C 322.694 323.929, 326.013 338.293, 326.630 344.932 L 327.287 352 332.144 352 L 337 352 337 322.035 L 337 292.070 340.094 288.546 C 343.430 284.746, 350.542 281.988, 356.932 282.015 C 361.249 282.034, 362.609 282.861, 362.666 285.500 C 362.689 286.600, 362.991 296.050, 363.337 306.500 C 363.683 316.950, 363.974 331.462, 363.983 338.750 L 364 352 370.750 352.001 L 377.500 352.002 377.625 339.751 C 377.860 316.643, 378.043 312.484, 379.183 304.237 C 379.812 299.693, 380.928 295.475, 381.663 294.865 C 382.398 294.254, 383 293.135, 383 292.378 C 383 291.620, 383.450 291, 384 291 C 384.550 291, 385 290.410, 385 289.689 C 385 288.967, 385.810 287.505, 386.800 286.439 C 387.791 285.372, 388.902 283.712, 389.269 282.750 C 390.331 279.968, 393.904 280.589, 395.025 283.750 C 395.562 285.262, 396.438 287.261, 396.972 288.190 C 397.506 289.120, 398.463 292.945, 399.099 296.690 C 399.735 300.436, 400.644 305.525, 401.119 308 C 401.594 310.475, 402.280 321.387, 402.642 332.250 L 403.301 352 408.015 352 L 412.728 352 413.386 340.750 C 413.747 334.563, 414.015 314.650, 413.980 296.500 C 413.946 278.350, 413.936 261.985, 413.959 260.132 C 414.047 252.952, 426.470 245.341, 436.720 246.188 L 440.500 246.500 441 267.347 C 441.275 278.813, 441.155 288.407, 440.734 288.666 C 440.312 288.926, 440.209 289.529, 440.504 290.007 C 441.216 291.159, 441.279 348.055, 440.569 348.765 C 440.265 349.068, 440.519 349.920, 441.131 350.658 C 442.052 351.768, 464.446 352, 570.622 352 L 699 352 699 347.535 C 699 342.702, 699.416 342.272, 706.591 339.696 C 719.975 334.892, 778.820 312.631, 780.465 311.751 C 781.562 311.164, 783.083 310.060, 783.845 309.297 C 786.678 306.465, 787.496 308.506, 787.766 319.081 C 788.195 335.898, 788.651 337.520, 788.832 322.872 C 788.950 313.316, 789.373 308.960, 790.250 308.291 C 790.938 307.767, 794.425 306.310, 798 305.054 C 801.575 303.797, 809 301.036, 814.500 298.918 C 820 296.799, 843.608 287.835, 866.963 278.998 C 890.317 270.160, 909.754 262.399, 910.154 261.750 C 910.555 261.102, 911.922 260.502, 913.192 260.417 C 914.461 260.332, 916.625 259.821, 918 259.281 C 922.928 257.348, 977.722 236.554, 988.500 232.527 L 999.500 228.418 999.805 223.713 C 1000.099 219.168, 1000.031 219.038, 997.805 219.887 C 974.418 228.803, 951.220 237.683, 946.500 239.525 C 943.200 240.813, 932.625 244.866, 923 248.532 C 913.375 252.198, 901.675 256.698, 897 258.531 C 889.163 261.605, 834.233 282.639, 800 295.675 C 767.471 308.062, 750.844 314.430, 738.500 319.227 C 731.350 322.006, 723.250 325.092, 720.500 326.085 C 717.750 327.077, 708.300 330.615, 699.500 333.945 C 690.700 337.275, 682.923 340, 682.217 340 C 681.233 340, 681 337.392, 681.217 328.791 L 681.500 317.581 689.500 314.298 C 703.391 308.596, 703.676 308.371, 704.371 302.587 C 704.708 299.789, 704.987 294.042, 704.991 289.816 L 705 282.132 709.250 279.280 L 713.500 276.428 713.780 264.360 L 714.059 252.291 709.030 250.201 L 704 248.111 704 238.499 L 704 228.886 711.750 225.458 C 716.013 223.572, 721.164 221.123, 723.198 220.015 C 725.232 218.907, 727.447 218, 728.120 218 C 729.239 218, 772.014 200.701, 782.168 196.142 C 784.550 195.073, 799.100 189.160, 814.500 183.004 C 829.900 176.847, 843.903 170.953, 845.618 169.905 C 847.333 168.857, 849.260 168, 849.899 168 C 851.245 168, 910 144.140, 911.500 142.984 C 912.050 142.561, 915.650 141.084, 919.500 139.703 C 926.412 137.224, 972.685 118.278, 978.500 115.546 C 980.150 114.771, 985.100 112.745, 989.500 111.045 C 998.353 107.625, 1000.713 106.379, 999.894 105.561 C 999.172 104.838, 1006.671 101.809, 862 161.255 C 829.825 174.476, 792.025 189.989, 778 195.728 C 763.975 201.466, 741.250 210.798, 727.500 216.465 C 713.750 222.132, 701.487 227.076, 700.250 227.452 C 698.105 228.103, 698 227.875, 698 222.603 C 698 217.990, 698.352 216.882, 700.119 215.936 C 701.284 215.313, 713.997 209.926, 728.369 203.966 L 754.500 193.130 754.810 189.018 C 755.064 185.643, 755.589 184.727, 757.732 183.912 C 761.422 182.509, 763.329 183.496, 762.753 186.512 C 762.159 189.620, 762.970 189.607, 770.500 186.385 C 773.800 184.973, 782.800 181.216, 790.500 178.037 C 798.200 174.858, 811.250 169.449, 819.500 166.018 C 827.750 162.586, 838.100 158.301, 842.500 156.495 C 846.900 154.689, 857.250 150.414, 865.500 146.995 C 873.750 143.577, 884.100 139.309, 888.500 137.511 C 892.900 135.714, 903.250 131.445, 911.500 128.024 C 919.750 124.604, 932.350 119.412, 939.500 116.486 C 946.650 113.560, 960.825 107.699, 971 103.462 C 981.175 99.224, 991.862 94.848, 994.750 93.737 L 1000 91.717 1000 45.859 C 1000 0.765, 999.967 0, 998.013 0 C 996.156 0, 996.041 0.607, 996.263 9.218 C 996.471 17.307, 996.286 18.480, 994.750 18.791 C 993.355 19.075, 993 18.452, 993 15.720 C 993 13.835, 992.711 9.527, 992.358 6.147 C 991.739 0.226, 991.611 0, 988.901 0 C 986.105 0, 986.086 0.046, 985.794 7.166 L 985.500 14.331 977.500 16.984 C 973.100 18.443, 964.100 22.013, 957.500 24.918 C 926.903 38.383, 923.175 40, 922.722 40 C 922.457 40, 921.898 34.712, 921.481 28.250 C 921.063 21.787, 920.521 17.065, 920.275 17.756 C 919.076 21.133, 918 16.964, 918 8.941 L 918 0 888 0 L 858 0 858 4.935 C 858 7.649, 857.478 11.137, 856.840 12.685 C 856.201 14.233, 855.778 16.094, 855.900 16.820 C 856.090 17.961, 852.836 30.641, 851.234 35 C 850.931 35.825, 850.744 36.808, 850.820 37.185 C 850.895 37.562, 850.292 39.756, 849.478 42.061 C 848.665 44.366, 848 47.918, 848 49.954 C 848 53.582, 843.239 62.465, 840.322 64.281 C 839.632 64.710, 837.281 68.873, 835.099 73.531 C 832.602 78.858, 830.549 82, 829.565 82 C 827.390 82, 827.584 82.949, 830.803 88.054 C 832.344 90.499, 833.986 93.128, 834.451 93.895 C 835.112 94.984, 834.734 95.182, 832.732 94.800 C 830.700 94.411, 829.140 95.277, 825.237 98.962 C 812.681 110.812, 807.885 113.531, 805.372 110.223 C 804.156 108.622, 804.064 108.641, 804.069 110.500 C 804.072 111.600, 806.893 118.227, 810.339 125.226 C 813.785 132.225, 815.870 137.287, 814.973 136.476 C 812.934 134.630, 811.051 134.647, 808.559 136.532 C 807.491 137.339, 804.791 137.995, 802.559 137.989 C 798.158 137.978, 775.373 134.571, 770.500 133.195 C 768.716 132.692, 766.154 132.760, 764.179 133.364 L 760.858 134.379 761.010 151.940 C 761.257 180.546, 761.490 178.512, 757.750 180.330 L 754.500 181.910 753.881 174.705 C 753.540 170.742, 753.203 163.843, 753.131 159.372 C 753.048 154.213, 752.544 150.880, 751.750 150.245 C 751.063 149.696, 747.499 148.734, 743.831 148.108 C 729.953 145.739, 709.704 137.560, 701.090 130.843 L 696.680 127.405 693.617 130.202 C 691.933 131.741, 689.836 133, 688.957 133 C 688.079 133, 686.366 134.143, 685.151 135.541 C 683.936 136.939, 682.509 137.814, 681.979 137.487 C 681.450 137.160, 679.902 138.007, 678.539 139.370 C 676.695 141.214, 674.582 142.003, 670.280 142.451 C 662.232 143.291, 659.474 144.288, 659.639 146.300 C 659.816 148.462, 659.178 148.434, 653.583 146.036 C 650.620 144.765, 648.989 143.440, 648.968 142.286 C 648.939 140.639, 648.822 140.651, 647.468 142.441 C 646.661 143.509, 646 145.196, 646 146.191 C 646 147.186, 645.663 148.001, 645.250 148.001 C 644.837 148.002, 644.654 145.527, 644.843 142.501 C 645.031 139.476, 645.620 137, 646.152 137 C 646.683 137, 646.842 136.554, 646.505 136.008 C 645.969 135.141, 649.837 129.401, 653.861 125.092 C 655.015 123.857, 654.948 123.435, 653.420 122.318 C 652.429 121.593, 651.300 121, 650.912 121 C 650.524 121, 647.408 124.156, 643.989 128.013 C 638.993 133.647, 637.867 135.525, 638.258 137.571 C 638.637 139.552, 638.406 139.986, 637.217 139.530 C 636.377 139.207, 634.747 139.822, 633.595 140.897 C 632.443 141.971, 629.250 143.733, 626.500 144.813 C 623.750 145.893, 614.525 150.023, 606 153.991 C 582.788 164.795, 567.314 171.847, 554 177.688 L 548.500 180.101 562.500 166.268 C 570.200 158.659, 584.825 144.343, 595 134.454 C 605.175 124.565, 619.288 110.042, 626.361 102.181 C 633.435 94.321, 639.456 88.123, 639.742 88.408 C 640.298 88.965, 632.191 98.598, 627.094 103.437 C 625.392 105.052, 624 106.746, 624 107.200 C 624 108.094, 634.702 113.200, 636.750 113.283 C 637.438 113.311, 638 113.625, 638 113.982 C 638 115.037, 650.803 119.240, 651.918 118.550 C 652.481 118.203, 654.282 118.612, 655.921 119.459 C 657.560 120.307, 659.936 121, 661.200 121.001 C 662.465 121.001, 665.694 121.835, 668.375 122.853 L 673.250 124.704 684.375 119.675 C 690.494 116.909, 697.075 113.628, 699 112.384 C 700.925 111.139, 709.925 106.891, 719 102.943 C 745.812 91.278, 770.971 79.980, 779 76 C 783.125 73.955, 790.230 70.805, 794.789 68.999 C 799.616 67.087, 803.898 64.674, 805.039 63.223 C 807.393 60.231, 807.447 59.590, 805.509 57.652 C 804.379 56.522, 804.318 56.039, 805.259 55.659 C 805.942 55.384, 805.487 55.066, 804.250 54.954 C 801.089 54.667, 800.754 54.571, 798.423 53.272 C 797.281 52.635, 795.031 51.921, 793.423 51.685 C 791.534 51.407, 790.642 50.768, 790.902 49.878 C 791.123 49.120, 791.390 47.375, 791.496 46 C 791.845 41.452, 791.991 41, 793.109 41 C 793.787 41, 794.061 42.352, 793.814 44.471 C 793.553 46.707, 793.870 48.120, 794.704 48.440 C 795.417 48.713, 796 48.324, 796 47.576 C 796 46.827, 796.712 45.941, 797.582 45.607 C 799.780 44.764, 800.214 44.845, 799.518 45.971 C 799.188 46.505, 800.062 47.228, 801.459 47.579 C 804.407 48.319, 805.058 51.982, 802.250 52.030 C 800.653 52.058, 800.664 52.156, 802.369 53.147 C 803.596 53.860, 804.455 53.890, 804.869 53.235 C 806.006 51.436, 810.749 52.123, 811.686 54.222 C 812.425 55.878, 813.321 54.698, 817.290 46.847 C 819.888 41.706, 822.011 36.808, 822.007 35.962 C 822.002 34.949, 810.428 28.544, 788.129 17.212 L 754.257 0 696.629 0 C 638.223 0, 638.328 -0.006, 638.906 3.324 C 638.985 3.778, 638.558 3.845, 637.957 3.473 C 637.355 3.102, 637.105 2.168, 637.400 1.399 C 637.710 0.592, 637.316 0, 636.469 0 C 635.661 0, 635 0.900, 635 2 M 824.286 4.500 C 824.294 7.250, 824.488 8.256, 824.718 6.736 C 824.947 5.216, 824.941 2.966, 824.704 1.736 C 824.467 0.506, 824.279 1.750, 824.286 4.500 M 587 3 C 584.673 3.745, 584.651 3.808, 586.691 3.900 C 587.896 3.955, 589.160 3.550, 589.500 3 C 589.840 2.450, 589.979 2.045, 589.809 2.100 C 589.639 2.155, 588.375 2.560, 587 3 M 592.269 2.693 C 593.242 2.947, 594.592 2.930, 595.269 2.656 C 595.946 2.382, 595.150 2.175, 593.500 2.195 C 591.850 2.215, 591.296 2.439, 592.269 2.693 M 679.250 8.745 C 676.379 10.174, 675.467 11.672, 675.888 14.269 C 675.956 14.691, 674.923 15.534, 673.591 16.141 C 672.259 16.747, 670.950 18.084, 670.682 19.110 C 670.413 20.136, 669.070 21.403, 667.698 21.925 C 666.325 22.447, 664.594 23.719, 663.851 24.753 C 663.108 25.786, 661.712 26.925, 660.750 27.284 C 659.788 27.643, 659 28.836, 659 29.933 C 659 31.031, 658.100 32.411, 657 33 C 655.900 33.589, 655 34.730, 655 35.535 C 655 36.341, 654.409 37, 653.687 37 C 652.240 37, 648.245 41.074, 645.783 45.061 C 644.439 47.238, 644.379 48.409, 645.382 52.863 C 646.521 57.921, 647.984 58.876, 648.015 54.583 C 648.027 52.990, 648.238 52.828, 648.914 53.894 C 649.643 55.046, 650.425 54.900, 653.410 53.055 C 655.398 51.827, 658.269 49.624, 659.791 48.161 C 661.313 46.697, 664.161 44.213, 666.119 42.639 C 668.763 40.514, 669.569 39.194, 669.247 37.510 C 668.869 35.535, 669.149 35.306, 671.402 35.737 C 673.292 36.098, 674.525 35.592, 675.963 33.866 C 677.047 32.565, 677.948 30.952, 677.967 30.281 C 677.985 29.611, 678.603 29.294, 679.340 29.577 C 680.747 30.117, 683.688 27.355, 682.728 26.395 C 682.422 26.089, 681.278 26.316, 680.186 26.901 C 678.630 27.733, 678.070 27.625, 677.600 26.400 C 676.472 23.460, 677 21.474, 679.172 20.487 C 683.655 18.449, 687.113 11.047, 684.854 8.324 C 683.513 6.708, 683.313 6.723, 679.250 8.745 M 622 12.500 C 622 13.325, 622.177 14, 622.393 14 C 622.609 14, 623.045 13.325, 623.362 12.500 C 623.678 11.675, 623.501 11, 622.969 11 C 622.436 11, 622 11.675, 622 12.500 M 675 19 C 675 19.550, 675.477 20, 676.059 20 C 676.641 20, 676.840 19.550, 676.500 19 C 676.160 18.450, 675.684 18, 675.441 18 C 675.198 18, 675 18.450, 675 19 M 607.079 27.583 C 607.127 28.748, 607.364 28.985, 607.683 28.188 C 607.972 27.466, 607.936 26.603, 607.604 26.271 C 607.272 25.939, 607.036 26.529, 607.079 27.583 M 750 26.504 C 750 27.712, 752.859 30, 754.370 30 C 755.201 30, 756.160 30.450, 756.500 31 C 756.840 31.550, 758.018 32, 759.118 32 C 760.218 32, 760.840 32.450, 760.500 33 C 760.160 33.550, 760.341 34, 760.902 34 C 761.463 34, 762.906 35.013, 764.108 36.250 C 765.310 37.487, 765.965 37.919, 765.563 37.210 C 765.014 36.240, 765.474 36.081, 767.416 36.568 C 769.031 36.974, 770 36.801, 770 36.108 C 770 35.499, 769.325 35, 768.500 35 C 767.675 35, 767 34.148, 767 33.107 C 767 30.952, 764.557 29.599, 761.250 29.923 C 759.941 30.051, 759 29.591, 759 28.822 C 759 28.095, 757.987 27.478, 756.750 27.451 C 755.513 27.424, 753.487 27.056, 752.250 26.633 C 751.013 26.211, 750 26.153, 750 26.504 M 991.145 29.750 C 990.090 32.394, 988.075 40.552, 988.024 42.385 C 988.011 42.872, 988.932 42.084, 990.072 40.635 C 991.332 39.034, 992.367 35.844, 992.712 32.500 C 993.337 26.444, 992.824 25.543, 991.145 29.750 M 590.500 32 C 590.160 32.550, 590.584 33, 591.441 33 C 592.298 33, 593 32.550, 593 32 C 593 31.450, 592.577 31, 592.059 31 C 591.541 31, 590.840 31.450, 590.500 32 M 774 40.107 C 774 40.716, 774.661 40.960, 775.468 40.651 C 776.275 40.341, 777.202 40.518, 777.527 41.044 C 777.852 41.570, 777.191 42, 776.059 42 C 774.927 42, 774 42.450, 774 43 C 774 43.550, 774.691 44, 775.535 44 C 776.380 44, 778.198 44.739, 779.576 45.642 C 783.277 48.067, 786.833 48.181, 788.046 45.913 C 788.848 44.415, 788.737 44, 787.535 44 C 786.691 44, 786 43.611, 786 43.136 C 786 42.126, 778.227 39, 775.717 39 C 774.772 39, 774 39.498, 774 40.107 M 912.762 44.503 C 911.859 46.941, 910.334 56.175, 909.374 65.024 L 907.629 81.113 899.870 95.173 C 890.445 112.252, 884.789 124, 885.990 124 C 886.481 124, 887.160 123.550, 887.500 123 C 887.840 122.450, 888.991 122, 890.059 122 C 891.127 122, 892 121.550, 892 121 C 892 120.450, 892.620 120, 893.378 120 C 894.135 120, 895.354 119.278, 896.086 118.396 C 896.819 117.514, 898.449 116.400, 899.709 115.921 C 900.969 115.441, 902.014 114.251, 902.031 113.275 C 902.078 110.650, 906.787 107.504, 911.309 107.077 C 911.754 107.034, 911.869 106.597, 911.565 106.105 C 911.260 105.612, 911.788 104.912, 912.737 104.548 C 913.686 104.183, 914.612 104.336, 914.796 104.887 C 915.339 106.518, 918.083 104.912, 919.037 102.403 C 919.685 100.698, 921.423 99.642, 925.560 98.439 C 928.662 97.538, 932.071 95.929, 933.137 94.863 C 934.202 93.798, 935.619 93.241, 936.286 93.624 C 936.954 94.007, 937.162 93.948, 936.748 93.491 C 935.814 92.462, 938.825 89, 940.655 89 C 941.395 89, 942 88.633, 942 88.184 C 942 86.688, 956.984 76.872, 958.159 77.598 C 958.821 78.008, 959.038 77.871, 958.671 77.277 C 958.320 76.709, 959.833 75.053, 962.034 73.596 C 965.337 71.410, 966.399 71.143, 968.124 72.066 C 969.953 73.045, 970.702 72.645, 974.143 68.842 C 977.411 65.232, 978.246 64.753, 979.102 66 C 979.908 67.174, 979.999 67.029, 979.524 65.331 C 979.089 63.779, 979.427 62.998, 980.708 62.588 C 982.664 61.962, 987.553 53.069, 988.241 48.887 C 988.942 44.618, 985.939 46.414, 982.136 52.538 C 977.661 59.745, 971.483 65.284, 965.441 67.506 C 959.059 69.854, 949.118 73.861, 924.814 83.883 C 913.987 88.347, 904.643 92, 904.050 92 C 903.457 92, 904.132 90.246, 905.550 88.103 C 908.610 83.480, 910.518 75.652, 911.425 64 C 911.789 59.325, 912.771 52.190, 913.606 48.145 C 914.441 44.100, 914.962 40.629, 914.765 40.431 C 914.567 40.233, 913.666 42.066, 912.762 44.503 M 812.079 52.583 C 812.127 53.748, 812.364 53.985, 812.683 53.188 C 812.972 52.466, 812.936 51.603, 812.604 51.271 C 812.272 50.939, 812.036 51.529, 812.079 52.583 M 638.584 52.778 C 636.743 53.194, 627.500 62.541, 627.500 63.987 C 627.500 64.528, 617.066 74.378, 615.115 75.679 C 614.256 76.253, 617.335 82, 618.501 82 C 619.954 82, 631.327 73.395, 631.850 71.899 C 632.043 71.349, 633.955 69.791, 636.100 68.437 C 638.245 67.083, 640 65.361, 640 64.610 C 640 63.859, 640.709 62.656, 641.576 61.937 C 642.738 60.973, 642.981 59.690, 642.499 57.064 C 641.724 52.845, 641.136 52.202, 638.584 52.778 M 561.250 56.662 C 559.560 57.344, 559.661 59, 561.393 59 C 562.159 59, 563.045 58.325, 563.362 57.500 C 563.950 55.967, 563.458 55.771, 561.250 56.662 M 802.813 58.683 C 803.534 58.972, 804.397 58.936, 804.729 58.604 C 805.061 58.272, 804.471 58.036, 803.417 58.079 C 802.252 58.127, 802.015 58.364, 802.813 58.683 M 608.173 82.584 C 607.561 83.638, 607.047 83.938, 607.030 83.250 C 607.014 82.563, 606.377 82, 605.617 82 C 604.142 82, 602.899 86.224, 603.901 87.832 C 604.892 89.423, 608.582 89.592, 610.346 88.127 C 612.355 86.460, 612.434 84.975, 610.642 82.526 C 609.323 80.721, 609.254 80.722, 608.173 82.584 M 650 136 C 650 136.550, 650.477 137, 651.059 137 C 651.641 137, 651.840 136.550, 651.500 136 C 651.160 135.450, 650.684 135, 650.441 135 C 650.198 135, 650 135.450, 650 136 M 400 170.787 C 400 171.220, 401.383 171.680, 403.072 171.809 C 404.957 171.952, 405.901 171.648, 405.513 171.021 C 404.776 169.829, 400 169.626, 400 170.787 M 384 184.902 C 384 185.398, 382.538 186.361, 380.750 187.042 C 378.529 187.887, 378.016 188.409, 379.130 188.690 C 380.557 189.049, 380.389 190.059, 377.780 196.800 C 376.140 201.035, 374.501 205.850, 374.137 207.500 C 373.131 212.060, 368.062 221.156, 366.920 220.451 C 366.366 220.108, 364.794 220.560, 363.427 221.456 C 361.197 222.917, 361.098 223.241, 362.471 224.614 C 363.656 225.799, 364 228.593, 364 237.024 C 364 250.597, 364.981 253.216, 369.938 252.879 C 375.871 252.476, 377.284 251.327, 376.564 247.491 C 376.054 244.771, 376.289 244.043, 377.834 243.553 C 379.346 243.073, 379.867 241.592, 380.413 236.226 C 381.389 226.638, 381.898 225.157, 384.344 224.801 C 386.150 224.539, 385.794 224.085, 382.146 222.002 C 377.865 219.556, 377.800 219.440, 378.245 215.007 C 378.672 210.747, 386.213 193.152, 388.133 191.933 C 388.624 191.621, 390.933 191.499, 393.263 191.662 C 397.186 191.936, 397.356 191.848, 395.559 190.479 C 394.491 189.666, 392.611 189, 391.381 189 C 390.151 189, 388.260 187.875, 387.179 186.500 C 385.144 183.914, 384 183.339, 384 184.902 M 341.269 197.693 C 342.242 197.947, 343.592 197.930, 344.269 197.656 C 344.946 197.382, 344.150 197.175, 342.500 197.195 C 340.850 197.215, 340.296 197.439, 341.269 197.693 M 328.500 199 C 326.103 199.610, 326.745 199.787, 331.691 199.882 C 335.096 199.947, 338.160 199.550, 338.500 199 C 339.217 197.841, 333.056 197.841, 328.500 199 M 413.185 218.562 C 412.982 221.915, 409.393 230.081, 407.627 231.208 C 406.829 231.717, 406.866 232.266, 407.758 233.158 C 408.607 234.007, 409 234.044, 409 233.277 C 409 232.659, 410.149 230.788, 411.554 229.119 C 413.736 226.525, 414.054 225.313, 413.739 220.792 C 413.536 217.881, 413.287 216.878, 413.185 218.562 M 265.720 231.386 C 260.342 231.999, 255.920 232.849, 255.895 233.275 C 255.779 235.255, 256.807 235.955, 260.750 236.581 C 264.178 237.125, 265 236.962, 265 235.739 C 265 234.829, 266.301 233.960, 268.250 233.566 C 271.499 232.910, 278.389 230.113, 276.500 230.218 C 275.950 230.248, 271.099 230.774, 265.720 231.386 M 378.079 258.583 C 378.127 259.748, 378.364 259.985, 378.683 259.188 C 378.972 258.466, 378.936 257.603, 378.604 257.271 C 378.272 256.939, 378.036 257.529, 378.079 258.583 M 915.232 265 C 915.232 266.925, 915.438 267.712, 915.689 266.750 C 915.941 265.788, 915.941 264.212, 915.689 263.250 C 915.438 262.288, 915.232 263.075, 915.232 265 M 261.589 289.039 C 260.390 291.525, 258.993 293, 257.839 293 C 255.772 293, 255.321 295.559, 257.250 296.338 C 258.211 296.726, 258.198 296.860, 257.191 296.921 C 256.471 296.964, 256.160 297.450, 256.500 298 C 256.840 298.550, 256.641 299, 256.059 299 C 255.477 299, 255.018 300.012, 255.040 301.250 C 255.076 303.275, 255.234 303.200, 256.619 300.500 C 257.465 298.850, 259.503 296.317, 261.146 294.871 C 263.598 292.714, 264.078 291.598, 263.818 288.660 L 263.500 285.078 261.589 289.039 M 334.079 295.583 C 334.127 296.748, 334.364 296.985, 334.683 296.188 C 334.972 295.466, 334.936 294.603, 334.604 294.271 C 334.272 293.939, 334.036 294.529, 334.079 295.583 M 260 324.378 C 260 325.685, 260.753 327.373, 261.673 328.128 C 263.176 329.360, 263.279 329.245, 262.687 327 C 262.324 325.625, 262.021 323.938, 262.014 323.250 C 262.006 322.563, 261.550 322, 261 322 C 260.450 322, 260 323.070, 260 324.378 M 788.079 339.583 C 788.127 340.748, 788.364 340.985, 788.683 340.188 C 788.972 339.466, 788.936 338.603, 788.604 338.271 C 788.272 337.939, 788.036 338.529, 788.079 339.583 M 995.500 350.536 L 992.500 351.910 996.250 351.955 C 998.937 351.987, 1000 351.575, 1000 350.500 C 1000 348.720, 999.457 348.724, 995.500 350.536" stroke="none" fill="#ffffff" fill-rule="evenodd"/>
</svg>