<svg xmlns="http://www.w3.org/2000/svg" width="1000" height="557" viewBox="0 0 1000 557" version="1.1">
	<path d="M 467.102 16.583 C 463.771 17.479, 460.228 19.369, 457.849 21.517 C 455.729 23.433, 453.482 25, 452.855 25 C 452.228 25, 448.570 25.937, 444.725 27.082 C 439.080 28.763, 436.980 29.992, 433.821 33.464 C 431.593 35.912, 427.978 38.501, 425.427 39.475 C 422.045 40.766, 420.468 42.123, 418.998 45.004 C 417.768 47.415, 415.474 49.686, 412.775 51.165 C 409.792 52.799, 407.744 54.953, 406 58.287 C 404.625 60.915, 402.066 63.927, 400.314 64.980 C 396.381 67.341, 395 69.807, 395 74.466 C 395 81.545, 400.320 79.947, 405.131 71.422 C 407.223 67.716, 409.254 65.503, 411.381 64.614 C 414.193 63.439, 420.175 57.705, 421.134 55.264 C 421.335 54.752, 424.454 52.692, 428.064 50.685 C 431.675 48.678, 436.592 45.223, 438.992 43.007 C 442.119 40.120, 445.295 38.401, 450.198 36.941 C 453.962 35.820, 458.494 33.637, 460.270 32.090 C 465.739 27.327, 469.511 26.016, 483.755 23.929 C 498.594 21.754, 502.382 20.661, 501.754 18.736 C 500.622 15.262, 477.383 13.818, 467.102 16.583 M 462.842 59.750 C 462.035 60.712, 460.605 62.737, 459.664 64.250 C 458.536 66.065, 457.101 67, 455.445 67 C 454.065 67, 451.339 67.667, 449.388 68.482 C 445.683 70.030, 433.984 80.019, 426.098 88.368 C 423.569 91.045, 418.954 95.776, 415.842 98.881 C 412.466 102.250, 409.201 106.749, 407.746 110.039 C 406.405 113.072, 403.665 117.341, 401.656 119.526 C 397.518 124.029, 396.801 125.839, 394.057 138.708 C 392.978 143.773, 391.360 149.336, 390.463 151.072 C 387.387 157.021, 385.941 162.426, 385.001 171.495 C 383.522 185.755, 385.771 190.491, 390.480 183.032 C 391.903 180.778, 394.803 177.711, 396.924 176.217 C 399.370 174.494, 401.510 171.789, 402.773 168.824 C 404.054 165.818, 406.189 163.140, 408.752 161.324 C 410.944 159.771, 413.696 157.046, 414.866 155.268 C 416.044 153.480, 419.341 150.852, 422.247 149.386 C 425.136 147.928, 429.008 144.983, 430.850 142.841 C 434.610 138.471, 437.946 136.502, 445.273 134.326 C 449.127 133.182, 451.596 131.465, 455.922 126.918 L 461.553 121 469.527 120.952 C 479.323 120.893, 484.342 118.864, 484.814 114.771 C 485.065 112.596, 484.461 111.642, 481.814 110.028 C 475.751 106.331, 469.307 107.619, 462.510 113.884 C 459.368 116.780, 457.247 117.831, 453.512 118.343 C 450.275 118.787, 445.849 120.678, 440.404 123.943 C 430.571 129.841, 425.725 131.355, 421.015 130.004 C 416.914 128.828, 416.035 127.577, 416.015 122.885 C 415.999 119.140, 418.091 115.721, 423.274 111.017 C 424.800 109.633, 426.825 106.927, 427.774 105.005 C 428.813 102.902, 431.165 100.598, 433.684 99.217 C 435.985 97.955, 439.477 94.683, 441.445 91.944 C 444.038 88.335, 446.463 86.319, 450.261 84.618 C 456.630 81.764, 459.483 78.776, 460.879 73.500 L 461.938 69.500 468.824 69.826 C 474.902 70.114, 476.037 69.873, 478.484 67.768 C 480.640 65.913, 481.095 64.875, 480.532 63.100 C 479.071 58.498, 465.972 56.018, 462.842 59.750 M 495.606 152.544 C 470.727 155.131, 467.059 155.952, 459.961 160.525 C 457.161 162.329, 451.036 165, 446.349 166.462 C 440.067 168.420, 436.732 170.121, 433.663 172.930 C 431.373 175.026, 427.587 177.708, 425.250 178.891 C 422.805 180.128, 419.964 182.680, 418.563 184.900 C 417.224 187.022, 414.518 189.753, 412.551 190.968 C 408.396 193.537, 407.652 194.742, 404.996 203.217 C 402.079 212.519, 402.370 218.595, 406.068 225.648 C 409.923 233.002, 412.453 235.657, 419.713 239.971 C 422.896 241.863, 426.969 244.659, 428.763 246.186 C 433.137 249.907, 436.437 251.486, 443 253 C 446.025 253.698, 451.875 256.001, 456 258.118 C 462.635 261.523, 464.768 262.084, 474.500 262.983 C 488.335 264.260, 505.988 264.274, 516.937 263.015 C 523.312 262.282, 527.466 261.070, 533.937 258.057 C 538.646 255.864, 544.525 253.582, 547 252.988 C 554.293 251.235, 557.239 249.853, 562 245.950 C 564.475 243.921, 569.254 240.875, 572.619 239.182 C 576.324 237.318, 579.525 234.861, 580.733 232.953 C 581.830 231.220, 584.876 228.159, 587.502 226.151 C 591.446 223.135, 592.978 220.936, 596.316 213.500 C 602.145 200.515, 602.218 196.965, 596.934 183.449 C 592.472 172.035, 590.664 169.625, 582.895 164.731 C 580.478 163.208, 576.925 160.637, 575 159.018 C 570.478 155.215, 563.353 153.499, 544 151.554 C 525.079 149.652, 523.024 149.694, 495.606 152.544 M 417.929 368.750 C 409.944 372.795, 409.616 373.928, 411.061 392.463 C 412.181 406.842, 411.965 423.751, 410.408 443.500 C 409.827 450.878, 409.947 451.653, 411.957 453.467 C 413.939 455.256, 414.370 455.301, 416.720 453.967 C 420.966 451.556, 421.572 449.760, 420.259 443.498 C 418.745 436.279, 419.585 434.273, 425.917 429.984 C 433.175 425.068, 433.352 423.210, 427.233 416.174 C 419.908 407.753, 418 403.669, 418 396.414 C 418 388.460, 419.517 384.301, 423.093 382.452 C 427.567 380.138, 433 374.199, 433 371.622 C 433 368.523, 430.016 366, 426.351 366 C 424.705 366, 420.915 367.238, 417.929 368.750 M 509.132 367.281 C 504.463 368.773, 499 374.138, 499 377.232 C 499 381.080, 500.923 390.323, 501.934 391.334 C 502.473 391.873, 503.663 390.621, 504.879 388.237 C 506.325 385.404, 508.513 383.337, 512.376 381.157 C 518.535 377.681, 521 374.760, 521 370.938 C 521 366.615, 516.018 365.080, 509.132 367.281 M 302.851 367.998 C 296.597 368.562, 294.131 370.215, 290.859 376.038 C 289.733 378.041, 287.537 380.433, 285.979 381.353 C 281.342 384.093, 280.685 388.062, 280.660 413.496 C 280.642 433.192, 280.882 436.963, 282.330 439.720 C 283.260 441.492, 284.911 443.417, 286 444 C 287.089 444.583, 288.617 446.293, 289.397 447.800 C 292.869 454.516, 300.145 458.082, 306.813 456.339 C 311.654 455.073, 307.332 447.188, 299.500 442.999 C 294.987 440.584, 294.264 439.700, 292.072 433.912 C 289.901 428.177, 289.641 425.915, 289.617 412.500 C 289.593 398.944, 289.827 396.883, 292.045 391.089 C 294.418 384.891, 294.767 384.516, 302.500 379.850 C 306.900 377.196, 310.783 375.018, 311.128 375.012 C 311.473 375.005, 313.498 374.227, 315.628 373.281 C 320.848 370.964, 322.077 370.997, 325 373.528 C 331.921 379.522, 337.316 380.684, 341.023 376.977 C 343.330 374.670, 342.588 372.226, 338.770 369.551 C 336.248 367.785, 326.480 367.414, 325.471 369.046 C 324.757 370.202, 321.030 369.798, 316.661 368.091 C 315.099 367.481, 312.624 367.096, 311.161 367.235 C 309.697 367.375, 305.958 367.718, 302.851 367.998 M 598.301 368.772 C 593.559 372.499, 593.323 377.525, 597.501 385.788 L 599.669 390.077 604.335 382.176 C 609.562 373.325, 609.858 371.858, 607 369 C 604.556 366.556, 601.233 366.469, 598.301 368.772 M 682.553 368.830 C 675.406 370.837, 673.317 373.670, 672.381 382.626 C 671.602 390.084, 674.663 398.257, 679.095 400.549 C 682.017 402.060, 689.013 402.556, 688.982 401.250 C 688.972 400.837, 687.622 398.520, 685.982 396.100 C 681.656 389.716, 681.799 384.001, 686.400 379.400 C 689.570 376.230, 690.264 375.992, 696.650 375.882 C 710.192 375.648, 712.967 373.494, 705.093 369.331 C 699.749 366.505, 691.487 366.321, 682.553 368.830 M 372.571 370.571 C 370.705 372.437, 370.563 377.715, 372.084 388.651 C 373.265 397.138, 374.635 400.765, 376.106 399.294 C 377.316 398.084, 380.034 385.991, 380.699 378.862 C 381.148 374.041, 380.918 372.918, 379.112 371.112 C 376.596 368.596, 374.703 368.440, 372.571 370.571 M 449.750 369.689 C 448.788 369.941, 448 370.788, 448 371.571 C 448 373.390, 456.076 378.483, 462.260 380.565 C 464.877 381.446, 467.395 382.917, 467.854 383.834 C 468.314 384.750, 469.277 389.550, 469.994 394.500 C 470.712 399.450, 471.713 403.950, 472.219 404.500 C 473.764 406.179, 477.685 400.587, 478.426 395.647 C 479.372 389.335, 477.620 383.578, 473.960 380.971 C 472.315 379.800, 470.253 377.415, 469.377 375.671 C 466.736 370.413, 464.228 369.033, 457.500 369.138 C 454.200 369.190, 450.712 369.438, 449.750 369.689 M 536.180 370.284 C 535.594 370.989, 535.426 372.025, 535.807 372.585 C 536.821 374.074, 546.888 379.505, 551.317 380.952 C 556.105 382.517, 556.821 384.191, 557.752 396 C 558.472 405.144, 558.590 405.500, 560.892 405.500 C 565.067 405.500, 567.294 401.164, 567.294 393.036 C 567.294 387.005, 566.949 385.574, 564.989 383.488 C 563.721 382.139, 561.919 380.792, 560.984 380.495 C 560.049 380.198, 558.462 378.133, 557.457 375.905 C 556.453 373.677, 554.714 371.212, 553.593 370.427 C 550.940 368.569, 537.693 368.460, 536.180 370.284 M 597.943 399.250 C 597.245 401.060, 596.320 410.697, 595.855 421 C 595.396 431.175, 594.746 441.886, 594.410 444.802 C 593.684 451.115, 595.050 455.023, 599.206 458.520 C 602.464 461.261, 607.115 461.772, 608.928 459.587 C 610.286 457.950, 608.365 449.227, 605.024 441.864 C 603.654 438.844, 603.037 435.302, 603.022 430.362 C 603.002 423.823, 603.294 422.798, 606.500 418.136 C 608.425 415.338, 610 412.568, 610 411.981 C 610 411.394, 608.252 408.571, 606.115 405.707 C 603.978 402.843, 601.922 399.488, 601.547 398.250 C 600.597 395.113, 599.411 395.442, 597.943 399.250 M 502.607 406.582 C 502.273 407.452, 502 413.349, 502 419.687 C 502 426.865, 501.414 433.471, 500.447 437.203 C 497.719 447.731, 499.871 455.464, 504.683 452.428 C 508.123 450.258, 508.489 448.393, 506.632 442.500 C 504.976 437.249, 504.968 436.698, 506.506 434.351 C 507.413 432.966, 509.808 431.144, 511.828 430.302 C 517.023 428.136, 521 425.122, 521 423.351 C 521 422.003, 504.995 405, 503.726 405 C 503.444 405, 502.941 405.712, 502.607 406.582 M 460.944 409.844 C 458.164 412.096, 458.916 415, 462.280 415 C 464.941 415, 469 411.655, 469 409.461 C 469 407.350, 463.714 407.601, 460.944 409.844 M 550.272 409.211 C 546.236 411.158, 546.117 416, 550.104 416 C 552.458 416, 557 411.749, 557 409.545 C 557 407.753, 553.639 407.585, 550.272 409.211 M 698 411.443 C 698 413.215, 701.804 416, 704.223 416 C 706.265 416, 706.623 413.023, 704.800 411.200 C 703.078 409.478, 698 409.660, 698 411.443 M 531.978 421.817 C 530.137 423.307, 529.928 423.997, 530.814 425.653 C 531.914 427.707, 537.789 433.114, 542.280 436.205 C 544.324 437.612, 544.879 439.049, 545.454 444.416 C 546.274 452.075, 548.779 456.008, 552.823 455.985 C 561.248 455.936, 559.885 446.798, 550.108 437.792 C 545.989 433.997, 545.176 432.619, 544.582 428.421 C 543.407 420.113, 543.326 420, 538.543 420 C 535.857 420, 533.373 420.687, 531.978 421.817 M 710 422.626 C 710 424.141, 710.521 427.904, 711.159 430.989 C 712.720 438.551, 711.885 441.055, 705.471 448.032 C 702.462 451.305, 700 454.440, 700 455 C 700 456.315, 710.342 455.206, 714.756 453.417 C 719.136 451.641, 720.162 448.503, 720.346 436.324 C 720.481 427.408, 720.240 425.797, 718.401 423.324 C 717.027 421.475, 715.214 420.392, 713.151 420.187 C 710.303 419.903, 710 420.138, 710 422.626 M 374.302 428.160 C 373.055 429.689, 371 441.930, 371 447.831 C 371 450.234, 371.750 452.702, 372.917 454.139 L 374.834 456.500 377.667 454.401 C 381.256 451.741, 381.706 447.558, 379.479 437.550 C 377.568 428.959, 375.987 426.093, 374.302 428.160 M 333.030 446.255 C 329.966 447.836, 327.453 452.133, 328.301 454.343 C 329.826 458.317, 343 454.547, 343 450.137 C 343 446.399, 337.160 444.125, 333.030 446.255 M 674.604 448.155 C 673.438 449.819, 673.346 450.786, 674.197 452.405 C 675.775 455.404, 676.963 455.967, 681.750 455.985 C 685.641 455.999, 686 455.785, 686 453.455 C 686 450.202, 681.830 446, 678.602 446 C 677.187 446, 675.462 446.930, 674.604 448.155" stroke="none" fill="#ffffff" fill-rule="evenodd"/>
</svg>