<svg xmlns="http://www.w3.org/2000/svg" width="1000" height="352" viewBox="0 0 1000 352" version="1.1">
	<path d="M 640 1 C 640 1.550, 639.100 2, 638 2 C 636.667 2, 636 2.667, 636 4 C 636 5.304, 635.333 6, 634.083 6 C 633.029 6, 631.938 6.562, 631.659 7.250 C 631.278 8.191, 630.886 8.129, 630.076 7 C 629.350 5.988, 628.756 5.849, 628.250 6.573 C 627.837 7.163, 626.712 7.936, 625.750 8.292 C 624.714 8.674, 624 9.970, 624 11.469 C 624 13.103, 623.443 14, 622.429 14 C 620.633 14, 618 16.335, 618 17.929 C 618 19.239, 615.750 19.338, 614.450 18.084 C 613.542 17.209, 609.560 16.668, 605.679 16.894 C 603.981 16.993, 603.970 17.113, 605.519 18.662 C 606.814 19.956, 607.355 20.043, 607.966 19.055 C 608.520 18.158, 608.950 18.111, 609.434 18.893 C 609.810 19.502, 610.991 20, 612.059 20 C 614.416 20, 614.499 20.644, 612.409 22.734 C 611.081 24.062, 610.678 24.097, 609.966 22.944 C 609.280 21.836, 608.734 22, 607.189 23.782 C 606.131 25.002, 604.724 26, 604.061 26 C 602.355 26, 600 28.568, 600 30.429 C 600 32.282, 598.347 32.541, 597.759 30.778 C 597.295 29.384, 592 34.208, 592 36.026 C 592 37.871, 589.289 40, 586.939 40 C 585.726 40, 583.909 40.952, 582.899 42.116 C 581.512 43.715, 580.413 44.069, 578.401 43.565 C 575.204 42.762, 570.770 46.237, 571.746 48.780 C 572.164 49.871, 571.903 50.177, 570.888 49.787 C 569.743 49.348, 569.514 49.959, 569.823 52.614 C 570.162 55.517, 569.918 56, 568.109 56 C 566.949 56, 566 55.550, 566 55 C 566 54.450, 565.550 54, 565 54 C 564.450 54, 564 55.350, 564 57 C 564 59.290, 563.546 60, 562.083 60 C 561.029 60, 560.017 59.594, 559.833 59.097 C 559.650 58.600, 557.530 59.950, 555.121 62.097 C 550.892 65.867, 550.832 66, 553.371 66 C 554.817 66, 556 66.499, 556 67.109 C 556 67.781, 554.665 68.063, 552.614 67.823 C 549.959 67.514, 549.348 67.743, 549.787 68.888 C 550.183 69.919, 549.871 70.164, 548.725 69.725 C 547.582 69.286, 547.266 69.531, 547.658 70.551 C 548.020 71.494, 547.565 72.005, 546.357 72.014 C 544.351 72.029, 533.176 82.039, 531.514 85.308 C 530.956 86.406, 529.601 87.798, 528.503 88.402 C 525.682 89.954, 520.614 94.209, 512.455 101.878 C 501.206 112.452, 497.143 116, 496.284 116 C 495.842 116, 494.952 116.847, 494.305 117.883 C 493.658 118.919, 489.613 122.616, 485.315 126.099 C 481.017 129.582, 476.150 133.823, 474.500 135.523 C 469.477 140.698, 459.620 148.731, 457.500 149.378 C 455.986 149.840, 455.465 150.931, 455.358 153.865 C 455.280 155.997, 454.554 158.812, 453.746 160.121 C 452.938 161.429, 450.794 167.154, 448.982 172.841 C 446.918 179.320, 445.092 183.369, 444.094 183.682 C 439.042 185.265, 436.035 188, 439.346 188 C 440.382 188, 440.831 191.238, 441.294 202.053 C 441.862 215.331, 441.781 216.219, 439.837 218.163 C 437.983 220.017, 437.838 221.026, 438.377 228.360 C 438.706 232.837, 438.643 237.003, 438.237 237.617 C 437.832 238.231, 434.667 239.761, 431.205 241.017 C 426.792 242.618, 423.279 244.856, 419.455 248.500 C 414.263 253.449, 413.589 253.813, 413.896 251.500 C 413.969 250.950, 413.122 251.562, 412.014 252.861 C 410.856 254.219, 410 256.661, 410 258.611 C 410 260.475, 409.550 262, 409 262 C 408.384 262, 408 256.944, 408 248.833 C 408 235.892, 407.520 232.962, 406.606 240.327 C 406.352 242.378, 405.346 246.146, 404.370 248.700 C 402.803 252.804, 402.772 253.454, 404.106 254.295 C 405.375 255.095, 405.447 256.170, 404.557 261.067 C 403.065 269.283, 400.625 271.348, 392.694 271.110 C 389.352 271.010, 386.051 270.457, 385.357 269.881 C 384.663 269.306, 383.250 269.103, 382.215 269.432 C 380.847 269.866, 380.016 269.330, 379.167 267.467 C 377.738 264.332, 377.632 257.345, 379 256.500 C 379.550 256.160, 380 256.584, 380 257.441 C 380 259.634, 381.726 259.380, 383 257 C 383.589 255.900, 385.041 255, 386.226 255 C 388.290 255, 388.303 254.942, 386.520 253.638 C 385.496 252.889, 383.835 252.492, 382.829 252.755 C 381.625 253.070, 381 252.692, 381 251.648 C 381 250.717, 380.435 250.280, 379.631 250.588 C 377.725 251.320, 376.924 247.554, 378.506 245.295 C 379.213 244.286, 380.039 240.221, 380.343 236.262 C 380.941 228.469, 382.232 225, 384.535 225 C 387.425 225, 385.924 223.294, 382 222.118 C 379.800 221.459, 378 220.402, 378 219.770 C 378 216.907, 380.483 207, 381.200 207 C 381.640 207, 382 206.325, 382 205.500 C 382 204.675, 382.450 204, 383 204 C 383.550 204, 384 202.405, 384 200.455 C 384 195.296, 387.611 192.017, 393.580 191.757 L 398.210 191.556 394.355 189.852 C 392.235 188.915, 389.938 188.115, 389.250 188.074 C 388.563 188.033, 388 187.100, 388 186 C 388 183.620, 387.624 183.563, 384.154 185.422 C 382.694 186.203, 380.613 187.128, 379.528 187.475 C 378.007 187.963, 377.863 188.297, 378.897 188.936 C 379.992 189.613, 379.860 190.839, 378.179 195.632 C 377.047 198.860, 375.223 203.330, 374.125 205.567 C 373.028 207.804, 371.876 210.842, 371.565 212.317 C 371.254 213.793, 370.771 216.105, 370.492 217.456 C 370.098 219.362, 369.145 220.067, 366.242 220.600 C 361.843 221.409, 360.634 222.777, 362.591 224.734 C 363.621 225.764, 364 228.916, 364 236.446 C 364 242.113, 364.281 248.156, 364.625 249.875 C 365.179 252.646, 365.660 253.017, 368.875 253.150 C 372.230 253.289, 372.277 253.330, 369.500 253.710 C 362.266 254.701, 358.888 256.070, 359.403 257.802 C 359.680 258.736, 360.005 262.598, 360.125 266.384 L 360.343 273.268 354.246 275.560 C 350.345 277.027, 346.411 279.519, 343.324 282.478 C 338.431 287.170, 334.108 290.252, 335.438 288.100 C 335.812 287.495, 335.714 287, 335.220 287 C 334.124 287, 332.006 291.452, 331.985 293.797 C 331.972 295.262, 331.834 295.290, 331 294 C 330.467 293.175, 330.024 287.647, 330.015 281.715 C 330.004 273.451, 330.378 270.353, 331.615 268.465 C 332.503 267.109, 332.841 265.993, 332.365 265.985 C 331.889 265.977, 332.625 265.404, 334 264.711 C 336.176 263.615, 336.519 262.742, 336.644 257.976 C 336.724 254.964, 336.571 253.586, 336.304 254.912 C 335.708 257.874, 333.077 260.700, 332.159 259.364 C 331.797 258.836, 329.975 258.301, 328.111 258.176 L 324.722 257.947 327.446 261.518 C 330.134 265.043, 330.150 265.148, 328.646 269.794 C 324.092 283.860, 324.060 284.148, 326.841 286.540 L 329.378 288.722 327.628 293.303 C 325.507 298.858, 322.392 303, 320.335 303 C 319.499 303, 317.671 302.100, 316.273 301 C 314.874 299.900, 313.178 299, 312.503 299 C 310.936 299, 309.461 287.680, 310.963 287.179 C 311.533 286.989, 312 285.971, 312 284.917 C 312 283.496, 311.288 282.996, 309.250 282.985 C 303.713 282.954, 303.520 282.351, 304.980 269.676 L 306.303 258.183 309.893 257.764 C 311.867 257.534, 315.431 257.761, 317.812 258.269 C 322.591 259.288, 323.898 258.787, 322.103 256.624 C 320.902 255.177, 308.722 252, 304.377 252 C 303.070 252, 302 251.617, 302 251.149 C 302 249.219, 304.261 244, 305.098 244 C 305.594 244, 306 243.127, 306 242.059 C 306 240.991, 306.388 239.878, 306.863 239.585 C 307.337 239.291, 308.294 237.023, 308.988 234.544 C 309.682 232.065, 310.644 230.280, 311.125 230.577 C 311.606 230.875, 312 229.975, 312 228.578 C 312 225.950, 313 225.435, 319.500 224.717 L 322.500 224.386 319.883 223.268 C 316.527 221.835, 312 217.650, 312 215.980 C 312 215.101, 311.360 215.269, 309.993 216.506 C 308.889 217.505, 306.977 218.826, 305.743 219.441 C 304.509 220.056, 303.459 220.996, 303.410 221.530 C 303.360 222.063, 302.511 224.300, 301.523 226.500 C 299.964 229.973, 295.425 245.691, 294.738 249.993 C 294.607 250.814, 292.925 252.203, 291 253.080 L 287.500 254.675 288.129 266.088 C 288.474 272.364, 289.092 279.164, 289.501 281.197 C 290.206 284.704, 290.076 284.963, 286.969 286.231 L 283.693 287.568 283.905 295.613 C 284.137 304.368, 283.953 304.722, 278 307.009 C 276.075 307.749, 272.252 310.530, 269.505 313.190 C 266.757 315.851, 264.352 317.556, 264.160 316.980 C 263.968 316.404, 264.416 315.194, 265.155 314.292 C 266.328 312.860, 266.160 312.872, 263.836 314.384 C 261.494 315.908, 259.493 319.044, 257.700 324 C 257.204 325.373, 257.069 323.757, 256.643 311.334 C 256.509 307.440, 255 303.732, 255 307.298 C 255 308.196, 254.296 311.003, 253.436 313.536 C 252.313 316.845, 252.173 318.504, 252.940 319.428 C 254.299 321.065, 253.163 327, 251.358 327.693 C 250.611 327.980, 250 328.841, 250 329.607 C 250 332.014, 246.403 331.121, 244.919 328.346 C 244.139 326.886, 243.532 323.533, 243.572 320.894 L 243.644 316.096 238.572 315.288 L 233.500 314.480 233.641 309.490 C 233.719 306.746, 233.832 301.175, 233.891 297.111 L 234 289.722 239.896 290.257 C 244.966 290.717, 245.759 290.562, 245.552 289.156 C 245.299 287.430, 242.688 286.537, 234.500 285.375 C 231.750 284.985, 230.239 284.493, 231.141 284.281 C 232.302 284.008, 232.982 282.299, 233.463 278.448 C 233.838 275.451, 234.562 273, 235.072 273 C 235.582 273, 236 272.473, 236 271.829 C 236 271.185, 236.670 269.917, 237.488 269.013 C 238.307 268.109, 239.133 265.940, 239.324 264.194 C 239.718 260.597, 243.592 256.661, 245.942 257.469 C 246.799 257.764, 246.262 257.066, 244.750 255.919 C 243.237 254.772, 242 253.222, 242 252.476 C 242 250.111, 240.227 249.885, 235.020 251.588 C 231.040 252.890, 230.191 253.525, 231.048 254.558 C 231.839 255.511, 231.816 256.475, 230.966 258.063 C 230.038 259.797, 230.076 260.433, 231.147 261.112 C 231.958 261.626, 232.046 261.976, 231.367 261.985 C 230.743 261.993, 229.974 262.788, 229.657 263.750 C 222.595 285.208, 222.491 285.427, 218.876 286.282 L 215.430 287.097 215.498 299.299 C 215.549 308.420, 215.973 312.305, 217.177 314.690 C 218.958 318.220, 218.670 319, 215.583 319 C 213.612 319, 213.518 319.445, 213.844 327.299 C 214.229 336.557, 214.182 336.641, 207.078 339.403 C 202.942 341.010, 201.442 342.074, 195.375 347.705 C 193.326 349.607, 192.996 349.675, 192.968 348.205 C 192.940 346.701, 192.763 346.729, 191.468 348.441 C 187.961 353.078, 191.989 353.372, 196.684 348.822 C 199.742 345.857, 200.540 345.613, 208.524 345.194 C 213.233 344.947, 217.013 345.140, 216.924 345.622 C 216.836 346.105, 216.816 347.738, 216.882 349.250 L 217 352 240.500 352 L 264 352 264 338.148 C 264 325.411, 264.183 324.022, 266.270 320.898 C 269.531 316.017, 274.196 314.003, 282.250 314.002 L 289 314 289 333 L 289 352 297.567 352 C 306.006 352, 306.124 351.966, 305.391 349.750 C 304.409 346.776, 304.597 339.679, 305.819 333.579 C 306.362 330.872, 306.576 328.060, 306.296 327.329 C 306.015 326.598, 306.284 326, 306.893 326 C 307.502 326, 308 324.650, 308 323 C 308 321.350, 308.450 320, 309 320 C 309.550 320, 310 318.620, 310 316.933 C 310 314.320, 310.297 313.959, 312 314.500 C 313.100 314.849, 314 314.727, 314 314.228 C 314 313.729, 315.197 312.776, 316.659 312.109 C 320.158 310.515, 320.965 311.806, 320.985 319.027 C 320.993 322.068, 321.611 325.443, 322.357 326.527 C 324.269 329.305, 325.918 337.322, 326.207 345.250 L 326.454 352 331.686 352 L 336.917 352 337.209 321.422 L 337.500 290.844 341.076 287.568 C 343.812 285.062, 346.217 283.997, 351.315 283.035 C 354.980 282.343, 359.108 282.061, 360.489 282.408 C 362.940 283.023, 363.004 283.271, 363.167 292.769 C 363.331 302.355, 363.631 311.353, 364.009 318.073 C 364.116 319.958, 364.149 321.725, 364.083 322 C 364.017 322.275, 363.776 329.137, 363.546 337.250 L 363.128 352 370.583 352 C 378 352, 378.035 351.987, 377.422 349.545 C 376.491 345.837, 376.459 340.267, 377.324 332.500 C 378.423 322.626, 378.600 322.233, 381.772 322.607 C 383.469 322.807, 383.744 322.712, 382.500 322.356 C 378.540 321.225, 378 319.967, 378 311.878 C 378 307.293, 378.418 304, 379 304 C 379.550 304, 380 303.100, 380 302 C 380 300.900, 380.450 300, 381 300 C 381.550 300, 382 298.706, 382 297.125 C 382 292.159, 383.196 288, 384.625 288 C 385.381 288, 386 287.100, 386 286 C 386 284.889, 386.667 284, 387.500 284 C 388.325 284, 389.930 283.070, 391.067 281.933 C 393.888 279.112, 395.570 280.701, 396.402 286.976 C 396.763 289.694, 397.436 292.151, 397.898 292.437 C 398.359 292.722, 399.049 296.116, 399.429 299.978 C 399.810 303.840, 400.503 307, 400.970 307 C 401.945 307, 403.086 323.089, 403.332 340.294 L 403.500 352.089 408.500 351.794 L 413.500 351.500 413.714 307 C 413.832 282.525, 413.945 261.278, 413.964 259.785 C 414.014 256.020, 419.174 250.481, 424.541 248.431 C 426.987 247.497, 431.578 246.680, 434.744 246.616 L 440.500 246.500 441 267.347 C 441.275 278.813, 441.275 288.332, 441 288.500 C 440.725 288.669, 440.725 302.148, 441 318.455 C 441.275 334.762, 441.112 348.491, 440.637 348.965 C 440.163 349.438, 440.077 350.315, 440.446 350.913 C 440.924 351.687, 478.272 352, 570.004 352 L 698.890 352 699.195 347.281 L 699.500 342.562 727 332.285 C 772.919 315.125, 781.456 311.769, 782.544 310.449 C 783.117 309.753, 784.467 309.029, 785.544 308.841 C 787.398 308.518, 787.514 309.228, 787.771 322.500 C 788.161 342.721, 788.677 344.051, 788.850 325.285 C 789.021 306.747, 788.030 308.618, 799.875 304.483 C 803.519 303.211, 815.500 298.716, 826.500 294.495 C 837.500 290.273, 847.625 286.449, 849 285.997 C 860.290 282.289, 909.260 262.883, 910.529 261.614 C 913.837 258.306, 914.989 259.580, 915.177 266.750 L 915.353 273.500 915.927 266.679 L 916.500 259.859 938.500 251.564 C 950.600 247.001, 969.275 239.894, 980 235.770 L 999.500 228.272 999.805 223.632 C 1000.101 219.133, 1000.040 219.022, 997.805 219.963 C 996.537 220.496, 983.125 225.638, 968 231.388 C 952.875 237.139, 932.625 244.872, 923 248.574 C 891.768 260.584, 871.545 268.330, 808.500 292.430 C 774.400 305.465, 740.875 318.319, 734 320.993 C 709.301 330.602, 683.791 340, 682.409 340 C 681.301 340, 681.025 338.235, 681.118 331.750 C 681.261 321.814, 682.003 317.987, 684 316.889 C 684.825 316.436, 688.948 314.675, 693.163 312.976 C 705.164 308.137, 705 308.397, 705 294.197 L 705 282.128 709.032 279.862 C 711.249 278.616, 713.293 276.675, 713.573 275.548 C 713.854 274.422, 713.952 268.775, 713.792 263 L 713.500 252.500 708.750 250.231 L 704 247.961 704 238.425 L 704 228.889 709.750 226.342 C 712.913 224.941, 718.284 222.491, 721.687 220.897 C 725.090 219.304, 728.300 218, 728.821 218 C 729.341 218, 733.982 216.257, 739.134 214.127 C 772.458 200.349, 783.462 195.746, 784.886 194.992 C 785.774 194.521, 799.100 189.115, 814.500 182.977 C 829.900 176.840, 843.903 170.959, 845.618 169.909 C 847.333 168.859, 849.279 168, 849.943 168 C 850.607 168, 857.529 165.368, 865.325 162.150 C 873.121 158.933, 886.475 153.452, 895 149.971 C 903.525 146.490, 911.388 143.048, 912.473 142.321 C 913.557 141.594, 915.027 141, 915.737 141 C 916.846 141, 969.945 119.437, 978.500 115.513 C 980.150 114.756, 985.100 112.745, 989.500 111.045 C 998.589 107.533, 1000.715 106.382, 999.801 105.468 C 999.449 105.116, 993.162 107.307, 985.830 110.338 C 978.499 113.368, 943.250 127.845, 907.500 142.507 C 871.750 157.169, 832.375 173.360, 820 178.486 C 800.252 186.666, 745.477 209.191, 730 215.497 C 726.975 216.730, 718.929 220.047, 712.119 222.869 C 705.310 225.691, 699.347 228, 698.869 228 C 697.480 228, 697.832 217.222, 699.250 216.344 C 699.938 215.919, 712.650 210.523, 727.500 204.355 L 754.500 193.139 755 188.978 C 755.423 185.456, 755.988 184.612, 758.674 183.488 C 762.118 182.048, 763 182.794, 763 187.149 C 763 189.623, 763.462 189.495, 780 182.423 C 791.519 177.498, 808.567 170.445, 876.500 142.498 C 890.250 136.841, 910.950 128.292, 922.500 123.499 C 934.050 118.706, 947.100 113.299, 951.500 111.484 C 955.900 109.668, 966.250 105.389, 974.500 101.974 C 982.750 98.558, 991.862 94.854, 994.750 93.741 L 1000 91.717 1000 45.859 C 1000 1.562, 999.936 0, 998.111 0 C 996.365 0, 996.262 0.646, 996.750 8.479 C 997.127 14.512, 996.915 17.397, 996.017 18.479 C 993.951 20.969, 993 20.234, 993 16.147 C 993 14.027, 992.711 9.527, 992.358 6.147 C 991.736 0.202, 991.621 0, 988.858 0 L 986 0 986 6.918 L 986 13.837 979.250 16.082 C 973.816 17.890, 953.323 26.572, 933.500 35.464 C 923.584 39.912, 920.349 40.863, 921.507 38.989 C 922.600 37.220, 920.844 17.069, 919.617 17.294 C 918.881 17.430, 918.401 14.511, 918.211 8.750 L 917.922 0 887.961 0 L 858 0 858 4.935 C 858 7.649, 857.478 11.137, 856.840 12.685 C 856.201 14.233, 855.781 16.103, 855.904 16.840 C 856.103 18.023, 855.069 22.168, 851.999 32.500 C 850.139 38.759, 848 49.240, 848 52.093 C 848 53.810, 847.367 55.306, 846.500 55.638 C 845.675 55.955, 845 56.793, 845 57.501 C 845 58.209, 843.763 60.115, 842.250 61.736 C 839.252 64.949, 838.558 66.185, 834.112 76.244 C 831.750 81.587, 830.782 82.854, 829.450 82.342 C 828.060 81.809, 827.895 82.112, 828.500 84.099 C 828.901 85.419, 829.995 87.400, 830.930 88.500 C 831.866 89.600, 833.395 91.730, 834.328 93.234 L 836.026 95.969 833.592 94.860 C 831.570 93.939, 830.637 94.122, 828.079 95.944 C 826.386 97.150, 825 98.556, 825 99.068 C 825 99.581, 824.325 100, 823.500 100 C 822.675 100, 822 100.485, 822 101.077 C 822 102.345, 816.537 108, 815.312 108 C 814.849 108, 812.762 108.916, 810.674 110.035 L 806.877 112.070 804.955 109.785 C 803.056 107.527, 803.055 107.566, 804.878 113.004 C 806.940 119.154, 812.232 130.054, 815.195 134.250 C 816.263 135.762, 816.682 137, 816.127 137 C 815.572 137, 814.840 136.550, 814.500 136 C 813.706 134.716, 809 134.689, 809 135.969 C 809 136.501, 808.325 136.678, 807.500 136.362 C 806.675 136.045, 806 136.284, 806 136.893 C 806 137.529, 804.191 138, 801.750 138 C 797.822 138, 778.130 135.010, 770 133.180 C 767.965 132.721, 765.349 132.820, 763.750 133.415 L 761 134.438 761 156.694 L 761 178.949 757.907 180.548 C 756.206 181.428, 754.653 181.987, 754.457 181.790 C 754.261 181.594, 753.784 174.352, 753.398 165.698 C 752.733 150.796, 752.585 149.939, 750.598 149.538 C 728.800 145.137, 715.209 140.075, 702.779 131.729 C 696.462 127.488, 695.946 127.315, 694.209 128.858 C 693.193 129.761, 692.022 131.400, 691.608 132.500 C 690.889 134.411, 690.793 134.389, 689.463 132 C 688.090 129.535, 688.070 129.531, 688.035 131.750 C 688.016 132.988, 687.550 134, 687 134 C 686.450 134, 686 134.900, 686 136 C 686 137.100, 685.550 138, 685 138 C 684.450 138, 684 137.550, 684 137 C 684 136.450, 683.550 136, 683 136 C 682.450 136, 682 136.927, 682 138.059 C 682 139.191, 681.588 139.864, 681.085 139.553 C 680.582 139.242, 680.020 139.400, 679.835 139.904 C 679.651 140.407, 678.100 141.036, 676.388 141.301 C 674.676 141.566, 672.262 142.325, 671.023 142.988 C 669.784 143.651, 667.452 144, 665.841 143.763 C 664.230 143.527, 662.676 143.716, 662.387 144.183 C 662.098 144.650, 661.453 144.780, 660.954 144.472 C 660.169 143.986, 656.209 144.750, 649.711 146.639 C 648.218 147.074, 648.029 146.733, 648.569 144.580 C 648.974 142.969, 648.801 142, 648.108 142 C 647.499 142, 647 142.900, 647 144 C 647 145.501, 646.333 146, 644.326 146 L 641.651 146 643.826 143.686 C 645.022 142.413, 646 140.650, 646 139.769 C 646 138.888, 646.563 137.940, 647.250 137.662 C 648.250 137.259, 648.250 137.142, 647.250 137.079 C 645.026 136.938, 645.918 134.311, 649.530 130.360 C 654.857 124.535, 655.386 123.277, 653.036 122.019 C 651.602 121.252, 650.550 121.279, 649.273 122.114 C 645.970 124.274, 638 135.314, 638 137.729 C 638 139.177, 637.577 139.857, 636.926 139.454 C 636.335 139.089, 634.873 139.694, 633.676 140.799 C 632.479 141.904, 628.575 144.028, 625 145.518 C 621.425 147.009, 604.546 154.651, 587.491 162.500 C 570.436 170.350, 554.686 177.509, 552.491 178.409 C 548.157 180.187, 552.358 175.848, 595.526 133.961 C 605.990 123.808, 616.210 113.475, 618.237 111 C 624.397 103.479, 639.910 87.432, 639.957 88.532 C 639.980 89.100, 636.369 93.481, 631.932 98.268 C 627.495 103.054, 624.125 107.393, 624.443 107.908 C 624.762 108.424, 626.368 109.142, 628.011 109.503 C 629.655 109.864, 631 110.573, 631 111.079 C 631 111.586, 631.673 112, 632.496 112 C 633.318 112, 637.363 113.557, 641.484 115.461 C 645.604 117.364, 650.219 118.895, 651.738 118.863 C 655.529 118.782, 663.282 120.103, 664.500 121.037 C 665.050 121.459, 667.387 122.309, 669.692 122.925 C 673.650 123.983, 674.448 123.793, 683.949 119.523 C 689.484 117.035, 694.244 115, 694.528 115 C 694.811 115, 696.721 113.891, 698.771 112.536 C 700.822 111.180, 710.375 106.643, 720 102.453 C 752.693 88.219, 773.487 78.861, 778.500 76.126 C 781.250 74.626, 787.863 71.661, 793.196 69.538 C 801.197 66.353, 803.732 64.789, 807.696 60.593 C 810.338 57.797, 811.848 56.069, 811.050 56.754 C 809.119 58.413, 807.183 58.326, 805.357 56.500 C 804.202 55.345, 804.161 54.996, 805.179 54.985 C 806.243 54.972, 806.234 54.801, 805.137 54.106 C 803.986 53.377, 803.986 53.158, 805.137 52.700 C 805.954 52.375, 805.646 52.126, 804.367 52.079 C 803.095 52.032, 802.040 52.741, 801.754 53.833 C 801.287 55.619, 798 56.495, 798 54.833 C 798 54.375, 797.100 54, 796 54 C 794.900 54, 794 53.373, 794 52.607 C 794 51.841, 793.325 50.955, 792.500 50.638 C 790.784 49.980, 790.443 43.409, 792 41 C 792.736 39.862, 792.973 40.284, 792.985 42.750 C 792.995 44.965, 793.478 46, 794.500 46 C 795.325 46, 796.032 46.563, 796.070 47.250 C 796.109 47.938, 796.527 47.600, 797 46.500 C 797.473 45.400, 797.891 45.089, 797.930 45.809 C 797.968 46.529, 798.495 46.812, 799.100 46.438 C 799.873 45.961, 799.862 46.389, 799.065 47.879 C 798.440 49.046, 797.270 50, 796.465 50 C 795.659 50, 795 50.450, 795 51 C 795 52.699, 797.455 52.103, 798.705 50.100 C 799.510 48.812, 801.037 48.200, 803.446 48.200 C 805.401 48.200, 807 48.536, 807 48.947 C 807 50.650, 811.009 54.145, 812.608 53.835 C 813.557 53.651, 814.777 52.150, 815.317 50.500 C 815.858 48.850, 816.637 47.275, 817.050 47 C 817.463 46.725, 817.958 45.600, 818.150 44.500 C 818.343 43.400, 818.940 42.185, 819.478 41.800 C 820.016 41.415, 820.936 39.675, 821.522 37.934 L 822.588 34.768 813.044 29.753 C 807.795 26.994, 792.385 19.171, 778.800 12.368 L 754.099 -0 697.050 -0 C 659.683 -0, 640 0.345, 640 1 M 824.079 2.583 C 824.127 3.748, 824.364 3.985, 824.683 3.188 C 824.972 2.466, 824.936 1.603, 824.604 1.271 C 824.272 0.939, 824.036 1.529, 824.079 2.583 M 582.500 3 L 578.500 3.716 582.500 3.800 C 584.700 3.847, 588.300 3.512, 590.500 3.057 L 594.500 2.230 590.500 2.257 C 588.300 2.272, 584.700 2.606, 582.500 3 M 684.350 5.530 C 683.980 6.495, 683.069 6.839, 681.882 6.462 C 680.847 6.134, 680 6.315, 680 6.865 C 680 7.415, 679.116 8.146, 678.035 8.489 C 676.791 8.884, 675.833 10.373, 675.425 12.548 C 675.071 14.437, 674.412 15.755, 673.961 15.476 C 672.867 14.800, 659 29.330, 659 31.153 C 659 31.619, 658.551 32, 658.002 32 C 657.454 32, 655.335 33.575, 653.294 35.500 C 651.253 37.425, 649.227 39, 648.792 39 C 648.356 39, 648 39.605, 648 40.345 C 648 41.085, 647.063 42.538, 645.917 43.575 C 643.797 45.494, 643.782 45.976, 645.566 54.750 C 646.158 57.659, 648 59.413, 648 57.067 C 648 56.554, 648.900 55.849, 650 55.500 C 651.100 55.151, 652 54.413, 652 53.861 C 652 52.397, 654.634 50, 656.241 50 C 657.003 50, 658.919 48.650, 660.500 47 C 662.081 45.350, 663.793 44, 664.305 44 C 664.817 44, 666.693 42.763, 668.474 41.250 C 670.254 39.738, 672.950 37.613, 674.465 36.528 C 677.642 34.252, 679.480 30.303, 678.140 28.628 C 677.643 28.008, 677.052 25.835, 676.825 23.799 C 676.498 20.857, 676.678 20.318, 677.707 21.171 C 678.667 21.969, 679 21.857, 679 20.737 C 679 19.908, 680.160 18.470, 681.578 17.541 C 682.996 16.612, 684.615 14.535, 685.176 12.926 C 685.737 11.317, 686.602 10, 687.098 10 C 687.594 10, 688 9.100, 688 8 C 688 6.855, 687.333 6, 686.441 6 C 685.584 6, 685.160 5.550, 685.500 5 C 685.840 4.450, 685.852 4, 685.528 4 C 685.203 4, 684.673 4.688, 684.350 5.530 M 724 9 C 724 9.550, 723.100 10, 722 10 C 720.900 10, 720 10.450, 720 11 C 720 11.550, 721.087 12, 722.417 12 C 723.746 12, 725.060 12.563, 725.338 13.250 C 725.615 13.938, 725.878 13.038, 725.921 11.250 C 725.964 9.462, 725.550 8, 725 8 C 724.450 8, 724 8.450, 724 9 M 915.252 15.500 C 915.263 17.700, 915.468 18.482, 915.707 17.238 C 915.946 15.994, 915.937 14.194, 915.687 13.238 C 915.437 12.282, 915.241 13.300, 915.252 15.500 M 690.116 16.750 C 690.052 17.438, 689.277 18, 688.393 18 C 687.338 18, 686.995 18.544, 687.393 19.582 C 687.727 20.452, 688 21.384, 688 21.653 C 688 21.923, 688.708 21.435, 689.573 20.570 C 690.438 19.705, 690.940 18.210, 690.689 17.248 C 690.438 16.287, 690.180 16.063, 690.116 16.750 M 729.275 18 C 729.174 19.344, 729.741 20, 731.003 20 C 732.036 20, 733.160 20.450, 733.500 21 C 733.840 21.550, 736.454 21.939, 739.309 21.864 C 742.164 21.789, 743.487 21.533, 742.250 21.294 C 741.013 21.056, 740 20.217, 740 19.430 C 740 18.428, 738.802 18, 736 18 C 733.800 18, 732 17.550, 732 17 C 732 15.074, 729.424 16.020, 729.275 18 M 681.250 25.496 C 680.563 26.277, 680.052 27.947, 680.116 29.208 C 680.202 30.902, 680.351 31.043, 680.689 29.750 C 680.941 28.788, 681.789 28, 682.573 28 C 683.358 28, 684 27.100, 684 26 C 684 23.672, 683.015 23.491, 681.250 25.496 M 746 26.712 C 746 27.222, 748.250 28.251, 751 29 C 753.750 29.749, 756 30.903, 756 31.564 C 756 32.226, 756.900 33.002, 758 33.290 C 759.100 33.577, 760 33.405, 760 32.906 C 760 32.408, 760.480 32, 761.067 32 C 761.680 32, 761.864 32.853, 761.500 34 C 760.946 35.745, 761.320 36, 764.433 36 C 767.700 36, 768 35.757, 768 33.107 C 768 31.391, 767.356 29.967, 766.418 29.607 C 763.910 28.644, 762.819 28.896, 763.633 30.250 C 764.168 31.141, 763.911 31.117, 762.736 30.164 C 761.829 29.429, 760.626 29.113, 760.061 29.462 C 759.496 29.811, 757.339 29.769, 755.267 29.367 C 751.749 28.686, 751.665 28.590, 754 27.918 C 756.186 27.290, 756.039 27.187, 752.832 27.100 C 750.814 27.045, 748.452 26.727, 747.582 26.393 C 746.712 26.059, 746 26.203, 746 26.712 M 991.611 28.028 C 987.424 40.454, 987.270 41.473, 989.830 39.874 C 991.870 38.600, 994.096 29.774, 992.876 27.800 C 992.289 26.850, 991.990 26.904, 991.611 28.028 M 672 29 C 672 29.550, 672.675 30, 673.500 30 C 674.325 30, 675 29.550, 675 29 C 675 28.450, 674.325 28, 673.500 28 C 672.675 28, 672 28.450, 672 29 M 770 34 C 770 35.111, 770.667 36, 771.500 36 C 773.183 36, 773.251 35.817, 772.393 33.582 C 771.536 31.347, 770 31.616, 770 34 M 667.179 34.306 C 669.041 36.186, 671 36.542, 671 35 C 671 34.450, 670.587 34, 670.082 34 C 669.577 34, 668.339 33.688, 667.332 33.306 C 665.616 32.656, 665.606 32.719, 667.179 34.306 M 588 35 C 588 35.550, 588.450 36, 589 36 C 589.550 36, 590 35.550, 590 35 C 590 34.450, 589.550 34, 589 34 C 588.450 34, 588 34.450, 588 35 M 774 35 C 774 35.550, 774.450 36, 775 36 C 775.550 36, 776 35.550, 776 35 C 776 34.450, 775.550 34, 775 34 C 774.450 34, 774 34.450, 774 35 M 769.597 39.844 C 769.251 40.404, 769.455 41.163, 770.050 41.531 C 771.588 42.481, 772.580 41.180, 771.296 39.896 C 770.578 39.178, 770.019 39.161, 769.597 39.844 M 776 40.500 C 776 41.488, 776.988 42, 778.893 42 C 780.497 42, 782.034 42.646, 782.342 43.449 C 782.714 44.418, 782.418 44.714, 781.449 44.342 C 780.652 44.036, 780 44.320, 780 44.972 C 780 45.763, 780.973 45.945, 782.916 45.518 C 785.126 45.033, 786.089 45.317, 786.891 46.689 C 787.805 48.253, 787.923 48.125, 787.757 45.750 C 787.623 43.851, 787.012 43, 785.782 43 C 784.802 43, 784 42.550, 784 42 C 784 41.450, 783.100 41, 782 41 C 780.900 41, 780 40.550, 780 40 C 780 39.450, 779.100 39, 778 39 C 776.889 39, 776 39.667, 776 40.500 M 913.545 42.107 C 911.584 47.554, 909.816 57.251, 908.927 67.440 C 907.757 80.850, 906.776 83.564, 896.949 100.588 C 893.677 106.257, 891 111.146, 891 111.452 C 891 111.759, 889.929 114.230, 888.620 116.944 C 885.950 122.479, 886.938 124.088, 891.062 120.919 C 892.403 119.888, 893.858 119.034, 894.295 119.022 C 894.733 119.010, 896.174 117.987, 897.497 116.750 C 901.771 112.754, 902.887 112, 904.525 112 C 905.680 112, 905.955 111.435, 905.500 110 C 904.978 108.355, 905.320 108, 907.433 108 C 908.845 108, 910 107.571, 910 107.047 C 910 106.523, 911.553 105.665, 913.451 105.141 C 915.350 104.617, 918.054 103.037, 919.461 101.630 C 920.868 100.223, 923.787 98.596, 925.947 98.014 C 928.108 97.432, 932.041 95.254, 934.688 93.174 C 949.618 81.438, 964.483 71, 966.268 71 C 966.613 71, 966.417 72.373, 965.832 74.051 C 965.247 75.729, 965.026 77.360, 965.341 77.675 C 966.390 78.723, 969.183 77.017, 969.709 75.006 C 969.994 73.915, 970.626 73.269, 971.114 73.570 C 971.601 73.872, 972 73.191, 972 72.059 C 972 70.667, 972.648 70, 974 70 C 975.296 70, 976 69.333, 976 68.107 C 976 65.926, 978.624 64.525, 979.372 66.306 C 979.648 66.963, 979.789 66.600, 979.687 65.500 C 979.584 64.400, 979.828 63.500, 980.228 63.500 C 982.433 63.500, 990.253 47.919, 988.785 46.451 C 987.846 45.513, 983.746 49.492, 980.624 54.373 C 975.715 62.047, 970.652 65.520, 957.106 70.501 C 950.511 72.926, 944.302 75.381, 943.308 75.956 C 941.281 77.127, 937.349 78.797, 918.263 86.593 C 910.983 89.567, 904.575 92, 904.023 92 C 903.470 92, 904.316 89.862, 905.902 87.250 C 909.237 81.757, 910.912 74.788, 911.610 63.500 C 911.882 59.100, 912.749 52.380, 913.537 48.568 C 914.825 42.328, 914.831 38.538, 913.545 42.107 M 572 53 C 572 53.550, 572.450 54, 573 54 C 573.550 54, 574 53.550, 574 53 C 574 52.450, 573.550 52, 573 52 C 572.450 52, 572 52.450, 572 53 M 635.500 53.361 C 634.950 53.987, 633.861 55.737, 633.081 57.250 C 632.288 58.786, 630.824 60, 629.764 60 C 628.320 60, 628.017 60.479, 628.500 62 C 628.928 63.349, 628.680 64, 627.736 64 C 626.967 64, 625.744 65.110, 625.018 66.466 C 624.292 67.822, 623.429 68.788, 623.099 68.611 C 622.770 68.435, 620.684 70.144, 618.463 72.408 C 614.532 76.418, 614.277 77.210, 614.815 83.740 C 614.989 85.848, 615.113 85.884, 616.912 84.343 C 617.964 83.443, 618.591 82.097, 618.305 81.353 C 617.940 80.401, 618.674 80, 620.780 80 C 623.217 80, 625.656 78.167, 633.908 70.138 C 639.722 64.480, 643.856 59.684, 643.605 58.888 C 643.364 58.124, 642.896 56.263, 642.564 54.750 C 642.154 52.878, 641.329 52, 639.981 52 C 638.891 52, 637.993 52.563, 637.985 53.250 C 637.974 54.150, 637.764 54.181, 637.235 53.361 C 636.685 52.508, 636.248 52.508, 635.500 53.361 M 609 83 C 609 83.550, 607.875 84, 606.500 84 C 605.125 84, 604 84.450, 604 85 C 604 85.550, 604.450 86, 605 86 C 605.550 86, 606 86.900, 606 88 C 606 90.632, 608.966 90.612, 611.811 87.961 C 614.395 85.554, 614.438 85.296, 612.571 83.429 C 610.919 81.776, 609 81.546, 609 83 M 596 94 C 596 95.152, 596.667 96, 597.571 96 C 599.491 96, 602.497 93.164, 601.565 92.231 C 601.194 91.861, 600.431 92.220, 599.869 93.029 C 599.096 94.142, 598.724 94.196, 598.341 93.250 C 597.546 91.291, 596 91.786, 596 94 M 399.500 171 C 399.840 171.550, 401.554 171.993, 403.309 171.985 C 405.737 171.973, 406.141 171.738, 405 171 C 403.017 169.718, 398.708 169.718, 399.500 171 M 334.148 198.077 C 330.655 198.530, 327.280 199.133, 326.648 199.417 C 324.755 200.268, 339.334 198.816, 341.500 197.938 C 343.910 196.961, 342.562 196.986, 334.148 198.077 M 597 219.059 C 597 219.641, 597.450 219.840, 598 219.500 C 598.550 219.160, 599 218.684, 599 218.441 C 599 218.198, 598.550 218, 598 218 C 597.450 218, 597 218.477, 597 219.059 M 411.813 224.021 C 410.685 225.260, 410.507 226.002, 411.276 226.259 C 412.011 226.504, 411.626 227.659, 410.213 229.456 C 408.996 231.004, 408 231.684, 408 230.968 C 408 230.252, 407.764 229.902, 407.476 230.190 C 407.189 230.478, 407.237 231.454, 407.584 232.358 C 408.089 233.675, 408.751 233.254, 410.899 230.252 C 412.374 228.188, 413.648 225.488, 413.729 224.250 C 413.810 223.012, 413.791 222.037, 413.688 222.083 C 413.585 222.129, 412.741 223.001, 411.813 224.021 M 270 231.042 C 266.975 231.460, 262.082 231.847, 259.128 231.901 C 254.653 231.983, 253.948 232.233, 254.912 233.394 C 255.803 234.468, 255.717 235.141, 254.535 236.323 C 253.691 237.167, 253 238.408, 253 239.082 C 253 239.755, 253.891 239.278, 254.981 238.022 C 256.657 236.090, 257.581 235.837, 260.981 236.381 C 264.184 236.893, 265 236.717, 265 235.512 C 265 234.680, 265.788 233.993, 266.750 233.985 C 268.796 233.967, 275.651 231.682, 276.648 230.685 C 277.025 230.308, 276.921 230.063, 276.417 230.141 C 275.913 230.218, 273.025 230.624, 270 231.042 M 243.223 245.557 C 240.278 247.619, 240.403 248.837, 243.500 248.245 C 245.113 247.936, 246 247.098, 246 245.883 C 246 243.609, 246.003 243.609, 243.223 245.557 M 261.799 287.831 C 260.758 290.480, 259.302 292.370, 258.049 292.698 C 255.666 293.321, 255.441 294.584, 257.370 296.512 C 258.529 297.672, 259.152 297.450, 261.433 295.070 C 263.670 292.735, 264.074 291.513, 263.814 287.879 L 263.500 283.500 261.799 287.831 M 256.079 300.583 C 256.127 301.748, 256.364 301.985, 256.683 301.188 C 256.972 300.466, 256.936 299.603, 256.604 299.271 C 256.272 298.939, 256.036 299.529, 256.079 300.583 M 260 324.833 C 260 326.494, 260.539 327.667, 261.302 327.667 C 262.164 327.667, 262.464 326.707, 262.189 324.833 C 261.960 323.275, 261.374 322, 260.887 322 C 260.399 322, 260 323.275, 260 324.833 M 788.195 346.500 C 788.215 348.150, 788.439 348.704, 788.693 347.731 C 788.947 346.758, 788.930 345.408, 788.656 344.731 C 788.382 344.054, 788.175 344.850, 788.195 346.500 M 996 350.500 L 992.500 351.848 996.250 351.924 C 998.950 351.979, 1000 351.580, 1000 350.500 C 1000 349.675, 999.888 349.034, 999.750 349.076 C 999.612 349.118, 997.925 349.759, 996 350.500" stroke="none" fill="#ffffff" fill-rule="evenodd"/>
</svg>