<svg xmlns="http://www.w3.org/2000/svg" width="1000" height="263" viewBox="0 0 1000 263" version="1.1">
	<path d="M 955.705 99.338 C 945.021 103.083, 942.428 104.837, 940.362 109.718 C 937.305 116.942, 939.674 125.449, 945.929 129.702 C 953.435 134.806, 962.738 139.821, 968.734 141.996 C 972.163 143.239, 975.476 144.869, 976.097 145.617 C 977.865 147.747, 976.200 153.954, 973.003 157.150 C 969.229 160.925, 963.469 161.012, 956.500 157.401 C 948.746 153.383, 945.980 152.783, 943.304 154.537 C 938.375 157.766, 941.655 165.577, 949.421 169.104 C 954.730 171.515, 970.487 171.745, 975.282 169.481 C 982.923 165.874, 989.527 161.261, 991.234 158.340 C 992.244 156.609, 993.300 153.012, 993.579 150.347 C 993.996 146.371, 993.585 144.529, 991.294 140.101 C 989.757 137.131, 987.825 134.328, 987 133.870 C 986.175 133.413, 982.575 131.612, 979 129.869 C 956.914 119.099, 957.203 119.313, 958.380 114.620 C 958.708 113.314, 960.192 111.449, 961.677 110.476 C 964.215 108.813, 964.955 108.800, 973.939 110.263 C 985.318 112.116, 988.318 111.345, 988.799 106.442 C 989.167 102.683, 987.228 100.851, 980.517 98.620 C 970.937 95.434, 966.473 95.563, 955.705 99.338 M 288.500 99.793 C 287.400 100.017, 285.488 101.133, 284.250 102.274 C 282.018 104.332, 282 104.577, 282 132.773 C 282 163.706, 282.533 167.112, 287.680 169.068 C 288.985 169.565, 297.354 169.843, 306.277 169.687 L 322.500 169.403 332.136 164.747 C 342.799 159.595, 344 158.023, 344 149.219 C 344 145.048, 340.943 138, 339.134 138 C 337.599 138, 335 131.976, 335 128.417 C 335 125.380, 335.684 124.015, 338.500 121.436 C 343.412 116.937, 343.053 113.062, 337.128 106.661 C 333.036 102.239, 329.759 101, 322.160 101 C 316.915 101, 314.667 101.449, 312.952 102.838 C 310.113 105.137, 310.943 106.618, 316.374 108.946 C 321.745 111.248, 323.210 113.114, 322.818 117.153 C 322.578 119.627, 321.638 120.994, 319 122.701 C 313.439 126.299, 313 126.877, 313 130.605 C 313 135.552, 314.316 137.491, 319.319 139.913 C 321.714 141.072, 324.276 143.147, 325.013 144.525 C 326.212 146.764, 326.050 147.665, 323.483 153.035 C 319.806 160.729, 318.108 162.187, 312.156 162.759 C 305.191 163.428, 303.418 162.092, 301.035 154.378 C 299.342 148.897, 299 145.058, 299 131.535 L 299 115.282 303.100 110.623 C 305.620 107.761, 306.975 105.376, 306.614 104.437 C 305.499 101.531, 294.200 98.634, 288.500 99.793 M 362.886 102.386 L 360.500 104.773 360.583 133.924 C 360.661 161.519, 360.773 163.220, 362.682 165.787 C 365.609 169.726, 370.307 169.989, 372.688 166.348 C 374.235 163.984, 374.500 161.370, 374.500 148.499 C 374.500 135.749, 374.774 133.002, 376.273 130.710 C 377.248 129.220, 378.416 128, 378.868 128 C 380.146 128, 382.564 131.096, 384.870 135.684 C 386.027 137.985, 387.992 140.574, 389.237 141.438 C 390.481 142.302, 392.850 145.424, 394.500 148.376 C 397.445 153.644, 402.489 160.931, 406.556 165.793 C 409.177 168.926, 413.321 168.987, 416.564 165.940 C 420.260 162.468, 421.241 157.432, 419.900 148.819 C 419.032 143.246, 419.056 137.483, 420 124.660 C 421.367 106.118, 421.118 104.682, 416.017 101.669 C 412.194 99.411, 408.699 99.570, 406.405 102.106 C 404.760 103.926, 404.500 105.812, 404.500 115.950 C 404.500 124.588, 404.127 128.137, 403.088 129.392 C 400.613 132.379, 397.718 130.923, 394.858 125.252 C 393.402 122.365, 390.812 118.411, 389.103 116.465 C 387.394 114.519, 384.918 110.798, 383.600 108.197 C 380.799 102.671, 376.239 100, 369.602 100 C 366.372 100, 364.667 100.606, 362.886 102.386 M 444.500 100.945 C 443.400 101.396, 441.672 102.685, 440.659 103.811 C 438.964 105.696, 438.819 108.048, 438.833 133.439 C 438.848 159.708, 438.949 161.181, 440.951 164.421 C 443.385 168.359, 447.935 170.355, 451.439 169.023 C 454.613 167.816, 456.290 162.412, 456.551 152.556 C 456.827 142.080, 457.637 141.399, 470.945 140.455 C 476.401 140.068, 481.752 139.245, 482.837 138.626 C 483.922 138.007, 487.140 136.170, 489.989 134.545 C 495.511 131.395, 498.192 127.459, 499.418 120.706 C 499.972 117.654, 499.559 115.819, 497.304 111.328 C 495.762 108.258, 493.433 105.040, 492.129 104.178 C 488.025 101.466, 479.086 100.158, 471.992 101.231 C 467.629 101.892, 463.878 101.850, 460.138 101.099 C 453.823 99.831, 447.378 99.767, 444.500 100.945 M 542.465 100.900 C 537.689 102.957, 537.627 103.382, 537.698 133.921 C 537.745 153.973, 538.122 163.360, 538.943 164.894 C 541.151 169.020, 550.342 170.536, 553.227 167.250 C 555.508 164.652, 556.145 161.755, 556.348 153.041 C 556.601 142.198, 557.361 141.481, 569.508 140.627 C 579.959 139.892, 580.860 139.599, 589.500 134.120 C 596.234 129.849, 597.860 126.835, 597.927 118.500 C 597.982 111.607, 594.817 106.181, 588.996 103.190 C 584.954 101.114, 583.237 100.893, 572 101.005 C 565.125 101.074, 556.125 100.882, 552 100.577 C 547.875 100.273, 543.584 100.418, 542.465 100.900 M 627.240 101.544 C 623.397 104.236, 619.416 111.223, 616.696 120.046 C 615.039 125.423, 613.136 129.463, 611.564 130.940 C 609.285 133.081, 607.110 138.258, 605.595 145.147 C 605.275 146.603, 603.435 149.683, 601.507 151.992 C 598.484 155.609, 598 156.908, 598 161.395 C 598 167.115, 599.180 169, 602.760 169 C 605.891 169, 613.688 162.439, 616.089 157.783 C 618.671 152.779, 620.516 152, 629.785 152 C 641.208 152, 643.627 153.099, 646.500 159.595 C 649.232 165.772, 653.554 168.991, 659.128 168.996 C 663.788 169.001, 665.535 166.869, 665.324 161.435 C 665.150 156.929, 663.903 153.796, 660.971 150.500 C 659.993 149.400, 658.198 145.129, 656.982 141.009 C 655.766 136.888, 653.740 132.291, 652.479 130.793 C 651.219 129.295, 648.954 124.341, 647.446 119.785 C 643.264 107.146, 637.685 100, 632 100 C 630.595 100, 628.453 100.695, 627.240 101.544 M 680.795 101.177 C 677.184 103.979, 676.862 107.508, 677.595 136.275 C 678.241 161.588, 678.480 164.340, 680.225 166.559 C 682.865 169.915, 688.810 169.928, 692.694 166.587 L 695.500 164.173 695.565 139.674 L 695.630 115.174 698.267 111.716 C 701.626 107.312, 703.330 106.914, 709.794 109.021 C 716.935 111.349, 719 113.405, 719 118.187 C 719 124.284, 716.686 128.610, 712.199 130.898 C 706.446 133.833, 705.574 137.285, 708.927 143.857 C 709.987 145.934, 711.631 148.279, 712.581 149.067 C 713.531 149.855, 715.554 153.277, 717.077 156.672 C 719.330 161.694, 720.835 163.509, 725.160 166.422 C 728.082 168.390, 731.481 170, 732.714 170 C 738.824 170, 739.652 157.410, 733.862 152.537 C 729.742 149.071, 728.013 145.293, 728.006 139.740 C 728 135.320, 728.282 134.786, 731.963 132.240 C 736.737 128.938, 738.392 124.740, 737.788 117.460 C 737.234 110.773, 733.482 105.543, 727.268 102.794 C 723.581 101.163, 720.821 100.854, 711.159 100.988 C 704.747 101.076, 695.675 100.858, 691 100.502 C 684.660 100.019, 682.067 100.190, 680.795 101.177 M 757.035 102.463 L 754.720 104.927 754.920 132.593 C 755.080 154.664, 755.428 161.029, 756.641 164.060 C 759.291 170.683, 765.773 171.030, 769.145 164.729 C 769.931 163.260, 770.380 153.285, 770.538 133.770 C 770.758 106.505, 770.667 104.846, 768.813 102.489 C 766.100 99.040, 760.262 99.027, 757.035 102.463 M 794.500 101.155 C 790.079 103.573, 790 104.126, 790 132.723 C 790 162.161, 790.493 165.539, 795.165 168.138 C 796.816 169.056, 802.479 169.445, 814.500 169.468 C 831.219 169.499, 831.581 169.455, 836.399 166.750 C 839.093 165.238, 841.845 164, 842.514 164 C 846.543 164, 852.932 154.647, 852.978 148.680 C 852.990 147.086, 851.106 142.738, 848.644 138.680 C 842.396 128.380, 842.340 127.979, 846.473 123.032 C 850.554 118.148, 850.938 114.661, 848.085 108.381 C 846.520 104.933, 845.435 103.995, 841.429 102.631 C 835.346 100.558, 828.091 100.554, 821.535 102.621 C 816.583 104.181, 816.240 104.163, 812.236 102.121 C 807.640 99.776, 797.982 99.250, 794.500 101.155 M 890.861 101.174 C 887.659 103.764, 881.160 115.605, 879.093 122.615 C 877.940 126.529, 875.695 131.367, 874.105 133.368 C 872.335 135.596, 870.538 139.765, 869.469 144.125 C 868.278 148.986, 866.745 152.360, 864.635 154.763 C 861.526 158.304, 860.617 163.069, 862.253 167.250 C 864.197 172.221, 875.685 166.227, 879.128 158.444 C 880.202 156.014, 881.934 153.571, 882.975 153.013 C 884.017 152.456, 889.320 152, 894.760 152 C 905.833 152, 906.935 152.582, 910.532 160.339 C 912.379 164.321, 917.548 168.404, 922.163 169.526 C 926.437 170.565, 929 167.236, 929 160.644 C 929 156.072, 928.492 154.623, 925.532 150.745 C 923.490 148.071, 921.272 143.385, 920.140 139.351 C 919.082 135.583, 916.629 129.886, 914.688 126.691 C 912.747 123.495, 910.243 117.865, 909.123 114.179 C 906.618 105.933, 902.152 101.087, 896.371 100.345 C 893.960 100.035, 891.882 100.348, 890.861 101.174 M 199.173 105.281 C 197.357 111.198, 193.394 116.900, 190.274 118.086 C 185.729 119.814, 176.042 118.961, 173.882 116.643 C 172.847 115.532, 172 114.258, 172 113.811 C 172 113.365, 171.325 113, 170.500 113 C 169.675 113, 169 112.325, 169 111.500 C 169 110.675, 168.487 110, 167.860 110 C 167.233 110, 166.209 109.300, 165.584 108.445 C 164.606 107.109, 163.487 107.044, 157.615 107.982 C 153.858 108.582, 150.126 109.731, 149.321 110.536 C 147.498 112.359, 145.913 112.388, 143.526 110.643 C 142.234 109.698, 140.612 109.524, 138.188 110.070 C 134.446 110.914, 133.308 112.081, 132.408 116 C 132.092 117.375, 131.692 118.977, 131.521 119.561 C 130.961 121.459, 123.454 123, 114.769 123 C 107.920 123, 105.799 122.629, 103.844 121.092 C 99.234 117.465, 96.310 117.978, 94.386 122.750 C 90.387 132.669, 87.793 136.871, 84.084 139.442 C 78.659 143.201, 74.340 142.713, 71.323 138 C 66.114 129.863, 66.904 130.126, 61.409 134.694 C 53.070 141.627, 46.890 143.617, 41.934 140.965 C 38.799 139.287, 39.344 133.600, 42.946 130.390 C 44.567 128.946, 46.175 126.480, 46.520 124.910 C 46.865 123.339, 48.464 120.946, 50.074 119.592 C 55.457 115.062, 54.067 113.757, 40.203 110.335 C 34.285 108.873, 32.754 108.780, 32.100 109.838 C 31.656 110.556, 29.990 111.302, 28.397 111.494 C 26.085 111.774, 24.878 111.120, 22.422 108.257 C 15.624 100.331, 14.682 106.665, 14.581 161 C 14.509 199.626, 14.700 205.278, 16.282 211.448 C 17.406 215.833, 17.836 219.912, 17.447 222.505 C 16.633 227.934, 18.723 230.067, 22.460 227.618 C 23.818 226.728, 25.790 226, 26.842 226 C 29.425 226, 31.036 223.854, 30.368 221.301 C 29.898 219.501, 30.384 219.111, 33.827 218.529 C 40.572 217.390, 46.463 218.782, 48.913 222.096 C 50.820 224.676, 51.661 225, 56.446 225 C 61.469 225, 61.922 224.798, 63.160 222 C 64.336 219.345, 64.977 219, 68.744 219 C 71.085 219, 73 219.402, 73 219.893 C 73 221.410, 76.178 222.098, 77.627 220.895 C 78.695 220.008, 79 220.115, 79 221.378 C 79 223.312, 79.171 223.335, 82.453 221.839 C 83.854 221.201, 85 220.124, 85 219.446 C 85 218.769, 85.596 217.985, 86.325 217.706 C 87.054 217.426, 88.445 214.260, 89.416 210.671 C 91.455 203.140, 92.810 201.640, 100.067 198.883 C 103.082 197.737, 107.002 195.179, 109.178 192.936 C 112.686 189.321, 113.434 189, 118.350 189 C 125.345 189, 129.456 190.510, 130.862 193.597 C 132.668 197.560, 132.231 199.384, 128.640 202.864 C 126.792 204.655, 124.755 207.874, 124.113 210.018 C 123.470 212.162, 122.581 214.141, 122.137 214.415 C 121.693 214.690, 117.768 215.649, 113.415 216.547 C 104.816 218.320, 103 219.282, 103 222.063 C 103 224.742, 104.140 225.098, 113.758 225.421 C 124.196 225.771, 127.472 224.815, 129.198 220.915 C 130.024 219.049, 131.691 217.597, 133.811 216.897 C 137.369 215.723, 144 216.470, 144 218.045 C 144 218.570, 146.025 219, 148.500 219 C 150.975 219, 153 218.550, 153 218 C 153 216.889, 194.937 216.589, 203.663 217.638 C 208.615 218.233, 208.853 218.401, 209.486 221.775 C 210.280 226.009, 212.736 230, 214.548 230 C 216.274 230, 217.443 226.585, 217.628 221 C 217.709 218.525, 218.113 209.748, 218.525 201.497 C 219.090 190.157, 218.876 182.831, 217.645 171.497 C 216.750 163.248, 215.848 146.065, 215.641 133.311 C 215.311 113.016, 215.049 109.906, 213.541 108.398 C 212.251 107.108, 211.629 106.982, 211.064 107.896 C 210.016 109.593, 203.805 106.563, 201.901 103.426 C 200.470 101.068, 200.465 101.072, 199.173 105.281 M 813.116 108.041 C 811.397 109.612, 809.619 111.932, 809.167 113.198 C 807.963 116.566, 808.535 151.791, 809.872 156.634 C 811.466 162.403, 812.949 163.335, 819.653 162.779 C 825.069 162.330, 825.526 162.065, 830.639 156.405 C 839.072 147.070, 838.790 144.117, 829.130 140.644 C 822.930 138.414, 820.834 136.125, 820.701 131.436 C 820.617 128.485, 821.189 127.264, 823.548 125.352 C 830.464 119.747, 832 118.135, 832 116.483 C 832 113.901, 825.998 108.737, 820.794 106.843 L 816.242 105.186 813.116 108.041 M 461.421 109.419 C 457.269 111.227, 455.588 115.543, 456.425 122.247 C 456.787 125.146, 457.402 128.008, 457.792 128.609 C 459.149 130.701, 462.901 132, 467.589 132 C 471.802 132, 472.722 131.566, 476.146 127.967 C 481.003 122.862, 483.287 118.480, 482.456 115.863 C 481.706 113.500, 470.803 107.982, 467 108.040 C 465.625 108.061, 463.115 108.682, 461.421 109.419 M 559.787 109.946 C 556.609 112.454, 555.483 117.066, 556.460 123.579 C 557.412 129.928, 559.775 132, 566.066 132 C 568.852 132, 572.019 131.525, 573.103 130.945 C 575.432 129.698, 580.209 119.435, 579.791 116.574 C 579.367 113.672, 572.210 109.102, 567 108.406 C 563.331 107.916, 561.999 108.201, 559.787 109.946 M 892.247 126.250 C 889.994 129.074, 888 134.087, 888 136.927 C 888 142.608, 895.145 144.712, 899.533 140.324 C 901.778 138.079, 900.885 132.849, 897.497 128.407 C 894.675 124.707, 893.774 124.337, 892.247 126.250 M 627.676 129.250 C 622.024 136.824, 622.293 139.952, 628.780 142.092 C 633.619 143.690, 637.001 141.275, 636.996 136.227 C 636.992 132.031, 633.789 126, 631.566 126 C 630.760 126, 629.010 127.463, 627.676 129.250 M 39.572 159.337 C 37.464 161.446, 35 169.247, 35 173.817 C 35 174.762, 33.866 177.205, 32.480 179.245 C 29.410 183.762, 28.546 187.955, 30.241 190.104 C 30.937 190.986, 33.411 192.679, 35.739 193.867 C 38.066 195.054, 40.743 197.257, 41.688 198.763 C 42.632 200.268, 45.001 203.332, 46.952 205.570 C 48.903 207.809, 51.285 211.103, 52.244 212.891 C 54.678 217.427, 57.630 216.790, 60.994 211 C 63.170 207.256, 64.440 206.235, 68.555 204.924 C 73.157 203.458, 73.521 203.100, 73.805 199.767 C 74.072 196.626, 73.642 195.837, 70.305 193.348 C 68.212 191.788, 66.148 190.059, 65.718 189.506 C 64.921 188.479, 65.285 183.686, 66.537 178.744 C 67.506 174.919, 65.819 173.312, 59.443 171.988 C 53.554 170.766, 50.621 168.104, 49.490 162.954 C 48.839 159.989, 45.697 157, 43.232 157 C 42.504 157, 40.858 158.051, 39.572 159.337" stroke="none" fill="#ffffff" fill-rule="evenodd"/>
</svg>