<svg xmlns="http://www.w3.org/2000/svg" width="1000" height="351" viewBox="0 0 1000 351" version="1.1">
	<path d="M 638.583 1.643 C 638.237 2.547, 637.700 3.034, 637.392 2.725 C 637.083 2.417, 635.991 2.884, 634.963 3.763 C 633.936 4.643, 632.155 5.506, 631.006 5.681 C 628.978 5.991, 623.805 10, 625.434 10 C 625.880 10, 625.723 10.629, 625.086 11.397 C 624.448 12.165, 623.036 12.561, 621.948 12.276 C 620.436 11.881, 620.117 12.140, 620.592 13.379 C 621.006 14.459, 620.678 15, 619.607 15 C 618.723 15, 618 15.498, 618 16.107 C 618 16.716, 618.638 16.969, 619.417 16.670 C 620.197 16.371, 621.097 16.810, 621.417 17.645 C 622.598 20.723, 621.923 21.117, 618.750 19.200 C 615.341 17.140, 605.311 15.687, 604.423 17.125 C 604.139 17.585, 605.719 18.251, 607.934 18.605 C 612.905 19.400, 615.684 22, 611.563 22 C 610.051 22, 609.148 22.431, 609.493 22.989 C 609.838 23.547, 609.455 23.728, 608.613 23.405 C 607.793 23.090, 606.307 23.307, 605.311 23.886 C 603.686 24.831, 603.757 24.950, 606 25.049 C 607.424 25.111, 607.854 25.371, 607 25.652 C 606.175 25.924, 604.458 26.655, 603.185 27.277 C 601.390 28.154, 600.688 28.113, 600.060 27.097 C 599.491 26.177, 599.046 26.116, 598.566 26.893 C 598.190 27.502, 598.359 28, 598.941 28 C 601.134 28, 599.981 32.501, 597.492 33.656 C 596.121 34.292, 595 34.446, 595 34 C 595 33.553, 594.105 33.421, 593.011 33.707 C 591.917 33.993, 591.313 34.697, 591.668 35.271 C 592.071 35.923, 591.532 36.111, 590.231 35.771 C 588.615 35.348, 588.284 35.592, 588.752 36.863 C 589.083 37.763, 589.837 38.867, 590.427 39.316 C 591.019 39.766, 590.509 39.853, 589.288 39.510 C 586.508 38.730, 583.022 40.525, 582.930 42.785 C 582.871 44.211, 582.715 44.163, 582 42.500 C 581.265 40.790, 581.130 40.754, 581.070 42.250 C 581.020 43.512, 580.164 44, 578 44 C 576 44, 575 44.500, 575 45.500 C 575 46.325, 575.450 47, 576 47 C 578.303 47, 576.747 48.928, 573.609 49.964 C 571.744 50.580, 569.387 52.190, 568.371 53.542 C 567.191 55.114, 565.530 56, 563.763 56 C 561.974 56, 561 56.529, 561 57.500 C 561 58.325, 561.750 59, 562.667 59 C 565.264 59, 563.561 60.064, 560.366 60.437 C 558.790 60.621, 557.192 60.823, 556.816 60.886 C 556.440 60.949, 555.990 62.195, 555.816 63.656 C 555.584 65.611, 554.840 66.411, 553 66.685 C 551.625 66.890, 550.350 67.495, 550.167 68.029 C 549.983 68.563, 549.148 69, 548.310 69 C 547.366 69, 547.005 69.571, 547.362 70.500 C 547.750 71.512, 547.313 72, 546.020 72 C 544.161 72, 538.500 76.455, 538.500 77.918 C 538.500 78.875, 535.352 82, 534.388 82 C 533.972 82, 531.539 84.172, 528.980 86.827 C 526.421 89.481, 520.992 94.300, 516.914 97.535 C 512.836 100.769, 509.338 103.807, 509.141 104.285 C 508.583 105.636, 503.831 110.226, 499.984 113.129 C 498.068 114.576, 495.150 117.051, 493.499 118.629 C 491.849 120.208, 488.249 123.296, 485.499 125.491 C 482.750 127.686, 478.700 131.299, 476.500 133.521 C 471.112 138.960, 458.555 149, 457.139 149 C 456.513 149, 456 150.352, 456 152.004 C 456 153.656, 455.100 156.686, 454 158.739 C 452.900 160.791, 452 163.463, 452 164.676 C 452 165.889, 451.638 167.106, 451.195 167.379 C 450.753 167.653, 449.324 171.279, 448.019 175.438 C 446.664 179.759, 445.091 183, 444.348 183 C 443.633 183, 441.575 183.898, 439.774 184.996 C 437.717 186.250, 437.129 186.994, 438.191 186.996 C 439.121 186.998, 440.187 187.494, 440.560 188.097 C 440.933 188.701, 441.445 195.046, 441.698 202.198 C 442.134 214.501, 442.042 215.327, 439.986 217.515 C 438.003 219.626, 437.874 220.479, 438.512 227.283 C 439.243 235.090, 438.236 239, 435.493 239 C 431.938 239, 422.772 244.192, 418.855 248.425 C 414.397 253.243, 412.697 254.159, 413.615 251.250 C 413.999 250.035, 413.505 250.253, 411.999 251.965 C 410.413 253.768, 409.925 255.414, 410.180 258.094 C 410.433 260.738, 410.178 261.622, 409.265 261.271 C 407.925 260.757, 407.902 260.526, 407.807 246.500 C 407.773 241.550, 407.543 239.048, 407.295 240.941 C 407.048 242.833, 405.980 245.482, 404.922 246.826 C 402.845 249.467, 402.352 253.617, 404.049 254.183 C 404.748 254.416, 404.831 256.692, 404.299 261.003 C 403.577 266.853, 403.214 267.610, 400.520 268.901 C 397.256 270.466, 386.267 270.466, 384.382 268.902 C 383.761 268.387, 382.611 268.212, 381.826 268.513 C 379.596 269.369, 377.027 263.078, 377.906 258.912 C 378.389 256.618, 379.131 255.586, 380.171 255.761 C 381.021 255.905, 383.226 255.388, 385.071 254.612 L 388.425 253.202 384.064 252.339 C 378.541 251.247, 377.150 249.241, 378.783 244.723 C 379.452 242.872, 380 239.057, 380 236.244 C 380 229.590, 381.268 226.447, 384.675 224.662 L 387.442 223.213 382.971 221.931 C 380.512 221.226, 377.993 220.270, 377.374 219.806 C 375.861 218.671, 378.882 206.975, 381.318 204.539 C 382.297 203.560, 383.357 201.463, 383.674 199.879 C 383.991 198.296, 384.644 197, 385.125 197 C 385.606 197, 386 195.629, 386 193.953 L 386 190.907 392.727 191.347 L 399.455 191.786 395.977 189.935 C 394.065 188.917, 391.262 188.065, 389.750 188.042 C 388.238 188.019, 387 187.602, 387 187.117 C 387 185.859, 383.116 185.003, 382.432 186.110 C 382.118 186.618, 381.555 186.857, 381.181 186.641 C 380.806 186.426, 379.600 186.612, 378.500 187.055 C 376.802 187.738, 376.764 187.870, 378.250 187.930 C 379.212 187.968, 380 188.383, 380 188.851 C 380 190.321, 377.894 196.304, 375.548 201.500 C 374.306 204.250, 372.718 208.975, 372.019 212 C 371.320 215.025, 370.594 218.063, 370.405 218.750 C 370.217 219.438, 368.785 220, 367.223 220 C 365.660 220, 363.581 220.586, 362.601 221.303 C 360.981 222.487, 360.964 222.725, 362.410 223.925 C 363.671 224.971, 364 227.328, 364 235.301 C 364 240.833, 364.554 246.890, 365.231 248.762 C 366.375 251.925, 366.728 252.141, 370.231 251.807 C 372.304 251.609, 374 251.797, 374 252.224 C 374 252.651, 372.897 253, 371.549 253 C 370.201 253, 366.800 253.493, 363.991 254.095 C 359.192 255.125, 358.914 255.351, 359.398 257.845 C 359.681 259.305, 360.045 263.178, 360.207 266.452 L 360.500 272.404 353.995 274.952 C 349.845 276.578, 345.683 279.210, 342.495 282.224 C 339.248 285.296, 336.907 286.765, 335.805 286.425 C 334.513 286.025, 333.819 286.871, 332.886 289.986 C 331.011 296.244, 330.033 292.988, 330.015 280.430 L 330 269.360 333.500 265.271 C 336.540 261.720, 336.979 260.546, 336.840 256.341 C 336.722 252.786, 336.574 252.351, 336.280 254.702 C 335.807 258.490, 333.827 259.384, 328.984 257.995 C 324.710 256.770, 325 256.751, 325 258.259 C 325 258.952, 325.944 260.109, 327.098 260.829 C 328.795 261.889, 329.102 262.845, 328.701 265.820 C 328.428 267.844, 327.938 271.524, 327.612 273.997 C 327.286 276.470, 326.565 278.645, 326.010 278.830 C 325.454 279.015, 325 280.449, 325 282.016 C 325 283.987, 325.616 285.061, 327 285.500 C 329.633 286.336, 329.530 288.970, 326.612 295.349 C 323.467 302.224, 322.006 303.415, 318.612 301.869 C 317.175 301.215, 316 300.354, 316 299.956 C 316 299.559, 315.105 298.999, 314.012 298.713 C 310.467 297.786, 308.771 289.955, 311.250 285.956 C 312.807 283.443, 311.063 282.038, 306.357 282.015 C 303.187 282, 301.338 279.880, 302.647 277.762 C 303.007 277.180, 303.670 272.698, 304.122 267.802 C 304.574 262.906, 305.241 258.420, 305.603 257.833 C 306.036 257.133, 309.146 256.974, 314.632 257.372 C 322.270 257.925, 324.864 257.270, 322.012 255.507 C 319.995 254.261, 309.779 252, 306.164 252 C 303.008 252, 302.399 251.651, 302.257 249.758 C 302.164 248.524, 302.744 246.514, 303.546 245.290 C 304.348 244.066, 305.947 240.462, 307.100 237.282 C 310.558 227.742, 311.429 226, 312.744 226 C 313.435 226, 314 225.550, 314 225 C 314 224.450, 315.913 223.965, 318.250 223.921 L 322.500 223.842 318 221.658 C 315.525 220.457, 312.825 219.044, 312 218.518 C 310.292 217.429, 306.040 217.752, 304.400 219.095 C 303.362 219.945, 301.142 226.441, 295.827 244.173 C 293.774 251.024, 293.205 251.944, 290.514 252.756 C 288.848 253.258, 287.633 254.251, 287.797 254.974 C 287.960 255.693, 288.286 260.606, 288.521 265.891 C 288.756 271.176, 289.217 277.563, 289.545 280.085 C 290.132 284.594, 290.087 284.686, 286.846 285.615 L 283.550 286.560 283.859 294.702 C 284.147 302.302, 284.012 302.945, 281.834 304.354 C 280.550 305.185, 278.252 306.171, 276.727 306.547 C 275.201 306.922, 273.386 307.965, 272.692 308.864 C 271.998 309.764, 269.696 312.075, 267.577 314 C 264.035 317.216, 263.769 317.308, 264.297 315.136 L 264.873 312.771 262.344 315.136 C 260.953 316.436, 259.218 318.850, 258.489 320.500 L 257.163 323.500 257.009 320 C 256.542 309.370, 256.132 304.798, 255.597 304.264 C 255.269 303.935, 255 304.881, 255 306.365 C 255 309.766, 252.445 316, 251.051 316 C 250.473 316, 250 316.450, 250 317 C 250 317.550, 250.648 318, 251.441 318 C 253.572 318, 254.172 319.564, 253.474 323.289 C 252.739 327.204, 249.944 329.275, 246.547 328.422 C 243.308 327.610, 242.330 323.196, 244.472 319.055 C 246.298 315.523, 246.008 315.278, 239.325 314.719 C 237.029 314.527, 234.547 313.869, 233.808 313.256 C 231.575 311.403, 232.747 294, 235.104 294 C 235.662 294, 235.828 293.530, 235.473 292.956 C 234.018 290.602, 237.183 288.905, 241.752 289.590 C 245.737 290.188, 246.159 290.063, 245.836 288.386 C 245.432 286.291, 242.075 285.301, 234.756 285.118 C 229.653 284.991, 229.184 284.071, 231.799 279.316 C 232.460 278.114, 233 276.003, 233 274.625 C 233 273.246, 233.451 271.839, 234.003 271.498 C 235.450 270.604, 239 262.474, 239 260.055 C 239 258.895, 239.653 258, 240.500 258 C 241.325 258, 242 257.612, 242 257.139 C 242 256.665, 243.237 256.475, 244.750 256.716 L 247.500 257.155 244.306 255.014 C 242.342 253.699, 241.324 252.320, 241.663 251.437 C 242.346 249.656, 240.294 249.586, 235.082 251.213 C 231.423 252.355, 231.226 252.618, 231.724 255.687 C 232.196 258.592, 231.072 262.416, 228.106 268 C 227.668 268.825, 226.294 272.791, 225.052 276.814 C 222.743 284.294, 222.874 284.152, 216.083 286.562 C 215.130 286.901, 214.996 287.396, 215.674 288.074 C 216.343 288.743, 216.357 290.967, 215.718 294.681 C 214.827 299.848, 215.589 308.402, 217.580 315.621 C 218.032 317.258, 217.634 317.874, 215.833 318.325 C 213.589 318.886, 213.512 319.224, 213.817 327.242 L 214.135 335.576 208.317 337.963 C 202.831 340.214, 201.132 341.362, 195.375 346.705 C 193.326 348.607, 192.996 348.675, 192.968 347.205 C 192.940 345.701, 192.763 345.729, 191.468 347.441 C 188.074 351.929, 191.675 352.371, 196.576 348.068 C 200.138 344.940, 205.575 343.611, 212.500 344.174 C 216.202 344.476, 216.523 344.742, 216.813 347.750 L 217.127 351 229.480 351 C 238.427 351, 241.972 350.655, 242.338 349.750 C 242.741 348.750, 242.858 348.750, 242.921 349.750 C 242.979 350.666, 245.809 351, 253.500 351 L 264 351 264 337.148 C 264 324.411, 264.183 323.022, 266.270 319.898 C 269.643 314.849, 274.227 312.906, 282 313.229 L 288.500 313.500 289 332 L 289.500 350.500 298.500 350.759 C 303.450 350.902, 306.937 350.650, 306.250 350.200 C 304.609 349.126, 304.405 333.443, 305.964 328.299 C 307.662 322.701, 311.226 315, 312.119 315 C 312.547 315, 314.111 313.875, 315.595 312.499 C 319.314 309.053, 321 310.633, 321 317.563 C 321 320.489, 321.450 323.160, 322 323.500 C 322.550 323.840, 323 325.404, 323 326.976 C 323 328.547, 323.434 329.983, 323.965 330.167 C 324.496 330.350, 325.192 333.200, 325.511 336.500 C 325.831 339.800, 326.324 344.413, 326.607 346.750 L 327.123 351 332.020 351 L 336.917 351 337.209 320.603 C 337.537 286.330, 337.243 287.615, 345.613 283.868 C 349.414 282.167, 361.193 280.850, 362.325 282 C 363.019 282.706, 364.664 321.392, 364.025 322 C 363.736 322.275, 363.636 328.912, 363.803 336.750 L 364.105 351 370.981 351 L 377.856 351 377.334 339.250 C 376.697 324.932, 377.513 322.040, 382.225 321.910 L 385.500 321.820 382.314 320.898 C 378.735 319.862, 377.833 317.965, 377.833 311.467 C 377.833 306.019, 378.799 301.297, 380.587 298 C 381.332 296.625, 382.406 293.700, 382.973 291.500 C 384.156 286.912, 389.651 280.145, 392.666 279.564 C 394.512 279.209, 395.013 280.390, 397.868 291.835 C 399.606 298.801, 401.021 305.711, 401.014 307.191 C 401.006 308.671, 401.418 310.140, 401.930 310.456 C 402.758 310.968, 403.478 333.791, 403.059 346.250 L 402.899 351 407.821 351 L 412.743 351 413.400 340.250 C 413.761 334.337, 413.986 313.226, 413.899 293.335 C 413.743 257.490, 413.762 257.144, 415.955 254.063 C 418.712 250.191, 423.898 247.490, 431.148 246.150 C 441.408 244.253, 440.880 243.174, 441.211 266.692 C 441.370 277.955, 441.359 287.311, 441.186 287.482 C 441.014 287.654, 440.994 299.653, 441.143 314.147 C 441.292 328.641, 441.362 342.863, 441.298 345.750 L 441.182 351 570.036 351 L 698.890 351 699.195 346.323 L 699.500 341.647 740.500 326.281 C 763.050 317.830, 781.970 310.301, 782.544 309.549 C 784.058 307.566, 787.428 307.198, 787.574 309 C 787.641 309.825, 787.857 316.125, 788.055 323 L 788.414 335.500 788.957 321.524 L 789.500 307.548 799.500 303.859 C 805 301.829, 829.075 292.751, 853 283.684 C 876.925 274.618, 899.200 266.182, 902.500 264.938 C 905.800 263.693, 908.952 262.139, 909.504 261.483 C 910.056 260.828, 911.496 259.977, 912.705 259.594 C 914.786 258.933, 914.921 259.227, 915.258 265.198 L 915.615 271.500 915.807 265.408 L 916 259.316 943.250 249.041 C 958.237 243.390, 977.138 236.252, 985.250 233.179 L 1000 227.592 1000 223.296 C 1000 220.933, 999.700 219, 999.332 219 C 998.419 219, 980.463 225.797, 919.500 249.221 C 890.900 260.211, 862.325 271.153, 856 273.538 C 849.675 275.922, 837.525 280.554, 829 283.830 C 733.866 320.387, 684.465 339, 682.577 339 C 681.259 339, 681.019 337.647, 681.118 330.750 C 681.320 316.704, 681.068 317.113, 692.356 312.486 C 697.768 310.268, 702.827 307.590, 703.598 306.535 C 704.604 305.159, 705 301.437, 705 293.348 C 705 281.319, 704.979 281.376, 710.750 277.955 L 714 276.029 714 264.137 C 714 251.136, 713.966 251.055, 707.716 249.042 L 703.932 247.822 704.216 237.749 L 704.500 227.676 714 223.755 C 719.225 221.598, 723.928 219.421, 724.450 218.917 C 724.973 218.413, 726.064 218, 726.875 218 C 728.695 218, 781.741 196.218, 784.473 194.350 C 785.557 193.607, 786.988 193, 787.651 193 C 789.197 193, 842.821 171.246, 845.565 169.506 C 846.701 168.785, 849.176 167.754, 851.065 167.213 C 855.830 165.848, 905.663 145.438, 910.198 142.994 C 912.232 141.897, 914.353 141, 914.911 141 C 916.007 141, 971.893 118.190, 978.500 115.047 C 980.700 114, 986.438 111.697, 991.250 109.929 C 996.063 108.160, 1000 106.161, 1000 105.486 C 1000 104.727, 994.936 106.337, 986.750 109.697 C 979.462 112.689, 964.050 118.978, 952.500 123.673 C 940.950 128.367, 920.250 136.839, 906.500 142.499 C 892.750 148.158, 874.075 155.818, 865 159.521 C 825.034 175.830, 813.660 180.489, 783.500 192.912 C 713.944 221.560, 700.450 227.018, 699.200 227.009 C 698.253 227.002, 697.982 225.476, 698.200 221.388 L 698.500 215.776 722.500 205.808 C 735.700 200.326, 748.413 195.104, 750.750 194.204 C 754.810 192.642, 755 192.382, 755 188.393 C 755 184.698, 755.317 184.124, 757.750 183.414 C 762.093 182.147, 762.470 182.310, 763 185.688 L 763.500 188.877 796.500 175.114 C 814.650 167.544, 847.275 154.066, 869 145.162 C 890.725 136.259, 928.975 120.527, 954 110.203 L 999.500 91.432 999.760 45.716 C 1000.012 1.399, 999.962 0, 998.123 0 C 996.387 0, 996.237 0.784, 996.363 9.221 C 996.482 17.268, 996.277 18.487, 994.750 18.795 C 993.272 19.092, 993 18.379, 993 14.213 C 993 11.499, 992.714 7.191, 992.364 4.640 C 991.776 0.348, 991.513 0, 988.864 0 L 986 0 986 6.859 L 986 13.719 979.750 15.777 C 976.313 16.909, 962.062 22.822, 948.083 28.918 C 934.103 35.013, 922.264 40, 921.774 40 C 921.283 40, 921.163 39.545, 921.507 38.989 C 921.851 38.432, 921.819 33.294, 921.435 27.570 C 920.886 19.367, 920.448 17.275, 919.369 17.689 C 918.272 18.110, 918 16.404, 918 9.107 L 918 0 888 0 L 858 0 858 4.935 C 858 7.649, 857.478 11.137, 856.840 12.685 C 856.201 14.233, 855.782 16.108, 855.907 16.850 C 856.032 17.593, 855.236 21.193, 854.139 24.850 C 851.282 34.377, 848 48.727, 848 51.695 C 848 53.205, 846.060 56.716, 843.209 60.366 C 840.574 63.740, 837.368 68.964, 836.084 71.976 C 833.072 79.043, 831.103 82, 829.410 82 C 827.701 82, 829.215 86.485, 831.942 89.500 C 834.288 92.095, 836.886 97.106, 834.922 95.250 C 832.435 92.899, 829.212 93.854, 825.954 97.908 C 824.227 100.057, 821.922 102.049, 820.833 102.334 C 819.743 102.618, 818.609 103.780, 818.312 104.915 C 818.015 106.049, 817.374 106.731, 816.886 106.430 C 816.399 106.128, 816 106.584, 816 107.441 C 816 108.342, 815.141 109, 813.965 109 C 812.845 109, 810.851 109.706, 809.534 110.570 C 807.259 112.060, 807.051 112.008, 805.433 109.539 C 804.496 108.108, 803.560 107.106, 803.354 107.313 C 802.258 108.409, 813.337 132.409, 816.789 136.415 C 818.408 138.293, 818.341 138.288, 815.554 136.320 C 812.651 134.269, 812.546 134.266, 808.321 136.077 C 804.597 137.673, 802.949 137.789, 795.767 136.960 C 785.653 135.793, 772.032 133.486, 769.097 132.444 C 768.326 132.170, 766.197 132.440, 764.366 133.044 L 761.038 134.143 760.769 156.284 L 760.500 178.425 757.807 179.936 C 756.325 180.767, 754.899 181.233, 754.638 180.971 C 754.377 180.710, 753.789 173.528, 753.331 165.011 L 752.500 149.527 744.491 147.869 C 728.072 144.470, 707.967 136.141, 700.407 129.606 L 696.607 126.321 694.303 128.807 C 693.037 130.174, 692 132.126, 692 133.146 C 692 135.672, 690.521 135.483, 689.325 132.803 C 688.363 130.645, 688.313 130.661, 686.512 133.710 C 685.504 135.417, 684.188 136.629, 683.589 136.402 C 682.990 136.175, 681.661 137.246, 680.636 138.781 C 679.083 141.105, 678.206 141.506, 675.386 141.176 C 673.501 140.956, 672 141.231, 672 141.797 C 672 142.356, 671.153 142.591, 670.117 142.320 C 669.081 142.049, 666.900 142.517, 665.270 143.360 C 663.640 144.203, 661.343 144.641, 660.165 144.333 C 658.988 144.025, 656.148 144.524, 653.855 145.441 C 649.289 147.268, 647.926 146.537, 648.633 142.639 C 648.872 141.320, 648.461 141.697, 647.559 143.624 C 645.990 146.976, 643 148.896, 643 146.552 C 643 145.790, 643.563 144.940, 644.250 144.662 C 645.250 144.259, 645.250 144.142, 644.250 144.079 C 643.563 144.036, 643 143.100, 643 142 C 643 140.900, 643.563 139.993, 644.250 139.985 C 645.152 139.974, 645.116 139.726, 644.118 139.094 C 643.028 138.404, 643.176 138.079, 644.817 137.558 C 645.991 137.185, 646.677 136.322, 646.391 135.578 C 646.113 134.852, 646.473 133.626, 647.192 132.854 C 647.912 132.082, 649.949 129.593, 651.719 127.322 C 654.434 123.841, 654.716 123.009, 653.517 122.014 C 651.174 120.070, 649.325 121.179, 643.541 128 C 639.572 132.680, 638.020 135.340, 637.999 137.500 C 637.976 139.830, 637.748 140.165, 636.977 139 C 636.127 137.714, 635.736 137.810, 634.243 139.671 C 633.284 140.865, 628.225 143.659, 623 145.879 C 617.775 148.100, 611.238 151.014, 608.473 152.353 C 603.923 154.558, 566.782 171.522, 554.500 177.005 C 551.750 178.233, 549.050 179.468, 548.500 179.750 C 546.998 180.521, 569.185 158.835, 602 127.459 C 607.775 121.937, 616.775 112.533, 622 106.562 C 632.950 94.047, 639.120 87.787, 639.818 88.484 C 640.086 88.753, 636.574 93.055, 632.013 98.046 C 627.452 103.037, 624.120 107.467, 624.610 107.891 C 626.022 109.115, 637.982 114, 639.566 114 C 640.355 114, 641 114.392, 641 114.870 C 641 115.725, 646.594 117.436, 652.500 118.387 C 658.100 119.289, 664.485 120.845, 669.281 122.475 L 674.062 124.100 692.281 115.154 C 702.301 110.233, 717.250 103.277, 725.500 99.696 C 752.032 88.179, 778.897 76.112, 781.230 74.663 C 782.479 73.889, 787.775 71.545, 793 69.455 C 798.225 67.365, 803.716 64.544, 805.202 63.186 C 807.607 60.989, 807.856 60.164, 807.463 55.702 C 807.041 50.924, 806 47.814, 806 51.333 C 806 52.250, 805.550 53, 805 53 C 804.450 53, 804 53.889, 804 54.975 C 804 56.666, 803.533 56.859, 800.750 56.317 C 798.962 55.969, 795.946 54.639, 794.048 53.362 C 790.821 51.192, 790.614 50.728, 790.886 46.270 C 791.230 40.632, 791.439 40.296, 793.388 42.245 C 794.537 43.394, 794.604 44.012, 793.686 44.986 C 792.741 45.987, 793.222 46.115, 796.049 45.614 C 798.387 45.199, 800.248 45.461, 801.507 46.381 C 802.557 47.149, 803.970 47.565, 804.647 47.305 C 805.325 47.045, 806.454 47.754, 807.158 48.881 C 808.068 50.339, 809.093 50.764, 810.718 50.356 C 813.139 49.748, 813.719 50.881, 811.913 52.687 C 811.130 53.470, 811.132 53.964, 811.920 54.451 C 812.522 54.822, 813.309 54.311, 813.670 53.313 C 814.030 52.316, 815.263 50.150, 816.409 48.500 C 817.555 46.850, 818.315 45.500, 818.098 45.500 C 817.882 45.500, 818.671 43.605, 819.852 41.290 C 821.033 38.974, 821.996 36.499, 821.992 35.790 C 821.982 34.190, 820.355 33.298, 783.949 14.918 L 754.398 0 696.806 0 C 644.306 0, 639.158 0.145, 638.583 1.643 M 595.750 1.662 C 596.438 1.940, 597.563 1.940, 598.250 1.662 C 598.938 1.385, 598.375 1.158, 597 1.158 C 595.625 1.158, 595.063 1.385, 595.750 1.662 M 583 3 C 580.962 3.653, 581.332 3.801, 585 3.801 C 587.475 3.801, 590.625 3.440, 592 3 C 594.038 2.347, 593.668 2.199, 590 2.199 C 587.525 2.199, 584.375 2.560, 583 3 M 682.073 5.410 C 681.288 6.357, 679.375 7.789, 677.823 8.592 C 674.564 10.277, 674.184 13.056, 676.559 17.818 C 677.941 20.587, 678.345 20.804, 680.111 19.722 C 682.514 18.248, 686.006 10.759, 685.985 7.123 C 685.974 5.216, 685.728 4.881, 685.086 5.895 C 684.372 7.022, 684.135 6.944, 683.851 5.489 C 683.520 3.791, 683.419 3.786, 682.073 5.410 M 915.328 16.500 C 915.333 20.350, 915.513 21.802, 915.730 19.728 C 915.946 17.653, 915.943 14.503, 915.722 12.728 C 915.501 10.952, 915.324 12.650, 915.328 16.500 M 732 15.140 C 732 15.767, 731.257 16.823, 730.349 17.487 C 729.381 18.194, 729.108 18.949, 729.689 19.308 C 730.235 19.645, 731.667 18.589, 732.871 16.961 C 734.623 14.590, 734.755 14, 733.530 14 C 732.688 14, 732 14.513, 732 15.140 M 670.229 18.349 C 668.980 20.183, 666.858 22.273, 665.513 22.993 C 664.169 23.713, 663.304 24.684, 663.593 25.151 C 663.882 25.618, 663.749 26, 663.299 26 C 662.382 26, 660.318 27.932, 651.253 37.279 C 644.236 44.514, 643.114 47.601, 645.229 53.858 L 646.643 58.041 650.962 54.771 C 653.337 52.972, 656.321 50.923, 657.592 50.218 C 658.864 49.513, 660.778 47.826, 661.846 46.468 C 662.914 45.111, 664.173 43.993, 664.644 43.983 C 665.115 43.974, 667.525 41.947, 670 39.478 C 672.475 37.009, 675.307 34.217, 676.294 33.273 C 677.783 31.849, 677.974 30.614, 677.417 26.028 C 676.754 20.570, 674.632 14.994, 673.224 15.007 C 672.826 15.011, 671.478 16.515, 670.229 18.349 M 688.835 17.673 C 686.725 18.232, 685.726 20.712, 687.235 21.645 C 687.866 22.035, 688.559 21.822, 688.776 21.171 C 688.993 20.520, 689.582 20.242, 690.085 20.553 C 690.588 20.864, 691 20.191, 691 19.059 C 691 17.927, 690.888 17.052, 690.750 17.116 C 690.612 17.180, 689.751 17.430, 688.835 17.673 M 683.228 23.093 C 680.722 24.040, 679.654 25.966, 680.165 28.614 C 680.424 29.954, 681.145 29.500, 683.351 26.607 C 686.541 22.424, 686.521 21.847, 683.228 23.093 M 739 23 C 739 23.550, 739.423 24, 739.941 24 C 740.459 24, 741.160 23.550, 741.500 23 C 741.840 22.450, 741.416 22, 740.559 22 C 739.702 22, 739 22.450, 739 23 M 754 26.342 C 754 28.158, 756.892 29.948, 758.749 29.282 C 759.437 29.035, 760.272 29.546, 760.606 30.417 C 760.941 31.288, 761.855 32, 762.638 32 C 763.422 32, 764.322 32.675, 764.638 33.500 C 765.447 35.607, 767.670 35.368, 768.261 33.111 C 768.815 30.992, 767.481 28.185, 766.423 29.244 C 766.046 29.621, 764.867 29.320, 763.804 28.575 C 762.741 27.830, 761 27.449, 759.935 27.727 C 758.764 28.033, 758 27.727, 758 26.950 C 758 26.244, 757.704 25.963, 757.342 26.325 C 756.980 26.687, 756.080 26.481, 755.342 25.869 C 754.315 25.017, 754 25.128, 754 26.342 M 991.493 28.437 C 991.222 29.296, 990.723 30.788, 990.385 31.750 C 988.744 36.416, 988.233 40.089, 989.272 39.743 C 990.699 39.267, 991.555 37.418, 992.750 32.227 C 993.672 28.223, 992.590 24.959, 991.493 28.437 M 667.638 34.500 C 667.322 35.325, 667.451 36, 667.924 36 C 668.398 36, 669.045 35.325, 669.362 34.500 C 669.678 33.675, 669.549 33, 669.076 33 C 668.602 33, 667.955 33.675, 667.638 34.500 M 770.605 33.728 C 770.108 34.225, 770.882 39.215, 771.561 39.894 C 771.802 40.136, 772 39.328, 772 38.099 C 772 36.388, 772.429 36.001, 773.833 36.447 C 775.028 36.826, 775.667 36.531, 775.667 35.599 C 775.667 34.264, 771.580 32.753, 770.605 33.728 M 583.229 37.187 C 583.727 38.682, 586 39.505, 586 38.190 C 586 37.653, 585.287 36.941, 584.416 36.606 C 583.443 36.233, 582.985 36.456, 583.229 37.187 M 774 39.713 C 774.825 40.019, 776.063 40.713, 776.750 41.257 C 777.642 41.962, 778 41.781, 778 40.622 C 778 39.500, 777.152 39.024, 775.250 39.079 C 773.683 39.124, 773.145 39.397, 774 39.713 M 913.263 42.179 C 911.938 45.877, 909.588 60.035, 908.148 73 C 907.302 80.612, 906.600 82.597, 901.429 92 C 898.254 97.775, 893.662 106.550, 891.225 111.500 C 888.789 116.450, 886.097 121.287, 885.243 122.250 C 884.389 123.213, 883.918 124, 884.196 124 C 885.047 124, 894.276 118.939, 897.126 116.910 C 898.601 115.860, 900.328 115, 900.963 115 C 901.598 115, 901.849 114.565, 901.520 114.033 C 901.191 113.501, 901.840 112.492, 902.961 111.792 C 904.083 111.092, 905 110, 905 109.366 C 905 108.053, 907.261 107, 910.082 107 C 911.137 107, 912 106.586, 912 106.079 C 912 105.573, 913.382 104.855, 915.071 104.485 C 917.066 104.046, 917.961 103.341, 917.627 102.471 C 917.276 101.555, 919.390 100.262, 924.307 98.384 C 929.231 96.504, 934.160 93.486, 939.931 88.819 C 944.568 85.069, 952.443 79.389, 957.431 76.198 C 965.697 70.909, 966.500 70.590, 966.500 72.602 C 966.500 73.816, 966.163 74.600, 965.750 74.345 C 965.337 74.091, 965 74.359, 965 74.941 C 965 75.523, 965.952 76, 967.117 76 C 968.741 76, 969.112 75.535, 968.710 74 C 968.370 72.700, 968.680 72, 969.594 72 C 971.190 72, 979 64.528, 979 63 C 979 62.450, 979.689 62, 980.531 62 C 981.374 62, 982.363 61.212, 982.731 60.250 C 983.098 59.287, 984.204 57.634, 985.187 56.575 C 987.401 54.191, 988.629 48.229, 987.199 46.799 C 986.465 46.065, 984.809 47.838, 981.697 52.693 C 979.249 56.512, 975.503 60.997, 973.373 62.658 C 971.243 64.320, 963.650 67.948, 956.500 70.722 C 949.350 73.495, 934.571 79.450, 923.657 83.956 C 912.743 88.461, 903.648 91.981, 903.446 91.779 C 903.244 91.578, 904.371 89.460, 905.951 87.074 C 909.020 82.438, 910.506 75.903, 911.539 62.500 C 911.878 58.100, 912.832 51.460, 913.659 47.744 C 915.330 40.236, 915.103 37.044, 913.263 42.179 M 784.638 43.500 C 785.247 45.086, 783.499 45.616, 782.577 44.125 C 782.280 43.644, 780.818 43.250, 779.329 43.250 C 776.778 43.250, 776.731 43.330, 778.515 44.634 C 780.708 46.238, 787.155 48.178, 787.881 47.453 C 788.152 47.181, 788.441 46.049, 788.523 44.936 C 788.620 43.623, 788.203 43.092, 787.336 43.425 C 786.601 43.707, 786 43.501, 786 42.969 C 786 42.436, 785.564 42, 785.031 42 C 784.499 42, 784.322 42.675, 784.638 43.500 M 571 48 C 571 48.550, 571.900 49, 573 49 C 574.100 49, 575 48.550, 575 48 C 575 47.450, 574.100 47, 573 47 C 571.900 47, 571 47.450, 571 48 M 796.596 51.389 C 796.903 52.189, 797.946 52.565, 799.053 52.276 C 801.402 51.661, 800.613 50, 797.972 50 C 796.753 50, 796.256 50.502, 796.596 51.389 M 639.021 51.739 C 636.988 52.537, 629 60.112, 629 61.241 C 629 61.745, 627.188 64.034, 624.973 66.328 C 622.759 68.623, 620.219 71.274, 619.330 72.220 C 618.440 73.166, 617.327 73.702, 616.856 73.411 C 616.385 73.120, 616 73.546, 616 74.358 C 616 75.169, 615.511 75.996, 614.914 76.195 C 613.429 76.690, 615.162 83.221, 616.935 83.812 C 617.674 84.058, 617.994 83.799, 617.646 83.236 C 617.298 82.674, 618.056 81.952, 619.330 81.632 C 621.616 81.058, 630.076 73.927, 639.160 64.917 L 643.820 60.295 642.829 55.647 C 641.821 50.919, 641.624 50.717, 639.021 51.739 M 608.500 83.091 C 606.850 84.690, 604.968 85.998, 604.317 85.999 C 602.645 86, 601.582 89.982, 602.901 91.301 C 603.680 92.080, 604 92.085, 604 91.317 C 604 90.721, 604.958 89.983, 606.130 89.676 C 607.568 89.300, 608.062 88.605, 607.652 87.537 C 607.145 86.213, 607.383 86.135, 609.104 87.056 C 610.768 87.946, 611.430 87.807, 612.550 86.329 C 614.278 84.049, 614.291 83.755, 612.750 81.783 C 611.633 80.354, 611.181 80.493, 608.500 83.091 M 649.500 136 C 649.840 136.550, 650.316 137, 650.559 137 C 650.802 137, 651 136.550, 651 136 C 651 135.450, 650.523 135, 649.941 135 C 649.359 135, 649.160 135.450, 649.500 136 M 401.750 170.662 C 402.438 170.940, 403.563 170.940, 404.250 170.662 C 404.938 170.385, 404.375 170.158, 403 170.158 C 401.625 170.158, 401.063 170.385, 401.750 170.662 M 331.500 197.907 C 328.259 198.291, 327.094 198.744, 328.188 199.195 C 329.826 199.869, 331.040 199.744, 339.500 198.030 L 343.500 197.219 340 197.267 C 338.075 197.293, 334.250 197.581, 331.500 197.907 M 330.813 201.683 C 331.534 201.972, 332.397 201.936, 332.729 201.604 C 333.061 201.272, 332.471 201.036, 331.417 201.079 C 330.252 201.127, 330.015 201.364, 330.813 201.683 M 597 218 C 597 218.550, 597.413 219, 597.918 219 C 598.423 219, 599.661 219.262, 600.668 219.582 C 602.344 220.114, 602.335 220.029, 600.559 218.582 C 598.336 216.770, 597 216.552, 597 218 M 411.454 223.750 C 411.035 224.713, 410.624 225.950, 410.540 226.500 C 410.189 228.780, 408.730 230.951, 407.895 230.435 C 407.403 230.131, 407 230.584, 407 231.441 C 407 232.298, 407.337 232.983, 407.750 232.962 C 408.899 232.904, 414 225.170, 414 223.487 C 414 221.446, 412.382 221.614, 411.454 223.750 M 264.500 230.675 C 262.300 230.861, 258.981 231.266, 257.126 231.575 C 254.027 232.091, 253.905 232.242, 255.626 233.413 C 256.656 234.115, 258.400 234.933, 259.500 235.231 C 260.600 235.529, 262.288 236.097, 263.250 236.494 C 264.591 237.046, 265 236.721, 265 235.107 C 265 233.948, 265.563 232.950, 266.250 232.888 C 271.638 232.406, 274.393 231.874, 275.828 231.036 C 277.548 230.033, 273.581 229.906, 264.500 230.675 M 241.461 246.064 C 241.142 246.579, 241.246 247.032, 241.691 247.070 C 242.136 247.109, 241.613 247.487, 240.528 247.911 C 238.719 248.618, 238.766 248.722, 241.087 249.166 C 242.972 249.526, 243.873 249.108, 244.621 247.523 C 245.442 245.784, 245.298 245.373, 243.832 245.262 C 242.846 245.188, 241.779 245.549, 241.461 246.064 M 485 276 C 485 276.550, 485.450 277, 486 277 C 486.550 277, 487 276.550, 487 276 C 487 275.450, 486.550 275, 486 275 C 485.450 275, 485 275.450, 485 276 M 262.063 288.297 C 261.004 291.026, 260.042 292, 258.404 292 C 256.419 292, 256.188 292.492, 256.250 296.590 C 256.304 300.182, 256.531 300.780, 257.291 299.340 C 257.826 298.328, 259.587 296.095, 261.205 294.377 C 263.480 291.962, 264.073 290.500, 263.823 287.924 L 263.500 284.594 262.063 288.297 M 260 324.441 C 260 326.763, 261.585 328.748, 262.615 327.718 C 263.376 326.957, 261.882 322, 260.892 322 C 260.401 322, 260 323.098, 260 324.441 M 788.079 338.583 C 788.127 339.748, 788.364 339.985, 788.683 339.188 C 788.972 338.466, 788.936 337.603, 788.604 337.271 C 788.272 336.939, 788.036 337.529, 788.079 338.583 M 996 349.500 L 992.500 350.848 996.250 350.924 C 998.950 350.979, 1000 350.580, 1000 349.500 C 1000 348.675, 999.888 348.034, 999.750 348.076 C 999.612 348.118, 997.925 348.759, 996 349.500" stroke="none" fill="#ffffff" fill-rule="evenodd"/>
</svg>