<svg xmlns="http://www.w3.org/2000/svg" width="1000" height="351" viewBox="0 0 1000 351" version="1.1">
	<path d="M 633.637 3.065 C 633.142 5.539, 632.588 6.069, 630.762 5.815 C 629.020 5.572, 628.422 6.054, 628.159 7.912 C 627.717 11.040, 626.206 12.477, 620.165 15.511 C 614.785 18.213, 610.427 18.730, 609.720 16.750 C 609.475 16.063, 608.895 15.855, 608.432 16.288 C 607.969 16.722, 608.126 18.495, 608.780 20.228 C 609.832 23.015, 609.727 23.605, 607.879 25.327 C 606.275 26.821, 605.605 26.979, 605.003 26.006 C 604.437 25.089, 604.030 25.329, 603.542 26.868 C 603.170 28.041, 602.214 29, 601.418 29 C 600.621 29, 597.886 31.025, 595.340 33.500 C 592.793 35.975, 590.325 38, 589.855 38 C 589.385 38, 589 38.734, 589 39.631 C 589 40.930, 588.302 41.148, 585.569 40.705 C 582.938 40.278, 581.540 40.663, 579.569 42.356 C 578.156 43.570, 577 45.112, 577 45.782 C 577 46.452, 576.380 47, 575.622 47 C 574.865 47, 573.656 47.709, 572.937 48.576 C 571.884 49.845, 571.876 50.305, 572.898 50.937 C 573.857 51.530, 573.745 51.884, 572.441 52.384 C 571.491 52.749, 570.478 52.811, 570.190 52.524 C 569.902 52.236, 570.218 52, 570.892 52 C 571.566 52, 571.831 51.535, 571.479 50.966 C 571.105 50.361, 570.030 50.964, 568.883 52.421 C 567.807 53.789, 566.377 54.698, 565.705 54.440 C 565.034 54.183, 561.563 56.954, 557.992 60.600 C 554.421 64.245, 549.676 68.487, 547.446 70.027 C 545.217 71.566, 542.118 74.665, 540.560 76.913 C 539.003 79.161, 537.193 81, 536.540 81 C 535.886 81, 532.550 83.813, 529.125 87.250 C 521.463 94.940, 520.106 96.156, 515.865 99.130 C 514.014 100.427, 509.125 104.760, 505 108.759 C 494.135 119.290, 486.987 125.798, 483 128.790 C 479.783 131.204, 476.896 133.740, 463.693 145.750 C 461.123 148.088, 458.341 150, 457.510 150 C 456.562 150, 456 150.940, 456 152.525 C 456 153.914, 455.047 157.626, 453.882 160.775 C 452.717 163.924, 450.435 170.438, 448.811 175.250 C 446.670 181.593, 445.396 184.002, 444.179 184.007 C 443.255 184.010, 441.199 184.871, 439.610 185.919 L 436.719 187.824 439.110 188.162 C 441.484 188.498, 441.502 188.591, 441.780 202.492 C 442.028 214.897, 441.860 216.629, 440.297 217.772 C 438.779 218.882, 438.578 220.437, 438.847 229.030 C 439.117 237.637, 438.941 239, 437.558 239 C 433.990 239, 423.155 244.919, 419.509 248.860 C 416.067 252.580, 412.924 254.551, 414.500 252 C 415.564 250.279, 413.788 250.910, 412.392 252.750 C 411.661 253.713, 411.049 256.468, 411.032 258.872 C 411.004 262.644, 410.794 263.074, 409.500 262 C 408.319 261.020, 408 258.197, 408 248.711 C 408 237.115, 407.510 233.690, 406.898 241 C 406.736 242.925, 406.244 244.995, 405.804 245.600 C 405.072 246.606, 404.854 250.776, 404.974 261.436 C 405.007 264.403, 404.342 266.077, 402.271 268.239 C 399.618 271.008, 399.267 271.089, 392.012 270.608 C 387.880 270.334, 383.488 270.085, 382.250 270.055 C 380.176 270.004, 380 269.537, 380 264.066 C 380 258.337, 380.095 258.122, 382.750 257.816 C 384.775 257.583, 385.589 256.869, 385.838 255.106 C 386.159 252.837, 385.960 252.742, 381.987 253.275 L 377.797 253.837 378.436 250.668 C 379.211 246.827, 380.876 236.067, 381.596 230.254 C 382.025 226.784, 382.572 225.894, 384.588 225.389 C 386.553 224.895, 386.820 224.488, 385.904 223.385 C 385.272 222.623, 384.023 221.999, 383.128 221.999 C 382.232 221.998, 380.150 220.804, 378.500 219.344 C 376.850 217.885, 376.243 216.954, 377.151 217.276 C 379.086 217.962, 380.602 213.990, 378.825 212.892 C 378.087 212.436, 378.347 211.541, 379.612 210.177 C 380.651 209.059, 382.572 205.432, 383.882 202.119 C 387.004 194.220, 389.150 192, 393.661 192 C 396.622 192, 397.043 191.756, 396.081 190.598 C 394.913 189.191, 390.261 187.493, 388.625 187.878 C 388.144 187.991, 386.993 187.399, 386.068 186.562 C 384.563 185.199, 384.156 185.202, 382.177 186.589 C 380.961 187.440, 380.187 188.494, 380.456 188.929 C 380.965 189.753, 377.966 199.168, 375.447 204.651 C 374.651 206.384, 373.986 208.409, 373.968 209.151 C 373.951 209.893, 373.263 211.391, 372.439 212.481 C 371.501 213.722, 371.167 215.485, 371.545 217.207 C 372.108 219.770, 371.887 219.994, 368.212 220.582 C 366.047 220.928, 363.749 221.537, 363.104 221.936 C 361.960 222.643, 362.582 226.001, 363.857 225.999 C 364.211 225.999, 364.359 230.161, 364.187 235.249 C 364.015 240.337, 364.271 246.300, 364.756 248.500 C 365.631 252.477, 365.662 252.499, 370.068 252.296 C 373.356 252.145, 373.984 252.321, 372.500 252.976 C 371.400 253.462, 369.542 253.891, 368.372 253.930 C 364.912 254.044, 358.486 257.064, 359.876 257.923 C 360.700 258.433, 360.998 261.028, 360.797 265.954 L 360.500 273.232 354.183 275.820 C 350.373 277.381, 345.848 280.312, 342.784 283.204 C 337.223 288.453, 336.481 288.872, 337.398 286.250 C 337.762 285.207, 336.998 285.633, 335.504 287.306 C 334.127 288.849, 333 291.211, 333 292.556 C 333 295.373, 331.389 295.839, 330.604 293.250 C 329.725 290.351, 330.337 265.937, 331.265 266.865 C 331.742 267.342, 333.470 266.376, 335.159 264.687 C 338.129 261.717, 338.179 261.506, 337.429 255.075 C 336.667 248.551, 336.656 248.531, 335.912 252.500 C 335.499 254.700, 335.412 257.563, 335.718 258.863 C 336.264 261.186, 336.231 261.197, 333.707 259.544 C 332.224 258.572, 329.741 257.997, 327.821 258.181 C 325.663 258.388, 323.975 257.916, 323 256.832 C 321.197 254.827, 308.567 251.923, 304.867 252.662 C 301.181 253.399, 300.357 251.361, 302.933 247.877 C 304.149 246.232, 305.368 242.685, 305.710 239.798 C 306.175 235.875, 307.114 233.773, 309.660 230.955 C 311.497 228.921, 313 226.802, 313 226.245 C 313 224.848, 318.118 223.993, 320.108 225.058 C 321.004 225.537, 322.022 225.645, 322.371 225.296 C 323.383 224.283, 314.763 219.829, 312.790 220.345 C 311.697 220.631, 311 220.265, 311 219.406 C 311 217.692, 310.151 217.645, 306.904 219.177 C 305.011 220.071, 303.602 222.541, 301.057 229.427 C 299.214 234.417, 297.487 240.423, 297.220 242.773 C 296.953 245.123, 296.344 247.287, 295.867 247.582 C 295.390 247.877, 295 248.923, 295 249.907 C 295 251.071, 293.579 252.255, 290.935 253.293 C 287.340 254.706, 286.994 255.119, 287.935 256.879 C 288.521 257.973, 289 263.289, 289 268.691 C 289 274.093, 289.414 279.957, 289.920 281.721 C 290.795 284.773, 290.674 284.989, 287.400 286.172 L 283.961 287.416 284.148 295.032 C 284.251 299.221, 284.008 303.178, 283.607 303.827 C 283.207 304.475, 280.994 305.867, 278.689 306.921 C 276.385 307.974, 272.475 310.666, 270 312.904 C 265.756 316.741, 263.128 318.220, 264.500 316 C 264.840 315.450, 264.652 315, 264.082 315 C 262.537 315, 260.039 319.261, 259.785 322.329 C 259.662 323.809, 259.098 324.864, 258.531 324.673 C 257.895 324.459, 257.500 319.441, 257.500 311.579 L 257.500 298.831 260.750 295.930 C 263.516 293.460, 263.981 292.393, 263.874 288.764 L 263.747 284.500 262.697 288.250 C 261.832 291.340, 261.194 292, 259.074 292 C 256.871 292, 256.476 292.468, 256.333 295.250 C 255.736 306.908, 254.589 314.694, 253.243 316.229 C 251.885 317.779, 251.897 318.023, 253.364 318.586 C 255.008 319.217, 255.651 322.544, 254.250 323.167 C 253.838 323.350, 252.720 325.188, 251.766 327.250 C 250.626 329.715, 249.362 331, 248.075 331 C 245.627 331, 245.175 330.260, 244.097 324.491 C 243.418 320.858, 243.531 319.733, 244.615 319.317 C 246.913 318.436, 246.181 317.194, 243 316.579 C 241.350 316.261, 238.603 315.729, 236.897 315.398 L 233.793 314.796 234.260 302.648 L 234.726 290.500 239.962 290.318 C 242.841 290.218, 245.490 289.844, 245.847 289.486 C 247.289 288.044, 242.330 286, 237.391 286 C 234.516 286, 231.432 285.719, 230.539 285.376 C 229.127 284.835, 229.100 284.539, 230.330 283.126 C 231.109 282.232, 232.044 279.925, 232.407 278 C 232.771 276.075, 234.965 270.900, 237.284 266.500 C 240.871 259.694, 241.948 258.421, 244.500 257.968 L 247.500 257.436 244.750 255.603 C 243.238 254.595, 242 253.133, 242 252.354 C 242 250.146, 239.325 249.659, 236.824 251.411 C 235.576 252.285, 233.665 253, 232.577 253 C 231.039 253, 230.867 253.267, 231.800 254.200 C 233.539 255.939, 233.274 260.047, 231.132 264.562 C 226.344 274.652, 224.905 278.958, 224.884 283.250 C 224.880 284.212, 224.250 285, 223.485 285 C 222.720 285, 221.002 285.498, 219.667 286.106 C 217.504 287.091, 217.167 288.050, 216.569 294.905 C 215.864 302.984, 217.362 315.988, 219.123 317.076 C 219.679 317.420, 218.847 318.235, 217.272 318.887 C 214.465 320.050, 214.418 320.200, 214.827 326.624 C 215.263 333.473, 213.856 338, 211.291 338 C 208.844 338, 202.615 341.694, 197.552 346.147 C 194.501 348.832, 192.881 349.775, 193.325 348.609 C 193.937 347.002, 193.816 346.907, 192.523 347.981 C 191.685 348.676, 191 349.640, 191 350.122 C 191 351.747, 194.674 351.018, 196.466 349.038 C 198.822 346.434, 204.231 344.734, 210.443 344.645 C 216.510 344.558, 218 345.329, 218 348.559 L 218 351 241.573 351 L 265.147 351 264.852 337.725 C 264.583 325.565, 264.740 324.159, 266.722 320.975 C 267.913 319.064, 269.797 316.943, 270.909 316.263 C 274.110 314.305, 281.118 313.054, 285.513 313.657 L 289.543 314.209 289.610 319.355 C 289.647 322.185, 289.749 330.462, 289.838 337.750 L 290 351 297.391 351 L 304.781 351 305.500 340 C 305.895 333.950, 306.619 329, 307.109 329 C 307.599 329, 308 327.474, 308 325.608 C 308 319.051, 318.413 309.498, 321.235 313.467 C 321.639 314.035, 321.976 316.750, 321.985 319.500 C 321.994 322.250, 322.901 326.867, 324.001 329.761 C 325.100 332.654, 326 337.210, 326 339.886 C 326 342.561, 326.281 346.156, 326.625 347.875 C 327.229 350.895, 327.425 351, 332.455 351 L 337.660 351 337.796 323.750 C 337.870 308.762, 337.947 295.211, 337.966 293.635 C 338.024 288.784, 343.869 284.371, 352.071 282.988 C 362.644 281.205, 362.599 281.161, 363.412 294.014 C 363.794 300.047, 364.086 315.336, 364.061 327.991 L 364.015 351 371.008 351 L 378 351 378 336.360 C 378 324.203, 378.267 321.526, 379.572 320.571 C 381.430 319.213, 380.568 314, 378.485 314 C 377.680 314, 377.386 313.241, 377.710 312 C 377.998 310.900, 378.768 310, 379.423 310 C 380.163 310, 381.099 306.508, 381.903 300.750 C 383.556 288.909, 383.691 288.460, 386.562 285.218 C 387.886 283.723, 389.444 281.938, 390.024 281.250 C 391.966 278.949, 394.581 279.898, 396.315 283.534 C 397.242 285.478, 398 288.088, 398 289.334 C 398 290.580, 398.372 292.028, 398.826 292.550 C 400.877 294.907, 403.931 324.086, 403.976 341.750 L 404 351 409 351 L 414 351 414 304.804 L 414 258.608 416.585 254.877 C 419.496 250.677, 423.323 248.553, 430.915 246.925 C 439.514 245.081, 440.632 245.809, 441.362 253.736 C 441.868 259.237, 442.347 284.639, 442.017 288.500 C 441.970 289.050, 441.834 303.337, 441.716 320.250 L 441.500 351 570.693 351 L 699.885 351 700.193 346.750 L 700.500 342.500 709.500 338.906 C 714.450 336.930, 721.200 334.360, 724.500 333.196 C 727.800 332.031, 734.775 329.456, 740 327.472 C 745.225 325.489, 751.075 323.292, 753 322.589 C 770.601 316.167, 781.640 311.642, 783.748 309.983 C 785.135 308.892, 786.659 308, 787.135 308 C 787.611 308, 788 313.700, 788 320.667 C 788 327.633, 788.202 333.131, 788.449 332.884 C 788.697 332.637, 788.973 327.443, 789.064 321.341 C 789.154 315.240, 789.523 309.772, 789.882 309.190 C 790.242 308.608, 794.803 306.556, 800.018 304.629 C 805.233 302.703, 813.100 299.731, 817.500 298.026 C 821.900 296.321, 828.425 293.863, 832 292.563 C 842.223 288.847, 901.056 266.381, 905.500 264.497 C 907.700 263.564, 910.271 262.116, 911.213 261.279 C 912.155 260.442, 913.674 260.045, 914.590 260.396 C 915.505 260.747, 916.759 260.623, 917.377 260.121 C 918.372 259.311, 963.973 241.827, 990.250 232.180 L 1000 228.601 1000 224.300 C 1000 221.935, 999.646 220, 999.212 220 C 998.779 220, 990.117 223.179, 979.962 227.064 C 969.808 230.950, 959.250 234.959, 956.500 235.975 C 953.750 236.990, 941.600 241.631, 929.500 246.289 C 907.927 254.593, 852.827 275.727, 840 280.617 C 836.425 281.981, 831.925 283.735, 830 284.515 C 828.075 285.296, 818.625 288.899, 809 292.522 C 799.375 296.146, 789.250 299.984, 786.500 301.052 C 779.754 303.672, 762.885 310.126, 737 319.992 C 725.175 324.499, 708.525 330.846, 700 334.095 C 691.475 337.345, 683.938 340.003, 683.250 340.002 C 681.728 340, 681.709 339.831, 681.945 328 C 682.168 316.817, 681.743 317.323, 695.439 311.936 L 704.500 308.373 704.754 299.436 C 705.200 283.780, 705.599 282.278, 710.066 279.459 L 714 276.975 714 264.596 L 714 252.217 709.753 250.518 C 707.417 249.583, 705.174 248.297, 704.768 247.659 C 703.776 246.100, 703.824 230.826, 704.825 229.248 C 705.263 228.560, 709.625 226.381, 714.521 224.408 C 719.416 222.434, 724.326 220.184, 725.433 219.409 C 726.540 218.634, 728.191 218, 729.102 218 C 730.013 218, 733.175 216.929, 736.129 215.620 C 739.083 214.311, 747.350 210.878, 754.500 207.991 C 761.650 205.104, 771.550 200.960, 776.500 198.781 C 781.450 196.602, 787.300 194.223, 789.500 193.495 C 791.700 192.767, 796.875 190.750, 801 189.013 C 805.125 187.275, 816.600 182.556, 826.500 178.525 C 836.400 174.495, 845.850 170.521, 847.500 169.693 C 849.150 168.866, 853.200 167.178, 856.500 165.943 C 859.800 164.708, 866.550 162.021, 871.500 159.972 C 876.450 157.923, 886.800 153.692, 894.500 150.570 C 902.200 147.448, 910.217 143.973, 912.316 142.846 C 914.414 141.720, 916.398 141.065, 916.724 141.390 C 917.049 141.716, 917.846 141.543, 918.494 141.005 C 919.142 140.467, 921.434 139.374, 923.586 138.577 C 925.739 137.780, 930.875 135.709, 935 133.975 C 939.125 132.241, 949.700 127.899, 958.500 124.327 C 967.300 120.754, 975.857 117.047, 977.516 116.087 C 979.175 115.128, 981.875 114.070, 983.516 113.736 C 987.840 112.854, 1000 107.151, 1000 106.005 C 1000 105.468, 997.862 105.872, 995.250 106.902 C 989.381 109.217, 967.099 118.377, 961 120.983 C 958.525 122.041, 947.500 126.556, 936.500 131.017 C 925.500 135.478, 906.825 143.130, 895 148.021 C 883.175 152.911, 864.500 160.578, 853.500 165.057 C 842.500 169.536, 829.675 174.781, 825 176.712 C 820.325 178.643, 814.025 181.245, 811 182.495 C 791.899 190.386, 767.821 200.286, 738 212.509 C 710.315 223.857, 699.868 228, 698.941 228 C 698.384 228, 698.028 225.596, 698.128 222.515 C 698.341 216.012, 694.926 218.026, 731.250 202.983 L 756 192.734 756 188.842 C 756 185.585, 756.418 184.792, 758.565 183.975 C 762.473 182.490, 763 182.743, 763 186.108 C 763 188.997, 763.194 189.169, 765.750 188.539 C 767.263 188.166, 770.300 187.006, 772.500 185.961 C 774.700 184.915, 787.525 179.498, 801 173.923 C 814.475 168.348, 832.025 161.086, 840 157.787 C 847.975 154.487, 860.350 149.417, 867.500 146.520 C 874.650 143.622, 886.125 138.906, 893 136.038 C 899.875 133.170, 909.212 129.289, 913.750 127.412 C 918.288 125.535, 925.938 122.370, 930.750 120.379 C 935.563 118.387, 941.750 115.890, 944.500 114.830 C 947.250 113.769, 950.850 112.286, 952.500 111.533 C 954.150 110.781, 960.211 108.270, 965.969 105.954 C 971.728 103.638, 977.128 101.357, 977.969 100.885 C 978.811 100.413, 984 98.246, 989.500 96.069 L 999.500 92.110 999.760 46.055 C 999.999 3.710, 999.886 -0, 998.360 -0 C 996.890 -0, 996.773 1.024, 997.337 8.972 C 997.911 17.058, 997.791 18.041, 996.122 18.935 C 994.458 19.826, 994.206 19.398, 993.644 14.713 C 993.299 11.846, 993.013 7.362, 993.009 4.750 C 993 0.001, 992.999 0, 989.544 0 L 986.088 0 985.794 7.250 L 985.500 14.500 978 17.101 C 973.875 18.531, 965.775 21.825, 960 24.421 C 954.225 27.017, 947.925 29.742, 946 30.477 C 944.075 31.211, 938 33.826, 932.500 36.287 L 922.500 40.762 922.214 30.801 C 921.971 22.331, 921.618 20.515, 919.859 18.670 C 918.001 16.721, 917.846 15.660, 918.346 8.250 L 918.903 0 888.951 0 L 859 0 859 4.846 C 859 7.512, 858.295 11.106, 857.433 12.834 C 856.571 14.561, 856.100 16.353, 856.387 16.817 C 856.673 17.280, 856.231 19.873, 855.404 22.579 C 852.458 32.228, 848 50.419, 848 52.795 C 848 54.125, 846.650 56.917, 845 59 C 843.350 61.083, 842 63.286, 842 63.894 C 842 64.502, 841.534 65, 840.964 65 C 840.395 65, 839.061 67.025, 838 69.500 C 836.939 71.975, 835.647 74, 835.129 74 C 834.611 74, 834.423 74.900, 834.710 76 C 834.998 77.100, 834.783 78, 834.233 78 C 833.683 78, 832.998 78.900, 832.710 80 C 832.395 81.206, 831.346 82, 830.068 82 C 828.006 82, 827.993 82.089, 829.592 85.250 C 830.496 87.037, 832.308 89.932, 833.618 91.683 C 836.645 95.729, 836.609 96.182, 833.354 94.945 C 830.910 94.015, 830.214 94.440, 824.231 100.512 C 820.669 104.127, 816.040 107.959, 813.945 109.028 C 811.850 110.097, 809.833 111.462, 809.462 112.061 C 809.026 112.767, 807.903 112.333, 806.270 110.825 L 803.752 108.500 804.486 111 C 805.817 115.534, 812.842 129.975, 815.972 134.614 L 819.047 139.169 816.119 137.085 C 812.999 134.863, 811 134.411, 811 135.928 C 811 138.805, 793.360 138.005, 775.750 134.329 C 770.330 133.197, 767.042 132.986, 764.813 133.625 L 761.625 134.539 761.891 156.547 L 762.156 178.555 758.454 180.320 C 756.418 181.291, 754.613 181.946, 754.442 181.775 C 754.271 181.605, 753.813 174.218, 753.424 165.360 L 752.716 149.255 746.947 148.652 C 732.163 147.107, 707.869 136.769, 698.750 128.142 C 696.688 126.191, 695 125.162, 695 125.856 C 695 126.550, 694.629 126.889, 694.176 126.609 C 693.723 126.329, 693.385 127.031, 693.426 128.169 C 693.467 129.307, 692.825 130.569, 692 130.973 C 691.175 131.377, 688.835 132.507, 686.801 133.484 C 684.261 134.703, 682.912 136.122, 682.498 138.011 C 681.993 140.306, 681.199 140.885, 677.697 141.509 C 671.243 142.660, 669.992 142.815, 662.821 143.356 C 659.088 143.638, 655.028 144.591, 653.615 145.517 C 650.364 147.647, 649 146.738, 649 142.441 C 649 140.548, 648.598 139, 648.107 139 C 646.934 139, 645.940 141.664, 646.521 143.250 C 646.773 143.938, 646.549 145.175, 646.022 146 C 645.203 147.284, 644.741 147.176, 642.811 145.250 C 641.570 144.012, 641.106 143, 641.778 143 C 642.450 143, 643 143.525, 643 144.167 C 643 144.808, 643.261 145.072, 643.581 144.752 C 643.901 144.433, 643.665 143.243, 643.058 142.108 C 642.190 140.487, 642.235 140.153, 643.266 140.549 C 644.074 140.859, 645.041 139.791, 645.779 137.776 C 646.439 135.974, 648.837 132.058, 651.108 129.073 C 654.937 124.041, 655.109 123.553, 653.472 122.356 C 651.195 120.691, 650.297 121.279, 644.081 128.500 C 639.769 133.510, 638.973 135.036, 639.258 137.750 C 639.595 140.966, 637.715 142.429, 636.687 139.750 C 636.366 138.913, 635.659 139.243, 634.547 140.750 C 633.634 141.987, 632.475 143, 631.973 143 C 631.470 143, 628.683 144.073, 625.780 145.384 C 622.876 146.696, 617.125 149.225, 613 151.005 C 608.875 152.785, 605.032 154.614, 604.460 155.069 C 603.888 155.524, 599.613 157.521, 594.960 159.507 C 590.307 161.493, 584.250 164.183, 581.500 165.485 C 571.138 170.389, 549.936 180, 549.481 180 C 549.220 180, 555.638 173.588, 563.742 165.750 C 571.846 157.912, 584.107 146.028, 590.989 139.339 C 597.870 132.651, 605.132 125.676, 607.126 123.839 C 609.121 122.003, 614.025 116.675, 618.025 112 C 629.481 98.612, 639.045 88.711, 639.796 89.462 C 640.280 89.947, 629.414 102.401, 625.945 105.337 C 624.751 106.347, 624.162 107.539, 624.637 107.985 C 625.112 108.431, 630.450 110.950, 636.500 113.584 C 646.568 117.966, 650.334 119.043, 661.250 120.656 C 663.313 120.961, 665 121.613, 665 122.105 C 665 122.597, 666.350 123, 668 123 C 669.650 123, 671 123.447, 671 123.994 C 671 125.440, 673.660 124.716, 681 121.274 C 684.575 119.597, 688.581 117.897, 689.902 117.497 C 691.223 117.096, 694.598 115.409, 697.402 113.748 C 703.196 110.316, 712.008 106.152, 726.500 100.001 C 732 97.667, 741 93.746, 746.500 91.287 C 752 88.829, 758.075 86.121, 760 85.270 C 761.925 84.418, 769.350 80.923, 776.500 77.504 C 783.650 74.084, 792.724 70.072, 796.664 68.588 C 802.113 66.537, 804.905 64.740, 808.323 61.086 C 813.463 55.590, 817.418 48.333, 815.637 47.665 C 815.012 47.430, 815.696 46.762, 817.157 46.179 C 818.925 45.475, 820.041 44.092, 820.489 42.050 C 820.860 40.361, 821.849 37.606, 822.686 35.928 C 823.523 34.249, 823.937 32.603, 823.604 32.271 C 823.272 31.939, 823 32.192, 823 32.833 C 823 34.670, 820.290 34.206, 816.230 31.674 C 814.179 30.394, 800.125 23.159, 785 15.594 C 769.875 8.030, 757.350 1.427, 757.167 0.921 C 756.617 -0.596, 694.277 -0.273, 693.662 1.250 C 693.259 2.250, 693.142 2.250, 693.079 1.250 C 693.018 0.282, 686.791 0, 665.500 0 C 638.667 0, 638 0.048, 638 2 C 638 3.100, 637.550 4, 637 4 C 636.450 4, 636 3.100, 636 2 C 636 -1.110, 634.321 -0.353, 633.637 3.065 M 824.195 2.500 C 824.215 4.150, 824.439 4.704, 824.693 3.731 C 824.947 2.758, 824.930 1.408, 824.656 0.731 C 824.382 0.054, 824.175 0.850, 824.195 2.500 M 592.813 2.683 C 593.534 2.972, 594.397 2.936, 594.729 2.604 C 595.061 2.272, 594.471 2.036, 593.417 2.079 C 592.252 2.127, 592.015 2.364, 592.813 2.683 M 581.264 3.718 C 582.784 3.947, 585.034 3.941, 586.264 3.704 C 587.494 3.467, 586.250 3.279, 583.500 3.286 C 580.750 3.294, 579.744 3.488, 581.264 3.718 M 678.093 9.131 C 676.942 10.366, 675.999 12.305, 675.997 13.439 C 675.995 14.614, 674.707 16.359, 673 17.500 C 671.353 18.600, 670.004 20.063, 670.003 20.750 C 670.001 21.438, 669.654 22, 669.230 22 C 668.807 22, 664.271 26.163, 659.150 31.250 C 643.406 46.892, 643.285 47.095, 645.862 53.655 L 647.653 58.216 651.528 54.666 C 653.660 52.713, 656.455 50.852, 657.741 50.529 C 659.027 50.206, 664.111 45.997, 669.039 41.175 C 676.534 33.843, 678 31.898, 678 29.288 C 678 27.571, 677.438 25.934, 676.750 25.651 C 675.966 25.327, 677.296 23.472, 680.312 20.679 C 684.529 16.775, 685.148 15.683, 685.312 11.862 C 685.486 7.828, 685.300 7.477, 682.843 7.193 C 681.091 6.990, 679.471 7.651, 678.093 9.131 M 725.079 15.583 C 725.127 16.748, 725.364 16.985, 725.683 16.188 C 725.972 15.466, 725.936 14.603, 725.604 14.271 C 725.272 13.939, 725.036 14.529, 725.079 15.583 M 915.685 17.097 C 915.383 18.251, 915.527 20.163, 916.005 21.347 C 916.704 23.082, 916.886 22.674, 916.937 19.250 C 917.006 14.615, 916.542 13.818, 915.685 17.097 M 689.601 18.666 C 690.521 22.498, 691 22.860, 691 19.726 C 691 18.291, 690.532 16.829, 689.960 16.475 C 689.278 16.054, 689.154 16.808, 689.601 18.666 M 599 25 C 599 25.550, 599.450 26, 600 26 C 600.550 26, 601 25.550, 601 25 C 601 24.450, 600.550 24, 600 24 C 599.450 24, 599 24.450, 599 25 M 685 25 C 685 25.550, 685.450 26, 686 26 C 686.550 26, 687 25.550, 687 25 C 687 24.450, 686.550 24, 686 24 C 685.450 24, 685 24.450, 685 25 M 681 26.500 C 681 27.325, 681.450 28, 682 28 C 682.550 28, 683 27.325, 683 26.500 C 683 25.675, 682.550 25, 682 25 C 681.450 25, 681 25.675, 681 26.500 M 760 29 C 760 30.467, 760.667 31, 762.500 31 C 764.056 31, 765 31.567, 765 32.500 C 765 33.553, 766.063 34, 768.571 34 C 772.103 34, 775 35.797, 775 37.988 C 775 38.609, 774.550 38.840, 774 38.500 C 773.434 38.150, 773 38.979, 773 40.410 C 773 42.083, 773.443 42.767, 774.310 42.434 C 775.031 42.158, 777.339 43.098, 779.439 44.523 C 781.540 45.949, 783.820 46.899, 784.507 46.636 C 785.194 46.372, 786.261 46.661, 786.878 47.278 C 787.707 48.107, 788 47.680, 788 45.641 C 788 44.056, 787.574 43.145, 787 43.500 C 786.018 44.107, 785.806 43.499, 785.602 39.500 C 785.537 38.228, 784.681 37.384, 783.250 37.180 C 782.013 37.005, 781 36.442, 781 35.930 C 781 35.419, 780.212 35.002, 779.250 35.005 C 776.123 35.014, 767.654 31.557, 765.150 29.250 C 762.127 26.464, 760 26.361, 760 29 M 990.702 32.865 C 988.632 39.840, 988.591 41, 990.421 41 C 991.787 41, 992.189 39.829, 993.556 31.865 C 994.571 25.947, 992.545 26.657, 990.702 32.865 M 749 29 C 749 29.550, 749.873 30, 750.941 30 C 752.009 30, 753.127 30.396, 753.425 30.879 C 753.724 31.363, 754.868 31.994, 755.967 32.281 C 757.630 32.716, 757.805 32.504, 757.010 31.019 C 755.537 28.267, 749 26.619, 749 29 M 785 29.559 C 785 30.416, 785.450 30.840, 786 30.500 C 786.550 30.160, 787 29.459, 787 28.941 C 787 28.423, 786.550 28, 786 28 C 785.450 28, 785 28.702, 785 29.559 M 591.500 30 C 591.160 30.550, 591.359 31, 591.941 31 C 592.523 31, 593 30.550, 593 30 C 593 29.450, 592.802 29, 592.559 29 C 592.316 29, 591.840 29.450, 591.500 30 M 588 34.059 C 588 34.641, 588.450 34.840, 589 34.500 C 589.550 34.160, 590 33.684, 590 33.441 C 590 33.198, 589.550 33, 589 33 C 588.450 33, 588 33.477, 588 34.059 M 784 33.941 C 784 34.459, 784.450 35.160, 785 35.500 C 785.550 35.840, 786 35.416, 786 34.559 C 786 33.702, 785.550 33, 785 33 C 784.450 33, 784 33.423, 784 33.941 M 765 36 C 765 36.550, 765.450 37, 766 37 C 766.550 37, 767 36.550, 767 36 C 767 35.450, 766.550 35, 766 35 C 765.450 35, 765 35.450, 765 36 M 792.651 38.210 C 791.741 41.669, 793.079 51, 794.485 51 C 796.037 51, 800 54.419, 800 55.759 C 800 56.322, 801.166 57.076, 802.591 57.433 C 804.248 57.849, 804.990 58.583, 804.650 59.469 C 804.219 60.592, 804.677 60.660, 807.059 59.829 C 808.924 59.180, 810 58.108, 810 56.902 C 810 55.856, 810.627 55, 811.393 55 C 812.159 55, 813.059 54.288, 813.393 53.418 C 814.271 51.130, 814.141 50, 813 50 C 812.450 50, 812 50.956, 812 52.125 C 812 53.989, 811.601 54.170, 808.750 53.598 C 806.962 53.240, 803.813 52.676, 801.750 52.346 C 799.688 52.015, 798 51.352, 798 50.872 C 798 50.392, 797.325 50, 796.500 50 C 795.422 50, 794.964 48.804, 794.872 45.750 C 794.605 36.838, 793.764 33.983, 792.651 38.210 M 768 40 C 768 40.550, 768.900 41, 770 41 C 771.100 41, 772 40.550, 772 40 C 772 39.450, 771.100 39, 770 39 C 768.900 39, 768 39.450, 768 40 M 912.672 47.680 C 911.100 54.734, 909.579 64.852, 908.441 75.835 C 907.891 81.142, 906.685 84.146, 901.021 94.335 C 891.701 111.099, 891.333 111.793, 888.510 117.923 C 887.137 120.906, 886.182 123.516, 886.389 123.722 C 886.947 124.280, 893.787 120.277, 896.309 117.918 C 897.514 116.790, 899.962 115.171, 901.750 114.320 C 903.538 113.469, 905 112.109, 905 111.299 C 905 110.489, 906.350 109.317, 908 108.694 C 909.650 108.071, 911 107.210, 911 106.781 C 911 106.351, 911.638 106, 912.417 106 C 913.196 106, 914.096 105.438, 914.417 104.750 C 914.883 103.750, 915.117 103.750, 915.583 104.750 C 915.904 105.437, 916.579 106, 917.083 106 C 918.461 106, 918.186 103.242, 916.750 102.662 C 915.914 102.325, 916.010 102.132, 917.039 102.079 C 917.885 102.036, 920.342 101.100, 922.500 100 C 924.658 98.900, 927.193 98, 928.135 98 C 929.076 98, 931.257 96.813, 932.980 95.363 C 936.481 92.418, 949.830 82.178, 952.667 80.262 C 959.743 75.484, 967.047 71.115, 966.511 71.982 C 966.159 72.552, 966.163 73.938, 966.520 75.062 C 967.037 76.693, 967.454 76.868, 968.584 75.930 C 969.363 75.284, 970 73.910, 970 72.878 C 970 71.845, 970.592 71, 971.316 71 C 973.649 71, 983.583 60.657, 986.332 55.365 C 991.804 44.831, 988.623 42.516, 982.500 52.577 C 976.800 61.941, 972.120 65.361, 957.739 70.670 C 951.008 73.156, 945.050 75.557, 944.500 76.006 C 943.950 76.455, 941.250 77.714, 938.500 78.804 C 935.750 79.893, 926.862 83.498, 918.750 86.814 C 908.580 90.972, 904 92.421, 904 91.481 C 904 90.731, 904.456 89.836, 905.014 89.491 C 908.431 87.379, 911.188 76.197, 912.532 59 C 912.855 54.875, 913.593 49.338, 914.172 46.696 C 914.751 44.054, 914.993 41.660, 914.709 41.376 C 914.425 41.091, 913.508 43.928, 912.672 47.680 M 637.750 52.706 C 640.438 53.223, 640.771 55, 638.180 55 C 637.180 55, 635.382 56.125, 634.187 57.500 C 632.991 58.875, 631.670 60, 631.251 60 C 630.831 60, 629.831 61.462, 629.027 63.250 C 627.949 65.649, 627.473 66.042, 627.210 64.750 C 626.604 61.777, 625.419 62.674, 620.626 69.732 C 619.046 72.060, 617.449 73.778, 617.078 73.548 C 616.708 73.319, 615.874 73.460, 615.225 73.861 C 613.536 74.904, 614.818 85, 616.639 85 C 617.388 85, 618 84.580, 618 84.067 C 618 83.554, 618.900 82.849, 620 82.500 C 622.465 81.718, 622.633 80.011, 620.250 79.970 C 618.596 79.941, 618.597 79.883, 620.270 78.909 C 621.244 78.342, 622.819 78.107, 623.770 78.387 C 624.958 78.736, 628.438 76.133, 634.882 70.074 L 644.265 61.252 643.571 56.626 C 642.885 52.053, 642.835 52.002, 639.189 52.136 C 636.863 52.222, 636.331 52.432, 637.750 52.706 M 806 56 C 806 56.550, 806.702 57, 807.559 57 C 808.416 57, 808.840 56.550, 808.500 56 C 808.160 55.450, 807.459 55, 806.941 55 C 806.423 55, 806 55.450, 806 56 M 627.624 59.539 C 626.659 62.053, 626.943 62.702, 628.122 60.675 C 628.706 59.671, 628.973 58.639, 628.715 58.382 C 628.458 58.124, 627.966 58.645, 627.624 59.539 M 609 80.441 C 609 81.298, 609.450 82, 610 82 C 610.550 82, 611 81.577, 611 81.059 C 611 80.541, 610.550 79.840, 610 79.500 C 609.450 79.160, 609 79.584, 609 80.441 M 955.596 80.611 C 955.143 81.791, 955.404 82.059, 956.570 81.611 C 957.447 81.275, 958.352 81, 958.582 81 C 958.812 81, 959 80.550, 959 80 C 959 78.371, 956.267 78.862, 955.596 80.611 M 606.182 83.585 C 604.633 84.670, 604.111 85.774, 604.527 87.085 C 605.018 88.632, 604.642 89, 602.567 89 C 600.381 89, 600 89.446, 600 92 C 600 94.533, 600.389 95, 602.500 95 C 603.875 95, 605 94.636, 605 94.192 C 605 93.747, 606.789 92.060, 608.976 90.442 C 613.581 87.035, 613.763 86.396, 610.847 83.867 C 608.277 81.639, 608.906 81.677, 606.182 83.585 M 664 130 C 662.718 130.828, 662.754 130.972, 664.250 130.985 C 665.212 130.993, 666 130.550, 666 130 C 666 128.780, 665.887 128.780, 664 130 M 652.500 134.926 C 649.200 136.533, 647.261 137.881, 648.191 137.923 C 649.121 137.965, 650.129 137.600, 650.432 137.111 C 650.734 136.622, 652.186 135.919, 653.659 135.549 C 656.478 134.842, 661.140 131.998, 659.473 132.003 C 658.938 132.005, 655.800 133.320, 652.500 134.926 M 400.123 172.250 C 399.056 174.018, 399.047 174.232, 400.082 173.250 C 400.807 172.563, 402.772 171.968, 404.450 171.930 C 407.059 171.870, 407.211 171.735, 405.500 171 C 402.370 169.655, 401.578 169.839, 400.123 172.250 M 337.750 198.662 C 338.438 198.940, 339.563 198.940, 340.250 198.662 C 340.938 198.385, 340.375 198.158, 339 198.158 C 337.625 198.158, 337.063 198.385, 337.750 198.662 M 328 200 C 328 201.194, 330.721 201.194, 333.500 200 C 335.104 199.311, 334.758 199.127, 331.750 199.070 C 329.688 199.032, 328 199.450, 328 200 M 601.564 220.293 C 601.940 221.279, 602.499 221.834, 602.807 221.526 C 603.115 221.219, 602.808 220.412, 602.124 219.733 C 601.136 218.753, 601.022 218.868, 601.564 220.293 M 413.168 222.750 C 413.076 224.537, 412.523 226, 411.941 226 C 411.359 226, 411.086 226.338, 411.336 226.750 C 411.810 227.533, 409.479 230.143, 408.857 229.526 C 408.660 229.332, 408.406 230.596, 408.292 232.336 C 408.108 235.135, 408.211 235.269, 409.179 233.500 C 409.781 232.400, 411.142 230.539, 412.204 229.364 C 413.612 227.806, 414.026 226.182, 413.735 223.364 C 413.365 219.775, 413.324 219.731, 413.168 222.750 M 599.813 223.683 C 600.534 223.972, 601.397 223.936, 601.729 223.604 C 602.061 223.272, 601.471 223.036, 600.417 223.079 C 599.252 223.127, 599.015 223.364, 599.813 223.683 M 274.500 231 C 272.741 231.756, 272.838 231.868, 275.309 231.930 C 276.941 231.971, 277.859 231.581, 277.500 231 C 277.160 230.450, 276.796 230.032, 276.691 230.070 C 276.586 230.109, 275.600 230.527, 274.500 231 M 262.500 231.703 C 256.367 232.266, 255.336 232.782, 257.072 234.420 C 259.092 236.325, 266.115 237.484, 265.766 235.854 C 265.620 235.170, 266.813 234.361, 268.418 234.056 C 270.022 233.750, 271.522 232.938, 271.751 232.250 C 272.173 230.981, 271.075 230.917, 262.500 231.703 M 304.646 267.132 C 304.294 272.284, 303.852 277.962, 303.664 279.750 C 303.343 282.801, 303.514 283, 306.470 283 C 308.201 283, 310.419 283.586, 311.399 284.303 C 313.029 285.494, 313.043 285.719, 311.571 286.941 C 308.888 289.168, 310.545 294.875, 315.145 299.250 C 317.313 301.313, 319.761 303, 320.585 303 C 322.860 303, 325.488 299.976, 327.337 295.230 C 329.520 289.624, 329.436 287.304, 327 286 C 324.660 284.748, 324.488 283.654, 326.341 281.802 C 327.081 281.062, 328.003 276.918, 328.398 272.558 C 328.792 268.212, 329.201 264.179, 329.307 263.597 C 329.711 261.374, 321.620 258.622, 313.415 258.191 L 305.285 257.764 304.646 267.132 M 261.500 324 C 261.840 324.550, 262.316 325, 262.559 325 C 262.802 325, 263 324.550, 263 324 C 263 323.450, 262.523 323, 261.941 323 C 261.359 323, 261.160 323.450, 261.500 324 M 261 327 C 261 327.550, 261.450 328, 262 328 C 262.550 328, 263 327.550, 263 327 C 263 326.450, 262.550 326, 262 326 C 261.450 326, 261 326.450, 261 327 M 481.813 347.683 C 482.534 347.972, 483.397 347.936, 483.729 347.604 C 484.061 347.272, 483.471 347.036, 482.417 347.079 C 481.252 347.127, 481.015 347.364, 481.813 347.683 M 997.500 350 C 995.592 350.820, 995.603 350.863, 997.750 350.930 C 998.987 350.968, 1000 350.550, 1000 350 C 1000 349.450, 999.888 349.032, 999.750 349.070 C 999.612 349.109, 998.600 349.527, 997.500 350" stroke="none" fill="#ffffff" fill-rule="evenodd"/>
</svg>