<svg xmlns="http://www.w3.org/2000/svg" width="1000" height="419" viewBox="0 0 1000 419" version="1.1">
	<path d="M 123.609 107 C 112 115.785, 81.318 145.996, 79.440 150.490 C 78.546 152.630, 78 157.376, 78 163.013 C 78 171.318, 78.209 172.300, 80.455 174.545 C 82.678 176.769, 83.715 177, 91.455 177 C 103.240 177, 104 176.192, 104 163.649 C 104 153.425, 105.202 148.497, 108.072 146.962 C 110.832 145.484, 119.736 145.536, 121.548 147.040 C 124.560 149.540, 126 155.045, 126 164.065 C 126 175.575, 126.521 176, 140.650 176 C 150.483 176, 150.930 176.096, 152.927 178.635 C 155.780 182.261, 155.825 192.134, 153.011 196.750 C 151.921 198.537, 150.910 200.046, 150.765 200.103 C 150.619 200.159, 145.471 200.509, 139.324 200.881 C 124.533 201.774, 124.167 202.094, 124.358 213.976 C 124.487 222, 124.279 223.073, 122.155 225.334 C 120.866 226.707, 118.711 228.107, 117.368 228.444 C 113.840 229.329, 107.215 227.271, 105.943 224.894 C 105.343 223.773, 104.771 218.455, 104.671 213.076 C 104.557 206.935, 104.021 202.730, 103.231 201.778 C 101.514 199.710, 87.595 198.779, 83.500 200.459 C 77.615 202.874, 77.689 202.436, 77.735 234.596 C 77.780 266.932, 77.502 265.400, 83.815 268.034 C 87.231 269.459, 186.476 269.306, 193.193 267.865 C 197.718 266.895, 199.356 265.832, 204.493 260.536 C 218.947 245.631, 226 238.070, 226 237.481 C 226 237.133, 229.169 233.621, 233.043 229.678 C 236.916 225.735, 240.367 221.387, 240.711 220.015 C 241.421 217.185, 239.411 196.558, 237.834 190.500 C 236.707 186.170, 235.605 185.039, 232.487 185.015 C 231.380 185.007, 229.661 183.916, 228.666 182.592 C 227.672 181.267, 225.540 179.638, 223.929 178.971 C 222.318 178.303, 221 177.394, 221 176.950 C 221 175.849, 218.072 173, 216.941 173 C 216.437 173, 214.889 174.800, 213.500 177 C 212.111 179.200, 210.375 181, 209.642 181 C 207.642 181, 205.101 184.244, 204.415 187.673 C 203.893 190.285, 204.458 191.449, 208.403 195.891 C 210.932 198.738, 213 201.638, 213 202.337 C 213 203.036, 214.575 205.134, 216.500 207 C 218.425 208.866, 220 210.963, 220 211.661 C 220 212.359, 221.350 214.468, 223 216.347 C 227.513 221.487, 226.754 226.524, 221.020 229.490 C 212.118 234.093, 197.774 227.346, 192.941 216.281 C 189.749 208.975, 183.710 209.216, 178.981 216.837 C 175.910 221.788, 170.777 226.374, 166.478 228.008 C 159.473 230.672, 150 227.728, 150 222.888 C 150 220.162, 153.650 213.219, 157.382 208.847 C 160.504 205.189, 162.544 202.256, 167.580 194.179 C 170.065 190.192, 170.181 189.548, 169.078 185.866 C 168.421 183.671, 166.426 180.216, 164.645 178.188 C 162.865 176.160, 160.583 173.150, 159.575 171.500 C 158.566 169.850, 156.682 167.359, 155.388 165.964 C 151.760 162.052, 146.770 151.052, 147.431 148.420 C 148.226 145.253, 153.632 143.712, 162.394 144.155 C 169.071 144.492, 169.957 144.807, 174.038 148.301 C 176.468 150.380, 179.365 153.976, 180.478 156.291 C 182.797 161.118, 185.982 162.231, 189.183 159.334 C 190.896 157.784, 191.141 156.562, 190.804 151.261 C 190.441 145.558, 190.083 144.718, 186.703 141.622 C 184.666 139.757, 183 137.759, 183 137.183 C 183 136.606, 182.100 135.849, 181 135.500 C 179.900 135.151, 179 134.467, 179 133.979 C 179 133.492, 176.975 131.097, 174.500 128.657 C 172.025 126.217, 170 123.927, 170 123.568 C 170 121.482, 161.034 113.480, 156.500 111.520 C 154.850 110.807, 151.485 109.892, 149.022 109.485 C 146.559 109.079, 143.634 108.164, 142.522 107.450 C 140.891 106.404, 130.374 103.914, 128.066 104.028 C 127.755 104.043, 125.749 105.381, 123.609 107 M 664.977 122.023 C 663.189 123.811, 663 125.389, 663 138.566 C 663 157.845, 664.907 161.693, 669.536 151.750 C 672.549 145.279, 672.596 143.124, 669.826 138.430 C 667.877 135.126, 667.774 134.295, 668.826 130.359 C 671.113 121.811, 669.241 117.759, 664.977 122.023 M 333.498 123.363 C 331.545 126.343, 332.249 129.627, 335.031 130.510 C 336.091 130.846, 337.740 132.445, 338.696 134.062 C 340.531 137.169, 343.234 138.591, 345.106 137.435 C 345.805 137.003, 346.049 134.865, 345.753 131.781 C 345.223 126.267, 342.392 122.583, 337.831 121.473 C 335.681 120.950, 334.838 121.318, 333.498 123.363 M 518.784 122.750 C 516.456 125.418, 515.389 144.418, 517.394 147.478 C 518.690 149.456, 518.701 150.017, 517.478 151.633 C 515.461 154.296, 515.676 157.756, 517.934 158.965 C 520.796 160.496, 534.249 160.270, 536.460 158.653 C 538.851 156.904, 537.611 156.157, 530.358 154.977 C 526.805 154.399, 523.776 153.203, 522.250 151.777 L 519.813 149.500 524.551 145.319 L 529.289 141.138 525.644 137.701 C 521.754 134.032, 521.393 132.727, 523.055 128.354 C 525.169 122.795, 522.173 118.865, 518.784 122.750 M 572.898 123.288 L 569.500 125.575 569.220 137.645 C 569.067 144.283, 569.390 150.896, 569.940 152.341 L 570.939 154.969 574.491 152.873 C 581.985 148.451, 583.297 142.288, 577.474 138.852 C 573.525 136.522, 571.528 133.573, 572.660 131.741 C 573.074 131.072, 574.669 129.466, 576.206 128.173 C 579.129 125.714, 580.076 121, 577.648 121 C 576.904 121, 574.767 122.029, 572.898 123.288 M 752.914 122.609 C 750.902 125.041, 750.866 155.931, 752.872 158.347 C 753.934 159.626, 756.011 160, 762.041 160 C 770.589 160, 773 159.450, 773 157.500 C 773 155.824, 770.729 155, 766.109 155 C 759.072 155, 758.563 153.940, 758 138.117 C 757.608 127.107, 757.157 123.725, 755.914 122.483 C 754.467 121.038, 754.204 121.049, 752.914 122.609 M 799.358 124.686 C 798.263 127.305, 798.070 129.260, 798.691 131.436 C 799.457 134.125, 800.058 134.537, 803.599 134.799 C 807.113 135.059, 807.788 134.761, 808.817 132.502 C 811.450 126.724, 808.778 121, 803.449 121 C 801.454 121, 800.562 121.804, 799.358 124.686 M 857.557 123.223 C 855.626 125.978, 855.569 128.397, 857.398 129.915 C 858.505 130.834, 859.233 130.520, 860.898 128.403 C 863.298 125.352, 863.508 123.908, 861.800 122.200 C 860.104 120.504, 859.330 120.690, 857.557 123.223 M 369.223 123.557 C 367.100 125.043, 367 125.765, 367 139.557 C 367 147.501, 367.402 154, 367.893 154 C 369.309 154, 370 151.250, 370 145.618 C 370 137.276, 373.274 135.946, 381.986 140.750 C 385.314 142.585, 387.524 144.665, 388.628 147 C 390.183 150.287, 398.579 159, 400.193 159 C 402.167 159, 403.212 154.300, 402.621 148.085 C 402.277 144.463, 401.884 137.682, 401.748 133.015 C 401.538 125.848, 401.228 124.478, 399.750 124.192 C 398.238 123.899, 398 124.680, 398 129.927 C 398 136.402, 395.936 140, 392.223 140 C 389.902 140, 386 137.242, 386 135.602 C 386 134.896, 384.183 132.334, 381.961 129.909 C 379.740 127.484, 377.265 124.713, 376.461 123.750 C 374.654 121.585, 372.133 121.518, 369.223 123.557 M 421.607 123.882 C 419.507 126.202, 419.821 129.342, 422.200 129.800 C 424.375 130.219, 428.217 126.370, 427.801 124.189 C 427.338 121.758, 423.693 121.577, 421.607 123.882 M 590.676 123.403 C 589.851 125.551, 592.142 127.903, 595.750 128.612 C 599.889 129.425, 600.205 127.093, 596.365 124.073 C 593.292 121.655, 591.430 121.436, 590.676 123.403 M 638.180 124.250 C 638.379 125.649, 639.824 127.159, 642 128.242 C 645.137 129.803, 645.576 130.529, 646.229 135.242 C 646.653 138.300, 646.502 142.510, 645.867 145.304 C 644.620 150.789, 644.944 151.482, 648.354 150.626 C 651.399 149.862, 653 145.624, 653 138.329 C 653 133.153, 652.800 132.756, 647.522 127.478 C 641.646 121.603, 637.606 120.207, 638.180 124.250 M 736.087 124.270 C 735.613 125.519, 735.061 132.044, 734.862 138.770 C 734.543 149.549, 734.693 151, 736.128 151 C 739.517 151, 740.486 147.994, 740.856 136.332 C 741.110 128.334, 740.852 124.527, 739.986 123.483 C 738.257 121.399, 737.089 121.635, 736.087 124.270 M 899.200 123.200 C 898.365 124.035, 898 129.350, 898 140.677 C 898 156.474, 898.066 156.995, 900.250 158.359 C 905.361 161.551, 921 160.950, 921 157.561 C 921 156.048, 919.035 155.452, 910.780 154.463 C 904.119 153.664, 902.234 152.055, 903.578 148.317 C 904.205 146.573, 905.893 145.233, 908.852 144.127 C 911.246 143.232, 913.229 142.050, 913.260 141.500 C 913.290 140.950, 911.900 139.772, 910.169 138.882 C 904.260 135.843, 903.721 135, 904.343 129.752 C 904.657 127.104, 904.660 124.276, 904.350 123.469 C 903.669 121.694, 900.853 121.547, 899.200 123.200 M 442 123.956 C 442 124.481, 443.113 126.551, 444.474 128.556 C 445.834 130.561, 447.234 133.731, 447.585 135.601 C 448.935 142.799, 451.568 136.971, 450.421 129.323 C 449.897 125.831, 449.219 124.653, 447.311 123.928 C 444.170 122.734, 442 122.745, 442 123.956 M 616 124.501 C 614.090 126.801, 613.401 135.008, 615.120 134.969 C 616.850 134.930, 623 126.879, 623 124.652 C 623 122.510, 617.746 122.396, 616 124.501 M 834.070 124.870 C 832.746 127.344, 832.664 152.920, 833.974 154.992 C 834.744 156.210, 835.154 156.247, 836.208 155.193 C 837.108 154.295, 837.603 149.573, 837.840 139.648 C 838.121 127.824, 837.920 125.179, 836.659 124.132 C 835.401 123.088, 834.955 123.215, 834.070 124.870 M 281.616 125.527 C 279.765 127.378, 279.517 129.583, 281.053 130.533 C 282.270 131.285, 286.212 127.137, 285.711 125.633 C 285.131 123.894, 283.296 123.847, 281.616 125.527 M 301 126.496 C 301 127.946, 301.489 130.044, 302.086 131.160 C 302.972 132.816, 302.743 133.647, 300.836 135.686 C 296.610 140.205, 295.579 140.310, 288.393 136.950 C 283.468 134.647, 281.463 134.137, 280.627 134.973 C 279.394 136.206, 279.066 145.399, 280.214 146.547 C 280.969 147.302, 286.324 146.061, 291.750 143.872 C 294.437 142.789, 295.563 142.792, 298.250 143.889 C 304.673 146.512, 305.528 146.100, 305.270 140.500 C 304.945 133.423, 304.941 131.949, 305.237 128 C 305.460 125.036, 305.156 124.451, 303.250 124.180 C 301.405 123.918, 301 124.335, 301 126.496 M 495.688 124.646 C 495.309 125.024, 495 128.824, 495 133.090 C 495 141.069, 493.404 150.511, 491.671 152.789 C 490.985 153.691, 488.409 153.992, 483.095 153.789 L 475.500 153.500 474.371 150 C 473.168 146.271, 470.388 144.826, 469.395 147.414 C 468.623 149.425, 473.406 157.612, 476.238 159.127 C 477.434 159.768, 480.910 160.338, 483.962 160.396 C 489.040 160.491, 489.918 160.161, 494.299 156.502 C 496.932 154.303, 499.312 151.603, 499.587 150.502 C 499.863 149.401, 499.731 143.136, 499.294 136.581 C 498.566 125.657, 497.664 122.670, 495.688 124.646 M 685 124.633 C 685 125.051, 686.193 127.114, 687.651 129.218 C 689.929 132.505, 690.141 133.396, 689.157 135.554 C 688.477 137.047, 686.185 138.849, 683.507 139.997 C 681.028 141.060, 679 142.395, 679 142.964 C 679 144.723, 687.578 144.163, 689.937 142.250 C 691.876 140.678, 692.065 139.685, 691.798 132.500 L 691.500 124.500 688.250 124.187 C 686.462 124.014, 685 124.215, 685 124.633 M 704.558 125.250 C 703.244 129.575, 703.174 132.499, 704.189 140.772 C 705.231 149.270, 705.525 150.094, 707.710 150.642 C 709.021 150.971, 710.324 151.010, 710.606 150.728 C 710.888 150.446, 710.392 147.717, 709.505 144.664 C 708.604 141.567, 707.982 136.280, 708.098 132.708 C 708.212 129.185, 707.985 125.785, 707.594 125.152 C 706.654 123.631, 705.033 123.684, 704.558 125.250 M 876 124.671 C 876 125.040, 876.713 126.131, 877.585 127.094 C 878.456 128.057, 879.410 130.635, 879.703 132.824 C 880.363 137.745, 878.750 138.859, 870.577 139.126 C 866.091 139.273, 864.283 138.846, 861.888 137.075 C 860.224 135.845, 858.243 135.076, 857.487 135.367 C 854.432 136.539, 854.483 147.496, 857.555 150.046 C 858.702 150.998, 859.553 150.619, 861.892 148.115 C 865.482 144.272, 868.226 144.161, 870.917 147.750 C 874.493 152.520, 875.036 153, 876.863 153 C 878.259 153, 878.897 151.653, 879.799 146.807 C 880.620 142.390, 881.649 140.025, 883.389 138.557 C 884.730 137.426, 886.089 135.590, 886.409 134.477 C 887.131 131.966, 885.475 125.919, 883.768 124.836 C 882.232 123.861, 876 123.729, 876 124.671 M 601 132.878 C 601 134.045, 601.423 135, 601.941 135 C 603.673 135, 603.994 133.240, 602.489 131.991 C 601.250 130.962, 601 131.111, 601 132.878 M 325.514 141.958 C 324.608 144.685, 324.009 148.398, 324.184 150.208 C 324.536 153.876, 323.285 153.671, 337.533 152.395 C 344.174 151.800, 344.748 151.917, 347.798 154.484 C 352.151 158.146, 354 157.266, 354 151.531 C 354 148.333, 353.412 146.412, 352 145 C 349.582 142.582, 348.396 142.538, 341.284 144.606 C 334.491 146.580, 331.550 145.561, 329.435 140.498 C 328.631 138.574, 327.790 137, 327.567 137 C 327.344 137, 326.420 139.231, 325.514 141.958 M 415.079 138.583 C 415.127 139.748, 415.364 139.985, 415.683 139.188 C 415.972 138.466, 415.936 137.603, 415.604 137.271 C 415.272 136.939, 415.036 137.529, 415.079 138.583 M 590.750 139.080 C 588.577 140.346, 588.460 143.856, 590.564 144.663 C 593.274 145.703, 597 143.306, 597 140.521 C 597 138.564, 596.496 138.007, 594.750 138.030 C 593.513 138.047, 591.712 138.519, 590.750 139.080 M 792.089 143.316 C 789.612 148.434, 789.383 152.826, 791.550 153.657 C 792.402 153.985, 795.665 153.715, 798.800 153.058 C 804.261 151.914, 811.023 152.440, 817.750 154.533 C 819.835 155.182, 820 154.928, 820 151.069 C 820 147.850, 819.399 146.348, 817.354 144.452 C 814.112 141.447, 812.922 141.409, 808.146 144.158 C 803.397 146.891, 799.632 146.124, 797.493 141.986 C 796.643 140.343, 795.550 139, 795.064 139 C 794.577 139, 793.238 140.942, 792.089 143.316 M 445.903 147.487 C 443.467 152.994, 441.714 153.990, 433.949 154.276 C 428.126 154.490, 427.744 154.353, 425.083 151.097 C 423.475 149.130, 421.821 147.992, 421.161 148.400 C 419.651 149.333, 424.218 158.468, 426.704 159.487 C 430.224 160.929, 446.573 161.296, 450.442 160.019 C 454.455 158.695, 454.543 158.249, 452.130 151.500 C 451.540 149.850, 450.811 147.262, 450.509 145.750 C 449.718 141.777, 448.171 142.360, 445.903 147.487 M 614.667 144.667 C 613.243 146.090, 614.083 151.071, 616.029 152.750 C 617.145 153.713, 619.282 155.678, 620.779 157.118 C 624.214 160.423, 627.846 161.288, 634.691 160.433 C 640.725 159.679, 643 158.035, 643 154.429 C 643 151.558, 643.203 151.599, 638.594 153.525 C 635.900 154.651, 633.246 154.876, 628.456 154.385 C 622.517 153.777, 621.917 153.500, 621.365 151.110 C 620.124 145.736, 616.797 142.536, 614.667 144.667 M 281.250 152.662 C 279.252 153.469, 279.804 156.749, 282.223 158.443 C 285.101 160.459, 300.746 160.637, 303.418 158.684 C 305.804 156.939, 305.102 153.382, 302.462 153.840 C 295.491 155.050, 292.747 155.002, 287.987 153.589 C 285.045 152.715, 282.606 152.036, 282.568 152.079 C 282.531 152.122, 281.938 152.385, 281.250 152.662 M 726.500 153.596 C 723.248 154.798, 721.602 154.859, 717.696 153.924 C 712.193 152.607, 711.514 152.929, 712.395 156.438 C 713.157 159.476, 716.178 160.500, 724.249 160.459 C 730.542 160.427, 732.753 159.090, 733.218 155.037 C 733.568 151.988, 731.849 151.619, 726.500 153.596 M 881.171 156.648 C 881.364 157.654, 882.346 158.636, 883.352 158.829 C 884.673 159.084, 885.084 158.673, 884.829 157.352 C 884.636 156.346, 883.654 155.364, 882.648 155.171 C 881.327 154.916, 880.916 155.327, 881.171 156.648" stroke="none" fill="#ffffff" fill-rule="evenodd"/>
</svg>