<svg xmlns="http://www.w3.org/2000/svg" width="1000" height="317" viewBox="0 0 1000 317" version="1.1">
	<path d="M 350.500 3.247 C 343.014 4.703, 328.388 10.451, 320.649 14.979 C 303.183 25.200, 284.793 44.055, 271.051 65.832 L 267.686 71.165 264.593 66.168 C 256.241 52.676, 242.507 43.430, 223.500 38.503 C 203.979 33.443, 205.036 33.500, 130.500 33.500 L 60.500 33.500 60.177 37.460 C 59.776 42.375, 61.654 44, 67.736 44 C 74.678 44, 84.545 46.887, 87.171 49.685 C 89.311 51.966, 89.492 52.994, 89.401 62.334 C 89.330 69.639, 88.664 74.752, 87.034 80.500 C 84.596 89.099, 83.647 92.513, 82.172 98 C 80.900 102.730, 76.539 118.493, 73.458 129.500 C 72.072 134.450, 69.836 142.550, 68.487 147.500 C 67.139 152.450, 64.664 161.450, 62.987 167.500 C 61.310 173.550, 59.097 181.650, 58.069 185.500 C 57.040 189.350, 55.440 195.200, 54.513 198.500 C 53.585 201.800, 52.468 205.850, 52.028 207.500 C 51.165 210.745, 47.471 224.131, 43.474 238.500 C 42.096 243.450, 39.815 251.775, 38.404 257 C 36.993 262.225, 34.969 269.200, 33.906 272.500 C 29.672 285.646, 22.641 293.787, 13.596 296.015 C 1.265 299.053, 2 298.544, 2 304.040 L 2 309 74.326 309 C 148.303 309, 153.089 308.802, 174.500 304.864 C 181.963 303.491, 193.512 299.692, 201.829 295.873 C 223.949 285.718, 241.902 263.921, 247.520 240.400 C 249.295 232.966, 249.343 215.233, 247.608 207.981 C 243.934 192.625, 233.875 180.763, 217.458 172.429 C 211.981 169.649, 205.250 166.556, 202.500 165.556 C 196.704 163.447, 195.057 162.253, 197.083 161.628 C 197.862 161.387, 202.550 159.963, 207.500 158.463 C 223.057 153.750, 236.022 147.855, 244.969 141.427 C 247.592 139.542, 250.248 138, 250.869 138 C 251.540 138, 252 139.799, 252 142.419 C 252 148.026, 254.501 157.842, 257.746 164.970 C 261.447 173.099, 272.413 183.459, 282.526 188.379 C 286.912 190.513, 291.400 192.635, 292.500 193.095 C 305.405 198.490, 333.674 198.348, 348.500 192.813 C 355.505 190.198, 369 183.642, 369 182.855 C 369 182.385, 369.498 182, 370.106 182 C 372.158 182, 387.634 169.193, 394.494 161.818 C 414.662 140.138, 428.663 114.850, 433.704 91 C 435.378 83.075, 435.900 62.319, 434.796 47.543 L 434.500 43.585 439.500 43.875 C 450.844 44.532, 454.246 49.288, 452.328 61.810 C 451.412 67.791, 449.884 73.872, 443.107 98.500 C 442.048 102.350, 440.010 109.775, 438.579 115 C 437.148 120.225, 434.851 128.550, 433.474 133.500 C 425.008 163.930, 421.083 178.204, 418.074 189.500 C 417.049 193.350, 414.773 201.675, 413.017 208 C 409.015 222.408, 406.839 230.328, 404.088 240.500 C 402.898 244.900, 401.305 250.525, 400.549 253 C 397.326 263.542, 394 280.296, 394 285.986 C 394 301.597, 406.289 313.439, 422.500 313.451 C 440.146 313.463, 457.680 303.089, 473.033 283.552 C 475.867 279.947, 478.608 277.258, 479.125 277.577 C 479.641 277.896, 481.038 280.260, 482.229 282.829 C 487.601 294.421, 504.311 306.246, 522.818 311.555 C 530.977 313.896, 533.396 314.164, 542.800 313.777 C 555.833 313.241, 563.312 310.852, 573.982 303.820 C 578.096 301.108, 581.614 299.342, 581.799 299.897 C 582.848 303.045, 587.181 307.922, 591.519 310.836 C 596.423 314.132, 596.600 314.168, 605.992 313.789 C 614.324 313.454, 616.338 312.993, 622.280 310.062 C 630.042 306.234, 639.887 297.526, 649.550 285.940 C 653.193 281.573, 656.478 278, 656.850 278 C 657.223 278, 658.636 280.335, 659.991 283.188 C 665.351 294.479, 679.464 306.089, 694.500 311.579 C 701.814 314.249, 703.572 314.493, 715 314.423 C 725.635 314.357, 728.911 313.927, 736.960 311.541 C 763.499 303.673, 782.356 291.049, 800.317 269.124 C 801.838 267.268, 803.306 265.973, 803.580 266.247 C 803.854 266.521, 803.108 270.290, 801.922 274.622 C 800.736 278.955, 799.407 283.850, 798.969 285.500 C 798.532 287.150, 797.411 291.200, 796.479 294.500 C 794.428 301.764, 793.056 307.231, 793.024 308.267 C 793.011 308.690, 804.103 308.915, 817.674 308.767 L 842.348 308.500 844.533 301 C 845.735 296.875, 848.185 288.325, 849.977 282 C 861.533 241.207, 873.869 210.549, 886.454 191.340 C 896.098 176.621, 901.561 169.490, 909 161.915 C 918.284 152.461, 921.656 150.283, 928.456 149.351 C 937.585 148.100, 942.432 153.079, 940.090 161.302 C 938.129 168.185, 933.930 182.018, 931.531 189.500 C 930.296 193.350, 928.139 200.325, 926.737 205 C 925.335 209.675, 922.970 217.550, 921.481 222.500 C 919.993 227.450, 918.313 233.075, 917.748 235 C 917.183 236.925, 916.331 239.625, 915.855 241 C 914.725 244.263, 910.038 262.234, 908.814 268 C 908.288 270.475, 907.653 277.675, 907.403 284 C 906.984 294.586, 907.133 295.858, 909.280 300 C 913.600 308.335, 926.883 314.810, 937.425 313.718 C 949.002 312.520, 961.925 306.205, 971.329 297.150 C 977.714 291.003, 987.435 278.513, 993.982 268.045 L 999.271 259.590 995.923 256.795 C 994.082 255.258, 992.088 254, 991.492 254 C 990.895 254, 986.987 258.837, 982.805 264.750 C 971.240 281.105, 964.245 286.807, 959.116 284.062 C 955.533 282.145, 954.658 279.325, 956.033 274.134 C 957.010 270.445, 971.265 227.012, 975.933 213.500 C 985.454 185.944, 992 160.217, 992 150.359 C 992 135.503, 985.335 125.323, 972.848 121.106 C 961.322 117.214, 945.892 119.138, 933.500 126.014 C 922.889 131.901, 908.975 144.189, 897.282 158 C 893.181 162.843, 876.331 186.639, 873.749 191.232 C 870.770 196.533, 868.739 196.219, 870.927 190.797 C 871.437 189.534, 874.189 181.075, 877.042 172 C 884.954 146.841, 892.072 124.768, 893.127 122.121 C 893.648 120.812, 893.860 119.526, 893.597 119.263 C 893.333 119, 890.954 119.288, 888.309 119.902 C 876.360 122.677, 854.070 126.130, 838.500 127.618 C 829.150 128.511, 820.913 129.408, 820.195 129.611 C 818.263 130.157, 819.004 139.418, 821 139.674 C 831.982 141.083, 834.016 142.850, 833.966 150.939 C 833.930 156.832, 831.353 168.161, 824.513 192.500 C 823.585 195.800, 822.468 199.850, 822.031 201.500 C 814.659 229.279, 813.825 231.404, 806.922 240 C 786.948 264.874, 769.687 279.074, 752 285.183 C 744.291 287.846, 729.844 288.328, 723.619 286.129 C 718.061 284.166, 712.591 278.801, 709.995 272.766 C 707.099 266.035, 706.276 253.580, 707.997 242.520 L 709.287 234.225 712.894 233.663 C 719.592 232.620, 736.486 228.958, 738.500 228.113 C 739.600 227.651, 742.975 226.491, 746 225.535 C 756.181 222.318, 769.045 216.044, 779.500 209.197 C 789.830 202.431, 805.728 185.998, 809.808 177.868 C 818.970 159.614, 817.634 141.558, 806.332 130.879 C 801.314 126.136, 794.913 122.607, 787.500 120.496 C 780.416 118.478, 762.607 118.227, 754.671 120.032 C 729.708 125.710, 708.208 139.803, 688.305 163.536 C 675.152 179.220, 662.564 201.078, 658.954 214.500 C 654.531 230.949, 653.902 235.050, 653.775 248.265 L 653.642 262.030 649.990 266.890 C 642.740 276.539, 638.724 281.007, 635.523 282.986 C 631.549 285.442, 629.661 285.518, 627.456 283.313 C 625.416 281.273, 625.885 275.484, 629.067 263.423 C 630.217 259.065, 631.404 254.375, 631.704 253 C 632.005 251.625, 634.262 243.075, 636.720 234 C 642.334 213.273, 645.528 201.435, 647.918 192.500 C 648.947 188.650, 651.227 180.325, 652.984 174 C 654.741 167.675, 657.041 159.350, 658.095 155.500 C 659.149 151.650, 661.141 144.450, 662.523 139.500 C 663.905 134.550, 666.400 125.550, 668.067 119.500 C 669.734 113.450, 672.219 104.450, 673.590 99.500 C 674.961 94.550, 676.471 88.925, 676.945 87 C 677.419 85.075, 678.519 81.025, 679.389 78 C 680.259 74.975, 681.837 69.350, 682.895 65.500 C 685.752 55.104, 689.707 40.658, 692.466 30.538 C 693.810 25.609, 694.723 21.390, 694.496 21.163 C 694.067 20.734, 679.337 23.120, 668 25.454 C 664.425 26.190, 657 27.307, 651.500 27.935 C 646 28.564, 638.125 29.497, 634 30.009 C 629.875 30.521, 622.563 31.241, 617.750 31.608 L 609 32.275 609 37.638 L 609 43 615.250 43.006 C 623.173 43.013, 628.607 44.516, 631.628 47.537 C 633.567 49.476, 634 50.945, 634 55.589 C 634 58.712, 633.516 63.120, 632.925 65.384 C 630.820 73.438, 628.989 80.761, 624.041 100.902 C 621.285 112.123, 618.831 121.502, 618.589 121.745 C 618.347 121.987, 615.527 121.385, 612.324 120.407 C 608.015 119.091, 602.988 118.617, 593 118.585 C 576.826 118.534, 566.870 120.709, 552.456 127.444 C 539.867 133.327, 531.476 139.481, 519 151.981 C 506.855 164.148, 497.344 177.117, 489.652 192 C 479.451 211.738, 475.779 226.144, 475.412 247.868 C 475.172 262.077, 475.136 262.282, 472.171 266.368 C 465.209 275.962, 455.418 284, 450.694 284 C 447.726 284, 444 280.104, 444 276.999 C 444 272.950, 449.317 251.525, 458.394 219 C 459.699 214.325, 461.930 206.225, 463.353 201 C 464.775 195.775, 467.091 187.450, 468.500 182.500 C 469.909 177.550, 472.151 169.557, 473.482 164.738 C 477.340 150.767, 480.838 138.159, 483.396 129 C 486.418 118.178, 490.052 105.095, 493.396 93 C 497.990 76.381, 500.694 66.709, 502.901 59 C 504.833 52.248, 506.486 46.267, 511.562 27.661 C 512.438 24.449, 512.946 21.613, 512.691 21.358 C 512.179 20.846, 493.552 23.579, 488 24.981 C 486.075 25.467, 479.100 26.580, 472.500 27.455 C 465.900 28.330, 457.350 29.504, 453.500 30.064 C 449.650 30.625, 442.438 31.351, 437.473 31.678 L 428.446 32.272 425.838 28.332 C 417.684 16.010, 403.516 7.004, 386.685 3.442 C 379.025 1.821, 358.406 1.710, 350.500 3.247 M 354.500 16.897 C 344.971 21.353, 335.935 31.786, 328.429 47 C 325.442 53.054, 324.166 55.909, 321.065 63.464 C 318.121 70.634, 310.413 95.558, 308.064 105.500 C 307.414 108.250, 306.459 112.125, 305.942 114.112 C 303.031 125.300, 301.750 136.707, 301.632 152.500 C 301.488 171.647, 302.146 174.287, 308.440 179.813 C 317.258 187.556, 330.187 186.150, 341.137 176.258 C 356.446 162.427, 372.326 124.570, 382.415 77.853 C 384.110 70.006, 386.254 50.229, 386.357 41.500 C 386.481 31.064, 385.313 25.766, 381.777 20.727 C 376.765 13.584, 365.091 11.945, 354.500 16.897 M 163.513 47.507 C 161.321 48.288, 158.907 49.731, 158.151 50.714 C 156.140 53.324, 152.781 60.966, 151.872 65 C 151.438 66.925, 149.887 72.775, 148.426 78 C 146.965 83.225, 144.736 91.325, 143.473 96 C 141.172 104.516, 139.390 111.004, 136.400 121.750 C 135.521 124.913, 133.965 130.650, 132.944 134.500 C 131.923 138.350, 130.181 144.650, 129.073 148.500 C 127.965 152.350, 127.045 155.876, 127.029 156.335 C 126.981 157.703, 157.190 154.535, 168.625 151.972 C 180.516 149.307, 193.205 139.503, 199.807 127.879 C 206.949 115.303, 210.688 97.494, 209.543 81.500 C 208.706 69.801, 205.522 60.699, 200.149 54.642 C 194.142 47.872, 173.680 43.887, 163.513 47.507 M 578.305 133.386 C 563.590 140.384, 551.346 159.539, 540.518 192.500 C 535.419 208.024, 535.202 208.752, 532.422 219.684 C 529.039 232.988, 527.441 241.253, 525.429 255.842 C 522.035 280.451, 525.771 294.939, 536.718 299.623 C 541.525 301.680, 551.228 301.373, 556.266 299.005 C 569.288 292.884, 583.588 270.751, 587.927 250 C 588.559 246.975, 589.733 242.025, 590.535 239 C 591.337 235.975, 593.582 226.750, 595.526 218.500 C 597.469 210.250, 599.694 201.025, 600.470 198 C 601.246 194.975, 602.330 190.475, 602.879 188 C 604.314 181.528, 604.835 179.388, 607.018 171 C 609.457 161.624, 609.631 148.207, 607.396 141.650 C 604.913 134.362, 600.555 131.573, 591.078 131.208 C 584.706 130.962, 582.673 131.309, 578.305 133.386 M 756.903 134.488 C 745.980 140.178, 735.308 155.719, 724.962 181 C 721.989 188.266, 714.247 212.165, 713.394 216.711 L 712.721 220.300 717.061 219.606 C 719.448 219.225, 721.873 218.544, 722.450 218.094 C 723.028 217.644, 724.749 216.977, 726.277 216.612 C 738.581 213.671, 755.010 201.761, 762.985 190 C 774.512 173.002, 779.634 156.382, 777.576 142.660 C 776.559 135.878, 772.376 131.985, 766.173 132.047 C 763.266 132.076, 759.763 132.998, 756.903 134.488 M 122.429 172.750 C 122.094 174.262, 121.415 176.850, 120.920 178.500 C 120.424 180.150, 118.871 185.775, 117.468 191 C 111.762 212.253, 108.270 225.045, 104.366 239 C 103.519 242.025, 102.463 245.850, 102.018 247.500 C 101.573 249.150, 99.735 255.900, 97.934 262.500 C 90.534 289.605, 93.337 295.083, 115 295.844 C 128.251 296.310, 137.592 294.716, 146.500 290.469 C 162.289 282.942, 173.752 268.534, 180.941 247.178 C 185.794 232.765, 187.353 212.464, 184.519 200.598 C 181.565 188.229, 172.175 177.971, 160.549 174.413 C 153.670 172.308, 137.951 170.070, 129.769 170.032 C 123.230 170.001, 123.021 170.078, 122.429 172.750" stroke="none" fill="#ffffff" fill-rule="evenodd"/>
</svg>