<svg xmlns="http://www.w3.org/2000/svg" width="1000" height="316" viewBox="0 0 1000 316" version="1.1">
	<path d="M 352.330 3.097 C 338.756 5.364, 321.977 12.973, 309.405 22.563 C 296.883 32.114, 280.721 50.288, 271.444 65.248 C 269.825 67.860, 268.050 69.984, 267.500 69.968 C 266.950 69.953, 265 67.366, 263.167 64.220 C 255.292 50.705, 238.774 41.455, 212.500 35.848 C 201.548 33.510, 201.190 33.500, 131 33.500 L 60.500 33.500 60.500 38 L 60.500 42.500 68.500 43.640 C 86.154 46.155, 89.166 48.246, 89.815 58.435 C 90.287 65.856, 88.449 75.756, 83.036 94.942 C 80.932 102.399, 77.789 113.675, 76.051 120 C 74.313 126.325, 72.010 134.650, 70.934 138.500 C 65.080 159.436, 59.625 179.322, 58.040 185.500 C 57.053 189.350, 54.165 199.925, 51.624 209 C 47.226 224.706, 46.055 228.927, 40.949 247.500 C 32.583 277.924, 30.186 283.731, 23.405 289.981 C 20.900 292.290, 17.415 294.325, 14.841 294.982 C 2.293 298.186, 2.530 298.031, 2.195 303.250 L 1.890 308 76.004 308 C 122.583 308, 152.789 307.610, 157.308 306.949 C 176.842 304.094, 188.252 301.155, 200.278 295.880 C 210.036 291.599, 216.120 287.353, 224.831 278.745 C 241.401 262.369, 249 244.800, 249 222.866 C 249 212.110, 247.638 205.401, 243.800 197.253 C 237.935 184.800, 227.152 175.880, 208.345 167.924 C 198.345 163.694, 196.205 162.462, 197.174 161.492 C 197.472 161.195, 200.976 160.048, 204.962 158.943 C 220.221 154.715, 235.712 147.765, 245.400 140.803 C 250.848 136.888, 251.993 137.138, 252.036 142.250 C 252.123 152.658, 257.802 167.218, 264.874 175.169 C 271.760 182.910, 286.063 191.009, 299.401 194.721 C 308.765 197.326, 331.950 197.040, 342.500 194.188 C 352.651 191.445, 368.521 183.572, 377.279 176.935 C 399.762 159.896, 420.846 130.831, 429.825 104.500 C 435.843 86.853, 436.536 78.800, 434.731 47.500 L 434.500 43.500 438.823 43.697 C 445.531 44.002, 449.855 45.820, 451.517 49.034 C 453.432 52.735, 453.404 60.027, 451.448 67.540 C 448.342 79.466, 446.070 87.859, 441.035 106 C 438.211 116.175, 434.595 129.225, 433 135 C 431.405 140.775, 427.782 153.825, 424.949 164 C 422.116 174.175, 418.972 185.650, 417.962 189.500 C 415.846 197.570, 407.829 226.756, 402.719 245 C 400.793 251.875, 397.994 262.675, 396.499 269 C 392.254 286.960, 393.814 296.783, 402.162 304.642 C 419.396 320.867, 449.625 312.299, 471.131 285.096 C 474.634 280.665, 477.950 277.032, 478.500 277.022 C 479.050 277.013, 480.778 279.451, 482.340 282.440 C 486.293 290.006, 493.108 296.720, 502.500 302.302 C 514.544 309.460, 524.042 312.238, 538.287 312.772 C 548.922 313.170, 550.895 312.957, 558.480 310.592 C 563.522 309.020, 569.565 306.175, 573.576 303.485 C 577.255 301.018, 580.644 299, 581.107 299 C 581.570 299, 582.595 300.238, 583.385 301.750 C 585.222 305.268, 589.541 309.272, 594 311.594 C 599.659 314.540, 611.981 314.148, 619.218 310.792 C 630.386 305.613, 641.762 295.852, 651.198 283.354 C 653.421 280.409, 655.797 278, 656.478 278 C 657.159 278, 658.883 280.249, 660.309 282.997 C 666.594 295.113, 677.741 304.383, 693.500 310.603 C 699.938 313.144, 701.623 313.369, 714.500 313.409 C 726.987 313.447, 729.526 313.149, 738 310.648 C 761.791 303.627, 782.205 290.139, 799.335 270.124 C 801.395 267.717, 803.326 265.993, 803.626 266.292 C 803.925 266.592, 803.059 270.586, 801.699 275.169 C 798.537 285.830, 792.998 306.267, 792.999 307.267 C 793 307.690, 804.119 307.915, 817.710 307.767 L 842.419 307.500 849.029 284.500 C 857.125 256.330, 859.897 247.768, 865.702 233 C 875.989 206.829, 888.726 184.963, 905.081 165.395 C 915.846 152.516, 926.767 146.654, 934.840 149.422 C 937.143 150.211, 939.016 151.731, 939.892 153.521 C 941.429 156.661, 940.886 159.816, 936.453 173.500 C 931.457 188.921, 916.842 237.280, 913.485 249.500 C 908.519 267.574, 907 276.129, 907 286.038 C 907 296.318, 909.297 301.811, 915.577 306.544 C 934.288 320.648, 963.461 310.322, 983.656 282.445 C 992.528 270.198, 998.869 259.821, 998.333 258.424 C 997.765 256.944, 992.987 254, 991.154 254 C 990.634 254, 987.206 258.236, 983.536 263.413 C 979.866 268.590, 974.198 275.369, 970.939 278.477 C 965.930 283.255, 964.527 284.079, 961.856 283.814 C 959.830 283.612, 957.982 282.537, 956.700 280.812 C 954.746 278.183, 954.741 277.983, 956.457 271.812 C 957.423 268.340, 962.233 253.575, 967.147 239 C 975.729 213.547, 980.054 200.398, 984.087 187.500 C 988.035 174.877, 992 155.919, 992 149.669 C 992 130.760, 979.866 119, 960.357 119 C 933.185 119, 908.751 138.343, 878.468 183.828 C 872.813 192.321, 870 195.583, 870 193.648 C 870 192.904, 892.106 124.431, 893.535 120.750 C 893.908 119.788, 893.828 119.009, 893.357 119.021 C 892.886 119.032, 883.725 120.609, 873 122.525 C 862.275 124.442, 846.300 126.693, 837.500 127.528 C 828.700 128.363, 820.938 129.246, 820.250 129.492 C 818.648 130.063, 818.610 137.210, 820.200 138.800 C 820.860 139.460, 823.130 140, 825.245 140 C 830.966 140, 834 143.427, 834 149.889 C 834 157.171, 832.076 165.428, 821.625 203 C 813.175 233.375, 814.706 230.084, 801.860 245.500 C 782.242 269.044, 762.506 283.128, 744.331 286.556 C 737.098 287.921, 735.492 287.921, 728.953 286.557 C 716.560 283.973, 711.552 279.190, 708.392 266.918 C 706.497 259.558, 707.009 240.807, 709.231 236.247 C 710.548 233.542, 711.258 233.308, 727.751 230.127 C 734.925 228.743, 748.743 224.362, 757.500 220.694 C 784.300 209.469, 807.653 187.605, 813.781 168 C 814.843 164.602, 815.498 159.252, 815.495 154 C 815.490 146.907, 815.051 144.564, 812.843 139.845 C 808.081 129.666, 799.747 123.554, 785.628 119.886 C 769.705 115.750, 747.739 119.292, 728.804 129.051 C 705.147 141.243, 679.157 169.508, 665.949 197.407 C 657.228 215.829, 654.005 229.234, 653.621 248.686 C 653.369 261.433, 653.263 262.014, 650.430 266.136 C 648.819 268.481, 644.569 273.460, 640.987 277.200 C 635.671 282.751, 633.903 284, 631.360 284 C 626.830 284, 625.611 281.966, 626.354 275.647 C 627.217 268.304, 635.940 235.007, 654.556 168 C 657.688 156.725, 661.281 143.675, 662.540 139 C 663.799 134.325, 667.140 122.175, 669.964 112 C 688.193 46.335, 694.891 21.558, 694.516 21.183 C 694.130 20.796, 668.969 24.901, 667.981 25.512 C 667.282 25.944, 646.558 28.577, 632 30.083 C 625.675 30.738, 618.025 31.551, 615 31.891 L 609.500 32.508 609.500 37.504 L 609.500 42.500 618 43.033 C 630.447 43.813, 633.987 46.611, 634.014 55.684 C 634.028 60.272, 620.697 117.254, 618.949 120.083 C 618.254 121.208, 616.721 121.145, 609.807 119.712 C 589.453 115.494, 565.428 119.484, 546 130.310 C 518.401 145.688, 490.251 181.508, 480.223 214.006 C 477.066 224.240, 474.879 240.343, 475.115 251.632 C 475.271 259.137, 474.955 262.383, 473.939 263.699 C 463.845 276.773, 456.324 283, 450.627 283 C 446.748 283, 444 280.241, 444 276.348 C 444 272.234, 451.048 243.565, 457.975 219.500 C 459.717 213.450, 461.804 206.025, 462.614 203 C 464.071 197.558, 469.573 177.850, 475.038 158.500 C 478.672 145.630, 481.694 134.814, 487.959 112.254 C 500.115 68.475, 503.458 56.469, 508.172 39.670 C 510.923 29.864, 512.939 21.605, 512.651 21.317 C 512.363 21.030, 506.586 21.780, 499.814 22.986 C 478.876 26.713, 448.576 30.863, 436.500 31.658 L 428.500 32.184 426.188 28.690 C 418.095 16.457, 403.213 6.984, 386.746 3.583 C 378.513 1.882, 361.079 1.636, 352.330 3.097 M 354.500 16.876 C 337.678 24.935, 324.834 47.439, 311.625 92 C 304.255 116.864, 301.628 132.777, 301.558 153 C 301.502 168.798, 301.606 169.690, 304 173.961 C 308.076 181.235, 317.261 185.924, 324.700 184.528 C 342.731 181.146, 357.236 160.902, 370.571 120.508 C 383.956 79.964, 389.814 40.992, 384.717 26.394 C 380.558 14.480, 367.853 10.479, 354.500 16.876 M 161.663 48.113 C 158.754 49.647, 157.210 51.483, 155.277 55.706 C 153.875 58.769, 152.389 62.676, 151.977 64.388 C 151.564 66.100, 149.773 72.675, 147.997 79 C 146.221 85.325, 143.744 94.325, 142.493 99 C 140.565 106.208, 137.616 117, 128.431 150.462 C 126.994 155.696, 127.732 157.442, 131 156.541 C 131.825 156.313, 136.550 155.820, 141.500 155.446 C 157.816 154.211, 171.728 151.408, 178.784 147.935 C 192.103 141.378, 201.890 128.120, 207.159 109.500 C 209.046 102.833, 209.419 99.083, 209.402 87 C 209.384 74.406, 209.089 71.758, 207.158 66.855 C 202.665 55.447, 197.133 50.467, 185.500 47.359 C 177.816 45.307, 166.291 45.671, 161.663 48.113 M 582.324 131.439 C 576.310 133.320, 572.023 136.225, 566.243 142.336 C 552.468 156.901, 541.605 182.130, 531.509 223 C 526.618 242.800, 524.586 256.809, 524.545 271 C 524.512 282.433, 524.733 283.977, 527.126 289.091 C 530.069 295.376, 533.440 298.234, 539.999 300 C 552.968 303.492, 566.105 295.036, 577.472 275.879 C 583.710 265.368, 585.619 259.741, 592.022 233 C 594.854 221.175, 599.681 201.375, 602.750 189 C 610.750 156.743, 611.046 143.677, 603.959 135.606 C 599.399 130.413, 590.865 128.769, 582.324 131.439 M 757.500 133.669 C 743.953 140.844, 730.257 163.337, 719.240 196.500 C 713.643 213.350, 712.164 220, 714.015 220 C 716.825 220, 734.009 213.597, 739.649 210.448 C 753.722 202.591, 762.526 192.914, 770.533 176.500 C 775.906 165.485, 778 157.705, 778 148.758 C 778 141.048, 776.301 136.024, 772.883 133.631 C 769.893 131.536, 761.487 131.557, 757.500 133.669 M 123.551 170.592 C 122.698 171.445, 122 172.744, 122 173.480 C 122 174.215, 120.242 181.045, 118.094 188.658 C 115.946 196.271, 112.771 207.675, 111.040 214 C 109.308 220.325, 107.017 228.650, 105.949 232.500 C 92.393 281.369, 92.007 283.698, 96.489 289.574 C 97.858 291.369, 100.670 293.403, 102.739 294.094 C 107.617 295.723, 126.771 295.724, 134.500 294.096 C 142.595 292.392, 153.438 286.959, 159.729 281.456 C 169.460 272.943, 178.395 256.856, 183.211 239.175 C 186.325 227.744, 186.389 203.885, 183.328 195.771 C 177.683 180.810, 166.693 173.588, 145.777 171.095 C 128.322 169.015, 125.199 168.944, 123.551 170.592" stroke="none" fill="#ffffff" fill-rule="evenodd"/>
</svg>