<svg xmlns="http://www.w3.org/2000/svg" width="1000" height="825" viewBox="0 0 1000 825" version="1.1">
	<path d="M 331.631 305.856 C 330.707 306.876, 328.391 308.552, 326.484 309.579 C 324.570 310.609, 322.285 312.987, 321.385 314.884 C 318.122 321.761, 321.791 335.202, 327.670 337.909 C 332.219 340.004, 341.021 340.437, 345.003 338.762 C 349.914 336.697, 355.456 326.438, 354.701 320.810 C 353.288 310.275, 337.118 299.793, 331.631 305.856 M 124.615 327.088 C 118.940 331.552, 119.081 329.933, 118.959 391.965 C 118.831 456.853, 118.023 451.090, 127.500 452.831 C 135 454.209, 173.636 453.747, 178.696 452.219 C 181.004 451.522, 183.834 449.755, 184.985 448.292 C 186.136 446.829, 188.597 444.599, 190.454 443.337 C 192.586 441.889, 194.259 439.653, 194.992 437.271 C 195.630 435.197, 197.577 429.900, 199.319 425.500 C 202.097 418.482, 202.484 416.334, 202.472 408 C 202.459 398.829, 202.288 398.108, 197.528 387.177 L 192.597 375.855 182.049 370.854 C 174.484 367.268, 168.671 365.309, 161.500 363.930 C 156 362.872, 150.375 361.171, 149 360.150 C 146.613 358.377, 146.477 357.711, 145.989 345.397 C 145.460 332.065, 144.043 326.998, 140.455 325.621 C 139.565 325.280, 136.234 325, 133.053 325 C 128.702 325, 126.612 325.517, 124.615 327.088 M 226.417 365.041 C 224.674 365.566, 222.840 367.055, 222.197 368.467 C 221.391 370.236, 221.042 387.943, 220.999 429.231 C 220.966 461.279, 220.952 488.310, 220.969 489.301 C 221.017 492.114, 226.947 494, 235.745 494 C 247.736 494, 247.730 494.009, 248.205 476.759 C 248.459 467.544, 249.076 461.536, 249.948 459.776 C 251.752 456.133, 257.310 454.277, 268.500 453.580 C 279.866 452.871, 284.582 451.542, 287.883 448.118 C 289.322 446.624, 292.075 444.245, 294 442.831 C 297.085 440.564, 297.944 438.847, 301.250 428.339 C 305.388 415.187, 305.745 411.079, 303.459 402.968 C 302.611 399.961, 301.108 394.575, 300.119 391 C 296.733 378.765, 295.090 376.915, 280.500 368.897 L 272.500 364.500 251 364.305 C 239.175 364.198, 228.113 364.529, 226.417 365.041 M 331.500 364.491 C 330.950 364.675, 329.307 365.087, 327.850 365.407 C 323.293 366.406, 323 369.163, 323 410.994 C 323 446.599, 323.140 449.812, 324.750 451.218 C 327.140 453.305, 343.083 454.554, 346.222 452.900 C 347.475 452.240, 348.831 451.205, 349.235 450.600 C 349.639 449.995, 349.976 431.867, 349.985 410.315 C 350 371.804, 349.627 366.655, 346.687 364.786 C 345.535 364.053, 333.513 363.820, 331.500 364.491 M 150.350 374.994 C 146.230 376.656, 145.641 381.473, 145.887 411.500 C 146.151 443.659, 145.940 442.904, 154.862 443.761 C 162.984 444.541, 164.592 443.710, 168.245 436.846 C 170.035 433.480, 172.175 429.550, 173 428.113 C 174.162 426.089, 174.500 421.894, 174.500 409.500 L 174.500 393.500 170.350 386.500 C 164.104 375.967, 161.947 373.987, 156.798 374.063 C 154.434 374.098, 151.533 374.517, 150.350 374.994 M 251.609 375.534 C 248.600 378.543, 248.011 384.538, 248.006 412.211 C 248 439.434, 248.039 439.958, 250.189 441.961 C 253.785 445.312, 264.307 445.150, 267.571 441.693 C 268.709 440.487, 271.315 435.841, 273.361 431.370 C 279.453 418.055, 279.485 403.336, 273.454 389 C 269.970 380.718, 266.691 376.436, 262.791 375.077 C 258.388 373.542, 253.397 373.746, 251.609 375.534 M 496.190 478.353 C 491.108 481.173, 487.984 490.013, 491.582 491.393 C 494.314 492.441, 497 492.056, 497 490.615 C 497 489.853, 498.119 488.497, 499.486 487.601 C 500.853 486.705, 502.743 484.795, 503.686 483.357 C 505.343 480.828, 505.323 480.680, 503.089 478.871 C 500.395 476.689, 499.331 476.610, 496.190 478.353 M 551.021 479.979 C 548.966 482.034, 548.871 482.887, 549.177 496.540 C 549.442 508.343, 549.800 511.233, 551.165 512.597 C 553.641 515.068, 557.295 513.678, 561.163 508.794 C 564.426 504.674, 564.507 504.338, 564.855 493.383 C 565.199 482.533, 565.137 482.136, 562.855 480.666 C 561.560 479.831, 558.855 478.847, 556.844 478.480 C 553.874 477.938, 552.781 478.219, 551.021 479.979 M 634.750 478.689 C 633.788 478.941, 632.985 479.676, 632.966 480.323 C 632.948 480.970, 632.756 486, 632.539 491.500 C 632.323 497, 632.556 503.098, 633.058 505.051 C 634.721 511.524, 643.556 515.567, 646.012 510.978 C 646.608 509.863, 647.185 502.649, 647.297 494.901 C 647.483 482.013, 647.339 480.729, 645.559 479.424 C 643.707 478.065, 638.493 477.711, 634.750 478.689 M 855.984 479.812 C 854.499 481.014, 853.643 482.950, 853.439 485.562 C 853.269 487.728, 852.819 492.049, 852.438 495.164 C 852.057 498.278, 852.059 502.501, 852.443 504.546 L 853.140 508.265 858.729 507.689 C 861.802 507.371, 864.880 506.524, 865.567 505.806 C 866.781 504.539, 867.451 496.462, 867.148 486.750 C 866.907 479.001, 861.293 475.513, 855.984 479.812 M 714.146 480.750 C 713.638 481.712, 712.423 485.425, 711.447 489 C 710.470 492.575, 708.620 497.918, 707.335 500.874 C 704.917 506.439, 704.374 511.463, 705.927 513.915 C 707.012 515.630, 712.122 515.567, 717.556 513.773 C 721.351 512.520, 721.489 512.321, 721.220 508.485 C 721.065 506.293, 720.985 499.409, 721.040 493.187 C 721.145 481.416, 720.442 479, 716.913 479 C 715.899 479, 714.655 479.788, 714.146 480.750 M 796.972 480.533 C 792.945 485.386, 796.418 504.120, 802.550 510.622 C 806.193 514.485, 811.609 515.248, 814.544 512.313 C 817.658 509.199, 814.981 496.566, 810.029 491 C 808.806 489.625, 806.947 486.828, 805.899 484.783 C 803.150 479.423, 799.383 477.629, 796.972 480.533 M 524.227 482.777 C 520.186 486.139, 519.112 489.887, 520.268 496.596 C 521.032 501.033, 520.851 502.372, 518.990 506.020 C 517.236 509.458, 517.077 510.434, 518.160 511.119 C 520.399 512.537, 521.382 511.643, 524.326 505.514 C 526.647 500.683, 526.960 499.209, 526.076 497.269 C 525.484 495.969, 525 492.683, 525 489.966 C 525 485.266, 525.170 484.956, 528.500 483.564 C 530.425 482.760, 532 481.629, 532 481.051 C 532 479.059, 527.493 480.060, 524.227 482.777 M 767.200 481.200 C 765.406 482.994, 765.541 511.991, 767.355 514.471 C 769.732 517.721, 771.483 515.638, 772.792 508.005 C 773.770 502.301, 773.775 499.533, 772.816 494.886 C 771.848 490.202, 771.858 488.283, 772.862 485.504 C 773.557 483.583, 773.846 481.559, 773.504 481.006 C 772.646 479.619, 768.658 479.742, 767.200 481.200 M 612.782 489.500 C 612.506 491.150, 612.330 496.992, 612.390 502.483 C 612.482 510.857, 612.763 512.517, 614.129 512.783 C 616.304 513.206, 617.228 509.280, 615.978 504.922 C 615.440 503.047, 614.968 499.035, 614.930 496.007 C 614.891 492.978, 614.505 489.600, 614.071 488.500 C 613.378 486.740, 613.223 486.860, 612.782 489.500 M 675.586 489.750 C 674.664 494.182, 674.473 511.386, 675.331 512.750 C 676.487 514.586, 678.779 514.272, 679.441 512.186 C 679.757 511.189, 679.368 508.217, 678.575 505.583 C 677.602 502.350, 677.322 498.553, 677.712 493.897 C 678.095 489.321, 677.931 487, 677.224 487 C 676.638 487, 675.901 488.238, 675.586 489.750 M 737.553 489.250 C 737.341 489.938, 736.919 494.859, 736.615 500.187 L 736.062 509.874 739.108 512.437 C 746.292 518.482, 750.577 516.494, 750.377 507.210 C 750.180 498.027, 748.475 493.395, 744.233 490.512 C 740.148 487.736, 738.135 487.356, 737.553 489.250 M 585.258 492.250 C 583.300 494.358, 581 503.242, 581 508.698 C 581 511.458, 586.119 514.991, 590.128 514.996 C 594.699 515.003, 595.358 513.048, 594.582 501.786 C 594.197 496.194, 593.657 491.254, 593.382 490.809 C 592.359 489.154, 587.302 490.051, 585.258 492.250 M 498 499.162 C 498 500.901, 497.276 504.622, 496.390 507.431 C 494.927 512.074, 494.922 512.878, 496.339 516.269 C 498.637 521.768, 501.395 521.338, 503.446 515.163 C 504.873 510.865, 504.894 509.646, 503.633 504.240 C 501.978 497.147, 501.395 496, 499.441 496 C 498.490 496, 498 497.076, 498 499.162" stroke="none" fill="#ffffff" fill-rule="evenodd"/>
</svg>