<svg xmlns="http://www.w3.org/2000/svg" width="981" height="1000" viewBox="0 0 981 1000" version="1.1">
	<path d="M 79 24.681 C 74.058 25.504, 59.467 30.327, 57.921 31.650 C 57.053 32.392, 55.927 33, 55.418 33 C 54.066 33, 45.117 39.504, 40.569 43.793 C 36.157 47.953, 28 58.654, 28 60.281 C 28 60.865, 27.407 62.053, 26.682 62.921 C 25.957 63.790, 24.157 68.155, 22.682 72.621 L 20 80.742 20 497.744 L 20 914.745 22.570 922.617 C 25.135 930.477, 26.439 933.073, 32.549 942.500 C 35.969 947.775, 43.017 954.844, 48.709 958.706 C 53.864 962.205, 63.131 966.804, 66.500 967.537 C 68.150 967.896, 71.525 968.935, 74 969.845 C 78.160 971.375, 109.670 971.500, 491.500 971.500 L 904.500 971.500 911.500 969.172 C 929.281 963.260, 941.646 954.655, 950.039 942.352 C 956.103 933.464, 956.592 932.545, 959.555 924.500 L 962.500 916.500 962.500 497 L 962.500 77.500 960.250 72.805 C 959.013 70.223, 958 67.628, 958 67.040 C 958 65.843, 952.369 55.589, 950.019 52.508 C 947.671 49.429, 936.531 38.724, 933.458 36.593 C 928.565 33.200, 921.793 29.916, 914.062 27.187 L 906.500 24.517 494 24.391 C 267.125 24.322, 80.375 24.452, 79 24.681 M 204 197.371 C 196.417 199.317, 188.274 202.447, 184 205.058 C 183.175 205.562, 181.150 206.713, 179.500 207.615 C 173.306 211.002, 158.781 223.592, 153.192 230.420 C 146.406 238.709, 144.056 242.592, 140.278 251.760 L 137.500 258.500 137.530 285 C 137.554 305.835, 137.923 313.317, 139.259 320 C 140.193 324.675, 141.442 334.984, 142.035 342.909 C 142.627 350.834, 143.512 359.424, 144 361.999 C 144.488 364.573, 145.388 374.514, 146 384.090 C 146.611 393.665, 147.781 407.125, 148.600 414 C 149.418 420.875, 150.526 435.275, 151.061 446 C 151.597 456.725, 152.499 473.150, 153.065 482.500 C 153.631 491.850, 154.351 512.100, 154.665 527.500 C 155.272 557.257, 155.988 562, 159.878 562 C 162.400 562, 164.813 559.595, 165.654 556.241 C 166.586 552.529, 165.183 477.138, 164.004 467.500 C 163.465 463.100, 162.333 447.350, 161.488 432.500 C 160.644 417.650, 159.318 400.775, 158.543 395 C 157.768 389.225, 156.875 380, 156.559 374.500 C 155.757 360.537, 151.260 318.243, 149.480 307.914 C 148.574 302.657, 148 292.828, 148 282.569 C 148 259.536, 150.066 252.748, 161.411 238.500 C 170.993 226.467, 180.164 219.547, 197.762 211.072 C 203.558 208.281, 209.286 207.432, 210.703 209.154 C 211.385 209.983, 212.430 223.370, 213.424 244 C 214.312 262.425, 215.461 286.275, 215.977 297 C 216.493 307.725, 217.392 332.925, 217.973 353 C 218.555 373.075, 219.461 401.200, 219.986 415.500 C 220.511 429.800, 221.413 464.225, 221.991 492 C 222.569 519.775, 223.563 546.146, 224.200 550.601 C 225.269 558.083, 225.205 558.963, 223.367 562.101 L 221.376 565.500 187.438 565.135 C 154.259 564.778, 129.680 565.901, 122 568.124 C 120.075 568.681, 115.927 569.773, 112.782 570.549 C 109.637 571.326, 105.369 572.870, 103.297 573.981 C 101.225 575.091, 99.182 576, 98.756 576 C 96.787 576, 89.426 582.405, 88.814 584.652 C 87.764 588.503, 88.735 589.757, 94.403 591.878 C 109.015 597.345, 176.842 597.849, 189.457 592.584 C 191.130 591.885, 194.300 590.989, 196.500 590.592 C 200.834 589.810, 205.026 588.074, 217.719 581.801 L 225.938 577.740 238.808 578.452 C 253.808 579.281, 259.092 578.315, 261.753 574.256 C 263.334 571.845, 263.530 567.503, 263.819 528.546 C 263.995 504.871, 263.640 469.525, 263.031 450 C 260.861 380.416, 259.126 291.598, 259.908 290.200 C 260.346 289.418, 263.808 287.414, 267.602 285.747 C 274.603 282.671, 280.872 279.215, 289 273.948 C 291.475 272.344, 294.625 270.484, 296 269.815 C 297.375 269.145, 299.625 267.841, 301 266.916 C 302.375 265.992, 306.142 264.689, 309.371 264.021 C 319.496 261.929, 327.175 265.634, 332.123 275 L 334.500 279.500 335.130 414 C 335.476 487.975, 336.096 552.100, 336.508 556.500 C 337.760 569.886, 342.404 572.512, 356.827 567.991 C 373.080 562.896, 381.953 547.125, 381.985 523.278 C 382.001 511.336, 378.890 495.536, 375.597 490.835 C 373.815 488.291, 373.465 483.449, 374.995 482.503 C 375.542 482.165, 378.018 477.689, 380.498 472.557 C 383.125 467.120, 386.052 462.541, 387.512 461.584 C 388.971 460.628, 394.916 459.309, 401.758 458.423 C 408.216 457.586, 415.259 456.437, 417.409 455.870 C 427.897 453.100, 488.180 448.714, 501.987 449.716 L 510.475 450.332 517.987 457.424 C 522.119 461.324, 527.244 465.890, 529.375 467.569 C 533.879 471.118, 534.515 474.940, 531.125 478.098 C 529.956 479.187, 529 480.236, 529 480.429 C 529 480.622, 528.100 485.154, 527 490.500 C 524.749 501.440, 524.546 509.379, 526.015 528.966 C 526.574 536.410, 527.688 551.462, 528.492 562.416 C 529.832 580.678, 530.161 582.645, 532.454 586.110 L 534.955 589.889 556.728 590.201 C 580.321 590.539, 581.847 590.265, 583.828 585.327 C 585.303 581.650, 586.758 560.911, 585.971 554.777 C 585.605 551.922, 584.486 549.082, 583.180 547.692 C 581.981 546.415, 581 544.698, 581 543.876 C 581 543.054, 585.934 537.460, 591.965 531.444 C 597.996 525.429, 604.624 518.368, 606.695 515.754 C 608.766 513.139, 611.283 511, 612.289 511 C 615.427 511, 621.893 517.017, 633.246 530.500 C 639.266 537.650, 644.428 544.079, 644.717 544.787 C 645.006 545.495, 644.554 546.845, 643.712 547.787 C 642.870 548.729, 641.412 551.865, 640.473 554.756 C 638.171 561.843, 638.752 583.446, 641.351 587.413 L 643.046 590 662.952 590 C 684.932 590, 684.838 590.025, 687.639 583.322 C 689.336 579.260, 689.485 551.405, 687.922 530.352 C 686.917 516.822, 686.969 515.690, 688.672 513.775 C 690.475 511.747, 691.032 511.727, 730.103 512.307 C 774.183 512.961, 773.985 512.986, 774.015 506.693 C 774.045 500.584, 774.362 500.474, 791.214 500.750 C 811.391 501.080, 810 499.317, 810 524.554 C 810 548.133, 810.737 547, 795.400 547 C 787.506 547, 784.962 547.341, 783.975 548.530 C 782.489 550.321, 782.497 582.546, 783.985 586.460 C 784.475 587.749, 786.409 589.973, 788.282 591.402 C 791.367 593.754, 792.531 593.998, 800.594 593.982 C 805.492 593.972, 813.775 593.305, 819 592.500 C 824.225 591.695, 833.933 591.028, 840.574 591.018 C 850.560 591.003, 854.077 591.428, 860.914 593.474 C 865.461 594.835, 870.828 596.936, 872.840 598.143 C 879.097 601.896, 885.969 609.802, 890.368 618.310 C 895.394 628.029, 898.336 630.320, 902.385 627.667 C 903.823 626.725, 905 625.020, 905 623.879 C 905 619.759, 897.045 605.515, 891.010 598.833 C 884.254 591.350, 877.995 587.119, 868.175 583.396 C 859.353 580.051, 843.259 579.290, 816.703 580.962 C 800.894 581.957, 796.652 581.956, 795.444 580.954 C 794.237 579.952, 793.992 577.580, 794.218 569.101 L 794.500 558.500 805.686 557.963 C 822.226 557.168, 821.003 559.756, 820.985 525.595 C 820.974 504.957, 820.635 496.836, 819.706 495 C 817.322 490.286, 814.314 489.709, 791.552 489.601 C 779.973 489.545, 769.279 489.842, 767.786 490.260 C 765.717 490.839, 764.819 491.958, 764.009 494.968 C 763.424 497.139, 762.395 499.272, 761.723 499.708 C 761.050 500.144, 742.660 500.500, 720.855 500.500 C 682.688 500.500, 681.128 500.574, 679.013 502.489 C 674.804 506.297, 674.773 506.782, 676.584 540.507 C 678.752 580.875, 679.704 578, 664.177 578 C 657.128 578, 652.985 577.585, 652.200 576.800 C 650.451 575.051, 650.604 558.924, 652.392 556.478 C 653.158 555.431, 655.971 553.882, 658.642 553.037 C 662.943 551.676, 663.535 551.145, 663.802 548.405 C 664.063 545.722, 663.389 544.726, 658.747 540.929 C 655.801 538.520, 650.040 532.501, 645.945 527.554 C 629.604 507.811, 614.792 495.082, 609.658 496.371 C 608.301 496.712, 604.689 500.140, 601.405 504.204 C 598.194 508.178, 590.376 516.688, 584.033 523.114 C 563.731 543.682, 562.140 545.451, 561.468 548.200 C 560.561 551.911, 564.602 555.994, 569.205 556.015 C 574.699 556.041, 575.305 556.976, 575.121 565.147 C 574.857 576.846, 574.189 577.364, 558.397 578.108 C 545.882 578.698, 545.437 578.648, 543.367 576.438 C 540.219 573.076, 539.227 565.094, 537.909 532.500 C 536.496 497.552, 537.186 489.353, 542.116 482.488 C 543.843 480.083, 545.831 477.895, 546.534 477.625 C 547.236 477.356, 548.107 475.788, 548.469 474.141 C 549.288 470.412, 546.995 465.670, 543.229 463.305 C 537.862 459.934, 530.388 453.530, 523.500 446.400 L 516.500 439.154 505 438.559 C 491.809 437.876, 451 439.431, 443.377 440.908 C 440.560 441.454, 431.637 442.595, 423.550 443.445 C 415.462 444.294, 406.518 445.611, 403.673 446.372 C 400.828 447.132, 394.450 448.287, 389.500 448.938 C 378.874 450.335, 376.028 452.360, 373.379 460.411 C 372.459 463.210, 370.872 466.573, 369.853 467.885 C 368.834 469.197, 367.987 470.772, 367.972 471.385 C 367.956 471.998, 366.142 475.200, 363.941 478.500 C 358.174 487.144, 358.104 488.074, 362.856 492.971 C 365.875 496.082, 367.150 498.420, 367.947 502.310 C 369.811 511.401, 371.025 523.328, 370.458 526.972 C 368.247 541.159, 367.550 543.848, 365.140 547.477 C 359.722 555.640, 353.311 559.311, 350.093 556.093 C 348.503 554.503, 348.240 552.323, 348.085 539.461 C 347.987 531.320, 347.599 524.173, 347.222 523.579 C 346.846 522.986, 346.304 467.140, 346.019 399.478 L 345.500 276.455 342.208 269.770 C 337.244 259.688, 327.947 252.777, 317.405 251.332 C 310.374 250.368, 296.264 255.564, 283 264.001 C 268.088 273.487, 259.594 277.269, 255.184 276.387 C 252.843 275.919, 251.854 276.384, 249.666 278.985 C 248.200 280.728, 247 282.946, 247 283.915 C 247 284.885, 247.663 303.188, 248.474 324.589 C 249.984 364.477, 252.240 508.819, 251.908 544.318 C 251.695 566.970, 251.685 567, 244.010 567 C 236.060 567, 236.002 566.929, 235.983 557.143 C 235.974 552.389, 235.294 535.675, 234.472 520 C 233.650 504.325, 232.543 468.635, 232.010 440.688 C 231.144 395.186, 230.107 362.472, 228.487 329.500 C 228.190 323.450, 227.497 303.551, 226.946 285.280 C 226.396 267.009, 225.284 245.184, 224.476 236.780 C 223.667 228.376, 223.005 216.853, 223.003 211.173 C 223 201.094, 222.930 200.776, 220.077 197.923 C 216.648 194.494, 215.380 194.451, 204 197.371 M 139.500 577.105 C 129.263 578.323, 116.719 581.323, 116.277 582.659 C 116.066 583.299, 117.373 584.148, 119.197 584.555 C 123.776 585.578, 166.381 585.208, 172.500 584.093 C 186.660 581.513, 194.592 579.731, 195.413 578.947 C 195.949 578.435, 195.199 577.646, 193.598 577.037 C 190.379 575.813, 149.925 575.864, 139.500 577.105 M 138.670 712.080 C 128.880 714.093, 117.145 722.958, 111.487 732.612 C 109.894 735.331, 108.369 740.480, 107.298 746.756 C 105.707 756.076, 105.711 757.122, 107.367 765.562 C 112.424 791.343, 135.490 804.370, 165.525 798.409 C 171.294 797.264, 174.527 796.016, 177.025 793.971 L 180.500 791.127 178.555 787.495 C 175.634 782.037, 173.972 781.539, 165.657 783.629 C 146.602 788.418, 131.942 783.346, 125.142 769.611 C 122.998 765.282, 122.824 763.877, 123.224 754.174 C 123.612 744.776, 123.996 742.928, 126.437 738.716 C 130.301 732.047, 136.543 727.569, 144.754 725.575 C 151.242 724, 151.805 724.018, 159.500 726.041 C 163.900 727.198, 168.429 729.012, 169.564 730.072 C 173.966 734.182, 180 730.932, 180 724.452 C 180 720.312, 177.194 717.240, 170.412 713.957 C 166.954 712.283, 163.661 711.758, 154.766 711.462 C 148.570 711.255, 141.327 711.533, 138.670 712.080 M 268.471 712.339 C 265.513 713.685, 263.073 717.767, 256.718 732 C 255.613 734.475, 253.888 738.300, 252.886 740.500 C 251.884 742.700, 249.678 747.875, 247.985 752 C 242.458 765.464, 241.233 768.417, 238.599 774.625 C 237.169 777.994, 235.998 781.369, 235.996 782.125 C 235.994 782.881, 235.146 784.887, 234.112 786.583 C 233.078 788.279, 231.935 791.020, 231.572 792.674 C 230.652 796.862, 232.604 798.181, 239.168 797.805 L 244.498 797.500 247.188 792.163 C 248.668 789.228, 250.180 785.403, 250.548 783.663 C 250.915 781.923, 252.146 779.487, 253.282 778.250 C 255.279 776.075, 255.956 776, 273.487 776 L 291.626 776 294.208 778.750 C 295.627 780.263, 297.114 783.075, 297.510 785 C 298.260 788.643, 300.463 793.246, 302.894 796.250 C 303.911 797.507, 305.762 798, 309.464 798 C 316.392 798, 318.209 796.563, 317.047 792 C 316.019 787.966, 311.660 776.823, 309.483 772.669 C 308.667 771.112, 308 769.387, 308 768.837 C 308 767.793, 303.323 756.494, 299.951 749.390 C 298.878 747.130, 298 744.965, 298 744.579 C 298 743.898, 295.320 737.793, 290.503 727.500 C 289.216 724.750, 287.892 721.600, 287.560 720.500 C 287.229 719.400, 285.729 717.028, 284.229 715.228 C 281.985 712.538, 280.611 711.868, 276.500 711.459 C 273.369 711.147, 270.368 711.476, 268.471 712.339 M 382.199 712.932 C 380.384 713.392, 378.785 713.933, 378.647 714.134 C 374.932 719.529, 375 718.732, 375.015 757.215 C 375.024 777.722, 375.409 795.097, 375.871 795.826 C 377.017 797.633, 383.883 798.408, 387.250 797.110 L 390 796.050 390 783.647 C 390 774.940, 390.372 770.939, 391.250 770.218 C 391.938 769.653, 398.800 769.004, 406.500 768.775 C 421.880 768.319, 426.356 767.005, 434.367 760.594 C 442.742 753.892, 445.621 739.105, 440.513 729.025 C 437.241 722.570, 434.177 719.635, 426.687 715.785 C 420.506 712.608, 420.482 712.605, 403 712.351 C 393.375 712.211, 384.015 712.472, 382.199 712.932 M 507.400 713.765 C 504.258 715.863, 504 719.160, 504 757.234 C 504 785.741, 504.308 795.908, 505.200 796.800 C 506.078 797.678, 514.117 798, 535.129 798 C 567.254 798, 567 798.055, 567 791.120 C 567 783.581, 566.806 783.518, 543.069 783.353 C 531.468 783.271, 521.307 782.948, 520.488 782.634 C 519.330 782.189, 519 780.155, 519 773.466 C 519 760.175, 517.508 761, 541.535 761 C 560.667 761, 562.130 760.870, 564 759 C 566.916 756.084, 566.519 752.614, 562.923 749.589 C 559.847 747, 559.845 747, 540.623 747 C 527.005 747, 521.050 746.650, 520.200 745.800 C 519.477 745.077, 519 741.578, 519 737 C 519 732.422, 519.477 728.923, 520.200 728.200 C 521.060 727.340, 527.570 727, 543.165 727 C 563.660 727, 564.990 726.887, 565.965 725.066 C 567.632 721.951, 567.174 717.174, 565 715 C 563.097 713.097, 561.678 713.001, 535.750 713.015 C 520.763 713.024, 508.005 713.361, 507.400 713.765 M 630.589 716.077 L 628 719.153 628.015 756.827 C 628.024 778.786, 628.426 795.126, 628.978 796 C 629.772 797.258, 634.142 797.548, 656.065 797.798 C 686.042 798.140, 687 797.934, 687 791.168 C 687 783.651, 686.605 783.512, 664.931 783.408 C 647.248 783.324, 645.593 783.164, 644.314 781.414 C 643.188 779.874, 642.948 773.456, 643.058 747.724 C 643.158 724.031, 642.882 715.563, 641.974 714.468 C 641.295 713.650, 639.078 713, 636.966 713 C 633.963 713, 632.641 713.638, 630.589 716.077 M 745.068 715.904 C 743.063 718.720, 743 719.988, 743 757.429 L 743 796.050 745.687 797.071 C 747.342 797.701, 758.295 797.979, 774.224 797.796 C 802.783 797.469, 801.956 797.673, 801.985 790.941 C 802.016 783.698, 801.481 783.512, 780.228 783.400 C 769.815 783.346, 760.779 782.982, 760.148 782.591 C 759.323 782.082, 759 773.008, 759 750.375 C 759 713.572, 758.885 713.049, 750.818 713.015 C 747.886 713.003, 746.715 713.591, 745.068 715.904 M 860 715 C 858.068 716.932, 858 718.333, 858 756.300 C 858 785.533, 858.307 795.907, 859.200 796.800 C 860.647 798.247, 866.891 798.372, 870.435 797.025 L 873 796.050 873 756.747 C 873 712.239, 873.123 713, 865.943 713 C 863.333 713, 861.324 713.676, 860 715 M 391.655 726.829 C 390.317 728.307, 390 730.859, 390 740.138 C 390 755.822, 389.717 755.521, 404.358 755.424 C 415.175 755.353, 416.128 755.181, 420.017 752.608 C 428.302 747.125, 429.349 736.151, 422.203 729.684 C 419.214 726.979, 410.518 725.025, 401.405 725.012 C 394.823 725.002, 393.001 725.342, 391.655 726.829 M 271.029 733.250 C 270.518 734.487, 268.721 738.875, 267.034 743 C 265.347 747.125, 263.060 752.190, 261.951 754.255 C 260.384 757.174, 260.172 758.454, 261.003 760.005 C 261.973 761.818, 263.094 761.999, 273.285 761.985 C 279.453 761.976, 284.983 761.639, 285.573 761.235 C 287.447 759.951, 287.892 757.292, 286.556 755.365 C 284.999 753.121, 280.265 741.874, 278.826 737 C 278.257 735.075, 277.334 732.938, 276.774 732.250 C 275.151 730.258, 272.040 730.800, 271.029 733.250" stroke="none" fill="#ffffff" fill-rule="evenodd"/>
</svg>