<svg xmlns="http://www.w3.org/2000/svg" width="1000" height="424" viewBox="0 0 1000 424" version="1.1">
	<path d="M 99 2.311 C 99 3.583, 98.098 5.591, 96.996 6.774 C 94.942 8.978, 91.506 10.108, 76.853 13.393 C 75.397 13.719, 72.300 15.578, 69.971 17.524 C 67.642 19.470, 63.281 22.185, 60.280 23.558 C 57.279 24.930, 52.501 28.221, 49.662 30.869 C 46.823 33.518, 43.150 36.468, 41.500 37.425 C 39.850 38.382, 37.467 40.816, 36.204 42.833 C 34.941 44.850, 32.398 47.487, 30.553 48.694 C 28.417 50.092, 26.205 52.998, 24.466 56.694 C 22.963 59.887, 19.986 64.705, 17.851 67.400 C 15.576 70.272, 13.331 74.619, 12.430 77.900 C 8.733 91.357, 7.032 94, 2.066 94 C 0.017 94, 0 94.290, 0 129.500 L 0 165 2.943 165 C 6.710 165, 8.472 167.491, 11.079 176.500 C 13.925 186.336, 14.901 188.600, 17.190 190.672 C 18.294 191.671, 21.031 195.641, 23.273 199.494 C 29.555 210.292, 52.224 231.542, 64.155 237.818 C 67.111 239.374, 70.648 241.367, 72.015 242.248 C 75.919 244.766, 86.627 248.681, 97.044 251.401 C 102.293 252.771, 107.693 254.308, 109.044 254.815 C 118.446 258.348, 150.815 258.873, 163 255.690 C 185.667 249.771, 192.455 247.519, 201.529 242.908 C 210.730 238.233, 213.792 236.307, 226.027 227.500 C 231.960 223.230, 245.162 210.137, 247.707 206 C 248.891 204.075, 251.241 201.179, 252.929 199.564 C 254.770 197.803, 257.241 193.404, 259.103 188.576 C 260.811 184.148, 263.469 178.933, 265.011 176.986 C 268.593 172.463, 271.407 162.983, 270.540 158.360 C 269.220 151.324, 268.216 151, 247.723 151 C 226.569 151, 226.538 151.011, 222.060 159.882 C 220.467 163.038, 218.426 166.231, 217.526 166.979 C 216.625 167.726, 214.539 171.074, 212.890 174.419 C 204.988 190.448, 179.766 208.478, 159.622 212.498 C 141.806 216.054, 121.326 215.118, 106.724 210.082 C 99.618 207.631, 86.271 200.213, 79.294 194.837 C 71.442 188.785, 61.287 176.899, 58.407 170.386 C 57.004 167.213, 54.767 163.324, 53.437 161.742 C 48.749 156.172, 47.500 149.281, 47.500 129 C 47.500 108.851, 48.856 101.222, 53.114 97.426 C 54.302 96.367, 56.591 92.575, 58.202 89 C 60.597 83.683, 63.165 80.516, 72.315 71.596 C 80.411 63.703, 85.019 60.022, 89 58.266 C 92.025 56.931, 95.625 54.774, 97 53.473 C 101.188 49.508, 106.486 47.988, 121.814 46.354 C 133.978 45.058, 138.733 44.985, 149.500 45.930 C 166.438 47.416, 171.064 48.526, 176.232 52.345 C 178.579 54.080, 183.530 57.075, 187.234 59 C 196.832 63.988, 209.371 76.412, 213.023 84.552 C 214.556 87.969, 216.306 91.071, 216.910 91.445 C 217.515 91.818, 219.790 94.746, 221.967 97.951 C 224.462 101.626, 226.953 104.103, 228.712 104.658 C 230.245 105.142, 239.337 105.487, 248.914 105.425 C 265.739 105.316, 266.391 105.235, 268.164 103.045 C 271.801 98.555, 270.057 87.651, 264.672 81.206 C 262.858 79.035, 260.550 74.467, 259.479 70.930 C 258.126 66.461, 256.468 63.509, 253.919 61.031 C 251.922 59.089, 249.321 55.603, 248.141 53.284 C 246.960 50.965, 244.371 47.965, 242.386 46.617 C 240.402 45.268, 237.945 42.794, 236.926 41.118 C 235.906 39.442, 233.369 36.979, 231.286 35.644 C 229.204 34.310, 225.925 31.550, 224 29.511 C 222.075 27.472, 218.250 24.790, 215.500 23.552 C 212.750 22.314, 208.582 19.690, 206.238 17.720 C 202.817 14.845, 200.125 13.711, 192.588 11.969 C 179.456 8.934, 176.215 6.717, 176.925 1.250 C 177.053 0.269, 168.699 -0, 138.044 -0 L 99 0 99 2.311 M 378 2.977 C 378 6.899, 375.690 8.319, 364.385 11.344 C 354.343 14.032, 351.939 15.094, 347.500 18.806 C 345.850 20.186, 342.025 22.405, 339 23.737 C 335.975 25.070, 331.475 28.193, 329 30.678 C 326.525 33.163, 320.623 38.877, 315.884 43.376 C 311.145 47.874, 306.306 53.440, 305.131 55.744 C 303.955 58.048, 302.096 60.413, 301 61 C 298.614 62.277, 295.794 67.566, 293.658 74.770 C 292.799 77.668, 290.723 81.952, 289.044 84.289 C 283.058 92.624, 279.875 118.844, 281.907 143.066 C 283.406 160.929, 284.828 167.049, 289.416 175.371 C 291.274 178.742, 293.812 184.341, 295.055 187.814 C 296.331 191.379, 298.580 195.296, 300.222 196.814 C 301.822 198.291, 304.329 201.525, 305.794 204 C 312.564 215.439, 334.100 233.030, 353.471 242.946 C 363.497 248.078, 380.305 253.311, 397 256.498 C 407.879 258.575, 428.552 258.389, 439 256.121 C 454.655 252.721, 471.449 247.847, 477 245.094 C 485.914 240.671, 497.243 234.080, 500.485 231.429 C 502.143 230.074, 505.975 227.088, 509 224.794 C 512.025 222.500, 515.136 219.695, 515.914 218.561 C 516.692 217.428, 519.441 214.475, 522.023 212 C 524.604 209.525, 527.954 205.353, 529.466 202.729 C 530.978 200.105, 533.876 195.947, 535.907 193.490 C 538.057 190.888, 540.514 186.197, 541.788 182.261 C 542.991 178.542, 545.781 172.575, 547.987 169 C 552.611 161.508, 552.967 158.236, 549.587 154.306 L 547.175 151.500 529.693 151.153 C 514.636 150.854, 511.699 151.049, 508.522 152.557 C 504.168 154.623, 497.989 162.551, 495.480 169.293 C 492.313 177.801, 475.045 196.567, 466.232 201.080 C 464.729 201.850, 461.458 203.653, 458.963 205.088 C 452.271 208.936, 442.667 212.018, 432.500 213.581 C 407.048 217.493, 382.548 212.005, 363.519 198.131 C 355.384 192.200, 343.703 179.896, 340.610 174 C 339.023 170.975, 336.390 167.080, 334.758 165.345 C 330.968 161.314, 329.236 153.612, 328.383 137 C 327.670 123.102, 329.231 104.776, 331.615 99.071 C 332.435 97.107, 334.144 94.375, 335.413 93 C 336.683 91.625, 339.021 88.025, 340.609 85 C 344.660 77.287, 359.537 63.069, 368.500 58.346 C 372.350 56.316, 377.075 53.433, 379 51.938 C 383.223 48.659, 388.609 47.402, 404.783 45.921 C 413.986 45.078, 420.129 45.087, 429.283 45.957 C 446.456 47.589, 451.666 48.862, 456.608 52.635 C 458.938 54.413, 463.351 57.053, 466.415 58.503 C 470.636 60.500, 474.465 63.792, 482.222 72.093 C 492.655 83.258, 493.856 84.888, 496.118 90.946 C 497.728 95.258, 502.069 100.262, 506.664 103.101 C 509.959 105.138, 511.296 105.267, 527.292 105.099 C 547.816 104.883, 549.363 104.401, 549.816 98.076 C 550.064 94.611, 549.398 92.258, 546.707 87.084 C 544.824 83.463, 542.507 78.132, 541.557 75.238 C 540.608 72.344, 537.884 67.585, 535.503 64.663 C 533.122 61.740, 530.189 57.254, 528.986 54.693 C 527.694 51.944, 525.439 49.198, 523.479 47.987 C 521.653 46.859, 519.273 44.433, 518.190 42.598 C 517.107 40.762, 514.959 38.414, 513.416 37.380 C 511.874 36.346, 508.678 33.584, 506.314 31.241 C 503.951 28.899, 498.836 25.435, 494.949 23.543 C 491.062 21.651, 486.325 18.737, 484.423 17.066 C 482.520 15.396, 479.734 13.755, 478.232 13.419 C 460.550 9.474, 456 7.239, 456 2.500 L 456 0 417 0 L 378 0 378 2.977 M 826.650 2.999 C 825.844 7.031, 821.416 9.585, 811.541 11.714 C 806.074 12.893, 802.160 14.445, 799.041 16.672 C 796.543 18.454, 791.371 21.516, 787.547 23.475 C 783.723 25.434, 779.319 28.584, 777.760 30.475 C 776.201 32.367, 773.214 34.876, 771.123 36.051 C 769.031 37.227, 766.548 39.495, 765.605 41.091 C 764.662 42.687, 762.067 45.458, 759.838 47.247 C 757.609 49.036, 754.650 52.750, 753.263 55.500 C 751.876 58.250, 749.278 62.129, 747.491 64.119 C 744.653 67.281, 740 77.197, 740 80.086 C 740 80.641, 738.491 83.455, 736.647 86.338 C 732.218 93.262, 731.298 96.422, 729.906 109.500 C 728.449 123.197, 729.334 153.174, 731.431 161.138 C 732.248 164.238, 734.224 168.738, 735.823 171.138 C 737.422 173.537, 739.527 177.975, 740.502 181 C 742.859 188.314, 745.313 193.071, 747.970 195.474 C 749.171 196.560, 751.730 200.269, 753.658 203.716 C 755.585 207.163, 758.364 210.695, 759.831 211.566 C 761.299 212.437, 763.847 214.947, 765.494 217.144 C 767.140 219.341, 770.007 222.077, 771.863 223.224 C 773.719 224.372, 777.614 227.378, 780.519 229.905 C 783.423 232.432, 790.906 237.286, 797.149 240.691 C 806.308 245.687, 811.600 247.753, 824.550 251.387 C 844.665 257.033, 850.544 257.983, 865.418 257.992 C 880.006 258.002, 886.024 257.025, 906.500 251.322 C 919.421 247.724, 924.617 245.705, 933.500 240.832 C 939.550 237.513, 946.453 233.156, 948.840 231.149 C 951.228 229.142, 955.053 226.150, 957.340 224.500 C 963.569 220.008, 973.659 209.437, 977.602 203.272 C 979.521 200.273, 982.009 196.847, 983.131 195.659 C 985.928 192.697, 987.518 189.464, 989.454 182.808 C 991.490 175.802, 994.346 172, 997.573 172 C 999.978 172, 1000 171.912, 1000 162.147 L 1000 152.293 992.349 151.647 C 977.428 150.385, 959.045 150.859, 956.154 152.579 C 952.591 154.700, 946.189 163.803, 941.718 173.106 C 934.730 187.648, 912.583 205.091, 893.791 210.852 C 882.562 214.296, 867.581 215.577, 854.960 214.173 C 840.797 212.598, 832.808 210.079, 820.045 203.165 C 806.774 195.974, 792.523 182.918, 788.388 174.161 C 786.917 171.047, 784.250 166.786, 782.461 164.691 C 778.657 160.238, 777.606 156.485, 775.917 141.321 C 774.925 132.417, 774.923 127.736, 775.910 118.321 C 777.532 102.842, 778.546 99.030, 782.139 94.918 C 783.781 93.038, 786.495 88.828, 788.171 85.563 C 792.631 76.871, 807.328 62.853, 816.592 58.453 C 820.493 56.601, 824.318 54.318, 825.092 53.380 C 828.005 49.852, 834.823 47.940, 850.151 46.355 C 863.923 44.930, 866.776 44.928, 880.569 46.334 C 896.393 47.947, 901.773 49.461, 906 53.489 C 907.375 54.799, 910.724 56.822, 913.443 57.983 C 916.819 59.425, 921.693 63.328, 928.823 70.297 C 937.247 78.532, 939.899 81.850, 942.576 87.500 C 945.901 94.516, 950.661 100.421, 955.605 103.661 C 957.867 105.143, 960.505 105.363, 973.874 105.183 C 982.468 105.068, 991.862 104.703, 994.750 104.372 L 1000 103.770 1000 94.885 C 1000 86.112, 999.969 86, 997.539 86 C 994.093 86, 991.321 82.617, 989.427 76.100 C 987.319 68.850, 985.475 65.334, 981.386 60.772 C 979.549 58.722, 977.402 55.504, 976.615 53.621 C 975.828 51.738, 973.573 49.102, 971.603 47.764 C 969.634 46.426, 966.676 43.472, 965.031 41.201 C 963.386 38.930, 960.793 36.426, 959.270 35.637 C 957.746 34.847, 954.859 32.371, 952.853 30.134 C 950.846 27.896, 946.796 24.997, 943.853 23.690 C 940.909 22.384, 937.150 20.182, 935.500 18.798 C 930.988 15.013, 927.287 13.404, 918.748 11.514 C 909.468 9.460, 904.628 6.537, 904.184 2.718 L 903.867 0 865.559 -0 L 827.250 -0 826.650 2.999 M 473.108 320.370 C 470.967 322.662, 470.774 323.568, 471.266 329.001 C 472.037 337.494, 473.887 340, 479.388 340 C 486.701 340, 492 333.931, 492 325.555 C 492 320.980, 488.697 318.748, 481.128 318.210 C 476.109 317.853, 475.241 318.087, 473.108 320.370 M 241.673 319.986 C 239.568 320.384, 236.920 321.636, 235.789 322.767 C 233.780 324.775, 233.769 325.006, 235.317 332.662 C 237.338 342.661, 239.313 348.203, 242.301 352.266 C 245.288 356.326, 246.463 359.520, 248.536 369.218 C 249.592 374.154, 251.541 379.199, 253.947 383.218 C 256.116 386.842, 258.459 392.673, 259.485 397 C 261.743 406.518, 263.101 409.764, 266.391 413.500 C 267.844 415.150, 269.308 418.188, 269.644 420.250 L 270.256 424 281.628 424 L 293 424 293 416.450 C 293 409.169, 291.191 403, 289.056 403 C 287.080 403, 283.766 395.560, 282.053 387.275 C 279.984 377.265, 279.515 376.006, 275.806 370.500 C 274.223 368.150, 272.097 362.372, 270.653 356.496 C 268.964 349.621, 267.133 344.913, 264.800 341.446 C 262.933 338.671, 260.382 333.159, 259.132 329.198 C 257.881 325.236, 256.103 321.607, 255.179 321.134 C 252.507 319.765, 245.834 319.198, 241.673 319.986 M 180.530 321.967 C 179.551 323.049, 177.903 326.986, 176.869 330.717 C 175.834 334.448, 173.428 339.765, 171.522 342.532 C 169.147 345.980, 167.248 350.703, 165.490 357.532 C 163.744 364.312, 161.815 369.125, 159.457 372.580 C 157.139 375.977, 155.280 380.567, 153.846 386.434 C 152.449 392.151, 150.560 396.868, 148.425 399.973 C 144.878 405.129, 143.513 409.307, 142.452 418.250 L 141.770 424 153.885 424 L 166 424 166 420.648 C 166 418.647, 167.007 415.926, 168.497 413.898 C 172.551 408.380, 174.777 402.986, 176.746 393.908 C 177.820 388.953, 179.840 383.300, 181.550 380.462 C 183.172 377.768, 185.625 372.892, 187 369.626 C 188.410 366.278, 190.735 362.775, 192.331 361.594 L 195.163 359.500 197.428 362.127 C 198.765 363.678, 200.561 368.305, 201.810 373.418 C 203.074 378.588, 205.331 384.382, 207.409 387.790 C 209.869 391.824, 211.352 395.975, 212.460 401.934 C 213.520 407.634, 214.996 411.877, 217.014 415.022 C 218.656 417.581, 220 420.648, 220 421.838 C 220 423.944, 220.339 424, 233.094 424 L 246.188 424 245.492 418.750 C 245.073 415.586, 243.256 410.685, 240.918 406.414 C 238.544 402.075, 236.224 395.783, 234.936 390.186 C 233.731 384.951, 231.817 379.647, 230.458 377.773 C 226.210 371.915, 225.013 369.190, 223.478 361.896 C 221.959 354.674, 219.917 349.672, 215.670 342.764 C 214.406 340.709, 212.576 335.650, 211.602 331.521 C 209.070 320.781, 207.845 320, 193.520 320 C 183.643 320, 182.098 320.234, 180.530 321.967 M 438.073 322.635 C 436.243 324.960, 436 326.647, 436 337 C 436 347.386, 435.760 349.035, 433.909 351.388 L 431.819 354.046 420.159 353.394 C 402.333 352.397, 393.546 355.239, 389.318 363.369 C 388.497 364.947, 385.216 369.043, 382.027 372.471 C 373.333 381.817, 373.359 381.725, 376.549 391.744 C 379.308 400.408, 380.161 401.684, 391.219 413.690 C 394.330 417.067, 396 419.774, 396 421.440 L 396 424 426.372 424 L 456.744 424 457.417 409.250 C 458.527 384.941, 457.910 328.975, 456.494 325.448 C 455.580 323.175, 454.248 322.091, 451.268 321.198 C 444.559 319.188, 440.430 319.638, 438.073 322.635 M 324.309 353.505 C 314.671 355.599, 311.921 357.341, 307.343 364.249 C 298.441 377.682, 297.632 379.657, 297.182 389.080 C 296.777 397.547, 296.839 397.849, 299.334 399.483 C 300.747 400.409, 303.227 403.513, 304.845 406.380 C 306.564 409.424, 309.476 412.711, 311.845 414.279 C 314.892 416.295, 316.067 417.840, 316.563 420.482 L 317.223 424 336.611 424 L 356 424 356 421.533 C 356 420.027, 357.752 417.094, 360.500 414 C 365.804 408.028, 366.370 404.279, 362.545 400.455 C 357.834 395.743, 347.986 397.740, 342.416 404.537 C 339.623 407.945, 338.077 409, 335.873 409 C 333.389 409, 332.350 408.007, 328.414 401.865 C 321.948 391.778, 322.153 391.641, 343.876 391.503 C 360.705 391.397, 360.810 391.382, 364.388 388.653 C 366.366 387.144, 368.257 384.826, 368.589 383.500 C 369.404 380.256, 364.496 365.743, 361.301 361.946 C 357.584 357.528, 351.335 354.350, 343.918 353.105 C 335.721 351.729, 332.144 351.802, 324.309 353.505 M 527.500 353.370 C 524.200 354.059, 520.116 355.354, 518.425 356.247 C 513.550 358.821, 508.421 365.237, 506.137 371.619 C 503.050 380.245, 500.692 384.500, 498.998 384.500 C 496.612 384.500, 493.882 377.604, 492.436 367.919 C 491.700 362.996, 490.796 358.480, 490.427 357.882 C 489.397 356.216, 483.427 354, 479.966 354 C 475.615 354, 473.386 355.454, 472.105 359.128 C 470.890 362.613, 470.577 401.915, 471.654 415.750 L 472.296 424 481.648 424 L 491 424 491 420.072 C 491 407.756, 496.056 390.204, 499.301 391.256 C 500.852 391.759, 503.524 397.111, 505.550 403.768 C 506.710 407.581, 508.137 409.791, 510.717 411.768 C 516.873 416.486, 518 417.915, 518 421 L 518 424 547.500 424 L 577 424 577 391.039 C 577 359.024, 576.941 358.023, 574.936 356.155 C 573.139 354.480, 570.778 354.156, 556.686 353.644 C 547.784 353.321, 538.925 352.845, 537 352.586 C 535.075 352.328, 530.800 352.680, 527.500 353.370 M 725.389 353.448 C 713.632 356.084, 708.284 360.476, 705.130 370.087 C 704.112 373.187, 700.708 378, 699.532 378 C 697.559 378, 696.043 373.914, 695.436 366.964 C 694.556 356.874, 692.663 354, 686.895 354 C 681.837 354, 676.481 356.233, 675.028 358.947 C 674.405 360.112, 673.256 364.703, 672.474 369.150 C 670.734 379.045, 668.291 384.387, 665.313 384.811 C 662.433 385.221, 660.527 382.210, 657.543 372.537 C 653.761 360.280, 648.290 354, 641.395 354 C 637.612 354, 631.858 360.343, 628.037 368.727 C 620.924 384.334, 619.255 386.082, 615.541 381.813 C 613.942 379.974, 612.828 376.816, 612.014 371.813 C 610.186 360.590, 608.940 357.747, 604.975 355.752 C 597.910 352.197, 590.628 353.771, 588.674 359.275 C 587.507 362.560, 590.735 375.752, 593.805 380.250 C 597.238 385.278, 599.496 391.890, 601.063 401.500 C 601.719 405.527, 603.435 410.723, 605.102 413.735 C 606.696 416.614, 608 420.102, 608 421.485 L 608 424 617.869 424 L 627.738 424 628.308 420.490 C 628.621 418.560, 629.783 415.710, 630.889 414.156 C 631.996 412.602, 633.652 407.994, 634.570 403.915 C 636.916 393.496, 638.368 391.050, 642.227 391.015 C 644.653 390.994, 646.653 394.468, 648.559 402.014 C 649.460 405.581, 651.503 410.805, 653.099 413.622 C 654.694 416.439, 656 419.926, 656 421.372 L 656 424 666 424 C 675.714 424, 676 423.935, 676 421.742 C 676 420.500, 677.120 417.380, 678.489 414.809 C 680.047 411.882, 681.518 406.539, 682.421 400.525 C 684.914 383.928, 691.358 377.665, 695.597 387.719 C 696.473 389.799, 698.019 393.075, 699.030 395 C 707.118 410.386, 708.026 411.752, 711.870 414.295 C 714.893 416.296, 716.068 417.845, 716.563 420.482 L 717.223 424 745.972 424 L 774.721 424 775.352 418.750 C 775.699 415.863, 775.987 401.298, 775.991 386.385 C 776.003 351.467, 777.820 354.409, 755.758 353.638 C 746.816 353.325, 737.700 352.846, 735.500 352.573 C 733.300 352.300, 728.750 352.694, 725.389 353.448 M 823.511 353.547 C 820.065 354.492, 815.713 354.731, 809.446 354.319 C 798.794 353.619, 793.852 354.835, 792.147 358.576 C 790.893 361.329, 790.522 405.283, 791.652 417.250 L 792.289 424 802.145 424 L 812 424 812.169 416.250 C 812.262 411.988, 812.375 402.425, 812.421 395 C 812.476 386.026, 812.932 380.750, 813.780 379.263 C 815.613 376.051, 825.515 370, 828.939 370 C 831.204 370, 832.973 371.260, 837.011 375.750 C 839.854 378.913, 842.590 382.542, 843.091 383.815 C 843.591 385.088, 844.003 390.938, 844.006 396.815 C 844.009 402.692, 844.301 411.212, 844.654 415.750 L 845.296 424 854.001 424 L 862.707 424 863.353 416.349 C 863.709 412.141, 863.996 402.129, 863.991 394.099 C 863.982 380.128, 863.837 379.079, 860.605 369.705 C 858.748 364.318, 856.469 359.071, 855.540 358.045 C 853.357 355.632, 839.779 351.974, 833.432 352.089 C 830.719 352.139, 826.255 352.794, 823.511 353.547 M 328.250 367.989 C 326.302 369.177, 325 370.784, 325 372 C 325 374.840, 330.580 377.992, 335.615 377.996 C 340.616 378.001, 345 374.945, 345 371.453 C 345 366.404, 334.433 364.219, 328.250 367.989 M 408.822 372.977 C 401.650 378.376, 400 381.314, 400 388.681 C 400 396.465, 401.897 399.214, 410.547 403.961 L 418.324 408.230 425.319 404.865 C 434.081 400.649, 435.991 397.851, 435.996 389.218 C 436.001 380.846, 434.205 376.999, 428.001 372.095 C 420.695 366.320, 417.466 366.468, 408.822 372.977 M 529.178 373.500 C 526.284 376.525, 523.530 379, 523.056 379 C 522.003 379, 519.998 384.520, 520.006 387.399 C 520.022 393.420, 521.981 396.600, 528.724 401.551 C 536.384 407.175, 540.648 407.823, 547.527 404.408 C 553.391 401.497, 555.374 398.074, 555.826 390.080 C 556.156 384.234, 555.805 382.316, 553.444 377.054 C 550.183 369.788, 547.482 368, 539.769 368 C 534.612 368, 534.267 368.179, 529.178 373.500 M 726.616 374.417 C 720.165 380.343, 719.701 381.057, 719.250 385.754 C 718.444 394.137, 720.084 397.166, 728.298 402.465 C 736.340 407.653, 738.170 407.811, 746.250 404.012 C 753.024 400.828, 754.380 398.172, 754.246 388.354 C 754.057 374.589, 748.917 367.961, 738.500 368.050 C 733.775 368.090, 733.121 368.441, 726.616 374.417 M -0 394.458 L 0 399 52.250 398.985 C 106.329 398.970, 109.034 398.778, 109.780 394.903 C 109.948 394.030, 108.863 392.734, 107.289 391.928 C 105 390.756, 95.132 390.448, 52.250 390.208 L -0 389.916 -0 394.458 M 901.500 395 C 902.286 396.272, 907.032 396.272, 909 395 C 910.083 394.300, 909.165 394.026, 905.691 394.015 C 902.736 394.006, 901.120 394.386, 901.500 395 M 982.789 394.741 C 986.248 394.937, 991.648 394.936, 994.789 394.738 C 997.930 394.540, 995.100 394.380, 988.500 394.382 C 981.900 394.384, 979.330 394.546, 982.789 394.741" stroke="none" fill="#ffffff" fill-rule="evenodd"/>
</svg>