<svg xmlns="http://www.w3.org/2000/svg" width="1000" height="655" viewBox="0 0 1000 655" version="1.1">
	<path d="M 123 30.660 C 114.133 31.845, 94.099 36.317, 90.449 37.926 C 88.221 38.908, 84.846 41.044, 82.949 42.672 C 81.052 44.300, 74.970 48.576, 69.433 52.174 C 60.492 57.983, 58.712 59.653, 53.514 67.107 C 50.295 71.723, 45.892 77.525, 43.728 80 C 38.071 86.472, 36.514 90.061, 32.574 105.706 C 25.689 133.046, 25.670 146.645, 32.479 173.285 C 36.641 189.572, 39.099 194.794, 46.511 203.100 C 49.547 206.504, 53.184 211.404, 54.591 213.990 C 56.440 217.387, 58.854 219.775, 63.293 222.596 C 66.672 224.743, 71.925 228.680, 74.968 231.345 C 82.278 237.747, 84.002 238.563, 100.970 243.656 L 115.440 248 131.970 247.999 C 150.389 247.997, 159.434 246.721, 173.860 242.090 C 184 238.835, 187.148 237.147, 191 232.894 C 192.375 231.377, 196.268 228.534, 199.651 226.578 C 203.861 224.143, 207.428 220.950, 210.960 216.456 C 213.797 212.846, 216.746 209.651, 217.512 209.357 C 219.174 208.719, 224.161 200.914, 226.046 196 C 226.784 194.075, 228.876 190.312, 230.694 187.638 C 235.875 180.018, 234.819 173.015, 227.668 167.560 C 220.781 162.307, 216.200 162.991, 203.824 171.116 C 197.427 175.315, 195.453 177.293, 192.128 182.834 C 188.058 189.615, 175.438 202.100, 168.850 205.863 C 163.028 209.188, 152.773 210.503, 133 210.459 C 112.989 210.415, 109.804 209.875, 99.275 204.741 C 94.671 202.497, 91.901 200.260, 88.888 196.355 C 86.628 193.425, 82.594 189.459, 79.923 187.540 C 73.245 182.742, 70.108 176.367, 65.390 158 C 61.891 144.377, 62.030 134.652, 65.942 119.471 C 70.603 101.381, 72.987 97.306, 85.945 85.277 C 98.337 73.775, 103.387 70.799, 114.665 68.354 C 130.124 65.003, 157.753 66.750, 167.344 71.685 C 168.909 72.490, 172.521 75.478, 175.371 78.325 C 178.220 81.171, 182.212 84.744, 184.240 86.264 C 186.268 87.784, 189.731 92.114, 191.934 95.887 C 195.645 102.242, 196.511 103.043, 203.720 106.786 C 214.248 112.254, 217.343 112.727, 223 109.733 C 228.358 106.897, 232 101.933, 232 97.467 C 232 92.327, 221.508 73.537, 214.987 66.998 C 211.969 63.972, 208.240 59.806, 206.701 57.740 C 205.162 55.674, 201.599 52.817, 198.784 51.390 C 195.969 49.964, 191.342 46.599, 188.503 43.914 C 182.409 38.151, 179.435 36.988, 161.803 33.477 C 148.965 30.921, 130.874 29.607, 123 30.660 M 285.119 36.003 C 283.259 36.442, 280.372 38.166, 278.703 39.835 C 275.830 42.708, 275.629 43.442, 274.897 53.684 C 273.684 70.646, 273.909 230.743, 275.152 235.684 C 276.352 240.457, 280.361 245.426, 284.182 246.879 C 285.753 247.476, 307.529 247.944, 339.142 248.058 C 389.811 248.243, 391.672 248.182, 396.819 246.194 C 404.037 243.406, 406.669 241.542, 408.568 237.869 C 413.640 228.060, 401.665 218.638, 384 218.541 C 379.875 218.519, 363.450 218.701, 347.500 218.947 C 315.223 219.445, 315.799 219.546, 311.987 212.762 C 308.374 206.334, 307.042 195.410, 307.909 179.324 C 309.177 155.792, 307.186 156.766, 352.792 157.345 C 374.927 157.626, 389.080 157.409, 391.862 156.746 C 394.598 156.094, 397.725 154.279, 400.246 151.881 C 403.978 148.331, 404.232 147.746, 403.780 143.741 C 403.184 138.457, 399.309 132.100, 394.402 128.357 C 390.146 125.111, 392.938 125.255, 347.962 125.969 L 318.423 126.438 315.189 124.135 C 313.410 122.868, 310.978 119.957, 309.785 117.666 C 307.806 113.866, 307.612 111.962, 307.573 96 C 307.526 76.866, 308.066 74.480, 313.326 70.590 C 316.094 68.543, 316.908 68.507, 352.826 68.859 C 392.856 69.250, 397.578 68.750, 403.874 63.452 C 409.763 58.498, 410.397 46.244, 405.043 40.889 C 399.388 35.234, 396.649 34.990, 340.068 35.102 C 311.706 35.159, 286.978 35.564, 285.119 36.003 M 453.055 36.215 C 451.710 36.924, 449.685 39.078, 448.555 41.002 C 446.521 44.465, 446.500 45.453, 446.500 140.026 L 446.500 235.553 449.038 240.526 C 452.350 247.019, 456.535 249.328, 463.609 248.566 C 473.559 247.494, 478.837 243.727, 481.053 236.115 C 481.767 233.665, 482.008 202.517, 481.803 139.500 C 481.463 35.267, 481.890 41.119, 474.373 37.458 C 469.526 35.097, 456.602 34.343, 453.055 36.215 M 528.500 211.213 C 524.163 212.739, 522.966 213.934, 520.716 218.986 C 519.369 222.009, 518.671 225.837, 518.602 230.577 C 518.511 236.898, 518.804 238.052, 521.348 241.389 C 524.942 246.102, 527.354 247, 536.417 247 C 544.715 247, 548.681 245.060, 552.815 238.976 C 554.770 236.099, 555.110 234.538, 554.787 229.915 C 554.235 222.025, 550.082 213.886, 545.488 211.696 C 541.526 209.806, 533.174 209.569, 528.500 211.213 M 40.030 362.278 C 38.672 362.966, 36.491 365.098, 35.184 367.015 C 33.179 369.957, 32.892 371.332, 33.341 375.839 C 34.087 383.311, 37.658 390.079, 42 392.248 C 45.317 393.906, 69.618 393.994, 508 393.942 C 863.602 393.900, 971.305 393.611, 973.983 392.694 C 979.015 390.969, 982.187 384.770, 982.782 375.498 C 983.224 368.602, 983.118 368.163, 980.204 364.902 L 977.164 361.500 509.832 361.263 C 137.256 361.074, 41.999 361.280, 40.030 362.278 M 181.692 595.451 C 179.748 597.394, 178.835 602.806, 179.827 606.500 C 180.440 608.786, 181.292 609.577, 183.404 609.825 C 189.590 610.550, 195.647 599.790, 191.429 595.571 C 189.456 593.599, 183.616 593.527, 181.692 595.451 M 594.035 595.934 C 592.144 599.468, 592.788 605.452, 595.314 607.826 C 597.840 610.198, 603.700 610.766, 607.066 608.965 C 610.376 607.193, 609.648 601.448, 605.600 597.400 C 601.552 593.352, 595.807 592.624, 594.035 595.934 M 733.253 596.250 C 732.707 596.938, 731.717 599.189, 731.052 601.253 C 727.718 611.604, 736.234 617.342, 741.017 607.967 C 743.404 603.287, 743.527 600.197, 741.443 597.223 C 739.714 594.754, 734.894 594.182, 733.253 596.250 M 404.200 610.200 C 403.540 610.860, 403 613.505, 403 616.078 C 403 624.026, 407.711 625.246, 409.921 617.869 C 410.940 614.470, 410.880 613.466, 409.541 611.422 C 407.797 608.760, 406.041 608.359, 404.200 610.200" stroke="none" fill="#ffffff" fill-rule="evenodd"/>
</svg>