<svg xmlns="http://www.w3.org/2000/svg" width="1000" height="1000" viewBox="0 0 1000 1000" version="1.1">
	<path d="M 279.881 297.007 C 277.987 298.113, 276.621 301.406, 274.930 308.941 C 274.259 311.933, 272.352 317.108, 270.692 320.441 C 264.718 332.439, 266.427 340.505, 274.795 339.807 C 278.213 339.522, 278.521 339.227, 279.092 335.682 C 279.844 331.013, 281.539 329.227, 288.279 326 C 294.495 323.024, 295.347 320.748, 291.072 318.537 C 282.232 313.966, 284.382 306.305, 295.121 304.109 C 300.501 303.009, 299.304 300.774, 292 298.285 C 284.852 295.850, 282.318 295.583, 279.881 297.007 M 235.828 299.037 C 233.558 300.361, 230.366 305.789, 229.529 309.747 C 228.885 312.794, 229.273 313.396, 235.871 319.586 C 241.302 324.682, 243.275 327.311, 244.553 331.158 C 246.554 337.184, 250.300 339.677, 252.610 336.519 C 255.062 333.166, 253.874 326.984, 249.435 320 C 248.212 318.075, 246.911 314.700, 246.545 312.500 C 244.391 299.578, 241.381 295.796, 235.828 299.037 M 202.242 310.494 C 198.362 312.181, 196.633 315.993, 197.330 321.328 C 197.976 326.269, 200.486 328.996, 204.405 329.014 C 209.576 329.036, 211.781 330.058, 212.997 332.994 C 213.941 335.271, 214.981 335.920, 218.543 336.454 C 222.077 336.984, 223.604 337.925, 226.419 341.306 C 229.707 345.255, 230.010 345.401, 231.619 343.801 C 232.657 342.768, 233.505 339.957, 233.780 336.637 L 234.233 331.172 229.867 328.419 C 227.465 326.905, 224.317 324.504, 222.872 323.083 C 221.426 321.662, 218.951 319.321, 217.372 317.880 C 215.792 316.440, 213.314 313.852, 211.865 312.130 C 208.965 308.685, 207.124 308.372, 202.242 310.494 M 168.500 337.053 C 166.850 337.589, 163.773 339.259, 161.663 340.764 C 158.549 342.984, 157.379 344.819, 155.456 350.500 C 152.561 359.047, 152.445 362.549, 154.870 368.167 C 157.042 373.198, 158.718 374.821, 165.322 378.288 C 170.452 380.981, 172.450 380.887, 178.687 377.662 C 184.314 374.752, 183.661 371.908, 177.040 370.490 C 175.137 370.082, 171.754 368.966, 169.523 368.010 C 165.960 366.483, 165.134 365.461, 162.733 359.616 C 159.403 351.507, 159.351 349.958, 162.314 347.174 C 165.342 344.330, 168.985 344.429, 175.875 347.541 C 180.789 349.760, 181.979 350.898, 185.290 356.541 C 187.374 360.093, 189.711 363, 190.483 363 C 194.724 363, 196.458 352.903, 193.149 347.477 C 188.554 339.943, 175.977 334.624, 168.500 337.053 M 350.277 337.653 C 349.113 338.125, 341.562 348.994, 339.098 353.746 C 338.458 354.982, 335.811 357.007, 333.217 358.246 C 328.165 360.660, 325.433 364.637, 326.505 368.016 C 327.943 372.547, 338.851 368.231, 343.908 361.130 C 346.349 357.702, 349.538 356.360, 357.312 355.491 C 364.442 354.693, 365.253 353.191, 361.106 348.468 C 359.398 346.522, 358 344.332, 358 343.600 C 358 341.751, 354.109 336.983, 352.677 337.079 C 352.030 337.122, 350.950 337.381, 350.277 337.653 M 207.984 340.542 C 206.866 343.482, 207.660 350, 209.136 350 C 210.534 350, 212.134 344.973, 211.799 341.633 C 211.407 337.729, 209.284 337.122, 207.984 340.542 M 356.500 374.510 C 354.850 375.271, 350.680 377.107, 347.233 378.591 C 342.311 380.709, 340.842 381.848, 340.390 383.894 C 340.073 385.327, 339.613 387.249, 339.367 388.165 C 338.671 390.754, 340.063 395, 341.608 395 C 342.374 395, 343 394.568, 343 394.040 C 343 390.006, 358.965 384.020, 366.114 385.374 C 376.892 387.416, 378 387.389, 378 385.084 C 378 383.673, 376.896 382.308, 374.863 381.203 C 373.137 380.267, 369.758 378.038, 367.354 376.250 C 362.567 372.691, 360.995 372.439, 356.500 374.510 M 381 391.876 C 381 394.188, 378.530 396.375, 373.636 398.397 C 371.510 399.275, 368.258 401.323, 366.407 402.947 C 364.557 404.572, 361.346 406.182, 359.271 406.524 C 351.163 407.863, 347.511 409.423, 347.189 411.687 C 346.984 413.123, 347.713 414.421, 349.312 415.469 C 352.619 417.636, 360.955 418.500, 365.161 417.112 C 369.830 415.571, 377.283 407.769, 380.966 400.567 C 384.344 393.961, 384.726 391.492, 382.500 390.638 C 381.506 390.257, 381 390.675, 381 391.876 M 135.390 393.427 C 134.434 395.918, 135.438 399.468, 137.192 399.802 C 139.046 400.155, 142.034 395.365, 141.279 393.250 C 140.666 391.531, 136.064 391.670, 135.390 393.427 M 134.028 407.467 C 132.421 409.403, 133.122 415.347, 135.564 420.493 C 137.640 424.869, 142.475 427.391, 150.760 428.419 C 159.788 429.539, 169.478 425.359, 168.804 420.635 C 168.514 418.595, 168.055 418.513, 158.500 418.791 C 146.477 419.140, 144.577 418.346, 141.065 411.502 C 138.342 406.196, 136.133 404.930, 134.028 407.467 M 255.341 430.474 C 252.469 432.485, 248 441.296, 248 444.946 C 248 449.451, 250.941 450.581, 255.980 448.010 L 259.988 445.965 266.244 449.112 C 269.685 450.842, 272.831 452.762, 273.235 453.379 C 273.639 453.996, 273.976 456.631, 273.985 459.235 C 273.993 461.950, 275.494 468.434, 277.500 474.431 C 281.257 485.662, 281.606 488.300, 279.913 492.685 C 279.128 494.720, 279.152 502.461, 280.001 520.622 C 281.072 543.538, 281.024 546.282, 279.459 551.862 C 277.846 557.611, 277.843 558.530, 279.415 567.121 C 280.769 574.526, 280.877 577.330, 279.979 581.882 C 277.924 592.307, 274.839 600.413, 271.640 603.794 C 269.039 606.542, 268.769 607.243, 270.012 608.028 C 272.048 609.316, 319.700 609.295, 320.496 608.006 C 320.834 607.459, 320.002 605.547, 318.648 603.756 C 317.293 601.965, 315.704 598.700, 315.117 596.500 C 314.530 594.300, 313.400 591.576, 312.606 590.447 C 310.927 588.059, 308 574.734, 308 569.478 C 308 567.494, 308.965 563.628, 310.144 560.887 C 312.009 556.551, 312.215 554.678, 311.726 546.482 C 311.082 535.681, 312.226 533.071, 318.516 530.995 C 322.320 529.739, 325.481 530.421, 332.543 534.022 C 337.632 536.617, 340.047 536.518, 345.863 533.477 C 348.688 531.999, 354.528 530.332, 359.950 529.455 C 369.661 527.885, 372.046 527.006, 375.437 523.747 C 376.572 522.657, 378.850 521.150, 380.500 520.399 C 384.745 518.466, 386.467 516.933, 388.251 513.500 C 389.109 511.850, 390.986 509.401, 392.423 508.059 C 396.332 504.406, 398.005 497.317, 397.966 484.568 C 397.928 472.249, 395.444 459.412, 392.279 455.172 C 390.902 453.328, 388.541 452.160, 383.906 451.030 C 379.862 450.044, 375.965 448.265, 373.475 446.268 C 365.865 440.163, 359.207 439.545, 304.016 439.818 C 288.039 439.898, 278.191 439.538, 275.674 438.784 C 273.552 438.149, 269.761 435.687, 267.249 433.314 C 262.341 428.678, 259.032 427.889, 255.341 430.474 M 882 442.693 C 881.175 443.008, 877.350 444.701, 873.500 446.456 C 869.650 448.210, 865.099 450.204, 863.388 450.887 C 861.676 451.570, 858.780 454.125, 856.952 456.564 C 855.124 459.004, 853.273 461, 852.840 461 C 852.406 461, 851.262 462.462, 850.298 464.250 C 848.869 466.899, 848.541 470.089, 848.522 481.500 C 848.497 497.537, 849.422 501.279, 854.930 507.416 C 856.946 509.662, 859.366 512.728, 860.307 514.229 C 861.249 515.730, 863.477 517.705, 865.259 518.618 C 867.042 519.530, 870.525 521.949, 873 523.994 C 875.475 526.038, 879.876 528.491, 882.781 529.446 C 885.686 530.400, 889.286 532.199, 890.781 533.442 C 894.416 536.464, 897.216 537.875, 902.973 539.585 C 907.817 541.023, 919.108 548.055, 924.283 552.856 C 931.588 559.632, 935.322 572.575, 933.064 583.283 C 932.057 588.058, 930.800 590.277, 925.850 596.014 C 921.178 601.429, 918.934 603.220, 915.678 604.132 C 910.639 605.542, 897.376 605.776, 886.661 604.642 C 879.100 603.842, 878.749 603.688, 876.757 600.312 C 875.621 598.387, 872.829 595.616, 870.552 594.156 C 864.909 590.534, 857.679 582.469, 855.062 576.877 C 853.034 572.541, 846.416 566, 844.059 566 C 842.665 566, 842.662 566.037, 842.965 584 C 843.108 592.525, 843.641 600.288, 844.148 601.250 C 845.241 603.324, 849.469 603.522, 857.201 601.863 C 864.167 600.368, 876.144 603.044, 878.486 606.619 C 880.325 609.425, 882.599 609.824, 900.655 610.512 C 915.871 611.091, 923.149 610.116, 926.500 607.048 C 927.600 606.041, 931.200 603.861, 934.500 602.203 C 941.490 598.691, 943.810 596.356, 951.090 585.500 L 956.454 577.500 956.477 565.865 C 956.500 554.423, 956.448 554.158, 953.382 549.865 C 951.667 547.464, 949.095 543.184, 947.667 540.354 C 946.143 537.331, 943.709 534.365, 941.771 533.167 C 939.956 532.046, 937.492 529.804, 936.296 528.187 C 935.082 526.545, 931.181 523.869, 927.463 522.130 C 923.801 520.416, 919.513 517.927, 917.934 516.598 C 916.354 515.269, 912.686 513.418, 909.781 512.484 C 906.876 511.551, 901.575 509.098, 898 507.033 C 894.425 504.969, 889.387 502.087, 886.803 500.629 C 882.017 497.928, 872.285 487.386, 869.365 481.740 C 867.443 478.023, 867.197 467.369, 868.957 464.081 C 869.621 462.840, 871.488 460.627, 873.106 459.163 C 874.724 457.698, 876.825 454.937, 877.774 453.028 C 879.722 449.109, 883.050 447.788, 896 445.790 C 902.548 444.780, 903.091 444.546, 900.277 443.948 C 895.141 442.857, 883.640 442.068, 882 442.693 M 463.643 445.250 C 462.871 446.488, 461.959 449.712, 461.616 452.416 C 461.273 455.120, 459.214 461.195, 457.039 465.916 C 451.696 477.519, 450 482.572, 450 486.891 C 450 490.352, 450.244 490.617, 454.972 492.296 C 461.743 494.701, 467.743 503.031, 471.426 515.139 C 472.871 519.891, 475.383 525.741, 477.009 528.139 C 481.720 535.092, 480.837 540.843, 474.409 545.059 L 471.788 546.779 478.779 550.453 C 487.372 554.969, 489.268 556.988, 491.500 564 C 492.463 567.025, 494.253 570.850, 495.477 572.500 C 500.935 579.854, 502.412 585.827, 500.967 594.701 C 500.334 598.594, 499.228 601.196, 497.395 603.110 C 495.805 604.770, 494.980 606.506, 495.339 607.440 C 495.858 608.794, 499.163 609, 520.410 609 C 536.872 609, 545.101 608.646, 545.550 607.919 C 545.918 607.324, 545.068 605.637, 543.662 604.169 C 542.256 602.701, 540.405 599.821, 539.548 597.770 C 538.691 595.718, 536.849 593.292, 535.454 592.378 C 532.309 590.317, 531.250 588.369, 529.001 580.505 C 528.024 577.088, 525.835 572.374, 524.136 570.029 C 522.437 567.683, 520.745 564.130, 520.377 562.132 C 519.269 556.117, 517.167 550.987, 514.521 547.842 C 513.144 546.206, 511.309 542.309, 510.443 539.183 C 508.278 531.371, 507.040 528.338, 504.469 524.550 C 503.257 522.763, 501.018 517.521, 499.494 512.900 C 497.971 508.280, 495.694 502.700, 494.435 500.500 C 491.744 495.797, 489.729 490.620, 487.592 482.922 C 486.741 479.854, 484.839 475.579, 483.366 473.422 C 481.893 471.265, 479.692 465.610, 478.476 460.856 C 474.945 447.056, 467.441 439.161, 463.643 445.250 M 580.076 445.849 C 578.872 446.681, 579.105 448.201, 581.576 455.667 L 584.500 464.500 584.500 526.500 C 584.500 597.542, 584.485 597.710, 577.683 603.550 C 573.670 606.996, 573.579 607.200, 575.441 608.571 C 576.986 609.708, 581.900 610, 599.500 610 C 625.618 610, 626.885 609.647, 622.146 603.684 C 620.507 601.622, 617.666 597.598, 615.833 594.743 L 612.500 589.552 612.182 566.705 C 611.906 546.932, 612.082 543.523, 613.490 541.375 C 615.729 537.957, 618.460 537.176, 624.416 538.250 C 630.294 539.311, 632.436 540.947, 635.214 546.500 C 636.315 548.700, 638.463 551.850, 639.987 553.500 C 641.511 555.150, 643.979 558.750, 645.471 561.500 C 646.964 564.250, 649.219 567.625, 650.482 569 C 651.746 570.375, 653.791 573.525, 655.027 576 C 656.262 578.475, 658.364 581.805, 659.697 583.399 C 661.031 584.993, 663.488 589.005, 665.158 592.313 C 666.832 595.629, 670.838 600.947, 674.085 604.164 L 679.976 610 694.238 610.151 C 714.989 610.370, 721.014 609.819, 720.982 607.705 C 720.972 607.042, 718.835 605.032, 716.232 603.237 C 706 596.182, 699.500 590.309, 685.780 575.723 C 677.926 567.373, 668.688 557.775, 665.250 554.393 C 659.464 548.701, 659.001 547.921, 659.014 543.873 C 659.021 541.468, 659.297 538.493, 659.627 537.261 C 660.445 534.212, 665.395 531.351, 672.874 529.606 C 677.598 528.504, 680.156 527.189, 683.412 524.188 C 685.777 522.008, 688.714 519.688, 689.940 519.032 C 691.166 518.376, 692.847 516.216, 693.676 514.233 C 694.505 512.250, 696.306 509.154, 697.679 507.354 C 703.605 499.585, 703.189 480.223, 696.879 470.058 C 693.185 464.109, 683.960 454.555, 680 452.577 C 673.906 449.535, 647.861 444.542, 645.255 445.917 C 643.848 446.659, 654.530 457.184, 660.057 460.500 C 664.324 463.060, 668.672 471.761, 670.731 481.858 C 672.677 491.398, 671.558 498.425, 666.440 508.802 C 662.709 516.367, 658.502 520.435, 651.791 522.964 C 649.981 523.646, 645.805 525.356, 642.511 526.765 C 638.037 528.679, 634.748 529.336, 629.511 529.364 C 621.488 529.406, 619.193 528.430, 615.291 523.317 L 612.500 519.660 612.205 491.741 C 611.897 462.630, 612.550 456.556, 616.671 450.143 C 617.554 448.770, 617.815 447.415, 617.298 446.898 C 616.006 445.606, 581.822 444.642, 580.076 445.849 M 757.103 445.915 C 754.987 447.255, 756.387 453.508, 760.130 459.439 C 763.091 464.128, 763.381 465.381, 764.092 476.500 C 764.514 483.100, 764.518 511, 764.102 538.500 L 763.346 588.500 759.704 595.602 C 757.701 599.508, 755.373 603.276, 754.531 603.974 C 752.282 605.841, 752.660 608.676, 755.250 609.370 C 759.180 610.423, 798.700 610.064, 801.634 608.949 L 804.399 607.898 800.267 604.199 C 792.052 596.843, 791.363 589.741, 792 519 C 792.448 469.288, 792.680 463.103, 794.223 459.692 C 795.171 457.597, 796.233 453.725, 796.583 451.087 C 797.172 446.643, 797.046 446.244, 794.860 445.659 C 791.243 444.691, 758.687 444.912, 757.103 445.915 M 318.030 448.139 C 316.671 448.667, 314.084 450.224, 312.280 451.600 C 309.266 453.899, 309 454.553, 309 459.667 C 309 462.727, 309.745 467.329, 310.655 469.892 C 312.245 474.367, 312.225 474.800, 310.155 480.780 C 308.346 486.009, 308 489.263, 308 501.070 C 308 509.222, 308.454 515.979, 309.080 517.149 C 310.887 520.527, 319.691 523.980, 326.500 523.983 C 334.807 523.986, 344.541 522.275, 348.916 520.043 C 356.017 516.420, 366.024 503.230, 367.916 495 C 369.181 489.498, 369.261 478.830, 368.075 473.721 C 367.097 469.508, 360.590 459.006, 356.134 454.448 C 354.536 452.814, 351.041 450.733, 348.365 449.822 C 342.649 447.877, 321.699 446.715, 318.030 448.139 M 926.250 450.538 C 923.362 451.871, 921 453.443, 921 454.031 C 921 454.620, 922.538 456.542, 924.418 458.301 C 926.297 460.060, 929.146 464.425, 930.749 468 C 934.334 475.998, 936.404 478.025, 938.670 475.758 C 940.873 473.555, 941.661 457.922, 939.842 452.500 C 938.641 448.920, 938.133 448.480, 935 448.307 C 933.033 448.199, 929.201 449.176, 926.250 450.538 M 442.458 500.497 C 440.628 506.791, 440.829 510.500, 443 510.500 C 444.883 510.500, 446.869 504.832, 446.944 499.250 C 447.028 492.893, 444.461 493.607, 442.458 500.497 M 434.142 518.858 C 432.327 520.673, 430 528.668, 430 533.089 C 430 534.184, 428.252 536.793, 426.116 538.887 C 422.012 542.909, 420 548.884, 420 557.049 C 420 563.415, 421.972 562.627, 430.747 552.752 C 431.983 551.362, 434.458 549.942, 436.247 549.597 C 442.263 548.438, 442.609 547.640, 439.027 543.184 C 436.083 539.520, 435.841 538.709, 436.384 534.325 C 438.060 520.789, 438.177 518.227, 437.147 517.591 C 436.556 517.226, 435.204 517.796, 434.142 518.858 M 456.728 547.722 C 458.503 547.943, 461.653 547.946, 463.728 547.730 C 465.802 547.513, 464.350 547.333, 460.500 547.328 C 456.650 547.324, 454.952 547.501, 456.728 547.722 M 412.404 567.575 C 410.444 572.266, 409.310 584, 410.816 584 C 414.100 584, 418 574.408, 418 566.333 C 418 562.448, 414.194 563.293, 412.404 567.575 M 405.792 586.550 C 404.303 587.358, 401.457 590.828, 399.468 594.260 C 397.479 597.692, 394.198 601.927, 392.176 603.672 C 386.488 608.580, 388.354 609.500, 404 609.500 C 419.401 609.500, 420.596 608.911, 416.677 603.256 C 415.221 601.155, 413.054 596.188, 411.860 592.218 C 410.667 588.248, 409.422 585.018, 409.095 585.040 C 408.768 585.062, 407.281 585.741, 405.792 586.550" stroke="none" fill="#ffffff" fill-rule="evenodd"/>
</svg>