<svg xmlns="http://www.w3.org/2000/svg" width="1000" height="563" viewBox="0 0 1000 563" version="1.1">
	<path d="M 320.500 31.688 C 313.418 32.648, 297.912 38.281, 290.731 42.503 C 275.981 51.176, 264.631 63.910, 256.972 80.381 C 248.942 97.650, 249.500 82.674, 249.500 281 C 249.500 428.297, 249.732 458.658, 250.900 464.500 C 257.069 495.342, 279.130 519.474, 310 529.149 L 317.500 531.500 500 531.500 L 682.500 531.500 690 529.145 C 719.499 519.882, 740.589 498.109, 748.260 469 L 750.500 460.500 750.500 281.500 L 750.500 102.500 748.344 94.492 C 744.167 78.974, 736.876 66.139, 726.335 55.748 C 715.707 45.271, 706.113 39.466, 691 34.367 L 682.500 31.500 503 31.391 C 404.275 31.330, 322.150 31.464, 320.500 31.688 M 454 93 L 454 105 563 105 L 672 105 672 93 L 672 81 563 81 L 454 81 454 93 M 465 299.495 L 465 482 497.464 482 L 529.927 482 530.214 446.419 C 530.487 412.403, 530.586 410.774, 532.461 409.404 C 534.079 408.222, 539.585 408.017, 563.932 408.235 L 593.442 408.500 594.706 411 C 595.651 412.869, 595.974 422.155, 595.985 447.764 L 596 482.027 628.750 481.764 L 661.500 481.500 661.500 299.500 L 661.500 117.500 563.250 117.245 L 465 116.990 465 299.495 M 481.655 138.829 C 480.243 140.389, 480 143.322, 480 158.806 C 480 181.947, 478.135 180.244, 503.005 179.814 C 519.624 179.527, 521.285 179.335, 522.583 177.559 C 524.738 174.608, 524.620 142.331, 522.443 139.223 C 520.929 137.060, 520.380 137, 502.098 137 C 485.166 137, 483.146 137.181, 481.655 138.829 M 542.655 138.829 C 541.246 140.385, 541 143.289, 541 158.329 C 541 181.672, 539.302 180, 563 180 C 586.712 180, 585 181.700, 585 158.155 C 585 142.137, 584.813 140.141, 583.171 138.655 C 581.608 137.240, 578.653 137, 562.826 137 C 546.158 137, 544.145 137.183, 542.655 138.829 M 603.557 139.223 C 602.294 141.025, 602.003 144.662, 602.015 158.473 C 602.024 167.838, 602.361 175.995, 602.765 176.600 C 604.650 179.423, 608.375 180, 624.712 180 C 638.338 180, 641.980 179.703, 643.777 178.443 C 645.936 176.931, 646 176.363, 646 158.598 C 646 142.151, 645.816 140.143, 644.171 138.655 C 642.607 137.240, 639.646 137, 623.728 137 C 605.626 137, 605.071 137.061, 603.557 139.223 M 492.212 158.089 L 492.500 167.178 502 167.178 L 511.500 167.178 511.788 158.089 L 512.075 149 502 149 L 491.925 149 492.212 158.089 M 553.212 158.089 L 553.500 167.178 563 167.178 L 572.500 167.178 572.788 158.089 L 573.075 149 563 149 L 552.925 149 553.212 158.089 M 614 157.833 C 614 162.692, 614.186 166.854, 614.412 167.083 C 614.639 167.313, 619.139 167.357, 624.412 167.181 L 634 166.863 634 157.931 L 634 149 624 149 L 614 149 614 157.833 M 328 334.500 L 328 482.015 390.250 481.758 L 452.500 481.500 452.500 334.500 L 452.500 187.500 390.250 187.242 L 328 186.985 328 334.500 M 482.223 191.557 C 480.064 193.069, 480 193.637, 480 211.402 C 480 227.849, 480.184 229.857, 481.829 231.345 C 483.392 232.760, 486.347 233, 502.174 233 C 518.842 233, 520.855 232.817, 522.345 231.171 C 523.753 229.615, 523.998 226.743, 523.985 211.921 C 523.976 202.340, 523.639 194.005, 523.235 193.400 C 521.350 190.577, 517.625 190, 501.288 190 C 487.662 190, 484.020 190.297, 482.223 191.557 M 545 190.662 C 541.385 192.031, 541 194.088, 541 212.036 C 541 227.869, 541.189 229.861, 542.829 231.345 C 544.392 232.760, 547.347 233, 563.174 233 C 579.842 233, 581.855 232.817, 583.345 231.171 C 584.752 229.616, 585 226.725, 585 211.862 C 585 198.356, 584.678 193.941, 583.583 192.441 C 582.281 190.659, 580.700 190.483, 564.333 190.297 C 554.525 190.186, 545.825 190.350, 545 190.662 M 605.500 191.195 C 604.400 191.819, 603.169 192.818, 602.765 193.415 C 602.361 194.012, 602.024 202.418, 602.015 212.095 C 602.002 227.882, 602.188 229.860, 603.829 231.345 C 605.392 232.760, 608.347 233, 624.174 233 C 640.842 233, 642.855 232.817, 644.345 231.171 C 645.757 229.611, 646 226.680, 646 211.228 C 646 193.643, 645.935 193.068, 643.777 191.557 C 641.973 190.292, 638.356 190.006, 624.527 190.030 C 613.731 190.050, 606.768 190.476, 605.500 191.195 M 347.268 201.212 C 344.306 202.642, 343.755 206.146, 344.163 220.952 C 344.459 231.660, 344.739 233.340, 346.441 234.583 C 347.915 235.659, 352.006 235.996, 363.441 235.985 C 371.724 235.976, 378.995 235.639, 379.600 235.235 C 382.264 233.456, 383 229.621, 383 217.520 C 383 205.464, 382.892 204.801, 380.545 202.455 C 378.161 200.070, 377.683 200.002, 363.795 200.068 C 355.782 200.106, 348.519 200.609, 347.268 201.212 M 399.557 203.223 C 398.338 204.963, 398 208.324, 398 218.723 C 398 236.731, 397.183 236, 417.309 236 C 428.952 236, 433.083 235.660, 434.559 234.581 C 436.325 233.289, 436.500 231.861, 436.500 218.734 C 436.500 207.976, 436.151 203.887, 435.128 202.654 C 433.954 201.239, 431.396 201, 417.434 201 C 401.702 201, 401.057 201.080, 399.557 203.223 M 492 212 L 492 221 502 221 L 512 221 512 212 L 512 203 502 203 L 492 203 492 212 M 553 212 L 553 221 563 221 L 573 221 573 212 L 573 203 563 203 L 553 203 553 212 M 614 212 L 614 221 624 221 L 634 221 634 212 L 634 203 624 203 L 614 203 614 212 M 356 218.500 L 356 225 363.500 225 L 371 225 371 218.500 L 371 212 363.500 212 L 356 212 356 218.500 M 410 218.500 L 410 225 417.500 225 L 425 225 425 218.500 L 425 212 417.500 212 L 410 212 410 218.500 M 481.655 245.829 C 480.244 247.388, 480 250.315, 480 265.706 C 480 281.259, 480.228 283.945, 481.650 285.128 C 482.864 286.137, 487.670 286.585, 499.806 286.819 C 517.415 287.160, 519.967 286.890, 522.430 284.427 C 524.737 282.120, 524.748 249.513, 522.443 246.223 C 520.929 244.060, 520.380 244, 502.098 244 C 485.166 244, 483.146 244.181, 481.655 245.829 M 543.223 245.557 C 541.068 247.066, 541 247.655, 541 264.866 C 541 278.619, 541.320 283.055, 542.419 284.559 C 543.739 286.363, 545.187 286.500, 563 286.500 C 580.813 286.500, 582.261 286.363, 583.581 284.559 C 584.680 283.056, 585 278.632, 585 264.964 C 585 249.131, 584.811 247.139, 583.171 245.655 C 580.533 243.268, 546.610 243.184, 543.223 245.557 M 604 246 C 602.153 247.847, 602 249.333, 602 265.429 C 602 284.145, 602.291 285.282, 607.414 286.568 C 608.665 286.882, 617.116 286.995, 626.194 286.819 C 638.330 286.585, 643.136 286.137, 644.350 285.128 C 645.773 283.944, 646 281.247, 646 265.533 C 646 249.149, 645.815 247.143, 644.171 245.655 C 642.611 244.243, 639.676 244, 624.171 244 C 607.333 244, 605.853 244.147, 604 246 M 345.557 248.223 C 344.337 249.964, 344 253.328, 344 263.768 C 344 276.683, 344.077 277.168, 346.526 279.617 C 349.035 282.126, 349.154 282.141, 363.993 281.822 C 383.550 281.401, 382.500 282.447, 382.500 263.384 C 382.500 250.140, 382.326 248.712, 380.559 247.419 C 379.077 246.336, 374.892 246, 362.866 246 C 347.721 246, 347.053 246.086, 345.557 248.223 M 399.557 248.223 C 398.337 249.964, 398 253.328, 398 263.768 C 398 276.683, 398.077 277.168, 400.526 279.617 C 403.035 282.126, 403.154 282.141, 417.993 281.822 C 437.526 281.401, 436.500 282.411, 436.500 263.618 C 436.500 252.959, 436.150 248.885, 435.128 247.654 C 433.954 246.239, 431.396 246, 417.434 246 C 401.702 246, 401.057 246.080, 399.557 248.223 M 492.212 265.250 L 492.500 274.500 502 274.500 L 511.500 274.500 511.788 265.250 L 512.075 256 502 256 L 491.925 256 492.212 265.250 M 553.212 265.250 L 553.500 274.500 563 274.500 L 572.500 274.500 572.788 265.250 L 573.075 256 563 256 L 552.925 256 553.212 265.250 M 614.212 265.250 L 614.500 274.500 624.250 274.786 L 634 275.072 634 265.536 L 634 256 623.962 256 L 613.925 256 614.212 265.250 M 356 263.500 L 356 270 363.500 270 L 371 270 371 263.500 L 371 257 363.500 257 L 356 257 356 263.500 M 410 263.500 L 410 270 417.500 270 L 425 270 425 263.500 L 425 257 417.500 257 L 410 257 410 263.500 M 346.455 293.455 C 344.094 295.815, 344 296.420, 344 309.232 C 344 327.934, 343.008 327, 362.866 327 C 374.879 327, 379.078 326.664, 380.559 325.583 C 382.291 324.318, 382.535 322.654, 382.825 310.112 C 383.147 296.214, 383.122 296.031, 380.621 293.530 C 378.146 291.055, 377.776 291, 363.500 291 C 349.342 291, 348.836 291.073, 346.455 293.455 M 400.455 293.455 C 398.094 295.815, 398 296.420, 398 309.232 C 398 327.946, 396.990 327, 416.984 327 L 432.855 327 434.927 324.365 C 436.781 322.009, 437 320.367, 437 308.820 C 437 296.445, 436.898 295.807, 434.545 293.455 C 432.164 291.073, 431.658 291, 417.500 291 C 403.342 291, 402.836 291.073, 400.455 293.455 M 481.200 299.200 C 480.355 300.045, 480 305.766, 480 318.545 C 480 334.854, 480.185 336.858, 481.829 338.345 C 483.392 339.760, 486.347 340, 502.174 340 C 518.842 340, 520.855 339.817, 522.345 338.171 C 524.752 335.512, 524.824 301.967, 522.429 299.571 C 521.109 298.252, 517.776 298, 501.629 298 C 488.006 298, 482.050 298.350, 481.200 299.200 M 542.571 299.571 C 541.261 300.882, 541 304.092, 541 318.916 C 541 334.865, 541.188 336.860, 542.829 338.345 C 544.392 339.760, 547.347 340, 563.174 340 C 579.842 340, 581.855 339.817, 583.345 338.171 C 585.752 335.512, 585.824 301.967, 583.429 299.571 C 582.111 298.254, 578.810 298, 563 298 C 547.190 298, 543.889 298.254, 542.571 299.571 M 603.655 299.829 C 602.248 301.384, 602 304.278, 602 319.174 C 602 334.873, 602.190 336.862, 603.829 338.345 C 606.493 340.756, 642.028 340.829, 644.429 338.429 C 645.737 337.120, 646 333.933, 646 319.363 C 646 309.216, 645.565 301.056, 644.965 299.934 C 643.996 298.124, 642.687 298, 624.620 298 C 607.183 298, 605.149 298.177, 603.655 299.829 M 355.998 309.250 L 355.995 315.500 363.498 315.171 L 371 314.842 371 308.921 L 371 303 363.500 303 L 356 303 355.998 309.250 M 409.998 309.250 L 409.995 315.500 417.498 315.171 L 425 314.842 425 308.921 L 425 303 417.500 303 L 410 303 409.998 309.250 M 492 319 L 492 328 502 328 L 512 328 512 319 L 512 310 502 310 L 492 310 492 319 M 553 319 L 553 328 563 328 L 573 328 573 319 L 573 310 563 310 L 553 310 553 319 M 614 319 L 614 328 624 328 L 634 328 634 319 L 634 310 624 310 L 614 310 614 319 M 345.557 339.223 C 344.341 340.959, 344 344.303, 344 354.500 C 344 372.948, 342.948 372, 363.434 372 C 377.396 372, 379.954 371.761, 381.128 370.346 C 382.149 369.116, 382.500 365.059, 382.500 354.500 C 382.500 343.941, 382.149 339.884, 381.128 338.654 C 379.954 337.239, 377.396 337, 363.434 337 C 347.702 337, 347.057 337.080, 345.557 339.223 M 399.557 339.223 C 398.341 340.959, 398 344.303, 398 354.500 C 398 372.948, 396.948 372, 417.434 372 C 431.396 372, 433.954 371.761, 435.128 370.346 C 436.149 369.116, 436.500 365.059, 436.500 354.500 C 436.500 343.941, 436.149 339.884, 435.128 338.654 C 433.954 337.239, 431.396 337, 417.434 337 C 401.702 337, 401.057 337.080, 399.557 339.223 M 356 354.500 L 356 361 363.500 361 L 371 361 371 354.500 L 371 348 363.500 348 L 356 348 356 354.500 M 410 354.500 L 410 361 417.500 361 L 425 361 425 354.500 L 425 348 417.500 348 L 410 348 410 354.500 M 481.655 352.829 C 480.244 354.388, 480 357.315, 480 372.706 C 480 388.259, 480.228 390.945, 481.650 392.128 C 482.864 393.137, 487.670 393.585, 499.806 393.819 C 508.884 393.995, 517.335 393.882, 518.586 393.568 C 523.709 392.282, 524 391.145, 524 372.429 C 524 349.339, 525.732 351, 501.655 351 C 485.153 351, 483.144 351.184, 481.655 352.829 M 543.223 352.557 C 541.063 354.070, 541 354.632, 541 372.534 C 541 395.992, 539.110 394.244, 564.005 393.814 C 580.624 393.527, 582.285 393.335, 583.583 391.559 C 584.680 390.056, 585 385.606, 585 371.866 C 585 354.655, 584.932 354.066, 582.777 352.557 C 580.971 351.291, 577.270 351, 563 351 C 548.730 351, 545.029 351.291, 543.223 352.557 M 604 353 C 602.153 354.847, 602 356.333, 602 372.429 C 602 391.145, 602.291 392.282, 607.414 393.568 C 608.665 393.882, 617.116 393.995, 626.194 393.819 C 638.330 393.585, 643.136 393.137, 644.350 392.128 C 645.773 390.944, 646 388.247, 646 372.533 C 646 356.149, 645.815 354.143, 644.171 352.655 C 642.611 351.243, 639.676 351, 624.171 351 C 607.333 351, 605.853 351.147, 604 353 M 492 372.536 L 492 382.072 501.750 381.786 L 511.500 381.500 511.788 372.250 L 512.075 363 502.038 363 L 492 363 492 372.536 M 553 372.536 L 553 382.072 562.750 381.786 L 572.500 381.500 572.788 372.250 L 573.075 363 563.038 363 L 553 363 553 372.536 M 614.212 372.250 L 614.500 381.500 624.250 381.786 L 634 382.072 634 372.536 L 634 363 623.962 363 L 613.925 363 614.212 372.250 M 346.573 383.570 C 344.161 385.982, 343.806 388.773, 344.166 402.484 C 344.460 413.659, 344.731 415.334, 346.441 416.583 C 347.915 417.659, 352.050 418, 363.619 418 L 378.855 418 380.927 415.365 C 382.778 413.013, 383 411.365, 383 400 C 383 388.635, 382.778 386.987, 380.927 384.635 L 378.855 382 363.499 382 C 350.878 382, 347.863 382.280, 346.573 383.570 M 400.441 383.419 C 398.667 384.716, 398.500 386.146, 398.500 400 C 398.500 413.854, 398.667 415.284, 400.441 416.581 C 401.911 417.656, 405.986 418, 417.237 418 C 431.675 418, 432.160 417.931, 434.545 415.545 C 436.892 413.199, 437 412.536, 437 400.480 C 437 388.379, 436.264 384.544, 433.600 382.765 C 432.995 382.361, 425.724 382.024, 417.441 382.015 C 405.995 382.004, 401.917 382.341, 400.441 383.419 M 356 400 L 356 406 363.500 406 L 371 406 371 400 L 371 394 363.500 394 L 356 394 356 400 M 410 400 L 410 406 417.500 406 L 425 406 425 400 L 425 394 417.500 394 L 410 394 410 400 M 542 450.500 L 542 481 563 481 L 584 481 584 450.500 L 584 420 563 420 L 542 420 542 450.500 M 345.557 430.223 C 344.341 431.959, 344 435.303, 344 445.500 C 344 463.893, 343.037 463, 362.866 463 C 374.892 463, 379.077 462.664, 380.559 461.581 C 382.325 460.289, 382.500 458.861, 382.500 445.734 C 382.500 434.976, 382.151 430.887, 381.128 429.654 C 379.954 428.239, 377.396 428, 363.434 428 C 347.702 428, 347.057 428.080, 345.557 430.223 M 399.557 430.223 C 398.341 431.959, 398 435.303, 398 445.500 C 398 463.893, 397.037 463, 416.866 463 C 428.892 463, 433.077 462.664, 434.559 461.581 C 436.325 460.289, 436.500 458.861, 436.500 445.734 C 436.500 434.976, 436.151 430.887, 435.128 429.654 C 433.954 428.239, 431.396 428, 417.434 428 C 401.702 428, 401.057 428.080, 399.557 430.223 M 356 445.500 L 356 452 363.500 452 L 371 452 371 445.500 L 371 439 363.500 439 L 356 439 356 445.500 M 410 445.500 L 410 452 417.500 452 L 425 452 425 445.500 L 425 439 417.500 439 L 410 439 410 445.500" stroke="none" fill="#ffffff" fill-rule="evenodd"/>
</svg>