<svg xmlns="http://www.w3.org/2000/svg" width="1000" height="563" viewBox="0 0 1000 563" version="1.1">
	<path d="M 318.754 32.025 C 298.313 35.506, 276.126 49.616, 264.748 66.370 C 259.014 74.814, 253.488 87.240, 251.348 96.500 C 249.588 104.121, 249.500 112.888, 249.500 281.500 C 249.500 450.192, 249.587 458.870, 251.350 466.391 C 258.572 497.203, 280.529 520.514, 310.500 529.185 L 318.500 531.500 500.500 531.500 L 682.500 531.500 690 529.134 C 719.716 519.761, 740.400 498.392, 748.244 468.964 L 750.500 460.500 750.500 283 C 750.500 91.802, 750.701 99.504, 745.325 85 C 738.471 66.512, 722.405 48.699, 704.500 39.736 C 701.750 38.359, 695.675 35.943, 691 34.367 L 682.500 31.500 503 31.358 C 404.275 31.280, 321.364 31.580, 318.754 32.025 M 616.859 94.511 C 602.695 97.332, 587.133 107.747, 579.931 119.225 C 578.110 122.126, 576.489 124.680, 576.328 124.899 C 576.166 125.119, 571.864 123.658, 566.767 121.652 C 528.376 106.545, 492.093 104.252, 454.015 114.528 C 415.924 124.806, 382.433 148.282, 358.447 181.517 C 350.145 193.019, 339.113 215.344, 334.623 229.729 C 328.658 248.837, 326.721 263.379, 327.261 285 C 327.747 304.475, 329.126 314.284, 333.521 329.513 C 335.599 336.712, 340.548 350.022, 343.573 356.549 C 343.841 357.126, 342.145 358.674, 339.805 359.989 C 333.034 363.795, 322.916 374.667, 318.768 382.592 C 313.879 391.935, 312 399.544, 312 410 C 312 433.335, 324.119 453.106, 344.787 463.487 C 367.556 474.923, 394.526 470.556, 412.500 452.523 C 416.350 448.660, 420.390 443.813, 421.477 441.750 C 422.565 439.687, 423.840 438, 424.310 438 C 424.780 438, 428.165 439.312, 431.832 440.915 C 465.556 455.658, 505.028 458.700, 542.183 449.418 C 607.122 433.196, 656.120 381.664, 670.051 314.938 C 673.182 299.942, 673.842 274.214, 671.519 257.764 C 669.537 243.735, 664.790 226.333, 659.600 214.068 C 657.637 209.430, 656.137 205.553, 656.266 205.452 C 656.395 205.351, 658.525 204.013, 661 202.479 C 672.841 195.137, 682.879 180.843, 686.616 166 C 688.785 157.388, 688.021 142.031, 684.990 133.277 C 680.081 119.103, 669.094 106.608, 655.760 100.035 C 642.347 93.424, 630.652 91.763, 616.859 94.511 M 612.887 105.377 C 599.812 109.992, 590.357 118.374, 584.040 130.948 C 569.270 160.347, 588.140 196.324, 621.335 202.055 C 641.573 205.549, 663.617 194.402, 673.019 175.920 C 685.098 152.174, 677.765 124.793, 655.500 110.506 C 643.283 102.666, 626.342 100.627, 612.887 105.377 M 472.500 120.027 C 428.254 128.029, 388.835 153.429, 364.073 189.892 C 342.888 221.089, 333.090 260.421, 337.089 298.211 C 338.880 315.132, 345.440 339.100, 351.564 351.091 L 352.887 353.683 359.694 352.249 C 368.779 350.335, 380.525 351.100, 389.750 354.206 L 397 356.647 397 352.007 C 397 338.271, 403.271 322.920, 412.786 313.365 C 424.254 301.847, 435.439 297.354, 455.234 296.313 L 466.969 295.696 469.080 291.334 C 470.242 288.935, 471.431 284.337, 471.723 281.117 C 472.238 275.436, 472.131 275.107, 468.123 270.036 C 455.923 254.602, 445.050 224.456, 445.013 205.960 C 444.988 193.279, 449.627 181.469, 457.871 173.225 C 463.990 167.105, 469.525 163.833, 479.610 160.373 C 486.324 158.069, 489.214 157.656, 499 157.601 C 506.898 157.557, 512.443 158.069, 516.705 159.236 C 542.407 166.275, 556.324 184.712, 554.648 209.500 C 553.322 229.119, 543.390 255.471, 531.793 270.142 C 527.877 275.096, 527.763 275.452, 528.277 281.117 C 528.569 284.337, 529.758 288.935, 530.920 291.334 L 533.031 295.696 544.766 296.313 C 551.325 296.658, 559.460 297.764, 563.213 298.820 C 580.037 303.558, 594.547 317.730, 600.183 334.928 C 602.148 340.922, 602.375 344.164, 602.767 371.813 C 603.162 399.661, 603.054 402.283, 601.443 404.063 C 599.735 405.950, 597.509 406, 514.967 406 L 430.245 406 429.681 414.750 C 429.372 419.563, 428.829 424.660, 428.475 426.079 C 427.877 428.479, 428.305 428.868, 434.666 431.709 C 443.574 435.688, 455.456 439.404, 468.227 442.207 C 477.204 444.178, 481.276 444.457, 500.500 444.420 C 519.351 444.385, 523.909 444.066, 532.340 442.193 C 592.956 428.733, 640.609 384.790, 657.344 326.925 C 667.924 290.342, 665.144 249.932, 649.638 214.903 L 647.160 209.306 640.830 210.632 C 610.042 217.082, 579.510 197.838, 571.473 166.915 C 570.213 162.070, 569.932 157.931, 570.324 150 C 570.609 144.225, 571.140 138.341, 571.505 136.924 C 572.114 134.551, 571.707 134.142, 566.333 131.735 C 557.480 127.768, 543.632 123.365, 532.500 120.976 C 517.558 117.770, 487.601 117.296, 472.500 120.027 M 618.781 122.879 C 611.942 125.639, 606.290 130.516, 602.834 136.640 C 600.138 141.417, 599.452 142, 596.527 142 C 590.133 142, 589.259 147.877, 595.487 149 C 597.763 149.410, 598.305 150.073, 598.509 152.696 C 598.735 155.585, 598.469 155.920, 595.730 156.196 C 589.262 156.846, 589.982 163, 596.527 163 C 599.451 163, 600.138 163.583, 602.825 168.344 C 606.112 174.168, 610.006 177.887, 616.384 181.295 C 622.017 184.305, 637.665 184.490, 643 181.610 C 648.350 178.722, 649.531 175.890, 646.143 174.077 C 644.789 173.352, 642.829 173.640, 638.893 175.145 C 629.056 178.905, 618.680 176.113, 611.543 167.784 L 607.872 163.500 616.421 163.211 C 623.816 162.962, 625.118 162.649, 626.055 160.897 C 628.096 157.083, 625.736 156, 615.378 156 L 606 156 606 152.500 L 606 149 615.378 149 C 625.772 149, 628.099 147.922, 626.034 144.064 C 625.051 142.227, 623.994 142, 616.430 142 C 606.848 142, 606.621 141.541, 613.083 135.223 C 620.152 128.312, 630.974 126.126, 639.485 129.890 C 645.173 132.407, 644.503 132.355, 646.429 130.429 C 648.968 127.890, 648.272 126.181, 643.750 123.848 C 637.725 120.739, 625.280 120.256, 618.781 122.879 M 484.500 168.890 C 465.825 174.329, 456.086 185.524, 455.191 202.583 C 454.951 207.148, 455.082 213.047, 455.482 215.691 L 456.209 220.500 458.650 212 C 461.285 202.820, 466.142 191.605, 468.712 188.766 C 471.200 186.016, 473.838 186.656, 477.686 190.943 C 483.466 197.382, 488.834 199.421, 500 199.421 C 511.166 199.421, 516.534 197.382, 522.314 190.943 C 526.162 186.656, 528.800 186.016, 531.288 188.766 C 533.858 191.605, 538.715 202.820, 541.350 212 L 543.791 220.500 544.518 215.691 C 545.890 206.615, 544.643 194.834, 541.666 188.750 C 536.949 179.108, 527.191 171.918, 514.284 168.574 C 506.273 166.498, 492.201 166.647, 484.500 168.890 M 472.147 201.792 C 469.134 207.649, 463 232.591, 463 238.986 C 463 245.673, 473.969 264.383, 481.515 270.566 C 499.531 285.329, 519.332 277.548, 532.940 250.359 C 535.173 245.898, 537 240.892, 537 239.234 C 537 232.621, 530.929 207.771, 527.852 201.790 C 527.046 200.223, 526.672 200.283, 523.411 202.496 C 510.377 211.341, 490.194 211.521, 477.263 202.907 C 473.424 200.351, 472.942 200.245, 472.147 201.792 M 480.534 286.625 C 480.177 289.001, 478.652 293.390, 477.144 296.379 L 474.403 301.814 486.755 317.157 C 493.549 325.596, 499.490 332.500, 499.957 332.500 C 500.424 332.500, 506.386 325.599, 513.205 317.165 L 525.605 301.829 522.859 296.387 C 521.350 293.394, 519.823 289.001, 519.466 286.625 L 518.819 282.306 512.659 284.829 C 508.248 286.635, 504.655 287.352, 500 287.352 C 495.345 287.352, 491.752 286.635, 487.341 284.829 L 481.181 282.306 480.534 286.625 M 441.698 307.096 C 435.338 308.592, 427.383 312.850, 422.139 317.565 C 411.609 327.033, 407 337.940, 407 353.393 L 407 362.576 413.321 369.054 C 419.589 375.478, 428 389.838, 428 394.116 C 428 395.920, 429.293 396, 458.586 396 L 489.172 396 479.770 385.250 C 474.599 379.337, 466.236 369.775, 461.186 364 C 456.137 358.225, 452.004 352.737, 452.003 351.805 C 452.001 350.873, 453.603 346.598, 455.563 342.305 C 459.599 333.464, 460.087 334.778, 450.500 328.668 C 447.480 326.743, 445.379 324.634, 445.194 323.343 C 445.025 322.166, 446.263 318.171, 447.944 314.464 C 449.625 310.756, 451 307.336, 451 306.862 C 451 305.798, 446.758 305.905, 441.698 307.096 M 459.018 312.621 C 457.334 316.334, 456.111 319.832, 456.298 320.395 C 456.486 320.959, 459.267 323.025, 462.478 324.986 C 465.688 326.948, 468.771 329.275, 469.327 330.156 C 470.083 331.355, 469.316 334.167, 466.290 341.297 L 462.241 350.835 480.686 371.918 C 490.830 383.513, 499.506 393, 499.964 393 C 500.423 393, 509.113 383.521, 519.276 371.935 L 537.754 350.869 533.806 341.923 C 531.634 337.002, 530.008 332.197, 530.192 331.243 C 530.375 330.290, 533.445 327.588, 537.013 325.238 C 541.257 322.443, 543.433 320.367, 543.306 319.233 C 543.199 318.280, 541.954 314.882, 540.539 311.683 C 538.500 307.074, 537.552 305.931, 535.974 306.183 C 534.794 306.371, 527.564 314.439, 518.217 326 C 505.488 341.744, 501.979 345.500, 500 345.500 C 498.021 345.500, 494.512 341.744, 481.783 326 C 472.562 314.595, 465.200 306.369, 464.048 306.186 C 462.478 305.935, 461.457 307.240, 459.018 312.621 M 549 306.778 C 549 307.348, 550.350 310.822, 552 314.500 C 553.650 318.178, 555 322.054, 555 323.113 C 555 324.401, 552.678 326.542, 548 329.569 C 544.150 332.059, 541 334.275, 541 334.493 C 541 334.711, 542.575 338.345, 544.500 342.569 C 546.425 346.794, 547.999 350.981, 547.997 351.875 C 547.996 352.769, 543.863 358.225, 538.814 364 C 533.764 369.775, 525.401 379.337, 520.230 385.250 L 510.828 396 551.914 396 L 593 396 593 370.710 C 593 351.080, 592.653 344.086, 591.448 339.460 C 587.904 325.850, 577.595 314.359, 564.190 309.075 C 558.069 306.662, 549 305.291, 549 306.778 M 363 360.956 C 343.079 364.642, 327.674 379.031, 322.574 398.716 C 316.086 423.751, 331.788 451.030, 356.932 458.407 C 363.982 460.475, 378.018 460.475, 385.068 458.407 C 419.851 448.202, 432.413 405.252, 408.721 377.536 C 398.281 365.322, 378.389 358.108, 363 360.956 M 367.217 379.210 C 357.599 380.636, 348.491 387.197, 344.052 395.897 C 342.297 399.339, 341.512 399.920, 338.261 400.189 C 334.818 400.474, 334.500 400.754, 334.500 403.500 C 334.500 406.154, 334.875 406.536, 337.750 406.813 C 340.712 407.099, 341 407.425, 341 410.500 C 341 413.575, 340.712 413.901, 337.750 414.187 C 334.875 414.464, 334.500 414.846, 334.500 417.500 C 334.500 420.246, 334.818 420.526, 338.261 420.811 C 341.466 421.076, 342.303 421.674, 343.930 424.862 C 346.605 430.107, 353.176 436.388, 358.764 439.043 C 365.785 442.379, 375.917 442.795, 383.199 440.046 C 389.169 437.792, 391.186 435.134, 388.960 432.452 C 387.438 430.617, 385.957 430.622, 382.391 432.472 C 374.138 436.754, 362.887 434.733, 355.483 427.639 C 353.018 425.276, 351 422.816, 351 422.171 C 351 421.383, 353.390 421, 358.309 421 C 366.676 421, 369.643 419.602, 368.555 416.174 C 367.923 414.183, 367.157 413.989, 359.433 413.875 C 354.795 413.806, 350.438 413.694, 349.750 413.625 C 349.063 413.556, 348.359 412.038, 348.187 410.250 L 347.873 407 357.314 407 C 364.708 407, 367.040 406.657, 368.070 405.416 C 369.021 404.269, 369.095 403.373, 368.337 402.166 C 367.527 400.878, 365.441 400.434, 359.145 400.210 C 349.673 399.872, 349.198 399.162, 354.669 393.529 C 361.836 386.149, 371.897 384.069, 381.950 387.889 C 387.462 389.983, 390.541 389.048, 389.855 385.488 C 389.003 381.059, 377.069 377.750, 367.217 379.210" stroke="none" fill="#ffffff" fill-rule="evenodd"/>
</svg>