<svg xmlns="http://www.w3.org/2000/svg" width="1000" height="826" viewBox="0 0 1000 826" version="1.1">
	<path d="M 450.500 15.694 C 421.034 18.590, 414.448 20.203, 395 29.293 C 373.586 39.301, 351.041 58.815, 338.181 78.473 C 333.134 86.189, 324.004 103.996, 323.994 106.145 C 323.990 106.890, 323.359 108.705, 322.590 110.178 C 321.822 111.651, 319.912 117.726, 318.347 123.678 C 315.581 134.191, 315.502 135.184, 315.585 158.500 C 315.670 182.236, 315.705 182.616, 318.746 193 C 320.438 198.775, 322.568 205.525, 323.479 208 C 326.135 215.215, 333.730 229.786, 338.677 237.159 C 347.982 251.029, 362.862 265.871, 376.020 274.406 C 384.601 279.974, 385.537 280.518, 391.500 283.414 C 394.800 285.017, 398.338 286.740, 399.361 287.242 C 406.595 290.794, 419.476 293.935, 439.500 297.032 C 447.101 298.207, 459.028 298.161, 465.500 296.930 C 468.250 296.407, 474.406 295.337, 479.179 294.552 C 483.953 293.767, 489.218 292.421, 490.880 291.562 C 492.541 290.703, 494.486 289.998, 495.200 289.996 C 495.915 289.994, 499.200 288.646, 502.500 287 C 505.800 285.354, 509.063 284.006, 509.750 284.004 C 510.438 284.002, 511 283.325, 511 282.500 C 511 280.264, 504.138 280.591, 500.500 283 C 498.850 284.093, 496.023 284.990, 494.218 284.993 C 492.413 284.997, 489.263 285.707, 487.218 286.571 C 478.533 290.239, 437.403 290.178, 428 286.483 C 426.075 285.726, 422.925 284.798, 421 284.419 C 417.761 283.783, 415.227 282.796, 404.500 277.998 C 402.300 277.013, 399.825 275.991, 399 275.726 C 396.033 274.773, 380.173 263.869, 377.215 260.750 C 376.302 259.788, 375.157 259, 374.670 259 C 374.183 259, 371.374 256.413, 368.426 253.250 C 365.479 250.088, 362.419 246.825, 361.626 246 C 360.600 244.932, 360.341 243.121, 360.727 239.711 C 361.293 234.710, 362.741 233.950, 364.461 237.753 C 364.989 238.921, 366.226 240.087, 367.211 240.345 C 369.136 240.848, 369.637 243.488, 368 244.500 C 367.450 244.840, 367 246.427, 367 248.028 C 367 250.264, 367.364 250.797, 368.574 250.333 C 369.658 249.917, 369.964 248.992, 369.555 247.364 C 369.078 245.463, 369.357 245, 370.981 245 C 372.091 245, 373 245.470, 373 246.044 C 373 246.919, 377.646 251.607, 386.250 259.412 C 387.213 260.286, 388.446 261, 388.992 261 C 389.537 261, 390.545 261.900, 391.232 263 C 391.919 264.100, 392.960 265, 393.546 265 C 394.132 265, 396.136 266.125, 398 267.500 C 399.864 268.875, 402.201 270, 403.194 270 C 404.187 270, 405.900 270.900, 407 272 C 408.100 273.100, 409.810 274, 410.800 274 C 411.790 274, 413.040 274.440, 413.577 274.977 C 414.840 276.240, 425.755 280, 428.157 280 C 431.139 280, 430.402 275.552, 426.500 270 C 424.575 267.261, 423 264.436, 423 263.722 C 423 263.007, 422.100 260.658, 421 258.500 C 419.900 256.342, 419 253.878, 419 253.024 C 419 252.169, 418.100 249.791, 417 247.739 C 415.900 245.686, 415 243.432, 415 242.728 C 415 242.025, 413.736 238.872, 412.192 235.723 C 409.077 229.371, 404.063 225, 399.891 225 C 397.745 225, 396.524 223.999, 394.097 220.250 C 392.406 217.637, 389.442 213.313, 387.511 210.641 L 384 205.782 384 191.380 C 384 178.813, 383.731 176.406, 381.890 172.489 C 380.729 170.020, 379.476 168, 379.105 168 C 378.735 168, 377.569 166.538, 376.516 164.750 C 374.178 160.784, 373.149 159.471, 370.250 156.750 C 369.012 155.589, 368 154.098, 368 153.436 C 368 152.775, 367.100 151.998, 366 151.710 C 364.900 151.423, 364 150.493, 364 149.645 C 364 147.563, 359.968 143.339, 357.497 142.833 C 356.165 142.560, 355.607 141.770, 355.821 140.462 C 356.622 135.560, 357.113 132.189, 357.595 128.269 C 357.906 125.750, 358.599 124.132, 359.308 124.269 C 360.019 124.407, 360.625 122.985, 360.810 120.750 C 360.985 118.640, 361.653 117, 362.338 117 C 364.581 117, 366.793 113.367, 366.257 110.563 C 365.858 108.477, 366.188 107.764, 367.738 107.358 C 369.360 106.934, 369.852 105.687, 370.377 100.672 C 370.761 96.991, 370.631 94.377, 370.054 94.185 C 369.482 93.994, 369.333 91.243, 369.689 87.431 C 370.206 81.886, 370.063 81, 368.645 81 C 367.432 81, 367 80.081, 367 77.500 C 367 74.433, 366.690 74, 364.500 74 C 363.125 74, 361.970 74.563, 361.932 75.250 C 361.895 75.938, 361.398 75.535, 360.827 74.356 C 360.011 72.670, 360.186 71.772, 361.644 70.156 C 367.588 63.571, 375.645 56.249, 379.906 53.559 C 382.158 52.138, 384 50.603, 384 50.148 C 384 49.693, 385.012 48.790, 386.250 48.141 C 387.488 47.491, 390.300 45.884, 392.500 44.569 C 396.713 42.050, 405.141 37.827, 413.485 34.053 C 418.284 31.882, 418.508 31.867, 419.485 33.649 C 421.563 37.438, 429.809 44.749, 432.607 45.283 C 434.198 45.586, 437.673 46.612, 440.330 47.562 C 445.672 49.473, 447 51.562, 447 58.057 C 447 61.224, 446.385 62.518, 443.823 64.742 C 438.109 69.702, 437 70.978, 437 72.596 C 437 75.571, 433.008 80, 430.326 80 C 428.931 80, 426.374 81.144, 424.644 82.542 C 422.915 83.941, 420.460 85.853, 419.189 86.792 C 416.789 88.566, 410.946 93.516, 399.936 103.104 C 385.032 116.083, 386.483 115.135, 383.352 113.936 C 379.166 112.334, 370.320 113.681, 367.668 116.325 C 366.475 117.514, 365.001 120.289, 364.391 122.493 C 360.487 136.597, 360.566 135.007, 363.455 141.215 C 365.839 146.337, 366.499 146.998, 369.808 147.578 C 375.698 148.609, 378 150.539, 378 154.446 C 378 157.493, 378.388 157.970, 381.750 159.049 C 383.813 159.711, 386.175 160.795, 387 161.459 C 389.427 163.409, 398.838 168, 400.410 168 C 401.206 168, 402.452 168.574, 403.179 169.275 C 403.905 169.976, 418.696 177.635, 436.046 186.294 C 471.929 204.204, 472.540 204.679, 469.587 212.411 C 468.695 214.748, 466.848 218.173, 465.482 220.024 C 463.730 222.399, 463 224.675, 463 227.764 C 463 232.912, 458.626 240.108, 454.061 242.468 C 452.497 243.277, 450.814 245.190, 450.322 246.720 C 449.830 248.249, 449.669 256.797, 449.964 265.716 C 450.638 286.116, 450.225 285.529, 463.767 285.292 C 469.120 285.198, 476.425 284.426, 480 283.575 C 483.575 282.725, 487.867 282.023, 489.539 282.015 C 491.210 282.007, 494.360 281.089, 496.539 279.976 C 498.717 278.862, 502.300 277.684, 504.500 277.357 C 506.700 277.030, 508.950 276.253, 509.500 275.631 C 510.050 275.009, 512.027 273.799, 513.893 272.943 L 517.285 271.386 521.945 275.943 C 524.507 278.449, 529.281 284.544, 532.552 289.487 C 535.823 294.429, 538.950 299.004, 539.500 299.653 C 540.050 300.302, 541.850 303.112, 543.500 305.897 C 548.302 314.004, 549.658 312.780, 552.490 297.782 C 553.350 293.227, 554.912 285.675, 555.960 281 C 557.008 276.325, 558.109 270.700, 558.407 268.500 C 558.704 266.300, 559.642 262.025, 560.490 259 C 562.138 253.127, 561.685 248, 559.520 248 C 558.793 248, 557.808 249.653, 557.330 251.673 C 556.197 256.465, 554.583 256.875, 552.588 252.876 C 551.066 249.825, 551.088 249.536, 552.990 247.511 C 554.095 246.334, 555 244.580, 555 243.612 C 555 241.083, 551.817 241.983, 550.349 244.928 C 549.688 246.254, 548.439 247.735, 547.573 248.219 C 545.326 249.476, 545.630 250.808, 548.250 251.180 C 550.001 251.429, 550.509 252.166, 550.541 254.500 C 550.563 256.150, 550.952 258.295, 551.404 259.267 C 551.857 260.238, 551.960 262.038, 551.635 263.267 C 551.309 264.495, 550.106 269.775, 548.962 275 C 547.818 280.225, 546.488 284.897, 546.008 285.383 C 544.241 287.168, 542.403 285.075, 539.734 278.243 C 536.685 270.438, 536.472 268.928, 538.176 267.224 C 539.078 266.322, 538.940 265.591, 537.585 264.094 C 535.874 262.204, 535.965 262, 540.409 257.742 C 544.430 253.889, 546.162 251, 544.450 251 C 543.150 251, 538 254.128, 538 254.919 C 538 257.837, 530.419 256.390, 529.339 253.265 C 528.531 250.926, 519.092 229.188, 517.501 226 C 516.814 224.625, 515.021 220.575, 513.516 217 C 510.609 210.098, 508.220 204.664, 505.053 197.750 C 499.355 185.309, 497.999 181.961, 497.993 180.312 C 497.990 179.315, 497.093 177.150, 496 175.500 C 494.907 173.850, 494.010 171.583, 494.007 170.461 C 494.003 169.340, 493.135 166.726, 492.078 164.653 C 491.021 162.580, 489.839 159.007, 489.452 156.713 C 489.064 154.420, 488.152 151.634, 487.424 150.522 C 486.696 149.410, 485.792 146.475, 485.413 144 C 485.035 141.525, 484.232 138.600, 483.629 137.500 C 483.026 136.400, 481.994 133.250, 481.337 130.500 C 479.309 122.017, 479.929 121.640, 498.379 120.137 C 506.958 119.438, 515.446 118.425, 517.239 117.886 C 519.033 117.347, 523.875 116.250, 528 115.450 C 534.662 114.158, 543.431 111.842, 556.745 107.859 C 559.729 106.967, 561.304 106.904, 562.047 107.647 C 563.164 108.764, 561.916 131.726, 559.991 145.500 C 559.453 149.350, 558.552 162.400, 557.989 174.500 C 557.426 186.600, 556.247 202.800, 555.369 210.500 C 553.906 223.346, 554.015 238.348, 555.583 239.917 C 555.902 240.236, 556.788 239.643, 557.551 238.600 C 558.531 237.259, 558.771 235.060, 558.369 231.101 C 557.963 227.098, 558.287 224.216, 559.506 221 C 560.443 218.525, 561.816 212.225, 562.557 207 C 563.297 201.775, 564.584 193.900, 565.417 189.500 C 566.249 185.100, 566.946 179.871, 566.965 177.881 C 566.984 175.891, 567.654 170.491, 568.453 165.881 C 569.847 157.838, 571.399 144.263, 574.501 113 C 575.292 105.025, 575.968 94, 576.002 88.500 C 576.037 83, 576.513 75.350, 577.060 71.500 C 577.608 67.650, 578.402 60.955, 578.825 56.623 C 579.454 50.184, 580.010 48.410, 581.869 46.905 C 584.616 44.681, 590.773 43.373, 592.127 44.727 C 593.186 45.786, 591.916 55.273, 589.389 65.169 C 588.593 68.286, 587.550 73.686, 587.071 77.169 C 585.334 89.801, 581.930 112.693, 580.553 121 C 579.778 125.675, 578.847 132.200, 578.484 135.500 C 578.121 138.800, 577.226 144.200, 576.494 147.500 C 575.763 150.800, 574.852 156.425, 574.470 160 C 574.087 163.575, 572.935 170.325, 571.909 175 C 570.883 179.675, 570.031 185.975, 570.015 189 C 570 192.025, 569.359 195.706, 568.590 197.179 C 567.271 199.706, 566.612 206.709, 566.881 215.333 C 567.080 221.728, 569.408 219.160, 570.251 211.616 C 570.664 207.920, 571.659 203.626, 572.462 202.074 C 573.265 200.521, 574.413 196.175, 575.014 192.414 C 575.614 188.654, 576.501 185.101, 576.984 184.519 C 577.468 183.936, 578.555 179.869, 579.401 175.480 C 580.246 171.091, 581.646 164.125, 582.511 160 C 587.815 134.708, 589.594 125.794, 591.488 115 C 594.626 97.122, 596.174 91.570, 598.806 88.750 C 600.219 87.237, 601.821 86, 602.367 86 C 604.019 86, 620.062 74.736, 622.100 72.146 C 624.411 69.207, 624.490 67.633, 622.429 65.571 C 620.327 63.470, 615.820 63.582, 612.885 65.809 C 608.534 69.110, 602.860 72.031, 601.923 71.453 C 600.570 70.616, 600.794 65.185, 602.504 57.373 C 604.879 46.521, 605.839 33.162, 604.386 31.176 C 603.243 29.612, 602.740 29.621, 596.831 31.313 C 593.349 32.309, 588.025 33.730, 585 34.470 C 574.999 36.917, 571.546 38.531, 570.820 41.097 C 570.049 43.825, 568.208 61.172, 566.958 77.500 C 566.494 83.550, 566.089 88.545, 566.058 88.600 C 566.026 88.655, 563.188 89.824, 559.750 91.199 C 548.047 95.878, 527.870 101.600, 518.274 102.961 C 514.404 103.510, 509.947 104.460, 508.369 105.072 C 505.445 106.205, 469.277 109.943, 460.872 109.980 C 455.441 110.004, 453.279 111.784, 454.931 114.870 C 455.519 115.969, 456.003 117.686, 456.006 118.684 C 456.010 119.683, 456.711 121.841, 457.566 123.480 C 458.420 125.118, 459.597 128.718, 460.181 131.480 C 460.765 134.241, 461.803 137.625, 462.488 139 C 463.173 140.375, 464.058 143.300, 464.456 145.500 C 464.854 147.700, 465.624 150.038, 466.167 150.696 C 466.711 151.354, 467.767 154.279, 468.515 157.196 C 470.071 163.266, 473.429 173.028, 475.553 177.651 C 476.349 179.384, 477.003 181.409, 477.006 182.151 C 477.010 182.893, 477.635 184.694, 478.397 186.153 C 479.158 187.613, 480.347 190.538, 481.038 192.653 C 481.729 194.769, 483.128 198.068, 484.147 199.985 C 485.166 201.902, 486 204.083, 486 204.831 C 486 205.579, 486.631 207.386, 487.402 208.846 C 488.173 210.306, 490.966 216, 493.608 221.500 C 496.250 227, 502.369 238.579, 507.206 247.232 C 512.418 256.555, 515.995 264.091, 515.987 265.732 C 515.975 268.169, 515.348 268.716, 510.737 270.311 C 507.856 271.306, 502.800 272.693, 499.499 273.392 C 496.199 274.091, 492.599 275.135, 491.499 275.713 C 490.400 276.290, 483.425 277.057, 476 277.416 C 457.162 278.327, 457.413 278.499, 457.794 264.950 C 458.091 254.373, 459.347 248, 461.134 248 C 464.092 248, 472 235.512, 472 230.841 C 472 228.653, 473.963 224.253, 477.504 218.500 C 482.145 210.962, 480.346 200.497, 473.417 194.720 C 470.581 192.355, 460.173 186.332, 449 180.590 C 445.975 179.035, 439.557 175.678, 434.737 173.131 C 429.917 170.584, 418.502 164.675, 409.371 160 C 397.654 154.002, 391.992 150.518, 390.134 148.164 C 385.647 142.481, 379.691 137.100, 377.548 136.793 C 375.200 136.457, 374.173 132.417, 375.982 130.635 C 376.844 129.785, 377.867 130.317, 380.053 132.750 C 383.741 136.856, 388.980 137.206, 393.433 133.643 C 395.988 131.599, 396.456 130.410, 397.066 124.398 L 397.767 117.500 411.633 104.200 C 424.868 91.507, 432.052 86, 435.377 86 C 437.615 86, 442.990 79.854, 442.995 77.289 C 442.998 76.061, 444.695 73.392, 446.811 71.289 C 455.407 62.744, 456.269 52.786, 449.014 45.842 C 446.447 43.385, 439.918 40.263, 435.691 39.470 C 433.175 38.998, 431.278 37.795, 429.819 35.746 C 427.814 32.931, 427.782 32.632, 429.361 31.478 C 433.167 28.695, 449.131 26.500, 465.500 26.508 C 482.781 26.517, 492.995 28.295, 506.977 33.728 C 513.536 36.277, 527.706 43.447, 529.450 45.100 C 530.696 46.280, 536 46.266, 536 45.082 C 536 41.927, 534.746 40.826, 522.500 33.237 C 516.197 29.330, 500.367 22.938, 490 20.113 C 480.326 17.477, 457.893 14.968, 450.500 15.694 M 355.909 77.750 C 355.336 79.263, 353.963 81.465, 352.858 82.645 C 351.557 84.034, 351.228 85.023, 351.925 85.454 C 353.344 86.331, 355 85.247, 355 83.441 C 355 82.648, 355.603 82, 356.339 82 C 357.601 82, 360 78.037, 360 75.953 C 360 73.820, 356.878 75.191, 355.909 77.750 M 347.362 89.500 C 346.593 91.503, 347.727 94.287, 348.993 93.504 C 350.318 92.685, 350.297 88, 348.969 88 C 348.401 88, 347.678 88.675, 347.362 89.500 M 343.426 97.333 C 343.074 98.250, 343.104 99.787, 343.493 100.750 C 344.110 102.277, 344.319 102.192, 345.131 100.080 C 345.724 98.536, 345.700 97.300, 345.063 96.663 C 344.400 96, 343.851 96.224, 343.426 97.333 M 339.583 105.866 C 339.152 106.563, 339.070 107.403, 339.400 107.733 C 340.295 108.628, 341.271 107.312, 340.787 105.862 C 340.449 104.846, 340.213 104.846, 339.583 105.866 M 461.441 117.095 C 461.069 117.697, 461.717 119.479, 462.882 121.055 C 464.047 122.630, 465 124.851, 465 125.990 C 465 127.128, 466.125 130.733, 467.500 134 C 468.875 137.267, 470 140.617, 470 141.446 C 470 142.274, 470.898 144.425, 471.996 146.226 C 473.094 148.027, 473.997 150.400, 474.003 151.500 C 474.009 152.600, 474.907 154.850, 476 156.500 C 477.093 158.150, 477.993 160.400, 478 161.500 C 478.007 162.600, 478.907 164.850, 480 166.500 C 481.093 168.150, 481.990 170.119, 481.993 170.875 C 482.001 172.368, 485.087 179.768, 491.142 192.808 C 493.264 197.378, 495 201.710, 495 202.436 C 495 203.161, 495.646 204.291, 496.436 204.947 C 497.225 205.602, 498.154 207.426, 498.500 209 C 498.846 210.574, 499.775 212.398, 500.564 213.053 C 502.713 214.837, 502.457 209.997, 500.096 204.185 C 498.190 199.493, 495.924 192.996, 493.581 185.500 C 492.893 183.300, 491.581 179.827, 490.665 177.782 C 489.749 175.737, 489 173.357, 489 172.492 C 489 171.628, 488.164 169.251, 487.143 167.210 C 486.121 165.170, 485.015 161.757, 484.685 159.626 C 484.355 157.495, 483.448 155.020, 482.669 154.126 C 481.891 153.232, 480.967 150.900, 480.618 148.944 C 480.268 146.988, 479.086 143.630, 477.991 141.482 C 476.896 139.335, 476 136.488, 476 135.157 C 476 133.825, 475.082 131.251, 473.961 129.437 C 472.840 127.622, 471.652 123.857, 471.322 121.069 L 470.721 116 466.420 116 C 464.054 116, 461.813 116.493, 461.441 117.095 M 335.079 121.583 C 335.127 122.748, 335.364 122.985, 335.683 122.188 C 335.972 121.466, 335.936 120.603, 335.604 120.271 C 335.272 119.939, 335.036 120.529, 335.079 121.583 M 331.272 137 C 331.272 139.475, 331.467 140.488, 331.706 139.250 C 331.944 138.012, 331.944 135.988, 331.706 134.750 C 331.467 133.512, 331.272 134.525, 331.272 137 M 352.227 135.281 C 352.377 136.811, 352.939 138.082, 353.475 138.106 C 355.106 138.180, 355.113 136.529, 353.491 134.460 C 352.014 132.576, 351.965 132.607, 352.227 135.281 M 345.311 147.631 C 344.170 150.606, 349.005 174.509, 353.275 187 C 363.844 217.917, 376.977 241.997, 390.586 255.411 C 398.762 263.470, 400.486 264.833, 403.434 265.573 C 404.800 265.916, 406.442 266.827, 407.081 267.598 C 408.397 269.183, 413.574 269.498, 414.471 268.047 C 415.073 267.073, 414.718 266.290, 407.126 251.830 C 400.609 239.418, 399.425 238, 395.576 238 C 391.717 238, 387.769 233.980, 377.424 219.520 L 371 210.539 371 193.093 L 371 175.647 366.336 168.573 C 363.771 164.683, 360.538 159.782, 359.153 157.682 C 355.618 152.325, 349.293 146, 347.470 146 C 346.627 146, 345.656 146.734, 345.311 147.631 M 589.615 166.014 C 589.317 167.381, 588.585 171.875, 587.989 176 C 587.392 180.125, 586.259 185.525, 585.470 188 C 580.071 204.932, 578.276 209.958, 576.493 213.143 C 575.679 214.597, 574.661 217.482, 574.230 219.555 C 573.749 221.871, 572.407 224.100, 570.748 225.339 C 568.190 227.248, 567.949 227.264, 566.151 225.637 C 564.344 224.002, 564.225 224.029, 563.641 226.210 C 561.987 232.384, 563.941 236.916, 565.963 231.597 C 567.253 228.203, 568.721 227.610, 569.985 229.972 C 571.453 232.714, 572.830 232.524, 573.596 229.474 C 573.945 228.084, 575.027 226.521, 576 226 C 576.973 225.479, 578.082 223.803, 578.463 222.276 C 578.844 220.749, 579.747 218.825, 580.470 218 C 582.440 215.750, 586.840 204.115, 587.967 198.176 C 588.512 195.300, 589.476 191.980, 590.108 190.799 C 591.688 187.846, 592.560 167.822, 591.213 165.416 C 590.228 163.657, 590.120 163.698, 589.615 166.014 M 622.482 178.106 C 622.101 180.364, 620.936 183.064, 619.894 184.106 C 618.852 185.148, 618 186.743, 618 187.650 C 618 188.558, 616.819 191.820, 615.375 194.900 C 613.931 197.980, 611.943 202.300, 610.957 204.500 C 608.089 210.899, 599.022 229.051, 595.973 234.500 C 594.433 237.250, 592.463 240.850, 591.594 242.500 C 588.551 248.278, 582.484 258.648, 580.750 261.036 C 579.788 262.361, 579 263.836, 579 264.315 C 579 264.793, 578.100 266.329, 577 267.727 C 574.614 270.760, 574.469 272, 576.500 272 C 577.325 272, 578 271.612, 578 271.138 C 578 270.350, 582.070 264.666, 585.259 261 C 585.977 260.175, 587.857 257.475, 589.438 255 C 591.019 252.525, 593.151 249.269, 594.176 247.764 C 595.200 246.260, 596.503 244.010, 597.071 242.764 C 597.638 241.519, 599.173 238.700, 600.480 236.500 C 604.009 230.563, 613.003 212.653, 613.035 211.500 C 613.050 210.950, 614.169 208.250, 615.522 205.500 C 616.875 202.750, 618 199.825, 618.023 199 C 618.045 198.175, 618.692 196.671, 619.459 195.658 C 620.227 194.645, 621.156 191.945, 621.524 189.658 C 621.891 187.371, 622.824 184.503, 623.596 183.285 C 625.155 180.825, 625.517 174, 624.088 174 C 623.586 174, 622.864 175.848, 622.482 178.106 M 331.195 180.500 C 331.215 182.150, 331.439 182.704, 331.693 181.731 C 331.947 180.758, 331.930 179.408, 331.656 178.731 C 331.382 178.054, 331.175 178.850, 331.195 180.500 M 605.388 188.750 C 605.030 190.262, 603.948 192.400, 602.984 193.500 C 602.019 194.600, 600.900 196.625, 600.497 198 C 600.093 199.375, 599.223 201.175, 598.563 202 C 597.902 202.825, 595.819 206.575, 593.934 210.333 C 592.048 214.091, 589.942 217.633, 589.253 218.205 C 588.564 218.777, 588 219.655, 588 220.157 C 588 220.659, 585.937 224.706, 583.415 229.150 C 579.965 235.229, 579.115 237.511, 579.982 238.365 C 580.845 239.214, 581.484 238.996, 582.521 237.500 C 583.284 236.400, 584.545 234.825, 585.324 234 C 586.103 233.175, 587.487 231.150, 588.400 229.500 C 589.314 227.850, 590.835 225.302, 591.780 223.838 C 595.985 217.329, 599.969 209.970, 600.557 207.629 C 600.909 206.228, 601.831 204.555, 602.607 203.911 C 603.383 203.267, 604.295 201.007, 604.634 198.889 C 604.972 196.771, 605.868 194.524, 606.625 193.896 C 608.187 192.600, 608.517 186, 607.019 186 C 606.480 186, 605.745 187.238, 605.388 188.750 M 335 194.559 C 335 196.010, 335.433 196.851, 336 196.500 C 336.550 196.160, 337 195.009, 337 193.941 C 337 192.873, 336.550 192, 336 192 C 335.450 192, 335 193.152, 335 194.559 M 341 194.441 C 341 195.848, 341.450 197, 342 197 C 342.550 197, 343 196.127, 343 195.059 C 343 193.991, 342.550 192.840, 342 192.500 C 341.433 192.149, 341 192.990, 341 194.441 M 345.015 206.250 C 345.007 208.313, 345.450 210, 346 210 C 347.274 210, 347.274 205.971, 346 204 C 345.279 202.884, 345.027 203.461, 345.015 206.250 M 339 208.941 C 339 211.981, 340.408 213.767, 341.461 212.062 C 342.259 210.772, 341.024 206, 339.892 206 C 339.401 206, 339 207.323, 339 208.941 M 344.195 216.500 C 344.215 218.150, 344.439 218.704, 344.693 217.731 C 344.947 216.758, 344.930 215.408, 344.656 214.731 C 344.382 214.054, 344.175 214.850, 344.195 216.500 M 349 219.059 C 349 220.844, 349.417 221.861, 350 221.500 C 350.550 221.160, 351 219.784, 351 218.441 C 351 217.098, 350.550 216, 350 216 C 349.450 216, 349 217.377, 349 219.059 M 503.790 216.543 C 502.975 217.358, 504.058 221, 505.117 221 C 505.602 221, 505.993 220.438, 505.985 219.750 C 505.963 218.012, 504.484 215.849, 503.790 216.543 M 354.079 225.583 C 354.127 226.748, 354.364 226.985, 354.683 226.188 C 354.972 225.466, 354.936 224.603, 354.604 224.271 C 354.272 223.939, 354.036 224.529, 354.079 225.583 M 348 226.500 C 348 227.325, 348.450 228, 349 228 C 349.550 228, 350 227.325, 350 226.500 C 350 225.675, 349.550 225, 349 225 C 348.450 225, 348 225.675, 348 226.500 M 357.473 230.916 C 357.808 231.970, 357.613 233.121, 357.041 233.475 C 355.419 234.477, 355.736 241, 357.406 241 C 358.931 241, 360.689 231.925, 359.528 230.046 C 358.413 228.241, 356.836 228.908, 357.473 230.916 M 351 230.809 C 351 231.254, 351.661 232.491, 352.468 233.559 C 353.874 235.418, 353.938 235.384, 353.968 232.750 C 353.989 230.958, 353.477 230, 352.500 230 C 351.675 230, 351 230.364, 351 230.809 M 562 240.368 C 562 243.342, 563.851 244.836, 565.111 242.878 C 566.406 240.865, 565.736 238.573, 563.739 238.188 C 562.459 237.942, 562 238.518, 562 240.368 M 576.500 241 C 576.160 241.550, 576.359 242, 576.941 242 C 577.523 242, 578 241.550, 578 241 C 578 240.450, 577.802 240, 577.559 240 C 577.316 240, 576.840 240.450, 576.500 241 M 572 275 C 572 275.550, 572.450 276, 573 276 C 573.550 276, 574 275.550, 574 275 C 574 274.450, 573.550 274, 573 274 C 572.450 274, 572 274.450, 572 275 M 514 279 C 514 279.550, 514.900 280, 516 280 C 517.100 280, 518 279.550, 518 279 C 518 278.450, 517.100 278, 516 278 C 514.900 278, 514 278.450, 514 279 M 418.500 345.931 C 407.786 348.041, 399.118 354.458, 394.880 363.416 C 389.399 375.001, 391.621 387.374, 400.678 395.711 C 404.319 399.062, 411.425 403.377, 415.262 404.567 C 416.493 404.948, 421.227 407.065, 425.781 409.270 C 435.229 413.844, 438 416.918, 438 422.826 C 438 430.505, 427.599 436.329, 417.326 434.401 C 412.777 433.548, 403.156 429.413, 400.790 427.294 C 398.369 425.125, 394.210 426.411, 392.756 429.778 C 392.109 431.275, 390.774 433.573, 389.790 434.885 C 387.195 438.343, 387.540 441.544, 390.750 443.779 C 405.632 454.142, 432.252 456.018, 445.368 447.627 C 454.965 441.489, 459.508 432.926, 459.486 421.025 C 459.468 411.613, 456.113 403.842, 449.967 398.974 C 445.843 395.708, 431.056 388, 428.913 388 C 426.786 388, 417.090 381.930, 415.027 379.307 C 412.325 375.872, 412.471 372.782, 415.506 369.175 C 419.277 364.694, 425.524 363.506, 434.916 365.482 C 438.995 366.340, 443.826 367.965, 445.651 369.093 C 450.407 372.033, 452.415 370.932, 455.952 363.445 C 457.629 359.897, 459 356.590, 459 356.096 C 459 354.725, 452.267 351.051, 445.009 348.460 C 437.852 345.906, 424.903 344.670, 418.500 345.931 M 478.336 346.500 C 477.215 347.325, 477.023 356.606, 477.238 399.500 L 477.500 451.500 512.666 451.763 C 554.061 452.072, 551.410 452.787, 550.838 441.467 C 550.272 430.255, 551.663 430.787, 523.802 431.110 C 508.409 431.289, 499.621 431.021, 498.955 430.355 C 498.344 429.744, 498.041 425.286, 498.212 419.412 L 498.500 409.500 519.500 409 C 531.050 408.725, 541.063 408.136, 541.750 407.691 C 542.586 407.150, 543 404.107, 543 398.500 C 543 392.893, 542.586 389.850, 541.750 389.309 C 541.063 388.864, 531.050 388.275, 519.500 388 L 498.500 387.500 498.500 377 L 498.500 366.500 522.788 366 C 542.908 365.586, 547.238 365.243, 548.023 364 C 549.155 362.206, 549.295 349.012, 548.200 347.289 C 547.204 345.722, 480.418 344.968, 478.336 346.500 M 114 348.393 C 100.272 353.027, 90.187 361.736, 83.689 374.571 C 78.580 384.660, 76.621 403.513, 79.601 413.912 C 84.417 430.721, 93.001 441.760, 106.709 448.772 C 112.163 451.562, 126.440 455, 132.573 455 C 143.128 455, 162.359 447.690, 163.472 443.256 C 164.125 440.653, 158.329 427.393, 156.159 426.528 C 155.422 426.234, 153.622 426.838, 152.159 427.871 C 145.912 432.281, 140.309 434, 132.179 434 C 122.287 434, 115.370 431.212, 108.691 424.533 C 104.921 420.763, 103.582 418.402, 101.527 411.897 C 98.455 402.171, 98.395 399.168, 101.102 390.405 C 104.130 380.602, 108.751 374.730, 117.611 369.426 C 122 366.799, 123.369 366.502, 131 366.515 C 138.616 366.529, 140.147 366.867, 145.721 369.765 C 153.431 373.774, 155.702 373.870, 157.119 370.250 C 157.711 368.738, 159.096 365.694, 160.198 363.486 C 164.008 355.849, 161.824 353.252, 147.511 348.394 C 138.028 345.175, 123.537 345.175, 114 348.393 M 212.392 348.349 C 209.033 349.532, 205.658 351.006, 204.892 351.625 C 204.126 352.244, 202.150 353.450, 200.500 354.305 C 188.683 360.432, 177.145 379.307, 175.536 395.147 C 174.563 404.719, 177.802 420.570, 181.652 425.079 C 182.393 425.947, 183 426.987, 183 427.389 C 183 429.181, 190.666 437.903, 195.842 442 C 203.129 447.767, 208.815 450.537, 217.312 452.459 C 232.740 455.949, 249.180 452.795, 260.993 444.078 C 272.336 435.709, 278.133 427.362, 282.231 413.500 C 284.796 404.825, 284.935 394.406, 282.585 387 C 276.212 366.912, 264.358 354.444, 245.535 348.032 C 237.125 345.167, 220.990 345.322, 212.392 348.349 M 302.773 348.250 C 301.777 350.010, 301.565 361.448, 301.801 400.742 C 302.083 447.545, 302.224 451.050, 303.868 451.929 C 305.675 452.896, 320.386 451.947, 321.545 450.788 C 321.889 450.445, 322.244 443.445, 322.335 435.234 C 322.526 417.958, 322.909 417, 329.622 417 C 334.254 417, 336.316 418.379, 339.621 423.683 C 349.652 439.781, 357.734 451.146, 359.458 451.577 C 360.581 451.858, 365.545 451.956, 370.489 451.794 C 380.887 451.454, 382.001 450.312, 377.582 444.519 C 376.162 442.657, 375 440.860, 375 440.526 C 375 440.192, 374.166 438.700, 373.147 437.210 C 365.371 425.838, 358 413.620, 358 412.101 C 358 411.462, 359.551 409.577, 361.446 407.913 C 368.973 401.305, 372.796 389.092, 371.428 376.024 C 369.972 362.104, 361.525 352.719, 346.345 348.152 C 340.195 346.302, 336.721 346, 321.618 346 C 304.439 346, 304.018 346.050, 302.773 348.250 M 604.500 348.471 C 590.231 353.105, 579.819 361.821, 573.285 374.600 C 570.024 380.978, 566.998 393.025, 567.016 399.564 C 567.033 406.164, 570.420 419.354, 573.676 425.500 C 579.007 435.564, 590.190 444.618, 602.498 448.835 C 612.940 452.413, 627.418 452.352, 639.085 448.681 C 652.172 444.563, 652 444.894, 652 423.808 C 652 410.044, 651.700 405.996, 650.612 405.093 C 649.677 404.317, 644.861 404.032, 635.862 404.220 L 622.500 404.500 622.500 407 C 622.500 409.473, 622.604 409.503, 632 409.765 C 644.770 410.121, 645 410.400, 645 425.560 L 645 436.898 641.559 439.523 C 634.437 444.955, 611.945 445.398, 601.205 440.317 C 598.115 438.855, 594.012 436.591, 592.087 435.284 C 587.780 432.362, 580.415 422.724, 578.878 418 C 578.252 416.075, 577.235 413.868, 576.620 413.096 C 575.926 412.226, 575.519 407.094, 575.550 399.596 C 575.595 388.520, 575.834 386.994, 578.386 381.500 C 583.906 369.615, 591.175 362.262, 602.694 356.910 C 606.469 355.156, 609.868 354.583, 618.539 354.237 C 628.564 353.838, 630.290 354.044, 637.342 356.477 C 643.503 358.604, 645.404 358.909, 646.553 357.956 C 650.220 354.913, 646.836 351.688, 636.545 348.420 C 626.427 345.207, 614.493 345.226, 604.500 348.471 M 697.117 348.474 C 689.538 351.289, 682.799 357.388, 681.136 362.941 C 679.709 367.705, 679.671 375.995, 681.060 379.685 C 683.325 385.705, 693.860 393.769, 703 396.481 C 704.375 396.889, 707.075 397.907, 709 398.744 C 722.092 404.434, 724.659 406.166, 729.108 412.307 C 731.552 415.681, 732 417.254, 732 422.454 C 732 427.491, 731.487 429.416, 729.176 433.054 C 721.053 445.840, 704.511 448.227, 686.107 439.270 C 679.030 435.826, 678.655 435.751, 677.357 437.527 C 675.252 440.405, 675.701 441.626, 679.741 444.010 C 692.704 451.658, 710.131 453.829, 720.937 449.142 C 732.011 444.338, 737.069 438.194, 739.044 427.143 C 740.073 421.386, 740.013 419.558, 738.645 414.851 C 737.761 411.811, 735.689 407.625, 734.040 405.551 C 730.954 401.667, 724.113 396.796, 719.893 395.478 C 718.577 395.067, 716.612 394.116, 715.527 393.365 C 714.443 392.614, 712.919 392, 712.141 392 C 710.570 392, 695.430 384.712, 692.877 382.727 C 689.864 380.385, 687.008 374.533, 687.004 370.698 C 686.996 362.621, 693.707 355.725, 703.303 353.952 C 709.553 352.797, 721.297 354.068, 725.777 356.385 C 729.570 358.346, 733.369 358.465, 734.859 356.670 C 736.644 354.520, 731.319 350.205, 725.460 349.052 C 722.732 348.516, 718.928 347.609, 717.007 347.038 C 711.433 345.382, 704.001 345.918, 697.117 348.474 M 767.200 349.200 C 766.300 350.100, 766 362.448, 766 398.618 C 766 425.138, 766.273 447.548, 766.607 448.418 C 766.941 449.288, 768.219 450, 769.446 450 C 773.812 450, 774.137 447.107, 773.994 409.563 C 773.921 390.278, 773.892 373.938, 773.930 373.250 C 774.008 371.861, 778 371.489, 778 372.870 C 778 373.349, 780.223 376.836, 782.940 380.620 C 785.657 384.404, 788.834 388.850, 790.001 390.500 C 799.706 404.226, 805.127 411.805, 806.453 413.500 C 807.314 414.600, 809.403 417.413, 811.096 419.750 C 812.788 422.087, 814.697 423.988, 815.337 423.972 C 815.976 423.957, 817.548 422.495, 818.829 420.722 C 820.109 418.950, 824.159 413.371, 827.829 408.324 C 831.498 403.278, 836.525 396.147, 839 392.478 C 841.475 388.810, 844.190 385.064, 845.034 384.154 C 845.878 383.244, 847.880 380.475, 849.482 378 C 853.054 372.483, 854.764 370.972, 856.627 371.687 C 857.838 372.152, 858.046 377.994, 857.965 409.369 C 857.912 429.791, 858.158 447.253, 858.512 448.173 C 859.331 450.304, 861.284 451.060, 863.091 449.944 C 864.266 449.219, 864.546 440.960, 864.777 400.265 C 865.103 342.908, 865.197 343.508, 857.601 354.607 C 855.007 358.398, 851.099 363.975, 848.916 367 C 846.734 370.025, 843.370 374.750, 841.442 377.500 C 839.513 380.250, 835.689 385.650, 832.943 389.500 C 830.197 393.350, 826.309 398.975, 824.303 402 C 820.393 407.894, 816.051 413, 814.949 413 C 814.577 413, 812.976 411.087, 811.393 408.750 C 808.475 404.443, 795.670 386.337, 794.243 384.500 C 793.816 383.950, 791.794 381.025, 789.749 378 C 787.705 374.975, 784.716 370.700, 783.108 368.500 C 781.499 366.300, 777.638 360.788, 774.528 356.250 C 771.417 351.712, 768.766 348, 768.636 348 C 768.506 348, 767.860 348.540, 767.200 349.200 M 219.953 366.945 C 212.008 369.357, 203.774 377.087, 199.862 385.809 C 195.940 394.550, 195.819 405.081, 199.544 413.505 C 202.834 420.943, 210.897 428.733, 218.429 431.750 C 225.610 434.626, 234.846 434.731, 240.500 432 C 242.700 430.937, 244.950 430.046, 245.500 430.020 C 246.050 429.993, 248.326 428.291, 250.559 426.236 C 264.545 413.362, 266.826 395.143, 256.347 380 C 252.266 374.103, 250.465 372.562, 243.473 368.986 C 238.436 366.410, 236.595 366.012, 230.067 366.086 C 225.905 366.133, 221.354 366.520, 219.953 366.945 M 324.006 367.493 C 322.173 369.701, 322.292 394.913, 324.141 396.173 C 324.888 396.683, 329.278 396.929, 333.895 396.721 C 342.266 396.344, 342.301 396.332, 346.145 392.210 C 349.800 388.292, 350 387.739, 350 381.574 C 350 375.734, 349.685 374.711, 346.918 371.559 C 345.189 369.590, 342.225 367.601, 340.168 367.030 C 334.546 365.468, 325.470 365.728, 324.006 367.493 M 529.178 498.286 C 532.748 501.237, 533.870 505.589, 531.274 506.413 C 530.231 506.744, 528.579 508.827, 527.602 511.042 C 526.625 513.256, 524.739 515.780, 523.413 516.649 C 522.086 517.519, 521 518.634, 521 519.128 C 521 519.621, 522.791 518.894, 524.980 517.513 C 527.169 516.131, 529.655 515, 530.505 515 C 532.379 515, 533.695 511.777, 534.597 504.981 C 535.214 500.331, 535.086 499.835, 533.137 499.325 C 531.961 499.018, 531 498.144, 531 497.383 C 531 496.605, 530.016 496.016, 528.750 496.036 C 526.541 496.071, 526.549 496.112, 529.178 498.286 M 558.813 496.683 C 559.534 496.972, 560.397 496.936, 560.729 496.604 C 561.061 496.272, 560.471 496.036, 559.417 496.079 C 558.252 496.127, 558.015 496.364, 558.813 496.683 M 591.014 500.701 C 588.939 504.218, 588.918 504.467, 590.606 505.701 C 593.370 507.722, 594.500 507.273, 595.817 503.629 C 598.264 496.863, 594.597 494.628, 591.014 500.701 M 562.558 501.672 C 563.049 504.766, 562.670 506.227, 560.583 509.294 C 557.510 513.809, 557.363 515, 559.878 515 C 563.332 515, 564.289 517.480, 563.538 524.494 C 562.992 529.589, 563.129 531, 564.170 530.999 C 565.222 530.999, 565.500 527.603, 565.500 514.765 C 565.500 500.014, 565.338 498.499, 563.726 498.187 C 562.196 497.891, 562.035 498.371, 562.558 501.672 M 518.750 499.689 C 517.788 499.941, 517 500.540, 517 501.022 C 517 501.503, 515.875 503.111, 514.500 504.595 C 513.125 506.078, 512 508.351, 512 509.646 C 512 512.885, 512.725 512.595, 514.351 508.703 C 515.108 506.890, 517.139 504.219, 518.864 502.768 C 523.079 499.221, 523.055 498.564, 518.750 499.689 M 550 500.500 C 550 501.325, 550.675 502, 551.500 502 C 552.325 502, 553 501.325, 553 500.500 C 553 499.675, 552.325 499, 551.500 499 C 550.675 499, 550 499.675, 550 500.500 M 494.224 502.261 C 491.312 505.362, 491.416 506.815, 494.607 507.616 C 498.497 508.593, 500.292 505.150, 497.724 501.638 C 496.532 500.007, 496.304 500.047, 494.224 502.261 M 380 505.441 C 380 507.884, 380.437 510.152, 380.971 510.482 C 382.282 511.292, 383.368 506.604, 382.589 503.500 C 381.574 499.454, 380 500.634, 380 505.441 M 360.328 508.500 C 360.333 512.350, 360.513 513.802, 360.730 511.728 C 360.946 509.653, 360.943 506.503, 360.722 504.728 C 360.501 502.952, 360.324 504.650, 360.328 508.500 M 545.651 504.468 C 545.009 506.139, 546.499 507.427, 548 506.500 C 549.495 505.576, 549.206 503, 547.607 503 C 546.841 503, 545.960 503.661, 545.651 504.468 M 416.177 508.643 C 416.661 511.105, 419.674 512.726, 421.105 511.295 C 422.900 509.500, 421.359 507, 418.458 507 C 416.578 507, 415.943 507.457, 416.177 508.643 M 445.250 507.746 C 443.731 508.257, 443.568 512, 445.066 512 C 446.686 512, 450 510.040, 450 509.081 C 450 508.035, 446.945 507.176, 445.250 507.746 M 398 509.059 C 398 509.641, 398.450 509.840, 399 509.500 C 399.550 509.160, 400 508.684, 400 508.441 C 400 508.198, 399.550 508, 399 508 C 398.450 508, 398 508.477, 398 509.059 M 405.639 508.694 C 405.288 509.046, 405 510.553, 405 512.044 C 405 513.535, 404.325 515.315, 403.500 516 C 401.438 517.712, 401.620 518.745, 404.125 519.540 C 406.876 520.413, 407.965 518.656, 407.985 513.309 C 407.999 509.297, 407.001 507.332, 405.639 508.694 M 584.500 509 C 584.160 509.550, 584.332 510, 584.882 510 C 585.432 510, 586.160 509.550, 586.500 509 C 586.840 508.450, 586.668 508, 586.118 508 C 585.568 508, 584.840 508.450, 584.500 509 M 542.729 509.604 C 542.328 510.005, 542 512.199, 542 514.479 C 542 517.946, 542.502 518.995, 545.069 520.893 C 546.756 522.140, 548.781 522.914, 549.569 522.612 C 552.067 521.653, 551.113 520, 548.061 520 C 545.312 520, 545.081 519.694, 544.483 515.250 C 543.633 508.944, 543.575 508.758, 542.729 509.604 M 91.171 513.041 L 91.500 515.228 122.500 514.990 C 139.550 514.859, 165.200 514.464, 179.500 514.111 L 205.500 513.469 183 512.755 C 170.625 512.362, 144.827 511.774, 125.671 511.448 L 90.842 510.855 91.171 513.041 M 452 512.531 C 452 514.143, 454.662 515.672, 455.686 514.648 C 456.398 513.935, 454.138 511, 452.878 511 C 452.395 511, 452 511.689, 452 512.531 M 592.788 514.537 C 591.244 517.601, 591.221 518.284, 592.551 521.468 C 594.310 525.677, 594.745 525.800, 596.019 522.450 C 596.575 520.987, 598.269 519.454, 599.993 518.853 C 603.494 517.632, 603.208 516.492, 599.201 515.690 C 597.638 515.378, 595.942 514.226, 595.430 513.130 C 594.572 511.292, 594.367 511.401, 592.788 514.537 M 633.502 511.832 C 633.226 512.108, 633 512.933, 633 513.667 C 633 514.756, 639.645 514.977, 669.250 514.873 C 689.188 514.804, 715.400 514.462, 727.500 514.115 L 749.500 513.483 728 512.755 C 700.480 511.822, 634.159 511.174, 633.502 511.832 M 393 513.559 C 393 514.416, 393.450 514.840, 394 514.500 C 394.550 514.160, 395 513.459, 395 512.941 C 395 512.423, 394.550 512, 394 512 C 393.450 512, 393 512.702, 393 513.559 M 580.171 513.750 C 579.488 514.987, 578.343 516, 577.625 516 C 576.391 516, 574 519.989, 574 522.047 C 574 522.571, 575.302 523, 576.893 523 C 579.759 523, 581.621 520.815, 580.417 518.866 C 580.093 518.341, 580.354 517.279, 580.996 516.504 C 581.639 515.730, 581.996 514.287, 581.789 513.298 C 581.456 511.706, 581.270 511.758, 580.171 513.750 M 511 515.935 C 511 520.493, 515.311 524.045, 518.605 522.201 C 519.995 521.423, 519.837 521.176, 517.590 520.612 C 516.052 520.226, 514.533 518.901, 513.989 517.472 C 513.083 515.089, 511 514.017, 511 515.935 M 555.250 515.718 C 553.545 516.330, 553.662 519, 555.393 519 C 556.902 519, 558.362 516.316, 557.206 515.667 C 556.818 515.449, 555.938 515.472, 555.250 515.718 M 376 517.059 C 376 517.641, 376.450 517.840, 377 517.500 C 377.550 517.160, 378 516.684, 378 516.441 C 378 516.198, 377.550 516, 377 516 C 376.450 516, 376 516.477, 376 517.059 M 439.220 520.250 C 440.947 525.614, 441.595 526.486, 444.102 526.819 L 446.500 527.137 444.290 525.540 C 443.074 524.661, 441.787 522.380, 441.429 520.471 C 441.070 518.562, 440.192 517, 439.476 517 C 438.459 517, 438.403 517.712, 439.220 520.250 M 457 518.500 C 457 519.325, 457.450 520, 458 520 C 458.550 520, 459 519.325, 459 518.500 C 459 517.675, 458.550 517, 458 517 C 457.450 517, 457 517.675, 457 518.500 M 389 519.059 C 389 519.641, 389.450 519.840, 390 519.500 C 390.550 519.160, 391 518.684, 391 518.441 C 391 518.198, 390.550 518, 390 518 C 389.450 518, 389 518.477, 389 519.059 M 417.667 519.667 C 416.717 520.616, 416.869 525.246, 417.904 526.878 C 419.066 528.713, 420.627 527.623, 421.432 524.414 C 422.301 520.954, 419.682 517.652, 417.667 519.667 M 499 526 C 499 530.667, 499.333 532, 500.500 532 C 502.130 532, 502.358 529.801, 501.358 523.750 C 500.403 517.970, 499 519.309, 499 526 M 428.750 521.662 C 429.438 521.940, 430.563 521.940, 431.250 521.662 C 431.938 521.385, 431.375 521.158, 430 521.158 C 428.625 521.158, 428.063 521.385, 428.750 521.662 M 388.622 522.712 C 388.280 523.054, 388 524.413, 388 525.733 C 388 527.746, 388.430 528.082, 390.673 527.816 C 392.143 527.642, 393.478 527.050, 393.639 526.500 C 394.001 525.266, 389.481 521.853, 388.622 522.712 M 360.350 524.530 C 359.564 526.580, 360.827 528, 363.437 528 C 366.247 528, 369.004 525.265, 366.863 524.601 C 362.610 523.281, 360.837 523.262, 360.350 524.530 M 452.583 524.866 C 452.152 525.563, 452.070 526.403, 452.400 526.733 C 453.295 527.628, 454.271 526.312, 453.787 524.862 C 453.449 523.846, 453.213 523.846, 452.583 524.866 M 533.548 526.250 C 533.129 527.212, 533.129 528.788, 533.548 529.750 C 534.273 531.417, 534.329 531.417, 534.728 529.750 C 534.958 528.788, 534.958 527.212, 534.728 526.250 C 534.329 524.583, 534.273 524.583, 533.548 526.250 M 56.504 621.679 C 54.307 621.938, 51.702 623.016, 50.715 624.075 C 49.485 625.396, 47.579 626, 44.641 626 C 41.322 626, 39.873 626.561, 38.187 628.500 C 36.991 629.875, 35.388 631, 34.623 631 C 33.858 631, 31.619 632.913, 29.647 635.250 C 27.676 637.587, 25.154 640.522, 24.045 641.772 C 22.935 643.021, 21.727 645.271, 21.361 646.772 C 20.995 648.272, 19.890 650.539, 18.907 651.809 C 16.371 655.084, 16.388 672.899, 18.931 678 C 19.891 679.925, 20.960 682.952, 21.308 684.728 C 21.737 686.913, 24.325 690.386, 29.318 695.478 C 33.376 699.615, 37.102 703.010, 37.598 703.022 C 38.094 703.034, 39.625 703.924, 41 705 C 42.375 706.076, 44.857 706.966, 46.515 706.978 C 48.173 706.990, 51.098 707.834, 53.015 708.853 C 54.932 709.873, 58.300 711.031, 60.500 711.427 C 62.700 711.824, 65.407 712.731, 66.515 713.443 C 68.545 714.748, 76.276 716.878, 81.112 717.465 C 82.548 717.639, 84.656 718.281, 85.796 718.891 C 86.936 719.501, 88.856 720, 90.063 720 C 92.962 720, 110.672 728.704, 111.346 730.460 C 111.635 731.213, 113.106 732.430, 114.614 733.165 C 119.161 735.378, 122.865 743.885, 123.097 752.645 C 123.247 758.289, 122.906 760.446, 121.646 761.838 C 120.741 762.839, 120 764.729, 120 766.039 C 120 768.899, 109.544 778.979, 106.564 778.992 C 105.500 778.996, 103.589 779.977, 102.318 781.171 C 100.122 783.234, 99.069 783.346, 81.175 783.421 L 62.343 783.500 56.421 780.589 C 50.103 777.482, 39.004 767.575, 38.993 765.031 C 38.990 764.189, 38.093 762.150, 37 760.500 C 35.907 758.850, 35.010 756.008, 35.007 754.184 C 34.994 747.698, 33.940 747, 24.165 747 C 18.681 747, 14.951 747.449, 14.200 748.200 C 13.463 748.937, 13 752.548, 13 757.565 C 13 764.009, 13.393 766.233, 14.862 768.115 C 15.887 769.427, 17.058 771.625, 17.465 773 C 17.872 774.375, 21.422 778.780, 25.353 782.789 C 32.708 790.289, 40.934 795.345, 47.861 796.622 C 49.862 796.991, 53.068 798.127, 54.985 799.147 C 58.089 800.797, 61 801, 81.589 801 L 104.708 801 107.405 798.500 C 109.436 796.618, 111.195 796, 114.516 796 C 117.906 796, 119.178 795.536, 120 794 C 120.589 792.900, 121.617 791.998, 122.285 791.996 C 126.142 791.985, 141 774.937, 141 770.524 C 141 769.094, 141.834 767.624, 143 767 C 144.855 766.007, 145 764.906, 145 751.811 C 145 738.596, 144.834 737.367, 142.408 732.596 C 135.365 718.745, 133.942 717.164, 124.301 712.475 C 120.341 710.549, 116.827 708.530, 116.492 707.987 C 116.156 707.444, 115.069 707, 114.076 707 C 113.082 707, 111.145 706.115, 109.770 705.033 C 108.394 703.952, 105.296 702.769, 102.885 702.406 C 100.473 702.043, 97.097 700.903, 95.382 699.873 C 93.476 698.728, 90.366 697.997, 87.382 697.993 C 84.193 697.989, 81.460 697.298, 79.500 696 C 77.850 694.907, 75.143 694.010, 73.485 694.007 C 71.827 694.003, 68.791 693.100, 66.739 692 C 64.686 690.900, 62.218 689.992, 61.254 689.982 C 57.919 689.947, 44.592 679.539, 40.619 673.867 C 38.126 670.307, 38.376 658.874, 41 656.500 C 42.100 655.505, 43 654.086, 43 653.348 C 43 651.545, 49.893 644, 51.540 644 C 52.258 644, 54.184 642.875, 55.818 641.500 C 58.730 639.049, 59.121 639, 75.644 639.004 C 90.203 639.007, 92.909 639.257, 95.500 640.835 C 97.150 641.839, 99.625 642.944, 101 643.290 C 102.375 643.636, 105.936 646.388, 108.913 649.406 C 113.988 654.550, 114.355 655.257, 114.786 660.697 C 115.038 663.889, 115.695 667.063, 116.245 667.750 C 116.914 668.587, 120.282 669, 126.431 669 C 137.198 669, 139.587 667.912, 138.702 663.413 C 136.845 653.968, 135.842 650.482, 134.576 649.076 C 133.795 648.209, 132.855 646.295, 132.487 644.822 C 131.635 641.405, 119.829 630, 117.146 630 C 116.030 630, 114.859 629.582, 114.543 629.070 C 114.227 628.559, 111.163 626.706, 107.734 624.954 L 101.500 621.767 81 621.487 C 69.725 621.334, 58.702 621.420, 56.504 621.679 M 234 621.902 C 231.525 622.330, 228.150 623.424, 226.500 624.334 C 224.850 625.243, 222.323 625.990, 220.885 625.994 C 219.447 625.997, 217.126 626.900, 215.727 628 C 214.329 629.100, 212.731 630, 212.177 630 C 210.061 630, 188 650.532, 188 652.501 C 188 653.127, 186.875 654.618, 185.500 655.813 C 184.125 657.009, 183 659.015, 183 660.271 C 183 661.528, 182.100 663.326, 181 664.268 C 179.900 665.210, 179 666.899, 179 668.022 C 179 669.145, 178.243 671.737, 177.319 673.782 C 171.789 686.009, 171.657 739.471, 177.142 745.564 C 178.394 746.955, 179 749.155, 179 752.306 C 179 755.900, 179.463 757.272, 181 758.232 C 182.100 758.919, 183 760.501, 183 761.747 C 183 762.993, 184.125 764.991, 185.500 766.187 C 186.875 767.382, 188 769.006, 188 769.795 C 188 771.897, 202.770 786.725, 205.561 787.426 C 206.871 787.755, 208.421 788.918, 209.006 790.012 C 209.628 791.174, 211.099 792, 212.545 792 C 213.906 792, 215.790 792.900, 216.732 794 C 217.940 795.411, 219.682 796, 222.646 796 C 225.668 796, 227.680 796.702, 229.818 798.500 L 232.789 801 255.683 801 C 276.293 801, 278.953 800.808, 282.347 799.078 C 284.420 798.021, 288.003 796.838, 290.308 796.450 C 292.614 796.062, 295.573 794.902, 296.885 793.872 C 298.197 792.842, 299.946 792, 300.773 792 C 301.600 792, 304.229 790.200, 306.616 788 C 309.003 785.800, 311.415 784, 311.977 784 C 313.531 784, 323.672 773.610, 324.420 771.251 C 324.782 770.112, 325.735 768.635, 326.539 767.968 C 327.342 767.301, 328 765.971, 328 765.012 C 328 764.054, 328.838 762.197, 329.862 760.885 C 330.887 759.573, 332.065 757.375, 332.481 756 C 332.896 754.625, 333.915 752.727, 334.744 751.782 C 335.573 750.838, 336.662 747.013, 337.164 743.282 C 338.833 730.869, 339.205 728.991, 340.106 728.435 C 340.598 728.131, 340.997 719.471, 340.993 709.191 C 340.987 692.221, 340.804 690.224, 339 687.500 C 337.655 685.469, 337.011 682.806, 337.007 679.258 C 337.001 675.104, 336.585 673.758, 335 672.768 C 333.509 671.836, 333 670.436, 333 667.259 C 333 664.467, 332.370 662.370, 331.172 661.172 C 330.166 660.166, 327.943 656.903, 326.232 653.922 C 323.109 648.478, 309.737 634, 307.833 634 C 307.273 634, 305.671 633.100, 304.273 632 C 302.874 630.900, 301.074 630, 300.273 630 C 299.471 630, 297.671 629.100, 296.273 628 C 294.874 626.900, 292.582 626, 291.180 626 C 289.777 626, 287.620 625.053, 286.388 623.895 C 284.269 621.904, 282.908 621.771, 261.324 621.456 C 248.771 621.273, 236.475 621.474, 234 621.902 M 432.863 621.736 C 428.864 621.989, 426.712 622.661, 425.458 624.047 C 424.171 625.469, 422.382 626, 418.880 626 C 415.328 626, 413.822 626.458, 413.120 627.750 C 412.597 628.712, 409.998 630.625, 407.345 632 C 401.326 635.118, 389.434 646.859, 385.567 653.500 C 383.966 656.250, 381.833 659.088, 380.828 659.807 C 379.746 660.580, 379 662.352, 379 664.146 C 379 665.935, 378.192 667.861, 377.031 668.840 C 375.518 670.116, 374.968 672.095, 374.657 677.390 C 374.362 682.408, 373.810 684.527, 372.626 685.189 C 371.192 685.992, 371 689.073, 371 711.327 C 371 731.480, 371.285 736.962, 372.417 738.579 C 373.197 739.692, 374.163 742.379, 374.564 744.551 C 374.965 746.723, 376.127 750.068, 377.147 751.985 C 378.166 753.902, 379 756.659, 379 758.113 C 379 759.566, 379.650 761.295, 380.445 761.954 C 381.240 762.614, 383.371 765.482, 385.180 768.327 C 388.426 773.430, 401.934 788, 403.420 788 C 403.840 788, 405.329 788.900, 406.727 790 C 408.126 791.100, 410.048 792, 411 792 C 411.952 792, 413.803 792.835, 415.115 793.855 C 416.427 794.875, 419.249 796.032, 421.386 796.426 C 423.523 796.819, 426.891 798.010, 428.871 799.071 C 432.131 800.818, 434.665 801, 455.735 801 C 478.249 801, 479.070 800.930, 481.162 798.838 C 482.583 797.417, 484.997 796.515, 488.197 796.207 C 491.067 795.931, 493.569 795.073, 494.285 794.119 C 494.953 793.229, 497.728 791.375, 500.451 790 C 507.929 786.224, 515.267 778.333, 518.995 770.061 C 519.600 768.720, 520.973 767.007, 522.047 766.255 C 523.468 765.259, 524 763.719, 524 760.598 C 524 757.549, 524.591 755.775, 526.044 754.460 C 527.721 752.942, 528.035 751.613, 527.794 747.055 L 527.500 741.500 517.583 741.212 C 507.113 740.907, 506.046 741.315, 506.015 745.628 C 506.007 746.798, 505.325 748.315, 504.500 749 C 503.675 749.685, 502.993 751.427, 502.985 752.872 C 502.977 754.318, 502.321 756.625, 501.528 758 C 500.735 759.375, 499.644 761.468, 499.105 762.652 C 497.861 765.381, 488.985 773.719, 484.171 776.679 C 482.152 777.921, 479.107 778.952, 477.405 778.969 C 475.612 778.987, 473.549 779.841, 472.500 781 C 470.837 782.838, 469.425 782.999, 455.095 782.993 C 441.214 782.988, 439.170 782.768, 436.500 781 C 434.850 779.907, 432.126 779.010, 430.446 779.007 C 422.151 778.989, 401 758.182, 401 750.039 C 401 748.626, 400.132 745.851, 399.071 743.871 C 398.010 741.891, 396.826 738.523, 396.440 736.386 C 396.055 734.249, 395.401 732.050, 394.988 731.500 C 392.796 728.582, 392.062 698.835, 394.121 696.354 C 394.874 695.447, 395.744 691.257, 396.053 687.044 C 396.500 680.969, 397.070 678.930, 398.808 677.192 C 400.014 675.986, 401 673.758, 401 672.241 C 401 670.564, 401.785 668.991, 403 668.232 C 404.156 667.510, 405 665.900, 405 664.416 C 405 662.551, 406.982 659.903, 412.250 654.729 C 420.168 646.954, 426.495 643, 431.018 643 C 432.906 643, 434.306 642.297, 435 641 C 436.008 639.116, 437.094 639, 453.649 639 C 468.889 639, 471.712 639.250, 474.864 640.878 C 476.864 641.911, 479.625 643.278, 481 643.917 C 482.375 644.556, 484.493 645.656, 485.707 646.361 C 488.531 647.999, 496.918 656.597, 499.502 660.500 C 502.217 664.601, 504.976 671.898, 504.390 673.425 C 503.331 676.186, 506.704 677.075, 517.146 676.786 L 527.500 676.500 527.817 673.204 C 527.998 671.316, 527.251 668.083, 526.067 665.638 C 524.930 663.290, 524 660.412, 524 659.243 C 524 658.074, 523.574 656.855, 523.053 656.533 C 521.862 655.796, 516 647.162, 516 646.143 C 516 645.111, 505.283 634.861, 502.634 633.359 C 501.460 632.694, 497.575 630.743, 494 629.024 C 490.425 627.305, 486.719 625.471, 485.764 624.949 C 484.809 624.427, 483.234 623.993, 482.264 623.985 C 481.294 623.977, 478.700 623.321, 476.500 622.529 C 472.652 621.142, 448.999 620.712, 432.863 621.736 M 622 621.873 C 619.525 622.257, 615.827 623.343, 613.782 624.286 C 611.737 625.229, 608.985 626, 607.667 626 C 606.348 626, 604.126 626.900, 602.727 628 C 601.329 629.100, 599.764 630, 599.251 630 C 597.819 630, 593.551 633.681, 584.114 643.057 C 574.788 652.322, 570 658.388, 570 660.939 C 570 661.828, 569.100 663.326, 568 664.268 C 566.900 665.210, 566 667.132, 566 668.540 C 566 669.948, 565.223 672.539, 564.273 674.300 C 561.964 678.576, 560.805 690.979, 560.841 711 C 560.884 734.713, 561.698 743.417, 564.073 745.566 C 565.407 746.774, 566 748.635, 566 751.616 C 566 754.505, 566.612 756.511, 567.859 757.711 C 568.882 758.695, 570.038 760.830, 570.430 762.455 C 570.821 764.081, 572.009 766.019, 573.071 766.762 C 574.132 767.505, 575 768.681, 575 769.376 C 575 770.415, 582.391 777.832, 595.605 790.053 C 596.763 791.124, 598.885 792, 600.320 792 C 601.906 792, 603.349 792.784, 604 794 C 604.814 795.521, 606.094 796, 609.341 796 C 612.326 796, 614.632 796.753, 617 798.500 C 620.379 800.993, 620.453 801, 642.983 801 C 663.297 801, 665.958 800.806, 669.347 799.078 C 671.420 798.021, 675.003 796.838, 677.308 796.450 C 679.614 796.062, 682.573 794.902, 683.885 793.872 C 685.197 792.842, 686.927 792, 687.731 792 C 688.535 792, 691.238 790.200, 693.737 788 C 696.237 785.800, 698.717 784, 699.249 784 C 701.676 784, 711.161 772.564, 715.402 764.525 C 717.931 759.731, 720 755.324, 720 754.733 C 720 754.141, 720.767 752.810, 721.704 751.775 C 722.662 750.716, 723.740 747.183, 724.169 743.696 C 724.588 740.288, 725.471 735.475, 726.132 733 C 726.792 730.525, 727.501 720.096, 727.708 709.823 C 728.055 692.524, 727.932 690.866, 726.041 687.338 C 724.832 685.082, 724 681.650, 724 678.920 C 724 675.580, 723.449 673.811, 722 672.500 C 720.606 671.239, 720 669.420, 720 666.500 C 720 663.501, 719.399 661.768, 717.885 660.405 C 716.722 659.357, 715.341 657.600, 714.816 656.500 C 712.095 650.799, 709.879 647.854, 703.742 641.777 C 700.043 638.114, 695.920 634.528, 694.579 633.809 C 683.911 628.082, 679.399 626, 677.655 626 C 676.541 626, 674.610 625.043, 673.365 623.873 C 671.217 621.856, 669.961 621.732, 648.801 621.461 C 636.535 621.304, 624.475 621.489, 622 621.873 M 770.667 622.667 C 769.526 623.807, 769.874 798.804, 771.018 799.511 C 772.839 800.637, 837.703 800.229, 839.852 799.079 C 840.943 798.495, 843.211 798.292, 844.891 798.628 C 846.737 798.997, 849.546 798.599, 851.993 797.620 C 854.219 796.729, 857.873 796, 860.113 796 C 862.670 796, 865.130 795.256, 866.727 794 C 868.126 792.900, 869.926 792, 870.727 792 C 871.529 792, 873.329 791.100, 874.727 790 C 876.126 788.900, 878.094 788, 879.101 788 C 881.944 788, 891.368 779.782, 898.266 771.287 C 905.766 762.053, 907 760.218, 907 758.303 C 907 757.269, 907.838 754.778, 908.863 752.769 C 909.888 750.759, 911.023 747.257, 911.386 744.987 C 911.749 742.717, 912.823 739.673, 913.773 738.223 C 915.299 735.894, 915.498 732.545, 915.484 709.498 C 915.467 684.027, 915.414 683.342, 913.234 680.570 C 911.703 678.624, 911 676.367, 911 673.400 C 911 670.094, 910.527 668.817, 909 668 C 907.683 667.295, 907 665.906, 907 663.933 C 907 662.180, 906.372 660.696, 905.486 660.356 C 904.654 660.037, 902.383 657.013, 900.441 653.638 C 898.499 650.262, 895.693 646.465, 894.205 645.201 C 885.898 638.140, 872.256 630, 868.730 630 C 867.574 630, 865.675 629.104, 864.510 628.009 C 862.901 626.498, 860.870 625.984, 856.071 625.876 C 851.261 625.767, 849.370 625.287, 848.154 623.866 C 846.646 622.106, 844.421 622, 808.944 622 C 788.258 622, 771.033 622.300, 770.667 622.667 M 954 710.893 C 954 781.119, 954.262 799.873, 955.250 800.202 C 957.713 801.021, 975.101 800.299, 976.062 799.338 C 977.106 798.294, 977.485 624.594, 976.447 622.914 C 976.136 622.411, 970.959 622, 964.941 622 L 954 622 954 710.893 M 237 641 C 235.075 642.054, 232.288 642.935, 230.807 642.958 C 229.325 642.981, 227.525 643.835, 226.807 644.857 C 226.088 645.878, 224.591 647, 223.481 647.351 C 222.370 647.701, 218.233 651.253, 214.287 655.244 C 207.134 662.479, 201 672.241, 201 676.390 C 201 677.593, 200.038 680.360, 198.861 682.539 C 196.857 686.252, 196.716 688, 196.611 710.500 C 196.502 734.127, 196.535 734.535, 198.750 736.750 C 200.382 738.382, 201 740.175, 201 743.278 C 201 746.318, 201.579 748.051, 203 749.268 C 204.168 750.268, 205 752.218, 205 753.955 C 205 755.906, 205.688 757.298, 207 758 C 208.100 758.589, 209 759.569, 209 760.177 C 209 762.250, 218.199 772.061, 221.923 773.961 C 223.964 775.002, 226.221 776.562, 226.939 777.427 C 227.657 778.292, 229.297 779, 230.583 779 C 231.870 779, 233.781 779.922, 234.831 781.049 C 236.594 782.941, 238.026 783.112, 253.620 783.286 C 269.355 783.461, 270.790 783.322, 274.781 781.237 C 277.135 780.007, 280.067 779, 281.296 779 C 287.467 779, 300.109 768.505, 305.016 759.310 C 306.715 756.126, 308.757 753.156, 309.553 752.710 C 310.349 752.265, 311 750.780, 311 749.410 C 311 748.041, 311.900 745.156, 313 743 C 314.100 740.844, 315 737.291, 315 735.105 C 315 732.919, 315.501 729.863, 316.113 728.315 C 317.535 724.718, 317.504 700.811, 316.075 698.139 C 315.484 697.035, 315 692.347, 315 687.721 C 315 680.580, 314.698 679.037, 313 677.500 C 311.900 676.505, 311 674.426, 311 672.880 C 311 671.094, 310.272 669.680, 309 669 C 307.819 668.368, 307 666.906, 307 665.431 C 307 663.677, 304.718 660.557, 299.345 654.966 C 295.134 650.585, 291.268 647, 290.752 647 C 290.237 647, 288.671 646.100, 287.273 645 C 285.874 643.900, 283.286 643, 281.520 643 C 279.580 643, 277.594 642.209, 276.500 641 C 274.821 639.145, 273.449 639.003, 257.595 639.042 C 242.684 639.078, 240.053 639.329, 237 641 M 624.226 641.004 C 622.425 642.102, 619.833 643, 618.466 643 C 617.099 643, 615.210 643.900, 614.268 645 C 613.326 646.100, 611.926 647, 611.156 647 C 609.136 647, 593 663.035, 593 665.043 C 593 665.971, 592.095 667.881, 590.989 669.287 C 589.883 670.693, 588.545 674.126, 588.016 676.916 C 587.487 679.705, 586.266 683.190, 585.303 684.660 C 583.756 687.021, 583.560 690.051, 583.621 710.686 C 583.686 733.177, 583.769 734.125, 585.844 736.334 C 587.414 738.005, 588 739.893, 588 743.279 C 588 746.906, 588.440 748.165, 590 749 C 591.342 749.718, 592 751.094, 592 753.180 C 592 754.894, 592.884 757.234, 593.969 758.395 C 595.052 759.553, 598.713 763.526, 602.104 767.225 C 605.495 770.924, 609.222 774.251, 610.385 774.619 C 611.548 774.986, 613.088 776.122, 613.807 777.143 C 614.525 778.165, 616.195 779, 617.518 779 C 618.840 779, 620.780 779.920, 621.828 781.045 C 623.593 782.941, 625.010 783.103, 641.155 783.258 C 657.545 783.415, 658.788 783.294, 662.156 781.213 C 664.125 779.996, 666.778 779, 668.052 779 C 675.656 779, 688.464 767.799, 693.826 756.459 C 694.357 755.336, 695.514 753.819, 696.396 753.086 C 697.278 752.354, 698 750.791, 698 749.613 C 698 748.434, 698.875 745.838, 699.944 743.844 C 701.013 741.849, 702.419 737.131, 703.068 733.359 C 704.619 724.353, 705.380 701.174, 704.175 699.671 C 703.658 699.027, 702.913 694.067, 702.517 688.649 C 701.956 680.955, 701.382 678.382, 699.899 676.899 C 698.855 675.855, 698 673.891, 698 672.535 C 698 671.094, 697.170 669.626, 696 669 C 694.753 668.332, 694 666.906, 694 665.210 C 694 663.202, 692.205 660.642, 687.136 655.421 C 679.389 647.439, 672.588 643, 668.107 643 C 666.094 643, 664.710 642.326, 664 641 C 662.991 639.115, 661.908 639, 645.215 639.004 C 629.275 639.007, 627.172 639.208, 624.226 641.004 M 793.239 642.161 C 792.278 643.122, 792 658.517, 792 710.674 L 792 777.949 794.950 779.474 C 797.274 780.676, 801.721 781, 815.891 781 C 826.806 781, 834.125 780.607, 834.500 780 C 834.840 779.450, 838.361 779, 842.324 779 C 847.619 779, 850.519 778.470, 853.261 777 C 855.314 775.900, 858.064 775, 859.374 775 C 860.684 775, 862.343 774.292, 863.061 773.427 C 863.779 772.562, 865.971 771.032, 867.933 770.027 C 872.379 767.751, 885 754.790, 885 752.502 C 885 751.571, 885.933 749.499, 887.073 747.898 C 888.334 746.126, 889.354 742.737, 889.678 739.243 C 889.971 736.084, 891.063 731.670, 892.105 729.434 C 893.690 726.034, 894 723.003, 894 710.919 C 894 698.381, 893.736 695.977, 892 692.739 C 890.848 690.590, 890 687.097, 890 684.504 C 890 681.333, 889.408 679.408, 888 678 C 886.900 676.900, 886 674.872, 886 673.493 C 886 672.066, 884.924 670.051, 883.500 668.813 C 882.125 667.618, 881 666.145, 881 665.541 C 881 663.904, 868.837 652.308, 866.342 651.566 C 865.156 651.213, 863.942 650.291, 863.645 649.517 C 863.348 648.743, 861.500 647.809, 859.538 647.441 C 857.577 647.073, 855.561 646.036, 855.059 645.136 C 853.938 643.128, 842.494 642.086, 813.989 641.395 C 799.280 641.039, 794.172 641.228, 793.239 642.161" stroke="none" fill="#ffffff" fill-rule="evenodd"/>
</svg>