<svg xmlns="http://www.w3.org/2000/svg" width="1000" height="562" viewBox="0 0 1000 562" version="1.1">
	<path d="M 899.450 8.861 C 898.928 9.334, 894.450 11.882, 889.500 14.524 C 884.550 17.165, 879.116 20.101, 877.424 21.048 C 875.733 21.995, 869.883 25.123, 864.424 27.999 C 858.966 30.875, 854.073 33.627, 853.550 34.114 C 853.028 34.601, 851.828 35, 850.883 35 C 849.939 35, 849.017 35.337, 848.833 35.750 C 848.503 36.493, 846.508 37.619, 832 45.248 C 827.875 47.418, 821.800 50.668, 818.500 52.470 C 815.200 54.273, 808.450 57.911, 803.500 60.555 C 798.550 63.199, 790 67.772, 784.500 70.717 C 768.679 79.188, 736.307 95, 734.785 95 C 734.023 95, 732.972 95.358, 732.450 95.796 C 731.927 96.234, 729.700 97.163, 727.500 97.862 C 725.300 98.561, 722.600 99.517, 721.500 99.988 C 720.400 100.459, 718.263 101.113, 716.750 101.441 C 713.590 102.127, 713.431 102.908, 715.500 107.599 C 716.325 109.469, 717.675 112.575, 718.500 114.500 C 719.325 116.425, 720.675 119.575, 721.500 121.500 C 722.325 123.425, 723.634 126.463, 724.409 128.250 C 725.184 130.037, 726.993 134.413, 728.430 137.974 C 733.328 150.113, 739.868 154.570, 752.500 154.379 C 760.923 154.252, 763.040 153.417, 780.629 143.285 C 783.308 141.742, 786.850 139.825, 788.500 139.026 C 790.150 138.226, 792.625 136.839, 794 135.943 C 796.289 134.451, 803.586 130.440, 818 122.752 C 823.170 119.994, 829.437 116.594, 841.750 109.868 C 844.638 108.291, 849.587 105.588, 852.750 103.863 C 855.913 102.137, 860.300 99.717, 862.500 98.484 C 870.262 94.135, 886.668 85.282, 896 80.406 C 899.025 78.825, 901.681 77.418, 901.903 77.280 C 902.124 77.141, 902.349 61.497, 902.403 42.514 C 902.498 8.714, 902.285 6.292, 899.450 8.861 M 894.215 16.429 C 895.471 17.894, 893.013 21, 890.597 21 C 888.362 21, 888.410 21.155, 891.757 24.704 L 895.251 28.408 897.175 26.032 C 899.665 22.958, 899.159 19.140, 896 17.161 C 894.625 16.300, 893.822 15.971, 894.215 16.429 M 895.079 22.583 C 895.127 23.748, 895.364 23.985, 895.683 23.188 C 895.972 22.466, 895.936 21.603, 895.604 21.271 C 895.272 20.939, 895.036 21.529, 895.079 22.583 M 881.052 28.250 C 880.997 30.085, 878.409 30.708, 877.833 29.026 C 877.650 28.490, 876.375 28.352, 875 28.719 L 872.500 29.387 874.926 29.971 C 878.623 30.861, 878.734 33, 875.083 33 C 873.388 33, 872 32.550, 872 32 C 872 31.450, 871.178 31, 870.174 31 C 868.126 31, 864 34.945, 864 36.904 C 864 38.936, 859.747 41.930, 856.809 41.967 C 852.746 42.017, 852.542 43.692, 856.509 44.436 C 858.429 44.796, 860 45.531, 860 46.070 C 860 46.609, 861.152 47.488, 862.560 48.023 C 864.767 48.862, 865.078 49.509, 864.810 52.709 C 864.568 55.606, 864.004 56.539, 862.238 56.961 C 860.994 57.257, 859.088 58.962, 858.002 60.750 C 856.478 63.262, 855.344 64, 853.015 64 C 851.357 64, 850 63.582, 850 63.071 C 850 62.561, 849.253 61.395, 848.339 60.482 C 847.061 59.204, 845.678 58.971, 842.339 59.472 C 839.537 59.892, 838 59.747, 838 59.061 C 838 58.478, 838.675 58, 839.500 58 C 840.325 58, 841 57.550, 841 57 C 841 56.450, 839.087 55.989, 836.750 55.976 C 834.413 55.963, 830.757 55.548, 828.627 55.054 C 826.441 54.546, 823.828 54.529, 822.627 55.014 C 820.508 55.870, 820.508 55.873, 822.750 55.937 C 823.987 55.971, 825 56.355, 825 56.789 C 825 57.755, 815.002 63.037, 813.215 63.016 C 812.508 63.007, 810.933 63.632, 809.715 64.404 C 808.497 65.176, 805.587 66.116, 803.250 66.492 C 799.144 67.153, 797.735 68.412, 800.188 69.229 C 800.952 69.484, 800.595 70.405, 799.188 71.813 C 796.810 74.190, 794.388 74.663, 793.789 72.867 C 793.568 72.205, 792.545 72.010, 791.325 72.397 C 789.483 72.982, 787.993 74.017, 783.292 77.981 C 782.628 78.542, 781.615 79, 781.042 79 C 780.469 79, 780 79.466, 780 80.035 C 780 80.749, 780.601 80.749, 781.934 80.035 C 784.688 78.561, 785.218 78.739, 784.530 80.906 C 784.023 82.504, 784.579 82.922, 787.982 83.497 C 790.214 83.874, 792.674 84.816, 793.448 85.591 C 794.223 86.366, 795.699 87, 796.729 87 C 798.915 87, 801 88.826, 801 90.741 C 801 91.768, 799.267 92.016, 793.624 91.800 C 787.741 91.574, 786.359 91.229, 786.793 90.097 C 787.202 89.032, 786.759 88.830, 785.020 89.285 C 783.292 89.736, 782.196 89.248, 780.715 87.364 C 779.338 85.615, 778.094 85.004, 776.666 85.377 C 775.532 85.674, 774.003 85.417, 773.268 84.807 C 772.281 83.988, 771.287 84.044, 769.466 85.018 C 766.972 86.353, 766.162 88, 768 88 C 768.550 88, 769 88.675, 769 89.500 C 769 90.325, 768.325 91, 767.500 91 C 766.675 91, 766 90.550, 766 90 C 766 88.261, 762.384 88.918, 760.500 91 C 759.505 92.100, 757.860 93, 756.845 93 C 755.830 93, 755 93.450, 755 94 C 755 94.550, 754.520 95, 753.933 95 C 753.296 95, 753.140 94.134, 753.546 92.856 L 754.226 90.711 751.925 92.856 C 750.659 94.035, 748.840 95, 747.883 95 C 746.926 95, 745.468 95.675, 744.643 96.500 C 743.818 97.325, 742.473 98, 741.653 98 C 738.827 98, 737 99.220, 737 101.107 C 737 102.148, 736.587 103, 736.082 103 C 735.577 103, 734.379 103.301, 733.421 103.669 C 732.001 104.214, 731.787 103.924, 732.263 102.104 C 732.814 99.994, 732.722 99.952, 730.600 101.343 C 729.364 102.152, 727.261 103.020, 725.927 103.271 C 723.626 103.704, 723.642 103.735, 726.250 103.864 C 727.853 103.943, 729 104.574, 729 105.378 C 729 106.135, 729.680 107.319, 730.511 108.009 C 731.851 109.121, 731.829 109.404, 730.319 110.509 C 728.752 111.654, 728.844 112.025, 731.469 115.127 C 733.038 116.982, 734.700 118.387, 735.161 118.250 C 736.202 117.940, 736.271 120.395, 735.250 121.416 C 734.837 121.829, 734.442 124.248, 734.371 126.793 C 734.301 129.337, 733.739 131.587, 733.123 131.792 C 731.454 132.349, 732.941 137.152, 735.539 139.594 C 736.764 140.746, 738.074 142.658, 738.450 143.844 C 738.946 145.406, 739.942 146, 742.067 146 C 743.680 146, 745 146.450, 745 147 C 745 148.409, 747.305 148.242, 750.460 146.605 C 752.096 145.756, 754.682 145.416, 757.065 145.736 C 759.454 146.056, 761.564 145.777, 762.478 145.019 C 763.301 144.335, 764.570 144.005, 765.299 144.284 C 766.027 144.564, 767.430 143.602, 768.417 142.146 C 771.424 137.710, 777 134, 780.661 134 C 782.497 134, 784 133.498, 784 132.885 C 784 131.312, 772.963 132.770, 770.893 134.617 C 769.601 135.770, 769.087 135.801, 768.266 134.775 C 766.706 132.827, 765.745 129, 766.816 129 C 767.339 129, 768.014 129.945, 768.316 131.101 C 768.632 132.310, 769.336 132.911, 769.973 132.516 C 770.583 132.140, 770.823 131.018, 770.507 130.024 C 769.999 128.422, 770.539 128.234, 775.220 128.378 C 778.379 128.475, 781.500 129.237, 782.976 130.270 C 785.664 132.153, 790 132.604, 790 131 C 790 130.450, 789.235 130, 788.300 130 C 787.081 130, 786.906 129.694, 787.682 128.918 C 788.458 128.142, 789.356 128.205, 790.857 129.143 C 792.630 130.250, 793.145 130.205, 794.225 128.845 C 794.926 127.962, 796.721 126.956, 798.214 126.610 C 800.816 126.006, 800.905 125.775, 800.389 120.990 C 799.858 116.067, 799.889 115.999, 802.675 115.921 L 805.500 115.842 802.744 114.836 C 799.960 113.819, 799.866 112, 802.598 112 C 803.411 112, 805.951 110.200, 808.240 108 C 810.530 105.800, 812.932 104, 813.579 104 C 814.227 104, 815.373 103.147, 816.128 102.104 C 816.883 101.061, 819.130 99.927, 821.121 99.583 C 824.246 99.043, 824.969 99.303, 826.394 101.479 C 827.548 103.239, 828.944 104, 831.023 104 C 834.197 104, 834.742 104.858, 832.800 106.800 C 831.936 107.664, 831.919 108, 832.741 108 C 833.369 108, 834.183 107.514, 834.550 106.919 C 834.918 106.324, 836.294 106.108, 837.609 106.438 C 839.334 106.871, 840 106.621, 840 105.538 C 840 104.713, 838.908 103.764, 837.574 103.429 C 834.221 102.588, 831.444 99.462, 833.126 98.422 C 833.838 97.982, 834.552 98.155, 834.774 98.823 C 834.990 99.470, 835.917 99.986, 836.833 99.970 C 838.337 99.942, 838.329 99.839, 836.750 98.920 C 834.400 97.551, 834.533 96, 837 96 C 838.100 96, 839 96.450, 839 97 C 839 97.550, 839.498 98, 840.107 98 C 840.716 98, 840.941 97.289, 840.608 96.421 C 840.102 95.102, 840.539 94.958, 843.251 95.546 C 845.038 95.934, 846.872 96.757, 847.326 97.376 C 847.926 98.192, 848.292 98.156, 848.662 97.244 C 848.942 96.553, 849.605 96.256, 850.135 96.583 C 850.665 96.911, 850.105 98.042, 848.889 99.096 C 847.674 100.150, 846.912 101.245, 847.197 101.530 C 847.939 102.272, 851 100.955, 851 99.893 C 851 99.402, 851.869 99, 852.930 99 C 854.171 99, 854.975 98.196, 855.180 96.750 C 855.425 95.030, 856.324 94.380, 859 93.990 C 862.086 93.540, 862.478 93.156, 862.312 90.740 C 862.122 87.975, 863.475 86.936, 864.254 89.250 C 864.585 90.232, 865.021 90.215, 866.289 89.167 C 867.236 88.386, 868.855 88.102, 870.202 88.480 C 872.471 89.117, 872.469 89.100, 870.007 87.125 C 867.615 85.206, 867.595 85.097, 869.507 84.471 C 872.051 83.638, 876.016 82.012, 878.204 80.904 C 879.218 80.390, 880.152 80.437, 880.513 81.020 C 880.846 81.559, 880.416 82, 879.559 82 C 878.702 82, 878 82.381, 878 82.847 C 878 83.313, 876.987 84.183, 875.750 84.780 L 873.500 85.865 875.667 85.932 C 876.858 85.970, 878.002 85.494, 878.208 84.875 C 878.415 84.256, 879.802 83.750, 881.292 83.750 C 882.781 83.750, 884 83.356, 884 82.875 C 884 82.394, 883.550 82, 883 82 C 882.450 82, 882 81.498, 882 80.883 C 882 80.269, 882.866 79.993, 883.925 80.270 C 887.342 81.164, 885.144 78.636, 879.560 75.250 C 876.612 73.462, 873.480 72, 872.600 72 C 870.379 72, 870.533 67.733, 872.829 65.655 C 876.437 62.390, 882 64.638, 882 69.360 C 882 71.545, 882.454 72, 884.632 72 C 886.080 72, 888.667 72.832, 890.382 73.850 C 892.997 75.400, 893.878 75.500, 895.838 74.463 C 897.269 73.707, 897.754 72.966, 897.088 72.555 C 896.490 72.185, 896 72.149, 896 72.476 C 896 72.803, 895.100 72.589, 894 72 C 891.963 70.910, 891.181 67, 893 67 C 893.550 67, 894 66.315, 894 65.477 C 894 64.160, 894.353 64.185, 896.607 65.662 C 898.921 67.178, 899.034 67.502, 897.607 68.545 C 895.780 69.882, 895.513 71, 897.021 71 C 897.583 71, 898.559 69.867, 899.190 68.482 C 900.174 66.324, 900.027 65.674, 898.169 63.943 C 896.152 62.063, 896 60.983, 896 48.484 L 896 35.047 891.812 33.023 C 889.509 31.911, 886.864 31, 885.934 31 C 885.005 31, 883.538 29.988, 882.674 28.750 C 881.357 26.861, 881.096 26.781, 881.052 28.250 M 886 27.465 C 886 27.720, 886.900 28.411, 888 29 C 889.596 29.854, 890 29.760, 890 28.535 C 890 27.667, 889.131 27, 888 27 C 886.900 27, 886 27.209, 886 27.465 M 398.500 44 C 395.912 44.463, 399.088 44.731, 407.500 44.758 C 415.363 44.784, 419.512 44.484, 418 44 C 414.950 43.023, 403.956 43.023, 398.500 44 M 847 43.969 C 847 44.501, 847.675 44.678, 848.500 44.362 C 849.325 44.045, 850 43.609, 850 43.393 C 850 43.177, 849.325 43, 848.500 43 C 847.675 43, 847 43.436, 847 43.969 M 382.500 46 C 382.840 46.550, 383.541 47, 384.059 47 C 384.577 47, 385 46.550, 385 46 C 385 45.450, 384.298 45, 383.441 45 C 382.584 45, 382.160 45.450, 382.500 46 M 387 45.799 C 387 46.239, 388.575 46.415, 390.500 46.190 C 392.425 45.965, 394 45.605, 394 45.391 C 394 45.176, 392.425 45, 390.500 45 C 388.575 45, 387 45.360, 387 45.799 M 423 46 C 424.976 47.277, 428.289 47.277, 427.500 46 C 427.160 45.450, 425.671 45.007, 424.191 45.015 C 422.086 45.027, 421.827 45.242, 423 46 M 844.354 48.990 C 845.860 52.571, 850.562 56.382, 852.538 55.624 C 853.352 55.312, 855.138 55.482, 856.509 56.003 C 858.888 56.908, 859 56.783, 859 53.219 C 859 48.861, 856.893 47.567, 848.322 46.659 L 843.143 46.111 844.354 48.990 M 373 48 C 371.707 48.835, 371.734 48.971, 373.191 48.985 C 374.121 48.993, 375.160 48.550, 375.500 48 C 376.282 46.734, 374.958 46.734, 373 48 M 429.500 48 C 429.840 48.550, 430.541 49, 431.059 49 C 431.577 49, 432 48.550, 432 48 C 432 47.450, 431.298 47, 430.441 47 C 429.584 47, 429.160 47.450, 429.500 48 M 361.500 50 C 359.728 50.762, 359.813 50.867, 362.250 50.930 C 363.762 50.968, 365 50.550, 365 50 C 365 48.826, 364.231 48.826, 361.500 50 M 434.128 50.724 C 434.882 51.672, 437.123 54.034, 439.106 55.974 C 441.090 57.913, 442.941 60.175, 443.219 61 C 443.498 61.825, 444.074 62.177, 444.499 61.781 C 445.519 60.831, 442.747 56.700, 438.228 52.437 C 434.430 48.855, 431.747 47.733, 434.128 50.724 M 532.347 54.750 C 518.087 82.209, 512.261 93.360, 509.491 98.500 C 507.712 101.800, 501.870 113.050, 496.507 123.500 C 491.145 133.950, 485.296 145.200, 483.509 148.500 C 481.722 151.800, 476.532 161.700, 471.976 170.500 C 467.421 179.300, 462.023 189.650, 459.982 193.500 C 457.941 197.350, 452.549 207.700, 448 216.500 C 443.451 225.300, 438.054 235.650, 436.007 239.500 C 433.959 243.350, 427.204 256.400, 420.994 268.500 C 414.785 280.600, 409.362 290.950, 408.943 291.500 C 408.524 292.050, 402.970 302.766, 396.601 315.314 C 388.511 331.253, 385.546 337.974, 386.761 337.617 C 387.717 337.336, 390.300 336.837, 392.500 336.507 C 433.732 330.329, 466.342 321.379, 485.500 310.984 C 496.157 305.202, 498.427 303.741, 504.944 298.476 C 517.054 288.691, 520.862 282.729, 535.332 250.893 C 543.937 231.962, 547.876 223.389, 552.630 213.247 C 554.500 209.258, 557.196 203.408, 558.621 200.247 C 560.046 197.086, 562.467 191.800, 564 188.500 C 565.533 185.200, 568.003 179.800, 569.489 176.500 C 570.975 173.200, 573.463 167.800, 575.018 164.500 C 576.573 161.200, 579.885 154.007, 582.377 148.515 C 584.869 143.024, 587.317 138.394, 587.817 138.228 C 588.317 138.061, 589.283 139.404, 589.964 141.212 C 590.645 143.021, 591.667 145.625, 592.235 147 C 593.752 150.672, 594.261 151.981, 600.983 169.500 C 604.360 178.300, 607.504 186.400, 607.969 187.500 C 608.435 188.600, 611.598 196.700, 615 205.500 C 618.402 214.300, 621.561 222.400, 622.020 223.500 C 622.480 224.600, 625.597 232.700, 628.947 241.500 C 632.297 250.300, 635.480 258.281, 636.019 259.236 C 636.559 260.191, 637 261.879, 637 262.986 C 637 265.591, 638.611 265.596, 639.291 262.993 C 639.619 261.742, 640.972 260.756, 642.886 260.373 C 644.574 260.035, 646.470 259.138, 647.100 258.379 C 647.730 257.621, 648.649 257, 649.142 257 C 649.636 257, 651.943 255.762, 654.270 254.250 C 656.596 252.737, 662.173 249.475, 666.663 247 C 671.153 244.525, 679.478 239.846, 685.163 236.601 C 690.848 233.357, 697.300 229.778, 699.500 228.648 C 701.700 227.519, 703.650 226.235, 703.833 225.797 C 704.017 225.359, 704.613 225, 705.159 225 C 705.704 225, 709.312 223.121, 713.177 220.825 C 717.042 218.529, 721.171 216.580, 722.352 216.492 C 723.533 216.405, 724.475 215.922, 724.445 215.417 C 724.415 214.913, 721.326 208.200, 717.581 200.500 C 713.836 192.800, 709.080 182.900, 707.013 178.500 C 704.945 174.100, 699.876 163.525, 695.748 155 C 684.684 132.153, 675.917 113.966, 669.718 101 C 666.694 94.675, 660.975 82.750, 657.009 74.500 C 653.043 66.250, 648.705 57.138, 647.370 54.250 L 644.941 49 590.138 49 L 535.334 49 532.347 54.750 M 832.123 50.924 C 831.397 51.373, 830.980 52.586, 831.195 53.620 C 831.551 55.325, 831.708 55.282, 832.875 53.164 C 834.331 50.522, 834.063 49.725, 832.123 50.924 M 351 53 C 349.020 53.634, 348.916 53.801, 350.500 53.801 C 351.600 53.801, 353.625 53.440, 355 53 C 356.980 52.366, 357.084 52.199, 355.500 52.199 C 354.400 52.199, 352.375 52.560, 351 53 M 341.500 56 C 340.711 57.277, 344.024 57.277, 346 56 C 347.173 55.242, 346.914 55.027, 344.809 55.015 C 343.329 55.007, 341.840 55.450, 341.500 56 M 334 58 C 333.175 58.533, 331.600 58.986, 330.500 59.007 C 328.370 59.047, 322.675 62.940, 324.691 62.978 C 325.346 62.990, 326.160 62.550, 326.500 62 C 326.840 61.450, 328.127 61, 329.360 61 C 331.947 61, 336.981 58.856, 336.992 57.750 C 337.003 56.732, 335.808 56.831, 334 58 M 827 59.500 C 827 60.325, 827.575 61, 828.278 61 C 828.981 61, 830.351 61.929, 831.323 63.065 C 832.296 64.200, 833.821 64.988, 834.713 64.815 C 837.790 64.218, 837.072 62.240, 833.012 60.123 C 828.186 57.608, 827 57.485, 827 59.500 M 814.500 60 C 814.840 60.550, 815.316 61, 815.559 61 C 815.802 61, 816 60.550, 816 60 C 816 59.450, 815.523 59, 814.941 59 C 814.359 59, 814.160 59.450, 814.500 60 M 821.561 61.933 C 820.541 63.060, 820.265 64.046, 820.866 64.417 C 821.414 64.756, 822.167 64.539, 822.540 63.935 C 822.921 63.319, 824.302 63.110, 825.693 63.459 C 828.460 64.154, 828.072 62.644, 825.070 61.038 C 823.704 60.307, 822.831 60.529, 821.561 61.933 M 317.500 64 C 317.160 64.550, 317.557 65, 318.382 65 C 319.207 65, 320.160 64.550, 320.500 64 C 320.840 63.450, 320.443 63, 319.618 63 C 318.793 63, 317.840 63.450, 317.500 64 M 446 64 C 446 64.550, 446.450 65, 447 65 C 447.550 65, 448 64.550, 448 64 C 448 63.450, 447.550 63, 447 63 C 446.450 63, 446 63.450, 446 64 M 309.500 68 C 309.160 68.550, 309.332 69, 309.882 69 C 310.432 69, 311.160 68.550, 311.500 68 C 311.840 67.450, 311.668 67, 311.118 67 C 310.568 67, 309.840 67.450, 309.500 68 M 865.032 72.264 C 865.014 73.784, 865.563 75.980, 866.250 77.144 C 867.250 78.838, 867.250 79.352, 866.250 79.714 C 865.563 79.963, 865 80.793, 865 81.558 C 865 82.592, 865.837 82.787, 868.250 82.316 C 870.038 81.968, 871.650 81.304, 871.833 80.841 C 872.017 80.379, 873.254 80, 874.583 80 C 878.065 80, 877.556 78.591, 873.500 77 C 871.575 76.245, 870 75.036, 870 74.313 C 870 73.591, 869.487 73, 868.860 73 C 868.233 73, 867.123 72.213, 866.392 71.250 C 865.185 69.660, 865.061 69.752, 865.032 72.264 M 299 72 C 299 72.550, 299.423 73, 299.941 73 C 300.459 73, 301.160 72.550, 301.500 72 C 301.840 71.450, 301.416 71, 300.559 71 C 299.702 71, 299 71.450, 299 72 M 450 71.882 C 450 72.432, 450.450 73.160, 451 73.500 C 451.550 73.840, 452 73.668, 452 73.118 C 452 72.568, 451.550 71.840, 451 71.500 C 450.450 71.160, 450 71.332, 450 71.882 M 294.500 74 C 294.160 74.550, 294.809 75, 295.941 75 C 297.073 75, 298 74.550, 298 74 C 298 73.450, 297.352 73, 296.559 73 C 295.766 73, 294.840 73.450, 294.500 74 M 797 75.783 C 793.077 76.389, 792.364 77.808, 795.402 78.963 C 799.422 80.491, 801 80.237, 801 78.059 C 801 75.704, 800.256 75.281, 797 75.783 M 292.500 77 C 292.840 77.550, 293.316 78, 293.559 78 C 293.802 78, 294 77.550, 294 77 C 294 76.450, 293.523 76, 292.941 76 C 292.359 76, 292.160 76.450, 292.500 77 M 452.015 76.750 C 452.024 77.162, 452.467 78.175, 453 79 C 453.784 80.213, 453.972 80.069, 453.985 78.250 C 453.993 77.013, 453.550 76, 453 76 C 452.450 76, 452.007 76.338, 452.015 76.750 M 285.538 78.309 C 284.459 78.964, 281.829 80.545, 279.693 81.822 C 277.558 83.099, 276.053 84.386, 276.348 84.681 C 276.643 84.977, 278.218 84.269, 279.847 83.109 C 281.476 81.949, 283.189 80.990, 283.654 80.978 C 284.119 80.966, 285.625 80.076, 287 79 C 289.722 76.871, 288.701 76.388, 285.538 78.309 M 454.044 82.101 C 453.984 84.278, 456.042 90.269, 457.273 91.500 C 458.423 92.651, 457.944 90.636, 455.610 84.500 C 454.773 82.300, 454.068 81.220, 454.044 82.101 M 268 88.059 C 268 88.641, 268.450 88.840, 269 88.500 C 269.550 88.160, 270 87.684, 270 87.441 C 270 87.198, 269.550 87, 269 87 C 268.450 87, 268 87.477, 268 88.059 M 263.250 90.360 C 262.012 90.973, 261 91.818, 261 92.237 C 261 93.628, 263.054 93.028, 265.230 91 C 267.555 88.834, 266.814 88.595, 263.250 90.360 M 760.128 93.735 C 758.423 94.561, 757.273 95.633, 757.573 96.118 C 758.344 97.365, 760.669 97.212, 763.144 95.750 C 764.838 94.750, 765.352 94.750, 765.714 95.750 C 766.402 97.650, 769.198 97.265, 768.823 95.322 C 768.339 92.809, 763.763 91.974, 760.128 93.735 M 253 97.056 C 249.975 99.172, 246.938 100.924, 246.250 100.951 C 245.563 100.978, 245 101.661, 245 102.469 C 245 103.363, 245.586 103.712, 246.500 103.362 C 247.325 103.045, 248 102.384, 248 101.893 C 248 101.402, 248.675 101, 249.500 101 C 250.325 101, 251 100.626, 251 100.169 C 251 99.712, 252.238 98.699, 253.750 97.919 C 256.797 96.347, 259.440 94.095, 258.869 93.557 C 258.666 93.366, 256.025 94.940, 253 97.056 M 458.015 98.191 C 458.007 100.221, 458.450 102.160, 459 102.500 C 460.290 103.297, 460.290 97.996, 459 96 C 458.277 94.882, 458.027 95.440, 458.015 98.191 M 802.250 97.031 C 800.610 97.690, 800 98.758, 800 100.968 C 800 103.535, 800.383 104, 802.500 104 C 804.214 104, 805.001 103.449, 805.002 102.250 C 805.003 100.949, 805.947 100.432, 808.682 100.236 C 812.986 99.928, 813.450 99.614, 812.655 97.543 C 811.991 95.812, 806.014 95.518, 802.250 97.031 M 843.813 99.683 C 844.534 99.972, 845.397 99.936, 845.729 99.604 C 846.061 99.272, 845.471 99.036, 844.417 99.079 C 843.252 99.127, 843.015 99.364, 843.813 99.683 M 838 101.889 C 838 102.916, 844.924 104.409, 845.769 103.564 C 846.079 103.254, 845.358 103, 844.167 103 C 842.975 103, 842 102.550, 842 102 C 842 101.450, 841.100 101, 840 101 C 838.900 101, 838 101.400, 838 101.889 M 239.453 105.500 C 238.379 106.325, 235.279 108.660, 232.564 110.688 C 229.849 112.716, 228.146 114.549, 228.780 114.760 C 229.414 114.971, 231.105 114.057, 232.538 112.727 C 233.972 111.398, 236.900 109.228, 239.045 107.905 C 241.191 106.582, 242.958 105.162, 242.973 104.750 C 243.016 103.564, 241.575 103.871, 239.453 105.500 M 822.378 106.802 C 820.487 108.529, 818.235 109.583, 816.503 109.552 C 814.959 109.523, 813.501 110.063, 813.264 110.750 C 813.027 111.438, 813.546 112, 814.417 112 C 815.288 112, 816 112.399, 816 112.887 C 816 113.374, 817.332 113.968, 818.960 114.207 C 821.540 114.586, 821.999 114.280, 822.539 111.821 C 822.880 110.269, 823.798 109, 824.579 109 C 825.428 109, 826 107.993, 826 106.500 C 826 105.125, 825.875 104, 825.723 104 C 825.570 104, 824.065 105.261, 822.378 106.802 M 460.645 108 C 461.436 112.313, 462.005 113.126, 461.985 109.917 C 461.976 108.588, 461.527 106.825, 460.986 106 C 460.294 104.945, 460.193 105.538, 460.645 108 M 733 107.594 C 733 109.139, 735.557 109.526, 736.430 108.114 C 736.731 107.626, 736.083 106.993, 734.989 106.707 C 733.700 106.370, 733 106.682, 733 107.594 M 828.510 110.016 C 828.856 110.575, 829.557 110.774, 830.069 110.457 C 831.456 109.600, 831.198 109, 829.441 109 C 828.584 109, 828.165 109.457, 828.510 110.016 M 807 113 C 807 113.550, 807.702 114, 808.559 114 C 809.416 114, 809.840 113.550, 809.500 113 C 809.160 112.450, 808.459 112, 807.941 112 C 807.423 112, 807 112.450, 807 113 M 723 113.446 C 723 113.809, 724.125 115.762, 725.500 117.785 L 728 121.464 728 117.732 C 728 115.679, 727.587 114, 727.082 114 C 726.577 114, 725.452 113.727, 724.582 113.393 C 723.712 113.059, 723 113.083, 723 113.446 M 812 115.442 C 810.625 116.205, 807.813 117.564, 805.750 118.462 C 803.688 119.359, 802 120.523, 802 121.047 C 802 122.589, 803.998 122.146, 806.727 120 C 808.126 118.900, 809.997 117.986, 810.885 117.968 C 812.595 117.935, 816 115.719, 816 114.640 C 816 113.663, 814.752 113.913, 812 115.442 M 222.502 118.410 C 221.072 119.736, 220.261 121.030, 220.701 121.286 C 221.140 121.541, 222.850 120.457, 224.500 118.876 C 226.150 117.296, 226.961 116.002, 226.302 116.001 C 225.642 116.001, 223.933 117.085, 222.502 118.410 M 462.070 117.691 C 462.032 118.896, 461.528 120.174, 460.951 120.530 C 459.807 121.237, 461.535 124, 463.122 124 C 464.218 124, 464.146 120.166, 463 117.500 C 462.171 115.572, 462.138 115.579, 462.070 117.691 M 897.286 121.392 C 893.307 123.382, 891.012 126.120, 894.750 124.417 C 895.712 123.978, 897.932 123.592, 899.681 123.560 C 902.162 123.513, 902.957 123.005, 903.293 121.250 C 903.806 118.564, 902.896 118.586, 897.286 121.392 M 446 121 C 440.724 121.647, 440.839 121.681, 448.809 121.837 C 454.133 121.941, 456.896 121.641, 456.500 121 C 455.843 119.936, 454.680 119.936, 446 121 M 214.958 124.039 C 213.056 125.665, 211.950 126.996, 212.500 126.996 C 213.791 126.998, 219.467 122.133, 218.870 121.537 C 218.621 121.288, 216.861 122.414, 214.958 124.039 M 424.500 123 C 423.084 123.609, 424.306 123.880, 428.691 123.930 C 432.096 123.968, 435.160 123.550, 435.500 123 C 436.261 121.768, 427.367 121.768, 424.500 123 M 731 125 C 731 126.650, 731.450 128, 732 128 C 732.550 128, 733 126.650, 733 125 C 733 123.350, 732.550 122, 732 122 C 731.450 122, 731 123.350, 731 125 M 416 125 C 416 125.550, 416.675 126, 417.500 126 C 418.325 126, 419 125.550, 419 125 C 419 124.450, 418.325 124, 417.500 124 C 416.675 124, 416 124.450, 416 125 M 889 125.883 C 889 126.369, 888.007 127.026, 886.794 127.344 C 885.580 127.661, 884.879 128.213, 885.236 128.570 C 886.007 129.341, 892 126.848, 892 125.756 C 892 125.340, 891.325 125, 890.500 125 C 889.675 125, 889 125.398, 889 125.883 M 404.500 127 C 403.708 128.282, 408.017 128.282, 410 127 C 411.141 126.262, 410.737 126.027, 408.309 126.015 C 406.554 126.007, 404.840 126.450, 404.500 127 M 396.500 129 C 395.711 130.277, 399.024 130.277, 401 129 C 402.173 128.242, 401.914 128.027, 399.809 128.015 C 398.329 128.007, 396.840 128.450, 396.500 129 M 881 130 C 881 130.550, 881.450 131, 882 131 C 882.550 131, 883 130.550, 883 130 C 883 129.450, 882.550 129, 882 129 C 881.450 129, 881 129.450, 881 130 M 391.473 130.956 C 391.798 131.482, 392.725 131.659, 393.532 131.349 C 395.599 130.556, 395.356 130, 392.941 130 C 391.809 130, 391.148 130.430, 391.473 130.956 M 875.232 133.539 C 872.885 134.740, 870.149 136.460, 869.153 137.361 C 868.157 138.263, 866.905 139, 866.371 139 C 864.845 139, 860.016 141.423, 860.008 142.194 C 859.997 143.114, 869.405 138.965, 869.833 137.859 C 870.017 137.387, 871.029 137, 872.083 137 C 873.138 137, 874 136.550, 874 136 C 874 135.450, 874.589 135, 875.309 135 C 876.865 135, 880.715 132.340, 879.998 131.760 C 879.724 131.538, 877.579 132.339, 875.232 133.539 M 384 133 C 384 133.550, 384.675 134, 385.500 134 C 386.325 134, 387 133.550, 387 133 C 387 132.450, 386.325 132, 385.500 132 C 384.675 132, 384 132.450, 384 133 M 202.250 134.496 C 201.563 135.277, 201 136.111, 201 136.351 C 201 136.590, 201.563 137.002, 202.250 137.265 C 203.014 137.558, 203.556 136.822, 203.644 135.372 C 203.724 134.068, 203.724 133.017, 203.644 133.038 C 203.565 133.059, 202.938 133.715, 202.250 134.496 M 377.652 134.491 C 376.822 135.321, 375.462 136, 374.630 136 C 373.799 136, 372.840 136.450, 372.500 137 C 371.479 138.651, 374.738 138.130, 378.059 136.110 C 379.768 135.071, 380.715 133.942, 380.164 133.601 C 379.612 133.260, 378.482 133.661, 377.652 134.491 M 734.500 134 C 733.771 135.180, 734.717 137, 736.059 137 C 736.577 137, 737 136.100, 737 135 C 737 132.891, 735.545 132.309, 734.500 134 M 198.597 137.844 C 198.251 138.404, 198.455 139.163, 199.050 139.531 C 200.588 140.481, 201.580 139.180, 200.296 137.896 C 199.578 137.178, 199.019 137.161, 198.597 137.844 M 747.015 138.250 C 747.053 141.299, 749.003 142.444, 754.445 142.612 C 758.789 142.745, 760 142.456, 760 141.284 C 760 140.336, 759.426 140.006, 758.435 140.387 C 757.233 140.848, 757.016 140.524, 757.502 138.994 C 758.082 137.165, 757.674 137, 752.567 137 C 748.772 137, 747.005 137.398, 747.015 138.250 M 775.861 138.948 L 773.500 140.896 776 140.293 C 777.375 139.961, 779.388 139.084, 780.473 138.345 C 782.415 137.020, 782.413 137, 780.333 137 C 779.172 137, 777.159 137.877, 775.861 138.948 M 368.500 139 C 368.160 139.550, 368.359 140, 368.941 140 C 369.523 140, 370 139.550, 370 139 C 370 138.450, 369.802 138, 369.559 138 C 369.316 138, 368.840 138.450, 368.500 139 M 197 141 C 197 141.550, 197.450 142, 198 142 C 198.550 142, 199 141.550, 199 141 C 199 140.450, 198.550 140, 198 140 C 197.450 140, 197 140.450, 197 141 M 359 142 C 357.667 142.862, 357.667 142.969, 359 142.969 C 359.825 142.969, 361.175 142.533, 362 142 C 363.333 141.138, 363.333 141.031, 362 141.031 C 361.175 141.031, 359.825 141.467, 359 142 M 191.980 144.524 C 190.048 146.853, 191.426 147.291, 193.494 145.006 C 194.493 143.903, 194.845 143, 194.277 143 C 193.710 143, 192.676 143.686, 191.980 144.524 M 854 145 C 852.346 146.294, 852.008 146.956, 853 146.956 C 853.825 146.956, 855.625 146.076, 857 145 C 858.654 143.706, 858.992 143.044, 858 143.044 C 857.175 143.044, 855.375 143.924, 854 145 M 351.250 145.360 C 348.676 146.635, 348.288 148, 350.500 148 C 351.325 148, 352 147.550, 352 147 C 352 146.450, 352.648 146, 353.441 146 C 354.234 146, 355.160 145.550, 355.500 145 C 356.283 143.733, 354.174 143.912, 351.250 145.360 M 186.638 149.500 C 186.322 150.325, 186.444 151, 186.909 151 C 187.374 151, 188.315 150.325, 189 149.500 C 190.013 148.279, 189.963 148, 188.729 148 C 187.896 148, 186.955 148.675, 186.638 149.500 M 337 152.115 C 332.875 154.238, 329.050 156.144, 328.500 156.350 C 327.950 156.557, 327.835 157.085, 328.244 157.524 C 328.653 157.962, 329.813 157.574, 330.823 156.661 C 331.832 155.747, 333.072 154.998, 333.579 154.996 C 334.085 154.994, 336.714 153.869, 339.419 152.496 C 342.125 151.123, 344.911 150, 345.610 150 C 346.310 150, 347.160 149.550, 347.500 149 C 348.716 147.032, 344.375 148.320, 337 152.115 M 751.500 149 C 749.992 149.648, 750.606 149.859, 754 149.859 C 757.394 149.859, 758.008 149.648, 756.500 149 C 755.400 148.527, 754.275 148.141, 754 148.141 C 753.725 148.141, 752.600 148.527, 751.500 149 M 848.500 149 C 848.160 149.550, 848.584 150, 849.441 150 C 850.298 150, 851 149.550, 851 149 C 851 148.450, 850.577 148, 850.059 148 C 849.541 148, 848.840 148.450, 848.500 149 M 183.597 151.844 C 183.251 152.404, 183.455 153.163, 184.050 153.531 C 185.588 154.481, 186.580 153.180, 185.296 151.896 C 184.578 151.178, 184.019 151.161, 183.597 151.844 M 837.500 154 C 837.160 154.550, 837.584 155, 838.441 155 C 839.298 155, 840 154.550, 840 154 C 840 153.450, 839.577 153, 839.059 153 C 838.541 153, 837.840 153.450, 837.500 154 M 832.571 156.571 C 831.512 157.346, 830.871 158.204, 831.146 158.479 C 831.421 158.754, 832.512 158.346, 833.571 157.571 C 834.630 156.797, 835.272 155.939, 834.997 155.664 C 834.722 155.389, 833.630 155.797, 832.571 156.571 M 172.500 164.593 C 169.750 167.619, 166.938 170.717, 166.250 171.476 C 165.563 172.236, 165 173.387, 165 174.034 C 165 174.682, 166.350 173.766, 168 172 C 169.650 170.234, 171 168.615, 171 168.403 C 171 168.191, 172.245 166.776, 173.767 165.259 C 177.588 161.448, 179.409 158.992, 178.372 159.045 C 177.893 159.069, 175.250 161.566, 172.500 164.593 M 322 160.177 C 320.572 160.778, 320.025 161.426, 320.724 161.689 C 321.398 161.942, 322.960 161.441, 324.197 160.575 C 326.739 158.794, 325.727 158.611, 322 160.177 M 827 160 C 827 160.550, 827.450 161, 828 161 C 828.550 161, 829 160.550, 829 160 C 829 159.450, 828.550 159, 828 159 C 827.450 159, 827 159.450, 827 160 M 820.500 164 C 818.547 165.293, 818.072 165.989, 819.139 165.993 C 820.885 166, 826.194 162.085, 824.500 162.040 C 823.950 162.025, 822.150 162.907, 820.500 164 M 311.405 166.146 C 310.081 167.637, 309.958 168.095, 311 167.647 C 311.825 167.292, 313.288 166.724, 314.250 166.384 C 315.212 166.045, 316 165.369, 316 164.883 C 316 163.248, 313.325 163.983, 311.405 166.146 M 811.450 167.857 C 810.928 168.328, 808.475 169.791, 806 171.107 C 803.525 172.423, 801.275 173.746, 801 174.047 C 800.725 174.348, 797.884 175.857, 794.687 177.401 C 791.491 178.945, 789.071 180.404, 789.310 180.644 C 789.863 181.196, 802.873 175.015, 803.586 173.861 C 803.879 173.387, 804.991 173, 806.059 173 C 807.127 173, 808 172.601, 808 172.114 C 808 171.627, 809.575 170.480, 811.500 169.567 C 813.425 168.654, 815 167.702, 815 167.453 C 815 166.670, 812.444 166.961, 811.450 167.857 M 306.500 169 C 306.160 169.550, 306.610 170, 307.500 170 C 308.390 170, 308.840 169.550, 308.500 169 C 308.160 168.450, 307.710 168, 307.500 168 C 307.290 168, 306.840 168.450, 306.500 169 M 301.500 172 C 301.160 172.550, 301.557 173, 302.382 173 C 303.207 173, 304.160 172.550, 304.500 172 C 304.840 171.450, 304.443 171, 303.618 171 C 302.793 171, 301.840 171.450, 301.500 172 M 296 175.500 C 294.708 176.875, 294.180 178, 294.826 178 C 295.472 178, 296 177.602, 296 177.117 C 296 176.631, 296.900 175.998, 298 175.710 C 299.100 175.423, 300 174.695, 300 174.094 C 300 172.309, 298.503 172.836, 296 175.500 M 162.250 176.662 C 160.820 177.239, 160.551 179, 161.893 179 C 162.384 179, 163.045 178.325, 163.362 177.500 C 163.678 176.675, 163.839 176.036, 163.719 176.079 C 163.598 176.122, 162.938 176.385, 162.250 176.662 M 290.500 179 C 290.160 179.550, 290.332 180, 290.882 180 C 291.432 180, 292.160 179.550, 292.500 179 C 292.840 178.450, 292.668 178, 292.118 178 C 291.568 178, 290.840 178.450, 290.500 179 M 157.689 183.163 C 154.062 187.919, 154.282 189.048, 158.064 185.090 C 159.749 183.327, 160.960 181.379, 160.753 180.760 C 160.547 180.142, 159.169 181.223, 157.689 183.163 M 287 181 C 286.207 181.490, 285.783 182.116, 286.058 182.391 C 286.333 182.666, 287.207 182.490, 288 182 C 288.793 181.510, 289.217 180.884, 288.942 180.609 C 288.667 180.334, 287.793 180.510, 287 181 M 779.250 185.637 C 775.263 187.627, 772 189.648, 772 190.128 C 772 191.417, 772.889 191.204, 775.846 189.206 C 777.306 188.219, 780.638 186.348, 783.250 185.048 C 785.862 183.749, 788 182.531, 788 182.343 C 788 181.511, 786.034 182.251, 779.250 185.637 M 278.500 186.625 C 274.243 190.441, 274.391 190.522, 280.206 187.560 C 282.244 186.521, 284.143 185.070, 284.425 184.336 C 285.358 181.904, 282.559 182.986, 278.500 186.625 M 153 190 C 153 190.550, 153.450 191, 154 191 C 154.550 191, 155 190.550, 155 190 C 155 189.450, 154.550 189, 154 189 C 153.450 189, 153 189.450, 153 190 M 271.029 191.961 C 270.220 192.473, 269.861 193.194, 270.231 193.565 C 270.602 193.935, 271.633 193.510, 272.524 192.619 C 274.283 190.860, 273.391 190.467, 271.029 191.961 M 768 192 C 768 192.550, 768.450 193, 769 193 C 769.550 193, 770 192.550, 770 192 C 770 191.450, 769.550 191, 769 191 C 768.450 191, 768 191.450, 768 192 M 900.849 192.750 C 900.766 193.713, 900.791 195.709, 900.905 197.187 C 901.226 201.370, 899.115 208, 897.461 208 C 896.658 208, 896 208.488, 896 209.083 C 896 209.679, 896.563 209.904, 897.250 209.584 C 897.938 209.263, 899.288 208.724, 900.250 208.384 C 901.728 207.863, 902 206.466, 902 199.383 C 902 194.773, 901.775 191, 901.500 191 C 901.225 191, 900.932 191.787, 900.849 192.750 M 151 194.059 C 151 195.191, 151.450 195.840, 152 195.500 C 152.550 195.160, 153 194.234, 153 193.441 C 153 192.648, 152.550 192, 152 192 C 151.450 192, 151 192.927, 151 194.059 M 764.813 193.683 C 765.534 193.972, 766.397 193.936, 766.729 193.604 C 767.061 193.272, 766.471 193.036, 765.417 193.079 C 764.252 193.127, 764.015 193.364, 764.813 193.683 M 265.575 196.059 C 264.398 197.246, 264.134 198, 264.896 198 C 266.157 198, 269 195.624, 269 194.571 C 269 193.475, 267.486 194.133, 265.575 196.059 M 760 196.383 C 760 196.594, 760.901 197.002, 762.001 197.290 C 763.102 197.578, 763.751 197.405, 763.442 196.907 C 762.904 196.036, 760 195.594, 760 196.383 M 145.339 204.009 C 143.050 207.849, 141.588 211.245, 142.089 211.555 C 142.590 211.865, 143 211.416, 143 210.559 C 143 209.702, 143.450 209, 144 209 C 144.550 209, 145 208.540, 145 207.979 C 145 207.417, 146.170 205.189, 147.600 203.028 C 149.030 200.868, 150.042 198.633, 149.850 198.063 C 149.657 197.493, 147.627 200.168, 145.339 204.009 M 749.604 201.750 C 744.711 204.309, 741.263 206.588, 741.941 206.814 C 742.620 207.040, 743.676 206.724, 744.287 206.113 C 744.899 205.501, 746.173 205, 747.117 205 C 748.061 205, 748.983 204.662, 749.167 204.250 C 749.350 203.838, 751.638 202.456, 754.250 201.180 C 756.862 199.904, 759 198.441, 759 197.930 C 759 196.737, 759.847 196.393, 749.604 201.750 M 249.621 207.580 C 245.390 211.571, 245.287 213.470, 249.499 209.824 C 251.876 207.767, 254.621 204, 253.744 204 C 253.564 204, 251.709 205.611, 249.621 207.580 M 731.200 211.723 C 728.890 213.221, 727 214.796, 727 215.223 C 727 216.505, 728.670 216.102, 730 214.500 C 730.685 213.675, 731.640 213, 732.122 213 C 732.605 213, 733.900 212.100, 735 211 C 737.803 208.197, 736.154 208.511, 731.200 211.723 M 886 214.543 C 883.525 216.418, 880.513 217.962, 879.306 217.976 C 876.622 218.005, 870.580 222.919, 873.167 222.968 C 874.083 222.986, 874.983 222.658, 875.167 222.240 C 875.350 221.821, 878.965 219.758, 883.199 217.653 C 890.871 213.841, 894.706 210.929, 891.872 211.067 C 891.118 211.104, 888.475 212.668, 886 214.543 M 240 215.500 C 236.997 218.697, 238.586 218.677, 242.500 215.469 C 244.501 213.829, 244.975 213.008, 243.924 213.005 C 243.058 213.002, 241.292 214.125, 240 215.500 M 139.583 214.866 C 139.152 215.563, 139.070 216.403, 139.400 216.733 C 140.295 217.628, 141.271 216.312, 140.787 214.862 C 140.449 213.846, 140.213 213.846, 139.583 214.866 M 137 220.559 C 137 221.416, 137.450 221.840, 138 221.500 C 138.550 221.160, 139 220.459, 139 219.941 C 139 219.423, 138.550 219, 138 219 C 137.450 219, 137 219.702, 137 220.559 M 235 220.059 C 235 220.641, 235.450 220.840, 236 220.500 C 236.550 220.160, 237 219.684, 237 219.441 C 237 219.198, 236.550 219, 236 219 C 235.450 219, 235 219.477, 235 220.059 M 229.333 225.230 C 226.154 227.488, 223.350 231.007, 224.742 230.991 C 225.553 230.982, 233 224.170, 233 223.437 C 233 222.713, 232.603 222.906, 229.333 225.230 M 135 225.559 C 135 226.416, 135.450 226.840, 136 226.500 C 136.550 226.160, 137 225.459, 137 224.941 C 137 224.423, 136.550 224, 136 224 C 135.450 224, 135 224.702, 135 225.559 M 865.500 227 C 865.160 227.550, 865.332 228, 865.882 228 C 866.432 228, 867.160 227.550, 867.500 227 C 867.840 226.450, 867.668 226, 867.118 226 C 866.568 226, 865.840 226.450, 865.500 227 M 133 231.393 C 133 232.709, 133.725 234.064, 134.611 234.404 C 135.791 234.857, 136.059 234.596, 135.611 233.430 C 135.275 232.553, 135 231.198, 135 230.418 C 135 229.638, 134.550 229, 134 229 C 133.450 229, 133 230.077, 133 231.393 M 857.682 230.613 C 858.286 232.188, 859.616 232.430, 860.430 231.114 C 860.731 230.626, 860.116 230.002, 859.064 229.727 C 857.724 229.376, 857.309 229.642, 857.682 230.613 M 219 234.810 C 219 235.256, 217.756 236.943, 216.235 238.560 C 210.968 244.162, 210.665 245.477, 215.789 240.500 C 220.916 235.519, 221.901 234, 220 234 C 219.450 234, 219 234.365, 219 234.810 M 131 236.941 C 131 238.009, 131.450 239.160, 132 239.500 C 132.567 239.851, 133 239.010, 133 237.559 C 133 236.152, 132.550 235, 132 235 C 131.450 235, 131 235.873, 131 236.941 M 849 237.059 C 849 237.641, 849.450 237.840, 850 237.500 C 850.550 237.160, 851 236.684, 851 236.441 C 851 236.198, 850.550 236, 850 236 C 849.450 236, 849 236.477, 849 237.059 M 846 239.059 C 846 239.641, 846.450 239.840, 847 239.500 C 847.550 239.160, 848 238.684, 848 238.441 C 848 238.198, 847.550 238, 847 238 C 846.450 238, 846 238.477, 846 239.059 M 842 241.059 C 842 241.641, 842.450 241.840, 843 241.500 C 843.550 241.160, 844 240.684, 844 240.441 C 844 240.198, 843.550 240, 843 240 C 842.450 240, 842 240.477, 842 241.059 M 834.286 244.392 C 830.127 246.473, 828.816 248.021, 831.250 247.978 C 831.938 247.966, 833.625 247.076, 835 246 C 836.375 244.924, 838.063 244.034, 838.750 244.022 C 839.438 244.010, 840 243.550, 840 243 C 840 241.701, 839.346 241.861, 834.286 244.392 M 127.750 247.571 C 127.338 247.990, 127 249.698, 127 251.367 C 127 253.536, 127.307 254.093, 128.078 253.322 C 128.671 252.729, 129.009 251.021, 128.828 249.526 C 128.648 248.031, 128.162 247.151, 127.750 247.571 M 823.750 250.324 C 819.782 253.573, 820.370 254.362, 825 252 C 827.200 250.878, 829 249.518, 829 248.980 C 829 247.344, 826.656 247.944, 823.750 250.324 M 125.750 256.332 C 125.338 257.339, 125.029 260.039, 125.063 262.332 C 125.121 266.095, 125.222 266.260, 126.111 264.034 C 126.652 262.678, 126.961 259.978, 126.798 258.034 C 126.572 255.350, 126.320 254.940, 125.750 256.332 M 815.029 255.961 C 814.220 256.473, 813.907 257.240, 814.333 257.667 C 814.760 258.093, 815.422 257.960, 815.804 257.371 C 816.187 256.782, 817.175 256.043, 818 255.729 C 819.333 255.221, 819.333 255.151, 818 255.094 C 817.175 255.059, 815.838 255.449, 815.029 255.961 M 200 257.559 C 200 258.416, 200.450 258.840, 201 258.500 C 201.550 258.160, 202 257.459, 202 256.941 C 202 256.423, 201.550 256, 201 256 C 200.450 256, 200 256.702, 200 257.559 M 807 261 C 807 261.550, 807.450 262, 808 262 C 808.550 262, 809 261.550, 809 261 C 809 260.450, 808.550 260, 808 260 C 807.450 260, 807 260.450, 807 261 M 196 263 C 196 263.550, 196.450 264, 197 264 C 197.550 264, 198 263.550, 198 263 C 198 262.450, 197.550 262, 197 262 C 196.450 262, 196 262.450, 196 263 M 802 263.582 C 800.625 264.345, 799.050 265.139, 798.500 265.347 C 797.950 265.556, 797.782 266.032, 798.126 266.406 C 798.845 267.186, 805.938 263.883, 805.975 262.750 C 806.009 261.725, 804.950 261.946, 802 263.582 M 192.583 267.643 C 191.639 270.106, 192.454 270.261, 194.494 268.006 C 196.029 266.310, 196.070 266, 194.762 266 C 193.911 266, 192.930 266.739, 192.583 267.643 M 632.694 266.639 C 631.761 267.573, 632.888 269, 634.559 269 C 635.352 269, 636 268.325, 636 267.500 C 636 265.994, 633.889 265.444, 632.694 266.639 M 123.648 272.250 C 122.804 279.277, 123.006 292.896, 124 296 C 124.480 297.499, 124.841 292.196, 124.900 282.750 C 124.955 274.087, 124.838 267, 124.639 267 C 124.441 267, 123.995 269.363, 123.648 272.250 M 792.750 268.758 C 790.136 270.379, 789.131 272.006, 790.750 271.995 C 791.163 271.992, 792.850 270.883, 794.500 269.531 C 797.939 266.712, 796.835 266.225, 792.750 268.758 M 189.183 273.217 C 188.532 273.868, 188 274.985, 188 275.700 C 188 276.415, 187.550 277, 187 277 C 186.450 277, 186 278.180, 186 279.622 C 186 281.840, 185.768 282.053, 184.500 281 C 182.822 279.607, 182.532 280.711, 183.976 282.995 C 184.787 284.278, 185.135 284.207, 186.429 282.495 C 187.258 281.398, 187.951 279.922, 187.968 279.215 C 187.986 278.508, 188.736 276.806, 189.635 275.434 C 191.403 272.736, 191.108 271.292, 189.183 273.217 M 786.500 273 C 786.160 273.550, 786.332 274, 786.882 274 C 787.432 274, 788.160 273.550, 788.500 273 C 788.840 272.450, 788.668 272, 788.118 272 C 787.568 272, 786.840 272.450, 786.500 273 M 783.500 275 C 783.160 275.550, 783.359 276, 783.941 276 C 784.523 276, 785 275.550, 785 275 C 785 274.450, 784.802 274, 784.559 274 C 784.316 274, 783.840 274.450, 783.500 275 M 613.500 277.469 C 611.155 279.391, 610.889 279.936, 612.281 279.964 C 613.261 279.984, 614.322 279.325, 614.638 278.500 C 614.955 277.675, 616.066 277, 617.107 277 C 618.148 277, 619 276.550, 619 276 C 619 274.277, 616.619 274.913, 613.500 277.469 M 776.813 275.683 C 777.534 275.972, 778.397 275.936, 778.729 275.604 C 779.061 275.272, 778.471 275.036, 777.417 275.079 C 776.252 275.127, 776.015 275.364, 776.813 275.683 M 774 280.002 C 772.075 281.007, 769.600 282.144, 768.500 282.531 C 767.118 283.016, 766.913 283.386, 767.837 283.729 C 769.353 284.291, 778 280.134, 778 278.843 C 778 277.840, 778.327 277.745, 774 280.002 M 603.250 282.360 C 602.013 282.973, 601 283.765, 601 284.119 C 601 284.844, 607.584 282.749, 608.648 281.685 C 609.712 280.621, 605.764 281.115, 603.250 282.360 M 596.500 286 C 596.160 286.550, 596.809 287, 597.941 287 C 599.073 287, 600 286.550, 600 286 C 600 285.450, 599.352 285, 598.559 285 C 597.766 285, 596.840 285.450, 596.500 286 M 182.125 287.836 C 180.722 290.381, 181.380 292.020, 183.110 290.290 C 183.703 289.697, 184.013 288.377, 183.800 287.356 C 183.452 285.690, 183.280 285.740, 182.125 287.836 M 761.658 287.449 C 761.286 288.418, 761.582 288.714, 762.551 288.342 C 764.133 287.735, 764.545 286, 763.107 286 C 762.616 286, 761.964 286.652, 761.658 287.449 M 593 288 C 593 288.550, 593.450 289, 594 289 C 594.550 289, 595 288.550, 595 288 C 595 287.450, 594.550 287, 594 287 C 593.450 287, 593 287.450, 593 288 M 589 290 C 589 290.550, 589.423 291, 589.941 291 C 590.459 291, 591.160 290.550, 591.500 290 C 591.840 289.450, 591.416 289, 590.559 289 C 589.702 289, 589 289.450, 589 290 M 583.232 292.449 C 579.894 294.293, 579.432 295.003, 581.583 294.978 C 582.638 294.966, 584.625 294.076, 586 293 C 588.822 290.792, 586.917 290.413, 583.232 292.449 M 753.761 293.973 C 752.344 295.088, 750.558 296, 749.792 296 C 749.027 296, 747.972 296.405, 747.450 296.900 C 746.612 297.693, 737.191 302.702, 713.500 314.949 C 709.650 316.940, 705.375 319.302, 704 320.199 C 700.318 322.602, 677.104 334.818, 672.750 336.644 C 667.993 338.640, 667.991 338.757, 672.556 349.500 C 673.257 351.150, 679.303 366.225, 685.992 383 C 692.681 399.775, 699.295 416.200, 700.689 419.500 C 702.083 422.800, 703.623 426.512, 704.112 427.750 C 706.815 434.598, 709.466 438.124, 714.500 441.570 C 721.206 446.161, 722.773 446.290, 777.250 446.741 C 805.712 446.977, 829 446.958, 829 446.698 C 829 446.439, 826.942 441.788, 824.427 436.364 C 816.619 419.524, 815.364 416.782, 810.988 407 C 808.651 401.775, 805.177 394.156, 803.270 390.069 C 801.362 385.982, 798.091 378.751, 796 374 C 793.909 369.249, 790.627 362.018, 788.706 357.931 C 786.784 353.844, 784.218 348.250, 783.002 345.500 C 781.787 342.750, 779.536 337.800, 778 334.500 C 776.464 331.200, 774.206 326.250, 772.981 323.500 C 771.757 320.750, 768.770 314.225, 766.345 309 C 757.741 290.461, 757.934 290.691, 753.761 293.973 M 180.079 294.583 C 180.127 295.748, 180.364 295.985, 180.683 295.188 C 180.972 294.466, 180.936 293.603, 180.604 293.271 C 180.272 292.939, 180.036 293.529, 180.079 294.583 M 576.500 296 C 576.160 296.550, 576.584 297, 577.441 297 C 578.298 297, 579 296.550, 579 296 C 579 295.450, 578.577 295, 578.059 295 C 577.541 295, 576.840 295.450, 576.500 296 M 572.500 298 C 572.160 298.550, 572.359 299, 572.941 299 C 573.523 299, 574 298.550, 574 298 C 574 297.450, 573.802 297, 573.559 297 C 573.316 297, 572.840 297.450, 572.500 298 M 178 302.059 C 178 303.191, 178.450 303.840, 179 303.500 C 179.550 303.160, 180 302.234, 180 301.441 C 180 300.648, 179.550 300, 179 300 C 178.450 300, 178 300.927, 178 302.059 M 566.750 300.689 C 565.788 300.941, 565 301.564, 565 302.073 C 565 303.383, 566.186 303.174, 568.441 301.468 C 570.384 299.998, 570.026 299.833, 566.750 300.689 M 560 304 C 560 304.550, 560.450 305, 561 305 C 561.550 305, 562 304.550, 562 304 C 562 303.450, 561.550 303, 561 303 C 560.450 303, 560 303.450, 560 304 M 552.191 307.708 C 549.821 309.087, 548.070 310.403, 548.299 310.633 C 549.031 311.365, 558 307.114, 558 306.036 C 558 304.587, 557.115 304.842, 552.191 307.708 M 125.035 309.750 C 125.055 310.712, 125.761 312.625, 126.605 314 C 127.448 315.375, 127.882 315.676, 127.569 314.668 C 127.256 313.661, 127 311.748, 127 310.418 C 127 309.088, 126.550 308, 126 308 C 125.450 308, 125.016 308.788, 125.035 309.750 M 176.015 319.191 C 176.007 324.521, 176.376 329.115, 176.836 329.399 C 177.947 330.085, 178.001 312.609, 176.893 310.861 C 176.375 310.043, 176.025 313.369, 176.015 319.191 M 542.500 312 C 542.160 312.550, 542.332 313, 542.882 313 C 543.432 313, 544.160 312.550, 544.500 312 C 544.840 311.450, 544.668 311, 544.118 311 C 543.568 311, 542.840 311.450, 542.500 312 M 537 314 C 537 314.550, 537.900 315, 539 315 C 540.100 315, 541 314.550, 541 314 C 541 313.450, 540.100 313, 539 313 C 537.900 313, 537 313.450, 537 314 M 532.500 316 C 532.160 316.550, 532.557 317, 533.382 317 C 534.207 317, 535.160 316.550, 535.500 316 C 535.840 315.450, 535.443 315, 534.618 315 C 533.793 315, 532.840 315.450, 532.500 316 M 526.674 318.697 C 525.120 319.514, 524.025 320.358, 524.240 320.573 C 524.856 321.190, 531 318.652, 531 317.781 C 531 316.729, 530.028 316.935, 526.674 318.697 M 127 321.441 C 127 322.234, 127.450 323.160, 128 323.500 C 128.550 323.840, 129 323.191, 129 322.059 C 129 320.927, 128.550 320, 128 320 C 127.450 320, 127 320.648, 127 321.441 M 519 322.500 C 517.404 324.423, 519.032 324.443, 521.559 322.532 C 523.190 321.298, 523.240 321.059, 521.872 321.032 C 520.977 321.014, 519.685 321.675, 519 322.500 M 510.636 325.506 C 509.060 326.328, 507.174 327, 506.445 327 C 505.715 327, 504.840 327.450, 504.500 328 C 503.344 329.871, 507.486 328.998, 511.500 326.526 C 515.865 323.838, 515.243 323.103, 510.636 325.506 M 129.082 326.628 C 129.037 327.798, 129.617 330.273, 130.370 332.128 C 131.124 333.983, 131.550 336.021, 131.317 336.658 C 131.085 337.295, 131.368 338.110, 131.947 338.467 C 132.526 338.825, 133 339.902, 133 340.860 C 133 343.047, 135.248 347.982, 136.250 347.992 C 136.662 347.996, 137 349.098, 137 350.441 C 137 351.784, 137.450 353.160, 138 353.500 C 139.714 354.559, 139.096 350.232, 137 346.500 C 135.900 344.542, 135 342.053, 135 340.970 C 135 339.886, 134.609 339, 134.132 339 C 133.654 339, 133.032 337.313, 132.749 335.250 C 132.078 330.351, 129.198 323.582, 129.082 326.628 M 178 333.512 C 178 336.208, 180.591 339.743, 181.731 338.602 C 182.081 338.253, 181.834 337.434, 181.183 336.783 C 180.532 336.133, 180 334.817, 180 333.859 C 180 332.901, 179.550 331.840, 179 331.500 C 178.430 331.148, 178 332.013, 178 333.512 M 493.500 332 C 493.160 332.550, 491.784 333, 490.441 333 C 489.098 333, 488 333.450, 488 334 C 488 334.550, 487.100 335, 486 335 C 484.900 335, 484 335.450, 484 336 C 484 336.550, 484.648 337, 485.441 337 C 486.234 337, 487.160 336.550, 487.500 336 C 487.840 335.450, 488.896 335, 489.848 335 C 490.799 335, 493.342 334.100, 495.500 333 C 499.118 331.155, 499.217 331, 496.770 331 C 495.312 331, 493.840 331.450, 493.500 332 M 477.614 337.815 C 477.337 338.263, 474.386 339.501, 471.055 340.565 C 467.725 341.629, 465 342.837, 465 343.250 C 465 343.662, 464.325 344, 463.500 344 C 462.675 344, 462 344.488, 462 345.083 C 462 345.679, 462.337 346.005, 462.750 345.807 C 466.884 343.826, 471.263 341.899, 475 340.417 C 480.253 338.334, 482.110 337, 479.759 337 C 478.856 337, 477.891 337.367, 477.614 337.815 M 661.500 339.922 C 656.211 342.010, 653.387 343.720, 654.080 344.413 C 654.389 344.723, 657.086 343.757, 660.071 342.267 C 666.505 339.055, 666.448 339.090, 665.917 338.671 C 665.688 338.491, 663.700 339.054, 661.500 339.922 M 182 340.941 C 182 341.459, 182.450 342.160, 183 342.500 C 183.550 342.840, 184 342.416, 184 341.559 C 184 340.702, 183.550 340, 183 340 C 182.450 340, 182 340.423, 182 340.941 M 186.362 346 C 186.712 346.825, 187.253 348.175, 187.565 349 C 188.149 350.548, 198.925 358.662, 201.850 359.757 C 203.285 360.294, 203.321 360.154, 202.128 358.687 C 201.373 357.759, 200.135 357, 199.378 357 C 198.620 357, 198 356.550, 198 356 C 198 355.450, 197.563 355, 197.029 355 C 196.495 355, 193.734 352.637, 190.892 349.750 C 188.051 346.863, 186.013 345.175, 186.362 346 M 454 346 C 454 346.550, 454.675 347, 455.500 347 C 456.325 347, 457 346.550, 457 346 C 457 345.450, 456.325 345, 455.500 345 C 454.675 345, 454 345.450, 454 346 M 648 347 C 648 347.550, 648.423 348, 648.941 348 C 649.459 348, 650.160 347.550, 650.500 347 C 650.840 346.450, 650.416 346, 649.559 346 C 648.702 346, 648 346.450, 648 347 M 447.548 347.923 C 447.234 348.431, 445.600 349.149, 443.917 349.518 C 442.234 349.888, 441.036 350.369, 441.254 350.588 C 441.909 351.242, 452 348.590, 452 347.763 C 452 346.679, 448.233 346.814, 447.548 347.923 M 642 350 C 639.974 351.585, 639.832 351.960, 641.250 351.978 C 642.212 351.990, 643 351.550, 643 351 C 643 350.450, 643.648 350, 644.441 350 C 645.234 350, 646.160 349.550, 646.500 349 C 647.555 347.294, 644.629 347.944, 642 350 M 435 352 C 432.613 352.765, 432.644 352.805, 435.691 352.900 C 437.446 352.955, 439.160 352.550, 439.500 352 C 440.211 350.850, 438.591 350.850, 435 352 M 429.813 353.683 C 430.534 353.972, 431.397 353.936, 431.729 353.604 C 432.061 353.272, 431.471 353.036, 430.417 353.079 C 429.252 353.127, 429.015 353.364, 429.813 353.683 M 633.559 354.532 C 632.491 355.339, 632.068 356, 632.618 356 C 633.168 356, 634.491 355.339, 635.559 354.532 C 636.626 353.724, 637.050 353.064, 636.500 353.064 C 635.950 353.064, 634.626 353.724, 633.559 354.532 M 424 355.351 L 420.500 356.400 423.372 356.778 C 424.951 356.986, 426.721 356.679, 427.305 356.095 C 428.947 354.453, 427.832 354.202, 424 355.351 M 139.022 356.128 C 139.034 356.882, 139.888 358.598, 140.920 359.940 L 142.795 362.380 142.287 359.721 C 141.720 356.755, 138.984 353.743, 139.022 356.128 M 413.500 358 C 413.140 358.582, 414.137 359, 415.882 359 C 417.532 359, 419.160 358.550, 419.500 358 C 419.860 357.418, 418.863 357, 417.118 357 C 415.468 357, 413.840 357.450, 413.500 358 M 406.676 359.657 C 406.021 360.313, 399.855 361.646, 392.744 362.670 C 388.774 363.242, 386.546 365, 389.792 365 C 390.842 365, 393.006 364.599, 394.601 364.108 C 396.195 363.617, 400.200 362.645, 403.500 361.947 C 409.719 360.632, 412.967 359, 409.367 359 C 408.248 359, 407.038 359.296, 406.676 359.657 M 616 363 C 616 363.550, 616.675 364, 617.500 364 C 618.325 364, 619 363.550, 619 363 C 619 362.450, 618.325 362, 617.500 362 C 616.675 362, 616 362.450, 616 363 M 216.239 366.383 C 218.845 367.717, 223.345 369.071, 226.239 369.392 C 231.944 370.023, 231.813 369.878, 225 368.007 C 222.525 367.328, 219.600 366.402, 218.500 365.949 C 213.517 363.898, 211.967 364.195, 216.239 366.383 M 612 365 C 612 365.550, 612.675 366, 613.500 366 C 614.325 366, 615 365.550, 615 365 C 615 364.450, 614.325 364, 613.500 364 C 612.675 364, 612 364.450, 612 365 M 382.269 365.693 C 383.242 365.947, 384.592 365.930, 385.269 365.656 C 385.946 365.382, 385.150 365.175, 383.500 365.195 C 381.850 365.215, 381.296 365.439, 382.269 365.693 M 367.500 368 C 365.896 368.689, 366.242 368.873, 369.250 368.930 C 371.313 368.968, 373 368.550, 373 368 C 373 366.806, 370.279 366.806, 367.500 368 M 608.813 367.683 C 609.534 367.972, 610.397 367.936, 610.729 367.604 C 611.061 367.272, 610.471 367.036, 609.417 367.079 C 608.252 367.127, 608.015 367.364, 608.813 367.683 M 145 369 C 145 369.550, 145.450 370, 146 370 C 146.550 370, 147 369.550, 147 369 C 147 368.450, 146.550 368, 146 368 C 145.450 368, 145 368.450, 145 369 M 602.750 369.299 C 601.237 369.897, 600 370.749, 600 371.193 C 600 372.600, 602.412 372.024, 605 370 C 607.740 367.856, 606.992 367.623, 602.750 369.299 M 358.500 370 C 357.708 371.282, 362.017 371.282, 364 370 C 365.141 369.262, 364.737 369.027, 362.309 369.015 C 360.554 369.007, 358.840 369.450, 358.500 370 M 237 372 C 237.825 372.533, 239.850 372.969, 241.500 372.969 C 243.802 372.969, 244.151 372.744, 243 372 C 242.175 371.467, 240.150 371.031, 238.500 371.031 C 236.198 371.031, 235.849 371.256, 237 372 M 341.500 372 C 339.896 372.689, 340.242 372.873, 343.250 372.930 C 345.313 372.968, 347 372.550, 347 372 C 347 370.806, 344.279 370.806, 341.500 372 M 596 373 C 594.718 373.828, 594.754 373.972, 596.250 373.985 C 597.212 373.993, 598 373.550, 598 373 C 598 371.780, 597.887 371.780, 596 373 M 248.153 373.487 C 248.421 373.754, 250.546 374.213, 252.877 374.505 C 255.207 374.798, 257.425 375.083, 257.807 375.137 C 260.892 375.580, 260.638 374.592, 257.500 373.943 C 253.017 373.015, 247.408 372.742, 248.153 373.487 M 321.058 374.090 C 313.860 375.502, 314.009 375.996, 321.436 375.340 C 325.250 375.003, 330.099 374.727, 332.211 374.727 C 334.323 374.727, 336.291 374.339, 336.584 373.864 C 337.254 372.779, 326.979 372.929, 321.058 374.090 M 592.500 375 C 592.160 375.550, 592.359 376, 592.941 376 C 593.523 376, 594 375.550, 594 375 C 594 374.450, 593.802 374, 593.559 374 C 593.316 374, 592.840 374.450, 592.500 375 M 272.375 375.797 C 273.102 376.974, 303.793 377.144, 304.515 375.975 C 304.898 375.356, 299.044 375, 288.500 375 C 279.360 375, 272.104 375.359, 272.375 375.797 M 152 378.500 C 152 379.325, 152.450 380, 153 380 C 153.550 380, 154 379.325, 154 378.500 C 154 377.675, 153.550 377, 153 377 C 152.450 377, 152 377.675, 152 378.500 M 580.500 379.569 C 576.787 381.495, 574.564 383.666, 577.500 382.499 C 578.600 382.062, 580.962 381.211, 582.750 380.608 C 584.538 380.004, 586 379.171, 586 378.755 C 586 377.552, 583.745 377.885, 580.500 379.569 M 157 385.156 C 157 386, 157.900 387.505, 159 388.500 C 160.211 389.596, 161 389.838, 161 389.113 C 161 388.455, 160.100 386.950, 159 385.770 C 157.469 384.127, 157 383.983, 157 385.156 M 569 385 C 569 385.550, 568.325 386, 567.500 386 C 566.675 386, 566 386.450, 566 387 C 566 387.550, 566.423 388, 566.941 388 C 567.459 388, 568.160 387.550, 568.500 387 C 568.840 386.450, 569.991 386, 571.059 386 C 572.127 386, 573 385.550, 573 385 C 573 384.450, 572.100 384, 571 384 C 569.900 384, 569 384.450, 569 385 M 561.800 389.200 C 562.733 390.133, 563.267 390.133, 564.200 389.200 C 565.133 388.267, 564.867 388, 563 388 C 561.133 388, 560.867 388.267, 561.800 389.200 M 556.750 390.662 C 557.438 390.940, 558.563 390.940, 559.250 390.662 C 559.938 390.385, 559.375 390.158, 558 390.158 C 556.625 390.158, 556.063 390.385, 556.750 390.662 M 552.500 393 C 552.160 393.550, 552.557 394, 553.382 394 C 554.207 394, 555.160 393.550, 555.500 393 C 555.840 392.450, 555.443 392, 554.618 392 C 553.793 392, 552.840 392.450, 552.500 393 M 165.013 394.750 C 165.032 395.827, 177.942 408.391, 178.479 407.854 C 178.957 407.376, 166.475 394, 165.550 394 C 165.248 394, 165.006 394.337, 165.013 394.750 M 547.813 395.683 C 548.534 395.972, 549.397 395.936, 549.729 395.604 C 550.061 395.272, 549.471 395.036, 548.417 395.079 C 547.252 395.127, 547.015 395.364, 547.813 395.683 M 544 397 C 544 397.550, 544.450 398, 545 398 C 545.550 398, 546 397.550, 546 397 C 546 396.450, 545.550 396, 545 396 C 544.450 396, 544 396.450, 544 397 M 537 398.444 C 533.189 400.564, 525.150 404, 524 404 C 523.438 404, 521.071 404.862, 518.739 405.916 C 516.408 406.970, 512.700 408.365, 510.500 409.016 C 508.300 409.668, 504.700 411.057, 502.500 412.103 C 500.300 413.150, 497.938 414.004, 497.250 414.003 C 496.563 414.001, 496 414.498, 496 415.107 C 496 415.768, 496.704 415.925, 497.750 415.495 C 498.712 415.100, 503.013 413.526, 507.307 411.997 C 511.601 410.469, 515.389 408.944, 515.724 408.609 C 516.059 408.274, 517.145 408, 518.136 408 C 519.128 408, 521.542 407.100, 523.500 406 C 525.458 404.900, 527.947 404, 529.030 404 C 530.114 404, 531 403.550, 531 403 C 531 402.450, 532.098 402, 533.441 402 C 534.784 402, 536.160 401.550, 536.500 401 C 536.840 400.450, 537.991 400, 539.059 400 C 540.127 400, 541 399.325, 541 398.500 C 541 396.661, 540.224 396.650, 537 398.444 M 180.577 408.875 C 180.229 409.439, 183.331 412.187, 187.472 414.981 C 191.612 417.775, 195 419.790, 195 419.459 C 195 418.538, 192.256 416, 191.260 416 C 190.774 416, 189.280 415.025, 187.939 413.833 C 186.597 412.642, 184.535 410.808, 183.355 409.758 C 182.032 408.580, 180.968 408.242, 180.577 408.875 M 489.500 417 C 489.160 417.550, 489.557 418, 490.382 418 C 491.207 418, 492.160 417.550, 492.500 417 C 492.840 416.450, 492.443 416, 491.618 416 C 490.793 416, 489.840 416.450, 489.500 417 M 481.750 419.299 C 480.238 419.897, 479 420.696, 479 421.075 C 479 421.832, 485.548 419.786, 486.648 418.685 C 487.636 417.697, 484.954 418.033, 481.750 419.299 M 197.008 420.750 C 197.018 421.719, 202.197 424.137, 202.854 423.479 C 203.515 422.818, 199.847 420.072, 198.250 420.032 C 197.563 420.014, 197.004 420.337, 197.008 420.750 M 472 423 C 472 423.550, 472.648 424, 473.441 424 C 474.234 424, 475.160 423.550, 475.500 423 C 475.840 422.450, 475.191 422, 474.059 422 C 472.927 422, 472 422.450, 472 423 M 204.800 425.200 C 205.733 426.133, 206.267 426.133, 207.200 425.200 C 208.133 424.267, 207.867 424, 206 424 C 204.133 424, 203.867 424.267, 204.800 425.200 M 465.500 425 C 465.840 425.550, 466.316 426, 466.559 426 C 466.802 426, 467 425.550, 467 425 C 467 424.450, 466.523 424, 465.941 424 C 465.359 424, 465.160 424.450, 465.500 425 M 209 427 C 209 427.550, 209.702 428, 210.559 428 C 211.416 428, 211.840 427.550, 211.500 427 C 211.160 426.450, 210.459 426, 209.941 426 C 209.423 426, 209 426.450, 209 427 M 455.500 427 C 455.151 427.565, 455.970 428, 457.382 428 C 458.757 428, 460.160 427.550, 460.500 427 C 460.849 426.435, 460.030 426, 458.618 426 C 457.243 426, 455.840 426.450, 455.500 427 M 213.500 429 C 213.840 429.550, 214.766 430, 215.559 430 C 216.352 430, 217 429.550, 217 429 C 217 428.450, 216.073 428, 214.941 428 C 213.809 428, 213.160 428.450, 213.500 429 M 449.813 429.683 C 450.534 429.972, 451.397 429.936, 451.729 429.604 C 452.061 429.272, 451.471 429.036, 450.417 429.079 C 449.252 429.127, 449.015 429.364, 449.813 429.683 M 218 431.139 C 218 431.613, 218.873 432, 219.941 432 C 221.009 432, 222.160 432.450, 222.500 433 C 223.233 434.185, 226 434.349, 226 433.207 C 226 432.770, 224.200 431.933, 222 431.346 C 219.800 430.758, 218 430.665, 218 431.139 M 432.536 432.942 C 432.215 433.460, 429.826 434.207, 427.227 434.601 C 424.627 434.995, 423.122 435.528, 423.883 435.786 C 425.334 436.278, 435.068 434.403, 438.500 432.970 C 440.092 432.306, 439.747 432.122, 436.809 432.068 C 434.779 432.030, 432.856 432.424, 432.536 432.942 M 229 434.782 C 229 435.798, 237.902 438.431, 238.687 437.647 C 239.016 437.317, 238.434 436.779, 237.393 436.451 C 236.352 436.122, 234.719 435.437, 233.764 434.927 C 231.646 433.797, 229 433.716, 229 434.782 M 409 437.795 C 407.625 438.001, 406.050 438.641, 405.500 439.217 C 404.807 439.943, 405.553 440.067, 407.927 439.622 C 413.038 438.663, 413.987 437.048, 409 437.795 M 416.750 437.662 C 417.438 437.940, 418.563 437.940, 419.250 437.662 C 419.938 437.385, 419.375 437.158, 418 437.158 C 416.625 437.158, 416.063 437.385, 416.750 437.662 M 241.750 438.662 C 242.438 438.940, 243.563 438.940, 244.250 438.662 C 244.938 438.385, 244.375 438.158, 243 438.158 C 241.625 438.158, 241.063 438.385, 241.750 438.662 M 248.500 441 C 248.840 441.550, 249.991 442, 251.059 442 C 252.127 442, 253 441.550, 253 441 C 253 440.450, 251.848 440, 250.441 440 C 248.990 440, 248.149 440.433, 248.500 441 M 394.500 441 C 391.633 441.730, 391.677 441.765, 395.500 441.811 C 397.700 441.838, 400.400 441.473, 401.500 441 C 403.194 440.272, 403.041 440.148, 400.500 440.189 C 398.850 440.215, 396.150 440.580, 394.500 441 M 259 443 C 260.375 443.440, 262.625 443.839, 264 443.885 C 265.966 443.951, 266.179 443.762, 265 443 C 264.175 442.467, 261.925 442.069, 260 442.115 C 256.793 442.192, 256.709 442.266, 259 443 M 377.500 443 C 376.400 443.473, 373.813 443.891, 371.750 443.930 C 369.652 443.969, 368 444.502, 368 445.139 C 368 446.745, 377.423 445.518, 380.239 443.545 C 382.647 441.858, 380.945 441.520, 377.500 443 M 267.894 444.914 C 269.824 446.135, 280.229 446.179, 279.477 444.963 C 279.150 444.433, 276.096 444.007, 272.691 444.015 C 268.719 444.025, 267 444.347, 267.894 444.914 M 285.492 446.987 C 285.836 447.544, 289.316 448, 293.226 448 C 302.105 448, 301.706 447.474, 292.183 446.626 C 287.337 446.194, 285.077 446.316, 285.492 446.987 M 340.776 447.733 C 343.128 447.945, 346.728 447.942, 348.776 447.727 C 350.824 447.512, 348.900 447.339, 344.500 447.343 C 340.100 447.346, 338.424 447.522, 340.776 447.733 M 122.668 493.665 C 122.301 494.033, 122 508.209, 122 525.168 L 122 556.003 485.250 555.751 L 848.500 555.500 848.500 524.500 L 848.500 493.500 485.918 493.249 C 286.498 493.110, 123.035 493.298, 122.668 493.665" stroke="none" fill="#ffffff" fill-rule="evenodd"/>
</svg>