<svg xmlns="http://www.w3.org/2000/svg" width="1000" height="563" viewBox="0 0 1000 563" version="1.1">
	<path d="M 891.500 12.639 C 886 15.651, 860.350 29.392, 834.500 43.173 C 808.650 56.955, 781.824 71.324, 774.887 75.103 C 757.567 84.540, 735.602 94.526, 722.851 98.759 L 712.202 102.296 715.494 109.898 C 717.305 114.079, 721.093 122.900, 723.912 129.500 C 730.400 144.688, 730.882 145.609, 733.936 148.663 C 739.369 154.097, 747.842 156.481, 756.221 154.934 C 759.508 154.327, 781.079 143.070, 827.221 117.881 C 863.675 97.981, 895.638 80.579, 898.250 79.208 L 903 76.716 903 41.858 C 903 22.686, 902.663 7.037, 902.250 7.081 C 901.837 7.126, 897 9.627, 891.500 12.639 M 898.029 41.543 C 897.987 58.503, 897.739 72.595, 897.477 72.857 C 897.214 73.119, 896.963 60.321, 896.919 44.417 C 896.848 19.327, 896.660 15.897, 895.492 18.500 C 893.832 22.202, 893.367 70.949, 894.963 73.932 C 895.729 75.362, 895.582 75.946, 894.339 76.424 C 893.445 76.767, 892.945 77.278, 893.228 77.561 C 893.510 77.844, 894.907 77.544, 896.331 76.895 L 898.920 75.715 899.210 44.108 C 899.370 26.723, 899.186 12.096, 898.802 11.602 C 898.419 11.109, 898.071 24.582, 898.029 41.543 M 890 18 C 890 19.100, 889.812 20, 889.582 20 C 889.352 20, 888.339 20.286, 887.332 20.635 C 885.714 21.195, 885.733 21.076, 887.500 19.618 C 889.410 18.042, 889.370 18.023, 886.613 19.207 L 883.726 20.446 886.931 21.753 C 890.383 23.162, 890.922 26.626, 887.645 26.350 C 886.667 26.268, 886.100 26.434, 886.386 26.719 C 887.037 27.371, 884.475 30, 883.188 30 C 882.663 30, 881.998 29.100, 881.710 28 C 881.322 26.517, 881.680 26, 883.094 26 C 885.496 26, 885.524 24.784, 883.171 22.655 C 880.683 20.403, 880 20.571, 880 23.433 C 880 24.987, 879.278 26.094, 878 26.500 C 876.900 26.849, 875.986 27.667, 875.968 28.317 C 875.951 28.968, 875.215 28.600, 874.334 27.500 C 873.104 25.965, 872.867 25.895, 873.314 27.199 C 873.918 28.957, 870.895 30.671, 869.122 29.576 C 868.166 28.985, 865.278 31.902, 865.827 32.904 C 866.007 33.232, 865.557 33.795, 864.827 34.155 C 859.956 36.558, 852 41.555, 852 42.211 C 852 42.645, 853.125 43, 854.500 43 C 855.875 43, 857 43.450, 857 44 C 857 45.771, 853.158 45.064, 851.734 43.031 C 850.471 41.227, 850.173 41.190, 848.176 42.589 C 846.977 43.429, 845.478 43.795, 844.844 43.403 C 844.180 42.993, 843.961 43.128, 844.327 43.720 C 844.698 44.320, 843.935 44.750, 842.500 44.750 C 840.933 44.750, 840.287 44.340, 840.726 43.625 C 841.105 43.006, 840.309 43.245, 838.957 44.155 C 837.445 45.173, 836.592 46.616, 836.738 47.905 C 836.869 49.057, 836.505 50, 835.929 50 C 835.353 50, 835.160 49.550, 835.500 49 C 835.840 48.450, 835.641 48, 835.059 48 C 833.404 48, 833.816 49.785, 835.750 50.998 C 837.205 51.911, 837.079 51.980, 835 51.411 C 833.625 51.034, 831.938 50.514, 831.250 50.256 C 830.563 49.997, 830 50.333, 830 51.001 C 830 51.813, 829.130 51.999, 827.379 51.559 C 824.963 50.953, 824.885 51.028, 826.379 52.522 C 827.271 53.413, 828 54.786, 828 55.571 C 828 57.497, 829.008 57.371, 830.558 55.252 C 831.261 54.290, 832.101 53.768, 832.425 54.091 C 833.213 54.880, 829.808 58.578, 828.333 58.534 C 827.692 58.516, 826.837 58.171, 826.435 57.768 C 826.032 57.366, 824.645 57.302, 823.352 57.627 C 821.889 57.994, 821 57.776, 821 57.049 C 821 56.407, 821.450 56.160, 822 56.500 C 822.550 56.840, 823 56.694, 823 56.176 C 823 54.770, 819.422 54.102, 817.861 55.217 C 816.862 55.930, 817.031 56.027, 818.500 55.581 C 820.146 55.081, 820.061 55.317, 818.016 56.918 C 816.450 58.143, 815.295 58.478, 814.891 57.824 C 814.463 57.131, 814.009 57.177, 813.524 57.961 C 813.124 58.608, 812.191 58.904, 811.450 58.619 C 810.582 58.286, 810.300 58.619, 810.658 59.551 C 810.964 60.348, 812.066 61, 813.107 61 C 814.333 61, 815 61.704, 815 63 C 815 64.539, 814.333 65, 812.107 65 C 810.473 65, 808.966 64.355, 808.645 63.517 C 808.322 62.676, 807.412 62.288, 806.544 62.622 C 805.701 62.945, 805.290 63.661, 805.631 64.212 C 806.018 64.839, 805.361 64.962, 803.875 64.542 C 802.028 64.018, 801.833 64.106, 803 64.934 C 804.279 65.843, 804.293 66.134, 803.091 66.907 C 802.316 67.407, 801.040 67.569, 800.257 67.268 C 799.086 66.819, 799.070 66.571, 800.166 65.876 C 800.900 65.411, 801.024 65.024, 800.441 65.015 C 799.859 65.007, 798.537 65.618, 797.503 66.374 C 795.683 67.705, 795.693 67.791, 797.812 69.115 C 799.015 69.866, 800 71.048, 800 71.741 C 800 73.237, 797.384 73.431, 796.500 72 C 796.160 71.450, 794.757 71, 793.382 71 C 791.970 71, 791.151 71.435, 791.500 72 C 791.840 72.550, 791.390 73, 790.500 73 C 789.532 73, 789.168 72.536, 789.595 71.845 C 790.041 71.124, 789.869 70.963, 789.138 71.415 C 788.494 71.813, 788.207 72.526, 788.500 73 C 789.353 74.380, 787.038 75.276, 785.632 74.110 C 784.722 73.354, 784.013 73.387, 783.176 74.224 C 781.801 75.599, 781.588 77.373, 782.895 76.565 C 784.908 75.321, 784.933 79.324, 782.923 81.067 C 781.676 82.148, 781.125 83.393, 781.572 84.117 C 782.122 85.007, 781.807 85.118, 780.414 84.526 C 777.145 83.135, 767.184 83.312, 767.735 84.750 C 767.999 85.438, 767.491 86, 766.607 86 C 765.723 86, 765 85.550, 765 85 C 765 83.233, 761.370 83.933, 759.432 86.075 C 757.567 88.136, 757.574 88.146, 760.527 87.552 C 763.207 87.013, 763.270 87.055, 761.167 87.975 C 759.884 88.537, 757.796 88.736, 756.527 88.417 C 753.940 87.768, 752.174 89.469, 754.506 90.364 C 756.806 91.247, 756.397 95, 754 95 C 752.291 95, 752 95.667, 752 99.583 C 752 102.828, 751.635 104.033, 750.750 103.708 C 750.063 103.456, 749.628 102.696, 749.785 102.020 C 750.252 100.003, 747.957 98.026, 745.394 98.238 C 744.077 98.347, 743 98.743, 743 99.118 C 743 99.494, 740.862 99.646, 738.250 99.457 C 729.563 98.829, 728 98.938, 728 100.167 C 728 100.625, 727.298 101, 726.441 101 C 725.584 101, 725.095 101.344, 725.354 101.764 C 725.614 102.185, 723.878 102.463, 721.496 102.383 L 717.165 102.237 718.832 105.547 L 720.500 108.857 722.616 106.428 C 723.780 105.093, 725.018 104, 725.366 104 C 726.375 104, 726.069 112.345, 725 114 C 724.245 115.169, 724.027 114.893, 724.015 112.750 C 723.995 109.073, 722.340 109.231, 721.792 112.962 C 721.362 115.896, 723.065 117.696, 725.090 116.444 C 726.494 115.577, 726.167 117.396, 724.532 119.559 C 723.724 120.626, 723.056 121.950, 723.047 122.500 C 723.038 123.050, 723.467 122.825, 724 122 C 724.834 120.710, 724.972 120.738, 724.985 122.205 C 724.993 123.142, 726.034 124.943, 727.298 126.207 C 730.331 129.240, 731.107 131.471, 729.672 133.025 C 728.757 134.015, 728.812 134.115, 729.920 133.483 C 730.991 132.871, 731.174 133.103, 730.667 134.426 C 729.970 136.242, 732.736 142, 734.305 142 C 734.786 142, 736.049 143.012, 737.112 144.250 L 739.046 146.500 738.773 143.500 C 738.615 141.764, 737.981 140.603, 737.268 140.744 C 735.841 141.027, 734.514 136.708, 735.354 134.519 C 736.294 132.071, 738.901 133.937, 740.091 137.910 C 740.852 140.448, 740.891 142.736, 740.215 145.183 C 739.291 148.529, 739.363 148.724, 741.365 148.290 C 743.018 147.931, 743.177 148.054, 742.069 148.834 C 740.963 149.613, 741.472 149.998, 744.310 150.530 C 746.330 150.909, 747.793 151.527, 747.561 151.902 C 746.720 153.262, 751.286 152.857, 752.696 151.447 C 754.182 149.960, 757.494 149.391, 756.643 150.768 C 756.382 151.191, 757.899 151.372, 760.015 151.170 C 763.017 150.884, 763.730 150.459, 763.261 149.238 C 762.840 148.142, 763.045 147.910, 763.942 148.464 C 764.647 148.900, 765.511 148.861, 765.862 148.378 C 766.213 147.895, 767.400 146.979, 768.500 146.343 C 769.600 145.707, 770.376 144.660, 770.225 144.018 C 770.049 143.270, 770.769 143.053, 772.225 143.415 C 773.476 143.727, 773.935 143.722, 773.244 143.405 C 772.553 143.088, 772.244 142.414, 772.557 141.908 C 772.870 141.401, 772.423 140.716, 771.563 140.386 C 769.841 139.725, 769.399 137, 771.014 137 C 772.510 137, 776.379 139.311, 777.303 140.757 C 777.912 141.709, 778.610 141.744, 780.186 140.900 C 782.229 139.807, 782.214 139.745, 779.383 137.430 C 777.797 136.133, 775.938 135.056, 775.250 135.036 C 773.437 134.984, 773.711 133, 775.531 133 C 776.374 133, 777.322 133.675, 777.638 134.500 C 778.424 136.548, 781.680 136.393, 782.883 134.250 C 783.805 132.607, 783.906 132.605, 784.525 134.212 C 785.120 135.755, 785.410 135.778, 787.452 134.440 C 788.698 133.623, 790.457 133.238, 791.359 133.584 C 792.393 133.981, 793 133.702, 793 132.829 C 793 131.452, 796.381 128, 797.730 128 C 798.118 128, 799.436 126.837, 800.658 125.415 C 802.846 122.868, 806.747 122.421, 806.262 124.773 C 806.118 125.474, 806.688 125.673, 807.711 125.280 C 808.771 124.874, 808.953 124.484, 808.199 124.233 C 807.540 124.013, 807 123.435, 807 122.948 C 807 122.461, 807.749 122.350, 808.664 122.701 C 809.688 123.094, 810.081 122.939, 809.685 122.299 C 809.331 121.727, 807.652 120.980, 805.955 120.641 C 804.238 120.298, 803.145 119.574, 803.493 119.012 C 804.301 117.704, 807 117.695, 807 119 C 807 119.550, 807.477 120, 808.059 120 C 808.641 120, 808.840 119.550, 808.500 119 C 808.160 118.450, 808.407 118, 809.048 118 C 809.689 118, 809.955 118.675, 809.638 119.500 C 809.322 120.325, 809.499 121, 810.031 121 C 810.564 121, 811 120.499, 811 119.887 C 811 119.233, 812.170 118.945, 813.833 119.189 C 816.667 119.605, 816.807 119.435, 817.238 115.073 C 817.343 114.014, 817.853 113.409, 818.372 113.730 C 818.917 114.067, 819.063 113.347, 818.717 112.026 C 817.881 108.828, 820.450 106.623, 825.149 106.505 C 827.291 106.451, 829.849 105.717, 830.834 104.874 C 831.979 103.894, 833.321 103.615, 834.562 104.101 C 836.166 104.729, 836.209 104.872, 834.809 104.930 C 832.076 105.043, 831.676 106.943, 834.186 107.890 C 837.117 108.996, 840.378 107.428, 839.563 105.304 C 839.103 104.104, 839.524 103.867, 841.455 104.236 C 842.822 104.497, 843.733 104.377, 843.481 103.969 C 843.229 103.561, 843.917 102.993, 845.011 102.707 C 846.105 102.421, 847 101.441, 847 100.528 C 847 97.399, 848.869 95.153, 851.008 95.712 C 852.607 96.130, 852.797 96.539, 851.899 97.622 C 850.531 99.270, 851.347 99.379, 854.316 97.945 C 856.426 96.926, 856.434 96.943, 854.559 98.445 C 853.491 99.300, 852.179 100, 851.642 100 C 851.106 100, 850.925 100.258, 851.240 100.574 C 851.556 100.889, 853.149 100.457, 854.780 99.614 C 856.412 98.770, 858.126 98.399, 858.590 98.790 C 859.054 99.180, 858.831 98.713, 858.095 97.750 C 857.358 96.787, 856.135 96, 855.378 96 C 854.620 96, 854 95.580, 854 95.067 C 854 94.018, 857.876 92.490, 859.675 92.830 C 860.321 92.953, 861.135 92.591, 861.484 92.027 C 861.833 91.462, 863.018 91, 864.118 91 C 865.218 91, 865.859 91.419, 865.543 91.931 C 865.226 92.443, 865.425 93.144, 865.984 93.490 C 866.564 93.849, 867 93.090, 867 91.720 C 867 89.680, 867.450 89.348, 870.010 89.501 C 872.857 89.670, 874.405 88.769, 875.165 86.500 C 875.349 85.950, 876.513 85.630, 877.750 85.788 C 878.987 85.946, 880 85.582, 880 84.979 C 880 84.376, 880.520 84.203, 881.155 84.595 C 881.893 85.052, 882.037 84.868, 881.553 84.086 C 881.138 83.414, 880.151 83.112, 879.361 83.415 C 878.571 83.718, 877.668 83.299, 877.355 82.483 C 877.042 81.667, 876.159 81, 875.393 81 C 874.627 81, 874 80.325, 874 79.500 C 874 77.629, 873.518 77.568, 880.596 80.342 C 885.435 82.238, 886.800 82.439, 887.771 81.400 C 888.431 80.694, 889.761 79.673, 890.727 79.133 C 891.693 78.592, 892.145 77.812, 891.731 77.398 C 891.318 76.984, 890.323 77.513, 889.521 78.573 C 888.720 79.633, 888.056 80.050, 888.047 79.500 C 888.020 77.832, 889.390 76.304, 891.500 75.648 C 893.457 75.040, 893.488 74.394, 892.955 45.763 C 892.655 29.668, 892.318 16.387, 892.205 16.250 C 891.390 15.256, 890 16.359, 890 18 M 870.500 28 C 870.840 28.550, 871.316 29, 871.559 29 C 871.802 29, 872 28.550, 872 28 C 872 27.450, 871.523 27, 870.941 27 C 870.359 27, 870.160 27.450, 870.500 28 M 844.500 41 C 844.160 41.550, 844.359 42, 844.941 42 C 845.523 42, 846 41.550, 846 41 C 846 40.450, 845.802 40, 845.559 40 C 845.316 40, 844.840 40.450, 844.500 41 M 396.750 43.706 C 397.988 43.944, 400.012 43.944, 401.250 43.706 C 402.488 43.467, 401.475 43.272, 399 43.272 C 396.525 43.272, 395.512 43.467, 396.750 43.706 M 416.250 43.689 C 417.212 43.941, 418.788 43.941, 419.750 43.689 C 420.712 43.438, 419.925 43.232, 418 43.232 C 416.075 43.232, 415.288 43.438, 416.250 43.689 M 388.269 44.693 C 389.242 44.947, 390.592 44.930, 391.269 44.656 C 391.946 44.382, 391.150 44.175, 389.500 44.195 C 387.850 44.215, 387.296 44.439, 388.269 44.693 M 422.813 44.683 C 423.534 44.972, 424.397 44.936, 424.729 44.604 C 425.061 44.272, 424.471 44.036, 423.417 44.079 C 422.252 44.127, 422.015 44.364, 422.813 44.683 M 380.813 45.683 C 381.534 45.972, 382.397 45.936, 382.729 45.604 C 383.061 45.272, 382.471 45.036, 381.417 45.079 C 380.252 45.127, 380.015 45.364, 380.813 45.683 M 430.500 47.652 C 433.250 49.059, 437.299 51.850, 439.499 53.855 L 443.497 57.500 439.999 53.661 C 436.900 50.260, 428.398 44.921, 426.283 45.047 C 425.852 45.072, 427.750 46.244, 430.500 47.652 M 373.813 46.683 C 374.534 46.972, 375.397 46.936, 375.729 46.604 C 376.061 46.272, 375.471 46.036, 374.417 46.079 C 373.252 46.127, 373.015 46.364, 373.813 46.683 M 359.813 49.683 C 360.534 49.972, 361.397 49.936, 361.729 49.604 C 362.061 49.272, 361.471 49.036, 360.417 49.079 C 359.252 49.127, 359.015 49.364, 359.813 49.683 M 519 78.729 C 510.475 95.080, 494.470 125.793, 483.434 146.979 C 472.398 168.166, 457.718 196.300, 450.813 209.500 C 397.646 311.133, 384.491 336.825, 385.237 337.570 C 385.778 338.111, 413.225 333.603, 425.765 330.913 C 448.088 326.126, 469.345 319.322, 482.500 312.753 C 497.889 305.069, 512.842 293, 519.577 282.827 C 521.989 279.184, 556.003 206.108, 583.498 145.500 C 586.278 139.371, 587.335 137.869, 588.018 139.079 C 588.508 139.948, 599.557 168.073, 612.572 201.579 C 625.588 235.086, 636.386 262.665, 636.568 262.866 C 636.750 263.068, 640.634 261.079, 645.197 258.447 C 649.761 255.814, 655.971 252.326, 658.997 250.695 C 662.024 249.063, 666.975 246.271, 670 244.490 C 673.025 242.709, 682.025 237.649, 690 233.246 C 697.975 228.842, 708.473 222.936, 713.329 220.120 C 718.185 217.304, 722.620 215, 723.186 215 C 723.751 215, 723.993 214.438, 723.722 213.750 C 723.452 213.063, 705.557 175.713, 683.956 130.750 L 644.681 49 589.590 49 L 534.500 49 519 78.729 M 355.813 50.683 C 356.534 50.972, 357.397 50.936, 357.729 50.604 C 358.061 50.272, 357.471 50.036, 356.417 50.079 C 355.252 50.127, 355.015 50.364, 355.813 50.683 M 344 53.500 C 342.075 54.241, 341.175 54.848, 342 54.848 C 342.825 54.848, 345.075 54.241, 347 53.500 C 348.925 52.759, 349.825 52.152, 349 52.152 C 348.175 52.152, 345.925 52.759, 344 53.500 M 841.603 57.833 C 841.320 58.292, 841.743 58.667, 842.544 58.667 C 843.345 58.667, 844 58.292, 844 57.833 C 844 57.375, 843.577 57, 843.059 57 C 842.541 57, 841.886 57.375, 841.603 57.833 M 328.507 58.989 C 328.157 59.555, 328.558 59.723, 329.448 59.382 C 331.180 58.717, 331.497 58, 330.059 58 C 329.541 58, 328.843 58.445, 328.507 58.989 M 817 59 C 817 59.550, 817.675 60, 818.500 60 C 819.325 60, 820 59.550, 820 59 C 820 58.450, 819.325 58, 818.500 58 C 817.675 58, 817 58.450, 817 59 M 444.827 60.629 C 445.392 61.658, 446.583 63.400, 447.475 64.500 C 448.980 66.356, 448.986 66.271, 447.556 63.313 C 446.708 61.561, 445.516 59.819, 444.907 59.443 C 444.115 58.953, 444.092 59.290, 444.827 60.629 M 314 64 C 313.175 64.533, 312.950 64.969, 313.500 64.969 C 314.050 64.969, 315.175 64.533, 316 64 C 316.825 63.467, 317.050 63.031, 316.500 63.031 C 315.950 63.031, 314.825 63.467, 314 64 M 310 66 C 309.099 66.582, 308.975 66.975, 309.691 66.985 C 310.346 66.993, 311.160 66.550, 311.500 66 C 312.267 64.758, 311.921 64.758, 310 66 M 304 68.500 C 302.625 69.286, 301.950 69.929, 302.500 69.929 C 303.050 69.929, 304.625 69.286, 306 68.500 C 307.375 67.714, 308.050 67.071, 307.500 67.071 C 306.950 67.071, 305.375 67.714, 304 68.500 M 449 69 C 449 69.550, 449.477 70, 450.059 70 C 450.641 70, 450.840 69.550, 450.500 69 C 450.160 68.450, 449.684 68, 449.441 68 C 449.198 68, 449 68.450, 449 69 M 805.250 68.662 C 804.563 68.940, 804 70.240, 804 71.552 C 804 73.317, 804.412 73.779, 805.584 73.329 C 806.535 72.964, 806.756 72.467, 806.137 72.084 C 805.481 71.679, 805.445 70.911, 806.037 69.974 C 806.550 69.163, 806.976 69.008, 806.985 69.628 C 806.993 70.249, 808.800 71.214, 811 71.772 C 814.264 72.600, 815 72.526, 815 71.369 C 815 69.020, 808.699 67.271, 805.250 68.662 M 298 71 C 296.707 71.835, 296.734 71.971, 298.191 71.985 C 299.121 71.993, 300.160 71.550, 300.500 71 C 301.282 69.734, 299.958 69.734, 298 71 M 292 74 C 291.099 74.582, 290.975 74.975, 291.691 74.985 C 292.346 74.993, 293.160 74.550, 293.500 74 C 294.267 72.758, 293.921 72.758, 292 74 M 875.813 74.683 C 876.534 74.972, 877.397 74.936, 877.729 74.604 C 878.061 74.272, 877.471 74.036, 876.417 74.079 C 875.252 74.127, 875.015 74.364, 875.813 74.683 M 885.750 74.662 C 886.438 74.940, 887.563 74.940, 888.250 74.662 C 888.938 74.385, 888.375 74.158, 887 74.158 C 885.625 74.158, 885.063 74.385, 885.750 74.662 M 275.779 82.358 C 263.280 89.110, 261.742 90.694, 273.571 84.632 C 281.699 80.466, 287.362 77.027, 286 77.085 C 285.725 77.096, 281.125 79.469, 275.779 82.358 M 774.596 79.290 C 773.443 80.315, 773.031 80.886, 773.681 80.560 C 774.330 80.234, 775.132 80.405, 775.463 80.940 C 776.263 82.235, 778.834 81.178, 779.948 79.097 C 781.223 76.715, 777.337 76.856, 774.596 79.290 M 456.086 87 C 456.055 87.825, 456.467 89.175, 457 90 C 458.181 91.828, 458.181 90.249, 457 87.500 C 456.433 86.181, 456.122 86.011, 456.086 87 M 771.813 88.683 C 772.534 88.972, 773.397 88.936, 773.729 88.604 C 774.061 88.272, 773.471 88.036, 772.417 88.079 C 771.252 88.127, 771.015 88.364, 771.813 88.683 M 261.441 90.468 C 260.374 91.276, 260.007 91.951, 260.628 91.968 C 261.248 91.986, 262.315 91.325, 263 90.500 C 264.581 88.595, 263.935 88.582, 261.441 90.468 M 850 90 C 850 90.550, 851.323 91, 852.941 91 C 854.559 91, 856.160 90.550, 856.500 90 C 856.868 89.405, 855.677 89, 853.559 89 C 851.602 89, 850 89.450, 850 90 M 844.559 91.905 C 844.192 92.499, 844.336 93.775, 844.879 94.742 C 845.815 96.409, 845.902 96.406, 846.566 94.683 C 847.371 92.591, 845.627 90.176, 844.559 91.905 M 745.001 93.454 L 742.502 94.837 745.264 95.530 C 748.125 96.248, 751.454 94.544, 750.430 92.887 C 749.667 91.652, 747.928 91.834, 745.001 93.454 M 746 94 C 745.099 94.582, 744.975 94.975, 745.691 94.985 C 746.346 94.993, 747.160 94.550, 747.500 94 C 748.267 92.758, 747.921 92.758, 746 94 M 247.861 99.059 L 245.500 101.119 248.250 99.444 C 249.762 98.523, 251 97.597, 251 97.385 C 251 96.604, 250.165 97.050, 247.861 99.059 M 459.079 98.583 C 459.127 99.748, 459.364 99.985, 459.683 99.188 C 459.972 98.466, 459.936 97.603, 459.604 97.271 C 459.272 96.939, 459.036 97.529, 459.079 98.583 M 241.750 102.758 C 240.238 103.696, 239 104.822, 239 105.262 C 239 105.701, 240.350 105.062, 242 103.842 C 244.637 101.892, 245.568 100.940, 244.750 101.027 C 244.613 101.041, 243.262 101.820, 241.750 102.758 M 732.500 103 C 732.129 103.601, 733.403 103.994, 735.691 103.985 C 738.519 103.973, 739.113 103.720, 738 103 C 736.044 101.736, 733.281 101.736, 732.500 103 M 740 103 C 740 103.550, 740.900 104, 742 104 C 743.100 104, 744 103.550, 744 103 C 744 102.450, 743.100 102, 742 102 C 740.900 102, 740 102.450, 740 103 M 837 106 C 837 106.550, 837.477 107, 838.059 107 C 838.641 107, 838.840 106.550, 838.500 106 C 838.160 105.450, 837.684 105, 837.441 105 C 837.198 105, 837 105.450, 837 106 M 232.572 109.028 C 230.411 110.663, 229.142 112, 229.750 112 C 230.359 112, 231.452 111.419, 232.179 110.709 C 232.905 109.999, 234.613 108.649, 235.973 107.709 C 237.332 106.769, 238.007 106.013, 237.473 106.028 C 236.938 106.043, 234.732 107.393, 232.572 109.028 M 461.079 107.583 C 461.127 108.748, 461.364 108.985, 461.683 108.188 C 461.972 107.466, 461.936 106.603, 461.604 106.271 C 461.272 105.939, 461.036 106.529, 461.079 107.583 M 826.282 109.398 C 821.249 110.755, 819.711 112.084, 820.574 114.333 C 821.375 116.419, 822.415 116.430, 825.537 114.384 C 826.894 113.495, 828.812 112.979, 829.800 113.238 C 831.188 113.601, 831.646 113.059, 831.814 110.854 C 831.934 109.284, 831.687 108.059, 831.266 108.131 C 830.845 108.202, 828.602 108.773, 826.282 109.398 M 462.158 113 C 462.158 114.375, 462.385 114.938, 462.662 114.250 C 462.940 113.563, 462.940 112.438, 462.662 111.750 C 462.385 111.063, 462.158 111.625, 462.158 113 M 216 121.667 C 212.975 124.178, 210.353 126.742, 210.174 127.366 C 209.954 128.129, 210.118 128.159, 210.674 127.457 C 211.128 126.884, 214.129 124.296, 217.342 121.707 C 220.555 119.118, 222.805 117.023, 222.342 117.051 C 221.879 117.080, 219.025 119.157, 216 121.667 M 901.500 118 C 901.160 118.550, 901.359 119, 901.941 119 C 902.523 119, 903 118.550, 903 118 C 903 117.450, 902.802 117, 902.559 117 C 902.316 117, 901.840 117.450, 901.500 118 M 897.441 120.555 C 895.577 122.049, 895.589 122.067, 897.750 121.020 C 898.987 120.420, 900 119.720, 900 119.465 C 900 118.700, 899.481 118.921, 897.441 120.555 M 463 121.427 C 463 122.211, 462.212 123.021, 461.250 123.226 C 459.986 123.496, 460.217 123.746, 462.079 124.128 C 464.345 124.593, 464.603 124.375, 464.212 122.329 C 463.718 119.745, 463 119.211, 463 121.427 M 901.710 122 C 901.998 123.100, 902.406 124, 902.617 124 C 902.827 124, 903 123.100, 903 122 C 903 120.900, 902.592 120, 902.094 120 C 901.595 120, 901.423 120.900, 901.710 122 M 436.500 122.975 C 434.300 123.355, 438.350 123.455, 445.500 123.196 C 452.650 122.938, 458.688 122.563, 458.917 122.363 C 459.639 121.734, 440.689 122.251, 436.500 122.975 M 891 124 C 890.099 124.582, 889.975 124.975, 890.691 124.985 C 891.346 124.993, 892.160 124.550, 892.500 124 C 893.267 122.758, 892.921 122.758, 891 124 M 424.762 124.707 C 426.006 124.946, 427.806 124.937, 428.762 124.687 C 429.718 124.437, 428.700 124.241, 426.500 124.252 C 424.300 124.263, 423.518 124.468, 424.762 124.707 M 408.269 127.693 C 409.242 127.947, 410.592 127.930, 411.269 127.656 C 411.946 127.382, 411.150 127.175, 409.500 127.195 C 407.850 127.215, 407.296 127.439, 408.269 127.693 M 902.195 129.500 C 902.215 131.150, 902.439 131.704, 902.693 130.731 C 902.947 129.758, 902.930 128.408, 902.656 127.731 C 902.382 127.054, 902.175 127.850, 902.195 129.500 M 399.813 129.683 C 400.534 129.972, 401.397 129.936, 401.729 129.604 C 402.061 129.272, 401.471 129.036, 400.417 129.079 C 399.252 129.127, 399.015 129.364, 399.813 129.683 M 197.500 137.635 C 191.331 143.479, 190.873 144.067, 195.500 140.207 C 201.238 135.421, 206.822 129.968, 205.924 130.029 C 205.691 130.045, 201.900 133.468, 197.500 137.635 M 395.813 130.683 C 396.534 130.972, 397.397 130.936, 397.729 130.604 C 398.061 130.272, 397.471 130.036, 396.417 130.079 C 395.252 130.127, 395.015 130.364, 395.813 130.683 M 873 133.500 C 870.525 134.825, 868.855 135.930, 869.290 135.955 C 870.352 136.016, 878 132.086, 878 131.480 C 878 130.817, 878.041 130.800, 873 133.500 M 732 134.059 C 732 134.641, 732.450 134.840, 733 134.500 C 733.550 134.160, 734 133.684, 734 133.441 C 734 133.198, 733.550 133, 733 133 C 732.450 133, 732 133.477, 732 134.059 M 902.328 139.500 C 902.333 143.350, 902.513 144.802, 902.730 142.728 C 902.946 140.653, 902.943 137.503, 902.722 135.728 C 902.501 133.952, 902.324 135.650, 902.328 139.500 M 381 135 C 379.172 136.181, 380.751 136.181, 383.500 135 C 384.819 134.433, 384.989 134.122, 384 134.086 C 383.175 134.055, 381.825 134.467, 381 135 M 787.813 135.683 C 788.534 135.972, 789.397 135.936, 789.729 135.604 C 790.061 135.272, 789.471 135.036, 788.417 135.079 C 787.252 135.127, 787.015 135.364, 787.813 135.683 M 731 136.378 C 731 136.585, 731.685 137.324, 732.523 138.019 C 733.796 139.076, 733.943 139.014, 733.416 137.641 C 732.878 136.240, 731 135.257, 731 136.378 M 862.798 138.893 C 856.187 142.658, 855.489 143.749, 861.679 140.639 C 864.528 139.209, 867.142 137.579, 867.488 137.019 C 868.275 135.747, 868.433 135.684, 862.798 138.893 M 372 138.500 C 370.625 139.286, 369.950 139.929, 370.500 139.929 C 371.050 139.929, 372.625 139.286, 374 138.500 C 375.375 137.714, 376.050 137.071, 375.500 137.071 C 374.950 137.071, 373.375 137.714, 372 138.500 M 365 141 C 364.175 141.533, 363.950 141.969, 364.500 141.969 C 365.050 141.969, 366.175 141.533, 367 141 C 367.825 140.467, 368.050 140.031, 367.500 140.031 C 366.950 140.031, 365.825 140.467, 365 141 M 774.500 142 C 774.840 142.550, 775.316 143, 775.559 143 C 775.802 143, 776 142.550, 776 142 C 776 141.450, 775.523 141, 774.941 141 C 774.359 141, 774.160 141.450, 774.500 142 M 360 143 C 359.175 143.533, 358.950 143.969, 359.500 143.969 C 360.050 143.969, 361.175 143.533, 362 143 C 362.825 142.467, 363.050 142.031, 362.500 142.031 C 361.950 142.031, 360.825 142.467, 360 143 M 350.750 147.068 C 348.688 148.157, 347 149.271, 347 149.544 C 347 149.990, 354.899 146.298, 355.917 145.377 C 357.067 144.336, 354.064 145.319, 350.750 147.068 M 848 147 C 847.099 147.582, 846.975 147.975, 847.691 147.985 C 848.346 147.993, 849.160 147.550, 849.500 147 C 850.267 145.758, 849.921 145.758, 848 147 M 902.413 165.500 C 902.414 175.400, 902.564 179.315, 902.746 174.199 C 902.928 169.084, 902.927 160.984, 902.744 156.199 C 902.561 151.415, 902.412 155.600, 902.413 165.500 M 179.893 154.750 C 169.706 165.495, 152.719 186.851, 157.347 183.095 C 158.299 182.323, 160.523 179.553, 162.289 176.941 C 165.566 172.094, 172.636 163.705, 181.395 154.272 C 184.087 151.372, 186.077 149, 185.818 149 C 185.558 149, 182.892 151.588, 179.893 154.750 M 744.750 149.662 C 745.438 149.940, 746.563 149.940, 747.250 149.662 C 747.938 149.385, 747.375 149.158, 746 149.158 C 744.625 149.158, 744.063 149.385, 744.750 149.662 M 338.750 152.572 C 334.873 154.675, 335.312 155.401, 339.250 153.399 C 343.020 151.481, 343.687 150.985, 342.417 151.040 C 341.913 151.062, 340.262 151.751, 338.750 152.572 M 832.746 155.390 C 828.481 157.747, 824.656 160.048, 824.246 160.505 C 823.287 161.572, 839.187 153.152, 840.450 151.924 C 842.037 150.381, 840.825 150.926, 832.746 155.390 M 329.286 157.392 C 326.969 158.551, 325.056 159.847, 325.036 160.270 C 325.002 160.992, 330.667 158.328, 334 156.054 C 336.456 154.379, 333.807 155.130, 329.286 157.392 M 319.507 162.989 C 319.157 163.555, 319.558 163.723, 320.448 163.382 C 322.180 162.717, 322.497 162, 321.059 162 C 320.541 162, 319.843 162.445, 319.507 162.989 M 819 163 C 818.099 163.582, 817.975 163.975, 818.691 163.985 C 819.346 163.993, 820.160 163.550, 820.500 163 C 821.267 161.758, 820.921 161.758, 819 163 M 306.153 170.403 C 301.012 173.368, 296.287 176.345, 295.653 177.019 C 294.749 177.980, 294.933 178.019, 296.500 177.200 C 299.320 175.725, 315.253 166.080, 315.844 165.489 C 317.071 164.262, 314.840 165.393, 306.153 170.403 M 811.662 166.618 C 810.100 167.464, 809.037 168.371, 809.299 168.632 C 809.560 168.894, 811.288 168.185, 813.137 167.058 C 817.032 164.683, 815.870 164.338, 811.662 166.618 M 803.441 171.555 C 801.577 173.049, 801.589 173.067, 803.750 172.020 C 804.987 171.420, 806 170.720, 806 170.465 C 806 169.700, 805.481 169.921, 803.441 171.555 M 797.441 174.555 C 795.611 176.022, 795.643 176.042, 798 174.920 C 801.061 173.462, 801.628 173, 800.358 173 C 799.821 173, 798.509 173.700, 797.441 174.555 M 787.500 180 C 784.750 181.631, 782.870 182.974, 783.322 182.983 C 784.300 183.003, 793 177.989, 793 177.405 C 793 176.764, 792.779 176.869, 787.500 180 M 284.500 184 C 282.850 185.093, 281.950 185.980, 282.500 185.971 C 283.503 185.955, 288.940 182.058, 288 182.029 C 287.725 182.020, 286.150 182.907, 284.500 184 M 902.360 194 C 902.360 199.225, 902.529 201.363, 902.735 198.750 C 902.941 196.137, 902.941 191.863, 902.735 189.250 C 902.529 186.637, 902.360 188.775, 902.360 194 M 773 188 C 771.075 189.054, 769.860 189.935, 770.300 189.958 C 771.359 190.014, 777 187.081, 777 186.474 C 777 185.820, 776.941 185.842, 773 188 M 275.924 189.678 L 273.500 192.355 277 190.001 C 278.925 188.707, 280.688 187.502, 280.917 187.324 C 281.146 187.146, 280.662 187, 279.841 187 C 279.020 187, 277.258 188.205, 275.924 189.678 M 766.441 191.555 C 764.577 193.049, 764.589 193.067, 766.750 192.020 C 767.987 191.420, 769 190.720, 769 190.465 C 769 189.700, 768.481 189.921, 766.441 191.555 M 150.298 192.750 C 149.947 193.713, 148.836 195.573, 147.830 196.885 C 146.823 198.197, 146 199.722, 146 200.274 C 146 200.827, 147.034 199.754, 148.298 197.890 C 150.768 194.247, 152.248 191, 151.437 191 C 151.162 191, 150.650 191.787, 150.298 192.750 M 267 196.089 C 264.846 197.851, 264.804 197.986, 266.694 197.062 C 267.901 196.472, 269.165 195.542, 269.503 194.995 C 270.406 193.534, 269.800 193.799, 267 196.089 M 755 198 C 754.099 198.582, 753.975 198.975, 754.691 198.985 C 755.346 198.993, 756.160 198.550, 756.500 198 C 757.267 196.758, 756.921 196.758, 755 198 M 261.405 200.142 C 259.507 202.276, 259.508 202.278, 261.750 200.901 C 262.988 200.141, 264 199.177, 264 198.759 C 264 197.554, 263.443 197.850, 261.405 200.142 M 750 200.500 C 749.306 201.337, 749.197 202, 749.755 202 C 750.305 202, 751.315 201.325, 752 200.500 C 752.694 199.663, 752.803 199, 752.245 199 C 751.695 199, 750.685 199.675, 750 200.500 M 253.306 206.573 L 250.500 209.146 253.750 206.885 C 255.537 205.641, 257 204.484, 257 204.312 C 257 203.523, 255.894 204.200, 253.306 206.573 M 735.824 207.882 C 728.076 212.102, 725.701 214.014, 731.500 211.362 C 736.328 209.154, 744.900 203.996, 743.500 204.142 C 742.950 204.199, 739.496 205.882, 735.824 207.882 M 142.459 206.067 C 142.096 206.653, 142.014 207.348, 142.276 207.610 C 142.538 207.872, 143.019 207.392, 143.345 206.543 C 144.021 204.781, 143.445 204.471, 142.459 206.067 M 894.750 210.573 C 892.688 211.924, 891 213.284, 891 213.596 C 891 214.166, 897.676 210.408, 899.450 208.840 C 901.462 207.061, 898.376 208.199, 894.750 210.573 M 246.437 212.250 L 243.500 215.500 246.750 212.563 C 249.779 209.825, 250.460 209, 249.687 209 C 249.515 209, 248.052 210.463, 246.437 212.250 M 138.954 213.086 C 138.340 214.233, 138.026 215.360, 138.257 215.590 C 138.487 215.820, 139.189 214.882, 139.816 213.504 C 141.194 210.480, 140.523 210.154, 138.954 213.086 M 886 216.082 L 883.500 218.120 886.750 216.535 C 888.538 215.662, 890 214.735, 890 214.474 C 890 213.480, 888.407 214.120, 886 216.082 M 238.405 219.250 L 236.500 221.500 238.750 219.595 C 240.864 217.805, 241.455 217, 240.655 217 C 240.465 217, 239.453 218.012, 238.405 219.250 M 134.782 223.451 C 133.854 225.953, 133.293 228, 133.534 228 C 134.232 228, 137.078 220.735, 136.757 219.772 C 136.598 219.294, 135.709 220.949, 134.782 223.451 M 232.189 224.039 C 230.985 225.160, 230 226.364, 230 226.713 C 230 227.063, 231.125 226.292, 232.500 225 C 234.845 222.797, 235.426 222, 234.689 222 C 234.517 222, 233.392 222.918, 232.189 224.039 M 872.750 223.572 C 869.012 225.600, 869.239 226.445, 873 224.500 C 874.650 223.647, 876 222.735, 876 222.474 C 876 221.831, 875.893 221.867, 872.750 223.572 M 226.722 229.011 C 224.814 231.240, 224.461 232.451, 225.995 231.503 C 226.975 230.897, 229.366 227, 228.757 227 C 228.585 227, 227.669 227.905, 226.722 229.011 M 863.250 229.115 C 859.841 231.298, 858.738 232.764, 861.750 231.108 C 864.044 229.847, 867.639 227.068, 867 227.049 C 866.725 227.040, 865.038 227.970, 863.250 229.115 M 132.079 229.668 C 132.036 230.311, 131.741 231.661, 131.424 232.668 C 130.877 234.409, 130.906 234.412, 131.995 232.712 C 132.626 231.729, 132.920 230.379, 132.650 229.712 C 132.295 228.837, 132.136 228.825, 132.079 229.668 M 855.250 233.989 C 853.462 235.079, 852 236.187, 852 236.452 C 852 236.716, 853.575 236.003, 855.500 234.867 C 857.425 233.732, 859 232.622, 859 232.401 C 859 231.762, 858.684 231.895, 855.250 233.989 M 222 234 C 221.099 234.582, 220.975 234.975, 221.691 234.985 C 222.346 234.993, 223.160 234.550, 223.500 234 C 224.267 232.758, 223.921 232.758, 222 234 M 218.564 237.707 C 218.022 239.132, 218.136 239.247, 219.124 238.267 C 219.808 237.588, 220.115 236.781, 219.807 236.474 C 219.499 236.166, 218.940 236.721, 218.564 237.707 M 848.507 237.989 C 848.157 238.555, 848.558 238.723, 849.448 238.382 C 851.180 237.717, 851.497 237, 850.059 237 C 849.541 237, 848.843 237.445, 848.507 237.989 M 129.079 238.668 C 129.036 239.311, 128.741 240.661, 128.424 241.668 C 127.877 243.409, 127.906 243.412, 128.995 241.712 C 129.626 240.729, 129.920 239.379, 129.650 238.712 C 129.295 237.837, 129.136 237.825, 129.079 238.668 M 212.102 244.150 C 209.683 246.822, 206.377 250.919, 204.755 253.254 L 201.807 257.500 205.152 253.500 C 206.993 251.300, 210.479 247.356, 212.900 244.735 C 215.322 242.114, 217.122 239.817, 216.901 239.631 C 216.681 239.444, 214.521 241.478, 212.102 244.150 M 843.872 240.750 C 842.603 242.369, 842.650 242.390, 844.500 241.033 C 845.600 240.226, 846.688 239.439, 846.917 239.283 C 847.146 239.127, 846.863 239, 846.289 239 C 845.715 239, 844.627 239.787, 843.872 240.750 M 839.507 242.989 C 839.157 243.555, 839.558 243.723, 840.448 243.382 C 842.180 242.717, 842.497 242, 841.059 242 C 840.541 242, 839.843 242.445, 839.507 242.989 M 127.079 245.583 C 127.127 246.748, 127.364 246.985, 127.683 246.188 C 127.972 245.466, 127.936 244.603, 127.604 244.271 C 127.272 243.939, 127.036 244.529, 127.079 245.583 M 832.441 247.555 C 830.577 249.049, 830.589 249.067, 832.750 248.020 C 833.987 247.420, 835 246.720, 835 246.465 C 835 245.700, 834.481 245.921, 832.441 247.555 M 824.872 251.750 C 823.603 253.369, 823.650 253.390, 825.500 252.033 C 826.600 251.226, 827.688 250.439, 827.917 250.283 C 828.146 250.127, 827.863 250, 827.289 250 C 826.715 250, 825.627 250.787, 824.872 251.750 M 125.158 254 C 125.158 255.375, 125.385 255.938, 125.662 255.250 C 125.940 254.563, 125.940 253.438, 125.662 252.750 C 125.385 252.063, 125.158 252.625, 125.158 254 M 199.872 259.750 C 198.629 261.336, 198.664 261.371, 200.250 260.128 C 201.916 258.821, 202.445 258, 201.622 258 C 201.415 258, 200.627 258.788, 199.872 259.750 M 802.682 264.398 C 799.483 266.233, 796.333 268.327, 795.682 269.051 C 794.907 269.914, 795.361 269.844, 797 268.849 C 798.375 268.014, 801.638 266.089, 804.250 264.570 C 806.862 263.052, 809 261.628, 809 261.405 C 809 260.785, 808.891 260.836, 802.682 264.398 M 123.158 264 C 123.158 265.375, 123.385 265.938, 123.662 265.250 C 123.940 264.563, 123.940 263.438, 123.662 262.750 C 123.385 262.063, 123.158 262.625, 123.158 264 M 632.750 265.572 C 629.012 267.600, 629.239 268.445, 633 266.500 C 634.650 265.647, 636 264.735, 636 264.474 C 636 263.831, 635.893 263.867, 632.750 265.572 M 193.388 268.531 C 192.475 269.923, 191.911 271.244, 192.133 271.467 C 192.356 271.689, 193.296 270.550, 194.222 268.935 C 196.286 265.340, 195.673 265.043, 193.388 268.531 M 624.500 270.474 C 622.300 271.829, 620.812 272.952, 621.193 272.969 C 622.059 273.008, 629 268.947, 629 268.401 C 629 267.750, 628.691 267.893, 624.500 270.474 M 787.500 273.474 C 782.275 276.692, 783.534 276.721, 789.148 273.512 C 791.542 272.144, 793.050 271.021, 792.500 271.017 C 791.950 271.013, 789.700 272.119, 787.500 273.474 M 122.365 281.500 C 122.368 287, 122.536 289.122, 122.738 286.216 C 122.941 283.311, 122.939 278.811, 122.734 276.216 C 122.528 273.622, 122.363 276, 122.365 281.500 M 188.954 276.086 C 188.340 277.233, 188.026 278.360, 188.257 278.590 C 188.487 278.820, 189.189 277.882, 189.816 276.504 C 191.194 273.480, 190.523 273.154, 188.954 276.086 M 610 278 C 608.075 279.054, 606.860 279.935, 607.300 279.958 C 608.359 280.014, 614 277.081, 614 276.474 C 614 275.820, 613.941 275.842, 610 278 M 779.500 278 C 777.850 279.093, 776.950 279.980, 777.500 279.971 C 778.503 279.955, 783.940 276.058, 783 276.029 C 782.725 276.020, 781.150 276.907, 779.500 278 M 773.559 281.532 C 772.491 282.339, 772.099 283, 772.686 283 C 773.274 283, 774.315 282.325, 775 281.500 C 776.557 279.624, 776.067 279.634, 773.559 281.532 M 185.624 282.539 C 184.659 285.053, 184.943 285.702, 186.122 283.675 C 186.706 282.671, 186.973 281.639, 186.715 281.382 C 186.458 281.124, 185.966 281.645, 185.624 282.539 M 767.742 284.914 C 763.633 287.549, 763.063 288.476, 766.687 286.634 C 768.439 285.743, 770.153 284.561, 770.496 284.007 C 771.297 282.710, 771.058 282.789, 767.742 284.914 M 595.441 285.468 C 594.374 286.276, 593.950 286.936, 594.500 286.936 C 595.050 286.936, 596.374 286.276, 597.441 285.468 C 598.509 284.661, 598.932 284, 598.382 284 C 597.832 284, 596.509 284.661, 595.441 285.468 M 587.656 289.116 C 585.541 290.232, 584.014 291.348, 584.262 291.596 C 584.510 291.844, 586.690 290.917, 589.107 289.535 C 594.336 286.546, 593.167 286.209, 587.656 289.116 M 759.559 289.532 C 758.491 290.339, 758.068 291, 758.618 291 C 759.168 291, 760.491 290.339, 761.559 289.532 C 762.626 288.724, 763.050 288.064, 762.500 288.064 C 761.950 288.064, 760.626 288.724, 759.559 289.532 M 580.500 293 C 580.160 293.550, 580.332 294, 580.882 294 C 581.432 294, 582.160 293.550, 582.500 293 C 582.840 292.450, 582.668 292, 582.118 292 C 581.568 292, 580.840 292.450, 580.500 293 M 750.500 295.843 C 746.650 297.942, 735.400 303.852, 725.500 308.977 C 715.600 314.102, 704.028 320.254, 699.785 322.647 C 695.541 325.041, 691.880 327, 691.649 327 C 691.418 327, 686.163 329.687, 679.972 332.971 C 673.781 336.255, 668.324 338.700, 667.846 338.405 C 667.368 338.110, 667.836 340.035, 668.886 342.684 C 670.743 347.367, 695.866 409.562, 702.295 425.390 C 706.248 435.122, 711.238 440.975, 718.212 444.061 C 723.459 446.382, 723.906 446.406, 775.987 447.130 C 804.855 447.531, 828.630 447.704, 828.820 447.513 C 829.231 447.102, 831.627 452.453, 799.041 381 C 769.348 315.890, 769.986 317.294, 763.479 302.750 C 760.834 296.837, 758.407 292.006, 758.085 292.014 C 757.763 292.022, 754.350 293.745, 750.500 295.843 M 572.507 296.989 C 572.157 297.555, 572.558 297.723, 573.448 297.382 C 575.180 296.717, 575.497 296, 574.059 296 C 573.541 296, 572.843 296.445, 572.507 296.989 M 565 300.500 C 562.525 301.825, 560.950 302.910, 561.500 302.910 C 562.050 302.910, 564.525 301.825, 567 300.500 C 569.475 299.175, 571.050 298.090, 570.500 298.090 C 569.950 298.090, 567.475 299.175, 565 300.500 M 123.232 303 C 123.232 304.925, 123.438 305.712, 123.689 304.750 C 123.941 303.788, 123.941 302.212, 123.689 301.250 C 123.438 300.288, 123.232 301.075, 123.232 303 M 178.158 305 C 178.158 306.375, 178.385 306.938, 178.662 306.250 C 178.940 305.563, 178.940 304.438, 178.662 303.750 C 178.385 303.063, 178.158 303.625, 178.158 305 M 554 305.500 C 551.525 306.825, 549.950 307.910, 550.500 307.910 C 551.050 307.910, 553.525 306.825, 556 305.500 C 558.475 304.175, 560.050 303.090, 559.500 303.090 C 558.950 303.090, 556.475 304.175, 554 305.500 M 124.158 309 C 124.158 310.375, 124.385 310.938, 124.662 310.250 C 124.940 309.563, 124.940 308.438, 124.662 307.750 C 124.385 307.063, 124.158 307.625, 124.158 309 M 546 309 C 545.175 309.533, 544.950 309.969, 545.500 309.969 C 546.050 309.969, 547.175 309.533, 548 309 C 548.825 308.467, 549.050 308.031, 548.500 308.031 C 547.950 308.031, 546.825 308.467, 546 309 M 542 311 C 541.099 311.582, 540.975 311.975, 541.691 311.985 C 542.346 311.993, 543.160 311.550, 543.500 311 C 544.267 309.758, 543.921 309.758, 542 311 M 177.158 313 C 177.158 314.375, 177.385 314.938, 177.662 314.250 C 177.940 313.563, 177.940 312.438, 177.662 311.750 C 177.385 311.063, 177.158 311.625, 177.158 313 M 520 320.500 C 518.625 321.286, 517.950 321.929, 518.500 321.929 C 519.050 321.929, 520.625 321.286, 522 320.500 C 523.375 319.714, 524.050 319.071, 523.500 319.071 C 522.950 319.071, 521.375 319.714, 520 320.500 M 126.079 321.583 C 126.127 322.748, 126.364 322.985, 126.683 322.188 C 126.972 321.466, 126.936 320.603, 126.604 320.271 C 126.272 319.939, 126.036 320.529, 126.079 321.583 M 177.158 325 C 177.158 326.375, 177.385 326.938, 177.662 326.250 C 177.940 325.563, 177.940 324.438, 177.662 323.750 C 177.385 323.063, 177.158 323.625, 177.158 325 M 127.079 325.583 C 127.127 326.748, 127.364 326.985, 127.683 326.188 C 127.972 325.466, 127.936 324.603, 127.604 324.271 C 127.272 323.939, 127.036 324.529, 127.079 325.583 M 506 326 C 505.175 326.533, 504.950 326.969, 505.500 326.969 C 506.050 326.969, 507.175 326.533, 508 326 C 508.825 325.467, 509.050 325.031, 508.500 325.031 C 507.950 325.031, 506.825 325.467, 506 326 M 500 328.500 C 498.625 329.286, 497.950 329.929, 498.500 329.929 C 499.050 329.929, 500.625 329.286, 502 328.500 C 503.375 327.714, 504.050 327.071, 503.500 327.071 C 502.950 327.071, 501.375 327.714, 500 328.500 M 129.079 332.583 C 129.127 333.748, 129.364 333.985, 129.683 333.188 C 129.972 332.466, 129.936 331.603, 129.604 331.271 C 129.272 330.939, 129.036 331.529, 129.079 332.583 M 489.500 332.535 C 486.999 333.740, 486.916 333.878, 489 333.369 C 491.834 332.677, 495.018 331.053, 493.500 331.076 C 492.950 331.084, 491.150 331.740, 489.500 332.535 M 480 335.746 C 477.525 336.619, 475.989 337.496, 476.586 337.695 C 477.183 337.894, 479.658 337.176, 482.086 336.099 C 487.398 333.743, 486.235 333.546, 480 335.746 M 130.039 335.685 C 129.980 337.465, 131.984 342.349, 132.543 341.790 C 132.811 341.522, 132.366 339.772, 131.554 337.901 C 130.743 336.031, 130.061 335.033, 130.039 335.685 M 468.500 340 C 467.181 340.567, 467.011 340.878, 468 340.914 C 468.825 340.945, 470.175 340.533, 471 340 C 472.828 338.819, 471.249 338.819, 468.500 340 M 660.750 341.572 C 656.873 343.675, 657.312 344.401, 661.250 342.399 C 665.020 340.481, 665.687 339.985, 664.417 340.040 C 663.913 340.062, 662.263 340.751, 660.750 341.572 M 461.500 342.535 C 458.999 343.740, 458.916 343.878, 461 343.369 C 463.834 342.677, 467.018 341.053, 465.500 341.076 C 464.950 341.084, 463.150 341.740, 461.500 342.535 M 184 342.451 C 184 343.548, 189.906 350.202, 192.419 351.936 C 193.563 352.726, 192.281 350.926, 189.568 347.936 C 186.856 344.946, 184.493 342.313, 184.318 342.083 C 184.143 341.854, 184 342.020, 184 342.451 M 133.079 344.583 C 133.127 345.748, 133.364 345.985, 133.683 345.188 C 133.972 344.466, 133.936 343.603, 133.604 343.271 C 133.272 342.939, 133.036 343.529, 133.079 344.583 M 651.500 346.526 C 649.300 347.881, 647.950 348.978, 648.500 348.964 C 649.050 348.949, 651.300 347.829, 653.500 346.474 C 655.700 345.119, 657.050 344.022, 656.500 344.036 C 655.950 344.051, 653.700 345.171, 651.500 346.526 M 449.500 346.464 C 445.638 348.232, 447.434 348.258, 452 346.500 C 453.925 345.759, 454.825 345.138, 454 345.121 C 453.175 345.104, 451.150 345.708, 449.500 346.464 M 135.168 350.051 C 135.753 351.729, 136.417 352.917, 136.644 352.690 C 137.139 352.195, 135.252 347, 134.577 347 C 134.317 347, 134.583 348.373, 135.168 350.051 M 432.813 351.683 C 433.534 351.972, 434.397 351.936, 434.729 351.604 C 435.061 351.272, 434.471 351.036, 433.417 351.079 C 432.252 351.127, 432.015 351.364, 432.813 351.683 M 641 352 C 640.099 352.582, 639.975 352.975, 640.691 352.985 C 641.346 352.993, 642.160 352.550, 642.500 352 C 643.267 350.758, 642.921 350.758, 641 352 M 198.461 356.223 C 200.132 357.721, 201.898 358.958, 202.385 358.973 C 202.872 358.988, 201.972 358.019, 200.385 356.821 C 195.953 353.474, 195.095 353.207, 198.461 356.223 M 636.507 353.989 C 636.157 354.555, 636.558 354.723, 637.448 354.382 C 639.180 353.717, 639.497 353, 638.059 353 C 637.541 353, 636.843 353.445, 636.507 353.989 M 420.500 355 C 419.239 355.542, 419.055 355.859, 420 355.859 C 420.825 355.859, 422.400 355.473, 423.500 355 C 424.761 354.458, 424.945 354.141, 424 354.141 C 423.175 354.141, 421.600 354.527, 420.500 355 M 415.813 356.683 C 416.534 356.972, 417.397 356.936, 417.729 356.604 C 418.061 356.272, 417.471 356.036, 416.417 356.079 C 415.252 356.127, 415.015 356.364, 415.813 356.683 M 627 359 C 625.075 360.054, 623.860 360.935, 624.300 360.958 C 625.359 361.014, 631 358.081, 631 357.474 C 631 356.820, 630.941 356.842, 627 359 M 405 359 C 403.020 359.634, 402.916 359.801, 404.500 359.801 C 405.600 359.801, 407.625 359.440, 409 359 C 410.980 358.366, 411.084 358.199, 409.500 358.199 C 408.400 358.199, 406.375 358.560, 405 359 M 139.564 360.293 C 139.940 361.279, 140.499 361.834, 140.807 361.526 C 141.115 361.219, 140.808 360.412, 140.124 359.733 C 139.136 358.753, 139.022 358.868, 139.564 360.293 M 204.733 360.124 C 205.412 360.808, 206.219 361.115, 206.526 360.807 C 206.834 360.499, 206.279 359.940, 205.293 359.564 C 203.868 359.022, 203.753 359.136, 204.733 360.124 M 399.813 360.683 C 400.534 360.972, 401.397 360.936, 401.729 360.604 C 402.061 360.272, 401.471 360.036, 400.417 360.079 C 399.252 360.127, 399.015 360.364, 399.813 360.683 M 395.813 361.683 C 396.534 361.972, 397.397 361.936, 397.729 361.604 C 398.061 361.272, 397.471 361.036, 396.417 361.079 C 395.252 361.127, 395.015 361.364, 395.813 361.683 M 390.750 362.662 C 391.438 362.940, 392.563 362.940, 393.250 362.662 C 393.938 362.385, 393.375 362.158, 392 362.158 C 390.625 362.158, 390.063 362.385, 390.750 362.662 M 142.080 365 C 143.538 368.061, 144 368.628, 144 367.358 C 144 366.821, 143.300 365.509, 142.445 364.441 C 140.978 362.611, 140.958 362.643, 142.080 365 M 380.750 364.662 C 381.438 364.940, 382.563 364.940, 383.250 364.662 C 383.938 364.385, 383.375 364.158, 382 364.158 C 380.625 364.158, 380.063 364.385, 380.750 364.662 M 615 365 C 614.099 365.582, 613.975 365.975, 614.691 365.985 C 615.346 365.993, 616.160 365.550, 616.500 365 C 617.267 363.758, 616.921 363.758, 615 365 M 222 367 C 222.825 367.533, 224.175 367.945, 225 367.914 C 225.989 367.878, 225.819 367.567, 224.500 367 C 221.751 365.819, 220.172 365.819, 222 367 M 370.750 366.662 C 371.438 366.940, 372.563 366.940, 373.250 366.662 C 373.938 366.385, 373.375 366.158, 372 366.158 C 370.625 366.158, 370.063 366.385, 370.750 366.662 M 227.813 368.683 C 228.534 368.972, 229.397 368.936, 229.729 368.604 C 230.061 368.272, 229.471 368.036, 228.417 368.079 C 227.252 368.127, 227.015 368.364, 227.813 368.683 M 360.269 368.693 C 361.242 368.947, 362.592 368.930, 363.269 368.656 C 363.946 368.382, 363.150 368.175, 361.500 368.195 C 359.850 368.215, 359.296 368.439, 360.269 368.693 M 231.813 369.683 C 232.534 369.972, 233.397 369.936, 233.729 369.604 C 234.061 369.272, 233.471 369.036, 232.417 369.079 C 231.252 369.127, 231.015 369.364, 231.813 369.683 M 237 371 C 238.375 371.440, 240.400 371.801, 241.500 371.801 C 243.084 371.801, 242.980 371.634, 241 371 C 239.625 370.560, 237.600 370.199, 236.500 370.199 C 234.916 370.199, 235.020 370.366, 237 371 M 347.269 370.693 C 348.242 370.947, 349.592 370.930, 350.269 370.656 C 350.946 370.382, 350.150 370.175, 348.500 370.195 C 346.850 370.215, 346.296 370.439, 347.269 370.693 M 338.813 371.683 C 339.534 371.972, 340.397 371.936, 340.729 371.604 C 341.061 371.272, 340.471 371.036, 339.417 371.079 C 338.252 371.127, 338.015 371.364, 338.813 371.683 M 599.559 372.532 C 598.491 373.339, 598.041 373.986, 598.559 373.968 C 599.076 373.951, 600.374 373.276, 601.441 372.468 C 602.509 371.661, 602.959 371.014, 602.441 371.032 C 601.924 371.049, 600.626 371.724, 599.559 372.532 M 147 374 C 147.589 375.100, 148.295 376, 148.570 376 C 148.845 376, 148.589 375.100, 148 374 C 147.411 372.900, 146.705 372, 146.430 372 C 146.155 372, 146.411 372.900, 147 374 M 246.250 372.689 C 247.213 372.941, 248.787 372.941, 249.750 372.689 C 250.713 372.438, 249.925 372.232, 248 372.232 C 246.075 372.232, 245.287 372.438, 246.250 372.689 M 330.250 372.689 C 331.212 372.941, 332.788 372.941, 333.750 372.689 C 334.712 372.438, 333.925 372.232, 332 372.232 C 330.075 372.232, 329.288 372.438, 330.250 372.689 M 259.813 373.683 C 260.534 373.972, 261.397 373.936, 261.729 373.604 C 262.061 373.272, 261.471 373.036, 260.417 373.079 C 259.252 373.127, 259.015 373.364, 259.813 373.683 M 316.813 373.683 C 317.534 373.972, 318.397 373.936, 318.729 373.604 C 319.061 373.272, 318.471 373.036, 317.417 373.079 C 316.252 373.127, 316.015 373.364, 316.813 373.683 M 321.250 373.689 C 322.212 373.941, 323.788 373.941, 324.750 373.689 C 325.712 373.438, 324.925 373.232, 323 373.232 C 321.075 373.232, 320.288 373.438, 321.250 373.689 M 266.269 374.693 C 267.242 374.947, 268.592 374.930, 269.269 374.656 C 269.946 374.382, 269.150 374.175, 267.500 374.195 C 265.850 374.215, 265.296 374.439, 266.269 374.693 M 281.250 374.743 C 285.512 374.931, 292.488 374.931, 296.750 374.743 C 301.012 374.556, 297.525 374.402, 289 374.402 C 280.475 374.402, 276.988 374.556, 281.250 374.743 M 307.264 374.718 C 308.784 374.947, 311.034 374.941, 312.264 374.704 C 313.494 374.467, 312.250 374.279, 309.500 374.286 C 306.750 374.294, 305.744 374.488, 307.264 374.718 M 149.808 378.500 C 150.387 379.600, 152.283 382.075, 154.021 384 L 157.181 387.500 153.912 383 C 149.910 377.489, 148.411 375.845, 149.808 378.500 M 585 379.500 C 582.525 380.825, 580.855 381.930, 581.290 381.955 C 582.352 382.016, 590 378.086, 590 377.480 C 590 376.817, 590.041 376.800, 585 379.500 M 575 384 C 573.075 385.054, 571.950 385.916, 572.500 385.916 C 573.050 385.916, 575.075 385.054, 577 384 C 578.925 382.946, 580.050 382.084, 579.500 382.084 C 578.950 382.084, 576.925 382.946, 575 384 M 565 388.500 C 563.625 389.286, 562.976 389.945, 563.559 389.965 C 564.141 389.984, 565.491 389.339, 566.559 388.532 C 569.028 386.664, 568.239 386.648, 565 388.500 M 158.564 390 C 161.752 394.117, 173.857 406.488, 174.196 405.976 C 174.369 405.714, 170.487 401.450, 165.569 396.500 C 160.652 391.550, 157.499 388.625, 158.564 390 M 557.872 391.664 C 556.617 393.186, 556.713 393.217, 559 392.028 C 562.352 390.286, 562.605 390, 560.789 390 C 559.940 390, 558.627 390.749, 557.872 391.664 M 543.750 397.572 C 539.873 399.675, 540.312 400.401, 544.250 398.399 C 548.020 396.481, 548.687 395.985, 547.417 396.040 C 546.913 396.062, 545.263 396.751, 543.750 397.572 M 523 406 C 521.172 407.181, 522.751 407.181, 525.500 406 C 526.819 405.433, 526.989 405.122, 526 405.086 C 525.175 405.055, 523.825 405.467, 523 406 M 177.500 409 C 178.495 410.100, 179.535 411, 179.810 411 C 180.085 411, 179.495 410.100, 178.500 409 C 177.505 407.900, 176.465 407, 176.190 407 C 175.915 407, 176.505 407.900, 177.500 409 M 514 409.500 C 512.625 410.286, 511.950 410.929, 512.500 410.929 C 513.050 410.929, 514.625 410.286, 516 409.500 C 517.375 408.714, 518.050 408.071, 517.500 408.071 C 516.950 408.071, 515.375 408.714, 514 409.500 M 185 414.350 C 185 414.581, 186.180 415.543, 187.623 416.489 C 189.066 417.434, 189.941 417.713, 189.567 417.109 C 188.854 415.955, 185 413.626, 185 414.350 M 191.733 419.124 C 192.412 419.808, 193.219 420.115, 193.526 419.807 C 193.834 419.499, 193.279 418.940, 192.293 418.564 C 190.868 418.022, 190.753 418.136, 191.733 419.124 M 195.544 421.071 C 196.193 422.121, 204 426.308, 204 425.606 C 204 425.367, 201.964 424.033, 199.476 422.643 C 196.988 421.252, 195.219 420.545, 195.544 421.071 M 467.813 425.683 C 468.534 425.972, 469.397 425.936, 469.729 425.604 C 470.061 425.272, 469.471 425.036, 468.417 425.079 C 467.252 425.127, 467.015 425.364, 467.813 425.683 M 206 427 C 206.825 427.533, 207.950 427.969, 208.500 427.969 C 209.050 427.969, 208.825 427.533, 208 427 C 207.175 426.467, 206.050 426.031, 205.500 426.031 C 204.950 426.031, 205.175 426.467, 206 427 M 459.269 427.693 C 460.242 427.947, 461.592 427.930, 462.269 427.656 C 462.946 427.382, 462.150 427.175, 460.500 427.195 C 458.850 427.215, 458.296 427.439, 459.269 427.693 M 452.813 429.683 C 453.534 429.972, 454.397 429.936, 454.729 429.604 C 455.061 429.272, 454.471 429.036, 453.417 429.079 C 452.252 429.127, 452.015 429.364, 452.813 429.683 M 446.500 431 C 445.239 431.542, 445.055 431.859, 446 431.859 C 446.825 431.859, 448.400 431.473, 449.500 431 C 450.761 430.458, 450.945 430.141, 450 430.141 C 449.175 430.141, 447.600 430.527, 446.500 431 M 220 433 C 220.825 433.533, 221.950 433.969, 222.500 433.969 C 223.050 433.969, 222.825 433.533, 222 433 C 221.175 432.467, 220.050 432.031, 219.500 432.031 C 218.950 432.031, 219.175 432.467, 220 433 M 441.813 432.683 C 442.534 432.972, 443.397 432.936, 443.729 432.604 C 444.061 432.272, 443.471 432.036, 442.417 432.079 C 441.252 432.127, 441.015 432.364, 441.813 432.683 M 437.813 433.683 C 438.534 433.972, 439.397 433.936, 439.729 433.604 C 440.061 433.272, 439.471 433.036, 438.417 433.079 C 437.252 433.127, 437.015 433.364, 437.813 433.683 M 433.813 434.683 C 434.534 434.972, 435.397 434.936, 435.729 434.604 C 436.061 434.272, 435.471 434.036, 434.417 434.079 C 433.252 434.127, 433.015 434.364, 433.813 434.683 M 228 436 C 228.825 436.533, 229.950 436.969, 230.500 436.969 C 231.050 436.969, 230.825 436.533, 230 436 C 229.175 435.467, 228.050 435.031, 227.500 435.031 C 226.950 435.031, 227.175 435.467, 228 436 M 429.813 435.683 C 430.534 435.972, 431.397 435.936, 431.729 435.604 C 432.061 435.272, 431.471 435.036, 430.417 435.079 C 429.252 435.127, 429.015 435.364, 429.813 435.683 M 420.750 437.662 C 421.438 437.940, 422.563 437.940, 423.250 437.662 C 423.938 437.385, 423.375 437.158, 422 437.158 C 420.625 437.158, 420.063 437.385, 420.750 437.662 M 415.750 438.662 C 416.438 438.940, 417.563 438.940, 418.250 438.662 C 418.938 438.385, 418.375 438.158, 417 438.158 C 415.625 438.158, 415.063 438.385, 415.750 438.662 M 409.269 439.693 C 410.242 439.947, 411.592 439.930, 412.269 439.656 C 412.946 439.382, 412.150 439.175, 410.500 439.195 C 408.850 439.215, 408.296 439.439, 409.269 439.693 M 399.813 441.683 C 400.534 441.972, 401.397 441.936, 401.729 441.604 C 402.061 441.272, 401.471 441.036, 400.417 441.079 C 399.252 441.127, 399.015 441.364, 399.813 441.683 M 251.750 442.662 C 252.438 442.940, 253.563 442.940, 254.250 442.662 C 254.938 442.385, 254.375 442.158, 253 442.158 C 251.625 442.158, 251.063 442.385, 251.750 442.662 M 393.750 442.662 C 394.438 442.940, 395.563 442.940, 396.250 442.662 C 396.938 442.385, 396.375 442.158, 395 442.158 C 393.625 442.158, 393.063 442.385, 393.750 442.662 M 256.750 443.662 C 257.438 443.940, 258.563 443.940, 259.250 443.662 C 259.938 443.385, 259.375 443.158, 258 443.158 C 256.625 443.158, 256.063 443.385, 256.750 443.662 M 387.269 443.693 C 388.242 443.947, 389.592 443.930, 390.269 443.656 C 390.946 443.382, 390.150 443.175, 388.500 443.195 C 386.850 443.215, 386.296 443.439, 387.269 443.693 M 261.750 444.662 C 262.438 444.940, 263.563 444.940, 264.250 444.662 C 264.938 444.385, 264.375 444.158, 263 444.158 C 261.625 444.158, 261.063 444.385, 261.750 444.662 M 381.269 444.693 C 382.242 444.947, 383.592 444.930, 384.269 444.656 C 384.946 444.382, 384.150 444.175, 382.500 444.195 C 380.850 444.215, 380.296 444.439, 381.269 444.693 M 267.269 445.693 C 268.242 445.947, 269.592 445.930, 270.269 445.656 C 270.946 445.382, 270.150 445.175, 268.500 445.195 C 266.850 445.215, 266.296 445.439, 267.269 445.693 M 372.750 445.706 C 373.988 445.944, 376.012 445.944, 377.250 445.706 C 378.488 445.467, 377.475 445.272, 375 445.272 C 372.525 445.272, 371.512 445.467, 372.750 445.706 M 273.250 446.689 C 274.212 446.941, 275.788 446.941, 276.750 446.689 C 277.712 446.438, 276.925 446.232, 275 446.232 C 273.075 446.232, 272.288 446.438, 273.250 446.689 M 364.762 446.707 C 366.006 446.946, 367.806 446.937, 368.762 446.687 C 369.718 446.437, 368.700 446.241, 366.500 446.252 C 364.300 446.263, 363.518 446.468, 364.762 446.707 M 281.762 447.707 C 283.006 447.946, 284.806 447.937, 285.762 447.687 C 286.718 447.437, 285.700 447.241, 283.500 447.252 C 281.300 447.263, 280.518 447.468, 281.762 447.707 M 354.762 447.707 C 356.006 447.946, 357.806 447.937, 358.762 447.687 C 359.718 447.437, 358.700 447.241, 356.500 447.252 C 354.300 447.263, 353.518 447.468, 354.762 447.707 M 290.750 448.706 C 291.988 448.944, 294.012 448.944, 295.250 448.706 C 296.488 448.467, 295.475 448.272, 293 448.272 C 290.525 448.272, 289.512 448.467, 290.750 448.706 M 340.250 448.728 C 342.313 448.944, 345.688 448.944, 347.750 448.728 C 349.813 448.513, 348.125 448.336, 344 448.336 C 339.875 448.336, 338.188 448.513, 340.250 448.728 M 314.789 449.741 C 318.248 449.937, 323.648 449.936, 326.789 449.738 C 329.930 449.540, 327.100 449.380, 320.500 449.382 C 313.900 449.384, 311.330 449.546, 314.789 449.741 M 121 524.500 L 121 556 485 556 L 849 556 849 524.500 L 849 493 485 493 L 121 493 121 524.500" stroke="none" fill="#ffffff" fill-rule="evenodd"/>
</svg>