<svg xmlns="http://www.w3.org/2000/svg" width="1000" height="307" viewBox="0 0 1000 307" version="1.1">
	<path d="M 467.263 41.041 C 461.245 43.780, 459.645 45.165, 458.645 48.500 C 457.502 52.315, 459.415 53.401, 468.526 54.110 C 476.040 54.694, 477.526 55.130, 479.961 57.463 L 482.761 60.145 484.864 57.191 C 486.712 54.596, 487.783 54.149, 493.658 53.520 C 504.269 52.384, 504.752 51.866, 500.250 46.465 C 498.738 44.650, 496.733 42.059, 495.796 40.706 C 494.162 38.347, 493.665 38.250, 483.560 38.332 C 474.433 38.406, 472.257 38.768, 467.263 41.041 M 96.439 45.191 C 85.978 46.669, 84.753 47.154, 79.706 51.816 C 71.286 59.594, 69 62.139, 69 63.734 C 69 64.572, 67.200 69.470, 65 74.619 C 59.773 86.853, 59.651 92.079, 64.338 102.838 C 66.175 107.052, 68.537 112.938, 69.588 115.919 C 71.191 120.460, 72.310 121.859, 76.500 124.559 C 79.250 126.331, 82.577 128.940, 83.894 130.357 C 87.540 134.284, 94.857 136.263, 105.586 136.227 C 119.021 136.181, 122 134.916, 133.555 124.350 C 137.404 120.830, 138.061 116.960, 135.443 113.223 C 132.876 109.558, 129.966 110.503, 122.316 117.485 C 114.161 124.928, 111.918 126, 104.500 126 C 96.998 126, 94.800 124.913, 87.309 117.495 C 81.593 111.835, 80.560 110.238, 79.406 105.271 C 75.507 88.500, 77.159 75.239, 84.287 66.094 C 90.094 58.643, 92.521 57.098, 100.323 55.883 C 106.264 54.958, 107.934 55.089, 114.094 56.960 C 120.251 58.830, 121.485 59.630, 124.239 63.536 C 125.963 65.983, 128.222 68.253, 129.259 68.582 C 134.094 70.117, 138.762 66.174, 137.599 61.538 C 136.930 58.872, 130.083 51.764, 124.815 48.267 C 121.787 46.256, 119.367 45.701, 111.254 45.156 C 105.822 44.791, 99.155 44.807, 96.439 45.191 M 225.389 48.956 C 222.732 50.060, 221.615 52.832, 223.105 54.627 C 224.551 56.369, 231.055 56.411, 233.404 54.694 C 234.502 53.891, 235.057 52.446, 234.845 50.944 C 234.561 48.934, 233.879 48.463, 231 48.289 C 229.075 48.174, 226.550 48.473, 225.389 48.956 M 570.364 49.170 C 569.189 49.738, 567.762 51.226, 567.193 52.476 C 566.560 53.866, 566.042 68.755, 565.860 90.843 C 565.570 126.006, 565.616 127.009, 567.630 129.719 C 570.027 132.943, 574.083 133.810, 575.994 131.507 C 576.864 130.458, 577.590 124.888, 578.114 115.228 C 579.071 97.583, 580.323 91.678, 583.665 89.049 C 588.174 85.502, 589.708 87.793, 592 101.500 C 593.593 111.023, 594.571 114.080, 599.288 124.275 C 603.475 133.322, 604.903 134.587, 610.081 133.833 C 613.870 133.281, 620.505 121.162, 622.878 110.460 C 627.130 91.279, 629.766 85.901, 633.426 88.939 C 636.137 91.189, 637.920 99.874, 638.842 115.328 C 639.805 131.469, 640.666 133.803, 645.232 132.657 C 649.784 131.514, 650.018 129.669, 650.373 92 C 650.738 53.381, 650.454 50.884, 645.483 48.994 C 641.798 47.593, 636.510 47.760, 632.581 49.402 C 628.953 50.918, 627.297 54.581, 625.020 66.125 C 624.409 69.219, 622.561 73.878, 620.912 76.478 C 619.186 79.199, 617.043 84.873, 615.861 89.847 C 613.441 100.040, 612.689 101.647, 609.929 102.522 C 606.921 103.477, 604.555 100.855, 601.477 93.158 C 600.013 89.496, 597.761 84.250, 596.472 81.500 C 595.183 78.750, 592.948 71.814, 591.506 66.086 C 588.251 53.168, 586.901 50.510, 582.881 49.108 C 578.989 47.752, 573.234 47.780, 570.364 49.170 M 318.206 52.465 C 317.140 53.821, 315.976 57.123, 315.621 59.803 C 314.457 68.575, 309.105 71.471, 295.956 70.443 C 286.264 69.684, 283.949 70.426, 278.098 76.164 C 274.900 79.300, 270.031 88.050, 270.010 90.699 C 270.004 91.359, 268.425 93.100, 266.500 94.568 C 262.056 97.957, 261.901 101.568, 265.877 109.071 C 267.459 112.057, 270.156 117.257, 271.869 120.627 C 275.581 127.927, 281.322 133.417, 287.034 135.128 C 290.338 136.118, 292.661 136.122, 298.346 135.146 C 302.281 134.470, 309.698 133.641, 314.829 133.303 C 328.374 132.410, 327.436 135.437, 327.796 91.482 C 327.983 68.594, 327.718 54.388, 327.071 52.686 C 325.695 49.067, 320.971 48.949, 318.206 52.465 M 345.476 51.039 C 345.084 51.673, 345.439 52.868, 346.265 53.694 C 347.466 54.895, 348.202 54.962, 349.944 54.030 C 351.142 53.389, 351.947 52.333, 351.734 51.682 C 351.211 50.090, 346.370 49.592, 345.476 51.039 M 928.924 52.581 L 926.500 55.162 926.391 90.110 C 926.294 121.216, 926.469 125.406, 927.981 128.226 C 931.719 135.194, 939.334 133.700, 940.499 125.769 C 940.844 123.421, 940.985 106.156, 940.813 87.402 C 940.564 60.326, 940.217 52.964, 939.128 51.652 C 936.998 49.088, 931.757 49.565, 928.924 52.581 M 379.466 54.250 C 379.207 54.938, 378.145 58.425, 377.106 62 C 376.067 65.575, 374.626 69.945, 373.904 71.710 C 372.771 74.482, 372.826 75.412, 374.308 78.521 C 376.763 83.669, 377.957 93.512, 377.980 108.790 C 377.997 120.018, 378.306 122.679, 379.972 125.945 C 383.708 133.268, 391.498 136.870, 396.504 133.589 C 399.676 131.511, 399.653 129.545, 396.408 125.291 C 391.746 119.178, 388.999 110.813, 389.012 102.770 C 389.027 93.473, 390.905 86.494, 394.861 81.033 C 396.588 78.650, 398 75.747, 398 74.582 C 398 73.417, 396.224 70.314, 394.053 67.687 C 391.883 65.060, 389.799 61.919, 389.422 60.706 C 388.110 56.478, 384.941 53, 382.401 53 C 381.046 53, 379.725 53.563, 379.466 54.250 M 748.416 55.421 C 747.300 56.203, 744.644 60.752, 742.515 65.531 C 738.944 73.545, 738.744 74.462, 739.936 77.359 C 744.657 88.838, 745.128 91.364, 745.089 105 L 745.051 118.500 748.881 125.500 C 752.281 131.715, 753.192 132.656, 757.002 133.891 C 760.003 134.863, 762.372 135.014, 764.886 134.391 C 770.134 133.090, 770.092 130.591, 764.738 125.629 C 760.493 121.695, 760.222 121.106, 759.005 113.158 C 756.600 97.460, 759.008 82.918, 764.894 77.595 C 766.052 76.547, 767 75.266, 767 74.748 C 767 74.231, 765.211 71.774, 763.024 69.290 C 760.837 66.806, 758.769 63.288, 758.429 61.473 C 757.708 57.629, 754.675 54, 752.184 54 C 751.227 54, 749.532 54.640, 748.416 55.421 M 215.404 70.392 C 212.153 71.906, 209.537 74.013, 208.179 76.211 C 206.119 79.544, 202.426 82, 199.476 82 C 196.280 82, 195.038 86.369, 194.484 99.553 C 193.785 116.177, 195.247 121.251, 201.768 124.828 C 204.116 126.116, 206.670 128.394, 207.443 129.890 C 209.522 133.911, 213.412 135.283, 224 135.732 C 232.438 136.089, 234.002 135.875, 237.992 133.817 C 243.576 130.937, 247 126.008, 247 120.852 C 247 117.415, 246.732 117, 244.513 117 C 242.616 117, 241.680 117.831, 240.562 120.506 C 238.688 124.992, 235.677 126.141, 225.282 126.342 C 217.625 126.489, 216.883 126.319, 214.406 123.851 C 212.171 121.624, 211.667 120.079, 211.243 114.157 C 210.817 108.199, 211.082 106.455, 212.964 102.845 C 215.167 98.617, 215.172 98.521, 213.420 92.735 C 211.364 85.944, 212.120 82.297, 216.017 80.217 C 218.906 78.674, 231.573 79.166, 234.909 80.951 C 237.451 82.312, 237.682 86.814, 235.525 92.928 C 234.375 96.188, 234.308 97.521, 235.221 98.983 C 237.876 103.234, 244.571 104.169, 249.750 101.011 C 253.558 98.689, 253.688 97.427, 250.956 89.335 C 248.966 83.442, 245.943 79, 243.924 79 C 243.375 79, 241 77.019, 238.647 74.598 C 231.937 67.694, 224.204 66.295, 215.404 70.392 M 871.238 71.122 C 869.268 71.690, 867.095 73.408, 865.750 75.460 C 864.526 77.328, 862.078 79.546, 860.311 80.389 C 854.882 82.977, 853.694 85.922, 853.196 98.018 C 852.548 113.744, 853.487 119.699, 857.122 122.907 C 858.738 124.333, 861.960 127.385, 864.280 129.689 C 866.601 131.992, 869.767 134.355, 871.315 134.939 C 875.677 136.583, 890.321 136.255, 894.933 134.410 C 901.361 131.838, 907.747 119.816, 903.937 117.461 C 903.352 117.100, 901.215 118.570, 899.187 120.728 C 895.964 124.158, 894.589 124.819, 888.254 125.985 C 880.594 127.396, 875.426 126.636, 870.434 123.365 C 867.278 121.297, 866.307 111.450, 868.410 102.842 C 869.263 99.354, 869.857 93.637, 869.730 90.137 C 869.519 84.303, 869.719 83.608, 872.136 81.777 C 875.871 78.947, 882.710 78.411, 888.890 80.463 C 895.092 82.524, 895.971 84.736, 893.539 92.170 L 891.856 97.317 894.678 100.064 C 898.617 103.897, 902.676 104.526, 906.869 101.952 C 910.118 99.958, 910.222 99.699, 909.797 94.692 C 909.182 87.454, 906.397 82.064, 902.411 80.398 C 900.627 79.653, 898.162 77.632, 896.935 75.908 C 895.707 74.184, 893.209 72.150, 891.383 71.387 C 887.666 69.834, 876.223 69.683, 871.238 71.122 M 786.273 74.704 C 784.774 76.990, 784.446 80.276, 784.149 95.954 C 783.708 119.204, 784.538 123.591, 790.505 129.558 C 796.064 135.117, 801.110 136.721, 808.252 135.199 C 811.138 134.584, 817.775 133.781, 823 133.414 C 828.225 133.047, 833.272 132.346, 834.216 131.856 C 838.138 129.822, 840.778 106.847, 839.084 89.500 C 837.718 75.507, 837.089 74, 832.620 74 C 825.941 74, 823.633 80.540, 824.614 96.687 C 825.306 108.081, 825.294 108.136, 819.420 121.773 C 817.036 127.307, 812.694 127.892, 803.380 123.933 C 797.515 121.441, 796.832 118.871, 796.043 96.359 C 795.498 80.779, 795.055 76.733, 793.663 74.609 C 791.461 71.248, 788.514 71.286, 786.273 74.704 M 161.615 75.088 C 155.430 79.953, 154.783 85.218, 156.552 116.256 C 157.293 129.266, 158.870 133, 163.624 133 C 167.819 133, 169 128.264, 169 111.433 C 169 100.386, 169.373 96.031, 170.521 93.651 C 172.226 90.118, 182.203 79.267, 185.921 76.902 C 190.409 74.046, 187.637 73, 175.576 73 C 165.625 73, 163.952 73.250, 161.615 75.088 M 673.366 75.564 C 671.808 77.942, 671.631 80.645, 671.828 99.101 C 672.076 122.389, 672.924 126.234, 678.930 131.288 C 684.503 135.977, 688.198 136.475, 703.166 134.556 C 720.973 132.274, 720.733 132.337, 722.656 129.402 C 724.072 127.241, 724.411 123.155, 724.800 103.596 C 725.129 87.012, 724.928 79.733, 724.096 78.179 C 722.545 75.282, 718.833 75.380, 715.306 78.411 C 712.516 80.808, 712.498 80.901, 712.189 94.661 C 711.913 106.945, 711.603 109.056, 709.439 113.446 C 708.097 116.167, 706.986 119.092, 706.968 119.946 C 706.926 122.008, 705.021 124.396, 702.235 125.880 C 697.448 128.430, 688.466 123.696, 684.756 116.666 C 682.770 112.903, 682.542 110.894, 682.400 95.889 C 682.229 77.962, 681.286 73.758, 677.304 73.189 C 675.833 72.978, 674.555 73.749, 673.366 75.564 M 346.640 76.503 C 345.816 77.327, 344.676 80.364, 344.106 83.251 C 342.788 89.936, 343.358 125.565, 344.843 129.250 C 346.342 132.973, 350.300 132.996, 352.727 129.297 C 355.297 125.380, 355.983 84.802, 353.559 80.114 C 351.432 76.001, 348.613 74.530, 346.640 76.503 M 295 80.370 C 291.975 81.021, 288.927 81.912, 288.227 82.350 C 285.913 83.798, 280.835 96.402, 280.293 102.046 C 279.852 106.631, 280.188 108.449, 282.237 112.546 C 283.599 115.271, 285.019 118.767, 285.393 120.316 C 286.182 123.591, 290.015 125.535, 297.692 126.554 C 304.206 127.418, 306.608 126.080, 309.137 120.181 C 310.240 117.608, 312.235 114.069, 313.571 112.318 C 315.566 109.702, 316 107.975, 316 102.643 C 316 97.285, 315.588 95.661, 313.637 93.327 C 312.337 91.772, 310.345 88.670, 309.210 86.433 C 305.760 79.635, 303.300 78.585, 295 80.370 M 434.486 95.765 C 433.928 96.169, 431.566 98.701, 429.236 101.391 C 424.590 106.755, 423.779 110.812, 426.561 114.783 C 428.346 117.332, 433.634 120.344, 434.925 119.547 C 436.026 118.866, 437 121.373, 437 124.891 C 437 129.803, 439.186 131.527, 445.103 131.281 C 452.055 130.992, 453.491 129.535, 452.060 124.221 C 451.185 120.975, 451.284 119.233, 452.555 115.490 C 453.428 112.918, 453.895 110.169, 453.593 109.380 C 453.290 108.592, 451.010 107.076, 448.527 106.011 C 444.954 104.480, 443.550 103.128, 441.806 99.538 C 439.647 95.093, 437.173 93.818, 434.486 95.765 M 523.872 96.644 C 523.118 97.548, 521.590 99.903, 520.478 101.877 C 518.722 104.994, 517.750 105.599, 513.086 106.484 C 506.750 107.685, 504.957 109.683, 506.920 113.351 C 508.447 116.203, 511.530 117.322, 514.089 115.952 C 516.583 114.618, 518.711 115.712, 519.465 118.717 C 520.353 122.253, 518.804 123.415, 513.564 123.144 C 509.819 122.950, 508.850 123.299, 507.529 125.316 C 502.876 132.416, 513.372 134.017, 523.124 127.695 C 530.135 123.149, 531 121.019, 531 108.296 C 531 97.149, 530.341 95, 526.922 95 C 526 95, 524.627 95.740, 523.872 96.644 M 368 175 C 365.685 177.315, 365.367 183.209, 367.061 192.374 C 367.941 197.132, 367.832 198.991, 366.422 203.235 C 365.002 207.509, 364.866 209.935, 365.596 217.927 C 366.077 223.192, 366.341 233.672, 366.182 241.216 C 365.810 258.912, 366.075 259.473, 374.346 258.508 C 377.731 258.114, 382.975 257.668, 386 257.518 C 389.025 257.368, 392.400 257.159, 393.500 257.053 L 395.500 256.859 393.500 256.029 C 392.400 255.572, 389.663 255.429, 387.419 255.712 C 379.432 256.717, 373.660 251.285, 371.405 240.639 C 370.236 235.118, 370.301 233.846, 372.053 228 C 373.124 224.425, 375.301 219.304, 376.891 216.619 L 379.781 211.738 374.890 205.669 C 369.532 199.019, 369.218 197.499, 371.546 189.489 C 372.682 185.582, 374.249 183.103, 377.449 180.154 L 381.805 176.139 377.882 174.569 C 372.687 172.491, 370.410 172.590, 368 175 M 386.500 176 C 386.131 176.596, 387.343 177, 389.500 177 C 391.657 177, 392.869 176.596, 392.500 176 C 392.160 175.450, 390.810 175, 389.500 175 C 388.190 175, 386.840 175.450, 386.500 176 M 573.172 182.894 C 571.377 184.003, 568 193.465, 568 197.384 C 568 199.233, 568.918 202.820, 570.039 205.356 C 571.911 209.586, 572.060 211.714, 571.850 231.233 C 571.597 254.869, 572.021 257, 576.976 257 C 581.021 257, 581.414 255.731, 578.897 250.797 C 576.967 247.015, 576.661 244.461, 576.223 228.489 C 575.759 211.545, 575.857 210.200, 577.850 206.294 C 579.017 204.007, 580.428 201.854, 580.986 201.509 C 582.217 200.748, 582.336 196.326, 581.145 195.590 C 580.675 195.299, 579.306 192.363, 578.104 189.064 C 575.738 182.575, 575.060 181.727, 573.172 182.894 M 592.250 197.662 C 590.329 198.437, 590.747 200.661, 593.633 205.021 C 596.411 209.220, 598.386 210.042, 599.393 207.418 C 601.727 201.335, 597.490 195.548, 592.250 197.662 M 430.116 199.712 C 424.507 202.476, 421.450 211.794, 423.975 218.435 C 424.512 219.846, 425.377 221, 425.898 221 C 427.068 221, 428.623 216.088, 429.499 209.624 C 430.305 203.681, 433.539 200, 437.955 200 C 439.630 200, 441 199.550, 441 199 C 441 197.413, 433.831 197.882, 430.116 199.712 M 454.337 200.564 C 454.007 201.424, 454.249 203.250, 454.874 204.622 C 455.499 205.994, 456.641 211.028, 457.411 215.809 C 459.542 229.031, 457.407 246.670, 452.997 252.277 C 450.441 255.526, 450.481 256.089, 453.512 259.594 C 456.151 262.646, 457.985 267.747, 457.994 272.059 C 457.997 273.466, 458.666 275.491, 459.481 276.559 C 462.455 280.457, 462.964 276.143, 463.209 245 C 463.483 210.158, 463.285 203.400, 461.911 200.834 C 460.675 198.524, 455.195 198.328, 454.337 200.564 M 481.626 201.533 C 480.819 203.635, 480.832 244.772, 481.641 247.790 C 481.978 249.050, 483.435 250.691, 484.877 251.437 L 487.500 252.795 487.189 229.647 C 487.018 216.916, 486.539 205.151, 486.126 203.502 C 485.292 200.176, 482.599 198.997, 481.626 201.533 M 516.309 201.250 C 515.864 201.938, 515.454 210.375, 515.399 220 C 515.343 229.625, 514.726 240.425, 514.027 244 C 511.902 254.877, 512.055 256.449, 515.272 256.819 C 520.310 257.397, 520.932 253.770, 520.526 226.216 C 520.330 212.944, 519.880 201.616, 519.526 201.042 C 518.659 199.639, 517.294 199.728, 516.309 201.250 M 630.237 201.163 C 628.779 202.621, 628.539 214.597, 629.950 215.469 C 632.378 216.970, 634.901 204.615, 632.764 201.692 C 631.739 200.290, 631.219 200.181, 630.237 201.163 M 424.765 230.571 C 423.359 232.847, 422.809 243.890, 423.932 247.295 C 425.712 252.687, 429.935 253.100, 429.985 247.886 C 430.038 242.248, 425.944 228.664, 424.765 230.571 M 608.035 231.934 C 607.466 232.998, 607 236.734, 607 240.237 C 607 245.660, 607.425 247.192, 609.862 250.553 C 611.437 252.724, 613.151 255.818, 613.672 257.429 C 615.022 261.604, 617.492 262.936, 619.731 260.698 C 621.067 259.362, 621.584 256.908, 621.844 250.676 L 622.188 242.423 616.204 236.211 C 612.912 232.795, 609.961 230, 609.645 230 C 609.329 230, 608.605 230.870, 608.035 231.934 M 489 253.826 C 489 255.672, 492.808 258, 495.829 258 C 499.709 258, 500.231 255.294, 496.500 254.519 C 495.125 254.234, 492.875 253.766, 491.500 253.481 C 490.125 253.195, 489 253.351, 489 253.826 M 605.383 275.347 C 602.955 277.436, 602.750 277.994, 603.905 279.385 C 604.642 280.273, 606 281, 606.922 281 C 610.567 281, 612.359 276.373, 609.601 274.084 C 608.502 273.172, 607.596 273.443, 605.383 275.347" stroke="none" fill="#ffffff" fill-rule="evenodd"/>
</svg>