<svg xmlns="http://www.w3.org/2000/svg" width="1000" height="563" viewBox="0 0 1000 563" version="1.1">
	<path d="M 894 11.857 C 890.425 13.921, 882.550 18.244, 876.500 21.462 C 870.450 24.680, 859.200 30.681, 851.500 34.796 C 830.792 45.864, 808.378 57.826, 801 61.748 C 797.425 63.648, 787.075 69.172, 778 74.023 C 752.457 87.675, 737.967 94.279, 722 99.545 C 717.325 101.087, 713.356 102.451, 713.181 102.577 C 713.005 102.702, 713.741 104.762, 714.816 107.153 C 715.891 109.544, 719.327 117.575, 722.453 125 C 729.626 142.042, 731.554 145.838, 734.760 149.232 C 739.409 154.155, 748.798 156.483, 757.541 154.880 C 761.103 154.226, 796.862 135.304, 840.663 110.893 C 848.453 106.552, 855.057 103, 855.338 103 C 855.620 103, 860.496 100.385, 866.175 97.189 C 871.854 93.993, 882.462 88.114, 889.750 84.126 L 903 76.874 903 42.437 C 903 15.526, 902.727 8.011, 901.750 8.052 C 901.063 8.081, 897.575 9.793, 894 11.857 M 896 15.131 C 896 16.224, 900.031 18.302, 900.752 17.581 C 901.072 17.261, 900.808 17, 900.167 17 C 899.525 17, 899 16.400, 899 15.667 C 899 14.933, 898.325 14.333, 897.500 14.333 C 896.675 14.333, 896 14.693, 896 15.131 M 892 17 C 892 17.550, 893.013 17.993, 894.250 17.985 C 896.069 17.972, 896.213 17.784, 895 17 C 893.061 15.747, 892 15.747, 892 17 M 889.009 19.489 C 888.329 20.308, 887.405 20.751, 886.956 20.473 C 886.506 20.195, 885.856 20.425, 885.510 20.984 C 885.165 21.543, 884.071 22, 883.080 22 C 881.725 22, 881.389 22.586, 881.728 24.360 C 882.271 27.200, 879.202 28.407, 875.254 26.906 C 873.862 26.377, 872.507 26.160, 872.243 26.423 C 871.980 26.687, 872.939 27.198, 874.375 27.558 C 875.811 27.918, 876.743 28.606, 876.447 29.086 C 876.150 29.566, 875.065 29.433, 874.035 28.790 C 872.579 27.881, 871.808 27.915, 870.570 28.942 C 869.119 30.146, 869.131 30.375, 870.701 31.523 C 872.133 32.570, 872.206 33.047, 871.133 34.340 C 869.424 36.399, 862.671 40.360, 863.612 38.752 C 864.014 38.063, 863.479 38.250, 862.422 39.166 C 860.236 41.062, 855.012 40.575, 853.700 38.354 C 853.260 37.609, 852.360 37.007, 851.700 37.015 C 850.955 37.025, 851.058 37.383, 851.972 37.962 C 853.233 38.759, 853.197 38.987, 851.722 39.553 C 850.775 39.917, 849.964 40.953, 849.921 41.857 C 849.878 42.761, 849.631 42.985, 849.373 42.356 C 849.115 41.727, 847.988 41.452, 846.868 41.745 C 845.694 42.052, 845.282 42.556, 845.894 42.935 C 846.565 43.349, 846.228 44.217, 844.979 45.286 C 843.890 46.218, 843 46.535, 843 45.990 C 843 45.446, 842.250 45, 841.333 45 C 840.417 45, 839.977 45.311, 840.357 45.690 C 840.737 46.070, 839.855 46.868, 838.398 47.463 C 835.886 48.490, 835.843 48.623, 837.561 50.023 C 839.194 51.353, 839.309 51.326, 838.719 49.750 C 837.987 47.798, 839.597 47.438, 842 49.015 C 843.252 49.837, 843.130 50.101, 841.261 50.614 C 840.030 50.951, 839.240 51.579, 839.506 52.009 C 839.771 52.439, 839.339 53.040, 838.545 53.344 C 837.690 53.672, 837.277 53.410, 837.532 52.699 C 837.769 52.040, 836.418 50.733, 834.531 49.797 C 831.582 48.333, 831.181 48.308, 831.685 49.622 C 832.051 50.575, 831.750 51.077, 830.886 50.957 C 827.778 50.523, 826.885 51.077, 827.187 53.250 C 827.372 54.581, 827.014 55.406, 826.311 55.270 C 825.657 55.144, 824.848 55.904, 824.513 56.959 C 823.666 59.627, 817.774 61.485, 814.950 59.973 C 813.092 58.979, 812.392 59.242, 809.780 61.914 C 807.139 64.615, 806.931 65.216, 808.129 66.689 C 809.579 68.472, 809.652 68.478, 804.500 66.393 C 802.700 65.665, 802.457 67.597, 804.250 68.377 C 804.938 68.676, 804.375 68.727, 803 68.491 C 799.832 67.947, 796.983 67.738, 794.750 67.885 C 792.304 68.046, 792.541 71, 795 71 C 796.100 71, 797 70.550, 797 70 C 797 69.450, 797.675 69, 798.500 69 C 799.325 69, 800 69.450, 800 70 C 800 70.550, 799.325 71, 798.500 71 C 797.675 71, 797 71.395, 797 71.878 C 797 72.360, 797.675 73.315, 798.500 74 C 799.325 74.685, 800 75.901, 800 76.702 C 800 78.939, 793.922 77.342, 791.500 74.467 C 789.546 72.149, 789.464 72.138, 787.948 74.006 C 787.095 75.057, 785.295 76.358, 783.948 76.895 C 781.636 77.819, 781.694 77.878, 785 77.952 C 788.870 78.039, 791.866 79.467, 790.676 80.658 C 790.254 81.079, 788.969 80.837, 787.821 80.120 C 786.279 79.158, 785.547 79.115, 785.025 79.959 C 784.499 80.811, 783.633 80.790, 781.631 79.878 C 779.994 79.132, 779.378 78.384, 780.055 77.966 C 780.790 77.512, 780.613 77.065, 779.532 76.651 C 778.576 76.284, 778.150 76.434, 778.507 77.011 C 778.843 77.555, 778.529 78.007, 777.809 78.015 C 777.005 78.025, 776.888 78.314, 777.506 78.765 C 778.924 79.802, 778.667 86.024, 777.082 89 C 774.726 93.423, 771.755 96.057, 769.817 95.442 C 768.818 95.125, 768 95.346, 768 95.933 C 768 96.520, 767.100 97, 766 97 C 764.889 97, 764 96.333, 764 95.500 C 764 94.675, 764.675 94, 765.500 94 C 766.325 94, 767 93.523, 767 92.941 C 767 92.359, 767.520 92.203, 768.155 92.595 C 768.835 93.016, 769.039 92.872, 768.651 92.245 C 767.675 90.666, 769.062 87.810, 770.531 88.373 C 771.243 88.647, 772.060 87.902, 772.388 86.681 C 773.385 82.964, 773.099 82.161, 770.979 82.716 C 769.461 83.113, 769.224 83.565, 770.027 84.533 C 770.698 85.341, 770.738 86.044, 770.134 86.417 C 769.604 86.745, 768.993 86.480, 768.776 85.829 C 768.545 85.135, 767.846 84.977, 767.084 85.448 C 766.029 86.100, 766.040 86.419, 767.143 87.155 C 768.038 87.753, 767.601 87.853, 765.859 87.449 C 764.376 87.106, 762.925 87.312, 762.550 87.919 C 762.183 88.514, 761.207 89, 760.382 89 C 759.557 89, 759.183 88.513, 759.551 87.917 C 759.919 87.322, 758.708 87.624, 756.860 88.589 L 753.500 90.344 756.750 91.201 C 758.894 91.766, 760 92.669, 760 93.855 C 760 95.315, 759.387 95.564, 756.750 95.181 C 754.962 94.920, 752.542 94.082, 751.371 93.318 C 749.501 92.098, 749.162 92.136, 748.588 93.631 C 747.742 95.836, 749.031 97.054, 753.083 97.883 C 758.018 98.892, 758.018 101, 753.083 101 C 750.837 101, 749 100.550, 749 100 C 749 99.450, 749.563 98.968, 750.250 98.930 C 752.469 98.805, 747.585 97.141, 745 97.141 C 742.818 97.141, 742.747 97.237, 744.446 97.902 C 746.257 98.611, 746.222 98.717, 743.946 99.423 C 739.594 100.774, 737.599 101.086, 731.888 101.308 C 726.331 101.524, 723 103.089, 723 105.484 C 723 106.266, 722.079 106.547, 720.500 106.245 C 719.125 105.982, 718.014 106.157, 718.032 106.633 C 718.086 108.111, 720.658 111, 721.919 111 C 722.579 111, 722.813 111.493, 722.441 112.095 C 722.069 112.697, 722.717 114.479, 723.882 116.055 C 725.047 117.630, 726 119.837, 726 120.960 C 726 123.205, 727.540 123.726, 728.338 121.750 C 728.701 120.849, 728.864 120.832, 728.921 121.691 C 728.964 122.346, 728.550 123.160, 728 123.500 C 726.125 124.659, 726.906 126.837, 729 126.290 C 731.173 125.721, 731.646 126.954, 729.917 128.683 C 729.139 129.461, 729.359 130.293, 730.697 131.633 C 731.722 132.660, 733.222 134.850, 734.029 136.500 C 736.002 140.533, 737.338 141.319, 738.211 138.959 C 739.292 136.037, 741.063 136.593, 740.820 139.779 C 740.704 141.307, 740.892 143.016, 741.238 143.576 C 741.585 144.137, 741.448 145.249, 740.934 146.048 C 740.134 147.291, 739.870 147.298, 739.093 146.091 C 738.593 145.316, 738.402 143.966, 738.668 143.091 C 739.010 141.965, 738.811 142.032, 737.986 143.322 C 737.059 144.771, 737.152 145.511, 738.444 146.938 C 739.788 148.423, 741.181 148.648, 746.535 148.245 C 750.847 147.920, 753.498 148.169, 754.489 148.991 C 755.306 149.669, 756.732 149.933, 757.657 149.578 C 758.583 149.223, 759.748 149.510, 760.246 150.216 C 760.964 151.234, 761.258 151.241, 761.659 150.250 C 761.938 149.563, 762.778 149, 763.524 149 C 764.271 149, 765.134 148.592, 765.442 148.093 C 765.751 147.595, 765.102 147.422, 764.001 147.710 C 762.484 148.107, 762 147.741, 762 146.200 C 762 145.082, 761.470 143.990, 760.823 143.774 C 760.165 143.555, 759.983 142.836, 760.412 142.142 C 760.959 141.258, 761.543 141.206, 762.454 141.961 C 763.155 142.544, 765.253 142.941, 767.115 142.843 C 768.977 142.746, 771.400 143.054, 772.500 143.527 C 774.406 144.348, 774.418 144.305, 772.750 142.623 C 770.305 140.156, 770.464 140.011, 775.188 140.411 C 777.840 140.636, 779.884 140.259, 780.760 139.383 C 781.520 138.622, 781.703 138, 781.165 138 C 780.627 138, 780.449 136.999, 780.769 135.776 C 781.089 134.552, 781.526 134.079, 781.741 134.724 C 782.006 135.518, 782.838 135.611, 784.316 135.012 C 785.517 134.525, 788.167 133.857, 790.205 133.527 C 792.673 133.127, 793.743 132.494, 793.411 131.630 C 793.070 130.741, 793.881 130.333, 795.990 130.333 C 799.786 130.333, 801.944 128.544, 800.224 126.824 C 799.322 125.922, 798.594 126.057, 797.106 127.404 C 794.281 129.961, 790.500 129.158, 790.500 126 C 790.500 123.873, 791.022 123.450, 793.996 123.168 C 795.919 122.986, 798.056 122.368, 798.746 121.796 C 799.625 121.067, 800 121.091, 800 121.878 C 800 122.495, 800.927 123, 802.059 123 C 803.191 123, 803.840 122.550, 803.500 122 C 802.792 120.854, 804.068 120.705, 806.522 121.647 C 807.856 122.159, 807.529 122.579, 804.952 123.662 C 803.162 124.415, 801.947 125.280, 802.252 125.585 C 802.557 125.890, 804.762 125.116, 807.153 123.865 C 809.544 122.614, 811.950 121.550, 812.500 121.500 C 813.050 121.450, 813.405 120.920, 813.289 120.322 C 813.173 119.724, 813.623 119.253, 814.289 119.275 C 817.859 119.393, 820.053 118.895, 819.550 118.081 C 819.237 117.575, 819.734 116.409, 820.653 115.490 C 822.072 114.071, 822.111 113.667, 820.912 112.815 C 819.796 112.022, 819.867 111.936, 821.250 112.406 C 823.948 113.322, 825.580 113.717, 824.750 113.253 C 824.337 113.022, 824 112.421, 824 111.917 C 824 110.641, 826.754 110.763, 827.186 112.057 C 827.380 112.639, 828.309 112.819, 829.251 112.457 C 830.587 111.944, 830.740 111.383, 829.947 109.900 C 828.735 107.636, 826.268 107.448, 824.056 109.449 C 822.950 110.450, 821.997 110.599, 820.977 109.930 C 819.718 109.105, 819.795 108.749, 821.500 107.515 C 822.600 106.719, 823.950 105.695, 824.500 105.239 C 827.049 103.127, 828.001 103.085, 829.791 105.006 C 830.842 106.134, 833.118 107.157, 834.849 107.279 C 836.580 107.400, 837.997 107.864, 837.998 108.309 C 837.999 108.754, 838.479 108.822, 839.065 108.460 C 839.771 108.023, 839.603 107.219, 838.565 106.072 C 836.328 103.600, 836.627 102.696, 839.500 103.245 C 841.442 103.616, 842 103.308, 842 101.861 C 842 100.468, 842.740 100, 844.941 100 C 846.559 100, 848.134 100.408, 848.442 100.906 C 849.136 102.029, 853.981 99.904, 853.992 98.472 C 854.008 96.329, 858.127 94, 861.901 94 C 864.143 94, 866.715 93.242, 867.999 92.202 L 870.219 90.404 867.457 90.452 C 864.101 90.510, 863.313 88.830, 865.617 86.526 C 866.751 85.392, 868.354 84.972, 870.402 85.272 C 872.299 85.551, 873.869 85.202, 874.491 84.364 C 875.632 82.826, 879.513 82.379, 882.500 83.440 C 884.287 84.075, 884.313 84.031, 882.750 83.026 C 879.819 81.141, 880.770 80.348, 885.620 80.634 C 888.160 80.783, 889.962 80.628, 889.623 80.289 C 888.571 79.238, 895.232 74, 897.621 74 C 900.520 74, 901.377 72.573, 900.011 70.021 C 898.803 67.764, 894.562 67.277, 893.300 69.250 C 891.478 72.097, 887.383 69.773, 888.605 66.586 C 889.149 65.169, 889.641 64.909, 891.536 65.036 C 891.830 65.055, 892.778 64.365, 893.641 63.502 C 894.550 62.593, 896.008 62.185, 897.105 62.533 C 898.925 63.111, 899 62.280, 899 41.599 C 899 23.172, 898.790 20.143, 897.546 20.621 C 896.747 20.927, 895.072 20.463, 893.824 19.589 C 891.025 17.629, 890.561 17.619, 889.009 19.489 M 871 30 C 871 30.550, 871.477 31, 872.059 31 C 872.641 31, 872.840 30.550, 872.500 30 C 872.160 29.450, 871.684 29, 871.441 29 C 871.198 29, 871 29.450, 871 30 M 860.015 32.838 C 860.024 33.202, 860.508 34.175, 861.091 35 C 861.872 36.104, 862.284 36.177, 862.651 35.275 C 863.588 32.974, 863.499 32.690, 861.750 32.434 C 860.788 32.293, 860.007 32.475, 860.015 32.838 M 855.459 36.067 C 854.626 37.413, 854.842 37.576, 858.500 38.367 C 861.374 38.989, 861.404 38.961, 859.219 37.706 C 857.964 36.986, 857.251 36.082, 857.635 35.698 C 858.019 35.314, 857.835 35, 857.226 35 C 856.616 35, 855.821 35.480, 855.459 36.067 M 873.667 38.667 C 872.307 40.026, 873.072 41, 875.500 41 C 877.056 41, 878 40.433, 878 39.500 C 878 38, 874.925 37.409, 873.667 38.667 M 398 43.928 C 396.625 44.329, 400.225 44.474, 406 44.252 C 411.775 44.029, 416.950 43.692, 417.500 43.502 C 419.520 42.806, 400.417 43.223, 398 43.928 M 387.500 45 L 383.500 45.716 387 45.843 C 388.925 45.912, 391.175 45.533, 392 45 C 393.636 43.943, 393.406 43.943, 387.500 45 M 427.500 46.805 C 430.250 47.762, 433.807 49.660, 435.405 51.022 C 440.539 55.401, 443.670 58.589, 444.774 60.560 C 445.366 61.618, 446.166 62.167, 446.552 61.781 C 446.939 61.395, 444.451 58.318, 441.024 54.944 C 434.888 48.903, 428.423 45.034, 424.500 45.055 C 423.400 45.060, 424.750 45.848, 427.500 46.805 M 377.269 46.693 C 378.242 46.947, 379.592 46.930, 380.269 46.656 C 380.946 46.382, 380.150 46.175, 378.500 46.195 C 376.850 46.215, 376.296 46.439, 377.269 46.693 M 368 48 C 366.041 48.627, 365.933 48.797, 367.500 48.782 C 368.600 48.772, 370.850 48.420, 372.500 48 C 375.195 47.314, 375.246 47.235, 373 47.218 C 371.625 47.208, 369.375 47.560, 368 48 M 531.886 55.250 C 530.158 58.688, 526.386 66, 523.505 71.500 C 520.624 77, 514.997 87.800, 511 95.500 C 507.004 103.200, 502.276 112.200, 500.494 115.500 C 498.712 118.800, 493.532 128.700, 488.984 137.500 C 484.436 146.300, 478.813 157.100, 476.489 161.500 C 474.165 165.900, 468.548 176.700, 464.007 185.500 C 454.479 203.964, 444.556 223.021, 438.493 234.500 C 436.169 238.900, 430.091 250.600, 424.987 260.500 C 419.883 270.400, 415.376 278.950, 414.971 279.500 C 414.567 280.050, 407.640 293.438, 399.577 309.250 C 387.954 332.046, 385.289 337.998, 386.709 337.988 C 389.927 337.967, 421.194 332.193, 434.500 329.162 C 458.791 323.630, 484.885 313.367, 498.528 303.981 C 505.597 299.117, 516.466 288.508, 519.964 283.056 C 521.669 280.400, 527.488 268.613, 532.897 256.863 C 538.305 245.114, 544.098 232.575, 545.770 229 C 547.442 225.425, 550.036 219.800, 551.535 216.500 C 553.033 213.200, 559.414 199.250, 565.714 185.500 C 572.014 171.750, 579.454 155.438, 582.248 149.250 C 585.042 143.062, 587.613 138, 587.963 138 C 588.312 138, 589.194 139.688, 589.922 141.750 C 590.649 143.813, 593.266 150.675, 595.737 157 C 598.208 163.325, 601.261 171.200, 602.520 174.500 C 603.780 177.800, 608.253 189.275, 612.459 200 C 616.665 210.725, 621.910 224.225, 624.115 230 C 626.320 235.775, 629.239 243.425, 630.603 247 C 633.111 253.576, 637.133 263.106, 637.765 263.971 C 637.954 264.230, 638.422 263.947, 638.804 263.342 C 639.187 262.738, 646.700 258.214, 655.500 253.289 C 664.300 248.364, 678.925 240.150, 688 235.035 C 697.075 229.919, 708.550 223.498, 713.500 220.764 C 718.450 218.031, 722.905 215.413, 723.401 214.946 C 723.926 214.452, 722.711 210.840, 720.494 206.299 C 718.400 202.010, 711.075 186.800, 704.216 172.500 C 697.357 158.200, 688.605 139.975, 684.767 132 C 680.929 124.025, 675.638 113, 673.009 107.500 C 670.380 102, 664.748 90.300, 660.492 81.500 C 656.237 72.700, 651.031 61.788, 648.923 57.250 L 645.092 49 590.060 49 L 535.029 49 531.886 55.250 M 358.813 50.683 C 359.534 50.972, 360.397 50.936, 360.729 50.604 C 361.061 50.272, 360.471 50.036, 359.417 50.079 C 358.252 50.127, 358.015 50.364, 358.813 50.683 M 350.517 52.133 C 348.327 52.646, 346.157 53.443, 345.695 53.905 C 344.971 54.629, 353.675 52.752, 356.500 51.575 C 358.280 50.833, 354.610 51.175, 350.517 52.133 M 829.049 55.250 C 829.590 56.487, 830.303 58.288, 830.633 59.250 C 831.018 60.373, 832.266 61, 834.117 61 C 837.839 61, 837.829 59.185, 834.100 57.885 C 832.505 57.329, 830.972 56.003, 830.694 54.937 C 830.415 53.872, 829.710 53, 829.126 53 C 828.400 53, 828.376 53.712, 829.049 55.250 M 337 56.500 C 334.708 57.383, 334.190 57.862, 335.500 57.888 C 336.600 57.911, 338.625 57.286, 340 56.500 C 343.117 54.718, 341.627 54.718, 337 56.500 M 819 56.940 C 819 57.740, 818.349 57.966, 817.250 57.548 C 815.847 57.014, 815.748 57.131, 816.750 58.141 C 817.712 59.110, 818.272 59.128, 819.183 58.217 C 819.834 57.566, 820.059 56.726, 819.683 56.350 C 819.308 55.974, 819 56.240, 819 56.940 M 324.500 61 C 323.181 61.567, 323.011 61.878, 324 61.914 C 324.825 61.945, 326.175 61.533, 327 61 C 328.828 59.819, 327.249 59.819, 324.500 61 M 447.035 63.550 C 447.055 64.073, 447.749 65.625, 448.577 67 L 450.083 69.500 449.429 67 C 448.747 64.392, 446.971 61.833, 447.035 63.550 M 306.208 68.126 C 303.848 69.294, 302.083 70.416, 302.285 70.619 C 302.488 70.821, 304.869 69.889, 307.577 68.546 C 310.285 67.204, 312.050 66.082, 311.500 66.053 C 310.950 66.025, 308.569 66.958, 306.208 68.126 M 450 70.386 C 450 70.598, 450.672 72.060, 451.494 73.636 C 452.315 75.211, 452.990 77.261, 452.994 78.191 C 452.997 79.121, 453.498 80.190, 454.107 80.566 C 454.865 81.035, 454.988 80.502, 454.496 78.875 C 453.089 74.225, 450 68.391, 450 70.386 M 298 72 C 297.175 72.533, 296.950 72.969, 297.500 72.969 C 298.050 72.969, 299.175 72.533, 300 72 C 300.825 71.467, 301.050 71.031, 300.500 71.031 C 299.950 71.031, 298.825 71.467, 298 72 M 283.750 78.876 C 277.837 81.969, 273 84.814, 273 85.199 C 273 86.125, 295.849 74.719, 295.934 73.750 C 296.040 72.547, 295.073 72.953, 283.750 78.876 M 881 74.032 C 879.667 74.892, 879.667 75.108, 881 75.968 C 882.538 76.960, 883.494 75.951, 882.833 74.032 C 882.618 73.408, 881.967 73.408, 881 74.032 M 862.015 81.954 C 860.648 83.004, 859.805 84.139, 860.142 84.475 C 861.142 85.476, 869 82.621, 869 81.257 C 869 79.370, 864.837 79.786, 862.015 81.954 M 876.500 81 C 876.160 81.550, 876.584 82, 877.441 82 C 878.298 82, 879 81.550, 879 81 C 879 80.450, 878.577 80, 878.059 80 C 877.541 80, 876.840 80.450, 876.500 81 M 455.082 84.550 C 455.037 85.677, 455.415 87.027, 455.922 87.550 C 456.429 88.073, 457.327 90.075, 457.918 92 C 458.962 95.397, 458.980 95.408, 458.543 92.356 C 457.912 87.956, 455.190 81.816, 455.082 84.550 M 269 87 C 268.175 87.533, 267.950 87.969, 268.500 87.969 C 269.050 87.969, 270.175 87.533, 271 87 C 271.825 86.467, 272.050 86.031, 271.500 86.031 C 270.950 86.031, 269.825 86.467, 269 87 M 763 90.059 C 763 90.641, 763.450 90.840, 764 90.500 C 764.550 90.160, 765 89.684, 765 89.441 C 765 89.198, 764.550 89, 764 89 C 763.450 89, 763 89.477, 763 90.059 M 859.459 91.067 C 859.096 91.653, 859.040 92.373, 859.333 92.667 C 860.050 93.383, 862 92.121, 862 90.941 C 862 89.663, 860.274 89.748, 859.459 91.067 M 259 92.500 C 257.625 93.286, 256.976 93.945, 257.559 93.965 C 258.141 93.984, 259.491 93.339, 260.559 92.532 C 263.028 90.664, 262.239 90.648, 259 92.500 M 863 92 C 863 92.550, 863.702 93, 864.559 93 C 865.416 93, 865.840 92.550, 865.500 92 C 865.160 91.450, 864.459 91, 863.941 91 C 863.423 91, 863 91.450, 863 92 M 459.195 98.500 C 459.215 100.150, 459.439 100.704, 459.693 99.731 C 459.947 98.758, 459.930 97.408, 459.656 96.731 C 459.382 96.054, 459.175 96.850, 459.195 98.500 M 738.733 97.124 C 739.412 97.808, 740.219 98.115, 740.526 97.807 C 740.834 97.499, 740.279 96.940, 739.293 96.564 C 737.868 96.022, 737.753 96.136, 738.733 97.124 M 777.250 97.662 C 776.563 97.940, 776 98.606, 776 99.142 C 776 99.679, 776.412 99.864, 776.915 99.553 C 777.418 99.242, 778.007 99.520, 778.224 100.171 C 778.739 101.716, 781 100.307, 781 98.441 C 781 97.001, 779.606 96.712, 777.250 97.662 M 245.752 100.841 C 244.240 101.754, 243.003 102.863, 243.002 103.307 C 243.001 103.750, 244.350 103.316, 246 102.341 C 247.650 101.366, 249 100.216, 249 99.784 C 249 98.840, 249.149 98.791, 245.752 100.841 M 820.565 100.895 C 820.260 101.388, 820.684 102.048, 821.506 102.364 C 822.413 102.712, 823 102.361, 823 101.469 C 823 99.851, 821.437 99.483, 820.565 100.895 M 460.015 104.691 C 460.007 105.896, 460.450 107.160, 461 107.500 C 462.273 108.287, 462.273 105.970, 461 104 C 460.212 102.781, 460.028 102.910, 460.015 104.691 M 846.813 103.683 C 847.534 103.972, 848.397 103.936, 848.729 103.604 C 849.061 103.272, 848.471 103.036, 847.417 103.079 C 846.252 103.127, 846.015 103.364, 846.813 103.683 M 238 106.247 C 234.471 108.478, 229.213 113.028, 232 111.439 C 235.139 109.649, 242 104.840, 242 104.429 C 242 103.764, 241.738 103.883, 238 106.247 M 462.079 110.583 C 462.127 111.748, 462.364 111.985, 462.683 111.188 C 462.972 110.466, 462.936 109.603, 462.604 109.271 C 462.272 108.939, 462.036 109.529, 462.079 110.583 M 463.239 118.201 C 463.643 121.972, 463.422 122.988, 462.122 123.335 C 461.045 123.623, 461.250 123.807, 462.731 123.884 C 464.823 123.993, 464.923 123.705, 464.340 119.250 C 463.524 113.019, 462.586 112.126, 463.239 118.201 M 221.218 118.750 C 219.670 120.263, 219.405 120.665, 220.628 119.645 C 221.851 118.625, 223.260 118.043, 223.759 118.351 C 224.258 118.660, 224.667 118.257, 224.667 117.456 C 224.667 115.498, 224.469 115.572, 221.218 118.750 M 900.494 119.009 C 900.151 119.564, 898.212 120.895, 896.185 121.965 C 894.158 123.036, 893.052 123.931, 893.726 123.956 C 894.400 123.980, 896.425 123.102, 898.226 122.004 C 900.027 120.906, 901.821 120.006, 902.212 120.004 C 902.604 120.002, 903.073 124.162, 903.255 129.250 L 903.585 138.500 903.792 128.250 C 903.962 119.896, 903.733 118, 902.559 118 C 901.766 118, 900.837 118.454, 900.494 119.009 M 733.667 120.667 C 732.298 122.035, 733.135 127.582, 735.058 129.892 C 737.403 132.707, 737.545 132.617, 738.278 127.858 C 739.015 123.073, 735.985 118.348, 733.667 120.667 M 785.224 121.173 C 785.736 122.707, 789.985 122.996, 790.031 121.500 C 790.048 120.950, 788.874 120.353, 787.422 120.173 C 785.578 119.945, 784.915 120.246, 785.224 121.173 M 214.405 124.146 C 212.510 126.280, 212.512 126.285, 214.750 125.110 C 215.988 124.461, 217 123.495, 217 122.965 C 217 121.544, 216.521 121.762, 214.405 124.146 M 448.264 122.718 C 449.784 122.947, 452.034 122.941, 453.264 122.704 C 454.494 122.467, 453.250 122.279, 450.500 122.286 C 447.750 122.294, 446.744 122.488, 448.264 122.718 M 432.250 123.716 C 433.762 123.945, 436.238 123.945, 437.750 123.716 C 439.262 123.487, 438.025 123.300, 435 123.300 C 431.975 123.300, 430.738 123.487, 432.250 123.716 M 425.269 124.693 C 426.242 124.947, 427.592 124.930, 428.269 124.656 C 428.946 124.382, 428.150 124.175, 426.500 124.195 C 424.850 124.215, 424.296 124.439, 425.269 124.693 M 887.250 126.296 C 884.913 127.421, 883 128.667, 883 129.063 C 883 129.873, 889.821 126.579, 891.388 125.012 C 892.670 123.730, 892.409 123.811, 887.250 126.296 M 417.750 125.662 C 418.438 125.940, 419.563 125.940, 420.250 125.662 C 420.938 125.385, 420.375 125.158, 419 125.158 C 417.625 125.158, 417.063 125.385, 417.750 125.662 M 780.667 125.667 C 779.690 126.644, 779.853 130, 780.878 130 C 781.360 130, 782.299 129.345, 782.964 128.544 C 784.740 126.403, 782.605 123.729, 780.667 125.667 M 411.500 127 C 410.239 127.542, 410.055 127.859, 411 127.859 C 411.825 127.859, 413.400 127.473, 414.500 127 C 415.761 126.458, 415.945 126.141, 415 126.141 C 414.175 126.141, 412.600 126.527, 411.500 127 M 206.520 130.546 C 204.451 132.497, 202.929 134.262, 203.136 134.469 C 203.343 134.676, 205.404 133.080, 207.717 130.923 C 210.030 128.765, 211.553 127, 211.101 127 C 210.649 127, 208.588 128.596, 206.520 130.546 M 404.500 128 C 403.769 129.183, 404.748 129.183, 407.500 128 C 409.428 127.171, 409.421 127.138, 407.309 127.070 C 406.104 127.032, 404.840 127.450, 404.500 128 M 400.813 129.683 C 401.534 129.972, 402.397 129.936, 402.729 129.604 C 403.061 129.272, 402.471 129.036, 401.417 129.079 C 400.252 129.127, 400.015 129.364, 400.813 129.683 M 783 132 C 783 132.550, 783.477 133, 784.059 133 C 784.641 133, 784.840 132.550, 784.500 132 C 784.160 131.450, 783.684 131, 783.441 131 C 783.198 131, 783 131.450, 783 132 M 875.662 132.618 C 874.100 133.464, 873.015 134.348, 873.249 134.583 C 873.717 135.051, 880 132.114, 880 131.427 C 880 130.656, 878.545 131.056, 875.662 132.618 M 386.813 133.683 C 387.534 133.972, 388.397 133.936, 388.729 133.604 C 389.061 133.272, 388.471 133.036, 387.417 133.079 C 386.252 133.127, 386.015 133.364, 386.813 133.683 M 380.441 135.555 C 378.531 137.085, 378.532 137.096, 380.500 136.190 C 381.600 135.684, 383.175 135.020, 384 134.714 C 385.296 134.234, 385.288 134.147, 383.941 134.079 C 383.084 134.036, 381.509 134.700, 380.441 135.555 M 198.063 138.020 C 196.172 139.636, 194.853 141.186, 195.131 141.464 C 195.409 141.742, 197.157 140.402, 199.015 138.485 C 203.118 134.251, 202.707 134.050, 198.063 138.020 M 867.815 137.035 C 863.999 139.050, 862.094 141, 863.941 141 C 864.523 141, 865 140.605, 865 140.121 C 865 139.638, 866.360 138.679, 868.021 137.991 C 869.683 137.303, 871.285 136.348, 871.580 135.870 C 872.297 134.711, 872.098 134.773, 867.815 137.035 M 371.660 138.250 C 371.912 138.662, 371.566 139, 370.892 139 C 370.218 139, 369.893 139.227, 370.171 139.504 C 370.448 139.781, 372.435 139.376, 374.587 138.603 L 378.500 137.198 374.851 137.349 C 372.844 137.432, 371.408 137.838, 371.660 138.250 M 903.158 142 C 903.158 143.375, 903.385 143.938, 903.662 143.250 C 903.940 142.563, 903.940 141.438, 903.662 140.750 C 903.385 140.063, 903.158 140.625, 903.158 142 M 357 144.125 C 357 144.606, 356.352 145, 355.559 145 C 354.766 145, 353.854 145.427, 353.532 145.949 C 353.209 146.470, 354.983 146.203, 357.473 145.355 C 359.963 144.506, 362 143.686, 362 143.531 C 362 143.376, 360.875 143.250, 359.500 143.250 C 358.125 143.250, 357 143.644, 357 144.125 M 757.404 144.389 C 756.752 146.088, 757.629 148, 759.059 148 C 760.320 148, 760.266 144.282, 758.993 143.496 C 758.439 143.153, 757.724 143.555, 757.404 144.389 M 768.469 144.050 C 767.519 145.588, 768.820 146.580, 770.104 145.296 C 770.822 144.578, 770.839 144.019, 770.156 143.597 C 769.596 143.251, 768.837 143.455, 768.469 144.050 M 184.385 151.279 C 180.531 155.251, 176.749 159.400, 175.980 160.500 C 175.211 161.600, 178.530 158.517, 183.356 153.649 C 188.182 148.781, 191.965 144.631, 191.761 144.428 C 191.558 144.225, 188.239 147.308, 184.385 151.279 M 850 147 C 849.099 147.582, 848.975 147.975, 849.691 147.985 C 850.346 147.993, 851.160 147.550, 851.500 147 C 852.267 145.758, 851.921 145.758, 850 147 M 349.813 147.683 C 350.534 147.972, 351.397 147.936, 351.729 147.604 C 352.061 147.272, 351.471 147.036, 350.417 147.079 C 349.252 147.127, 349.015 147.364, 349.813 147.683 M 752.500 152 C 752.160 152.550, 752.557 153, 753.382 153 C 754.207 153, 755.160 152.550, 755.500 152 C 755.840 151.450, 755.443 151, 754.618 151 C 753.793 151, 752.840 151.450, 752.500 152 M 339.507 152.989 C 339.157 153.555, 339.558 153.723, 340.448 153.382 C 342.180 152.717, 342.497 152, 341.059 152 C 340.541 152, 339.843 152.445, 339.507 152.989 M 330.530 157.060 C 328.346 158.149, 326.096 159.530, 325.530 160.128 C 324.963 160.726, 326.863 160.034, 329.750 158.591 C 332.637 157.147, 335 155.749, 335 155.483 C 335 154.827, 335.025 154.818, 330.530 157.060 M 831.500 157 C 830.181 157.567, 830.011 157.878, 831 157.914 C 831.825 157.945, 833.175 157.533, 834 157 C 835.828 155.819, 834.249 155.819, 831.500 157 M 821.750 162.117 C 819.688 163.161, 818 164.228, 818 164.486 C 818 165.083, 822.874 163.002, 825.473 161.295 C 828.333 159.417, 826.116 159.906, 821.750 162.117 M 902.079 162.583 C 902.127 163.748, 902.364 163.985, 902.683 163.188 C 902.972 162.466, 902.936 161.603, 902.604 161.271 C 902.272 160.939, 902.036 161.529, 902.079 162.583 M 320 163 C 319.175 163.533, 318.950 163.969, 319.500 163.969 C 320.050 163.969, 321.175 163.533, 322 163 C 322.825 162.467, 323.050 162.031, 322.500 162.031 C 321.950 162.031, 320.825 162.467, 320 163 M 170.916 165.775 C 166.122 171.284, 165.716 172.416, 170.015 168.284 C 172.428 165.966, 174.161 163.828, 173.867 163.534 C 173.573 163.239, 172.245 164.248, 170.916 165.775 M 316 165 C 315.099 165.582, 314.975 165.975, 315.691 165.985 C 316.346 165.993, 317.160 165.550, 317.500 165 C 318.267 163.758, 317.921 163.758, 316 165 M 814.250 166.031 C 813.013 166.529, 812 167.175, 812 167.468 C 812 168.438, 813.592 168.020, 815.559 166.532 C 817.771 164.858, 817.462 164.740, 814.250 166.031 M 805.441 171.468 C 804.374 172.276, 803.950 172.936, 804.500 172.936 C 805.050 172.936, 806.374 172.276, 807.441 171.468 C 808.509 170.661, 808.932 170, 808.382 170 C 807.832 170, 806.509 170.661, 805.441 171.468 M 298.696 174.978 C 296.113 176.616, 294 178.217, 294 178.537 C 294 179.162, 294.217 179.045, 300.946 174.803 C 303.391 173.261, 304.942 172, 304.392 172 C 303.842 172, 301.278 173.340, 298.696 174.978 M 164.477 173.765 C 163.914 174.169, 162.598 175.850, 161.552 177.500 C 160.258 179.542, 160.135 180.104, 161.167 179.259 C 162.002 178.576, 163.004 178.337, 163.395 178.728 C 163.786 179.119, 163.809 178.665, 163.446 177.720 C 163.083 176.774, 163.236 176, 163.786 176 C 164.336 176, 165.045 175.325, 165.362 174.500 C 166.011 172.807, 165.919 172.730, 164.477 173.765 M 794.720 176.895 C 792.090 178.328, 786.151 181.510, 781.521 183.968 C 776.890 186.425, 773.235 188.569, 773.399 188.732 C 773.810 189.143, 783.848 184.304, 787.500 181.934 C 789.150 180.863, 792.525 179.031, 795 177.864 C 799.990 175.510, 800.522 175.161, 799.917 174.645 C 799.688 174.450, 797.349 175.462, 794.720 176.895 M 283 185 C 280.525 186.645, 278.847 187.993, 279.271 187.996 C 280.143 188.001, 288 182.934, 288 182.367 C 288 181.731, 287.606 181.938, 283 185 M 156 185 C 155.411 186.100, 155.155 187, 155.430 187 C 155.705 187, 156.411 186.100, 157 185 C 157.589 183.900, 157.845 183, 157.570 183 C 157.295 183, 156.589 183.900, 156 185 M 271.910 192.420 C 269.386 194.188, 264.053 198.192, 260.058 201.317 C 256.064 204.443, 252.440 207, 252.005 207 C 251.570 207, 250.946 207.698, 250.618 208.552 C 250.215 209.603, 250.423 209.868, 251.261 209.373 C 252.742 208.499, 260.674 202.223, 263.447 199.732 C 264.530 198.760, 268.247 196.119, 271.708 193.865 C 275.169 191.610, 278 189.593, 278 189.383 C 278 188.509, 276.245 189.384, 271.910 192.420 M 149.197 196.087 C 147.396 199.339, 146.135 202, 146.397 202 C 146.658 202, 147.884 200.200, 149.120 198 C 150.357 195.800, 151.687 194, 152.077 194 C 153.103 194, 154.045 191.146, 153.193 190.619 C 152.797 190.374, 150.999 192.835, 149.197 196.087 M 767 192 C 766.175 192.533, 765.950 192.969, 766.500 192.969 C 767.050 192.969, 768.175 192.533, 769 192 C 769.825 191.467, 770.050 191.031, 769.500 191.031 C 768.950 191.031, 767.825 191.467, 767 192 M 756.652 197.615 C 753.986 199.003, 751.992 200.325, 752.220 200.554 C 752.713 201.046, 759.929 197.471, 761.388 196.012 C 762.870 194.530, 762.048 194.808, 756.652 197.615 M 746.137 203.058 C 744.288 204.185, 742.997 205.331, 743.270 205.603 C 743.543 205.876, 745.456 204.952, 747.522 203.549 C 752.001 200.510, 750.936 200.132, 746.137 203.058 M 902 203.800 C 902 204.790, 901.460 206.140, 900.800 206.800 C 899.867 207.733, 899.978 208, 901.300 208 C 902.522 208, 903 207.157, 903 205 C 903 203.350, 902.775 202, 902.500 202 C 902.225 202, 902 202.810, 902 203.800 M 144.082 204.847 C 142.594 207.627, 140.969 212, 141.424 212 C 142.120 212, 146.097 203.764, 145.628 203.294 C 145.372 203.038, 144.676 203.737, 144.082 204.847 M 738.441 207.555 C 736.611 209.022, 736.643 209.042, 739 207.920 C 742.061 206.462, 742.628 206, 741.358 206 C 740.821 206, 739.509 206.700, 738.441 207.555 M 893.049 212.078 C 890.601 213.685, 888.936 215, 889.349 215 C 890.742 215, 895.636 212.143, 896.945 210.566 C 898.668 208.491, 898.289 208.638, 893.049 212.078 M 139.212 215.032 C 137.421 217.900, 137.739 218.818, 139.602 216.158 C 140.483 214.900, 141.029 213.695, 140.814 213.481 C 140.600 213.266, 139.879 213.964, 139.212 215.032 M 886 215.879 C 886 216.362, 884.640 217.321, 882.979 218.009 C 881.317 218.697, 879.695 219.685, 879.374 220.204 C 879.053 220.723, 880.607 220.221, 882.828 219.088 C 886.921 217, 888.991 215, 887.059 215 C 886.477 215, 886 215.395, 886 215.879 M 136.079 221.668 C 136.036 222.311, 135.741 223.661, 135.424 224.668 C 134.877 226.409, 134.906 226.412, 135.995 224.712 C 136.626 223.729, 136.920 222.379, 136.650 221.712 C 136.295 220.837, 136.136 220.825, 136.079 221.668 M 230.694 225.532 C 229.151 226.889, 228.285 228, 228.770 228 C 229.255 228, 230.708 226.875, 232 225.500 C 234.989 222.319, 234.328 222.335, 230.694 225.532 M 872.507 223.989 C 872.157 224.555, 872.558 224.723, 873.448 224.382 C 875.180 223.717, 875.497 223, 874.059 223 C 873.541 223, 872.843 223.445, 872.507 223.989 M 869 226.059 C 869 226.641, 869.450 226.840, 870 226.500 C 870.550 226.160, 871 225.684, 871 225.441 C 871 225.198, 870.550 225, 870 225 C 869.450 225, 869 225.477, 869 226.059 M 863.815 229.035 C 861.788 230.105, 859.865 231.410, 859.541 231.933 C 859.217 232.457, 860.988 231.748, 863.476 230.357 C 865.964 228.967, 868 227.642, 868 227.415 C 868 226.834, 867.930 226.861, 863.815 229.035 M 226.500 229.765 C 225.950 230.169, 224.607 231.625, 223.516 233 C 221.858 235.088, 222.064 235.016, 224.766 232.563 C 227.686 229.911, 228.477 228.971, 227.750 229.015 C 227.613 229.024, 227.050 229.361, 226.500 229.765 M 854.441 234.450 C 852.568 235.849, 852.580 235.880, 854.766 235.330 C 856.012 235.016, 857.276 234.363, 857.575 233.879 C 858.420 232.511, 856.591 232.844, 854.441 234.450 M 131.079 235.583 C 131.127 236.748, 131.364 236.985, 131.683 236.188 C 131.972 235.466, 131.936 234.603, 131.604 234.271 C 131.272 233.939, 131.036 234.529, 131.079 235.583 M 218.500 237 C 218.160 237.550, 218.332 238, 218.882 238 C 219.432 238, 220.160 237.550, 220.500 237 C 220.840 236.450, 220.668 236, 220.118 236 C 219.568 236, 218.840 236.450, 218.500 237 M 847.500 238.474 C 845.300 239.829, 843.950 240.950, 844.500 240.965 C 845.691 240.998, 852 237.254, 852 236.515 C 852 235.737, 851.809 235.820, 847.500 238.474 M 213.453 243.250 L 209.500 247.500 213.750 243.547 C 216.088 241.373, 218 239.460, 218 239.297 C 218 238.540, 217.129 239.298, 213.453 243.250 M 837.441 244.555 C 835.611 246.022, 835.643 246.042, 838 244.920 C 841.061 243.462, 841.628 243, 840.358 243 C 839.821 243, 838.509 243.700, 837.441 244.555 M 128.079 245.583 C 128.127 246.748, 128.364 246.985, 128.683 246.188 C 128.972 245.466, 128.936 244.603, 128.604 244.271 C 128.272 243.939, 128.036 244.529, 128.079 245.583 M 126.641 250.210 C 126.303 251.470, 126.066 253.400, 126.114 254.500 C 126.162 255.600, 126.613 254.745, 127.116 252.599 C 128.091 248.444, 127.674 246.351, 126.641 250.210 M 206.564 250.707 C 206.022 252.132, 206.136 252.247, 207.124 251.267 C 207.808 250.588, 208.115 249.781, 207.807 249.474 C 207.499 249.166, 206.940 249.721, 206.564 250.707 M 823.777 252.401 C 818.428 255.579, 817.779 256.610, 822.682 254.137 C 824.982 252.977, 827.146 251.572, 827.491 251.014 C 828.284 249.731, 828.244 249.746, 823.777 252.401 M 203.584 254.641 C 203.057 256.014, 203.204 256.076, 204.477 255.019 C 206.212 253.579, 206.393 253, 205.107 253 C 204.616 253, 203.931 253.739, 203.584 254.641 M 814 258.003 L 811.500 259.961 814.750 258.761 C 816.538 258.101, 818 257.210, 818 256.781 C 818 255.509, 816.661 255.918, 814 258.003 M 125.232 260 C 125.232 261.925, 125.438 262.712, 125.689 261.750 C 125.941 260.788, 125.941 259.212, 125.689 258.250 C 125.438 257.288, 125.232 258.075, 125.232 260 M 197.938 262.232 C 194.354 266.983, 191.836 271.170, 192.290 271.623 C 192.509 271.842, 194.214 269.654, 196.079 266.761 C 197.945 263.867, 199.837 260.938, 200.285 260.250 C 201.933 257.721, 200.302 259.098, 197.938 262.232 M 809 261.059 C 809 261.641, 809.450 261.840, 810 261.500 C 810.550 261.160, 811 260.684, 811 260.441 C 811 260.198, 810.550 260, 810 260 C 809.450 260, 809 260.477, 809 261.059 M 805.441 263.555 C 803.577 265.049, 803.589 265.067, 805.750 264.020 C 806.987 263.420, 808 262.720, 808 262.465 C 808 261.700, 807.481 261.921, 805.441 263.555 M 632 267.076 C 629.339 268.591, 629.099 268.915, 631 268.427 C 632.375 268.074, 634.159 267.159, 634.964 266.393 C 636.930 264.523, 636.183 264.695, 632 267.076 M 795.732 268.536 C 793.679 269.931, 792 271.266, 792 271.502 C 792 272.149, 798.921 267.936, 799.562 266.899 C 800.418 265.515, 799.772 265.791, 795.732 268.536 M 620.197 273.424 C 613.856 276.793, 610.889 278.805, 614.537 277.264 C 618.670 275.517, 628 270.748, 628 270.383 C 628 269.533, 626.209 270.231, 620.197 273.424 M 785.500 274 C 785.840 274.550, 786.568 275, 787.118 275 C 787.668 275, 787.840 274.550, 787.500 274 C 787.160 273.450, 786.432 273, 785.882 273 C 785.332 273, 785.160 273.450, 785.500 274 M 188.229 278.012 C 187.059 280.206, 186.445 282, 186.865 282 C 187.722 282, 191.291 274.957, 190.722 274.388 C 190.522 274.188, 189.400 275.819, 188.229 278.012 M 782 277 C 781.099 277.582, 780.975 277.975, 781.691 277.985 C 782.346 277.993, 783.160 277.550, 783.500 277 C 784.267 275.758, 783.921 275.758, 782 277 M 607.500 280.216 C 604.978 281.672, 602.593 284.012, 603.679 283.964 C 604.130 283.944, 605.850 282.821, 607.500 281.469 C 610.720 278.829, 610.720 278.356, 607.500 280.216 M 773.049 282.078 C 770.601 283.685, 769.034 285, 769.567 285 C 770.659 285, 778 280.181, 778 279.464 C 778 278.823, 778.035 278.804, 773.049 282.078 M 596 286 C 594.075 287.054, 592.950 287.916, 593.500 287.916 C 594.050 287.916, 596.075 287.054, 598 286 C 599.925 284.946, 601.050 284.084, 600.500 284.084 C 599.950 284.084, 597.925 284.946, 596 286 M 762 288.500 C 760.625 289.286, 759.950 289.929, 760.500 289.929 C 761.050 289.929, 762.625 289.286, 764 288.500 C 765.375 287.714, 766.050 287.071, 765.500 287.071 C 764.950 287.071, 763.375 287.714, 762 288.500 M 182.624 290.539 C 181.659 293.053, 181.943 293.702, 183.122 291.675 C 183.706 290.671, 183.973 289.639, 183.715 289.382 C 183.458 289.124, 182.966 289.645, 182.624 290.539 M 585 291.500 C 583.550 292.329, 583.130 292.931, 584 292.933 C 584.825 292.935, 586.374 292.276, 587.441 291.468 C 589.911 289.600, 588.287 289.621, 585 291.500 M 756.450 292.903 C 755.928 293.399, 752.125 295.491, 748 297.551 C 743.875 299.611, 735.775 303.873, 730 307.022 C 724.225 310.171, 713.650 315.783, 706.500 319.492 C 692.636 326.684, 668.613 339.211, 668.329 339.396 C 668.126 339.529, 674.471 355.478, 686.471 385 C 691.278 396.825, 697.648 412.546, 700.628 419.935 C 708.127 438.534, 710.596 441.479, 721.809 445.193 C 726.969 446.902, 732.233 447.136, 778.250 447.700 C 820.171 448.215, 829 448.091, 829 446.991 C 829 446.258, 827.694 442.922, 826.098 439.579 C 822.505 432.052, 822.815 432.730, 789.009 358.500 C 773.729 324.950, 760.654 296.262, 759.953 294.750 C 758.591 291.811, 757.953 291.474, 756.450 292.903 M 566.134 300.632 C 564.282 301.440, 562.962 302.295, 563.200 302.533 C 563.844 303.178, 570 300.686, 570 299.781 C 570 299.351, 569.888 299.037, 569.750 299.082 C 569.612 299.126, 567.985 299.824, 566.134 300.632 M 178.672 302.891 C 178.302 304.738, 178.049 307.206, 178.110 308.375 C 178.170 309.544, 178.618 308.475, 179.105 306 C 179.592 303.525, 179.845 301.057, 179.667 300.516 C 179.489 299.974, 179.041 301.043, 178.672 302.891 M 125.252 309.500 C 125.263 311.700, 125.468 312.482, 125.707 311.238 C 125.946 309.994, 125.937 308.194, 125.687 307.238 C 125.437 306.282, 125.241 307.300, 125.252 309.500 M 551 307.500 C 547.734 309.367, 548.877 309.388, 553.135 307.539 C 554.986 306.736, 555.825 306.077, 555 306.075 C 554.175 306.073, 552.375 306.714, 551 307.500 M 542.490 312.016 C 542.144 312.575, 541.446 312.776, 540.939 312.462 C 540.431 312.148, 539.225 312.342, 538.258 312.892 C 536.763 313.742, 536.875 313.854, 539 313.637 C 541.664 313.365, 546.315 311.082, 544.309 311.030 C 543.654 311.014, 542.835 311.457, 542.490 312.016 M 126.158 316 C 126.158 317.375, 126.385 317.938, 126.662 317.250 C 126.940 316.563, 126.940 315.438, 126.662 314.750 C 126.385 314.063, 126.158 314.625, 126.158 316 M 177.320 320 C 177.320 323.575, 177.502 325.038, 177.723 323.250 C 177.945 321.462, 177.945 318.538, 177.723 316.750 C 177.502 314.962, 177.320 316.425, 177.320 320 M 528 318 C 527.099 318.582, 526.975 318.975, 527.691 318.985 C 528.346 318.993, 529.160 318.550, 529.500 318 C 530.267 316.758, 529.921 316.758, 528 318 M 523.500 320 C 523.160 320.550, 523.332 321, 523.882 321 C 524.432 321, 525.160 320.550, 525.500 320 C 525.840 319.450, 525.668 319, 525.118 319 C 524.568 319, 523.840 319.450, 523.500 320 M 127.158 322 C 127.158 323.375, 127.385 323.938, 127.662 323.250 C 127.940 322.563, 127.940 321.438, 127.662 320.750 C 127.385 320.063, 127.158 320.625, 127.158 322 M 516.500 322.535 C 513.999 323.740, 513.916 323.878, 516 323.369 C 518.834 322.677, 522.018 321.053, 520.500 321.076 C 519.950 321.084, 518.150 321.740, 516.500 322.535 M 507 326.500 C 505.075 327.241, 504.175 327.862, 505 327.879 C 505.825 327.896, 507.850 327.292, 509.500 326.536 C 513.362 324.768, 511.566 324.742, 507 326.500 M 178.015 328.583 C 178.024 329.637, 178.487 331.175, 179.046 332 C 179.787 333.095, 179.880 332.691, 179.390 330.500 C 178.567 326.823, 177.995 326.025, 178.015 328.583 M 491.055 332.397 C 489.161 333.081, 488.036 333.869, 488.555 334.148 C 489.075 334.427, 491.075 333.854, 493 332.876 C 497.035 330.824, 496.068 330.586, 491.055 332.397 M 130.141 333 C 130.141 333.825, 130.527 335.400, 131 336.500 C 131.542 337.761, 131.859 337.945, 131.859 337 C 131.859 336.175, 131.473 334.600, 131 333.500 C 130.458 332.239, 130.141 332.055, 130.141 333 M 180 335.405 C 180 336.480, 183.985 343.048, 185.713 344.821 C 187.890 347.056, 187.157 345.414, 183.500 339.860 C 181.575 336.937, 180 334.932, 180 335.405 M 482 336 C 480.172 337.181, 481.751 337.181, 484.500 336 C 485.819 335.433, 485.989 335.122, 485 335.086 C 484.175 335.055, 482.825 335.467, 482 336 M 471.500 340 C 469.870 340.701, 469.812 340.872, 471.191 340.930 C 472.121 340.968, 473.160 340.550, 473.500 340 C 474.211 338.850, 474.176 338.850, 471.500 340 M 132.086 340.500 C 132.190 342.394, 133.856 345.584, 133.914 344 C 133.945 343.175, 133.533 341.825, 133 341 C 132.467 340.175, 132.055 339.950, 132.086 340.500 M 658.500 343.084 C 652.864 346.318, 653.087 347.053, 658.790 344.039 C 663.563 341.515, 665.764 340.006, 664.500 340.123 C 663.950 340.173, 661.250 341.506, 658.500 343.084 M 464.750 341.689 C 462.612 342.248, 462.423 344, 464.500 344 C 465.325 344, 466 343.583, 466 343.073 C 466 342.564, 466.788 341.941, 467.750 341.689 C 468.880 341.394, 468.969 341.232, 468 341.232 C 467.175 341.232, 465.712 341.438, 464.750 341.689 M 451 346.578 L 446.500 347.960 450.500 347.389 C 452.700 347.074, 455.175 346.422, 456 345.939 C 458.079 344.722, 456.309 344.948, 451 346.578 M 136.214 351.384 C 137.359 354.493, 138.435 356.898, 138.605 356.729 C 139.180 356.154, 136.445 348.045, 135.285 346.885 C 134.651 346.251, 135.069 348.275, 136.214 351.384 M 646.250 348.989 C 641.949 351.612, 642.099 352.397, 646.500 350.299 C 648.425 349.381, 650 348.263, 650 347.815 C 650 346.715, 649.959 346.728, 646.250 348.989 M 443.500 349 C 443.160 349.550, 443.332 350, 443.882 350 C 444.432 350, 445.160 349.550, 445.500 349 C 445.840 348.450, 445.668 348, 445.118 348 C 444.568 348, 443.840 348.450, 443.500 349 M 190 349.759 C 190 350.177, 191.012 351.141, 192.250 351.901 C 194.492 353.278, 194.493 353.276, 192.595 351.142 C 190.557 348.850, 190 348.554, 190 349.759 M 439.813 350.683 C 440.534 350.972, 441.397 350.936, 441.729 350.604 C 442.061 350.272, 441.471 350.036, 440.417 350.079 C 439.252 350.127, 439.015 350.364, 439.813 350.683 M 435.813 351.683 C 436.534 351.972, 437.397 351.936, 437.729 351.604 C 438.061 351.272, 437.471 351.036, 436.417 351.079 C 435.252 351.127, 435.015 351.364, 435.813 351.683 M 427.983 353.637 L 424.500 354.941 428.500 354.349 C 430.700 354.024, 432.853 353.437, 433.283 353.045 C 434.532 351.911, 431.771 352.219, 427.983 353.637 M 634.500 354.736 C 633.400 355.014, 631.600 355.903, 630.500 356.713 C 628.578 358.128, 628.598 358.157, 631 357.468 C 633.892 356.638, 638.985 354.043, 637.500 354.156 C 636.950 354.198, 635.600 354.459, 634.500 354.736 M 199 356.885 C 199 357.782, 202.005 359.328, 202.598 358.736 C 202.769 358.564, 202.030 357.875, 200.955 357.204 C 199.880 356.532, 199 356.389, 199 356.885 M 418.813 356.683 C 419.534 356.972, 420.397 356.936, 420.729 356.604 C 421.061 356.272, 420.471 356.036, 419.417 356.079 C 418.252 356.127, 418.015 356.364, 418.813 356.683 M 414.813 357.683 C 415.534 357.972, 416.397 357.936, 416.729 357.604 C 417.061 357.272, 416.471 357.036, 415.417 357.079 C 414.252 357.127, 414.015 357.364, 414.813 357.683 M 408.500 359 C 408.160 359.550, 408.332 360, 408.882 360 C 409.432 360, 410.160 359.550, 410.500 359 C 410.840 358.450, 410.668 358, 410.118 358 C 409.568 358, 408.840 358.450, 408.500 359 M 625 360 C 624.175 360.533, 623.950 360.969, 624.500 360.969 C 625.050 360.969, 626.175 360.533, 627 360 C 627.825 359.467, 628.050 359.031, 627.500 359.031 C 626.950 359.031, 625.825 359.467, 625 360 M 404.813 360.683 C 405.534 360.972, 406.397 360.936, 406.729 360.604 C 407.061 360.272, 406.471 360.036, 405.417 360.079 C 404.252 360.127, 404.015 360.364, 404.813 360.683 M 141.031 361.500 C 141.031 362.050, 141.467 363.175, 142 364 C 142.533 364.825, 142.969 365.050, 142.969 364.500 C 142.969 363.950, 142.533 362.825, 142 362 C 141.467 361.175, 141.031 360.950, 141.031 361.500 M 397.750 361.662 C 398.438 361.940, 399.563 361.940, 400.250 361.662 C 400.938 361.385, 400.375 361.158, 399 361.158 C 397.625 361.158, 397.063 361.385, 397.750 361.662 M 213.609 364.439 C 214.739 365.230, 216.976 366.134, 218.581 366.448 C 221.482 367.014, 221.480 367.010, 218.322 365.759 C 216.574 365.067, 214.811 364.163, 214.405 363.750 C 213.999 363.337, 213.192 363, 212.611 363 C 212.030 363, 212.479 363.647, 213.609 364.439 M 387.750 363.662 C 388.438 363.940, 389.563 363.940, 390.250 363.662 C 390.938 363.385, 390.375 363.158, 389 363.158 C 387.625 363.158, 387.063 363.385, 387.750 363.662 M 381.269 365.693 C 382.242 365.947, 383.592 365.930, 384.269 365.656 C 384.946 365.382, 384.150 365.175, 382.500 365.195 C 380.850 365.215, 380.296 365.439, 381.269 365.693 M 612.500 366 C 612.160 366.550, 612.332 367, 612.882 367 C 613.432 367, 614.160 366.550, 614.500 366 C 614.840 365.450, 614.668 365, 614.118 365 C 613.568 365, 612.840 365.450, 612.500 366 M 375.269 366.693 C 376.242 366.947, 377.592 366.930, 378.269 366.656 C 378.946 366.382, 378.150 366.175, 376.500 366.195 C 374.850 366.215, 374.296 366.439, 375.269 366.693 M 222.813 367.683 C 223.534 367.972, 224.397 367.936, 224.729 367.604 C 225.061 367.272, 224.471 367.036, 223.417 367.079 C 222.252 367.127, 222.015 367.364, 222.813 367.683 M 368.250 367.689 C 369.212 367.941, 370.788 367.941, 371.750 367.689 C 372.712 367.438, 371.925 367.232, 370 367.232 C 368.075 367.232, 367.288 367.438, 368.250 367.689 M 363.813 368.683 C 364.534 368.972, 365.397 368.936, 365.729 368.604 C 366.061 368.272, 365.471 368.036, 364.417 368.079 C 363.252 368.127, 363.015 368.364, 363.813 368.683 M 606.500 369 C 606.160 369.550, 606.332 370, 606.882 370 C 607.432 370, 608.160 369.550, 608.500 369 C 608.840 368.450, 608.668 368, 608.118 368 C 607.568 368, 606.840 368.450, 606.500 369 M 230 370 C 230.825 370.533, 232.625 370.931, 234 370.885 L 236.500 370.801 234 370 C 232.625 369.560, 230.825 369.161, 230 369.115 C 228.667 369.040, 228.667 369.138, 230 370 M 351.750 370.662 C 352.438 370.940, 353.563 370.940, 354.250 370.662 C 354.938 370.385, 354.375 370.158, 353 370.158 C 351.625 370.158, 351.063 370.385, 351.750 370.662 M 147.467 373.937 C 148.302 375.552, 149.440 377.154, 149.995 377.497 C 150.549 377.840, 150.058 376.518, 148.903 374.560 C 146.370 370.267, 145.338 369.819, 147.467 373.937 M 238.269 371.693 C 239.242 371.947, 240.592 371.930, 241.269 371.656 C 241.946 371.382, 241.150 371.175, 239.500 371.195 C 237.850 371.215, 237.296 371.439, 238.269 371.693 M 344.250 371.689 C 345.212 371.941, 346.788 371.941, 347.750 371.689 C 348.712 371.438, 347.925 371.232, 346 371.232 C 344.075 371.232, 343.288 371.438, 344.250 371.689 M 244.762 372.707 C 246.006 372.946, 247.806 372.937, 248.762 372.687 C 249.718 372.437, 248.700 372.241, 246.500 372.252 C 244.300 372.263, 243.518 372.468, 244.762 372.707 M 334.762 372.707 C 336.006 372.946, 337.806 372.937, 338.762 372.687 C 339.718 372.437, 338.700 372.241, 336.500 372.252 C 334.300 372.263, 333.518 372.468, 334.762 372.707 M 599.507 372.989 C 599.157 373.555, 599.558 373.723, 600.448 373.382 C 602.180 372.717, 602.497 372, 601.059 372 C 600.541 372, 599.843 372.445, 599.507 372.989 M 253.264 373.718 C 254.784 373.947, 257.034 373.941, 258.264 373.704 C 259.494 373.467, 258.250 373.279, 255.500 373.286 C 252.750 373.294, 251.744 373.488, 253.264 373.718 M 319 374.005 C 317.500 374.488, 319.100 374.592, 323 374.265 C 326.575 373.965, 329.688 373.558, 329.917 373.360 C 330.724 372.663, 321.469 373.209, 319 374.005 M 261.813 374.683 C 262.534 374.972, 263.397 374.936, 263.729 374.604 C 264.061 374.272, 263.471 374.036, 262.417 374.079 C 261.252 374.127, 261.015 374.364, 261.813 374.683 M 592.500 376 C 588.653 378.548, 589.503 378.548, 594.500 376 C 596.658 374.900, 597.765 374.003, 596.961 374.007 C 596.158 374.010, 594.150 374.907, 592.500 376 M 278.750 375.745 C 283.837 375.927, 292.162 375.927, 297.250 375.745 C 302.337 375.564, 298.175 375.415, 288 375.415 C 277.825 375.415, 273.662 375.564, 278.750 375.745 M 585.500 379 C 585.160 379.550, 585.332 380, 585.882 380 C 586.432 380, 587.160 379.550, 587.500 379 C 587.840 378.450, 587.668 378, 587.118 378 C 586.568 378, 585.840 378.450, 585.500 379 M 580.559 381.532 C 579.491 382.339, 579.068 383, 579.618 383 C 580.168 383, 581.491 382.339, 582.559 381.532 C 583.626 380.724, 584.050 380.064, 583.500 380.064 C 582.950 380.064, 581.626 380.724, 580.559 381.532 M 154.997 384.750 C 156.305 386.538, 157.532 388, 157.723 388 C 158.483 388, 156.003 384.249, 154.363 382.918 C 153.283 382.040, 153.525 382.739, 154.997 384.750 M 575 384 C 574.175 384.533, 573.950 384.969, 574.500 384.969 C 575.050 384.969, 576.175 384.533, 577 384 C 577.825 383.467, 578.050 383.031, 577.500 383.031 C 576.950 383.031, 575.825 383.467, 575 384 M 566 388 C 564.075 389.054, 562.852 389.935, 563.282 389.958 C 564.517 390.024, 571 387.162, 571 386.551 C 571 385.613, 569.639 386.008, 566 388 M 552 394.135 C 549.435 395.541, 549.168 395.879, 551 395.402 C 554.339 394.532, 558.894 392.062, 557 392.148 C 556.175 392.186, 553.925 393.080, 552 394.135 M 163.011 393.645 C 163.022 394.511, 170.793 403, 171.575 403 C 172.479 403, 171.851 402.160, 167.500 397.554 C 165.025 394.934, 163.005 393.175, 163.011 393.645 M 543.500 398 C 541.300 399.018, 539.852 399.885, 540.282 399.926 C 541.466 400.038, 548 397.181, 548 396.551 C 548 395.874, 548.307 395.775, 543.500 398 M 532.813 402.683 C 533.534 402.972, 534.397 402.936, 534.729 402.604 C 535.061 402.272, 534.471 402.036, 533.417 402.079 C 532.252 402.127, 532.015 402.364, 532.813 402.683 M 175.962 406.889 C 177.866 408.600, 179.840 410, 180.347 410 C 180.855 410, 179.972 409.019, 178.385 407.821 C 173.403 404.058, 172.367 403.659, 175.962 406.889 M 525.500 405 C 524.718 406.266, 526.042 406.266, 528 405 C 529.293 404.165, 529.266 404.029, 527.809 404.015 C 526.879 404.007, 525.840 404.450, 525.500 405 M 518 407.746 C 515.525 408.619, 513.989 409.496, 514.586 409.695 C 515.183 409.894, 517.658 409.176, 520.086 408.099 C 525.398 405.743, 524.235 405.546, 518 407.746 M 183.500 412.622 C 185.819 414.914, 192 419.037, 192 418.291 C 192 417.846, 190.988 416.854, 189.750 416.088 C 183.568 412.259, 182.578 411.710, 183.500 412.622 M 496.207 415.672 C 487.326 419.305, 489.063 419.576, 498.576 416.041 C 502.934 414.422, 505.600 413.097, 504.500 413.097 C 503.400 413.097, 499.668 414.256, 496.207 415.672 M 194.557 420.418 C 195.624 421.198, 196.710 421.624, 196.969 421.364 C 197.520 420.814, 194.941 419.038, 193.559 419.015 C 193.041 419.007, 193.491 419.638, 194.557 420.418 M 483.105 420.085 C 481.787 420.612, 480.932 421.265, 481.203 421.537 C 481.475 421.808, 483.228 421.366, 485.099 420.554 C 488.803 418.947, 487.007 418.524, 483.105 420.085 M 198 422.393 C 198 422.609, 198.698 423.054, 199.552 423.382 C 200.442 423.723, 200.843 423.555, 200.493 422.989 C 199.906 422.038, 198 421.583, 198 422.393 M 474 423.031 C 474 423.564, 474.675 424, 475.500 424 C 476.325 424, 477 423.823, 477 423.607 C 477 423.391, 476.325 422.955, 475.500 422.638 C 474.675 422.322, 474 422.499, 474 423.031 M 203.733 425.124 C 204.412 425.808, 205.219 426.115, 205.526 425.807 C 205.834 425.499, 205.279 424.940, 204.293 424.564 C 202.868 424.022, 202.753 424.136, 203.733 425.124 M 470.813 424.683 C 471.534 424.972, 472.397 424.936, 472.729 424.604 C 473.061 424.272, 472.471 424.036, 471.417 424.079 C 470.252 424.127, 470.015 424.364, 470.813 424.683 M 464.558 425.907 C 464.249 426.405, 464.898 426.578, 465.999 426.290 C 468.334 425.679, 468.629 425, 466.559 425 C 465.766 425, 464.866 425.408, 464.558 425.907 M 207 426.885 C 207 427.782, 210.005 429.328, 210.598 428.736 C 210.769 428.564, 210.030 427.875, 208.955 427.204 C 207.880 426.532, 207 426.389, 207 426.885 M 459.558 427.907 C 459.249 428.405, 459.898 428.578, 460.999 428.290 C 463.334 427.679, 463.629 427, 461.559 427 C 460.766 427, 459.866 427.408, 459.558 427.907 M 453.199 428.986 C 451.384 429.416, 449.617 430.050, 449.272 430.394 C 448.427 431.239, 455.111 429.941, 457 428.893 C 458.790 427.900, 457.670 427.928, 453.199 428.986 M 435 434 C 430.875 434.993, 428.260 435.850, 429.188 435.903 C 431.055 436.010, 444.244 433.090, 444.912 432.421 C 445.657 431.676, 442.679 432.151, 435 434 M 222.500 434 C 223.600 434.473, 225.175 434.859, 226 434.859 C 226.945 434.859, 226.761 434.542, 225.500 434 C 224.400 433.527, 222.825 433.141, 222 433.141 C 221.055 433.141, 221.239 433.458, 222.500 434 M 235 438 C 235.825 438.533, 236.950 438.969, 237.500 438.969 C 238.050 438.969, 237.825 438.533, 237 438 C 236.175 437.467, 235.050 437.031, 234.500 437.031 C 233.950 437.031, 234.175 437.467, 235 438 M 415.750 438.662 C 416.438 438.940, 417.563 438.940, 418.250 438.662 C 418.938 438.385, 418.375 438.158, 417 438.158 C 415.625 438.158, 415.063 438.385, 415.750 438.662 M 410.813 439.683 C 411.534 439.972, 412.397 439.936, 412.729 439.604 C 413.061 439.272, 412.471 439.036, 411.417 439.079 C 410.252 439.127, 410.015 439.364, 410.813 439.683 M 247.500 441.529 C 249.700 442.321, 252.175 442.942, 253 442.909 C 255.106 442.823, 247.942 440.159, 245.500 440.120 C 244.400 440.102, 245.300 440.736, 247.500 441.529 M 395.269 442.693 C 396.242 442.947, 397.592 442.930, 398.269 442.656 C 398.946 442.382, 398.150 442.175, 396.500 442.195 C 394.850 442.215, 394.296 442.439, 395.269 442.693 M 255.750 443.662 C 256.438 443.940, 257.563 443.940, 258.250 443.662 C 258.938 443.385, 258.375 443.158, 257 443.158 C 255.625 443.158, 255.063 443.385, 255.750 443.662 M 388.250 443.689 C 389.212 443.941, 390.788 443.941, 391.750 443.689 C 392.712 443.438, 391.925 443.232, 390 443.232 C 388.075 443.232, 387.288 443.438, 388.250 443.689 M 262.269 444.693 C 263.242 444.947, 264.592 444.930, 265.269 444.656 C 265.946 444.382, 265.150 444.175, 263.500 444.195 C 261.850 444.215, 261.296 444.439, 262.269 444.693 M 381.250 444.689 C 382.212 444.941, 383.788 444.941, 384.750 444.689 C 385.712 444.438, 384.925 444.232, 383 444.232 C 381.075 444.232, 380.288 444.438, 381.250 444.689 M 269.269 445.693 C 270.242 445.947, 271.592 445.930, 272.269 445.656 C 272.946 445.382, 272.150 445.175, 270.500 445.195 C 268.850 445.215, 268.296 445.439, 269.269 445.693 M 372.269 445.693 C 373.242 445.947, 374.592 445.930, 375.269 445.656 C 375.946 445.382, 375.150 445.175, 373.500 445.195 C 371.850 445.215, 371.296 445.439, 372.269 445.693 M 364.813 446.683 C 365.534 446.972, 366.397 446.936, 366.729 446.604 C 367.061 446.272, 366.471 446.036, 365.417 446.079 C 364.252 446.127, 364.015 446.364, 364.813 446.683 M 278.813 447.683 C 279.534 447.972, 280.397 447.936, 280.729 447.604 C 281.061 447.272, 280.471 447.036, 279.417 447.079 C 278.252 447.127, 278.015 447.364, 278.813 447.683 M 283.813 447.683 C 284.534 447.972, 285.397 447.936, 285.729 447.604 C 286.061 447.272, 285.471 447.036, 284.417 447.079 C 283.252 447.127, 283.015 447.364, 283.813 447.683 M 343 448 L 334.500 448.627 342.500 448.798 C 346.900 448.892, 351.175 448.533, 352 448 C 352.825 447.467, 353.050 447.108, 352.500 447.202 C 351.950 447.296, 347.675 447.655, 343 448 M 291.750 448.723 C 293.538 448.945, 296.462 448.945, 298.250 448.723 C 300.038 448.502, 298.575 448.320, 295 448.320 C 291.425 448.320, 289.962 448.502, 291.750 448.723 M 314.750 449.737 C 317.637 449.939, 322.363 449.939, 325.250 449.737 C 328.137 449.535, 325.775 449.370, 320 449.370 C 314.225 449.370, 311.863 449.535, 314.750 449.737 M 122 524.500 L 122 556 485.500 556 L 849 556 849 524.500 L 849 493 485.500 493 L 122 493 122 524.500" stroke="none" fill="#ffffff" fill-rule="evenodd"/>
</svg>