<svg xmlns="http://www.w3.org/2000/svg" width="1000" height="563" viewBox="0 0 1000 563" version="1.1">
	<path d="M 891.500 12.616 C 886 15.649, 853.600 33.043, 819.500 51.271 C 757.256 84.542, 736.917 94.481, 720.828 99.488 L 712.156 102.187 715.695 110.344 C 717.641 114.830, 721.554 123.936, 724.391 130.581 C 730.136 144.039, 732.613 148.357, 734.069 147.458 C 734.608 147.124, 734.926 147.403, 734.775 148.077 C 734.337 150.030, 740.653 153.786, 746.369 154.973 C 754.232 156.605, 759.710 154.956, 775.534 146.193 C 783.215 141.939, 815.038 124.549, 846.250 107.548 L 903 76.638 903 41.819 C 903 22.668, 902.663 7.023, 902.250 7.051 C 901.837 7.080, 897 9.584, 891.500 12.616 M 900 10.059 C 900 10.641, 899.590 10.865, 899.090 10.555 C 898.589 10.246, 896.522 11.602, 894.498 13.568 C 892.359 15.645, 890.209 16.911, 889.368 16.588 C 887.593 15.907, 884 18.017, 884 19.741 C 884 20.433, 883.523 21, 882.941 21 C 882.359 21, 882.167 20.438, 882.515 19.750 C 882.863 19.063, 882.508 19.281, 881.725 20.234 C 880.943 21.188, 880.014 21.680, 879.661 21.328 C 879.308 20.975, 877.939 21.853, 876.618 23.278 C 874.880 25.154, 873.591 25.706, 871.952 25.277 C 870.510 24.900, 869.922 25.064, 870.333 25.729 C 871.306 27.303, 868.515 29.133, 866.377 28.323 C 864.606 27.652, 864.597 27.709, 866.208 29.335 C 867.928 31.071, 867.654 34, 865.771 34 C 865.185 34, 865.282 33.365, 866 32.500 C 867.516 30.674, 866.613 30.575, 863.684 32.247 C 862.483 32.933, 860.150 33.515, 858.500 33.541 C 856.295 33.576, 855.537 34.043, 855.640 35.303 C 855.792 37.153, 851.897 38.673, 850.004 37.502 C 849.393 37.125, 848.042 37.799, 847 39 C 845.958 40.201, 844.632 40.891, 844.053 40.533 C 843.474 40.175, 843 40.359, 843 40.941 C 843 41.523, 842.325 42, 841.500 42 C 840.675 42, 840 42.498, 840 43.107 C 840 43.716, 839.339 43.960, 838.532 43.651 C 837.725 43.341, 836.755 43.587, 836.378 44.198 C 835.962 44.871, 836.146 45.028, 836.845 44.595 C 837.480 44.203, 838 44.330, 838 44.878 C 838 45.425, 836.538 46.037, 834.750 46.238 C 831.555 46.597, 831.541 46.620, 833.920 47.637 C 836.246 48.630, 836.177 48.712, 832.170 49.729 C 827.658 50.874, 827.012 50.502, 829.750 48.336 C 830.712 47.575, 829.385 47.942, 826.799 49.151 C 822.603 51.115, 822.281 51.490, 823.799 52.644 C 825.372 53.839, 825.349 53.949, 823.500 54.098 C 818.728 54.485, 815.473 54.793, 815.128 54.893 C 814.923 54.952, 815.282 55.635, 815.926 56.411 C 816.671 57.308, 816.738 58.044, 816.110 58.432 C 815.567 58.768, 814.659 58.245, 814.092 57.271 C 813.118 55.598, 813.059 55.603, 813.030 57.358 C 813.006 58.837, 812.490 59.089, 810.500 58.589 C 807.921 57.942, 807.481 58.769, 807.966 63.359 C 808.085 64.486, 807.730 64.951, 807.065 64.540 C 806.461 64.167, 806.197 63.490, 806.478 63.036 C 806.759 62.581, 806.293 61.943, 805.442 61.616 C 804.433 61.229, 804.145 61.425, 804.612 62.181 C 805.078 62.936, 804.792 63.134, 803.790 62.750 C 802.804 62.371, 801.784 63.034, 800.947 64.599 C 799.909 66.539, 798.949 66.992, 796.259 66.811 C 794.344 66.682, 792.529 67.145, 792.076 67.877 C 791.636 68.589, 790.989 69.132, 790.638 69.085 C 788.466 68.795, 787.853 69.176, 788.362 70.500 C 788.750 71.512, 788.313 72, 787.018 72 C 785.963 72, 784.723 72.673, 784.263 73.495 C 783.803 74.317, 781.868 75.167, 779.963 75.383 C 778.058 75.599, 776.136 75.827, 775.691 75.888 C 775.246 75.950, 775.104 76.359, 775.375 76.798 C 775.646 77.237, 775.448 78.249, 774.934 79.048 C 774.121 80.313, 773.876 80.307, 773.042 79.008 C 772.317 77.881, 771.801 77.799, 770.929 78.671 C 769.232 80.368, 770.808 82.196, 773.288 81.409 C 775.359 80.751, 775.364 80.778, 773.534 82.609 C 772.212 83.931, 771.539 84.117, 771.247 83.241 C 771.019 82.558, 770.169 82, 769.358 82 C 768.546 82, 768.157 81.555, 768.493 81.011 C 768.845 80.441, 768.436 80.279, 767.526 80.628 C 766.226 81.127, 766.173 81.507, 767.224 82.790 C 768.327 84.136, 768.186 84.266, 766.182 83.749 C 763.141 82.965, 758 84.797, 758 86.665 C 758 87.606, 757.370 87.939, 756.250 87.590 C 755.288 87.291, 753.884 87.433, 753.130 87.906 C 752.016 88.606, 752.087 88.949, 753.512 89.747 C 754.978 90.567, 754.668 90.840, 751.615 91.412 C 749.608 91.789, 747.557 91.844, 747.058 91.536 C 745.766 90.737, 741.219 92.988, 740.538 94.762 C 740.223 95.582, 740.435 96.819, 741.008 97.510 C 741.764 98.421, 741.592 98.943, 740.382 99.407 C 739.465 99.759, 738.478 99.811, 738.190 99.524 C 737.902 99.236, 738.192 99, 738.833 99 C 739.475 99, 740 98.520, 740 97.933 C 740 97.299, 739.136 97.140, 737.875 97.540 C 736.706 97.911, 735.469 97.760, 735.125 97.204 C 734.719 96.548, 733.450 96.671, 731.500 97.556 C 728.695 98.829, 728.672 98.883, 731.141 98.378 C 732.710 98.057, 734.095 98.345, 734.555 99.089 C 735.095 99.962, 734.836 100.151, 733.696 99.714 C 732.798 99.369, 731.797 99.519, 731.471 100.046 C 731.096 100.654, 730.192 100.638, 729.005 100.003 C 726.539 98.683, 725.718 98.735, 726.595 100.155 C 727.050 100.889, 726.868 101.037, 726.098 100.560 C 724.426 99.527, 719.770 100.818, 720.559 102.096 C 720.930 102.695, 720.458 103, 719.443 102.817 C 717.009 102.378, 715.983 106.698, 717.619 110.500 C 718.739 113.104, 719.532 113.198, 719.094 110.676 C 719.015 110.222, 719.412 110.136, 719.975 110.485 C 720.539 110.833, 721 112.018, 721 113.118 C 721 114.218, 720.551 114.841, 720.003 114.502 C 718.568 113.615, 720.595 118.623, 723.088 122.124 C 724.209 123.698, 724.849 125.436, 724.509 125.985 C 724.170 126.534, 724.965 128.056, 726.277 129.368 C 727.667 130.758, 728.526 132.637, 728.337 133.876 C 728.158 135.044, 728.486 136, 729.065 136 C 729.644 136, 729.840 135.550, 729.500 135 C 729.160 134.450, 729.572 134, 730.416 134 C 731.650 134, 731.759 134.502, 730.975 136.565 C 729.705 139.907, 729.737 142, 731.059 142 C 731.641 142, 731.789 141.438, 731.387 140.750 C 730.981 140.055, 731.510 140.186, 732.578 141.044 C 733.665 141.918, 736.163 142.522, 738.329 142.437 C 740.435 142.353, 741.606 142.625, 740.933 143.041 C 740.260 143.458, 739.974 144.489, 740.298 145.334 C 740.622 146.179, 740.403 147.032, 739.811 147.230 C 739.200 147.433, 739.022 148.495, 739.400 149.686 C 740.157 152.070, 743.883 153.468, 744.587 151.633 C 744.843 150.967, 745.950 150.354, 747.048 150.271 C 748.145 150.189, 748.782 150.544, 748.463 151.061 C 748.143 151.577, 749.371 152.068, 751.191 152.150 C 754.098 152.282, 753.953 152.385, 750 153 L 745.500 153.700 750.693 153.850 C 755.042 153.976, 756.143 153.634, 757.463 151.750 C 759.153 149.337, 759.872 149.175, 760.976 150.961 C 761.952 152.541, 768.171 148.945, 767.508 147.185 C 767.160 146.260, 767.603 146.057, 768.997 146.499 C 771.467 147.283, 773.793 146.108, 771.985 144.991 C 771.309 144.573, 770.944 143.669, 771.173 142.982 C 771.485 142.046, 771.977 142.119, 773.132 143.275 C 774.148 144.291, 775.158 144.513, 776.088 143.925 C 777.171 143.239, 777.195 143.027, 776.191 143.015 C 775.471 143.007, 775.161 142.548, 775.502 141.996 C 775.843 141.444, 777.155 141.252, 778.418 141.569 C 779.842 141.926, 781.322 141.535, 782.321 140.537 C 783.205 139.652, 784.057 138.991, 784.214 139.067 C 784.371 139.144, 786.149 138.420, 788.163 137.459 C 790.673 136.262, 791.645 135.239, 791.250 134.208 C 790.800 133.035, 791.259 132.816, 793.336 133.213 C 794.940 133.520, 796 133.277, 796 132.602 C 796 131.132, 799.818 128.769, 801.006 129.504 C 802.620 130.501, 810.042 126.019, 811.016 123.459 C 811.841 121.288, 813.642 120.430, 816.354 120.916 C 818.531 121.306, 820.860 119.799, 820.307 118.359 C 819.844 117.152, 820.341 116.893, 822.608 117.160 C 825.095 117.452, 825.467 117.185, 825.262 115.250 C 825.068 113.417, 825.520 113, 827.703 113 C 830.284 113, 830.311 113.056, 828.441 114.516 C 826.638 115.925, 826.693 115.950, 829.219 114.870 C 830.714 114.231, 831.653 113.247, 831.305 112.684 C 830.921 112.064, 831.325 111.911, 832.329 112.296 C 833.357 112.690, 834.803 112.091, 836.140 110.716 C 837.325 109.497, 838.002 109.020, 837.646 109.656 C 837.155 110.532, 837.594 110.532, 839.452 109.656 C 842.162 108.380, 843.187 105.740, 842.436 101.970 C 841.955 99.558, 841.967 99.553, 842.940 101.750 C 843.487 102.987, 844.711 104, 845.659 104 C 847.193 104, 847.169 104.164, 845.441 105.499 C 844.374 106.323, 845.636 105.985, 848.247 104.749 C 852.372 102.795, 852.701 102.429, 850.758 101.957 C 847.940 101.274, 849.452 100.411, 853.934 100.144 C 858.109 99.896, 860.773 98.100, 858.797 96.866 C 857.942 96.331, 858.351 96.094, 860 96.169 C 864.032 96.353, 865.157 96.064, 864.507 95.011 C 864.148 94.430, 864.583 94.286, 865.563 94.663 C 866.904 95.177, 867.098 94.883, 866.551 93.160 C 865.947 91.257, 866.129 91.112, 868.180 91.871 C 870.744 92.820, 875 90.711, 875 88.492 C 875 87.211, 877.142 85.987, 879.332 86.015 C 880.002 86.024, 879.861 86.444, 879 87 C 878.058 87.609, 877.952 87.975, 878.715 87.985 C 879.383 87.993, 880.430 87.065, 881.042 85.922 C 881.702 84.689, 882.753 84.075, 883.629 84.411 C 884.569 84.772, 884.847 84.561, 884.396 83.831 C 883.914 83.051, 884.377 82.865, 885.845 83.249 C 887.032 83.560, 887.784 83.460, 887.517 83.028 C 886.732 81.757, 896.114 75, 898.664 75 L 901 75 901 42 C 901 23.850, 900.775 9, 900.500 9 C 900.225 9, 900 9.477, 900 10.059 M 897.209 13.834 C 897.645 16.082, 899.909 16.437, 899.742 14.231 C 899.664 13.187, 898.996 12.333, 898.259 12.333 C 897.521 12.333, 897.049 13.009, 897.209 13.834 M 894.500 16 C 894.160 16.550, 894.359 17, 894.941 17 C 895.523 17, 896 16.550, 896 16 C 896 15.450, 895.802 15, 895.559 15 C 895.316 15, 894.840 15.450, 894.500 16 M 880.500 24 C 880.160 24.550, 880.557 25, 881.382 25 C 882.207 25, 883.160 24.550, 883.500 24 C 883.840 23.450, 883.443 23, 882.618 23 C 881.793 23, 880.840 23.450, 880.500 24 M 857 38 C 857 38.550, 857.477 39, 858.059 39 C 858.641 39, 858.840 38.550, 858.500 38 C 858.160 37.450, 857.684 37, 857.441 37 C 857.198 37, 857 37.450, 857 38 M 848.500 40.985 C 847.104 41.574, 848.057 41.780, 851.654 41.665 C 854.489 41.574, 856.600 41.163, 856.345 40.750 C 855.740 39.770, 851.045 39.910, 848.500 40.985 M 386.813 44.683 C 387.534 44.972, 388.397 44.936, 388.729 44.604 C 389.061 44.272, 388.471 44.036, 387.417 44.079 C 386.252 44.127, 386.015 44.364, 386.813 44.683 M 496.539 121.750 C 384.254 337.077, 384.421 336.754, 385.306 337.640 C 385.838 338.171, 414.566 333.317, 427.763 330.466 C 462.493 322.964, 487.908 312.394, 505.328 298.206 C 518.258 287.675, 518.955 286.466, 545.489 228.500 C 553.042 212, 564.189 187.700, 570.259 174.500 C 576.330 161.300, 582.612 147.575, 584.219 144 C 586.412 139.122, 587.354 137.881, 587.995 139.026 C 588.464 139.865, 599.502 167.990, 612.522 201.526 C 625.543 235.062, 636.341 262.652, 636.518 262.837 C 636.695 263.022, 641.939 260.272, 648.170 256.727 C 654.402 253.181, 667.375 245.885, 677 240.513 C 686.625 235.142, 699.225 228.049, 705 224.752 C 710.775 221.455, 717.389 217.681, 719.698 216.367 L 723.897 213.976 715.397 196.238 C 710.723 186.482, 692.894 149.363, 675.779 113.750 L 644.659 49 589.568 49 L 534.476 49 496.539 121.750 M 837.813 49.683 C 838.534 49.972, 839.397 49.936, 839.729 49.604 C 840.061 49.272, 839.471 49.036, 838.417 49.079 C 837.252 49.127, 837.015 49.364, 837.813 49.683 M 797 65 C 796.099 65.582, 795.975 65.975, 796.691 65.985 C 797.346 65.993, 798.160 65.550, 798.500 65 C 799.267 63.758, 798.921 63.758, 797 65 M 803.211 65.849 C 802.381 66.375, 803.020 66.667, 805 66.667 C 806.980 66.667, 807.619 66.375, 806.789 65.849 C 806.080 65.399, 805.275 65.031, 805 65.031 C 804.725 65.031, 803.920 65.399, 803.211 65.849 M 790 71.333 C 790 72.800, 790.447 74, 790.994 74 C 791.540 74, 791.852 73.112, 791.686 72.026 C 791.208 68.894, 790 68.398, 790 71.333 M 786 75 C 786 75.550, 786.423 76, 786.941 76 C 787.459 76, 788.160 75.550, 788.500 75 C 788.840 74.450, 788.416 74, 787.559 74 C 786.702 74, 786 74.450, 786 75 M 897.250 77.031 C 896.013 77.529, 895 78.175, 895 78.468 C 895 79.438, 896.592 79.020, 898.559 77.532 C 900.771 75.858, 900.462 75.740, 897.250 77.031 M 885.399 79.450 C 882.792 81.356, 884.348 82.570, 887.009 80.706 C 888.185 79.883, 888.730 78.951, 888.221 78.636 C 887.711 78.322, 886.442 78.688, 885.399 79.450 M 877.500 84 C 877.160 84.550, 877.359 85, 877.941 85 C 878.523 85, 879 84.550, 879 84 C 879 83.450, 878.802 83, 878.559 83 C 878.316 83, 877.840 83.450, 877.500 84 M 737 95 C 735.718 95.828, 735.754 95.972, 737.250 95.985 C 738.212 95.993, 739 95.550, 739 95 C 739 93.780, 738.887 93.780, 737 95 M 722.014 109.250 C 722.021 109.938, 722.309 111.551, 722.652 112.835 C 723.466 115.873, 724.866 113.748, 724.232 110.435 C 723.756 107.942, 721.989 106.998, 722.014 109.250 M 825 110.031 C 825 110.564, 825.675 111, 826.500 111 C 827.325 111, 828 110.823, 828 110.607 C 828 110.391, 827.325 109.955, 826.500 109.638 C 825.675 109.322, 825 109.499, 825 110.031 M 462.079 112.583 C 462.127 113.748, 462.364 113.985, 462.683 113.188 C 462.972 112.466, 462.936 111.603, 462.604 111.271 C 462.272 110.939, 462.036 111.529, 462.079 112.583 M 721.788 116.545 C 721.032 117.301, 723.069 121, 724.241 121 C 724.658 121, 725 120.073, 725 118.941 C 725 117.809, 724.588 117.136, 724.085 117.447 C 723.582 117.758, 723.011 117.532, 722.815 116.944 C 722.619 116.356, 722.157 116.177, 721.788 116.545 M 810.471 118.554 C 811.556 119.374, 813.055 119.809, 813.803 119.522 C 814.551 119.235, 815.577 119, 816.082 119 C 816.587 119, 817 118.550, 817 118 C 817 117.450, 815.087 117.014, 812.750 117.032 C 808.767 117.062, 808.624 117.157, 810.471 118.554 M 808 120.559 C 808 121.416, 808.457 121.835, 809.016 121.490 C 809.575 121.144, 809.774 120.443, 809.457 119.931 C 808.600 118.544, 808 118.802, 808 120.559 M 898 120 C 897.099 120.582, 896.975 120.975, 897.691 120.985 C 898.346 120.993, 899.160 120.550, 899.500 120 C 900.267 118.758, 899.921 118.758, 898 120 M 214.872 122.750 C 213.629 124.336, 213.664 124.371, 215.250 123.128 C 216.213 122.373, 217 121.585, 217 121.378 C 217 120.555, 216.179 121.084, 214.872 122.750 M 442.813 122.683 C 443.534 122.972, 444.397 122.936, 444.729 122.604 C 445.061 122.272, 444.471 122.036, 443.417 122.079 C 442.252 122.127, 442.015 122.364, 442.813 122.683 M 813.507 122.989 C 813.157 123.555, 813.558 123.723, 814.448 123.382 C 816.180 122.717, 816.497 122, 815.059 122 C 814.541 122, 813.843 122.445, 813.507 122.989 M 435.813 123.683 C 436.534 123.972, 437.397 123.936, 437.729 123.604 C 438.061 123.272, 437.471 123.036, 436.417 123.079 C 435.252 123.127, 435.015 123.364, 435.813 123.683 M 806.500 125.102 C 804.850 125.613, 802.746 125.851, 801.825 125.629 C 800.718 125.363, 800.330 125.697, 800.682 126.613 C 800.975 127.376, 801.863 128, 802.657 128 C 804.239 128, 810 125.234, 810 124.474 C 810 124.213, 809.888 124.039, 809.750 124.086 C 809.612 124.133, 808.150 124.590, 806.500 125.102 M 876 132 C 875.099 132.582, 874.975 132.975, 875.691 132.985 C 876.346 132.993, 877.160 132.550, 877.500 132 C 878.267 130.758, 877.921 130.758, 876 132 M 785.441 134.532 C 786.509 135.339, 788.057 136, 788.882 136 C 790.015 136, 789.907 135.641, 788.441 134.532 C 787.374 133.724, 785.825 133.064, 785 133.064 C 783.867 133.064, 783.975 133.423, 785.441 134.532 M 784 137 C 784 137.550, 784.477 138, 785.059 138 C 785.641 138, 785.840 137.550, 785.500 137 C 785.160 136.450, 784.684 136, 784.441 136 C 784.198 136, 784 136.450, 784 137 M 193.872 140.750 C 192.629 142.336, 192.664 142.371, 194.250 141.128 C 195.916 139.821, 196.445 139, 195.622 139 C 195.415 139, 194.627 139.787, 193.872 140.750 M 188.437 146.250 L 185.500 149.500 188.750 146.563 C 191.779 143.825, 192.460 143, 191.687 143 C 191.515 143, 190.052 144.463, 188.437 146.250 M 733 144.875 C 733 145.356, 734.117 145.750, 735.482 145.750 C 736.847 145.750, 737.720 145.356, 737.423 144.875 C 737.125 144.394, 736.009 144, 734.941 144 C 733.873 144, 733 144.394, 733 144.875 M 179.924 154.750 L 177.500 157.500 180.250 155.076 C 181.762 153.742, 183 152.505, 183 152.326 C 183 151.541, 182.190 152.180, 179.924 154.750 M 789 179 C 788.099 179.582, 787.975 179.975, 788.691 179.985 C 789.346 179.993, 790.160 179.550, 790.500 179 C 791.267 177.758, 790.921 177.758, 789 179 M 902.195 181.500 C 902.215 183.150, 902.439 183.704, 902.693 182.731 C 902.947 181.758, 902.930 180.408, 902.656 179.731 C 902.382 179.054, 902.175 179.850, 902.195 181.500 M 902.355 196.500 C 902.352 201.450, 902.521 203.601, 902.731 201.280 C 902.940 198.959, 902.943 194.909, 902.736 192.280 C 902.530 189.651, 902.358 191.550, 902.355 196.500 M 742.441 204.555 C 740.577 206.049, 740.589 206.067, 742.750 205.020 C 743.987 204.420, 745 203.720, 745 203.465 C 745 202.700, 744.481 202.921, 742.441 204.555 M 245.405 213.250 L 243.500 215.500 245.750 213.595 C 247.864 211.805, 248.455 211, 247.655 211 C 247.465 211, 246.453 212.012, 245.405 213.250 M 230.946 225.750 L 227.500 229.500 231.250 226.054 C 234.740 222.846, 235.460 222, 234.696 222 C 234.529 222, 232.842 223.688, 230.946 225.750 M 212.924 243.750 L 210.500 246.500 213.250 244.076 C 215.820 241.810, 216.459 241, 215.674 241 C 215.495 241, 214.258 242.238, 212.924 243.750 M 206.405 251.250 L 204.500 253.500 206.750 251.595 C 208.864 249.805, 209.455 249, 208.655 249 C 208.465 249, 207.453 250.012, 206.405 251.250 M 202.872 255.750 C 201.629 257.336, 201.664 257.371, 203.250 256.128 C 204.916 254.821, 205.445 254, 204.622 254 C 204.415 254, 203.627 254.787, 202.872 255.750 M 124.079 258.583 C 124.127 259.748, 124.364 259.985, 124.683 259.188 C 124.972 258.466, 124.936 257.603, 124.604 257.271 C 124.272 256.939, 124.036 257.529, 124.079 258.583 M 796.441 268.555 C 794.577 270.049, 794.589 270.067, 796.750 269.020 C 797.987 268.420, 799 267.720, 799 267.465 C 799 266.700, 798.481 266.921, 796.441 268.555 M 122.079 271.583 C 122.127 272.748, 122.364 272.985, 122.683 272.188 C 122.972 271.466, 122.936 270.603, 122.604 270.271 C 122.272 269.939, 122.036 270.529, 122.079 271.583 M 788.507 272.989 C 788.157 273.555, 788.558 273.723, 789.448 273.382 C 791.180 272.717, 791.497 272, 790.059 272 C 789.541 272, 788.843 272.445, 788.507 272.989 M 122.232 288 C 122.232 289.925, 122.438 290.712, 122.689 289.750 C 122.941 288.788, 122.941 287.212, 122.689 286.250 C 122.438 285.288, 122.232 286.075, 122.232 288 M 584.507 290.989 C 584.157 291.555, 584.558 291.723, 585.448 291.382 C 587.180 290.717, 587.497 290, 586.059 290 C 585.541 290, 584.843 290.445, 584.507 290.989 M 740.500 301.131 C 731.150 306.100, 711.141 316.675, 696.037 324.630 C 680.932 332.585, 668.384 339.283, 668.153 339.514 C 667.922 339.745, 676.229 360.936, 686.612 386.606 C 707.422 438.050, 708.316 439.674, 718.212 444.070 C 723.468 446.404, 723.817 446.423, 775.995 447.131 C 804.867 447.523, 828.641 447.692, 828.827 447.507 C 829.012 447.321, 822.235 431.944, 813.765 413.335 C 765.588 307.479, 758.474 292.004, 758.010 292.048 C 757.729 292.074, 749.850 296.161, 740.500 301.131 M 556 304.500 C 554.625 305.286, 553.950 305.929, 554.500 305.929 C 555.050 305.929, 556.625 305.286, 558 304.500 C 559.375 303.714, 560.050 303.071, 559.500 303.071 C 558.950 303.071, 557.375 303.714, 556 304.500 M 523 319 C 522.175 319.533, 521.950 319.969, 522.500 319.969 C 523.050 319.969, 524.175 319.533, 525 319 C 525.825 318.467, 526.050 318.031, 525.500 318.031 C 524.950 318.031, 523.825 318.467, 523 319 M 182 339 C 182.589 340.100, 183.295 341, 183.570 341 C 183.845 341, 183.589 340.100, 183 339 C 182.411 337.900, 181.705 337, 181.430 337 C 181.155 337, 181.411 337.900, 182 339 M 621.507 361.989 C 621.157 362.555, 621.558 362.723, 622.448 362.382 C 624.180 361.717, 624.497 361, 623.059 361 C 622.541 361, 621.843 361.445, 621.507 361.989 M 328.750 372.662 C 329.438 372.940, 330.563 372.940, 331.250 372.662 C 331.938 372.385, 331.375 372.158, 330 372.158 C 328.625 372.158, 328.063 372.385, 328.750 372.662 M 317.813 373.683 C 318.534 373.972, 319.397 373.936, 319.729 373.604 C 320.061 373.272, 319.471 373.036, 318.417 373.079 C 317.252 373.127, 317.015 373.364, 317.813 373.683 M 282.250 374.739 C 285.413 374.937, 290.587 374.937, 293.750 374.739 C 296.913 374.541, 294.325 374.378, 288 374.378 C 281.675 374.378, 279.087 374.541, 282.250 374.739 M 572 385.500 C 570.625 386.286, 569.950 386.929, 570.500 386.929 C 571.050 386.929, 572.625 386.286, 574 385.500 C 575.375 384.714, 576.050 384.071, 575.500 384.071 C 574.950 384.071, 573.375 384.714, 572 385.500 M 161 393.313 C 161 393.485, 162.463 394.948, 164.250 396.563 L 167.500 399.500 164.563 396.250 C 161.825 393.221, 161 392.540, 161 393.313 M 171 403.500 C 172.866 405.425, 174.617 407, 174.892 407 C 175.167 407, 173.866 405.425, 172 403.500 C 170.134 401.575, 168.383 400, 168.108 400 C 167.833 400, 169.134 401.575, 171 403.500 M 177 408.378 C 177 408.585, 177.787 409.373, 178.750 410.128 C 180.336 411.371, 180.371 411.336, 179.128 409.750 C 177.821 408.084, 177 407.555, 177 408.378 M 199 423.393 C 199 423.609, 199.698 424.054, 200.552 424.382 C 201.442 424.723, 201.843 424.555, 201.493 423.989 C 200.906 423.038, 199 422.583, 199 423.393 M 388.813 443.683 C 389.534 443.972, 390.397 443.936, 390.729 443.604 C 391.061 443.272, 390.471 443.036, 389.417 443.079 C 388.252 443.127, 388.015 443.364, 388.813 443.683 M 314.250 449.728 C 316.313 449.944, 319.688 449.944, 321.750 449.728 C 323.813 449.513, 322.125 449.336, 318 449.336 C 313.875 449.336, 312.188 449.513, 314.250 449.728 M 121 524.500 L 121 556 485 556 L 849 556 849 524.500 L 849 493 485 493 L 121 493 121 524.500" stroke="none" fill="#ffffff" fill-rule="evenodd"/>
</svg>