<svg xmlns="http://www.w3.org/2000/svg" width="1000" height="360" viewBox="0 0 1000 360" version="1.1">
	<path d="M 154.277 94.973 C 150.045 97.553, 149.416 100.601, 151.659 107.669 C 153.238 112.647, 154.082 113.794, 157.593 115.725 C 160.387 117.262, 162.270 119.273, 163.528 122.062 C 164.806 124.895, 166.575 126.763, 169.296 128.151 C 172.062 129.562, 173.660 131.271, 174.707 133.937 C 175.654 136.346, 177.592 138.588, 180.044 140.110 C 182.243 141.475, 184.846 144.332, 186.116 146.773 C 187.338 149.123, 189.750 151.919, 191.476 152.985 C 193.202 154.052, 196.085 157.194, 197.882 159.967 C 199.679 162.740, 201.945 165.435, 202.917 165.956 C 203.890 166.476, 206.559 169.384, 208.849 172.416 C 217.116 183.366, 220.635 185.548, 231.619 186.537 C 235.404 186.878, 240.843 187.852, 243.707 188.702 C 246.571 189.552, 249.615 189.978, 250.472 189.649 C 253.229 188.591, 254.232 183.923, 253.669 174.773 C 253.234 167.688, 252.477 164.583, 249.649 158.273 C 247.733 153.998, 245.631 148.478, 244.978 146.006 C 243.382 139.962, 240.752 135.020, 237.531 132.013 C 236.066 130.646, 233.751 127.477, 232.388 124.971 C 230.915 122.264, 228.280 119.418, 225.897 117.958 C 223.691 116.606, 220.811 114.099, 219.496 112.386 C 215.773 107.535, 190.573 95.449, 181.308 94.070 C 169.393 92.297, 158.044 92.676, 154.277 94.973 M 101.500 114.102 C 97.608 115.297, 95.925 116.684, 92.871 121.211 C 91.495 123.253, 89.100 125.920, 87.550 127.139 C 86.001 128.358, 83.670 131.758, 82.372 134.694 C 81.073 137.630, 78.491 142.243, 76.632 144.944 C 71.650 152.186, 70.491 159.627, 70.547 184 C 70.591 202.867, 70.768 204.885, 72.775 209.328 C 75.821 216.070, 77.587 215.354, 82.500 205.381 C 84.700 200.916, 87.276 196.508, 88.224 195.586 C 90.172 193.691, 91.532 189.054, 92.504 181 C 93.479 172.907, 95.604 166.299, 98.900 161.104 C 100.978 157.830, 102.447 153.323, 103.986 145.500 C 105.285 138.900, 107.320 132.216, 109.075 128.791 C 112.352 122.395, 112.744 118.507, 110.443 115.223 C 108.801 112.878, 106.445 112.583, 101.500 114.102 M 129.970 117.532 C 127.770 119.874, 125.543 123.733, 120.028 134.761 C 118.715 137.387, 117.515 142.569, 116.902 148.261 C 115.641 159.988, 114.665 162.989, 110.961 166.537 C 107.589 169.768, 106.426 173.375, 105.491 183.500 C 104.585 193.317, 103.281 197.029, 99.473 200.624 C 94.457 205.359, 92.989 212.099, 95.125 220.583 C 97.379 229.532, 105.588 231.605, 116.610 226.009 C 122.794 222.870, 128.747 221.712, 147.485 220.006 C 156.773 219.161, 159.553 218.477, 165.485 215.577 C 174.137 211.348, 178.038 210.368, 189.500 209.544 C 202.826 208.587, 205.866 207.566, 207.576 203.473 C 209.053 199.937, 209.460 193.363, 208.377 190.539 C 208.034 189.646, 206.015 188.028, 203.890 186.944 C 201.398 185.672, 199.293 183.535, 197.960 180.921 C 196.823 178.693, 194.428 176.005, 192.639 174.949 C 190.849 173.893, 188.370 171.225, 187.131 169.018 C 185.891 166.812, 183.306 163.810, 181.388 162.347 C 179.469 160.883, 177.359 158.676, 176.700 157.441 C 175.536 155.264, 170.297 149.252, 155.250 132.829 C 151.262 128.477, 148 124.495, 148 123.981 C 148 123.467, 145.710 121.236, 142.910 119.023 C 136.902 114.274, 133.409 113.872, 129.970 117.532 M 466.761 120.384 C 462.364 123.722, 462.032 126.914, 462.409 162.156 C 462.782 197.086, 463.366 202.400, 467.226 205.996 C 469.883 208.471, 477.522 208.724, 480.777 206.443 C 483.666 204.420, 483.603 203.913, 479.789 198.503 L 476.578 193.948 476.355 162.224 C 476.232 144.776, 476.102 128.813, 476.066 126.750 C 475.957 120.565, 470.995 117.170, 466.761 120.384 M 322.073 120.676 C 318.173 121.494, 315.300 123.853, 313.386 127.809 C 311.756 131.175, 311.621 134.664, 311.850 167.477 C 312.127 207.297, 311.875 205.814, 318.755 208.084 C 323.706 209.718, 349.599 208.851, 353.151 206.932 C 354.609 206.144, 358.940 202.547, 362.775 198.938 C 372.420 189.863, 373.434 186.456, 373.472 163 C 373.498 146.585, 373.356 145.231, 371.181 141.155 C 367.518 134.290, 360.818 128.333, 352.252 124.322 C 345.181 121.011, 343.622 120.669, 334.500 120.430 C 329 120.286, 323.408 120.397, 322.073 120.676 M 503.839 131.750 C 500.864 135.288, 495.797 147.159, 496.335 149.329 C 496.631 150.523, 497.802 154.640, 498.937 158.478 C 500.596 164.092, 501.016 168.395, 501.080 180.478 C 501.207 204.147, 503.197 208.169, 514.890 208.387 C 519.926 208.481, 521.315 208.122, 523.204 206.236 C 525.992 203.454, 525.185 201.767, 519.090 197.639 C 516.767 196.065, 514.414 193.590, 513.861 192.139 C 513.308 190.685, 513.001 183.664, 513.178 176.500 C 513.495 163.720, 513.563 163.377, 517.250 156.195 C 519.313 152.177, 521 148.023, 521 146.963 C 521 145.903, 519.425 143.415, 517.500 141.432 C 515.575 139.450, 514 137.451, 514 136.991 C 514 135.282, 508.761 130, 507.066 130 C 506.100 130, 504.648 130.787, 503.839 131.750 M 332.110 137.396 C 327.482 139.961, 327.073 142.108, 327.041 164 C 327.025 175.279, 327.481 186.191, 328.055 188.259 C 329.237 192.516, 332.139 194.824, 337.378 195.674 C 340.913 196.247, 347 194.530, 347 192.959 C 347 192.520, 349.298 189.647, 352.107 186.573 C 357.900 180.235, 358.941 177.107, 358.976 165.932 C 359.016 153.252, 355.160 144.520, 346.795 138.348 C 343.154 135.663, 336.067 135.203, 332.110 137.396 M 409.327 145.332 C 407.772 146.614, 404.566 148.734, 402.202 150.043 C 398.448 152.121, 397.328 153.627, 393.340 161.961 C 388.896 171.248, 388.789 171.698, 389.285 179 C 389.840 187.177, 390.860 190.171, 395.415 197 C 399.772 203.531, 401.033 204.681, 406.540 207.151 C 410.495 208.924, 413.223 209.355, 420 209.277 C 432.974 209.128, 440.235 205.776, 437.389 201.250 C 436.497 199.830, 434.163 199.366, 425.030 198.790 C 410.840 197.895, 408.510 196.688, 409.320 190.651 C 410.034 185.327, 413.670 182.006, 418.806 181.985 C 423.767 181.965, 434.940 179.269, 437.785 177.405 C 439.047 176.579, 440.807 174.375, 441.697 172.508 C 443.191 169.376, 443.188 168.598, 441.662 162.415 C 439.700 154.461, 439.043 153.555, 433.453 151.082 C 431.098 150.041, 428.692 148.293, 428.107 147.199 C 425.671 142.648, 413.989 141.486, 409.327 145.332 M 564 144.940 C 559.930 146.191, 551.931 152.057, 550.745 154.660 C 549.858 156.608, 549.973 157.401, 551.341 158.770 C 553.419 160.847, 555.663 159.722, 558.042 155.411 C 559.263 153.199, 560.483 152.428, 563.125 152.201 C 567.993 151.784, 569.740 154.158, 571.126 163.072 C 572.208 170.035, 572.140 170.805, 570.080 174.842 C 567.936 179.046, 567.926 179.230, 569.688 181.673 C 575.561 189.811, 576.281 193.810, 572.545 197.545 C 568.914 201.177, 562.813 200.967, 558.923 197.077 C 557.315 195.469, 556 193.426, 556 192.537 C 556 190.964, 558.776 185.262, 561.244 181.769 C 562.958 179.341, 560.422 177, 555.339 176.319 C 549.966 175.598, 546.019 178.957, 543.488 186.405 L 541.605 191.943 544.485 197.969 C 548.821 207.040, 550.710 208.417, 558.784 208.388 C 562.478 208.375, 567.847 207.751, 570.714 207.002 C 574.906 205.907, 576.946 205.875, 581.114 206.837 C 585.426 207.832, 586.672 207.790, 588.511 206.585 C 590.715 205.141, 590.722 205.046, 590.238 181.318 C 589.927 166.057, 589.353 157.002, 588.641 156.114 C 588.029 155.352, 585.948 153.713, 584.015 152.472 C 582.082 151.231, 579.547 149.304, 578.381 148.191 C 577.216 147.077, 574.516 145.681, 572.381 145.089 C 568.009 143.875, 567.496 143.866, 564 144.940 M 667.427 145.973 C 666.377 147.023, 666.447 182.296, 667.502 184.003 C 670.065 188.151, 671.993 180.384, 671.971 166 C 671.947 151.005, 670.181 143.219, 667.427 145.973 M 411.954 155.556 C 411.244 156.411, 410.471 160.574, 410.237 164.806 C 409.860 171.624, 410.055 172.756, 411.945 174.750 C 414.581 177.530, 418.464 177.624, 422.750 175.011 C 426.807 172.537, 426.999 169.316, 423.553 161.524 C 421.860 157.695, 420.299 155.684, 418.488 154.995 C 414.876 153.622, 413.457 153.744, 411.954 155.556 M 703.666 157.427 C 702.816 159.642, 705.461 161.355, 706.953 159.556 C 707.624 158.748, 707.882 157.618, 707.527 157.044 C 706.595 155.535, 704.305 155.762, 703.666 157.427 M 738.745 173.250 C 738.488 173.938, 738.633 175.400, 739.068 176.500 C 739.713 178.129, 739.872 177.897, 739.930 175.250 C 740.003 171.870, 739.550 171.105, 738.745 173.250 M 619.980 199.038 C 617.492 203.687, 622.217 207.778, 628.265 206.211 C 632.763 205.046, 632.675 203.502, 627.915 200.054 C 622.963 196.466, 621.459 196.274, 619.980 199.038 M 183.500 223.139 C 179.540 223.640, 175.414 224.821, 174 225.858 C 166.823 231.118, 154.670 233.952, 139 234.017 C 129.635 234.057, 124.167 235.295, 116.506 239.112 C 109.338 242.683, 106 246.110, 106 249.901 C 106 253.420, 108.097 255.302, 114.881 257.870 C 117.840 258.991, 122.010 261.064, 124.147 262.478 C 131.336 267.236, 138.448 268.384, 161 268.427 C 182.842 268.469, 190.803 267.278, 197.468 262.970 C 199.135 261.892, 203.875 259.354, 208 257.329 C 212.125 255.305, 217.750 251.572, 220.500 249.034 C 223.250 246.495, 226.547 243.695, 227.826 242.811 C 229.511 241.648, 230.063 240.438, 229.826 238.427 C 229.565 236.207, 228.416 235.091, 224.096 232.864 C 221.123 231.332, 217.523 228.987, 216.096 227.653 C 209.948 221.910, 201.955 220.803, 183.500 223.139" stroke="none" fill="#ffffff" fill-rule="evenodd"/>
</svg>