<svg xmlns="http://www.w3.org/2000/svg" width="1000" height="1000" viewBox="0 0 1000 1000" version="1.1">
	<path d="M 138.478 67.259 L 133.991 71.746 134.038 410.296 L 134.085 748.846 137.272 751.961 C 139.024 753.675, 141.368 755.295, 142.479 755.561 C 143.591 755.828, 150.800 755.923, 158.500 755.773 L 172.500 755.500 174.253 752 C 175.914 748.685, 176.004 731.436, 175.967 426.426 C 175.945 249.286, 176.204 103.633, 176.541 102.754 C 176.879 101.874, 177.828 100.896, 178.651 100.580 C 179.695 100.180, 665.580 99.729, 808.168 99.997 C 809.086 99.999, 810.778 101.522, 811.928 103.383 L 814.018 106.766 814.005 427.762 L 813.991 748.759 817.924 752.313 L 821.858 755.866 837.449 755.853 L 853.040 755.840 854.526 752.284 C 855.832 749.158, 855.981 707.610, 855.756 408.614 C 855.549 133.759, 855.253 68.068, 854.215 66.250 L 852.930 64 499.547 64 C 305.186 64, 145.444 63.724, 144.564 63.386 C 143.501 62.978, 141.460 64.277, 138.478 67.259 M 261.295 178.170 C 260.023 179.731, 261.776 186.114, 263.645 186.723 C 264.274 186.929, 265.397 185.725, 266.139 184.048 C 267.632 180.675, 269.097 180.240, 271.357 182.500 C 273.178 184.321, 276.677 184.470, 277.250 182.750 C 277.579 181.764, 297.573 181.461, 372.083 181.313 C 424.013 181.210, 468.975 180.797, 472 180.395 L 477.500 179.664 473.500 178.861 C 471.300 178.419, 424.050 178.055, 368.500 178.052 C 312.950 178.049, 266.348 177.775, 264.939 177.443 C 263.362 177.071, 261.962 177.350, 261.295 178.170 M 481.622 183.544 C 480.809 185.662, 481.658 185.809, 497.336 186.261 C 505.180 186.488, 511.460 187.102, 511.836 187.681 C 513.312 189.948, 517.089 191.073, 520.764 190.340 C 522.819 189.930, 524.837 189.686, 525.250 189.798 C 525.663 189.909, 526 188.927, 526 187.617 C 526 186.026, 525.251 184.992, 523.750 184.509 C 522.513 184.111, 513.048 183.626, 502.718 183.432 C 492.387 183.237, 483.547 182.838, 483.072 182.545 C 482.598 182.251, 481.945 182.701, 481.622 183.544 M 262.306 191.645 C 261.917 192.660, 262.407 193.827, 263.588 194.695 C 265.257 195.921, 265.543 195.896, 265.835 194.492 C 266.615 190.740, 263.590 188.300, 262.306 191.645 M 537 192.999 C 537 193.884, 546.034 197, 548.598 197 C 549.278 197, 550.060 197.563, 550.338 198.250 C 550.741 199.250, 550.858 199.250, 550.921 198.250 C 550.964 197.563, 551.675 197, 552.500 197 C 554.316 197, 554.492 194.423, 552.750 193.343 C 550.929 192.214, 537 191.910, 537 192.999 M 562 200.129 C 562 200.608, 562.675 201.056, 563.500 201.125 C 571.040 201.753, 574.003 201.476, 573.998 200.143 C 573.996 199.789, 571.296 199.446, 567.998 199.379 C 564.699 199.313, 562 199.650, 562 200.129 M 262.730 201.750 C 262.517 202.162, 262.208 249.975, 262.043 308 C 261.761 407.239, 261.585 424.888, 260.815 431 C 260.464 433.787, 259.868 433.728, 273.422 432.253 C 283.024 431.208, 283.556 429, 274.205 429 C 267.389 429, 267.216 428.936, 265.981 425.955 C 265.096 423.817, 265.018 422.253, 265.719 420.705 C 266.349 419.312, 266.419 414.815, 265.907 408.500 C 265.462 403, 265.075 354.063, 265.049 299.750 C 265.005 210.202, 264.714 197.913, 262.730 201.750 M 580.292 208.388 C 580.493 208.999, 581.696 210.022, 582.964 210.660 C 584.232 211.297, 585.567 212.299, 585.929 212.885 C 587.148 214.857, 595 214.721, 595 212.727 C 595 212.027, 593.505 210.649, 591.677 209.665 C 587.809 207.582, 579.727 206.675, 580.292 208.388 M 601 216.964 C 601 218.118, 601.788 219.306, 602.750 219.604 C 603.712 219.902, 605.306 220.578, 606.291 221.107 C 608.113 222.085, 610 221.550, 610 220.056 C 610 219.021, 606.229 216.519, 603.250 215.577 C 601.405 214.993, 601 215.243, 601 216.964 M 616 225.429 C 616 227.280, 618.733 230, 620.594 230 C 621.392 230, 624.483 232.518, 627.464 235.595 C 632.572 240.869, 635 241.775, 635 238.409 C 635 237.598, 634.014 236.571, 632.808 236.125 C 631.571 235.667, 630.118 233.828, 629.475 231.907 C 628.627 229.374, 627.677 228.421, 625.771 228.194 C 624.361 228.025, 622.416 227.013, 621.449 225.944 C 619.398 223.677, 616 223.356, 616 225.429 M 640.169 239.161 C 640.351 240.447, 641.175 241.500, 642 241.500 C 644.169 241.500, 643.870 237.599, 641.669 237.175 C 640.249 236.901, 639.912 237.347, 640.169 239.161 M 653.250 254.496 C 650.496 257.623, 652.136 260.739, 656.215 260.130 C 658.081 259.851, 662 262.118, 662 263.475 C 662 264.314, 662.450 265, 663 265 C 664.829 265, 664.037 262.818, 660.415 257.884 C 656.663 252.773, 655.324 252.140, 653.250 254.496 M 670.464 267.252 C 669.488 269.768, 670.778 274, 672.519 274 C 674.427 274, 674.459 270.005, 672.571 267.441 C 671.239 265.631, 671.097 265.618, 670.464 267.252 M 676 278.500 C 676 280.010, 676.571 281, 677.441 281 C 679.551 281, 680.354 279.131, 678.964 277.456 C 677.160 275.283, 676 275.691, 676 278.500 M 681.444 285.889 C 680.198 287.136, 681.333 289.121, 684.115 290.559 C 687.938 292.537, 689.485 291.406, 688.065 287.672 C 687.294 285.642, 686.448 285.068, 684.472 285.232 C 683.051 285.349, 681.688 285.645, 681.444 285.889 M 689.573 295.882 C 688.511 297.601, 690.045 303.803, 691.689 304.434 C 694.041 305.337, 695.061 304.108, 694.382 301.189 C 693.591 297.787, 690.502 294.378, 689.573 295.882 M 699.563 311.186 C 698.682 316.468, 700.192 321.445, 702.787 321.820 C 705.331 322.187, 705.437 321.180, 703.654 313.581 C 702.269 307.676, 700.336 306.544, 699.563 311.186 M 704.607 325.582 C 703.039 329.669, 705.043 339, 707.489 339 C 709.706 339, 710.183 334.066, 708.465 328.895 C 706.782 323.828, 705.652 322.858, 704.607 325.582 M 714.142 343.351 C 713.195 347.110, 713.242 348.642, 714.384 351.376 C 715.161 353.235, 716.279 355.054, 716.869 355.419 C 719.585 357.097, 719.366 344.251, 716.615 340.488 C 715.447 338.891, 715.190 339.188, 714.142 343.351 M 720.142 369.417 C 720.403 375.736, 720.905 378.326, 722 379.009 C 723.202 379.758, 723.554 379.305, 723.771 376.722 C 724.229 371.266, 722.608 361.701, 721.142 361.213 C 720.051 360.850, 719.855 362.459, 720.142 369.417 M 728.633 395.750 C 726.639 403.968, 726.614 406.346, 728.471 411.500 C 729.264 413.700, 729.932 417.386, 729.956 419.691 C 729.997 423.614, 731.349 425.984, 732.748 424.586 C 733.086 424.248, 733.296 417.358, 733.214 409.275 C 732.997 387.691, 731.593 383.547, 728.633 395.750 M 320 422.139 C 320 423.457, 320.729 424, 322.500 424 C 323.962 424, 325 423.426, 325 422.617 C 325 421.856, 323.875 421.018, 322.500 420.755 C 320.558 420.384, 320 420.692, 320 422.139 M 361.833 427.951 C 361.650 428.475, 357.256 429.142, 352.068 429.433 C 341.039 430.054, 338.401 431.443, 346.157 432.547 C 352.425 433.439, 367.136 433.409, 370.005 432.498 C 372.896 431.581, 372.453 430.258, 369 429.500 C 367.350 429.138, 366 428.427, 366 427.921 C 366 426.702, 362.261 426.730, 361.833 427.951 M 385 437 C 385 437.550, 385.413 438, 385.918 438 C 386.423 438, 387.548 438.273, 388.418 438.607 C 389.456 439.005, 390 438.662, 390 437.607 C 390 436.560, 389.130 436, 387.500 436 C 386.125 436, 385 436.450, 385 437 M 402 442.892 C 402 443.382, 400.843 444.074, 399.429 444.428 C 395.415 445.436, 397.160 447.468, 402.328 447.805 C 407.455 448.139, 407.860 447.611, 405.056 444.250 C 403.082 441.883, 402 441.402, 402 442.892 M 411 448.845 C 411 451.537, 418.049 456.706, 420.041 455.475 C 421.738 454.426, 421.062 452, 419.073 452 C 418.012 452, 416.260 450.875, 415.179 449.500 C 412.858 446.549, 411 446.258, 411 448.845 M 427 456.450 C 427 457.798, 426.255 459.317, 425.346 459.827 C 422.905 461.192, 424.422 464, 427.599 464 C 430.119 464, 430.229 463.799, 429.642 460.250 C 429.301 458.188, 429.017 455.938, 429.011 455.250 C 429.005 454.563, 428.550 454, 428 454 C 427.450 454, 427 455.103, 427 456.450 M 436.494 462.020 C 435.678 464.591, 436.357 465.461, 438.531 464.627 C 440.314 463.942, 440.176 460.891, 438.335 460.278 C 437.694 460.064, 436.865 460.849, 436.494 462.020 M 432.465 467.057 C 431.465 468.674, 432.914 473.195, 434.287 472.744 C 436.165 472.128, 436.470 466, 434.622 466 C 433.795 466, 432.824 466.476, 432.465 467.057 M 438.154 476.438 C 438.345 477.355, 438.950 478.082, 439.500 478.053 C 440.984 477.974, 440.712 475.737, 439.154 475.218 C 438.313 474.938, 437.939 475.395, 438.154 476.438 M 446.667 481.667 C 445.294 483.039, 446.080 488.619, 448.115 491.958 C 450.119 495.244, 450.292 495.321, 451.612 493.517 C 453.421 491.042, 453.372 487.620, 451.474 483.950 C 450.019 481.135, 448.106 480.227, 446.667 481.667 M 731.249 495.845 C 728.837 497.338, 727.692 535.767, 729.936 539.910 C 732.432 544.517, 733.044 539.581, 732.769 517.090 C 732.557 499.770, 732.233 495.237, 731.249 495.845 M 459.232 507 C 459.232 508.925, 459.438 509.712, 459.689 508.750 C 459.941 507.788, 459.941 506.212, 459.689 505.250 C 459.438 504.288, 459.232 505.075, 459.232 507 M 288.750 507.716 C 285.710 508.177, 284.992 509.918, 287.750 510.142 C 293.049 510.571, 304 509.034, 304 507.861 C 304 507.008, 294.047 506.914, 288.750 507.716 M 312 508.500 C 312 509.548, 313.056 510, 315.500 510 C 317.944 510, 319 509.548, 319 508.500 C 319 507.452, 317.944 507, 315.500 507 C 313.056 507, 312 507.452, 312 508.500 M 329.446 508.087 C 328.379 509.814, 330.219 510.931, 335.276 511.624 C 338.534 512.071, 340.463 511.860, 341.576 510.937 C 343.041 509.721, 343.026 509.492, 341.399 508.303 C 339.243 506.726, 330.386 506.567, 329.446 508.087 M 276.250 508.662 C 275.563 508.940, 275 509.804, 275 510.583 C 275 512.295, 278.744 512.444, 282.685 510.890 C 285.301 509.858, 285.358 509.722, 283.500 508.960 C 281.248 508.037, 278.118 507.909, 276.250 508.662 M 268.365 514.218 C 267.258 516.010, 266.913 535.969, 267.955 537.917 C 268.446 538.833, 271.131 540.168, 273.924 540.884 C 277.797 541.876, 279 542.637, 279 544.092 C 279 545.142, 279.450 546, 280 546 C 280.550 546, 281 544.728, 281 543.174 C 281 540.296, 278.470 537.266, 274.250 535.090 C 272.680 534.280, 272 533.030, 272 530.951 C 272 529.313, 271.503 527.178, 270.896 526.205 C 270.069 524.881, 270.174 523.152, 271.317 519.306 C 272.155 516.483, 272.576 513.910, 272.254 513.587 C 271.261 512.594, 269.158 512.936, 268.365 514.218 M 348.250 516.496 C 346.809 518.133, 346.603 520, 347.864 520 C 348.339 520, 349.914 521.186, 351.364 522.636 C 353.333 524.606, 354.011 526.313, 354.045 529.386 C 354.070 531.649, 354.664 534.845, 355.364 536.488 L 356.638 539.476 357.819 536.089 C 358.469 534.226, 359 530.717, 359 528.291 C 359 524.667, 358.338 523.089, 355.288 519.440 C 351.331 514.707, 350.231 514.246, 348.250 516.496 M 337 517.500 C 337 518.325, 337.450 519, 338 519 C 338.550 519, 339 518.325, 339 517.500 C 339 516.675, 338.550 516, 338 516 C 337.450 516, 337 516.675, 337 517.500 M 463.204 528.750 C 463.432 533.952, 463.844 535.500, 465 535.500 C 466.142 535.500, 466.450 534.426, 466.291 531 C 466.016 525.104, 465.204 522, 463.935 522 C 463.305 522, 463.023 524.608, 463.204 528.750 M 475.446 527.087 C 474.501 528.616, 476.552 530.386, 478.433 529.664 C 479.295 529.333, 480 528.374, 480 527.531 C 480 525.784, 476.465 525.439, 475.446 527.087 M 291.683 547.897 C 292.644 551.569, 295.879 553, 303.223 553 C 310.418 553, 311.909 551.796, 307.250 549.749 C 305.738 549.084, 304.226 548.157, 303.890 547.688 C 303.555 547.219, 300.544 546.588, 297.199 546.284 C 291.339 545.753, 291.138 545.812, 291.683 547.897 M 381.222 549.166 C 381.739 550.716, 384.881 550.976, 385.250 549.500 C 385.387 548.950, 384.437 548.350, 383.139 548.166 C 381.520 547.937, 380.917 548.251, 381.222 549.166 M 371.500 550 C 371.840 550.550, 372.541 551, 373.059 551 C 373.577 551, 374 550.550, 374 550 C 374 549.450, 373.298 549, 372.441 549 C 371.584 549, 371.160 549.450, 371.500 550 M 720.833 550.250 C 720.742 550.938, 720.554 553.300, 720.417 555.500 C 720.279 557.700, 719.861 560.909, 719.487 562.632 C 719.052 564.638, 719.233 566.026, 719.991 566.494 C 722.277 567.907, 723.444 564.882, 723.660 556.979 C 723.835 550.602, 723.590 549, 722.439 549 C 721.648 549, 720.925 549.563, 720.833 550.250 M 395.750 551.082 C 393.056 552.648, 393.670 554, 397.073 554 C 399.405 554, 400.069 553.598, 399.823 552.333 C 399.414 550.221, 397.985 549.782, 395.750 551.082 M 441 555 C 441 555.550, 441.675 556, 442.500 556 C 443.325 556, 444 555.550, 444 555 C 444 554.450, 443.325 554, 442.500 554 C 441.675 554, 441 554.450, 441 555 M 356.166 564.071 C 350.047 566.500, 357.714 569.347, 367.750 568.373 C 376.963 567.480, 376.182 566.136, 365.500 564.504 C 363.300 564.168, 360.825 563.725, 360 563.519 C 359.175 563.314, 357.450 563.562, 356.166 564.071 M 714.493 579.087 C 714.031 584.929, 714.140 588.540, 714.800 589.200 C 717.077 591.477, 718 588.662, 718 579.441 C 718 572.035, 717.700 570, 716.606 570 C 715.569 570, 715.028 572.328, 714.493 579.087 M 396 572.500 C 396 573.325, 396.675 574, 397.500 574 C 398.325 574, 399 573.325, 399 572.500 C 399 571.675, 398.325 571, 397.500 571 C 396.675 571, 396 571.675, 396 572.500 M 404.122 579.904 C 401.118 581.806, 404.186 583.120, 410.631 582.691 C 418.057 582.197, 419.390 581.479, 415.574 580.028 C 412.286 578.778, 406.006 578.710, 404.122 579.904 M 426.459 587.067 C 426.096 587.653, 425.957 588.239, 426.150 588.369 C 432.712 592.794, 434 592.898, 434 589 C 434 586.248, 433.716 586, 430.559 586 C 428.666 586, 426.821 586.480, 426.459 587.067 M 433 595.477 C 433 597.405, 437.400 600.262, 439.689 599.821 C 440.673 599.632, 441.622 598.723, 441.800 597.802 C 442.031 596.603, 441.041 595.828, 438.311 595.069 C 433.358 593.694, 433 593.722, 433 595.477 M 702 599 C 702 600.100, 702.450 601, 703 601 C 704.830 601, 704.032 603.877, 701.500 606.409 C 700.125 607.784, 699 609.605, 699 610.455 C 699 611.305, 698.550 612, 698 612 C 697.450 612, 697 613.145, 697 614.545 C 697 615.958, 695.835 618.256, 694.383 619.708 C 692.002 622.089, 689.701 630, 691.390 630 C 691.749 630, 694.458 627.585, 697.409 624.634 C 702.043 620, 702.870 618.579, 703.471 614.214 C 703.884 611.209, 704.943 608.457, 706.083 607.425 C 707.975 605.713, 708.575 601.662, 707.393 598.582 C 706.470 596.178, 702 596.524, 702 599 M 446 601.973 C 446 604.877, 449.036 610, 450.757 610 C 451.780 610, 453.939 611.758, 455.555 613.907 C 458.952 618.422, 460 618.290, 460 613.347 C 460 610.654, 459.524 609.688, 458 609.290 C 456.900 609.002, 456 608.369, 456 607.883 C 456 607.398, 455.133 607, 454.073 607 C 453.012 607, 451.325 605.966, 450.323 604.703 C 448.037 601.822, 446 600.536, 446 601.973 M 461.508 624.157 C 462.772 631.828, 465.508 636.935, 468.380 636.985 C 469.767 637.009, 468.473 628.908, 466.388 624.513 C 465.348 622.321, 463.663 620.366, 462.645 620.170 C 460.987 619.851, 460.868 620.270, 461.508 624.157 M 261.033 634.939 C 260.308 636.293, 260.337 638.473, 261.128 642.160 C 261.862 645.582, 262.094 654.654, 261.788 667.924 C 261.316 688.364, 261.320 688.410, 263.657 690.748 C 264.946 692.037, 266 694.155, 266 695.457 C 266 699.772, 273.606 704.617, 279.148 703.833 C 283.281 703.248, 281.903 700.593, 277 699.695 C 273.139 698.988, 272.248 698.348, 270.726 695.186 C 269.751 693.159, 268.251 690.235, 267.393 688.689 C 264.198 682.933, 264.407 643.736, 267.650 640.493 C 268.910 639.233, 268.809 638.661, 266.860 636.024 C 264.275 632.528, 262.500 632.197, 261.033 634.939 M 272.250 637.706 C 271.012 637.944, 270 638.569, 270 639.094 C 270 640.532, 274.466 641.940, 277.143 641.346 C 282.381 640.183, 282.641 639.961, 280.559 638.429 C 278.648 637.022, 276.686 636.851, 272.250 637.706 M 685.036 639.433 C 683.669 641.986, 684.192 645, 686.001 645 C 687.405 645, 688.825 641.048, 688.234 638.787 C 687.594 636.341, 686.581 636.546, 685.036 639.433 M 295.653 642.934 C 293.898 643.562, 293.893 643.666, 295.560 645.047 C 297.722 646.838, 315.371 647.029, 317.120 645.280 C 317.948 644.452, 317.099 643.997, 313.871 643.539 C 306.747 642.528, 297.634 642.226, 295.653 642.934 M 656.014 643.250 C 656.040 645.699, 657.248 649, 658.117 649 C 658.602 649, 659 647.425, 659 645.500 C 659 643.056, 658.548 642, 657.500 642 C 656.675 642, 656.006 642.563, 656.014 643.250 M 670.515 649.976 C 670.183 650.513, 669.651 653.152, 669.332 655.841 C 668.762 660.661, 669.574 662.522, 671.663 661.184 C 673.447 660.041, 677.176 651.901, 676.601 650.403 C 675.990 648.811, 671.432 648.492, 670.515 649.976 M 473.159 656.061 C 471.172 665.607, 470.680 673.909, 471.476 684.517 C 471.986 691.320, 472.558 694, 473.500 694 C 475.749 694, 476.916 671.393, 475.381 657.561 L 474.500 649.621 473.159 656.061 M 324.998 653.750 C 324.999 654.438, 325.563 655.046, 326.250 655.101 C 331.018 655.488, 334.885 655.933, 337.250 656.365 C 340.158 656.897, 340.834 655.930, 338.750 654.218 C 336.810 652.624, 324.996 652.222, 324.998 653.750 M 342 657.974 C 342 658.831, 346.587 661, 348.399 661 C 349.116 661, 351.116 662.350, 352.843 664 C 356.171 667.181, 358.009 667.806, 357.986 665.750 C 357.950 662.464, 356.572 660.068, 354.155 659.090 C 350.970 657.802, 342 656.978, 342 657.974 M 661.987 665.032 C 661.296 666.700, 661.038 668.371, 661.413 668.747 C 662.654 669.988, 665.494 667.344, 665.816 664.649 C 666.261 660.924, 663.577 661.192, 661.987 665.032 M 360 672.531 C 360 676.612, 362.287 678.142, 364.732 675.697 C 366.168 674.261, 366.159 673.891, 364.631 671.560 C 362.160 667.789, 360 668.242, 360 672.531 M 653.250 671.662 C 651.480 672.377, 651.697 673.329, 653.951 674.737 C 655.537 675.728, 656.191 675.666, 657.451 674.406 C 658.303 673.554, 659 672.439, 659 671.929 C 659 670.959, 655.406 670.792, 653.250 671.662 M 361 684.741 C 361 687.019, 361.450 689.160, 362 689.500 C 363.651 690.521, 363.573 683.275, 361.914 681.550 C 361.356 680.971, 361 682.215, 361 684.741 M 277 683 C 277 683.550, 277.450 684, 278 684 C 278.550 684, 279 683.550, 279 683 C 279 682.450, 278.550 682, 278 682 C 277.450 682, 277 682.450, 277 683 M 639.380 686.452 C 638.673 688.295, 639.703 690, 641.524 690 C 643.110 690, 645.268 686.601, 644.298 685.631 C 643.125 684.458, 639.941 684.990, 639.380 686.452 M 340.250 686.662 C 339.563 686.940, 339 687.852, 339 688.690 C 339 689.669, 339.566 689.997, 340.582 689.607 C 341.452 689.273, 342.577 689, 343.082 689 C 343.587 689, 344 688.325, 344 687.500 C 344 686.007, 342.632 685.701, 340.250 686.662 M 353.262 695.744 C 351.480 696.628, 349.763 698.173, 349.444 699.176 C 349.126 700.179, 348.356 701, 347.733 701 C 346.993 701, 346.940 701.340, 347.580 701.980 C 348.664 703.064, 355.579 701.543, 357.798 699.734 C 359.253 698.548, 359.043 694.798, 357.500 694.396 C 356.950 694.253, 355.043 694.859, 353.262 695.744 M 621.417 696.075 C 618.358 696.964, 615.398 701.217, 616.546 703.075 C 617.714 704.964, 622.734 703.906, 626.803 700.913 C 631.352 697.568, 631.857 696.543, 629.418 695.607 C 627.397 694.831, 625.274 694.956, 621.417 696.075 M 463.625 702.735 C 463.340 703.706, 462.576 708.245, 461.927 712.823 C 460.893 720.127, 460.458 721.255, 458.374 722.048 C 455.615 723.097, 455.282 724.787, 457.656 725.698 C 458.679 726.091, 459.921 725.582, 460.906 724.368 C 461.783 723.287, 463.222 722.126, 464.105 721.788 C 466.168 720.999, 466.980 715.873, 466.275 708.098 C 465.708 701.847, 464.566 699.535, 463.625 702.735 M 607.250 705.794 C 604.900 706.035, 604 706.629, 604 707.941 C 604 712.632, 610.867 713.377, 612.078 708.817 C 612.887 705.772, 612.125 705.295, 607.250 705.794 M 315.001 707.750 C 315.003 709.283, 313.920 709.500, 306.251 709.500 C 292.778 709.500, 294.942 711.453, 308.763 711.767 C 315.218 711.913, 321.873 712.108, 323.551 712.200 C 327.384 712.409, 330.320 711.327, 329.504 710.007 C 329.162 709.453, 327.301 709, 325.370 709 C 323.438 709, 321.182 708.325, 320.357 707.500 C 318.279 705.422, 315 705.575, 315.001 707.750 M 593.079 714.882 C 591.198 715.222, 589.473 716.063, 589.246 716.750 C 588.713 718.364, 598.576 718.496, 599.569 716.888 C 600.183 715.895, 598.268 713.852, 597 714.147 C 596.725 714.211, 594.961 714.542, 593.079 714.882 M 562 723 C 562 723.550, 562.450 724, 563 724 C 563.550 724, 564 723.550, 564 723 C 564 722.450, 563.550 722, 563 722 C 562.450 722, 562 722.450, 562 723 M 572.080 725.070 C 568.466 726.550, 570.876 728.189, 576.114 727.814 C 579.206 727.593, 580.500 727.058, 580.500 726 C 580.500 724.180, 575.582 723.637, 572.080 725.070 M 552 726 C 552 726.550, 551.531 727, 550.958 727 C 548.933 727, 545.732 730.860, 546.373 732.529 C 546.915 733.942, 548.081 734.074, 554.751 733.475 C 564.281 732.619, 565.818 731.479, 559.661 729.832 C 556.310 728.936, 555 728.081, 555 726.793 C 555 725.807, 554.325 725, 553.500 725 C 552.675 725, 552 725.450, 552 726 M 451 732.288 C 449.087 733.251, 448.425 734.465, 448.178 737.462 L 447.857 741.379 452.010 737.226 C 454.294 734.941, 455.875 732.606, 455.522 732.036 C 454.704 730.712, 454.061 730.747, 451 732.288 M 513.104 736.914 C 510.710 738.431, 512.597 740.948, 515.953 740.713 C 518.378 740.543, 518.996 740.043, 518.998 738.250 C 518.999 736.578, 518.422 736.004, 516.750 736.015 C 515.513 736.024, 513.872 736.428, 513.104 736.914 M 531.732 738 C 530.443 739.506, 528.782 740, 525.010 740 C 520.009 740, 518.319 741.332, 521.883 742.463 C 524.329 743.239, 533.226 741.242, 534.209 739.695 C 535.203 738.133, 535.210 736, 534.222 736 C 533.794 736, 532.674 736.900, 531.732 738 M 462 742.500 C 462 744.886, 461.729 745, 456.059 745 C 452.791 745, 449.848 745.437, 449.518 745.971 C 448.470 747.666, 453.915 748.284, 458.528 746.992 C 461.849 746.062, 463.675 746.027, 465.738 746.852 C 468.997 748.156, 490.065 747.622, 492.660 746.170 C 494.481 745.151, 485.300 744.205, 473.874 744.234 C 469.460 744.245, 467.791 743.791, 466.124 742.124 C 463.320 739.320, 462 739.441, 462 742.500 M 502.500 742 C 502.840 742.550, 503.541 743, 504.059 743 C 504.577 743, 505 742.550, 505 742 C 505 741.450, 504.298 741, 503.441 741 C 502.584 741, 502.160 741.450, 502.500 742 M 440.045 744.624 C 438.144 745.974, 436.382 747.285, 436.128 747.539 C 435.279 748.387, 444.481 747.981, 445.857 747.110 C 447.458 746.095, 446.491 741.955, 444.683 742.086 C 444.032 742.133, 441.945 743.275, 440.045 744.624 M 226 834.014 C 222.975 834.428, 219.150 835.296, 217.500 835.944 C 214.396 837.164, 208.494 842.293, 206.960 845.105 C 205.042 848.621, 203.859 860.752, 204.532 869.993 L 205.223 879.486 209.862 883.790 C 212.413 886.157, 216.202 889.683, 218.282 891.626 L 222.065 895.158 234.985 894.829 L 247.905 894.500 251.216 891 C 253.037 889.075, 256.817 885.443, 259.616 882.928 C 264.628 878.427, 264.717 878.244, 265.423 871.086 C 266.210 863.095, 265.341 851.630, 263.711 848.500 C 261.736 844.706, 254.536 837.051, 252.022 836.070 C 245.131 833.382, 235.936 832.656, 226 834.014 M 301.500 833.407 C 300.950 833.612, 297.867 834.321, 294.648 834.984 C 288.576 836.234, 281 841.617, 281 844.681 C 281 846.003, 279.637 849.688, 275.207 860.348 C 273.687 864.007, 273.713 864.401, 275.749 868.348 C 276.927 870.632, 278.375 874.300, 278.966 876.500 C 280.534 882.330, 281.984 884.468, 286.886 888.179 C 296.533 895.485, 295.276 895.123, 309.892 894.798 C 321.925 894.530, 323.396 894.303, 324.392 892.559 C 325.001 891.491, 326.502 889.569, 327.727 888.287 C 331.327 884.518, 331.883 882.758, 332.133 874.328 C 332.335 867.508, 332.052 865.882, 330.217 863.305 C 328.242 860.531, 327.431 860.224, 320.374 859.585 C 314.118 859.018, 312.396 859.175, 311.143 860.428 C 308.402 863.169, 310.742 867.137, 316.806 870.030 C 325.427 874.142, 326.436 877.926, 319.750 881.070 C 317.413 882.169, 314.375 883.721, 313 884.519 C 309.034 886.822, 304.834 886.272, 298.847 882.667 C 295.803 880.834, 292.546 879.040, 291.611 878.681 C 288.942 877.657, 286.707 871.108, 286.599 864 C 286.468 855.388, 287.442 852.340, 290.894 850.555 C 292.470 849.740, 294.664 847.539, 295.770 845.665 C 297.632 842.509, 298.257 842.206, 304.203 841.569 C 309.497 841.002, 311.571 841.254, 316.018 843.007 C 322.204 845.445, 325.241 844.760, 327.188 840.488 C 328.631 837.320, 327.618 836.157, 322.372 834.962 C 317.969 833.959, 303.012 832.845, 301.500 833.407 M 356.118 834.546 C 348.355 836.227, 346.955 837.408, 344.637 844.228 L 342.828 849.550 345.500 856.223 C 348.046 862.583, 348.390 862.966, 352.836 864.379 C 355.401 865.195, 359.525 866.168, 362 866.542 C 367.654 867.396, 374.528 871.649, 376.065 875.244 C 377.027 877.495, 376.945 878.435, 375.609 880.473 C 371.765 886.341, 363.186 887.415, 356.957 882.810 C 355.362 881.631, 352.799 880.667, 351.261 880.667 C 346.936 880.667, 342.999 881.909, 343.011 883.269 C 343.026 885.062, 350.898 893.011, 353.720 894.084 C 355.046 894.588, 360.488 894.999, 365.815 894.998 C 378.823 894.996, 381.400 893.689, 385.846 884.838 C 388.968 878.624, 389.111 877.917, 387.969 874.338 C 385.618 866.971, 385.011 865.963, 382.265 864.878 C 379.009 863.593, 378.151 863.115, 374.642 860.636 C 373.191 859.611, 368.965 858.036, 365.252 857.136 C 359.047 855.633, 358.350 855.193, 356.647 851.706 C 355.090 848.520, 354.986 847.449, 355.993 845.016 C 357.047 842.472, 357.858 842.037, 362.655 841.437 C 366.869 840.911, 369.474 841.218, 374.048 842.780 C 379.957 844.797, 379.988 844.797, 382.489 842.830 C 385.429 840.517, 385.752 837.473, 383.201 836.108 C 382.212 835.578, 378.499 834.866, 374.951 834.525 C 371.403 834.184, 367.150 833.738, 365.500 833.534 C 363.850 833.330, 359.628 833.785, 356.118 834.546 M 436 833.936 C 426.935 835.765, 422.010 841.136, 422.004 849.200 C 422.001 853.065, 422.665 854.799, 425.750 858.969 C 429.676 864.277, 431.414 865.119, 441.243 866.469 C 444.766 866.953, 446.947 868.028, 449.730 870.652 C 451.789 872.594, 454.268 874.608, 455.237 875.127 C 457.947 876.577, 457.332 878.160, 452.424 882.357 C 448.159 886.005, 447.659 886.176, 443.207 885.518 C 440.618 885.135, 437.745 884.147, 436.823 883.322 C 433.096 879.989, 422.767 879.560, 421.566 882.689 C 421.224 883.580, 422.934 886.176, 425.938 889.326 L 430.872 894.500 444.044 894.500 L 457.216 894.500 460.199 891 C 465.613 884.647, 466.163 883.349, 466.133 877.003 C 466.117 873.648, 465.834 870.052, 465.504 869.012 C 464.721 866.545, 451.120 859.130, 443.643 857.095 C 438.704 855.750, 437.455 854.930, 435.680 851.864 C 433.914 848.811, 433.763 847.816, 434.742 845.668 C 436.429 841.965, 442.771 840.206, 448.335 841.899 C 456.139 844.273, 458.337 844.297, 460.750 842.033 C 463.222 839.714, 463.642 837.515, 461.826 836.393 C 460.341 835.475, 445.330 833.008, 442 833.135 C 440.625 833.187, 437.925 833.548, 436 833.936 M 555.500 833.915 C 549.816 835.025, 542.583 837.752, 542.189 838.932 C 542.006 839.483, 540.684 841.636, 539.252 843.717 C 535.259 849.519, 534.088 853.778, 534.087 862.500 C 534.087 872.854, 535.226 878.514, 537.866 881.276 C 551.079 895.105, 549.886 894.461, 562.972 894.830 C 571.789 895.079, 575.579 894.785, 578.319 893.640 C 584.402 891.099, 588.465 881.917, 584.117 880.537 C 581.385 879.670, 573.136 881.748, 570.229 884.035 C 566.724 886.792, 563.475 886.496, 556.108 882.750 C 551.099 880.204, 549.403 878.742, 548.273 876 C 547.480 874.075, 545.857 871.737, 544.666 870.804 C 542.887 869.412, 542.522 868.145, 542.624 863.723 C 542.766 857.575, 543.888 855.049, 548.700 850.047 C 550.577 848.096, 553.014 845.529, 554.115 844.341 C 558.427 839.691, 573.918 840.996, 580.026 846.523 C 582.451 848.718, 583.431 847.919, 584.877 842.566 C 586.163 837.809, 585.281 836.413, 580.134 835.058 C 574.905 833.683, 560.185 833, 555.500 833.915 M 728.612 835.617 C 725.675 837.614, 724.951 838.669, 725.370 840.344 C 725.667 841.530, 725.983 853.895, 726.071 867.821 L 726.231 893.142 729.567 894.734 C 735.932 897.768, 736 897.453, 736 865.033 C 736 838.628, 735.855 836.178, 734.197 834.679 C 732.520 833.160, 732.133 833.225, 728.612 835.617 M 140.063 835.750 C 137.932 837.477, 137.908 837.861, 138.202 864.832 C 138.485 890.822, 138.598 892.236, 140.500 893.639 C 142.102 894.821, 145.490 895.054, 157.531 894.807 L 172.563 894.500 181.191 887.150 C 185.936 883.108, 190.078 878.833, 190.394 877.650 C 190.711 876.468, 191.258 871.450, 191.611 866.500 C 192.370 855.839, 190.298 845.458, 186.920 843 C 185.786 842.175, 183.332 840.231, 181.466 838.679 C 177.308 835.221, 170.364 834.049, 153.861 834.020 C 144.245 834.003, 141.846 834.304, 140.063 835.750 M 480.168 835.573 L 477.835 837.229 478.168 864.696 C 478.480 890.522, 478.616 892.248, 480.441 893.582 C 483.365 895.718, 522.216 895.650, 523.996 893.505 C 524.995 892.301, 524.922 891.529, 523.618 889.540 C 521.006 885.553, 518.509 884.858, 505.877 884.601 C 490.783 884.294, 489.525 883.401, 489.885 873.250 C 490.098 867.224, 492.577 866, 504.566 866 C 515.264 866, 519 865.094, 519 862.500 C 519 859.742, 514.675 858.560, 504.301 858.481 C 492.089 858.387, 490 857.231, 490 850.568 C 490 842.774, 491.037 842.240, 506.955 841.846 C 518.629 841.557, 521.219 841.212, 522.680 839.750 C 524.344 838.084, 524.344 837.916, 522.681 836.250 C 521.160 834.727, 518.440 834.462, 501.717 834.208 C 485.124 833.956, 482.181 834.142, 480.168 835.573 M 640.998 835.503 C 640.107 836.577, 639.771 841.648, 639.825 853.253 C 639.925 875.106, 639.418 878.042, 635.181 880.157 C 633.355 881.069, 631.070 882.532, 630.102 883.407 C 627.462 885.797, 619.879 885.502, 616.903 882.894 C 615.581 881.736, 613.554 880.422, 612.397 879.975 C 609.600 878.893, 609 874.123, 609 852.967 C 609 834.552, 609.159 835, 602.618 835 C 597.316 835, 597 835.972, 597 852.257 C 597 873.677, 599.103 882.101, 606.282 889.445 L 611.116 894.390 620.014 894.815 C 632.242 895.400, 637.450 894.482, 640.623 891.186 C 646.944 884.620, 650.680 870.011, 651.028 850.500 C 651.284 836.146, 651.508 837.110, 647.532 835.449 C 643.193 833.636, 642.542 833.642, 640.998 835.503 M 666.500 834.724 C 662.035 835.821, 662 836.040, 662 862.557 C 662 876.479, 662.434 889.012, 662.965 890.407 C 664.014 893.166, 667.612 894.565, 671.287 893.643 C 673.354 893.124, 673.676 892.194, 674.629 883.993 C 675.208 879.001, 676.188 874.412, 676.805 873.795 C 677.945 872.655, 683.819 872.490, 687.024 873.508 C 687.993 873.815, 689.343 875.413, 690.025 877.059 C 690.706 878.705, 692.567 880.980, 694.160 882.114 C 695.752 883.248, 698.145 886.325, 699.476 888.952 C 702.006 893.945, 705.129 895.563, 709.851 894.329 C 712.849 893.545, 712.579 892.158, 707.950 884.538 C 704.384 878.669, 703.936 877.253, 704.200 872.700 C 704.465 868.132, 704.869 867.295, 707.671 865.515 C 718.350 858.731, 714.139 837.888, 701.500 834.971 C 697.413 834.028, 670.117 833.835, 666.500 834.724 M 749.414 836.095 C 747.545 838.160, 747.551 838.218, 749.869 840.095 C 751.517 841.429, 753.799 842, 757.488 842 C 761.164 842, 763.170 842.499, 764.128 843.651 C 765.184 844.922, 765.573 850.736, 765.819 868.881 C 766.023 883.978, 766.530 892.933, 767.228 893.775 C 767.942 894.635, 769.386 894.866, 771.409 894.444 C 777.398 893.194, 777.454 892.976, 778 868.715 C 778.593 842.383, 778.716 842, 786.630 842 C 793.244 842, 796.876 839.505, 795.098 836.183 C 793.953 834.044, 793.502 834, 772.620 834 C 752.257 834, 751.226 834.093, 749.414 836.095 M 804.571 835.571 C 802.388 837.755, 802.581 838.714, 805.830 841.806 C 807.387 843.288, 809.447 846.632, 810.408 849.237 C 811.427 851.999, 813.374 854.842, 815.078 856.055 C 816.685 857.200, 818 858.765, 818 859.533 C 818 860.302, 819.462 862.595, 821.250 864.630 C 824.452 868.276, 824.507 868.507, 825 880.415 C 825.622 895.459, 826.715 897.481, 831.939 893.250 C 834.099 891.500, 834.535 888.488, 834.910 872.702 C 834.974 870.013, 835.729 868.229, 837.497 866.590 C 838.871 865.317, 840.278 862.751, 840.625 860.888 C 840.976 858.996, 842.900 855.733, 844.980 853.500 C 850.720 847.336, 856 839.899, 856 837.979 C 856 834.593, 853.444 833.620, 848.243 835.027 C 841.912 836.740, 841.330 837.312, 840.537 842.604 C 840.162 845.101, 839.101 847.794, 838.178 848.589 C 837.255 849.384, 834.758 851.471, 832.629 853.227 L 828.758 856.420 826.922 853.960 C 825.912 852.607, 824.253 850.375, 823.235 849 C 822.218 847.625, 820.130 844.322, 818.597 841.659 C 814.783 835.036, 808.035 832.107, 804.571 835.571 M 230.500 841.674 C 224.333 842.444, 222.996 843.108, 221.400 846.193 C 220.500 847.933, 218.242 850.792, 216.382 852.546 C 213.214 855.535, 213 856.147, 213 862.233 C 213 867.043, 213.483 869.349, 214.859 871.115 C 215.881 872.427, 217.468 874.963, 218.385 876.752 C 219.630 879.179, 221.731 880.765, 226.665 883.002 C 234.462 886.538, 236.250 886.670, 240.011 883.992 C 241.563 882.887, 244.209 881.708, 245.893 881.371 C 249.464 880.657, 250.462 879.601, 251.440 875.500 C 251.834 873.850, 252.892 871.683, 253.792 870.684 C 254.871 869.488, 255.429 867.072, 255.429 863.599 C 255.429 859.162, 254.751 857.208, 251.141 851.234 C 247.359 844.974, 246.312 843.954, 242.249 842.569 C 237.717 841.025, 236.466 840.930, 230.500 841.674 M 150.898 844.289 L 147.500 846.577 147.226 863.290 L 146.952 880.004 152.726 882.592 C 158.346 885.111, 158.633 885.139, 163.500 883.632 C 166.250 882.780, 170.204 881.574, 172.287 880.952 C 175.334 880.042, 176.481 878.956, 178.153 875.397 C 179.297 872.965, 180.630 870.729, 181.116 870.428 C 181.602 870.128, 182 866.785, 182 862.999 C 182 856.169, 181.961 856.072, 176.965 850.308 C 171.280 843.749, 167.947 842.138, 159.898 842.056 C 155.652 842.014, 153.473 842.554, 150.898 844.289 M 676.413 844.492 C 675.166 846.396, 674.870 848.746, 675.158 854.460 C 675.366 858.571, 676.051 862.451, 676.682 863.082 C 677.942 864.342, 691.181 864.732, 694.673 863.611 C 695.869 863.228, 698.308 860.636, 700.095 857.853 L 703.342 852.791 701.425 849.231 C 698.443 843.694, 694.792 842.008, 685.773 842.004 C 678.639 842, 677.921 842.191, 676.413 844.492" stroke="none" fill="#ffffff" fill-rule="evenodd"/>
</svg>