<svg xmlns="http://www.w3.org/2000/svg" width="1000" height="601" viewBox="0 0 1000 601" version="1.1">
	<path d="M 251 36.941 C 251 37.459, 251.450 38.160, 252 38.500 C 252.550 38.840, 253 38.416, 253 37.559 C 253 36.702, 252.550 36, 252 36 C 251.450 36, 251 36.423, 251 36.941 M 233.250 41.689 C 234.213 41.941, 235.787 41.941, 236.750 41.689 C 237.713 41.438, 236.925 41.232, 235 41.232 C 233.075 41.232, 232.287 41.438, 233.250 41.689 M 205 52.500 C 205 53.333, 205.889 54, 207 54 C 208.111 54, 209 53.333, 209 52.500 C 209 51.667, 208.111 51, 207 51 C 205.889 51, 205 51.667, 205 52.500 M 261.177 52.553 C 261.629 54.725, 263.404 54.858, 263.810 52.750 C 264.020 51.655, 263.530 51, 262.500 51 C 261.539 51, 260.988 51.647, 261.177 52.553 M 199 57.573 C 199 58.505, 199.680 59.015, 200.667 58.823 C 203.176 58.337, 203.520 56, 201.083 56 C 199.855 56, 199 56.646, 199 57.573 M 225.204 60.254 C 224.632 60.944, 224.014 63.081, 223.832 65.004 C 223.535 68.134, 223.160 68.533, 220.253 68.813 C 217.647 69.064, 216.896 69.657, 216.447 71.813 C 216.140 73.291, 215.013 76.425, 213.944 78.777 C 212.875 81.129, 212 83.944, 212 85.033 C 212 86.122, 210.875 87.991, 209.500 89.187 C 208.125 90.382, 207 91.899, 207 92.558 C 207 93.216, 206.350 94.295, 205.556 94.954 C 204.399 95.914, 203.757 95.739, 202.333 94.076 C 200.387 91.803, 198 91.312, 198 93.184 C 198 93.836, 198.926 96.281, 200.057 98.619 C 201.854 102.331, 202.027 103.950, 201.422 111.408 C 200.816 118.879, 200.433 120.141, 198.365 121.497 C 196.695 122.591, 195.996 123.994, 195.985 126.273 C 195.971 129.249, 194.511 133.064, 193.804 131.971 C 193.637 131.712, 192.665 129.856, 191.644 127.846 C 189.818 124.251, 186.368 122.538, 183.313 123.710 C 181.639 124.353, 181.616 126.659, 183.274 127.700 C 183.975 128.140, 185.335 129.738, 186.297 131.250 C 187.259 132.762, 188.663 134, 189.416 134 C 191.943 134, 193.022 140.578, 190.851 142.749 C 188.901 144.699, 184.246 141.549, 183.135 137.527 C 182.608 135.619, 181.254 132.761, 180.126 131.177 C 176.151 125.595, 174.824 112.916, 176.868 100.043 C 177.519 95.942, 178.423 92.342, 178.876 92.043 C 181.421 90.367, 183.220 82, 181.035 82 C 179.629 82, 178 85.467, 178 88.459 C 178 90.262, 177.282 91.323, 175.637 91.948 C 174.337 92.442, 172.993 93.894, 172.650 95.173 C 171.718 98.654, 171.902 106.297, 172.958 107.966 C 173.468 108.773, 173.513 109.898, 173.058 110.466 C 172.603 111.035, 171.925 112.931, 171.551 114.681 C 170.488 119.657, 168.671 120.578, 164.726 118.140 C 162.894 117.007, 159.952 114.495, 158.189 112.557 C 154.624 108.640, 150.258 106.964, 148.985 109.024 C 147.977 110.655, 148.827 113, 150.427 113 C 151.094 113, 152.618 114.125, 153.813 115.500 C 155.009 116.875, 156.589 118, 157.325 118 C 158.061 118, 160.098 120.138, 161.852 122.750 C 163.606 125.362, 165.924 128.625, 167.003 130 C 168.082 131.375, 169.017 134.075, 169.082 136 C 169.146 137.925, 169.627 141.547, 170.151 144.049 C 171.190 149.012, 169.994 154.011, 167.775 153.985 C 164.987 153.951, 163.586 152.073, 163.815 148.678 C 163.971 146.354, 163.551 145.042, 162.524 144.647 C 161.670 144.320, 160.993 142.839, 160.985 141.281 C 160.951 135.187, 156.508 134.074, 154.589 139.678 C 153.990 141.426, 153.177 143.174, 152.782 143.563 C 151.694 144.633, 146.059 141.979, 144.927 139.863 C 144.378 138.838, 143.261 138, 142.444 138 C 141.627 138, 138.430 135.339, 135.339 132.087 L 129.719 126.174 124.609 126.692 C 120.839 127.075, 117.927 126.637, 113.500 125.020 C 110.200 123.815, 104.575 122.277, 101 121.602 C 97.425 120.928, 93.375 119.898, 92 119.313 C 87.610 117.447, 81.273 116.784, 79.075 117.960 C 75.779 119.724, 76.606 120.829, 82.500 122.543 C 85.525 123.422, 88 124.551, 88 125.051 C 88 126.706, 95.856 130, 99.805 130 C 102.420 130, 104.282 130.654, 105.500 132 C 106.681 133.305, 108.580 134, 110.964 134 C 112.973 134, 115.491 134.639, 116.559 135.419 C 118.465 136.814, 118.459 136.882, 116.217 139.269 C 114.191 141.426, 114.107 141.844, 115.472 142.977 C 116.318 143.679, 119.145 144.208, 121.755 144.152 C 130.458 143.965, 138.191 145.727, 140.741 148.477 C 142.028 149.865, 144.115 151, 145.380 151 C 146.873 151, 148.086 151.893, 148.839 153.547 C 150.562 157.327, 150.270 158.741, 147.577 159.667 C 146.244 160.125, 143.754 162.269, 142.043 164.430 C 139.349 167.834, 139.123 168.552, 140.358 169.787 C 141.593 171.022, 142.838 170.674, 149.642 167.194 C 161.093 161.337, 161.584 161.267, 163.954 165.164 C 165.252 167.299, 165.610 168.790, 164.976 169.424 C 164.439 169.961, 164 171.435, 164 172.700 C 164 175.843, 167.459 175.756, 169.553 172.560 C 170.432 171.217, 172.130 169.980, 173.326 169.810 C 175.446 169.508, 175.491 169.197, 175.127 157.300 L 174.754 145.100 177.414 144.432 C 179.408 143.932, 180.629 144.313, 182.287 145.953 C 194.298 157.833, 196.388 159.416, 199.940 159.326 C 219.561 158.832, 223.135 158.542, 224.109 157.369 C 224.694 156.664, 224.918 155.677, 224.608 155.175 C 223.662 153.644, 210.355 152.740, 207.923 154.041 C 206.208 154.959, 205.461 154.890, 204.274 153.703 C 202.974 152.402, 202.957 151.401, 204.141 145.937 C 205.535 139.502, 207.333 137.340, 208.279 140.959 C 208.902 143.339, 211.798 143.689, 212.644 141.486 C 212.963 140.653, 215.207 139.473, 217.629 138.863 C 222.486 137.640, 223.988 136.240, 221.878 134.904 C 219.757 133.560, 215.595 133.839, 213.441 135.468 C 210.679 137.558, 208.669 137.341, 206.174 134.686 C 203.374 131.705, 203.436 130.294, 206.568 125.686 C 207.980 123.607, 209.497 119.615, 209.940 116.815 C 210.402 113.895, 211.419 111.345, 212.325 110.838 C 217.125 108.152, 222.541 103.128, 222.835 101.090 C 223.347 97.536, 221.306 96.119, 219.463 98.749 C 217.469 101.597, 215 100.590, 215 96.928 C 215 95.127, 215.715 93.688, 216.932 93.036 C 217.995 92.467, 219.172 90.989, 219.547 89.751 C 219.923 88.513, 221.038 86.600, 222.026 85.500 C 223.013 84.400, 224.345 81.527, 224.985 79.116 C 225.626 76.704, 227.293 73.004, 228.690 70.892 C 230.602 68.002, 231.058 66.369, 230.535 64.282 C 229.327 59.471, 227.193 57.858, 225.204 60.254 M 193.667 60.667 C 192.459 61.874, 192.972 65, 194.378 65 C 196.223 65, 198.334 62.349, 197.527 61.044 C 196.800 59.867, 194.674 59.659, 193.667 60.667 M 188.036 67.932 C 187.467 68.995, 186.076 70.158, 184.944 70.518 C 183.339 71.027, 182.954 71.866, 183.193 74.327 C 183.643 78.954, 186.629 79.133, 188.504 74.645 C 189.310 72.716, 190.427 70.854, 190.985 70.509 C 192.543 69.546, 192.189 66, 190.535 66 C 189.730 66, 188.605 66.870, 188.036 67.932 M 266.770 81.313 C 266.195 88.437, 266.638 92, 268.098 92 C 269.776 92, 270.017 87.423, 268.676 81 L 267.319 74.500 266.770 81.313 M 94.500 99.477 C 91.637 100.775, 91.865 100.849, 99.500 101.084 C 112.025 101.470, 118.372 101.771, 120 102.054 C 123.466 102.657, 127 101.927, 127 100.607 C 127 98.434, 125.165 98.153, 110.866 98.134 C 101.699 98.122, 96.557 98.544, 94.500 99.477 M 266.500 105.143 C 265.641 108.568, 266.231 113.500, 267.500 113.500 C 268.865 113.500, 269.352 106.452, 268.138 104.281 C 267.269 102.730, 267.081 102.829, 266.500 105.143 M 142.500 106 C 142.160 106.550, 142.809 107, 143.941 107 C 145.073 107, 146 106.550, 146 106 C 146 105.450, 145.352 105, 144.559 105 C 143.766 105, 142.840 105.450, 142.500 106 M 52.195 132.500 C 52.215 134.150, 52.439 134.704, 52.693 133.731 C 52.947 132.758, 52.930 131.408, 52.656 130.731 C 52.382 130.054, 52.175 130.850, 52.195 132.500 M 57 146.441 C 57 147.973, 57.564 149, 58.406 149 C 59.324 149, 59.630 148.300, 59.286 146.984 C 58.482 143.911, 57 143.558, 57 146.441 M 61 151.941 C 61 152.459, 61.450 153.160, 62 153.500 C 62.550 153.840, 63 153.416, 63 152.559 C 63 151.702, 62.550 151, 62 151 C 61.450 151, 61 151.423, 61 151.941 M 65.238 159.368 C 66.567 163.325, 67.871 165, 69.622 165 C 72.923 165, 69.835 157.713, 66.124 156.743 C 64.360 156.281, 64.280 156.516, 65.238 159.368 M 72.500 167 C 72.840 167.550, 73.316 168, 73.559 168 C 73.802 168, 74 167.550, 74 167 C 74 166.450, 73.523 166, 72.941 166 C 72.359 166, 72.160 166.450, 72.500 167 M 200.500 176.647 C 194.331 179.088, 189.614 179.445, 188.072 177.587 C 187.348 176.714, 186.135 176, 185.378 176 C 184.273 176, 183.994 178.827, 183.972 190.250 C 183.936 208.006, 183.938 342.180, 183.974 343.375 C 183.988 343.856, 185.440 343.962, 187.200 343.610 C 189.895 343.071, 190.745 343.401, 192.576 345.698 C 194.497 348.106, 195.648 348.500, 202.389 349.051 C 208.563 349.556, 210.518 350.138, 212.593 352.088 C 215.042 354.388, 215.778 354.500, 228.494 354.500 C 240.455 354.500, 242.119 354.285, 244.663 352.407 C 246.224 351.256, 249.173 350.001, 251.217 349.618 C 253.261 349.235, 256.861 347.820, 259.217 346.473 C 261.573 345.126, 264.747 344.019, 266.271 344.012 C 268.251 344.003, 269.369 343.285, 270.182 341.500 C 270.808 340.125, 271.824 339, 272.438 339 C 273.052 339, 274.746 337.763, 276.202 336.250 C 277.658 334.738, 280.040 332.375, 281.495 331 C 282.949 329.625, 284.845 327.150, 285.706 325.500 C 286.568 323.850, 288.752 320.850, 290.559 318.832 C 295.843 312.936, 296.755 310.899, 297.428 303.500 C 298.010 297.095, 297.934 296.665, 296.532 298.441 C 295.689 299.509, 295 301.141, 295 302.069 C 295 302.996, 294.338 304.305, 293.528 304.977 C 292.718 305.649, 290.934 308.648, 289.563 311.643 C 288.193 314.637, 285.368 318.829, 283.286 320.959 C 281.203 323.088, 278.179 326.665, 276.565 328.907 C 274.950 331.149, 272.854 333.229, 271.907 333.530 C 270.960 333.830, 269.932 334.734, 269.624 335.538 C 269.315 336.342, 267.939 337, 266.566 337 C 265.193 337, 262.532 338.350, 260.653 340 C 258.774 341.650, 256.840 343, 256.356 343 C 255.872 343, 251.881 344.165, 247.488 345.588 C 233.132 350.239, 214.332 349.394, 198.984 343.409 C 193.659 341.332, 192.061 340.159, 190.237 336.991 C 188.532 334.029, 188.221 332.548, 188.919 330.713 C 189.431 329.367, 189.887 299.784, 189.958 263.406 C 190.027 227.708, 190.349 196.116, 190.673 193.203 C 191.227 188.233, 191.517 187.773, 195.382 185.744 C 199.767 183.441, 200.130 183.428, 232.830 184.434 C 242.862 184.742, 244.322 185.015, 245.583 186.815 C 246.366 187.932, 248.692 189.388, 250.753 190.050 C 252.814 190.712, 255.175 191.826, 256 192.527 C 256.825 193.228, 259.132 194.474, 261.126 195.297 C 263.120 196.121, 267.287 199.090, 270.386 201.897 C 273.485 204.704, 276.466 207, 277.011 207 C 277.555 207, 278 207.534, 278 208.186 C 278 208.838, 280.925 212.211, 284.500 215.682 C 288.075 219.154, 291 222.795, 291 223.774 C 291 224.754, 291.695 226.547, 292.543 227.759 C 293.392 228.971, 295.482 232.558, 297.186 235.731 C 300.280 241.488, 300.287 241.538, 300.670 260.033 C 300.881 270.226, 300.612 281.684, 300.072 285.495 C 299.532 289.306, 299.320 292.653, 299.600 292.933 C 300.627 293.960, 301.864 290.478, 302.540 284.659 C 302.921 281.375, 303.926 277.070, 304.774 275.094 C 305.853 272.580, 306.331 268.044, 306.367 260 C 306.413 249.321, 306.224 248.150, 303.708 243.601 C 302.219 240.907, 300.998 237.307, 300.996 235.601 C 300.994 233.895, 300.186 231.150, 299.200 229.500 C 298.214 227.850, 296.853 224.604, 296.174 222.286 C 295.496 219.969, 294.127 217.494, 293.132 216.786 C 292.137 216.079, 291.009 214.230, 290.625 212.679 C 290.012 210.206, 289.580 209.933, 287.130 210.471 C 284.517 211.045, 284.361 210.899, 284.752 208.236 C 285.100 205.868, 284.438 204.761, 280.835 201.680 C 278.451 199.642, 274.627 196.209, 272.338 194.051 C 269.298 191.186, 267.363 190.152, 265.162 190.214 C 262.927 190.278, 261.260 189.358, 258.706 186.650 C 256.328 184.128, 254.393 183, 252.446 183 C 250.897 183, 248.594 182.028, 247.330 180.840 C 245.312 178.944, 243.043 178.524, 228.765 177.404 C 219.819 176.702, 210.700 175.888, 208.500 175.596 C 206.020 175.266, 202.980 175.666, 200.500 176.647 M 158.814 177.750 C 157.917 178.713, 156.008 180.315, 154.571 181.312 C 151.559 183.402, 152.010 185, 155.611 185 C 157.482 185, 158.365 184.251, 159.150 182 C 159.725 180.350, 160.602 179, 161.098 179 C 161.594 179, 162 178.325, 162 177.500 C 162 175.511, 160.814 175.604, 158.814 177.750 M 85.619 179.750 C 85.980 181.262, 86.719 183.063, 87.260 183.750 C 88.592 185.440, 91.934 185.334, 92.607 183.581 C 93.485 181.293, 90.066 177, 87.366 177 C 85.251 177, 85.041 177.330, 85.619 179.750 M 138.033 187.685 C 135.921 190.370, 135.430 190.498, 126.663 190.645 C 109.919 190.927, 109 190.994, 109 191.929 C 109 192.439, 109.720 193.577, 110.601 194.458 C 111.932 195.789, 114.329 196.011, 124.839 195.779 L 137.476 195.500 138.793 192.750 C 139.900 190.437, 140.736 190, 144.055 190 C 148.540 190, 149.619 187.623, 145.593 186.613 C 144.269 186.280, 142.523 185.754, 141.713 185.443 C 140.830 185.105, 139.357 186.002, 138.033 187.685 M 97.475 187.041 C 96.399 188.782, 98.926 189.967, 103.750 189.985 C 107.557 189.998, 109.269 188.869, 107.250 187.674 C 105.102 186.404, 98.147 185.953, 97.475 187.041 M 861.289 234.635 C 854.318 240.915, 853.563 241.494, 850.775 242.702 C 849.249 243.363, 848 244.355, 848 244.907 C 848 246.231, 844.118 251.845, 840.989 255.047 C 839.620 256.448, 837.600 258.844, 836.500 260.371 C 835.056 262.375, 833.369 263.295, 830.429 263.681 C 825.080 264.383, 822.556 262.125, 823.333 257.333 C 823.845 254.179, 822.198 251, 820.051 251 C 817.311 251, 816.845 254.254, 817.550 268.481 C 818.221 282.035, 818.930 285.540, 820.490 283.016 C 821.731 281.008, 823 282.059, 823 285.094 C 823 287.406, 822.464 288.327, 820.876 288.743 C 818.913 289.256, 818.789 289.806, 819.234 296.027 C 819.499 299.729, 819.294 303.511, 818.778 304.432 C 818.124 305.600, 818.350 306.886, 819.524 308.676 C 820.938 310.835, 821.005 311.623, 819.940 313.612 C 818.915 315.527, 818.920 316.727, 819.965 319.893 C 820.770 322.334, 821.001 325.510, 820.577 328.335 C 820.136 331.278, 820.325 333.547, 821.118 334.817 C 822.106 336.400, 822.021 337.436, 820.669 340.286 C 818.629 344.584, 818.546 347.378, 820.411 348.926 C 822.189 350.402, 822.706 349.624, 825.676 341 C 827.728 335.043, 827.919 332.619, 827.967 312 C 828.018 290.177, 828.094 289.339, 830.510 284.151 C 833.337 278.078, 833.789 272.240, 831.500 271.362 C 829.478 270.586, 829.586 268, 831.640 268 C 832.542 268, 833.823 268.744, 834.488 269.653 C 836.162 271.942, 837.752 270.634, 839.020 265.924 C 839.965 262.415, 845.055 255.859, 851.279 250.136 C 852.257 249.236, 854.282 247.315, 855.779 245.867 C 857.276 244.419, 859.851 242.552, 861.502 241.719 C 863.154 240.886, 865.361 239.259, 866.407 238.102 C 868.680 235.591, 870.294 235.444, 872.072 237.587 C 872.959 238.656, 874.385 239.009, 876.444 238.668 C 878.125 238.390, 880.400 238.014, 881.500 237.831 C 882.939 237.593, 883.589 238.131, 883.819 239.750 C 883.995 240.988, 884.530 242, 885.009 242 C 886.233 242, 895.194 249.864, 897 252.523 C 897.825 253.737, 899.743 256.592, 901.263 258.866 C 902.782 261.139, 904.694 263, 905.513 263 C 906.646 263, 907 264.290, 907 268.423 C 907 272.752, 907.506 274.447, 909.505 276.823 C 911.333 278.996, 912.185 281.481, 912.659 286.015 C 913.131 290.526, 913.948 292.920, 915.639 294.745 C 917.880 297.162, 917.947 297.706, 917.402 308.879 C 917.090 315.271, 917.280 326.125, 917.825 333 C 918.397 340.221, 918.445 346.134, 917.938 347 C 917.345 348.014, 917.051 346.971, 917.030 343.781 C 917.006 340.060, 916.691 339.181, 915.538 339.624 C 913.785 340.297, 913.328 341.717, 912.444 349.250 L 911.770 355 915.430 355 C 918.012 355, 919.836 354.255, 921.617 352.474 L 924.143 349.948 923.893 324.224 C 923.642 298.309, 922.791 291.612, 919.831 292.235 C 918.931 292.425, 918.541 290.652, 918.462 286 C 918.376 280.982, 917.741 278.383, 915.676 274.601 C 914.204 271.907, 913 268.217, 913 266.401 C 913 264.437, 912.362 262.742, 911.427 262.219 C 910.561 261.735, 909.310 260.250, 908.647 258.919 C 907.984 257.589, 906.217 255.913, 904.721 255.195 C 902.558 254.159, 902 253.201, 902 250.531 C 902 247.664, 901.281 246.642, 897.103 243.576 C 894.410 241.599, 891.949 239.311, 891.635 238.491 C 891.320 237.671, 890.363 237, 889.507 237 C 888.651 237, 887.523 235.875, 887 234.500 C 886.477 233.125, 885.251 231.968, 884.275 231.929 C 863.844 231.112, 865.404 230.929, 861.289 234.635 M 604.142 237.149 C 602.176 237.713, 600.572 238.919, 600.275 240.057 C 599.995 241.126, 599.081 242, 598.243 242 C 596.159 242, 588 246.150, 588 247.211 C 588 247.968, 585.840 250.437, 578.970 257.535 C 577.886 258.655, 577 260.242, 577 261.063 C 577 262.743, 572.080 272.548, 569.131 276.745 C 567.659 278.841, 567.011 282.132, 566.424 290.500 C 565.999 296.550, 565.749 303.075, 565.867 305 C 565.986 306.925, 566.199 311.793, 566.341 315.817 C 566.595 323.002, 567.512 324.943, 570.671 324.985 C 571.314 324.993, 572.146 326.389, 572.519 328.086 C 573.007 330.311, 574.024 331.461, 576.160 332.206 C 577.951 332.830, 578.924 333.755, 578.621 334.546 C 578.072 335.975, 580.674 338.660, 581.656 337.678 C 582.782 336.551, 585.858 338.978, 586.180 341.248 C 586.479 343.350, 587.132 343.543, 596 344.140 C 601.225 344.491, 610.158 344.593, 615.852 344.366 L 626.204 343.952 632.770 338.382 L 639.336 332.812 644.918 333.507 C 647.988 333.890, 650.831 334.720, 651.235 335.352 C 652.275 336.978, 652.133 361.209, 650.997 375.817 C 650.469 382.607, 649.133 391.067, 648.020 394.672 C 646.909 398.268, 646 402.718, 646 404.560 C 646 406.799, 645.171 408.738, 643.500 410.409 C 641.298 412.611, 641 413.765, 641 420.077 C 641 425.963, 640.760 427.046, 639.657 426.130 C 638.614 425.265, 638.055 425.583, 637.157 427.555 C 636.521 428.951, 636 430.717, 636 431.478 C 636 432.238, 634.987 433.005, 633.750 433.180 C 632.080 433.418, 631.259 434.477, 630.565 437.287 C 629.758 440.551, 629.923 441.368, 631.760 443.205 C 633.541 444.985, 634.147 445.123, 635.445 444.045 C 636.300 443.336, 637 441.907, 637 440.871 C 637 439.835, 638.125 438.009, 639.500 436.813 C 640.875 435.618, 642 434.064, 642 433.360 C 642 432.657, 643.128 431.035, 644.506 429.757 C 646.683 427.738, 647.061 426.414, 647.382 419.668 C 647.662 413.773, 648.166 411.599, 649.473 410.643 C 650.865 409.625, 651.452 406.335, 652.539 393.442 C 653.340 383.954, 654.607 375.476, 655.669 372.500 C 657.281 367.985, 657.457 363.125, 657.477 322.421 L 657.500 277.343 654.622 271.654 C 652.452 267.364, 651.883 265.111, 652.308 262.490 C 652.864 259.060, 652.670 258.685, 648.535 255.211 C 647.691 254.501, 647 252.605, 647 250.996 C 647 249.128, 646.301 247.696, 645.068 247.036 C 644.005 246.467, 642.850 245.102, 642.500 244.001 C 641.809 241.824, 639.054 241.346, 637.301 243.099 C 635.517 244.883, 631.805 243.189, 632.525 240.920 C 632.971 239.517, 632.511 238.769, 630.817 238.137 C 627.209 236.790, 607.886 236.074, 604.142 237.149 M 726.421 239.838 C 722.792 241.839, 720.349 242.522, 717.865 242.232 C 714.044 241.786, 711.351 243.867, 712.357 246.487 C 713.039 248.265, 721.487 248.639, 722.538 246.938 C 723.855 244.808, 728.726 243.631, 739 242.959 C 749.196 242.292, 749.665 242.355, 755.177 245.114 C 758.300 246.677, 761.106 248.363, 761.414 248.861 C 761.722 249.360, 762.436 253.021, 763 256.998 L 764.025 264.230 760.515 268.365 C 756.699 272.860, 755.631 273.963, 751.482 277.700 C 749.283 279.680, 748.076 280.049, 745.422 279.551 C 742.810 279.061, 741.897 279.324, 741.112 280.791 C 739.559 283.693, 729.924 285.662, 724.448 284.197 C 719.704 282.929, 717 283.432, 717 285.584 C 717 288.013, 721.839 290.218, 728.250 290.710 C 736.702 291.359, 740 290.011, 740 285.908 C 740 283.110, 740.246 282.843, 742.250 283.464 C 747.947 285.230, 748.801 285.102, 754.095 281.697 C 760.990 277.261, 763.461 274.483, 764.944 269.500 C 765.598 267.300, 767.026 263.824, 768.116 261.776 C 769.637 258.919, 769.854 257.596, 769.049 256.092 C 768.472 255.014, 768 252.730, 768 251.016 C 768 245.061, 764.709 241, 759.883 241 C 758.809 241, 756.933 240.356, 755.715 239.568 C 754.306 238.657, 749.499 237.937, 742.500 237.587 C 731.835 237.055, 731.345 237.123, 726.421 239.838 M 457.998 240.502 C 457.232 241.425, 456.995 243.225, 457.383 245.165 C 457.826 247.382, 457.529 248.863, 456.387 250.125 C 455.091 251.557, 454.791 253.899, 454.921 261.582 C 455.066 270.134, 454.797 271.789, 452.575 276.038 C 450.267 280.452, 450.056 281.962, 449.943 294.837 C 449.834 307.236, 450.044 309.161, 451.781 311.669 C 452.859 313.226, 454.324 317.200, 455.036 320.500 C 455.748 323.800, 456.931 327.210, 457.665 328.079 C 458.399 328.947, 459 330.207, 459 330.880 C 459 332.365, 466.047 338.989, 467.635 338.995 C 468.259 338.998, 469.490 340.099, 470.370 341.443 C 471.941 343.839, 472.229 343.884, 485.534 343.834 C 498.602 343.784, 499.152 343.697, 500.622 341.454 C 501.461 340.174, 503.461 338.838, 505.068 338.485 C 506.674 338.132, 508.328 337.258, 508.744 336.542 C 509.160 335.826, 511.413 333.115, 513.750 330.518 C 516.087 327.921, 518 324.902, 518 323.810 C 518 322.031, 518.442 321.897, 522.250 322.525 C 526.648 323.250, 529 324.536, 529 326.215 C 529 326.748, 529.847 328.262, 530.883 329.578 C 531.919 330.895, 533.072 334.422, 533.446 337.416 C 534.029 342.080, 534.625 343.239, 537.612 345.518 C 541.129 348.200, 544 348.258, 544 345.646 C 544 344.867, 542.875 343.493, 541.500 342.592 C 540.125 341.691, 539 340.392, 539 339.705 C 539 339.018, 537.695 336.872, 536.099 334.936 C 532.106 330.092, 529.321 319.055, 531.042 314.898 C 531.984 312.626, 532.007 311.311, 531.140 309.408 C 529.764 306.388, 529.693 302.953, 530.908 298.116 C 533.430 288.074, 534.995 278.712, 535.355 271.500 C 535.614 266.318, 536.474 261.915, 537.796 259 C 538.972 256.407, 539.977 251.745, 540.168 248 L 540.500 241.500 537.500 241.500 C 534.647 241.500, 534.488 241.720, 534.261 246 C 533.600 258.440, 532.253 269.814, 531.122 272.500 C 530.427 274.150, 529.674 278.865, 529.449 282.977 C 529.140 288.628, 528.512 291.169, 526.877 293.380 C 525.486 295.262, 524.319 299.055, 523.607 304.009 C 522.623 310.855, 522.134 312.019, 519.206 314.481 C 517.395 316.005, 515.072 318.882, 514.045 320.876 C 513.018 322.869, 509.635 326.525, 506.527 329 C 503.419 331.475, 500.076 334.215, 499.099 335.089 C 497.854 336.202, 494.289 336.877, 487.197 337.342 L 477.072 338.005 473.625 334.753 C 471.729 332.964, 469.445 330.903, 468.548 330.173 C 467.652 329.443, 466.653 327.514, 466.327 325.887 C 466.002 324.260, 464.948 322.507, 463.984 321.992 C 463.021 321.476, 461.944 319.355, 461.591 317.277 C 461.237 315.200, 460.007 310.473, 458.856 306.772 L 456.764 300.045 458.882 291.740 C 460.486 285.449, 461 280.389, 461 270.873 C 461 259.819, 461.227 258.104, 462.892 256.598 C 464.080 255.523, 465.041 252.824, 465.476 249.347 C 466.089 244.439, 465.911 243.534, 463.910 241.404 C 461.301 238.627, 459.751 238.390, 457.998 240.502 M 611.500 242 C 610.400 242.473, 608.273 242.891, 606.773 242.930 C 605.038 242.974, 603.465 243.886, 602.450 245.437 C 601.571 246.777, 599.583 248.152, 598.030 248.493 C 596.478 248.834, 594.416 249.988, 593.449 251.057 C 592.481 252.126, 591.134 253, 590.453 253 C 589.773 253, 588.930 254.143, 588.579 255.540 C 588.005 257.826, 587.596 258.015, 584.471 257.429 C 580.619 256.706, 580.514 256.840, 582.135 260.398 C 583.117 262.551, 582.913 263.315, 580.635 266.022 C 579.186 267.744, 578 269.731, 578 270.437 C 578 271.143, 576.949 273.270, 575.664 275.163 C 573.629 278.162, 573.244 280.271, 572.669 291.552 C 572.027 304.157, 573.434 320, 575.195 320 C 575.610 320, 576.630 321.318, 577.463 322.929 C 578.296 324.540, 579.882 326.145, 580.987 326.496 C 582.091 326.846, 583.273 328.240, 583.613 329.593 C 583.952 330.946, 585.191 332.562, 586.365 333.185 C 587.539 333.808, 589.070 335.120, 589.766 336.100 C 590.699 337.414, 592.409 337.891, 596.266 337.914 C 599.145 337.931, 602.850 338.048, 604.500 338.175 C 606.150 338.301, 611.663 338.313, 616.750 338.202 C 624.010 338.043, 626.390 337.623, 627.815 336.250 C 632.987 331.262, 638.269 327.837, 640.065 328.307 C 641.129 328.585, 642 328.405, 642 327.906 C 642 327.408, 641.550 327, 641 327 C 638.917 327, 640.023 322.031, 642.461 320.434 C 643.815 319.547, 645.230 317.849, 645.607 316.661 C 645.984 315.472, 647.455 312.700, 648.877 310.500 C 651.377 306.631, 651.452 306.058, 651.166 293.061 C 650.911 281.409, 650.477 278.392, 647.907 270.369 C 645.829 263.881, 644.387 260.940, 643.082 260.526 C 641.939 260.163, 640.797 258.308, 640.122 255.718 C 638.557 249.711, 637.498 248.500, 633.808 248.500 C 631.237 248.500, 630.267 247.916, 629.212 245.734 C 628.011 243.247, 627.398 242.985, 623.154 243.135 C 620.557 243.227, 617.465 242.784, 616.282 242.151 C 613.847 240.848, 614.158 240.858, 611.500 242 M 357 249.931 C 345.192 252.357, 344.580 252.617, 340.798 256.793 C 338.952 258.832, 336.217 261.298, 334.721 262.273 C 331.712 264.234, 331.195 267.087, 333.500 269 C 335.493 270.654, 337.642 268.905, 338.519 264.914 C 338.915 263.111, 340.231 261.415, 341.906 260.549 C 343.413 259.769, 345.252 258.401, 345.993 257.508 C 348.525 254.457, 353.394 253.182, 360.371 253.742 C 366.939 254.269, 378 251.930, 378 250.014 C 378 247.500, 369.001 247.464, 357 249.931 M 703.162 251.948 C 701.417 254.119, 698.754 256.492, 697.245 257.221 C 694.804 258.399, 694.537 259.006, 694.830 262.710 C 695.106 266.201, 694.728 267.248, 692.492 269.187 C 691.026 270.459, 689.173 272.850, 688.377 274.500 C 687.580 276.150, 686.247 278.733, 685.414 280.240 C 683.260 284.139, 682.705 306.817, 684.707 309.146 C 685.485 310.051, 686.901 312.976, 687.854 315.646 C 689.091 319.114, 690.188 320.587, 691.692 320.806 C 693.200 321.026, 693.980 322.078, 694.436 324.511 C 695.136 328.244, 702.619 335.638, 709.127 339.026 C 711.121 340.065, 713.043 341.669, 713.396 342.591 C 713.923 343.962, 714.882 344.151, 718.678 343.631 C 722.768 343.070, 723.905 343.372, 728.284 346.182 L 733.251 349.369 748.875 349.492 C 764.625 349.616, 770.630 348.775, 776.500 345.623 C 778.150 344.737, 780.600 344.010, 781.945 344.006 C 784.258 344, 790 339.577, 790 337.801 C 790 336.233, 781.487 338.237, 777.893 340.652 C 774.420 342.984, 773.572 343.082, 755.122 343.278 L 735.960 343.482 733.667 340.607 L 731.375 337.732 722.554 338.467 L 713.733 339.202 714.355 336.724 C 714.894 334.575, 714.579 334.166, 711.988 333.648 C 710.223 333.295, 709 332.420, 709 331.510 C 709 330.663, 707.620 329.131, 705.932 328.105 C 704.245 327.079, 702.108 324.723, 701.182 322.870 C 700.153 320.807, 698.627 319.376, 697.250 319.180 C 695.492 318.931, 695 318.210, 695 315.885 C 695 313.993, 694.027 311.936, 692.328 310.237 C 689.794 307.703, 689.648 307.020, 689.506 297.033 C 689.424 291.240, 689.557 285.918, 689.802 285.207 C 690.475 283.251, 697.508 280, 701.066 280 C 702.962 280, 705.391 280.993, 707.182 282.500 C 710.182 285.024, 713.421 285.745, 714.430 284.113 C 715.156 282.939, 713.143 281.429, 709.779 280.626 C 708.282 280.269, 706.579 279.082, 705.994 277.988 C 705.262 276.621, 703.900 276, 701.631 276 C 697.342 276, 696.735 275.265, 699.083 272.917 C 700.425 271.575, 701.007 269.576, 701.022 266.250 C 701.047 261.011, 702.287 259.020, 708.250 254.648 C 712.239 251.723, 713.002 249.598, 710.418 248.607 C 707.467 247.475, 706.340 247.994, 703.162 251.948 M 379.220 253.527 C 373.099 254.918, 372.168 255.569, 373.869 257.267 C 374.656 258.052, 378.446 258.530, 384.302 258.582 C 392.463 258.654, 394.064 258.982, 398.500 261.487 C 401.250 263.040, 404.625 265.337, 406 266.591 C 407.375 267.846, 409.745 269.343, 411.266 269.918 L 414.032 270.963 412.468 267.938 C 411.608 266.275, 409.688 264.455, 408.202 263.893 C 404.331 262.430, 395.890 257.052, 393.238 254.359 C 390.703 251.785, 387.674 251.605, 379.220 253.527 M 329.571 271.571 C 328.580 272.563, 328 274.912, 328 277.934 C 328 281.752, 327.391 283.492, 325 286.500 C 322.109 290.138, 322 290.646, 322 300.487 C 322 310.169, 322.155 310.927, 324.982 315.100 C 327.415 318.690, 327.967 320.545, 327.982 325.179 C 327.993 328.610, 328.538 331.395, 329.359 332.217 C 330.107 332.964, 331.640 335.658, 332.765 338.202 C 335.681 344.793, 340.295 346.959, 342.817 342.922 C 344.506 340.217, 342.873 338.110, 339.575 338.741 C 337.287 339.178, 337.191 338.998, 337.698 335.217 C 338.124 332.038, 337.804 330.804, 336.116 329.116 C 334.832 327.832, 334 325.726, 334 323.759 C 334 321.976, 332.397 317.274, 330.438 313.309 C 327.575 307.514, 327.084 305.711, 327.938 304.116 C 329.264 301.638, 329.333 292.733, 328.036 291.436 C 327.418 290.818, 328.180 288.148, 330.164 283.986 C 333.911 276.122, 335.023 270, 332.703 270 C 331.845 270, 330.436 270.707, 329.571 271.571 M 415.436 272.586 C 415.862 273.639, 416.893 276.447, 417.726 278.827 C 420.143 285.732, 426.126 286.333, 424.410 279.498 C 423.842 277.233, 420.480 273.998, 416.080 271.483 C 414.979 270.854, 414.834 271.101, 415.436 272.586 M 423.525 287.250 C 423.299 287.938, 422.973 293.754, 422.802 300.174 C 422.522 310.661, 422.262 312.092, 420.245 314.239 C 418.746 315.835, 418 317.869, 418 320.361 C 418 323.464, 417.494 324.380, 414.997 325.797 C 413.346 326.733, 411.771 328.192, 411.497 329.038 C 410.642 331.683, 402.267 338, 399.616 338 C 398.240 338, 396.497 338.880, 395.744 339.955 C 394.991 341.031, 390.803 343.393, 386.437 345.205 C 379.042 348.275, 377.721 348.500, 367.093 348.500 C 354.482 348.500, 351.842 349.782, 358.622 352.615 C 364.301 354.988, 372.676 354.799, 377.538 352.187 C 379.760 350.995, 383.655 349.630, 386.194 349.156 C 388.734 348.682, 392.040 347.327, 393.541 346.147 C 395.042 344.966, 397.676 344, 399.394 344 C 401.473 344, 402.952 343.306, 403.814 341.926 C 404.526 340.786, 406.660 339.205, 408.555 338.413 C 410.450 337.621, 412 336.295, 412 335.465 C 412 334.636, 413.079 333.465, 414.398 332.865 C 415.804 332.224, 417.028 330.609, 417.358 328.960 C 417.709 327.204, 418.969 325.634, 420.710 324.782 C 423.190 323.569, 423.470 322.947, 423.229 319.185 C 423.032 316.098, 423.380 314.792, 424.516 314.355 C 427.609 313.168, 429 308.401, 429 298.984 C 429 293.970, 428.534 288.998, 427.965 287.934 C 426.800 285.757, 424.152 285.349, 423.525 287.250 M 646.667 322.667 C 646.300 323.033, 646 324.206, 646 325.274 C 646 326.632, 646.474 327.032, 647.582 326.607 C 648.452 326.273, 649.352 326, 649.582 326 C 649.812 326, 650 325.100, 650 324 C 650 322.073, 648.043 321.290, 646.667 322.667 M 868.727 339 C 867.329 340.100, 865.731 341, 865.177 341 C 862.935 341, 853.237 350.262, 848.304 357.116 C 846.237 359.987, 843.939 361.900, 841.804 362.528 L 838.500 363.500 837.888 371.731 C 837.551 376.259, 836.709 380.646, 836.015 381.481 C 834.272 383.582, 830.078 383.370, 826.500 381 C 821.101 377.425, 818.880 378.670, 817.545 386.018 C 817.008 388.980, 817.513 390.396, 820.928 395.500 C 825.862 402.872, 826.257 407.730, 822.500 414.788 C 821.125 417.371, 820 420.032, 820 420.701 C 820 421.371, 818.884 423.174, 817.520 424.709 C 816.157 426.244, 813.710 429, 812.083 430.832 C 809.326 433.940, 808.900 437, 811.225 437 C 812.451 437, 819.996 429.587, 820.011 428.368 C 820.030 426.758, 826.695 421.002, 829.789 419.924 C 831.971 419.163, 833.438 419.164, 834.863 419.927 C 837.988 421.599, 839.582 421.213, 840.827 418.480 C 842.136 415.607, 846.440 413.587, 848.634 414.815 C 849.446 415.270, 850.873 416.786, 851.805 418.186 C 852.737 419.586, 854.703 422.527, 856.173 424.723 C 859.307 429.405, 874.369 444.875, 878.027 447.169 C 884.803 451.419, 897.268 463.680, 899.713 468.500 C 900.549 470.150, 902.026 472.400, 902.993 473.500 C 903.961 474.600, 905.066 477.253, 905.449 479.396 C 905.832 481.539, 906.777 484.257, 907.549 485.435 C 908.801 487.346, 908.628 488.387, 905.957 495.039 C 904.309 499.143, 901.856 503.400, 900.507 504.500 C 894.352 509.517, 891.872 511.147, 888.800 512.195 C 886.985 512.814, 884.427 514.148, 883.115 515.160 C 880.585 517.112, 875.453 517.573, 873.067 516.062 C 871.833 515.281, 871.815 513.424, 872.938 502.712 C 873.872 493.806, 873.948 489.306, 873.203 486.884 C 872.630 485.023, 871.873 481.363, 871.520 478.750 C 870.441 470.770, 869 473.442, 869 483.424 C 869 493.764, 867.525 502.132, 865.021 506 C 864.131 507.375, 862.872 509.738, 862.223 511.250 C 861.574 512.763, 860.609 514, 860.078 514 C 858.221 514, 856 509.522, 856 505.777 C 856 503.204, 855.553 502, 854.598 502 C 853.628 502, 852.980 503.860, 852.495 508.046 C 851.997 512.332, 851.064 514.959, 849.289 517.069 C 844.889 522.297, 843.544 522.486, 839.129 518.497 C 836.971 516.548, 834.925 513.838, 834.583 512.476 C 833.743 509.126, 832.301 509.354, 831.508 512.962 C 830.962 515.448, 830.110 516.135, 826.202 517.239 C 820.087 518.966, 817.724 522.612, 820.038 526.750 C 821.340 529.077, 822.493 529.625, 827.538 530.314 C 835.370 531.384, 864.726 530.528, 868.275 529.126 C 869.802 528.524, 874.077 527.550, 877.775 526.963 C 885.091 525.801, 901.139 518.039, 906.319 513.157 C 911.671 508.113, 914.696 502.405, 915.423 495.977 C 916.399 487.354, 915.148 476.363, 912.887 473.682 C 910.923 471.355, 903.212 460.966, 902.766 460.048 C 902.620 459.747, 897.550 455.299, 891.500 450.165 C 866.320 428.796, 863.083 425.540, 858.974 417.448 C 856.811 413.187, 855.847 409.783, 855.718 405.948 C 855.531 400.378, 855.729 399.840, 861.735 389.600 C 863.631 386.367, 864.711 383.411, 864.346 382.458 C 863.447 380.116, 860.052 379.154, 856.891 380.347 C 852.615 381.961, 851 379.931, 851 372.943 C 851 365.585, 851.821 363.497, 857.967 355.227 C 863.891 347.256, 863.597 347.568, 869.885 342.526 C 874.603 338.742, 875.452 337, 872.576 337 C 871.857 337, 870.126 337.900, 868.727 339 M 344.503 344.991 C 343.552 347.986, 344.705 349, 349.059 349 C 353.457 349, 353.961 347.961, 351 345 C 348.439 342.439, 345.314 342.435, 344.503 344.991 M 259.948 384.941 C 256.895 385.355, 253.295 386.384, 251.948 387.228 C 250.602 388.072, 247.106 389.023, 244.181 389.342 C 241.256 389.661, 237.431 390.782, 235.681 391.833 C 233.931 392.883, 231.153 394.062, 229.506 394.452 C 223.189 395.947, 222.161 399.941, 227 404.187 C 228.731 405.706, 230 407.811, 230 409.163 C 230 410.452, 230.933 414.655, 232.074 418.503 C 233.953 424.843, 234.137 427.914, 234.036 451.199 C 233.888 485.484, 235.700 524.519, 237.612 528.217 C 239.500 531.868, 242.702 531.884, 244.130 528.250 C 245.521 524.712, 244.624 507.258, 242.648 499.392 C 239.903 488.463, 238.921 471.646, 240.045 454.772 C 241.155 438.092, 240.432 426.016, 237.358 409.900 L 235.718 401.301 238.055 398.140 C 239.729 395.875, 241.967 394.513, 245.946 393.336 C 249.001 392.433, 253.450 390.804, 255.833 389.717 C 260.909 387.402, 266.043 387.719, 277.302 391.043 C 292.476 395.523, 305.165 404.579, 311.568 415.500 C 314.144 419.892, 314.488 421.412, 314.403 428 C 314.245 440.213, 309.753 446.765, 295.894 455 C 293.579 456.375, 290.294 458.417, 288.593 459.538 C 283.717 462.750, 266.159 468.011, 260.332 468.005 C 253.954 467.999, 252 468.699, 252 470.990 C 252 473.204, 254.766 473.981, 262.500 473.943 C 280.610 473.853, 304.768 461.799, 316.320 447.090 C 317.794 445.214, 319.759 441.269, 320.687 438.324 C 322.284 433.258, 322.277 432.469, 320.556 423.734 C 318.319 412.378, 315.249 407.070, 305.247 397.271 C 299.874 392.006, 296.732 389.736, 293.685 388.916 C 291.383 388.297, 288.375 387.218, 287 386.518 C 283.846 384.912, 267.279 383.947, 259.948 384.941 M 586.410 394.375 C 586.088 395.212, 585.977 401.136, 586.163 407.539 C 586.476 418.363, 586.666 419.315, 588.861 421.090 C 594.415 425.583, 596.452 421.785, 595.059 409.532 C 594.539 404.953, 593.300 399.479, 592.305 397.367 C 590.402 393.326, 587.397 391.801, 586.410 394.375 M 416.035 401.934 C 414.732 404.369, 414.705 409.095, 415.975 412.435 C 416.701 414.345, 417.659 414.996, 419.725 414.985 C 421.251 414.976, 423.124 414.574, 423.887 414.091 C 425.781 412.891, 426.620 403.452, 425.004 401.505 C 423.159 399.281, 417.305 399.561, 416.035 401.934 M 546.005 432.689 C 546.012 433.938, 552.762 441, 553.949 441 C 554.527 441, 555 441.531, 555 442.179 C 555 442.827, 556.626 444.847, 558.613 446.667 C 561.326 449.153, 563.007 449.918, 565.362 449.738 C 567.941 449.542, 568.556 449.900, 568.819 451.750 C 569.087 453.633, 569.760 454, 572.947 454 C 575.042 454, 577.272 453.377, 577.905 452.615 C 579.104 451.170, 576.796 449.267, 568.065 444.500 C 566.051 443.400, 562.400 440.408, 559.951 437.851 C 556.267 434.003, 554.681 433.088, 550.750 432.540 C 548.138 432.176, 546.002 432.243, 546.005 432.689 M 414.290 446.686 C 412.777 449.910, 412.520 453.053, 412.626 467 C 412.699 476.519, 413.439 487.997, 414.376 494.128 C 415.269 499.974, 416 507.039, 416 509.829 C 416 518.330, 417.763 524.571, 420.519 525.827 C 422.427 526.696, 423.252 526.605, 424.466 525.391 C 426.378 523.479, 426.374 523.389, 424.013 512.710 C 421.181 499.900, 419.767 480.937, 420.157 461 C 420.498 443.588, 420.489 443.498, 418.290 443.186 C 416.573 442.941, 415.682 443.721, 414.290 446.686 M 625.441 444.419 C 623.540 445.810, 623.549 445.891, 625.924 448.419 C 628.720 451.395, 629.821 451.631, 630.664 449.433 C 631.260 447.881, 629.255 443, 628.022 443 C 627.670 443, 626.509 443.639, 625.441 444.419 M 342.035 447.934 C 340.922 450.015, 340.550 518.719, 341.630 522.750 C 342.325 525.341, 345.159 525.718, 347.027 523.468 C 348.005 522.289, 348.140 518.193, 347.613 505.711 C 346.992 491.004, 347.118 488.890, 348.964 483.113 C 350.084 479.607, 351 475.960, 351 475.007 C 351 473.537, 354.649 467.989, 357.911 464.500 C 360.616 461.607, 364.079 459.069, 369.255 456.184 C 374.099 453.485, 376.439 452.876, 384.040 452.337 C 393.463 451.668, 395.039 450.957, 392.876 448.351 C 391.813 447.070, 389.773 446.863, 381.540 447.202 C 372.604 447.569, 370.785 447.978, 365 450.916 C 361.425 452.732, 357.600 455.017, 356.500 455.994 C 351.703 460.255, 347 459.240, 347 453.943 C 347 450.413, 345.367 446, 344.060 446 C 343.516 446, 342.605 446.870, 342.035 447.934 M 618.378 452.066 C 616.869 453.575, 614.182 454.389, 608.406 455.085 C 604.058 455.609, 599.600 455.980, 598.500 455.910 C 583.595 454.960, 575.459 456.439, 578.098 459.618 C 578.916 460.603, 581.187 461.091, 584.912 461.081 C 587.986 461.072, 592.750 461.097, 595.500 461.136 C 598.250 461.174, 604.253 461.047, 608.839 460.853 C 616.042 460.548, 617.426 460.193, 618.999 458.250 C 620.050 456.952, 621.930 456, 623.442 456 C 626.778 456, 628 453.204, 625.471 451.355 C 622.873 449.455, 620.779 449.665, 618.378 452.066 M 843.320 456 C 843.320 459.575, 843.502 461.038, 843.723 459.250 C 843.945 457.462, 843.945 454.538, 843.723 452.750 C 843.502 450.962, 843.320 452.425, 843.320 456 M 455.922 458.146 C 455.226 459.446, 455.024 462.109, 455.408 464.896 C 457.558 480.469, 457.949 486.340, 458.066 504.747 C 458.184 523.413, 458.361 525.361, 460.097 527.097 C 462.504 529.504, 463.513 529.487, 466 527 C 467.811 525.189, 468.002 523.653, 468.018 510.750 C 468.036 496.600, 468.057 496.469, 471.018 492.100 C 472.658 489.679, 474 487.092, 474 486.350 C 474 485.607, 474.435 485, 474.967 485 C 475.822 485, 477.547 483.521, 485.503 475.969 C 486.605 474.924, 488.949 473.565, 490.712 472.950 C 492.476 472.336, 494.208 470.920, 494.562 469.805 C 495.116 468.059, 495.760 467.866, 499.194 468.415 C 501.388 468.766, 504.861 470.401, 506.912 472.049 C 510.045 474.567, 511.015 476.342, 512.988 483.169 C 515.067 490.367, 515.202 491.875, 514.167 496.397 C 513.524 499.203, 512.513 506.623, 511.919 512.884 C 510.966 522.939, 511.027 524.456, 512.446 525.875 C 513.895 527.323, 514.320 527.332, 516.776 525.958 C 519.723 524.311, 519.453 525.529, 521.927 502.798 C 523.624 487.205, 529.539 476.097, 538.195 472.250 C 544.530 469.434, 548.279 469.403, 554 472.120 C 560.857 475.376, 564 480.901, 564 489.698 C 564 493.515, 563.290 499.028, 562.422 501.951 C 561.539 504.924, 560.768 511.567, 560.672 517.027 C 560.525 525.373, 560.776 527.093, 562.405 528.894 C 563.453 530.052, 565.124 531, 566.119 531 C 567.768 531, 567.927 529.909, 567.913 518.750 C 567.904 512.013, 568.371 503.218, 568.951 499.207 C 570.324 489.704, 568.765 478.789, 565.422 474.508 C 558.951 466.221, 554.715 464, 545.381 464 L 537.852 464 531.876 469.700 C 526.898 474.448, 525.305 475.400, 522.337 475.400 C 519.581 475.400, 518.178 474.695, 516.137 472.286 C 511.142 466.388, 499.045 462.831, 496.090 466.391 C 495.455 467.156, 493.022 468.069, 490.684 468.420 C 487.358 468.919, 485.208 470.224, 480.812 474.415 C 477.721 477.361, 474.683 480.723, 474.061 481.886 C 473.206 483.484, 471.977 484, 469.024 484 C 466.876 484, 464.901 483.649, 464.636 483.219 C 464.370 482.790, 463.665 477.192, 463.068 470.779 C 462.471 464.366, 461.714 458.417, 461.384 457.560 C 460.517 455.298, 457.259 455.648, 455.922 458.146" stroke="none" fill="#ffffff" fill-rule="evenodd"/>
</svg>