<svg xmlns="http://www.w3.org/2000/svg" width="1000" height="415" viewBox="0 0 1000 415" version="1.1">
	<path d="M 396.667 40.667 C 396.300 41.033, 396 41.693, 396 42.131 C 396 43.470, 400.057 45.192, 401.714 44.556 C 403.089 44.029, 403.062 43.726, 401.481 41.979 C 399.655 39.961, 397.861 39.472, 396.667 40.667 M 372.995 158.506 C 371.912 159.811, 371.861 160.794, 372.755 163.162 C 373.490 165.109, 373.566 167.011, 372.972 168.573 C 371.839 171.553, 372.678 173.987, 374.857 174.039 C 375.761 174.061, 385.114 174.044, 395.642 174.002 C 416.548 173.919, 417.201 174.085, 418.460 179.816 C 419.216 183.260, 417.579 188, 415.633 188 C 414.854 188, 413.519 189.745, 412.666 191.877 C 411.582 194.586, 410.324 195.953, 408.491 196.413 C 406.706 196.861, 405.374 198.258, 404.321 200.786 C 403.470 202.829, 401.025 206.118, 398.887 208.096 C 395.745 211.003, 395 212.389, 395 215.323 C 395 219.924, 398.578 222.831, 401.992 221.004 C 404.959 219.417, 409.540 220.657, 413.478 224.115 C 415.309 225.723, 418.538 227.625, 420.654 228.343 C 423.304 229.242, 425.023 230.672, 426.182 232.943 C 427.108 234.756, 429.245 237.079, 430.932 238.105 L 434 239.971 434 250.914 C 434 259.529, 433.666 262.191, 432.429 263.429 C 431.564 264.293, 430.416 265, 429.878 265 C 429.339 265, 428.227 266.606, 427.407 268.569 C 426.420 270.931, 424.811 272.599, 422.649 273.502 C 420.852 274.253, 418.855 276.022, 418.212 277.434 C 417.049 279.987, 416.982 280, 404.682 280 C 392.400 280, 392.314 279.984, 391.158 277.448 C 390.519 276.044, 388.432 274.243, 386.522 273.445 C 384.578 272.632, 382.365 270.673, 381.498 268.997 C 379.375 264.891, 374.768 264.756, 373.082 268.750 C 372.444 270.262, 370.476 272.175, 368.711 273 C 363.314 275.521, 363.957 281.141, 369.775 282.305 C 371.631 282.676, 372.866 283.807, 373.633 285.839 C 374.644 288.516, 375.337 288.898, 380.310 289.520 C 384.622 290.058, 386.417 290.839, 388.360 293.019 C 390.448 295.363, 391.968 295.944, 397.580 296.546 C 406.272 297.476, 419.090 296.585, 421.856 294.858 C 423.048 294.114, 424.273 292.716, 424.579 291.752 C 425.001 290.421, 426.259 289.989, 429.817 289.955 C 433.909 289.916, 435.118 289.357, 439.399 285.520 C 443.519 281.828, 444.421 280.365, 445.078 276.315 C 445.517 273.609, 445.412 268.652, 444.839 265 C 444.241 261.195, 444.098 252.978, 444.493 245.182 C 445.150 232.227, 445.098 231.721, 442.590 226.595 C 439.628 220.540, 437.073 219, 429.988 219 C 424.211 219, 423.535 218.174, 422.497 209.838 L 421.791 204.176 432.939 192.838 C 443.915 181.675, 446.350 177.950, 444.127 175.727 C 443.507 175.107, 443.032 173.227, 443.070 171.550 C 443.130 168.941, 443.265 168.789, 444 170.500 C 444.696 172.120, 444.873 171.811, 444.930 168.872 C 444.968 166.877, 445.675 164.685, 446.500 164 C 447.325 163.315, 448 162.151, 448 161.413 C 448 157.977, 444.051 157.552, 408.934 157.199 C 377.733 156.886, 374.234 157.013, 372.995 158.506 M 510.212 158.200 C 506.544 159.178, 503.552 163.244, 502.544 168.618 C 502.195 170.478, 501.325 172, 500.610 172 C 498.401 172, 496 175.505, 496 178.730 C 496 181.177, 495.293 182.220, 492.527 183.852 C 489.844 185.435, 488.798 186.917, 487.928 190.370 C 487.060 193.818, 486.151 195.109, 483.948 196.022 C 481.593 196.997, 480.973 197.997, 480.414 201.724 C 479.884 205.257, 479.121 206.598, 476.920 207.861 C 473.961 209.559, 472 212.800, 472 215.992 C 472 217.078, 470.823 218.454, 469.250 219.205 C 466.492 220.524, 465.859 222.116, 464.487 231.198 C 464.019 234.302, 463.372 235.097, 460.464 236.149 C 458.370 236.907, 456.951 238.113, 456.875 239.201 C 456.425 245.676, 456.333 260.021, 456.724 262.668 C 457.070 265.011, 457.959 266.155, 460.134 267.056 C 463.789 268.569, 465 270.749, 465 275.812 C 465 280.084, 466.304 281.756, 470.078 282.325 C 471.639 282.560, 472.613 283.453, 472.818 284.836 C 473.262 287.828, 476.767 290, 481.151 290 C 484.772 290, 486.989 291.371, 488.906 294.797 C 489.724 296.258, 491.650 296.494, 502.678 296.487 C 517.648 296.476, 520.252 295.937, 521.807 292.524 C 522.806 290.332, 523.593 290, 527.787 290 C 535.116 290, 536.102 288.814, 536.123 279.975 C 536.146 270.194, 536.464 269.332, 540.548 267.984 C 542.814 267.236, 544.203 266.041, 544.587 264.508 C 544.919 263.187, 546.447 261.643, 548.100 260.959 C 551.716 259.461, 552.454 256.807, 551.663 248.145 C 551.233 243.429, 550.566 241.210, 549.366 240.500 C 544.986 237.909, 543.964 236.078, 544.617 231.995 C 545.227 228.182, 545.029 227.796, 540.006 223.005 C 537.119 220.252, 534.318 218, 533.780 218 C 533.242 218, 531.449 216.551, 529.794 214.780 C 526.915 211.697, 526.384 211.536, 517.419 211.030 C 504.624 210.306, 503.526 209.242, 504.528 198.546 C 505.073 192.725, 505.647 190.721, 506.875 190.349 C 510.503 189.248, 511.463 188.134, 512.591 183.709 C 513.371 180.655, 515.001 177.921, 517.386 175.672 C 519.981 173.225, 521 171.416, 521 169.257 C 521 166.761, 521.478 166.154, 523.811 165.688 C 527.133 165.023, 529.716 160.567, 527.987 158.484 C 526.751 156.995, 515.408 156.814, 510.212 158.200 M 565.322 158.821 C 563.714 160.429, 563.668 161.511, 565.096 164.180 C 566.586 166.964, 565.332 174.610, 563.030 176.771 C 559.436 180.147, 558.009 187.693, 557.127 208 C 556.661 218.725, 556.457 227.819, 556.674 228.209 C 557.195 229.148, 573.242 228.239, 576.237 227.100 C 577.527 226.610, 579.206 225.457, 579.968 224.538 C 584.182 219.461, 592.594 218.943, 596.209 223.538 C 597.241 224.850, 600.749 226.895, 604.005 228.082 C 609.078 229.932, 610.084 230.723, 611.040 233.620 C 611.653 235.479, 612.458 237.010, 612.828 237.022 C 613.197 237.034, 614.612 237.899, 615.972 238.944 C 618.244 240.690, 618.456 241.553, 618.601 249.671 C 618.799 260.772, 618.417 262.489, 615.451 263.840 C 614.133 264.441, 612.399 266.503, 611.596 268.424 C 610.596 270.819, 609.011 272.386, 606.555 273.413 C 604.584 274.236, 602.674 275.718, 602.309 276.705 C 601.208 279.685, 599.962 279.969, 587.911 279.985 C 576.449 280, 576.308 279.972, 575.158 277.448 C 574.519 276.044, 572.534 274.284, 570.748 273.535 C 568.961 272.787, 566.490 271.010, 565.257 269.587 C 562.525 266.437, 558.656 266.225, 556.632 269.115 C 555.817 270.279, 553.831 272.033, 552.218 273.013 C 546.902 276.247, 547.327 280.706, 553.065 281.879 C 555.702 282.419, 556.554 283.200, 557.192 285.662 C 558.050 288.973, 560.021 289.962, 565.806 289.986 C 568.204 289.996, 569.876 290.836, 571.890 293.041 C 574.614 296.023, 574.899 296.093, 586.584 296.665 C 600.717 297.356, 606.593 296.200, 608.019 292.450 C 608.839 290.294, 609.560 290, 614.023 290 C 618.753 290, 619.421 289.674, 623.927 285.168 C 626.584 282.511, 629.068 279.361, 629.447 278.168 C 629.825 276.976, 630.554 276, 631.067 276 C 631.580 276, 632.900 275.100, 634 274 C 635.859 272.141, 636 270.667, 636 253.047 C 636 232.195, 635.431 229.473, 630.862 228.470 C 628.435 227.937, 628 227.351, 628 224.621 C 628 220.669, 626.464 219, 622.826 219 C 620.746 219, 619.657 218.238, 618.478 215.957 C 616.278 211.702, 613.603 211, 599.594 211 C 586.412 211, 578.829 209.468, 576.444 206.322 C 574.915 204.304, 574.491 198, 575.885 198 C 577.827 198, 580.184 192.485, 581.541 184.765 C 582.328 180.290, 583.450 176.149, 584.034 175.564 C 584.705 174.892, 593.623 174.388, 608.260 174.196 C 621.906 174.017, 631.924 173.478, 632.641 172.883 C 633.411 172.244, 633.792 169.423, 633.679 165.202 L 633.500 158.531 629.500 157.806 C 627.300 157.407, 612.258 157.174, 596.072 157.290 C 573.239 157.453, 566.348 157.796, 565.322 158.821 M 627 166 C 627 166.550, 627.450 167, 628 167 C 628.550 167, 629 166.550, 629 166 C 629 165.450, 628.550 165, 628 165 C 627.450 165, 627 165.450, 627 166 M 496.230 223.451 C 495.057 224.799, 491.874 226.859, 489.155 228.029 C 484.552 230.009, 484.057 230.579, 481.970 236.304 C 480.737 239.685, 478.439 243.656, 476.864 245.127 C 473.068 248.673, 473.009 253.102, 476.710 256.795 C 478.201 258.283, 480.414 261.975, 481.629 265 C 483.495 269.645, 484.523 270.835, 488.243 272.657 C 490.666 273.843, 493.412 275.980, 494.347 277.407 C 495.953 279.859, 496.506 280, 504.484 280 C 511.877 280, 513.175 279.729, 514.961 277.811 C 516.082 276.608, 517 275.295, 517 274.895 C 517 274.494, 518.908 273.531, 521.240 272.753 C 524.800 271.567, 525.643 270.760, 526.493 267.733 C 527.049 265.749, 528.686 262.860, 530.130 261.313 C 534.036 257.128, 535 254.680, 535 248.950 C 535 244.181, 534.682 243.478, 531 240.113 C 528.800 238.102, 527 235.964, 527 235.363 C 527 233.400, 522.898 229, 521.068 229 C 520.086 229, 517.237 227.200, 514.737 225 C 510.530 221.296, 509.755 221, 504.277 221 C 499.244 221, 498.042 221.366, 496.230 223.451 M 358.667 339.667 C 357.121 341.212, 358.151 344.869, 360.581 346.461 C 363.970 348.682, 366 347.785, 366 344.067 C 366 340.292, 361.025 337.308, 358.667 339.667 M 636.621 341.521 C 634.848 343.295, 634.694 344.039, 635.607 346.418 C 636.424 348.547, 638.317 348.412, 640.433 346.074 C 643.856 342.292, 640.208 337.934, 636.621 341.521" stroke="none" fill="#ffffff" fill-rule="evenodd"/>
</svg>