<svg xmlns="http://www.w3.org/2000/svg" width="907" height="1000" viewBox="0 0 907 1000" version="1.1">
	<path d="M 383.200 24.200 C 382.309 25.091, 382 35.231, 382 63.641 C 382 86.926, 381.626 102.113, 381.042 102.474 C 380.516 102.799, 355.878 103.047, 326.292 103.024 C 292.645 102.998, 271.189 103.363, 269 104 C 267.075 104.559, 260.804 105.246, 255.065 105.527 C 244.413 106.046, 241.871 106.630, 245.794 107.656 C 247.007 107.974, 248 108.856, 248 109.617 C 248 110.377, 248.450 111, 249 111 C 250.185 111, 250.399 132.635, 249.221 133.363 C 248.793 133.628, 248.466 239.396, 248.495 368.402 C 248.542 577.621, 248.383 603.027, 247.024 603.580 C 244.025 604.801, 250.340 606.146, 257.676 605.848 C 263.674 605.604, 265.211 605.881, 267.031 607.528 C 269.171 609.465, 271.383 609.505, 390.314 609.762 C 510.214 610.021, 511.458 610.004, 515.459 607.997 C 517.682 606.883, 522.200 604.389, 525.500 602.456 C 528.800 600.522, 532.850 598.264, 534.500 597.438 C 536.150 596.612, 538.850 595.065, 540.500 594 C 542.150 592.935, 544.850 591.383, 546.500 590.552 C 548.150 589.720, 550.175 588.588, 551 588.035 C 553.481 586.372, 575.085 574, 575.508 574 C 575.723 574, 577.877 572.666, 580.293 571.035 C 582.710 569.404, 585.770 567.605, 587.094 567.037 C 588.417 566.469, 590.175 565.573, 591 565.046 C 591.825 564.519, 599.250 560.235, 607.500 555.526 C 615.750 550.817, 623.175 546.519, 624 545.976 C 624.825 545.432, 626.175 544.688, 627 544.323 C 627.825 543.958, 634.227 540.309, 641.226 536.216 C 655.809 527.687, 655.310 528.523, 654.803 513.500 L 654.500 504.500 532.500 503.990 C 465.400 503.710, 410.387 503.372, 410.250 503.240 C 410.113 503.108, 410 471.780, 410 433.622 C 410 377.366, 410.250 364.038, 411.320 363.149 C 412.230 362.394, 428.637 361.967, 464.070 361.777 L 515.500 361.500 525.194 355.750 C 530.526 352.587, 535.364 350, 535.944 350 C 536.525 350, 537 349.594, 537 349.098 C 537 348.602, 538.237 347.708, 539.750 347.112 C 541.263 346.516, 543.175 345.575, 544 345.020 C 544.825 344.466, 552.250 340.178, 560.500 335.491 C 568.750 330.805, 576.175 326.527, 577 325.983 C 577.825 325.440, 579.400 324.594, 580.500 324.103 C 581.600 323.612, 588.350 319.737, 595.500 315.491 C 602.650 311.245, 609.400 307.374, 610.500 306.888 C 611.600 306.402, 613.175 305.562, 614 305.021 C 614.825 304.479, 622.250 300.183, 630.500 295.474 C 638.750 290.765, 646.175 286.481, 647 285.954 C 647.825 285.427, 649.521 284.554, 650.768 284.016 C 652.015 283.477, 653.478 281.874, 654.018 280.453 C 655.089 277.635, 655.372 261.133, 654.393 258.582 C 653.844 257.151, 642.174 257, 532.500 257 C 422.826 257, 411.156 256.849, 410.607 255.418 C 409.706 253.070, 409.901 130.704, 410.808 129.276 C 411.401 128.343, 423.915 127.987, 463.543 127.776 L 515.500 127.500 527 120.735 C 533.325 117.015, 539.175 113.526, 540 112.983 C 540.825 112.440, 542.491 111.566, 543.701 111.041 C 544.912 110.516, 547.837 108.857, 550.201 107.354 C 555.108 104.234, 563.090 99.662, 567.500 97.445 C 569.150 96.615, 571.850 95.050, 573.500 93.966 C 575.150 92.882, 577.850 91.307, 579.500 90.466 C 581.150 89.625, 583.850 88.057, 585.500 86.983 C 587.150 85.909, 589.400 84.623, 590.500 84.125 C 592.394 83.268, 606.787 75.050, 610 72.991 C 610.825 72.462, 612.850 71.349, 614.500 70.517 C 616.150 69.685, 618.850 68.108, 620.500 67.013 C 622.150 65.918, 624.175 64.718, 625 64.346 C 629.461 62.336, 652.681 48.337, 653.718 47.033 C 654.990 45.432, 655.528 27.540, 654.393 24.582 C 653.844 23.150, 640.993 23, 519.093 23 C 415.665 23, 384.121 23.279, 383.200 24.200 M 410.672 47.662 C 409.611 48.722, 409.872 101.803, 410.941 102.463 C 411.458 102.783, 434.837 103.054, 462.893 103.065 L 513.904 103.086 518 100.500 C 520.254 99.077, 523.088 97.484, 524.299 96.959 C 525.509 96.434, 527.175 95.570, 528 95.038 C 528.825 94.506, 536.250 90.218, 544.500 85.509 C 552.750 80.799, 560.175 76.506, 561 75.967 C 561.825 75.428, 563.175 74.695, 564 74.338 C 565.170 73.831, 587.997 60.761, 596 56.015 C 596.825 55.526, 599.874 53.893, 602.775 52.387 C 605.676 50.881, 607.888 49.165, 607.691 48.574 C 607.292 47.374, 411.864 46.469, 410.672 47.662 M 256.250 109.220 C 254.332 110.145, 254 111.096, 254 115.653 C 254 119.739, 254.354 121, 255.500 121 C 256.667 121, 257 122.333, 257 127 L 257 133 260 133 C 262.514 133, 263 132.605, 263 130.559 C 263 129.216, 263.450 127.840, 264 127.500 C 264.552 127.159, 265 122.656, 265 117.441 L 265 108 261.750 108.068 C 259.962 108.105, 257.488 108.624, 256.250 109.220 M 266 232.508 L 266 337.016 323.750 336.758 L 381.500 336.500 381.755 233.608 C 381.941 158.410, 381.706 130.351, 380.882 129.358 C 379.957 128.243, 369.575 128, 322.878 128 L 266 128 266 232.508 M 411.018 282.966 C 410.339 284.235, 410.061 294.075, 410.233 310.716 L 410.500 336.500 462.687 336.759 L 514.873 337.018 519.332 334.009 C 521.784 332.354, 524.080 331, 524.435 331 C 525.025 331, 552.510 315.293, 556 312.962 C 556.825 312.411, 558.850 311.280, 560.500 310.448 C 562.150 309.617, 564.850 308.057, 566.500 306.983 C 568.150 305.909, 570.400 304.623, 571.500 304.125 C 572.600 303.628, 578.225 300.422, 584 297 C 589.775 293.578, 595.400 290.359, 596.500 289.847 C 601.961 287.301, 607 283.460, 607 281.845 C 607 281.380, 563.141 281, 509.535 281 C 413.657 281, 412.053 281.032, 411.018 282.966 M 263 349 C 263 355.667, 263.394 360, 264 360 C 264.606 360, 265 355.667, 265 349 C 265 342.333, 264.606 338, 264 338 C 263.394 338, 263 342.333, 263 349 M 266.667 362.667 C 266.300 363.033, 266 412.983, 266 473.667 L 266 584 389.908 584 L 513.815 584 518.658 581.411 C 521.321 579.987, 524.850 577.967, 526.500 576.922 C 528.150 575.877, 530.175 574.710, 531 574.329 C 531.825 573.948, 538.800 569.972, 546.500 565.492 C 554.200 561.013, 561.175 557.040, 562 556.663 C 562.825 556.286, 564.850 555.088, 566.500 554 C 568.150 552.912, 570.175 551.720, 571 551.351 C 572.484 550.687, 595.105 537.780, 598 535.946 C 598.825 535.423, 600.400 534.594, 601.500 534.104 C 602.600 533.613, 604.591 532.039, 605.924 530.606 L 608.349 528 496.374 528 C 410.617 528, 384.119 527.719, 383.200 526.800 C 382.286 525.886, 382 506.319, 382 444.835 C 382 366.009, 381.954 364.046, 380.066 363.035 C 377.909 361.881, 267.810 361.523, 266.667 362.667 M 263 594.500 C 263 599.500, 263.412 603, 264 603 C 264.588 603, 265 599.500, 265 594.500 C 265 589.500, 264.588 586, 264 586 C 263.412 586, 263 589.500, 263 594.500 M 7.453 788.263 C 7.186 788.957, 7.088 802.345, 7.234 818.013 L 7.500 846.500 26.203 846.772 C 44.033 847.031, 44.956 846.950, 45.977 845.042 C 46.566 843.942, 46.764 841.907, 46.416 840.521 L 45.783 838 32.473 838 C 25.153 838, 18.452 837.727, 17.582 837.393 C 16.326 836.911, 16 835.175, 16 828.972 L 16 821.159 18.917 820.518 C 20.521 820.166, 26.136 820.006, 31.393 820.162 C 42.544 820.495, 44.417 819.617, 41.949 815.215 C 40.457 812.552, 40.218 812.494, 29.523 812.214 C 23.526 812.057, 18.030 811.439, 17.309 810.842 C 15.726 809.527, 15.510 798.421, 17.049 797.470 C 17.626 797.113, 23.589 796.678, 30.299 796.504 C 37.010 796.330, 43.231 796.145, 44.125 796.094 C 46.165 795.976, 47.462 790.262, 45.881 788.357 C 44.304 786.457, 8.180 786.368, 7.453 788.263 M 83.477 788.199 C 83.197 788.929, 83.088 802.345, 83.234 818.013 L 83.500 846.500 87 846.500 L 90.500 846.500 90.772 827.250 C 90.921 816.663, 91.399 808, 91.834 808 C 92.645 808, 96.063 812.326, 97.365 815 C 98.199 816.712, 100.402 820.401, 107.500 831.969 C 110.250 836.451, 113.085 841.213, 113.801 842.551 C 115.462 845.657, 118.371 847.207, 121.799 846.812 L 124.500 846.500 124.765 817.273 L 125.030 788.046 122.360 787.376 C 116.814 785.984, 116.504 787.006, 116.457 806.824 C 116.433 816.777, 116.180 825.153, 115.895 825.438 C 115.253 826.080, 108.503 817.328, 107.047 813.967 C 106.459 812.610, 104.188 808.800, 102 805.500 C 99.812 802.200, 97.581 798.600, 97.042 797.500 C 94.051 791.392, 90.330 787.491, 87.203 787.186 C 85.209 786.992, 83.793 787.377, 83.477 788.199 M 159.250 787.662 C 157.820 788.239, 157.602 792.823, 158.907 794.883 C 159.512 795.839, 161.647 796.224, 165.818 796.130 C 169.137 796.055, 173.003 796.431, 174.408 796.965 L 176.964 797.937 177.232 822.218 L 177.500 846.500 181 846.500 L 184.500 846.500 184.769 823.058 C 185.091 795.001, 184.693 796, 195.530 796 L 202.750 796 203.379 792.857 C 204.518 787.162, 203.861 786.992, 181.128 787.079 C 169.782 787.122, 159.938 787.385, 159.250 787.662 M 237.489 788.167 C 237.203 788.914, 237.088 802.339, 237.234 818 C 237.483 844.674, 237.616 846.496, 239.329 846.825 C 240.335 847.019, 242.248 846.904, 243.579 846.570 C 245.955 845.973, 246 845.760, 246 835.052 C 246 822.453, 246.965 820.411, 252.374 821.559 C 256.208 822.373, 258.732 824.510, 260.545 828.480 C 262.283 832.284, 266.968 840.642, 269.387 844.250 C 270.930 846.552, 271.945 847, 275.615 847 C 278.027 847, 280 846.621, 280 846.157 C 280 845.694, 278.883 843.331, 277.517 840.907 C 276.151 838.483, 274.560 835.417, 273.982 834.094 C 273.404 832.770, 271.596 829.710, 269.965 827.293 C 268.334 824.877, 267 822.532, 267 822.083 C 267 821.633, 268.730 820.121, 270.844 818.722 C 276.339 815.085, 278.373 810.236, 277.735 802.289 C 277.159 795.115, 275.773 792.991, 269.500 789.669 C 266.120 787.880, 263.369 787.494, 251.755 787.180 C 240.837 786.885, 237.904 787.088, 237.489 788.167 M 317.234 787.834 C 316.251 788.458, 316.028 795.089, 316.234 817.569 L 316.500 846.500 335.500 846.500 L 354.500 846.500 354.500 842.500 L 354.500 838.500 340.500 838 C 332.800 837.725, 325.938 837.136, 325.250 836.691 C 324.447 836.171, 324 833.391, 324 828.916 C 324 822.240, 324.114 821.907, 326.750 820.895 C 328.262 820.315, 333.775 819.929, 339 820.038 C 351.968 820.310, 351.168 820.566, 350.810 816.250 L 350.500 812.500 338.562 812.217 C 331.860 812.058, 326.049 811.456, 325.312 810.844 C 324.500 810.170, 324 807.504, 324 803.853 C 324 798.349, 324.184 797.881, 326.721 796.916 C 328.218 796.347, 334.671 795.979, 341.062 796.098 C 347.452 796.218, 353.148 796.026, 353.721 795.673 C 355.483 794.584, 355.851 789.994, 354.301 788.444 C 353.153 787.296, 349.332 787.003, 335.679 787.015 C 326.230 787.024, 317.930 787.392, 317.234 787.834 M 393.184 787.804 C 392.147 788.510, 391.879 794.669, 391.918 816.919 C 391.945 832.439, 392.226 845.557, 392.543 846.069 C 392.859 846.581, 394.453 847, 396.084 847 C 400.098 847, 401.152 843.918, 400.872 833 C 400.750 828.256, 400.981 823.840, 401.384 823.187 C 401.859 822.419, 405.186 821.998, 410.809 821.994 C 421.846 821.987, 426.170 820.763, 430.519 816.414 C 433.887 813.046, 434 812.686, 434 805.279 C 434 799.049, 433.593 797.030, 431.816 794.437 C 428.074 788.975, 424.198 787.793, 408.500 787.326 C 400.800 787.097, 393.908 787.312, 393.184 787.804 M 470.250 787.614 C 469.292 788.038, 469 794.890, 469 816.976 C 469 848.228, 468.776 847, 474.475 847 C 477.609 847, 478 845.497, 478 833.453 C 478 824.211, 478.213 822.957, 479.934 822.035 C 484.412 819.639, 489.551 822.486, 492.971 829.257 C 497.671 838.562, 501.235 844.561, 502.769 845.750 C 504.719 847.261, 510.631 847.407, 511.521 845.966 C 511.872 845.397, 509.126 839.708, 505.418 833.322 L 498.676 821.712 501.588 819.612 C 509.170 814.146, 511.539 809.138, 510.272 801.250 C 509.481 796.318, 506.428 792.292, 501.500 789.679 C 498.110 787.882, 495.517 787.520, 484.500 787.310 C 477.350 787.173, 470.938 787.310, 470.250 787.614 M 548.390 788.228 C 547.892 788.941, 547.720 802.033, 548 818 L 548.500 846.500 567.500 846.500 L 586.500 846.500 586.806 842.277 L 587.112 838.054 572.306 837.777 L 557.500 837.500 557.205 829.587 C 556.995 823.946, 557.282 821.427, 558.205 820.813 C 558.917 820.340, 564.450 820.059, 570.500 820.190 C 576.550 820.321, 582.063 820.080, 582.750 819.655 C 584.393 818.639, 584.353 814.538, 582.688 813.156 C 581.951 812.544, 576.140 811.942, 569.438 811.783 L 557.500 811.500 557.200 805.163 C 557.035 801.677, 557.372 798.257, 557.949 797.561 C 558.690 796.668, 562.888 796.270, 572.249 796.203 C 579.537 796.152, 585.863 796.085, 586.307 796.055 C 586.752 796.025, 586.977 794.087, 586.807 791.750 L 586.500 787.500 567.890 787.228 C 553.717 787.022, 549.068 787.260, 548.390 788.228 M 624.667 787.667 C 624.300 788.033, 624 801.533, 624 817.667 L 624 847 627.250 846.985 C 632.894 846.958, 632.928 846.849, 633.226 828.039 C 633.412 816.216, 633.862 810.545, 634.632 810.288 C 635.254 810.081, 639.529 816.262, 644.132 824.024 C 654.736 841.907, 654.186 840.998, 656.411 844.301 C 657.984 846.637, 658.896 847.053, 661.899 846.801 L 665.500 846.500 666 818 C 666.551 786.593, 666.554 786.613, 660.500 787.206 L 657.500 787.500 657.228 806.250 C 656.958 824.836, 656.304 827.956, 653.818 822.500 C 653.192 821.125, 652.345 820, 651.937 820 C 651.529 820, 650.700 818.763, 650.095 817.250 C 649.489 815.737, 648.208 813.311, 647.247 811.858 C 646.286 810.404, 643.925 806.643, 642 803.500 C 640.075 800.357, 637.719 796.596, 636.765 795.142 C 635.811 793.689, 634.607 791.549, 634.091 790.386 C 632.776 787.423, 626.672 785.662, 624.667 787.667 M 705.250 787.651 C 703.328 788.444, 703.453 844.301, 705.380 845.901 C 706.335 846.693, 712.428 846.962, 725.130 846.773 L 743.500 846.500 743.500 842.500 L 743.500 838.500 729 838 L 714.500 837.500 714.500 829 L 714.500 820.500 726.500 820.288 C 733.100 820.171, 738.865 820.058, 739.310 820.038 C 739.756 820.017, 739.981 818.313, 739.810 816.250 L 739.500 812.500 727 812 L 714.500 811.500 714.201 804.590 C 714.004 800.054, 714.308 797.428, 715.085 796.948 C 715.735 796.546, 722.065 796.250, 729.151 796.291 C 736.960 796.336, 742.450 795.950, 743.090 795.310 C 743.671 794.729, 744 792.735, 743.823 790.877 L 743.500 787.500 725 787.318 C 714.825 787.218, 705.938 787.368, 705.250 787.651 M 780.397 788.409 C 780.099 789.184, 780.001 799.422, 780.178 811.159 C 780.489 831.771, 780.585 832.652, 783 836.955 C 784.375 839.405, 787.300 842.653, 789.500 844.172 C 793.102 846.658, 794.364 846.937, 802.172 846.967 C 810.461 846.999, 811.036 846.854, 815.172 843.705 C 817.553 841.893, 820.512 838.405, 821.750 835.955 C 823.907 831.685, 823.989 830.587, 823.750 809.500 L 823.500 787.500 820 787.500 L 816.500 787.500 815.922 807.500 C 815.605 818.500, 814.980 828.625, 814.534 830 C 812.493 836.297, 805.794 839.674, 798.599 838.032 C 790.217 836.120, 789.107 832.510, 789.044 806.950 C 789.013 794.685, 788.639 789.039, 787.800 788.200 C 786.146 786.546, 781.056 786.689, 780.397 788.409 M 863.496 788.150 C 863.206 788.906, 863.088 802.345, 863.234 818.013 L 863.500 846.500 867 846.500 L 870.500 846.500 871 835.035 C 871.484 823.943, 871.585 823.522, 874.113 822.107 C 876.330 820.865, 877.214 820.846, 879.947 821.978 C 881.719 822.712, 883.587 824.255, 884.099 825.406 C 884.611 826.558, 885.894 828.850, 886.949 830.500 C 888.005 832.150, 889.826 835.387, 890.997 837.694 C 895.390 846.354, 898.770 848.560, 904.360 846.415 C 905.916 845.818, 904.950 843.627, 897.343 830.500 C 892.540 822.211, 892.530 822.177, 894.473 820.030 C 895.458 818.941, 896.992 817.815, 897.882 817.527 C 900.661 816.626, 904 809.517, 904 804.502 C 904 797.638, 901.125 793.194, 894 789.044 C 890.407 786.952, 864.250 786.185, 863.496 788.150 M 247.750 797.103 C 246.355 797.898, 246 799.467, 246 804.850 C 246 808.767, 246.504 812.104, 247.200 812.800 C 249.043 814.643, 259.927 814.285, 263.978 812.248 C 268.580 809.935, 270.016 805.354, 267.676 800.447 C 266.324 797.611, 265.453 796.979, 262.766 796.882 C 260.970 796.817, 257.250 796.616, 254.500 796.436 C 251.750 796.255, 248.713 796.556, 247.750 797.103 M 402.114 796.832 C 400.613 797.866, 400.028 810.619, 401.382 812.809 C 401.863 813.587, 405.231 814, 411.104 814 C 419.271 814, 420.311 813.780, 422.505 811.586 C 423.832 810.258, 425.213 808, 425.573 806.567 C 426.358 803.436, 424.460 798.394, 422.158 797.498 C 419.242 796.364, 403.552 795.842, 402.114 796.832 M 480.250 796.770 C 478.140 797.116, 478 797.625, 478 804.963 C 478 813.909, 478.086 814, 486.517 814 C 495.865 814, 501 810.632, 501 804.500 C 501 800.249, 498.109 797.018, 494.250 796.956 C 492.738 796.931, 489.475 796.796, 487 796.656 C 484.525 796.516, 481.488 796.567, 480.250 796.770 M 873.250 797.023 C 871.218 797.847, 871 798.613, 871 804.933 C 871 813.199, 871.827 814, 880.369 814 C 890.175 814, 894 811.334, 894 804.500 C 894 799.937, 892.175 797.066, 889.179 796.916 C 888.255 796.869, 884.800 796.669, 881.500 796.471 C 878.200 796.273, 874.487 796.522, 873.250 797.023 M 259.714 914.619 C 258.558 915.775, 258.860 968.870, 260.035 971.066 C 261.567 973.927, 266.789 973.707, 267.512 970.750 C 267.814 969.513, 267.935 956.350, 267.781 941.500 L 267.500 914.500 263.964 914.202 C 262.020 914.039, 260.107 914.226, 259.714 914.619 M 307.667 914.667 C 306.688 915.645, 306.882 970.266, 307.870 971.824 C 308.375 972.621, 310.063 973.019, 312.105 972.824 L 315.500 972.500 316 954.582 C 316.340 942.380, 316.866 936.542, 317.648 936.282 C 318.280 936.073, 320.305 938.447, 322.148 941.558 C 323.992 944.670, 326.175 948.263, 327 949.544 C 327.825 950.825, 331.063 956.102, 334.196 961.270 C 337.329 966.438, 340.562 971.222, 341.381 971.901 C 342.200 972.581, 344.361 972.993, 346.185 972.818 L 349.500 972.500 349.500 943.500 L 349.500 914.500 345.273 914.194 L 341.046 913.887 340.773 932.111 C 340.588 944.445, 340.138 950.455, 339.381 950.707 C 338.765 950.912, 335.390 946.302, 331.881 940.462 C 328.371 934.623, 324.825 928.803, 324 927.530 C 323.175 926.257, 321.004 922.692, 319.177 919.608 C 316.079 914.381, 315.598 914, 312.093 914 C 310.025 914, 308.033 914.300, 307.667 914.667 M 384.513 914.979 C 384.180 915.518, 384.449 916.970, 385.110 918.206 C 385.772 919.442, 386.667 921.814, 387.100 923.476 C 388.275 927.990, 391.031 936.082, 392.608 939.651 C 393.373 941.384, 394.016 943.634, 394.035 944.651 C 394.055 945.668, 394.714 947.625, 395.500 949 C 396.286 950.375, 396.948 952.400, 396.971 953.500 C 396.994 954.600, 397.642 956.707, 398.412 958.183 C 399.182 959.658, 400.131 962.358, 400.521 964.183 C 401.712 969.749, 404.123 973, 407.061 973 C 410.392 973, 412.611 970.557, 413.885 965.485 C 415.189 960.296, 420.835 943.390, 422.613 939.349 C 423.376 937.616, 424.016 935.366, 424.035 934.349 C 424.055 933.332, 424.714 931.375, 425.500 930 C 426.286 928.625, 426.948 926.600, 426.971 925.500 C 426.994 924.400, 427.685 922.211, 428.506 920.636 C 431.221 915.430, 430.578 914, 425.519 914 C 421.446 914, 420.982 914.250, 420.425 916.750 C 420.088 918.263, 419.180 920.918, 418.406 922.651 C 417.633 924.384, 417 926.506, 417 927.367 C 417 928.228, 416.373 930.410, 415.608 932.216 C 414.842 934.022, 413.225 938.875, 412.014 943 C 410.804 947.125, 409.644 951.063, 409.438 951.750 C 408.820 953.808, 406.020 953.164, 405.094 950.750 C 404.620 949.513, 403.247 945.125, 402.045 941 C 400.842 936.875, 399.445 932.727, 398.941 931.782 C 398.436 930.837, 397.590 928.133, 397.061 925.773 C 396.532 923.414, 395.396 919.799, 394.536 917.742 C 393.107 914.320, 392.637 914, 389.046 914 C 386.885 914, 384.846 914.441, 384.513 914.979 M 465.667 914.667 C 465.300 915.033, 465 927.803, 465 943.044 C 465 965.393, 465.267 970.977, 466.381 971.901 C 467.334 972.692, 473.299 972.962, 485.631 972.774 L 503.500 972.500 503.500 968.500 L 503.500 964.500 489 964 L 474.500 963.500 474.500 955.500 L 474.500 947.500 486.787 947.219 C 498.906 946.942, 499.086 946.903, 500.037 944.403 C 500.668 942.743, 500.649 941.212, 499.981 939.965 C 499.079 938.278, 497.568 938.029, 486.731 937.781 L 474.500 937.500 474.200 931.163 C 473.763 921.925, 473.928 921.824, 489.021 922.089 C 495.987 922.212, 502.207 921.990, 502.843 921.597 C 503.479 921.204, 504 919.334, 504 917.441 L 504 914 485.167 914 C 474.808 914, 466.033 914.300, 465.667 914.667 M 547.238 915.938 C 541.680 919.045, 539.533 922.672, 539.533 928.957 C 539.533 939.073, 543.554 941.973, 564.725 947.123 C 576.315 949.943, 576.408 961.864, 564.858 964.056 C 555.933 965.750, 548.086 962.463, 546.562 956.390 C 546.054 954.367, 545.346 954, 541.950 954 C 537.206 954, 536.185 955.617, 538.062 960.151 C 543.089 972.286, 558.411 977.530, 571.434 971.573 C 577.454 968.819, 580.006 966.043, 581.961 960.118 C 583.110 956.636, 583.107 955.353, 581.938 951.813 C 581.178 949.511, 579.532 946.409, 578.279 944.920 C 575.821 941.999, 564.568 937, 560.450 937 C 557.536 937, 550.973 933.877, 549.071 931.586 C 548.295 930.651, 548.036 928.993, 548.424 927.447 C 550.155 920.549, 567.058 920.344, 570.592 927.178 C 573.003 931.840, 580 930.649, 580 925.577 C 580 924.427, 577.779 921.490, 574.858 918.777 L 569.717 914 560.108 914.057 C 552.748 914.101, 549.737 914.542, 547.238 915.938 M 611.397 915.408 C 611.092 916.203, 610.990 917.900, 611.171 919.177 C 611.474 921.318, 612.086 921.539, 619 922 C 623.125 922.275, 627.063 922.864, 627.750 923.309 C 628.691 923.918, 629 929.864, 629 947.359 C 629 972.278, 629.143 973, 634.083 973 C 636.021 973, 636.934 972.375, 637.370 970.750 C 637.701 969.513, 637.979 958.315, 637.986 945.867 C 638.002 919.938, 637.108 922.040, 648.128 922.014 C 654.320 921.999, 656.367 920.614, 655.827 916.805 L 655.500 914.500 633.726 914.230 C 615.474 914.004, 611.862 914.195, 611.397 915.408" stroke="none" fill="#ffffff" fill-rule="evenodd"/>
</svg>