<svg xmlns="http://www.w3.org/2000/svg" width="990" height="1000" viewBox="0 0 990 1000" version="1.1">
	<path d="M 150 368.940 C 141.475 369.248, 133.898 369.888, 133.163 370.363 C 132.352 370.886, 132.074 372.066, 132.456 373.363 C 135.348 383.170, 135.965 395.177, 135.982 442.026 C 136.001 492.522, 135.305 504.521, 131.982 511.036 C 128.545 517.771, 129.456 517.922, 175.500 518.222 C 217.461 518.495, 216.252 518.795, 219.485 507.299 C 220.021 505.391, 218.488 497, 217.604 497 C 216.829 497, 203.418 504.278, 200.937 506.045 C 197.248 508.672, 180.146 508.882, 175.500 506.357 C 173.850 505.461, 171.352 504.125, 169.949 503.389 C 168.545 502.654, 166.295 500.880, 164.949 499.448 C 162.543 496.889, 162.495 496.494, 162.190 476.773 C 161.856 455.075, 162.191 453.107, 167.011 448.489 C 169.325 446.273, 170.419 445.881, 172.689 446.458 C 174.235 446.851, 178.425 447.532, 182 447.971 C 185.575 448.410, 192.260 449.576, 196.855 450.563 C 206.514 452.637, 208.033 452.158, 209.342 446.622 C 210.569 441.435, 209.377 436.075, 206.784 435.116 C 204.044 434.102, 194.980 436.231, 190.654 438.905 C 188.600 440.174, 185.583 441, 182.998 441 C 180.652 441, 177.007 441.517, 174.898 442.149 C 170.228 443.548, 169.060 442.775, 164.915 435.549 L 162.019 430.500 162.009 409.700 C 161.999 386.614, 162.457 384.521, 168.299 380.960 C 170.994 379.316, 173.361 379.007, 183.283 379.004 C 193.874 379, 195.566 379.253, 200 381.500 C 202.713 382.875, 205.535 384, 206.271 384 C 207.007 384, 209.691 385.321, 212.236 386.935 C 216.403 389.578, 216.995 389.711, 218.182 388.279 C 218.928 387.379, 219.477 384.373, 219.447 381.355 C 219.403 376.919, 218.924 375.531, 216.601 373.105 C 215.035 371.471, 211.896 369.708, 209.461 369.094 C 204.997 367.971, 178.711 367.902, 150 368.940 M 453 368.949 C 451.075 369.345, 447.250 370.424, 444.500 371.347 C 441.750 372.270, 436.305 373.918, 432.399 375.010 C 424.668 377.172, 409.867 386.357, 405.816 391.507 C 404.578 393.080, 402.090 395.843, 400.287 397.647 C 398.483 399.450, 395.896 403.439, 394.537 406.511 C 393.179 409.583, 391.117 413.431, 389.955 415.063 C 385.712 421.022, 383.806 442.889, 386.154 458.676 C 387.885 470.317, 395.204 484.355, 404.023 492.952 C 413.107 501.807, 423.661 508.250, 433.534 510.966 C 437.915 512.172, 445.100 514.284, 449.500 515.659 C 459.343 518.734, 479.368 519.903, 490.995 518.081 C 500.726 516.555, 517.193 511.423, 520.368 508.925 C 524.329 505.810, 525.039 501.643, 525.320 479.899 C 525.555 461.722, 525.824 458.850, 527.792 453.535 C 530.868 445.225, 530.108 444.603, 516.341 444.155 C 504.503 443.770, 498.135 444.449, 495.497 446.378 C 493.829 447.598, 493.895 447.963, 496.612 452.587 L 499.500 457.500 499.840 477.812 L 500.180 498.125 494.613 503.692 L 489.046 509.259 478.177 508.811 C 469.359 508.448, 466.479 507.930, 462.905 506.064 C 460.482 504.799, 455.223 502.501, 451.217 500.957 C 443.248 497.885, 438.298 494.241, 429.280 484.805 C 426.959 482.377, 424.085 478.165, 422.894 475.445 C 421.702 472.725, 419.931 469.365, 418.958 467.978 C 414.924 462.228, 413.587 454.368, 413.607 436.500 C 413.619 425.687, 414.094 417.862, 414.913 415 C 418.158 403.658, 432.071 387.135, 440.224 384.940 C 442.529 384.319, 447.450 382.221, 451.159 380.278 L 457.904 376.745 469.202 377.200 C 478.706 377.583, 481.294 378.054, 485.500 380.167 C 488.250 381.548, 493.824 383.727, 497.886 385.008 C 504.557 387.113, 505.670 387.853, 509.382 392.650 C 514.453 399.204, 518.168 401.063, 521.026 398.477 C 522.705 396.957, 523 395.382, 523 387.934 C 523 379.414, 522.918 379.109, 519.971 376.629 C 518.304 375.227, 515.492 373.856, 513.721 373.583 C 509.205 372.887, 498.765 371.019, 490.500 369.427 C 483.160 368.014, 459.047 367.707, 453 368.949 M 628.310 369.047 C 626.006 369.503, 623.081 370.529, 621.810 371.327 C 620.540 372.125, 615.900 373.555, 611.500 374.504 C 602.902 376.358, 599.148 377.912, 596.994 380.507 C 596.246 381.409, 593.991 382.984, 591.983 384.009 C 587.850 386.117, 578.799 395.138, 575.780 400.159 C 574.674 401.997, 572.957 404.272, 571.964 405.215 C 570.971 406.159, 568.251 412.909, 565.921 420.215 C 562.127 432.111, 561.681 434.545, 561.653 443.500 C 561.626 452.013, 562.104 455.061, 564.869 464 C 568.532 475.847, 569.524 477.912, 576.387 487.976 C 579.368 492.346, 583.465 496.751, 586.887 499.265 C 589.974 501.532, 593.639 504.414, 595.031 505.670 C 596.423 506.926, 604.298 510.325, 612.531 513.224 L 627.500 518.494 643 518.487 C 658.280 518.480, 658.592 518.435, 665 515.367 C 668.575 513.656, 673.898 511.694, 676.829 511.009 C 679.885 510.294, 684.089 508.289, 686.686 506.306 C 689.176 504.405, 693.416 501.495, 696.107 499.839 C 698.798 498.183, 701 496.407, 701 495.892 C 701 495.377, 702.807 492.995, 705.016 490.599 C 710.734 484.395, 718.929 468.821, 720.585 461.009 C 722.216 453.319, 722.458 428.688, 720.980 420.886 C 720.418 417.924, 719.128 413.925, 718.112 412 C 711.529 399.523, 709.486 396.514, 703.742 390.835 C 691.536 378.768, 688.104 377.163, 658 369.442 C 652.049 367.916, 635.172 367.691, 628.310 369.047 M 288.750 369.689 C 285.916 370.430, 286.731 372.480, 290.759 374.744 C 292.827 375.907, 295.543 378.244, 296.796 379.938 C 298.049 381.633, 300.735 383.802, 302.766 384.760 C 305.600 386.096, 307.346 388.125, 310.288 393.500 C 314.831 401.801, 316.458 408.448, 315.508 414.834 C 313.960 425.247, 302.485 437.967, 291.282 441.688 C 286.082 443.415, 283 445.598, 283 447.554 C 283 449.196, 288.967 458.462, 293.268 463.500 C 295.147 465.700, 297.968 469.894, 299.539 472.820 C 301.109 475.747, 303.163 478.552, 304.103 479.055 C 305.043 479.558, 306.981 482.061, 308.410 484.617 C 313.683 494.052, 328.122 509.019, 336.509 513.744 C 345.159 518.617, 359.740 520.339, 367.415 517.394 C 370.495 516.212, 369.072 513.357, 364.039 510.618 C 361.310 509.132, 358.124 506.579, 356.960 504.944 C 355.795 503.308, 353.640 501.326, 352.171 500.539 C 350.702 499.752, 346.575 495.645, 343 491.413 C 339.425 487.181, 335.111 482.319, 333.413 480.609 C 331.715 478.899, 328.947 475.475, 327.263 473 C 325.578 470.525, 322.771 467.150, 321.026 465.500 C 316.738 461.447, 311 451.827, 311 448.692 C 311 446.665, 312.174 445.428, 316.750 442.635 C 319.913 440.705, 325.307 435.923, 328.738 432.010 C 336.578 423.065, 338.508 417.379, 337.721 405.552 C 337.033 395.207, 335.543 391.953, 327.815 383.912 C 322.984 378.886, 320.113 376.812, 315.704 375.162 C 312.526 373.973, 309.550 373, 309.093 373 C 308.635 373, 305.443 372.100, 302 371 C 295.961 369.071, 292.447 368.723, 288.750 369.689 M 839.173 371.255 C 836.990 372.305, 836.882 372.780, 837.423 378.937 C 838.526 391.489, 839.761 457.528, 838.976 461.946 C 838.205 466.281, 836.001 469, 833.260 469 C 832.513 469, 828.661 465.588, 824.701 461.419 C 820.740 457.249, 805.350 441.544, 790.500 426.520 C 775.650 411.496, 761.807 397.357, 759.738 395.101 C 755.452 390.429, 755.065 390.317, 751.940 392.848 C 749.970 394.443, 749.597 395.853, 749.214 403.138 C 748.971 407.782, 749.288 414.068, 749.919 417.108 C 751.063 422.620, 751.147 422.715, 780.813 452.068 C 827.846 498.602, 839.161 509.310, 844.410 512.250 C 850.307 515.553, 851.136 515.612, 853.595 512.896 C 855.410 510.891, 855.532 507.819, 856.176 447.646 C 856.548 412.916, 857.147 381.744, 857.508 378.377 L 858.165 372.253 854.933 371.127 C 850.870 369.710, 842.238 369.780, 839.173 371.255 M 630.886 376.963 C 628.898 377.336, 626.065 378.590, 624.590 379.751 C 623.115 380.911, 618.768 383.060, 614.930 384.527 C 609.663 386.539, 607.585 387.901, 606.459 390.079 C 605.638 391.666, 603.646 393.941, 602.032 395.134 C 598.790 397.531, 598.952 397.232, 594.802 408.500 C 589.702 422.344, 589 425.884, 589 437.743 C 589 446.676, 589.435 450.252, 591.073 454.775 C 592.214 457.924, 594.280 464.316, 595.664 468.979 C 597.419 474.891, 599.183 478.567, 601.488 481.119 C 603.307 483.132, 605.064 485.627, 605.393 486.663 C 606.253 489.371, 617.385 498.893, 621.237 500.215 C 623.032 500.831, 626.300 502.462, 628.500 503.839 C 634.562 507.635, 640.386 509, 650.523 509 C 658.888 509, 659.945 508.783, 662.114 506.616 C 663.426 505.304, 667.562 502.785, 671.305 501.017 C 677.117 498.272, 678.639 496.978, 681.729 492.152 C 683.720 489.043, 686.426 484.856, 687.743 482.847 C 691.994 476.363, 693.156 470.532, 693.693 453 C 694.301 433.166, 692.588 419.947, 688.655 414.142 C 687.298 412.139, 684.908 407.936, 683.344 404.802 C 679.204 396.506, 668.256 386.914, 659.667 384.055 C 656.083 382.863, 652.615 381.241, 651.959 380.451 C 649.763 377.805, 637.353 375.751, 630.886 376.963 M 377.454 577.410 C 375.620 578.751, 375.541 580.077, 375.860 604.160 C 376.044 618.097, 376.403 629.837, 376.657 630.250 C 377.481 631.590, 381.770 631.041, 382.354 629.520 C 382.666 628.706, 383.453 622.223, 384.103 615.112 C 385.004 605.248, 385.007 601.086, 384.118 597.554 C 383.425 594.801, 383.214 590.370, 383.598 586.623 C 384.536 577.466, 382.189 573.947, 377.454 577.410 M 608.748 577.395 C 607.604 578.539, 607.432 583.277, 607.793 603.645 C 608.050 618.103, 608.655 629.023, 609.240 629.750 C 610.585 631.423, 613.478 631.334, 614.938 629.575 C 615.769 628.574, 616.115 621.799, 616.099 606.825 C 616.087 595.096, 616.136 583.975, 616.208 582.110 C 616.401 577.093, 611.896 574.246, 608.748 577.395 M 818.917 577.600 C 817.874 578.857, 817.650 584.471, 817.877 603.734 C 818.036 617.228, 818.395 628.865, 818.675 629.596 C 819.392 631.463, 822.591 632.289, 824.712 631.154 C 826.364 630.270, 826.492 628.200, 826.395 603.997 C 826.309 582.761, 826.025 577.630, 824.895 576.914 C 822.756 575.559, 820.384 575.832, 818.917 577.600 M 494.317 578.250 C 493.142 580.085, 493.987 628.242, 495.222 629.750 C 496.675 631.525, 499.425 631.297, 501.249 629.250 C 502.510 627.835, 502.641 626.460, 501.935 622.063 C 500.664 614.152, 500.653 590.980, 501.919 587.685 C 503.498 583.574, 503.246 580.532, 501.171 578.655 C 499.009 576.698, 495.446 576.487, 494.317 578.250 M 271.033 580.461 C 269.326 582.517, 268.568 589.402, 269.803 591.632 C 270.372 592.659, 272.787 594.198, 275.169 595.051 C 279.482 596.595, 279.499 596.619, 279.176 601.051 C 278.262 613.598, 278.157 613.141, 282.718 616.445 C 285.037 618.125, 287.215 620.625, 287.557 622 C 289.813 631.061, 291.166 632.717, 295.256 631.419 C 296.985 630.870, 297.174 630.110, 296.775 625.298 C 296.401 620.787, 295.776 619.297, 293.283 616.967 C 291.003 614.836, 289.803 612.308, 288.462 606.815 C 287.082 601.161, 285.944 598.819, 283.451 596.500 C 281.114 594.326, 280.041 592.262, 279.552 589 C 278.475 581.809, 277.056 579, 274.501 579 C 273.260 579, 271.699 579.657, 271.033 580.461 M 145.540 583.937 C 144.129 586.172, 142.375 588, 141.642 588 C 138.463 588, 136.673 591.936, 136.209 599.942 C 135.504 612.126, 136.271 614.530, 142.828 620.681 C 149.309 626.761, 152 627.486, 152 623.153 C 152 621.232, 150.816 619.088, 148.356 616.555 L 144.712 612.803 145.285 601.152 C 145.757 591.535, 146.160 589.325, 147.591 588.500 C 153.082 585.333, 154.556 580.797, 150.292 580.187 C 148.655 579.953, 147.459 580.897, 145.540 583.937 M 403.120 580.905 C 401.964 581.637, 401.943 582.900, 402.987 588.640 C 404.714 598.141, 404.648 598, 407.412 598 C 412.359 598, 414.682 590.154, 411.537 584.072 C 409.566 580.260, 406.161 578.979, 403.120 580.905 M 721.035 581.934 C 719.669 584.486, 719.717 590.285, 721.130 593.385 C 722.412 596.199, 727.142 598.543, 729.619 597.593 C 730.984 597.069, 731.181 595.954, 730.743 591.229 C 729.992 583.126, 728.359 580, 724.875 580 C 723.126 580, 721.681 580.728, 721.035 581.934 M 730.012 604.975 L 727.681 609.950 734.591 620.225 C 740.225 628.604, 742.007 630.558, 744.250 630.816 C 746.732 631.102, 747 630.828, 747 628 C 747 626.172, 745.924 623.456, 744.418 621.481 C 742.982 619.599, 740.981 614.675, 739.910 610.391 C 738.851 606.154, 737.483 602.082, 736.870 601.343 C 734.672 598.695, 732.386 599.906, 730.012 604.975" stroke="none" fill="#ffffff" fill-rule="evenodd"/>
</svg>