<svg xmlns="http://www.w3.org/2000/svg" width="1000" height="526" viewBox="0 0 1000 526" version="1.1">
	<path d="M 322.250 225.788 C 317.163 225.946, 313 226.469, 313 226.951 C 313 227.433, 314.889 229.216, 317.197 230.913 L 321.394 234 501.015 234 L 680.636 234 684.818 230.786 C 689.354 227.300, 689.971 226.059, 687.250 225.894 C 682.957 225.633, 330.509 225.531, 322.250 225.788 M 325.099 247.380 C 324.307 248.335, 324.038 254.428, 324.227 267.130 L 324.500 285.500 340 286.181 C 359.825 287.052, 365.383 285.526, 360.429 280.571 C 358.642 278.784, 358.038 278.702, 348.714 278.981 C 341.303 279.201, 337 277.420, 337 274.132 C 337 270.386, 340.162 269, 348.706 269 C 357.188 269, 359.513 267.919, 358.822 264.298 C 358.530 262.772, 357.268 262.462, 350.489 262.248 C 346.095 262.110, 341.537 261.776, 340.360 261.507 C 337.426 260.835, 336.592 258.109, 338.631 255.855 C 340.024 254.316, 341.808 254, 349.098 254 C 356.963 254, 358.045 253.774, 359.396 251.845 C 360.482 250.295, 360.628 249.174, 359.917 247.845 C 359.019 246.167, 357.450 246, 342.587 246 C 329.911 246, 325.988 246.310, 325.099 247.380 M 380.250 247.008 C 377.760 248.034, 377.709 248.357, 377.768 262.712 C 377.816 274.538, 379.712 279.836, 385.278 283.693 C 389.062 286.316, 389.990 286.500, 399.414 286.500 C 410.947 286.500, 414.132 285.316, 418.698 279.329 C 421.456 275.714, 421.500 275.438, 421.500 261.796 C 421.500 246.523, 421.310 246.044, 415.250 246.015 C 413.317 246.006, 411.190 246.810, 410 248 C 408.216 249.784, 408 251.333, 408 262.345 C 408 273.148, 407.766 274.902, 406.124 276.388 C 403.160 279.070, 397.988 279.401, 394.377 277.140 C 391.679 275.450, 391.158 274.417, 390.551 269.559 C 390.164 266.465, 390.123 261.136, 390.459 257.717 C 391.223 249.940, 389.764 246.592, 385.477 246.290 C 383.840 246.174, 381.488 246.497, 380.250 247.008 M 442.228 247.039 C 439.964 247.949, 439.957 248.020, 440.228 266.726 L 440.500 285.500 445.905 285.808 C 452.398 286.177, 452.964 285.537, 452.985 277.800 C 452.996 273.444, 453.409 271.871, 454.732 271.130 C 457.269 269.710, 461.778 272.697, 464.190 277.396 C 467.900 284.624, 470.152 286.280, 476.087 286.147 C 478.994 286.081, 481.768 285.632, 482.251 285.149 C 482.757 284.643, 480.960 281.103, 478.025 276.821 C 472.834 269.245, 472.356 266.656, 475.941 265.519 C 478.224 264.794, 480 260.809, 480 256.407 C 480 252.070, 476.778 248.587, 471.378 247.088 C 466.709 245.792, 445.423 245.756, 442.228 247.039 M 511.500 247.208 C 508.648 248.844, 507.305 250.903, 505.944 255.731 C 505.288 258.058, 504.161 260.452, 503.440 261.050 C 502.719 261.649, 501.831 263.570, 501.467 265.319 C 501.104 267.069, 499.896 270.075, 498.784 272 C 495.977 276.858, 493.856 284.256, 494.955 285.355 C 495.449 285.849, 497.573 286.290, 499.676 286.335 C 502.715 286.400, 504.151 285.759, 506.673 283.209 C 509.921 279.924, 511.455 279.548, 520 279.936 C 523.606 280.100, 524.996 280.724, 527 283.079 C 529.175 285.636, 530.175 286.017, 534.691 286.009 C 537.546 286.004, 540.139 285.584, 540.453 285.076 C 540.767 284.567, 539.894 282.025, 538.512 279.427 C 537.130 276.828, 535.986 273.982, 535.968 273.101 C 535.951 272.220, 535.290 270.646, 534.499 269.601 C 533.709 268.557, 532.315 265.407, 531.402 262.601 C 530.490 259.796, 529.161 256.825, 528.449 256 C 527.738 255.175, 526.844 253.252, 526.464 251.727 C 526.083 250.201, 524.823 248.289, 523.663 247.477 C 521.173 245.732, 514.336 245.581, 511.500 247.208 M 559.209 247.619 C 555.406 249.549, 552 253.502, 552 255.986 C 552 256.929, 552.485 259.093, 553.078 260.793 C 554 263.438, 555.263 264.304, 561.828 266.792 C 566.047 268.391, 570.847 270.028, 572.494 270.430 C 578.441 271.881, 579.661 275.091, 575.686 278.826 C 572.480 281.837, 570.033 281.560, 564 277.500 C 558.415 273.741, 554.982 273.112, 553.011 275.487 C 551.046 277.854, 552.674 281.634, 556.748 284.167 C 560.029 286.207, 561.762 286.500, 570.540 286.500 C 580.395 286.500, 580.658 286.439, 584.756 283.193 C 587.688 280.871, 589.123 278.864, 589.575 276.450 C 590.630 270.827, 589.409 268.379, 583.640 264.549 C 579.318 261.680, 577.343 261, 573.338 261 C 567.109 261, 564.716 259.381, 565.164 255.469 C 565.407 253.349, 566.237 252.279, 568.163 251.606 C 570.381 250.831, 571.363 251.127, 574.046 253.385 C 576.782 255.687, 578.035 256.050, 582.374 255.798 C 588.920 255.416, 589.578 253.306, 584.386 249.343 C 581.015 246.770, 579.799 246.474, 571.580 246.224 C 564.656 246.014, 561.718 246.345, 559.209 247.619 M 605.043 247.448 C 603.779 248.971, 603.169 282.846, 604.371 284.791 C 605.372 286.411, 609.680 287.072, 612.431 286.026 L 615 285.050 615 266.725 C 615 253.806, 614.646 248.046, 613.800 247.200 C 612.136 245.536, 606.498 245.695, 605.043 247.448 M 645.447 248.652 C 644.095 250.110, 642.464 253.148, 641.822 255.402 C 641.180 257.656, 640.111 260.175, 639.446 261 C 638.781 261.825, 637.915 263.625, 637.523 265 C 637.130 266.375, 635.529 270.200, 633.966 273.500 C 629.480 282.969, 629.273 284.773, 632.527 286.010 C 635.965 287.317, 638.610 286.506, 642.785 282.865 C 645.725 280.301, 646.800 280, 653.027 280 C 659.497 280, 660.172 280.210, 662.658 283 C 664.996 285.624, 665.999 286, 670.665 286 C 675.533 286, 675.999 285.803, 675.993 283.750 C 675.990 282.512, 675.093 280.150, 674 278.500 C 672.907 276.850, 672.010 274.909, 672.007 274.187 C 672.003 273.465, 670.617 269.865, 668.927 266.187 C 659.328 245.297, 659.891 246, 652.761 246 C 648.791 246, 647.456 246.484, 645.447 248.652 M 454.571 254.571 C 452.399 256.744, 452.594 260.712, 454.934 261.965 C 458.021 263.617, 462.514 263.170, 465.365 260.927 C 468.775 258.245, 468.687 257.389, 464.750 254.989 C 460.836 252.603, 456.710 252.433, 454.571 254.571 M 515.159 261.601 C 512.531 263.442, 510.795 267.303, 511.625 269.464 C 512.405 271.497, 518.616 272.564, 520.511 270.991 C 522.295 269.510, 522.430 266.038, 520.839 262.547 C 519.491 259.587, 518.315 259.391, 515.159 261.601 M 650.783 261.750 C 648.337 264.555, 646.804 268.046, 647.370 269.523 C 647.659 270.275, 649.498 271.190, 651.458 271.558 C 656.423 272.489, 658.358 270.726, 657.487 266.064 C 656.365 260.060, 653.734 258.367, 650.783 261.750 M 309.824 301.788 C 303.834 305.316, 300.096 309.814, 302.100 311.083 C 303.649 312.063, 417.891 312.363, 420.418 311.393 C 421.522 310.969, 422 309.484, 422 306.475 C 422 298.303, 427.067 298.998, 367.643 299.017 L 314.500 299.034 309.824 301.788 M 580.200 300.200 C 579.540 300.860, 579 303.245, 579 305.500 C 579 307.755, 579.540 310.140, 580.200 310.800 C 581.767 312.367, 699.541 312.551, 700.507 310.988 C 701.556 309.291, 696.790 304.387, 691.400 301.619 L 686.300 299 633.850 299 C 594.389 299, 581.103 299.297, 580.200 300.200 M 466.361 301.062 C 463.961 301.950, 462.798 304.310, 463.657 306.550 C 464.101 307.706, 465.426 308.023, 468.876 307.800 C 473.254 307.516, 473.500 307.344, 473.500 304.572 C 473.500 302.285, 472.946 301.496, 470.972 300.968 C 469.581 300.596, 467.507 300.638, 466.361 301.062 M 532.504 301.794 C 527.458 303.517, 526.190 305.257, 527.982 308 C 528.844 309.320, 529.335 309.290, 532.062 307.750 C 533.767 306.788, 535.971 306, 536.959 306 C 539.929 306, 541.355 303.498, 539.463 301.606 C 538.580 300.723, 537.777 300.020, 537.679 300.044 C 537.580 300.068, 535.252 300.855, 532.504 301.794 M 506.407 303.513 C 505.793 305.959, 507.298 309, 509.122 309 C 510.126 309, 510.297 304.939, 509.393 302.582 C 508.493 300.236, 507.123 300.663, 506.407 303.513 M 549.117 303.213 C 548.136 305.864, 548.709 308.514, 550.603 310.086 C 552.690 311.817, 556.942 308.738, 556.621 305.728 C 556.250 302.244, 555.141 301, 552.409 301 C 550.770 301, 549.660 301.746, 549.117 303.213 M 496.637 303.504 C 495.549 306.339, 495.934 309, 497.433 309 C 499.571 309, 500.479 305.050, 498.740 303.311 C 497.451 302.023, 497.196 302.046, 496.637 303.504 M 439.357 304.513 C 438.688 306.256, 440.792 309.246, 442.113 308.430 C 442.601 308.129, 443 306.784, 443 305.441 C 443 302.711, 440.311 302.025, 439.357 304.513 M 485.525 304.959 C 484.890 305.987, 487.011 310, 488.189 310 C 488.578 310, 488.425 308.650, 487.850 307 C 486.717 303.751, 486.429 303.497, 485.525 304.959 M 517.782 307.056 C 516.140 309.919, 516.588 311.513, 518.663 310.184 C 520.122 309.249, 521.271 305.286, 520.264 304.663 C 519.814 304.385, 518.697 305.462, 517.782 307.056" stroke="none" fill="#ffffff" fill-rule="evenodd"/>
</svg>