<svg xmlns="http://www.w3.org/2000/svg" width="1000" height="257" viewBox="0 0 1000 257" version="1.1">
	<path d="M 0 128.500 L 0 257 5.500 257 L 11 257 11 128.500 L 11 0 5.500 0 L 0 0 0 128.500 M 990 128.500 L 990 257 995 257 L 1000 257 1000 128.500 L 1000 0 995 0 L 990 0 990 128.500 M 90.223 59.557 L 88 61.113 88 103.434 C 88 141.581, 88.163 145.890, 89.654 147.128 C 90.907 148.168, 95.274 148.500, 107.690 148.500 C 125.647 148.500, 125.955 148.398, 125.985 142.441 C 126.011 137.102, 124.457 136.194, 114.669 135.829 C 103.265 135.404, 103 135.077, 103 121.431 C 103 114.475, 103.396 110.932, 104.250 110.258 C 104.938 109.715, 108.076 109.019, 111.224 108.710 C 114.373 108.402, 117.410 107.865, 117.974 107.516 C 119.149 106.790, 119.334 101.046, 118.235 99.400 C 116.953 97.480, 113.246 96, 109.721 96 C 104.251 96, 103 93.734, 103 83.826 C 103 72.788, 103.755 72, 114.329 72 C 123.341 72, 126 70.308, 126 64.571 C 126 58.467, 124.697 58, 107.651 58 C 95.507 58, 91.997 58.313, 90.223 59.557 M 192.751 59.250 C 191.265 60.389, 191.420 61.346, 194.483 70 C 196.333 75.225, 198.605 81.750, 199.531 84.500 C 200.458 87.250, 202.292 91.638, 203.608 94.251 C 205.072 97.159, 206 100.746, 206 103.500 C 206 106.254, 205.072 109.841, 203.608 112.749 C 202.292 115.362, 200.448 119.750, 199.510 122.500 C 198.571 125.250, 196.464 131.100, 194.826 135.500 C 190.717 146.543, 190.733 147.293, 195.113 148.385 C 200.705 149.779, 203.888 148.520, 205.661 144.214 C 206.502 142.171, 207.795 139.150, 208.533 137.500 C 209.271 135.850, 210.569 132.780, 211.417 130.678 C 213.536 125.424, 216.794 125.813, 218.472 131.521 C 219.122 133.732, 220.362 136.657, 221.229 138.021 C 222.095 139.384, 223.109 141.966, 223.483 143.758 C 223.857 145.550, 224.996 147.463, 226.016 148.008 C 229.767 150.016, 239 148.484, 239 145.853 C 239 145.196, 238.317 143.903, 237.483 142.981 C 236.649 142.059, 235.327 139.099, 234.547 136.403 C 231.900 127.260, 226.293 112.256, 224.643 109.900 C 222.550 106.913, 222.548 101.357, 224.638 97.500 C 226.433 94.187, 232.359 78.141, 234.485 70.835 C 235.232 68.269, 236.641 64.952, 237.616 63.463 C 239.322 60.859, 239.318 60.706, 237.503 59.379 C 235.150 57.658, 226.599 57.568, 225.220 59.250 C 224.657 59.938, 223.698 62.360, 223.091 64.634 C 222.483 66.907, 221.361 69.285, 220.597 69.919 C 219.834 70.553, 218.925 72.585, 218.578 74.435 C 217.884 78.138, 215.732 80.495, 213.745 79.732 C 213.040 79.462, 210.944 75.474, 209.087 70.870 C 204.088 58.480, 203.699 58, 198.668 58 C 196.311 58, 193.648 58.563, 192.751 59.250 M 304.114 58.909 C 302.100 60.184, 302.339 67.613, 304.470 69.967 C 305.428 71.025, 307.842 72.029, 309.833 72.196 C 315.882 72.704, 315.969 73.268, 315.985 112.215 C 316 146.677, 316.016 146.938, 318.144 148.077 C 320.622 149.403, 327.400 148.743, 329.539 146.967 C 330.770 145.946, 331 140.201, 331 110.533 C 331 77.679, 331.123 75.199, 332.829 73.655 C 333.835 72.745, 336.059 72, 337.772 72 C 339.857 72, 341.401 71.265, 342.443 69.777 C 344.289 67.143, 344.499 60.899, 342.800 59.200 C 341.370 57.770, 306.328 57.506, 304.114 58.909 M 411.571 59.571 C 410.192 60.951, 410.002 66.297, 410.015 103.321 C 410.024 128.093, 410.421 146.119, 410.977 147 C 411.736 148.203, 414.970 148.563, 427.322 148.818 C 440.540 149.092, 442.953 148.905, 444.360 147.497 C 446.216 145.642, 446.461 142.343, 445.025 138.565 C 444.089 136.104, 443.722 136, 435.979 136 C 428.744 136, 427.655 135.746, 425.455 133.545 C 423.198 131.289, 423 130.335, 423 121.737 C 423 115.770, 423.453 111.805, 424.250 110.789 C 425.081 109.729, 427.621 109.055, 431.829 108.778 C 439.018 108.304, 440.319 107.180, 439.573 102.086 C 438.902 97.509, 438.326 97.094, 431.467 96.237 C 424.191 95.328, 423.036 93.584, 423.015 83.473 C 422.993 73.026, 424.015 72, 434.434 72 C 440.377 72, 443.090 71.597, 443.926 70.589 C 445.709 68.441, 446.357 62.536, 445.073 60.137 C 443.981 58.096, 443.235 58, 428.536 58 C 415.876 58, 412.864 58.279, 411.571 59.571 M 513.678 59.250 C 512.111 60.400, 511.996 63.993, 512.237 104 L 512.500 147.500 516.278 148.433 C 518.643 149.017, 521.074 149.009, 522.778 148.412 L 525.500 147.457 526.082 129.478 C 526.401 119.590, 526.739 111.388, 526.832 111.250 C 526.924 111.112, 527.845 111, 528.879 111 C 530.020 111, 531.241 112.168, 531.990 113.975 C 532.667 115.611, 534.087 117.948, 535.145 119.167 C 536.203 120.387, 537.549 123.295, 538.137 125.631 C 538.725 127.966, 540.060 130.649, 541.103 131.593 C 542.146 132.538, 543 133.803, 543.001 134.405 C 543.002 136.769, 548.869 147.736, 550.459 148.346 C 551.386 148.702, 553.012 148.529, 554.072 147.961 C 555.930 146.967, 556 145.362, 556 103.500 C 556 61.586, 555.933 60.034, 554.066 59.035 C 551.341 57.577, 545.454 57.748, 544.146 59.324 C 543.463 60.147, 542.944 67.417, 542.774 78.561 C 542.532 94.397, 542.306 96.512, 540.823 96.796 C 539.684 97.015, 538.477 95.736, 537.060 92.809 C 535.912 90.439, 534.324 87.375, 533.530 86 C 532.076 83.480, 528.593 75.844, 525.573 68.554 C 523.309 63.089, 519.243 58, 517.140 58 C 516.173 58, 514.616 58.563, 513.678 59.250 M 628 58.677 C 627.175 59.020, 626.169 59.795, 625.765 60.400 C 624.459 62.356, 624.845 146.786, 626.165 147.602 C 628.024 148.751, 641.231 149.315, 648.369 148.551 C 656.236 147.708, 660.899 144.505, 665.187 136.996 L 668 132.071 668 103.482 L 668 74.894 665.500 71.215 C 664.125 69.191, 663 67.041, 663 66.436 C 663 65.832, 660.638 63.799, 657.750 61.920 C 652.623 58.584, 652.231 58.499, 641 58.279 C 634.675 58.156, 628.825 58.335, 628 58.677 M 750.249 59.250 C 749.701 59.938, 748.942 62.645, 748.562 65.267 C 748.183 67.889, 747.055 71.939, 746.056 74.267 C 745.057 76.595, 743.952 81.875, 743.600 86 C 743.248 90.125, 742.105 95.750, 741.060 98.500 C 740.015 101.250, 738.748 106.650, 738.245 110.500 C 737.742 114.350, 736.040 123.717, 734.461 131.315 C 731.302 146.525, 731.522 148.280, 736.657 148.799 C 741.940 149.333, 744.617 147.572, 746.379 142.402 C 748.751 135.440, 750.434 134, 756.200 134 C 762.394 134, 766 137.091, 766 142.398 C 766 144.869, 766.648 146.340, 768.223 147.443 C 770.975 149.371, 775.993 149.457, 778.508 147.618 C 780.180 146.395, 780.265 145.790, 779.248 142.368 C 778.615 140.241, 777.830 135.386, 777.503 131.580 C 777.177 127.774, 776.067 122.599, 775.038 120.080 C 774.008 117.561, 772.892 112.845, 772.557 109.601 C 772.222 106.357, 771.303 100.957, 770.516 97.601 C 768.342 88.337, 765.886 75.249, 764.963 68.014 C 764.350 63.208, 763.571 61.071, 761.957 59.764 C 759.412 57.703, 751.750 57.367, 750.249 59.250 M 847.571 59.571 C 846.192 60.951, 846 66.328, 846 103.515 L 846 145.887 848.223 147.443 C 851.105 149.462, 854.951 149.423, 857.919 147.344 C 860.257 145.706, 860.277 145.541, 859.780 131.594 C 859.503 123.843, 859.477 116.938, 859.722 116.250 C 860.422 114.283, 863.451 114.786, 865.754 117.250 C 866.911 118.487, 868.404 121.750, 869.073 124.500 C 869.741 127.250, 870.661 130.236, 871.118 131.135 C 872.254 133.374, 876.818 134.396, 878.701 132.833 C 880.552 131.297, 884.693 122.103, 886.162 116.270 C 887.435 111.214, 888.617 110.188, 890.731 112.303 C 891.995 113.567, 892.258 116.712, 892.200 129.914 C 892.143 142.967, 892.412 146.270, 893.636 147.493 C 895.373 149.230, 900.246 149.474, 903.066 147.965 C 904.933 146.966, 905 145.414, 905 103.500 C 905 61.586, 904.933 60.034, 903.066 59.035 C 902.002 58.466, 900.686 58, 900.141 58 C 898.973 58, 893.178 68.388, 892.330 72 C 892.007 73.375, 890.938 75.850, 889.954 77.500 C 888.196 80.449, 886.013 85.619, 881.509 97.500 C 879.904 101.735, 878.650 103.589, 877.250 103.802 C 874.606 104.205, 870.366 99.075, 868.928 93.731 C 868.309 91.433, 866.960 87.966, 865.929 86.027 C 863.148 80.792, 857.328 66.900, 856.603 63.768 C 856.227 62.142, 854.783 60.422, 853.035 59.518 C 849.423 57.650, 849.493 57.650, 847.571 59.571 M 640.455 73.455 L 638 75.909 638 103.320 C 638 129.536, 638.090 130.845, 640.073 133.365 C 642.760 136.781, 646.146 136.735, 650.070 133.228 L 653.172 130.457 653.172 103.685 C 653.172 74.497, 653.236 74.834, 647.282 72.345 C 643.139 70.613, 643.326 70.583, 640.455 73.455 M 754.216 100.784 C 751.766 103.234, 750.733 107.730, 751.181 113.991 C 751.442 117.629, 751.998 118.715, 754.241 119.968 C 758.342 122.259, 760.423 120.497, 760.815 114.400 C 761.226 108.008, 760.362 103.669, 758.129 100.911 L 756.321 98.679 754.216 100.784" stroke="none" fill="#ffffff" fill-rule="evenodd"/>
</svg>