<svg xmlns="http://www.w3.org/2000/svg" width="1000" height="1000" viewBox="0 0 1000 1000" version="1.1">
	<path d="M 212.500 89.965 C 208.100 90.367, 203.600 91.071, 202.500 91.528 C 199.962 92.582, 181.924 105.882, 180.227 107.949 C 179.528 108.802, 178.011 111.300, 176.857 113.500 C 175.703 115.700, 172.812 120.449, 170.433 124.054 C 167.177 128.987, 165.850 132.203, 165.069 137.054 C 163.959 143.945, 163.422 759.331, 164.524 762.201 C 164.846 763.041, 166.098 764.128, 167.305 764.615 C 168.572 765.126, 300.573 765.288, 479.500 764.999 C 773.236 764.524, 789.774 764.405, 794.718 762.720 C 800.635 760.703, 818.685 747.728, 821.639 743.368 C 822.707 741.790, 824.881 738.025, 826.469 735 C 828.058 731.975, 830.617 727.919, 832.156 725.987 C 834.326 723.262, 835.205 720.680, 836.072 714.487 C 836.897 708.599, 836.896 658.801, 836.070 525 C 834.405 255.540, 833.533 203.869, 830.055 168.500 L 829.268 160.500 829.134 167.309 C 829.050 171.563, 828.625 173.886, 828 173.500 C 827.450 173.160, 826.962 173.921, 826.915 175.191 C 825.987 200.557, 824.814 226.519, 824.079 238 C 823.568 245.975, 823.116 253.963, 823.075 255.750 C 823.011 258.530, 822.638 259, 820.500 259 C 818.259 259, 818 258.595, 818 255.082 C 818 249.918, 817.180 248, 814.972 248 C 812.517 248, 811.615 243.424, 812.478 235.357 C 812.856 231.827, 812.871 227.194, 812.510 225.061 C 811.867 221.251, 811.798 221.198, 808.684 222.091 C 806.940 222.591, 805.398 223, 805.257 223 C 805.115 223, 805 220.075, 805 216.500 C 805 210.667, 804.795 210, 803 210 C 801.344 210, 801 209.333, 801 206.125 C 801 203.994, 800.711 200.803, 800.357 199.034 C 799.748 195.992, 799.504 195.837, 795.857 196.185 C 792.018 196.551, 792 196.536, 792 192.901 C 792 189.612, 791.690 189.188, 788.875 188.625 C 787.156 188.281, 784.456 188, 782.875 188 C 780.667 188, 780 187.536, 780 186 C 780 184.900, 779.550 184, 779 184 C 778.422 184, 778 187.167, 778 191.500 L 778 199 771.500 199 L 765 199 765 192.412 L 765 185.825 753 186.541 L 741 187.257 741 174.315 L 741 161.372 735 161.806 C 730.026 162.166, 729 161.971, 729 160.668 C 729 159.437, 727.641 159.031, 722.750 158.798 L 716.500 158.500 716.193 153.111 L 715.886 147.721 727.443 148.433 L 739 149.144 739 143.572 L 739 138 734 138 C 729.575 138, 729 137.757, 729 135.883 C 729 134.173, 728.569 133.885, 726.750 134.382 C 725.513 134.721, 719.888 135.292, 714.250 135.651 L 704 136.304 704 130.152 L 704 124 698 124 C 693.190 124, 692 123.686, 692 122.415 C 692 121.096, 690.907 120.886, 685.498 121.165 C 681.922 121.349, 678.997 121.162, 678.998 120.750 C 678.999 120.338, 676.975 120, 674.500 120 C 670.430 120, 670 119.773, 670 117.625 C 670 115.786, 669.323 115.115, 667 114.650 C 664.617 114.173, 664 113.531, 664 111.525 C 664 109.402, 663.536 109, 661.082 109 C 656.863 109, 655 108.049, 655 105.893 C 655 104.520, 655.756 103.971, 657.750 103.894 C 692.918 102.542, 704.840 101.856, 716.500 100.511 C 724.200 99.622, 732.862 98.652, 735.750 98.355 C 742.501 97.660, 742.724 95.687, 735.999 96.153 C 733.249 96.344, 730.999 96.188, 730.999 95.807 C 731 94.853, 718.383 94.477, 627 92.703 C 505.007 90.336, 228.409 88.509, 212.500 89.965 M 592.500 165.656 C 582.647 167.100, 579.599 168.759, 572.473 176.562 C 568.523 180.888, 564.713 186.196, 563.685 188.808 C 562.686 191.344, 560.137 195.297, 558.021 197.593 C 553.865 202.102, 553.720 202.715, 552.514 221 C 551.838 231.250, 553.550 249.250, 555.616 253.603 C 556.439 255.337, 558.874 258.171, 561.028 259.903 C 563.183 261.634, 566.083 264.992, 567.474 267.365 C 570.694 272.859, 573.577 274.182, 583.601 274.765 C 594.357 275.389, 597.086 274.015, 608.841 262.055 C 619.435 251.274, 620.164 250.107, 623.504 238.582 C 624.837 233.984, 627.134 227.585, 628.609 224.361 C 630.908 219.338, 631.284 217.208, 631.240 209.468 C 631.198 201.993, 630.807 199.787, 628.970 196.674 C 627.749 194.605, 624.891 188.324, 622.619 182.716 L 618.488 172.520 610.994 169.310 C 603.252 165.994, 597.692 164.895, 592.500 165.656 M 742.500 209.203 C 741.400 209.832, 739.914 211.166, 739.197 212.168 C 738.480 213.170, 735.706 214.931, 733.032 216.081 C 728.080 218.212, 727.541 218.962, 724.989 227.271 C 724.276 229.594, 722.320 232.256, 719.893 234.206 C 717.727 235.947, 714.953 239.388, 713.728 241.854 C 711.062 247.219, 693.876 265.059, 687.445 269.137 C 684.931 270.731, 681.060 273.715, 678.843 275.768 C 676.625 277.821, 672.716 280.317, 670.155 281.315 C 667.595 282.313, 663.700 284.877, 661.500 287.012 C 659.300 289.148, 654.954 291.865, 651.841 293.051 C 648.276 294.410, 644.366 296.987, 641.272 300.017 C 638.127 303.096, 634.876 305.226, 632.234 305.937 C 629.945 306.553, 625.745 309.080, 622.803 311.609 C 619.886 314.118, 615.388 317.252, 612.807 318.573 C 610.225 319.895, 606.660 322.785, 604.884 324.995 C 603.108 327.205, 599.570 330.351, 597.023 331.985 C 594.357 333.696, 591.684 336.440, 590.725 338.450 C 589.809 340.371, 587.441 342.968, 585.462 344.221 C 583.008 345.776, 580.766 348.653, 578.407 353.275 C 576.506 357.001, 573.339 361.833, 571.370 364.012 C 568.961 366.679, 567.049 370.377, 565.522 375.327 C 564.275 379.371, 561.652 385.007, 559.695 387.853 C 556.036 393.172, 555.501 395.058, 552.133 414.521 C 551.084 420.582, 549.311 427.557, 548.194 430.021 C 547.076 432.484, 545.877 435.490, 545.529 436.701 C 544.712 439.543, 546.558 446.389, 548.599 448.082 C 551.802 450.740, 561.503 448.328, 565.668 443.837 C 566.860 442.552, 568.813 438.584, 570.006 435.019 C 572.922 426.312, 573.414 425.525, 577.523 422.986 C 579.583 421.713, 582.064 418.844, 583.438 416.146 C 584.740 413.591, 587.166 410.707, 588.829 409.737 C 590.492 408.767, 593.268 406.187, 594.999 404.002 C 596.752 401.788, 600.163 399.137, 602.703 398.013 C 605.210 396.904, 608.899 394.517, 610.902 392.707 C 614.092 389.825, 617.682 388.079, 629.290 383.762 C 630.824 383.191, 632.624 381.963, 633.290 381.032 C 635.394 378.091, 639.701 375.878, 646.951 374.013 C 652.439 372.601, 655.044 371.252, 658.845 367.853 C 661.521 365.459, 666 362.703, 668.797 361.730 C 671.756 360.700, 676.104 357.948, 679.192 355.152 C 682.111 352.508, 686.302 349.347, 688.504 348.127 C 690.707 346.906, 693.479 344.221, 694.666 342.159 C 695.853 340.097, 698.416 337.552, 700.362 336.504 C 702.622 335.287, 704.884 332.774, 706.622 329.549 C 708.119 326.772, 711.455 322.435, 714.036 319.912 C 717.537 316.489, 719.274 313.696, 720.874 308.912 C 722.054 305.385, 724.568 300.551, 726.462 298.169 C 729.790 293.984, 730.988 290.839, 734.517 277.023 C 736.493 269.293, 737.352 267.566, 741.001 263.999 C 744.174 260.897, 744.580 259.365, 745.972 245.227 C 747.024 234.534, 749.040 228.904, 753.204 225.024 C 754.921 223.425, 755.498 221.546, 755.819 216.505 C 756.217 210.251, 756.142 210.005, 753.550 209.019 C 750.045 207.686, 745.008 207.770, 742.500 209.203 M 732.291 368.015 C 731.076 368.505, 728.987 371.064, 727.650 373.703 C 726.312 376.341, 723.031 380.825, 720.359 383.666 C 717.686 386.507, 712.631 392.022, 709.125 395.921 C 705.619 399.821, 700.554 404.206, 697.871 405.667 C 695.187 407.128, 691.875 409.787, 690.510 411.576 C 688.827 413.782, 686.332 415.377, 682.764 416.528 C 676.441 418.567, 670.202 422.014, 667.571 424.922 C 666.511 426.092, 662.510 428.002, 658.680 429.166 C 654.745 430.361, 648.842 433.250, 645.108 435.807 C 641.474 438.296, 635.887 441.124, 632.692 442.092 C 628.890 443.244, 625.380 445.239, 622.526 447.869 C 620.129 450.079, 615.471 453.248, 612.174 454.912 C 608.878 456.576, 605.180 459.343, 603.957 461.060 C 602.735 462.777, 599.555 465.523, 596.891 467.162 C 594.183 468.829, 591.133 471.771, 589.971 473.838 C 588.828 475.871, 586.297 478.628, 584.347 479.965 C 582.172 481.455, 579.912 484.349, 578.503 487.447 C 577.240 490.226, 574.359 494.687, 572.101 497.361 C 569.141 500.867, 567.304 504.491, 565.513 510.361 C 564.146 514.837, 561.931 520.113, 560.590 522.085 C 555.296 529.870, 553.283 543.524, 552.349 578 C 551.739 600.495, 553.072 635.184, 555.109 649.831 C 556.340 658.676, 558.838 665.873, 561.191 667.353 C 565.582 670.113, 570.431 658.851, 572.108 642 C 572.840 634.637, 574.309 628.031, 577.022 619.889 C 579.428 612.672, 581.507 603.779, 582.516 596.389 C 584.727 580.201, 585.724 576.655, 589.450 571.733 C 591.213 569.405, 593.926 563.988, 595.481 559.697 C 597.605 553.831, 599.236 551.098, 602.048 548.691 C 604.105 546.930, 606.796 543.416, 608.027 540.882 C 609.258 538.348, 611.537 535.523, 613.093 534.604 C 614.648 533.686, 617.593 530.892, 619.638 528.396 C 621.683 525.901, 625.050 522.995, 627.120 521.939 C 629.190 520.883, 632.130 518.385, 633.654 516.388 C 635.487 513.984, 638.803 511.659, 643.461 509.511 C 647.333 507.725, 651.850 504.813, 653.500 503.038 C 655.150 501.263, 659.074 498.504, 662.219 496.907 C 665.365 495.309, 668.965 492.607, 670.219 490.901 C 671.474 489.196, 674.300 486.883, 676.500 485.763 C 678.700 484.643, 682.875 481.425, 685.778 478.613 C 700.390 464.458, 706.252 458.142, 708.156 454.500 C 709.306 452.300, 711.819 449.186, 713.742 447.580 C 715.723 445.924, 718.422 442.027, 719.974 438.580 C 721.480 435.236, 724.344 430.555, 726.338 428.177 C 728.332 425.800, 730.418 422.200, 730.973 420.177 C 731.528 418.155, 732.683 413.946, 733.540 410.825 C 734.397 407.704, 736.186 403.654, 737.516 401.825 C 738.846 399.996, 740.736 397.391, 741.717 396.036 C 744.225 392.570, 744.202 375.973, 741.682 371.250 C 740.729 369.462, 739.322 368, 738.556 368 C 737.790 368, 736.564 367.803, 735.832 367.563 C 735.099 367.322, 733.506 367.526, 732.291 368.015 M 179.195 849.576 C 174.640 852.766, 174 856.602, 174 880.688 C 174 894.246, 174.410 903.897, 175.035 905.066 C 177.425 909.531, 181 905.641, 181 898.575 C 181 896.763, 182.405 892.556, 184.123 889.226 L 187.245 883.172 183.944 877.401 L 180.642 871.631 181.747 860.565 C 182.355 854.479, 182.530 849.167, 182.136 848.759 C 181.741 848.352, 180.418 848.719, 179.195 849.576 M 782.725 849.752 C 779.222 853.623, 778.810 857.132, 778.951 881.901 C 779.031 895.792, 779.517 907.098, 780.081 908.151 C 781.332 910.489, 784.642 910.546, 785.850 908.250 C 786.357 907.288, 787.089 903.575, 787.478 900 C 787.875 896.356, 789.286 891.290, 790.690 888.472 L 793.193 883.444 789.917 878.174 L 786.641 872.904 787.853 861.281 C 788.833 851.883, 788.819 849.502, 787.782 848.844 C 785.812 847.594, 784.457 847.837, 782.725 849.752 M 446.875 854.549 C 443.980 861.094, 444.977 864.633, 450.368 866.943 C 455.675 869.218, 460.061 875.359, 460.751 881.481 C 461.174 885.239, 460.802 886.700, 458.558 890.092 C 457.071 892.339, 456.080 894.767, 456.357 895.488 C 456.634 896.209, 458.579 897.325, 460.680 897.969 C 467.263 899.986, 468.736 901.099, 471.468 906.118 C 474.144 911.036, 476.421 912.179, 478.800 909.800 C 481.579 907.021, 478.390 894.183, 473.653 889.080 C 469.520 884.627, 468.161 881.708, 466.947 874.673 C 464.967 863.207, 456.563 850, 451.248 850 C 449.408 850, 448.444 851.004, 446.875 854.549 M 299.428 855.550 C 297.890 859.578, 297.758 862.765, 298.278 883.300 C 298.601 896.060, 299.182 907.322, 299.569 908.327 C 300.558 910.893, 304.628 912.270, 307.183 910.902 C 309.018 909.920, 309.154 909.257, 308.463 904.652 C 308.038 901.818, 307.578 889.700, 307.442 877.722 C 307.235 859.625, 306.920 855.526, 305.574 853.472 C 303.186 849.829, 301.379 850.440, 299.428 855.550 M 521.487 854.313 C 517.758 858.042, 517.347 860.108, 519.086 866.373 C 520.613 871.872, 524.476 875.175, 528.940 874.799 C 533.144 874.444, 533.843 872.587, 531.579 867.790 C 530.725 865.980, 529.444 861.608, 528.733 858.073 C 528.022 854.539, 526.885 851.462, 526.207 851.236 C 525.530 851.010, 523.406 852.394, 521.487 854.313 M 684.260 852.250 C 682.237 854.819, 681.930 859.697, 682.616 878.338 L 683.321 897.475 686.165 900.319 C 691.300 905.454, 691.534 904.496, 691.146 879.915 C 690.872 862.613, 690.447 856.759, 689.282 854.250 C 687.701 850.848, 685.923 850.139, 684.260 852.250 M 251.851 855.250 C 250.029 858.613, 250.601 906.964, 252.485 908.887 C 254.241 910.677, 256.804 909.671, 257.861 906.776 C 258.318 905.524, 258.615 893.925, 258.521 881 C 258.348 857.186, 257.747 853, 254.500 853 C 253.714 853, 252.522 854.013, 251.851 855.250 M 817.021 856.960 C 816.308 858.294, 816.289 860.293, 816.962 863.210 C 817.506 865.570, 817.962 870.072, 817.976 873.215 C 818.003 879.746, 817.143 880.607, 809.551 881.648 C 801.649 882.731, 801.686 884.243, 809.799 891.818 C 815.232 896.890, 817.352 899.663, 818.599 903.328 C 820.303 908.338, 822.331 910.069, 824.250 908.150 C 825.070 907.330, 824.665 904.849, 822.719 898.767 C 818.223 884.722, 818.234 883.145, 822.855 877.553 C 825.038 874.911, 827.078 871.343, 827.387 869.625 C 828.111 865.607, 826.665 859.392, 824.434 856.927 C 822.182 854.439, 818.362 854.456, 817.021 856.960 M 601.571 857.571 C 599.190 859.953, 599.665 862.968, 603.250 868.221 C 608.081 875.301, 617 878.208, 617 872.702 C 617 871.556, 615.313 867.332, 613.250 863.314 C 609.784 856.562, 609.259 856.008, 606.321 856.004 C 604.573 856.002, 602.436 856.707, 601.571 857.571 M 379.492 859.372 C 378.082 861.524, 378.089 862.192, 379.566 866.543 C 381.010 870.796, 381.055 872.842, 379.960 884.533 C 379.281 891.788, 379.037 899.384, 379.418 901.414 C 380.173 905.439, 382.209 906.901, 384.458 905.034 C 386.498 903.342, 385.939 859.210, 383.862 857.893 C 381.796 856.585, 381.182 856.792, 379.492 859.372 M 538.702 879.631 C 537.232 881.101, 540.529 884.241, 546.918 887.459 C 554.520 891.287, 555.561 893.075, 554.461 900.413 C 553.708 905.431, 555.373 907.447, 559.428 906.429 C 563.070 905.515, 565 902.320, 565 897.205 C 565 893.166, 564.552 892.431, 558.750 886.939 C 555.236 883.613, 550.968 880.583, 549 880.017 C 545.053 878.883, 539.653 878.680, 538.702 879.631 M 622 880.461 C 622 882.053, 622.351 882.395, 629 887.283 C 634.884 891.609, 636.430 894.790, 635.055 899.740 C 631.835 911.336, 636.116 913.340, 643.836 903.850 C 646.126 901.035, 648 897.906, 648 896.899 C 648 895.891, 645.862 892.113, 643.250 888.503 C 639.126 882.805, 637.850 881.746, 633.568 880.470 C 627.096 878.541, 622 878.537, 622 880.461 M 433.901 891.106 C 432.306 892.814, 431 895.064, 431 896.106 C 431 897.674, 431.748 898, 435.351 898 C 439.866 898, 446 896.329, 446 895.098 C 446 893.874, 439.465 888, 438.104 888 C 437.388 888, 435.497 889.398, 433.901 891.106 M 694 905.878 C 694 906.360, 694.635 907.282, 695.411 907.926 C 696.978 909.227, 698.581 907.749, 697.500 906 C 696.738 904.768, 694 904.672, 694 905.878" stroke="none" fill="#ffffff" fill-rule="evenodd"/>
</svg>