<svg xmlns="http://www.w3.org/2000/svg" width="1000" height="488" viewBox="0 0 1000 488" version="1.1">
	<path d="M 822.331 140.940 C 819.813 142.475, 818.485 144.654, 815.866 151.549 C 813.374 158.110, 811.753 160.849, 809.219 162.782 C 807.376 164.188, 805.027 166.986, 803.999 169.001 C 802.972 171.016, 800.955 173.752, 799.518 175.082 C 798.082 176.412, 794.617 180.875, 791.818 185 C 789.020 189.125, 785.259 194.141, 783.461 196.147 C 781.663 198.152, 779.418 201.424, 778.473 203.416 C 777.527 205.409, 775.449 207.968, 773.854 209.104 C 772.259 210.239, 770.008 213.043, 768.850 215.334 C 767.692 217.625, 764.890 221.563, 762.623 224.084 C 760.355 226.606, 755.648 232.566, 752.162 237.329 C 745.695 246.166, 741.548 250, 738.458 250 C 735.221 250, 726.253 241.681, 722.323 235.032 C 720.220 231.474, 716.748 226.535, 714.606 224.055 C 712.465 221.575, 709.479 216.797, 707.971 213.436 C 704.889 206.565, 701.633 203.517, 695.659 201.908 C 690.954 200.641, 684 202.156, 684 204.447 C 684 207.796, 689.976 218.847, 692.921 220.944 C 694.645 222.171, 697.153 225.342, 698.494 227.989 C 699.836 230.637, 702.072 233.698, 703.462 234.792 C 704.853 235.886, 707.861 239.868, 710.147 243.640 C 712.433 247.413, 715.842 251.822, 717.723 253.439 C 722.243 257.322, 723.719 260.397, 724.539 267.639 C 725.363 274.925, 723.640 278.943, 716.187 287.118 C 713.488 290.078, 710.363 294.300, 709.243 296.500 C 708.122 298.700, 705.820 301.732, 704.126 303.237 C 702.433 304.742, 699.956 308.117, 698.623 310.737 C 697.289 313.357, 695.033 316.587, 693.609 317.915 C 692.185 319.243, 689.143 323.293, 686.849 326.915 C 684.555 330.537, 681.625 335.099, 680.339 337.054 C 679.052 339.008, 678 341.355, 678 342.269 C 678 344.868, 681.782 346.275, 687.332 345.742 C 693.325 345.166, 694.982 343.497, 698.129 334.865 C 699.506 331.089, 701.493 327.901, 703.530 326.196 C 705.303 324.713, 707.743 321.538, 708.953 319.140 C 710.163 316.743, 712.662 313.271, 714.507 311.426 C 716.353 309.581, 719.516 305.114, 721.537 301.501 C 725.277 294.812, 732.026 288.533, 736.751 287.348 C 741.593 286.133, 744.140 288.616, 755.667 305.783 C 757.408 308.378, 760.459 312.301, 762.445 314.501 C 764.432 316.702, 767.203 320.527, 768.603 323.001 C 770.003 325.476, 772.011 328.425, 773.066 329.556 C 774.121 330.686, 776.322 334.375, 777.958 337.753 C 779.594 341.130, 781.736 344.314, 782.717 344.829 C 786.189 346.649, 790.884 347.108, 794.916 346.023 C 798.376 345.091, 799 344.523, 799 342.302 C 799 339.608, 789.503 324.717, 783.369 317.795 C 781.564 315.757, 779.208 312.382, 778.135 310.295 C 777.061 308.208, 774.751 305.150, 773 303.500 C 771.249 301.850, 768.900 298.700, 767.779 296.500 C 766.658 294.300, 764.045 290.648, 761.973 288.384 C 753.395 279.012, 750.309 271.023, 752.132 262.910 C 753.191 258.195, 759.244 248.725, 762.608 246.521 C 763.915 245.665, 766.101 242.762, 767.465 240.070 C 768.829 237.378, 771.317 234.198, 772.995 233.004 C 774.673 231.809, 776.967 229.025, 778.094 226.816 C 779.220 224.608, 781.841 220.933, 783.918 218.651 C 785.995 216.368, 789.349 211.887, 791.372 208.692 C 793.394 205.498, 796.354 201.609, 797.950 200.049 C 799.545 198.490, 801.745 195.478, 802.838 193.357 C 803.930 191.236, 806.474 187.925, 808.491 186 C 810.507 184.075, 812.817 180.925, 813.626 179 C 814.434 177.075, 816.797 173.700, 818.878 171.500 C 820.959 169.300, 824.200 165.035, 826.081 162.022 C 827.961 159.009, 831.413 154.685, 833.750 152.413 C 838.743 147.560, 839.495 143.161, 835.777 140.557 C 832.729 138.422, 826.154 138.609, 822.331 140.940" stroke="none" fill="#ffffff" fill-rule="evenodd"/>
</svg>