<svg xmlns="http://www.w3.org/2000/svg" width="1000" height="288" viewBox="0 0 1000 288" version="1.1">
	<path d="M 136.891 33.631 C 135.979 34.731, 135.694 38.848, 135.875 48.329 L 136.127 61.500 140.523 68.900 L 144.919 76.300 144.894 87.400 C 144.881 93.505, 145.298 100.673, 145.821 103.329 C 147.226 110.466, 145.685 115, 141.856 115 C 140.811 115, 137.536 112.579, 134.577 109.620 C 130.074 105.118, 128.989 103.310, 127.920 98.533 C 127.217 95.394, 125.437 91.308, 123.963 89.453 C 120.440 85.020, 118.586 78.145, 119.296 72.149 C 120.023 66.012, 118.684 60.097, 115.509 55.418 C 114.131 53.387, 112.511 49.875, 111.909 47.613 C 110.657 42.910, 108.424 40, 106.067 40 C 105.174 40, 101.209 41.550, 97.255 43.445 C 87.551 48.096, 86.707 51.472, 93.058 60.239 C 94.603 62.371, 96.161 65.456, 96.521 67.095 C 97.287 70.582, 102.949 76.410, 108.161 79.077 C 111.067 80.564, 112.159 81.962, 113.453 85.857 C 114.349 88.557, 115.974 91.572, 117.065 92.558 C 118.155 93.545, 119.718 96.661, 120.538 99.484 C 121.426 102.538, 123.464 106.135, 125.572 108.370 C 128.515 111.490, 129.061 112.745, 128.807 115.794 C 128.560 118.745, 127.973 119.648, 125.811 120.403 C 123.468 121.222, 122.600 120.871, 119.058 117.672 C 116.823 115.652, 114.658 113.992, 114.247 113.982 C 113.836 113.973, 111.090 111.723, 108.144 108.982 C 105.199 106.242, 102.406 104, 101.939 104 C 101.472 104, 98.599 101.568, 95.555 98.597 C 91.006 94.155, 89.825 92.284, 88.925 88.086 C 88.253 84.951, 87.114 82.596, 85.975 81.986 C 84.954 81.440, 80.464 77.845, 75.996 73.997 C 71.528 70.149, 67.552 67, 67.159 67 C 65.483 67, 61.867 70.360, 60.368 73.311 C 59.476 75.065, 57.229 77.911, 55.373 79.635 C 53.518 81.359, 52 83.277, 52 83.897 C 52 84.517, 54.382 86.549, 57.293 88.411 C 60.205 90.273, 63.209 92.547, 63.971 93.464 C 64.732 94.382, 66.737 95.830, 68.427 96.683 C 70.117 97.536, 72.507 99.154, 73.738 100.280 C 75.368 101.771, 77.173 102.280, 80.394 102.158 C 85.984 101.947, 93.321 105.034, 95.640 108.573 C 96.613 110.058, 98.876 111.886, 100.668 112.635 C 102.461 113.384, 104.409 114.896, 104.997 115.995 C 105.586 117.094, 107.874 118.915, 110.082 120.042 C 112.291 121.169, 114.355 122.762, 114.670 123.582 C 114.985 124.403, 116.650 125.793, 118.371 126.671 C 120.092 127.549, 123.332 129.895, 125.570 131.884 C 127.809 133.873, 131.129 136.300, 132.949 137.277 C 136.040 138.938, 136.221 139.319, 135.713 143.105 C 135.082 147.809, 132.980 150.458, 127.765 153.119 C 125.710 154.168, 123.318 156.111, 122.449 157.438 C 121.579 158.765, 119.536 160.315, 117.907 160.883 C 116.279 161.450, 113.425 163.396, 111.567 165.207 C 109.708 167.018, 106.008 170.203, 103.344 172.285 C 100.680 174.368, 96.328 177.861, 93.673 180.050 C 91.018 182.238, 87.643 184.654, 86.173 185.419 C 84.703 186.184, 82.409 187.978, 81.076 189.405 C 79.208 191.404, 77.684 192, 74.436 192 C 68.304 192, 66.471 193.839, 59.848 206.644 C 57.557 211.074, 57.872 214, 60.640 214 C 62.240 214, 73.076 210.086, 77.510 207.907 C 78.616 207.363, 81.008 204.049, 82.826 200.542 C 85.338 195.698, 87.007 193.750, 89.768 192.440 C 91.767 191.491, 94.873 189.316, 96.669 187.607 C 102.575 181.988, 107.450 177.964, 110.750 175.981 C 112.537 174.908, 114 173.616, 114 173.110 C 114 171.819, 122.462 167, 124.728 167 C 127.501 167, 129 168.990, 129 172.670 C 129 175.111, 128.272 176.478, 126.132 178.061 C 124.241 179.458, 122.637 182.112, 121.428 185.841 C 120.418 188.953, 118.508 192.703, 117.183 194.172 C 115.858 195.642, 113.930 199.891, 112.897 203.614 C 110.964 210.588, 107.421 215.414, 101.758 218.788 C 97.583 221.276, 95.094 231.921, 97.017 239.062 C 98.400 244.198, 100.400 244.161, 106.393 238.885 C 113.007 233.064, 114.241 230.253, 113.410 222.909 C 112.758 217.143, 112.854 216.771, 115.729 213.961 C 117.623 212.109, 119.335 208.866, 120.375 205.159 C 121.281 201.931, 122.921 198.476, 124.020 197.482 C 125.118 196.488, 126.517 193.835, 127.129 191.587 C 129.718 182.067, 130.289 180.825, 132.561 179.790 C 133.861 179.198, 136.072 176.978, 137.476 174.857 C 140.315 170.566, 142.779 169.993, 145.493 172.992 C 147.118 174.788, 147.183 175.669, 146.148 181.935 C 145.517 185.758, 144.997 195.999, 144.994 204.693 C 144.988 222.624, 144.253 226.425, 140.006 230.494 C 136.610 233.748, 136.177 237.094, 138.449 242.532 C 140.569 247.605, 144.974 253, 146.996 253 C 149.445 253, 150.396 251.440, 152.324 244.265 C 154.453 236.346, 154.428 235.161, 152.022 229.859 C 150.229 225.907, 150.042 223.247, 150.022 201.372 C 149.998 174.765, 150.039 174.587, 156.122 175.182 C 159.249 175.488, 159.438 175.761, 161.015 182.252 C 161.931 186.025, 163.641 190.054, 164.892 191.385 C 166.122 192.694, 167.810 196.406, 168.643 199.633 C 169.521 203.035, 171.315 206.760, 172.913 208.500 C 176.468 212.371, 178.296 218.841, 177.443 224.532 C 176.856 228.446, 177.115 229.393, 179.639 232.550 C 185.543 239.935, 187.873 242, 190.301 242 C 194.286 242, 195.359 239.733, 194.691 232.726 C 193.848 223.879, 192.371 220.416, 188.457 218.107 C 186.455 216.926, 184.426 214.562, 183.489 212.319 C 182.617 210.234, 181.065 207.621, 180.038 206.514 C 179.012 205.406, 177.417 201.882, 176.495 198.681 C 175.573 195.481, 173.508 191.371, 171.907 189.547 C 170.306 187.724, 168.709 184.717, 168.357 182.866 C 167.529 178.505, 166.130 175.817, 163.841 174.193 C 161.813 172.754, 161.467 169.865, 162.982 167.033 C 163.933 165.257, 164.085 165.259, 167.694 167.099 C 169.745 168.144, 172.249 169, 173.258 169 C 174.267 169, 175.860 170.341, 176.797 171.979 C 177.733 173.618, 179.772 175.487, 181.327 176.132 C 182.883 176.778, 184.862 178.386, 185.726 179.705 C 186.590 181.023, 188.545 182.748, 190.071 183.537 C 191.597 184.326, 194.845 186.665, 197.290 188.736 C 199.734 190.806, 203.068 193.223, 204.697 194.106 C 206.859 195.278, 208.007 196.952, 208.946 200.306 C 210.447 205.669, 212.034 207.283, 217.500 209.012 C 219.700 209.708, 222.694 211.115, 224.154 212.139 C 233.766 218.878, 235.323 207.224, 226.144 197.250 C 221.601 192.314, 221.024 192, 216.502 192 C 212.297 192, 211.208 191.529, 207.837 188.250 C 199.378 180.024, 197.371 178.270, 194.985 177.019 C 193.618 176.302, 190.598 173.980, 188.272 171.858 C 185.947 169.736, 183.675 168, 183.224 168 C 182.772 168, 180.530 166.200, 178.240 164 C 175.951 161.800, 173.418 160, 172.611 160 C 171.805 160, 170.100 158.702, 168.822 157.115 C 167.545 155.528, 165.018 153.482, 163.206 152.567 C 159.310 150.599, 156.009 145.620, 156.004 141.703 C 156.001 139.575, 156.766 138.500, 159.208 137.203 C 160.973 136.267, 164.140 133.813, 166.247 131.750 C 168.354 129.688, 170.663 128, 171.378 128 C 172.093 128, 174.112 126.425, 175.864 124.500 C 177.615 122.575, 179.473 121, 179.991 121 C 180.509 121, 183.213 118.975, 186 116.500 C 188.787 114.025, 191.430 112, 191.874 112 C 192.318 112, 194.826 109.975, 197.446 107.500 C 201.717 103.466, 202.702 103, 206.964 103 C 212.668 103, 221.147 98.942, 229.137 92.388 C 232.079 89.975, 234.982 88, 235.588 88 C 236.194 88, 237.471 87.137, 238.425 86.083 C 240.493 83.798, 239.495 81.210, 235.551 78.625 C 233.917 77.555, 232.618 75.367, 231.883 72.451 C 229.783 64.109, 229.453 64.219, 208.119 80.325 C 203.398 83.889, 201.027 88.014, 201.006 92.703 C 200.998 94.322, 192.341 102.772, 188.829 104.588 C 187.283 105.388, 185.299 107.140, 184.420 108.482 C 183.541 109.824, 181.973 111.191, 180.936 111.520 C 179.899 111.849, 177.604 113.652, 175.836 115.526 C 170.650 121.024, 160.986 121.416, 161.006 116.128 C 161.010 115.232, 162.254 113.794, 163.771 112.932 C 165.828 111.762, 166.872 110.022, 167.882 106.082 C 168.627 103.178, 170.473 99.383, 171.985 97.651 C 173.497 95.918, 175.491 91.879, 176.417 88.675 C 177.750 84.061, 178.739 82.502, 181.176 81.175 C 186.621 78.210, 189.825 75.036, 194.275 68.195 C 200.260 58.995, 202.585 53.104, 202.115 48.329 C 202.052 47.686, 200.623 46.856, 198.940 46.487 C 197.257 46.117, 194.485 44.281, 192.779 42.407 C 191.074 40.533, 188.842 39, 187.819 39 C 185.273 39, 180.298 46.323, 175.709 56.825 C 171.906 65.530, 171.828 66.180, 173.574 74.806 C 174.090 77.355, 173.783 78.614, 172.235 80.306 C 171.130 81.513, 169.511 85.008, 168.636 88.074 C 167.762 91.140, 166.132 94.475, 165.015 95.487 C 163.074 97.243, 162.341 99.170, 159.973 108.750 C 159.092 112.314, 158.526 113, 156.461 113 C 155.108 113, 153.100 112.100, 152 111 C 150.154 109.154, 150 107.671, 150.006 91.750 C 150.012 73.283, 150.766 68.557, 154.611 62.905 C 156.729 59.793, 157.139 57.771, 157.672 47.824 C 158.063 40.529, 157.906 35.655, 157.242 34.469 C 156.360 32.892, 154.789 32.561, 147.178 32.352 C 140.088 32.157, 137.887 32.431, 136.891 33.631 M 294.808 52.029 C 293.480 52.333, 291.758 54.031, 290.752 56.029 C 289.172 59.164, 289.003 63.446, 289.002 100.250 C 289 139.668, 289.065 141.065, 291 143 C 292.400 144.400, 294.333 145, 297.443 145 C 304.429 145, 305 143.518, 305 125.388 C 305 104.995, 304.446 105.669, 321.762 105 C 335.571 104.466, 338 103.639, 338 99.466 C 338 98.160, 336.735 96.113, 335.051 94.696 C 332.288 92.371, 331.573 92.248, 323.713 92.738 C 314.047 93.341, 308.713 92.018, 306.364 88.433 C 304.405 85.443, 304.737 68.862, 306.797 66.799 C 307.720 65.875, 313.131 65.356, 325.523 65 C 341.742 64.535, 343.103 64.349, 345.127 62.321 C 347.076 60.369, 347.171 59.827, 346.043 57.105 C 345.351 55.433, 344.155 53.543, 343.384 52.904 C 341.942 51.707, 299.545 50.943, 294.808 52.029 M 361.051 53.662 C 357.336 58.385, 357.295 60.981, 360.883 64.187 C 364.456 67.379, 366.674 66.953, 369.583 62.514 C 371.357 59.806, 370.904 57.419, 367.886 53.582 C 365.308 50.305, 363.677 50.324, 361.051 53.662 M 568.500 52.403 C 564.068 54.359, 562.348 56.805, 560.578 63.671 C 559.702 67.065, 557.871 72.015, 556.509 74.671 C 555.146 77.327, 553.350 82.789, 552.517 86.809 C 551.684 90.829, 549.873 96.506, 548.492 99.425 C 547.111 102.344, 545.497 107.380, 544.905 110.616 C 544.312 113.852, 542.722 118.713, 541.371 121.418 C 540.020 124.122, 538.038 129.496, 536.968 133.359 C 535.211 139.699, 535.168 140.608, 536.534 142.692 C 539.657 147.459, 546.295 144.429, 549.389 136.823 C 553.390 126.991, 555.511 123.556, 558 122.879 C 561.957 121.803, 582.126 121.907, 586.147 123.024 C 590.423 124.212, 592.098 126.462, 594.591 134.370 C 596.838 141.499, 600.547 145, 605.854 145 C 609.960 145, 614 142.705, 614 140.371 C 614 139.538, 612.916 136.976, 611.592 134.678 C 610.267 132.380, 608.647 127.800, 607.992 124.500 C 607.336 121.200, 605.540 115.575, 604 112 C 602.460 108.425, 600.652 102.800, 599.983 99.500 C 599.314 96.200, 597.721 91.431, 596.443 88.902 C 595.165 86.373, 593.168 80.574, 592.004 76.015 C 589.863 67.629, 584.444 55.587, 581.476 52.619 C 579.504 50.647, 572.732 50.534, 568.500 52.403 M 469.088 74.680 C 467.761 74.956, 463.360 77.036, 459.307 79.303 C 452.248 83.251, 451.743 83.783, 447.301 91.962 C 442.772 100.300, 442.653 100.746, 442.236 111 L 441.808 121.500 445.496 128.500 C 452.524 141.840, 459.624 146.395, 473.500 146.465 C 483.872 146.517, 490.851 144.013, 496.405 138.246 C 501.290 133.174, 502.056 130.522, 499.250 128.392 C 496.258 126.121, 491.386 126.728, 487.785 129.821 C 481.745 135.008, 479.665 136, 474.825 136 C 468.662 136, 466.390 134.803, 461.250 128.849 C 457.883 124.949, 457.003 123.154, 457.015 120.213 C 457.024 118.171, 457.408 115.905, 457.869 115.178 C 459.336 112.865, 466.033 112.048, 483.750 112.024 C 499.649 112.002, 501.157 111.843, 503 110 C 505.342 107.658, 505.307 108.029, 503.905 100.446 C 503.173 96.486, 501.461 92.473, 498.735 88.326 C 495.344 83.168, 493.533 81.537, 487.954 78.614 C 481.337 75.148, 474.100 73.639, 469.088 74.680 M 569.627 76.250 C 568.847 77.487, 567.886 79.625, 567.493 81 C 567.099 82.375, 565.411 86.650, 563.742 90.500 C 560.398 98.212, 559.449 107.837, 561.800 110.196 C 562.675 111.073, 566.016 111.500, 572.014 111.500 C 583.233 111.500, 584.591 110.493, 584.304 102.386 C 584.182 98.915, 583.351 95.565, 582.077 93.406 C 580.959 91.511, 579.313 87.383, 578.420 84.231 C 576.496 77.446, 574.502 74, 572.500 74 C 571.700 74, 570.408 75.013, 569.627 76.250 M 898.408 74.893 C 896.707 75.328, 892.563 77.382, 889.199 79.458 C 883.814 82.782, 882.884 83.832, 881.415 88.255 C 879.603 93.711, 879.863 102.494, 881.972 107.069 C 883.650 110.710, 895.965 116.539, 907.126 118.975 C 912.147 120.070, 916.873 121.480, 917.628 122.106 C 919.447 123.616, 919.380 130.013, 917.516 132.674 C 915.642 135.349, 907.249 137.457, 902.225 136.514 C 900.178 136.130, 896.019 134.283, 892.982 132.408 C 887.248 128.869, 884.226 128.273, 880.934 130.035 C 878.492 131.342, 878.497 133.094, 880.956 137.914 C 883.130 142.175, 886.534 143.950, 896.467 146 C 903.111 147.372, 911.961 146.795, 919.748 144.482 C 923.759 143.291, 925.738 141.852, 929.632 137.294 C 934.481 131.618, 934.500 131.568, 934.500 124.371 L 934.500 117.147 929.439 112.059 C 924.123 106.715, 921.232 105.681, 905.501 103.497 C 901.428 102.931, 899.798 102.062, 896.695 98.800 C 892.115 93.986, 892.164 91.467, 896.898 88.284 C 901.576 85.139, 906.744 85.367, 916.187 89.135 C 923.841 92.190, 924.096 92.223, 926.070 90.436 C 927.445 89.192, 928.001 87.621, 927.799 85.551 C 927.538 82.890, 926.605 82.031, 920.492 78.827 C 913.034 74.918, 904.361 73.373, 898.408 74.893 M 696.919 76.789 C 693.817 79.152, 686.289 83, 684.767 83 C 684.122 83, 682.141 81.590, 680.364 79.868 C 678.305 77.872, 676.547 76.960, 675.521 77.354 C 671.779 78.790, 671.157 83.562, 670.907 112.777 C 670.684 138.849, 670.803 141.125, 672.488 142.987 C 674.825 145.569, 679.176 145.568, 681.515 142.984 C 683.096 141.237, 683.361 138.931, 683.504 125.734 C 683.651 112.048, 683.925 109.839, 686.196 104 C 688.501 98.073, 689.330 97.080, 695.612 92.731 C 701.102 88.930, 702.693 87.236, 703.450 84.383 C 704.165 81.690, 704.042 80.168, 702.950 78.232 C 701.045 74.853, 699.839 74.564, 696.919 76.789 M 728 78.717 C 714.937 85.958, 709.378 96.713, 710.281 113 C 710.951 125.103, 713.297 131.612, 719.321 138.083 C 724.065 143.179, 725.157 143.823, 731.833 145.459 C 749.606 149.815, 764.439 142.058, 770.045 125.475 C 773.145 116.305, 773.145 108.686, 770.047 98.193 C 767.050 88.044, 763.472 83.542, 754.467 78.592 C 748.738 75.444, 747.102 75.007, 741.216 75.057 C 735.432 75.106, 733.597 75.614, 728 78.717 M 648.500 79 C 645.132 82.515, 642.804 82.719, 636.859 80.022 C 630.580 77.173, 628.354 77.415, 626.418 81.158 C 624.983 83.933, 624.843 87.829, 625.264 113.327 C 625.703 139.905, 625.896 142.450, 627.563 143.669 C 629.947 145.413, 635.113 145.368, 637.559 143.583 C 639.327 142.293, 639.552 140.439, 640.080 122.833 C 640.399 112.200, 641.010 102.713, 641.437 101.752 C 641.863 100.790, 645.758 97.070, 650.091 93.485 C 658.702 86.362, 660.007 83.848, 657.556 79.108 C 655.474 75.083, 652.289 75.045, 648.500 79 M 385.571 78.571 C 384.707 79.436, 384 81.733, 384 83.677 C 384 88.217, 386.623 98.341, 389.014 103.027 C 390.037 105.032, 391.838 110.459, 393.017 115.087 C 394.195 119.714, 395.985 124.850, 396.994 126.500 C 398.002 128.150, 399.525 132.200, 400.378 135.500 C 402.192 142.521, 404.691 145, 409.956 145 C 414.307 145, 416.187 143.253, 418.025 137.500 C 418.728 135.300, 419.879 132.600, 420.582 131.500 C 421.285 130.400, 422.819 125.719, 423.990 121.098 C 425.162 116.477, 427.165 110.627, 428.443 108.098 C 429.721 105.569, 431.309 100.800, 431.974 97.500 C 432.638 94.200, 434.040 90.012, 435.090 88.193 C 438.366 82.520, 437.106 79, 431.800 79 C 427.981 79, 425.351 81.935, 424.502 87.144 C 424.111 89.540, 422.530 94.425, 420.987 98 C 419.444 101.575, 417.654 106.525, 417.009 109 C 415.437 115.035, 413.393 118.088, 411.428 117.334 C 409.261 116.502, 402.351 101.191, 400.017 92.050 C 398.409 85.751, 397.426 83.878, 394.084 80.750 C 389.692 76.640, 387.949 76.194, 385.571 78.571 M 781.635 79.073 C 778.464 81.567, 778.307 84.351, 781.081 88.901 C 782.222 90.772, 784.030 96.397, 785.100 101.401 C 786.170 106.406, 788.115 112.975, 789.423 116 C 790.730 119.025, 792.602 125.325, 793.582 130 C 795.035 136.932, 795.958 139.100, 798.582 141.750 C 800.718 143.907, 802.758 144.999, 804.650 144.996 C 808.823 144.991, 813.704 141.649, 814.397 138.323 C 814.963 135.605, 818 115.537, 818 114.513 C 818 113.604, 826.273 108, 827.615 108 C 829.745 108, 830.816 111.067, 833.058 123.592 C 835.277 135.984, 837.693 142.230, 840.938 143.967 C 844.236 145.732, 847.845 145.114, 850.961 142.250 C 853.419 139.991, 854.300 137.878, 855.898 130.406 C 856.968 125.405, 858.958 118.655, 860.321 115.406 C 861.684 112.158, 863.549 105.484, 864.465 100.575 C 865.422 95.444, 866.953 90.604, 868.065 89.190 C 872.190 83.947, 869.418 77.266, 863.600 78.430 C 858.991 79.352, 857.899 81.043, 855.930 90.313 C 853.845 100.122, 847.361 114.341, 844.753 114.823 C 842.606 115.219, 841.354 112.224, 839.395 102 C 837.567 92.459, 833.384 81.709, 830.413 78.919 C 827.695 76.365, 824.498 76.808, 820.436 80.302 C 818.258 82.175, 817.518 84.120, 816.349 91.044 C 814.891 99.680, 810.273 110.538, 806.671 113.798 C 804.915 115.387, 804.706 115.355, 802.995 113.242 C 801.997 112.010, 800.640 107.739, 799.978 103.751 C 797.632 89.608, 791.154 77, 786.234 77 C 785.153 77, 783.084 77.933, 781.635 79.073 M 360.326 80.396 L 357.540 82.792 357.486 111.646 C 357.432 140.224, 357.453 140.522, 359.670 142.750 C 362.585 145.679, 366.360 145.629, 368.719 142.631 C 370.280 140.646, 370.557 138.658, 370.428 130.381 C 370.344 124.946, 370.213 112.042, 370.137 101.705 C 370.002 83.167, 369.966 82.875, 367.545 80.455 C 364.501 77.410, 363.804 77.405, 360.326 80.396 M 468.500 86.733 C 464.770 87.667, 461.233 90.960, 459.614 95.007 C 457.620 99.991, 457.617 100.474, 459.571 102.429 C 460.829 103.686, 463.588 104, 473.371 104 C 481.549 104, 485.998 103.602, 486.800 102.800 C 488.289 101.311, 488.369 94.558, 486.930 91.869 C 484.790 87.871, 474.929 85.123, 468.500 86.733 M 738.121 88.086 C 732.437 89.287, 730.220 91.061, 728.025 96.163 C 723.270 107.216, 724.530 123.260, 730.689 130.077 C 739.994 140.377, 750.387 136.758, 756.540 121.075 C 758.713 115.538, 759.167 113.072, 758.715 109.287 C 758.134 104.431, 752.898 91.990, 750.650 90.125 C 748.626 88.444, 741.732 87.323, 738.121 88.086 M 466.540 194.750 C 466.170 195.713, 465.391 201.829, 464.810 208.341 C 463.892 218.634, 463.956 220.385, 465.299 221.728 C 466.149 222.578, 467.528 223.011, 468.363 222.691 C 469.582 222.223, 469.942 219.684, 470.190 209.804 C 470.496 197.660, 469.925 193, 468.132 193 C 467.627 193, 466.911 193.787, 466.540 194.750 M 483.772 195.697 C 483.076 197.055, 483.607 220.940, 484.350 221.683 C 484.733 222.067, 485.661 221.733, 486.411 220.940 C 488.153 219.099, 487.186 195.887, 485.342 195.277 C 484.705 195.067, 483.998 195.256, 483.772 195.697 M 321.500 205 C 321.840 205.550, 322.541 206, 323.059 206 C 323.577 206, 324 205.550, 324 205 C 324 204.450, 323.298 204, 322.441 204 C 321.584 204, 321.160 204.450, 321.500 205 M 411.500 205 C 411.160 205.550, 411.359 206, 411.941 206 C 412.523 206, 413 205.550, 413 205 C 413 204.450, 412.802 204, 412.559 204 C 412.316 204, 411.840 204.450, 411.500 205 M 499.500 205 C 499.160 205.550, 499.359 206, 499.941 206 C 500.523 206, 501 205.550, 501 205 C 501 204.450, 500.802 204, 500.559 204 C 500.316 204, 499.840 204.450, 499.500 205 M 544.667 205.667 C 543.168 207.165, 544.152 212.061, 546.482 214.694 C 548.579 217.064, 549.120 217.267, 549.967 216 C 551.358 213.919, 551.251 207.651, 549.800 206.200 C 548.493 204.893, 545.728 204.605, 544.667 205.667 M 652.176 208.870 C 650.357 210.024, 651.076 216.033, 653.191 217.357 C 655.734 218.948, 659 215.568, 659 211.345 C 659 208.359, 658.705 208.002, 656.250 208.015 C 654.737 208.024, 652.904 208.408, 652.176 208.870 M 530.380 218.452 C 529.668 220.308, 530.707 222, 532.559 222 C 533.429 222, 534 221.010, 534 219.500 C 534 216.752, 531.329 215.979, 530.380 218.452 M 411.187 222.173 C 411.534 225.692, 413.504 227.089, 414.174 224.291 C 414.847 221.485, 413.996 219, 412.363 219 C 411.290 219, 410.961 219.888, 411.187 222.173" stroke="none" fill="#ffffff" fill-rule="evenodd"/>
</svg>