<svg xmlns="http://www.w3.org/2000/svg" width="1000" height="633" viewBox="0 0 1000 633" version="1.1">
	<path d="M 166.500 284.912 C 165.400 285.385, 163.262 286.927, 161.750 288.338 L 159 290.905 159 309.405 C 159 329.169, 159.548 332.017, 163.712 333.915 C 166.948 335.389, 187.246 334.229, 186.694 332.601 C 186.486 331.990, 183.913 331.479, 180.910 331.454 C 174.932 331.403, 167.783 328.331, 166.033 325.062 C 165.465 324, 165 321.502, 165 319.511 C 165 316.081, 165.292 315.761, 170.529 313.445 C 173.600 312.086, 177.970 311, 180.362 311 C 182.729 311, 184.963 310.704, 185.325 310.342 C 186.827 308.840, 183.464 306.997, 179.128 306.946 C 176.582 306.916, 172.475 306.118, 170 305.173 C 163.538 302.706, 163.517 300.065, 169.899 293 C 174.589 287.809, 175.134 287.500, 179.597 287.500 C 182.490 287.500, 184.489 287.015, 184.746 286.250 C 185.049 285.351, 183.632 285, 179.708 285 C 176.706 285, 172.956 284.786, 171.375 284.526 C 169.794 284.265, 167.600 284.438, 166.500 284.912 M 103.495 288.009 C 101.652 291.573, 101.337 324.798, 103.098 329.851 C 104.414 333.625, 106.760 333.973, 107.481 330.500 C 107.766 329.125, 108.260 326.762, 108.578 325.250 C 109.284 321.889, 111.757 318.995, 113.905 319.015 C 114.782 319.023, 117.300 319.639, 119.500 320.384 C 122.647 321.449, 124.033 322.732, 126 326.401 C 128.302 330.695, 132.070 333.264, 133.689 331.644 C 134.196 331.137, 133.409 326.420, 131.325 317.474 C 131.027 316.196, 132.356 313.197, 134.926 309.348 C 137.167 305.993, 139 302.309, 139 301.161 C 139 297.769, 131.035 288.881, 126.500 287.214 C 124.300 286.405, 118.560 285.603, 113.745 285.430 L 104.991 285.117 103.495 288.009 M 736.506 287.988 C 735.313 290.295, 735.021 294.709, 735.100 309.200 C 735.210 329.412, 735.656 332.500, 738.469 332.500 C 739.918 332.500, 740.618 331.305, 741.523 327.284 C 743.110 320.238, 744.335 319, 749.716 319 C 756.193 319, 764.111 314.049, 767.453 307.909 C 770.634 302.064, 770.611 300.701, 767.227 294.521 C 765.275 290.957, 763.647 289.289, 761.500 288.653 C 759.850 288.164, 757.600 287.278, 756.500 286.684 C 755.400 286.089, 750.790 285.484, 746.256 285.339 C 738.056 285.078, 738.004 285.092, 736.506 287.988 M 825.376 285.620 C 824.667 285.912, 825.815 289.118, 828.487 294.311 L 832.721 302.539 831.850 313.519 C 830.721 327.757, 831.550 332.050, 834.800 328.800 C 836.338 327.262, 836.410 310.474, 834.896 306.132 C 833.574 302.340, 834.222 301.178, 842.400 292.682 C 845.480 289.482, 848 286.444, 848 285.932 C 848 285.006, 827.553 284.725, 825.376 285.620 M 113.368 288.164 C 112.807 288.899, 111.358 292.160, 110.147 295.410 C 108.047 301.047, 108.019 301.540, 109.528 306.083 C 111.650 312.474, 112.892 313.340, 118.777 312.531 C 122.963 311.955, 124.177 311.211, 127.806 306.997 C 130.113 304.320, 132 301.509, 132 300.752 C 132 299.995, 130.690 298.408, 129.090 297.224 C 127.489 296.041, 125.654 293.481, 125.012 291.536 C 124.252 289.232, 123.218 288, 122.047 288 C 121.059 288, 118.931 287.736, 117.319 287.414 C 115.446 287.039, 114.020 287.310, 113.368 288.164 M 213.929 289.132 C 212.628 291.564, 212.161 327.098, 213.382 330.750 C 214.306 333.511, 216.572 333.667, 217.965 331.066 C 218.534 330.002, 219 324.242, 219 318.266 C 219 307.080, 219.654 305, 223.170 305 C 224.144 305, 225.917 306.322, 227.112 307.937 C 228.306 309.553, 230.555 311.401, 232.109 312.045 C 233.662 312.689, 235.225 314.179, 235.582 315.358 C 235.938 316.536, 237.187 318.545, 238.358 319.823 C 239.528 321.100, 241.388 324.025, 242.493 326.323 C 244.174 329.823, 245.038 330.552, 247.815 330.818 C 252.228 331.242, 254 329.556, 254 324.933 C 254 319.882, 251.181 316.734, 243 312.650 C 237.762 310.035, 236.026 308.540, 234.061 304.952 C 232.719 302.504, 230.841 299.936, 229.887 299.247 C 228.933 298.558, 227.619 296.376, 226.967 294.399 C 226.060 291.651, 224.804 290.361, 221.640 288.924 C 216.325 286.510, 215.318 286.538, 213.929 289.132 M 744.090 292.490 C 741.646 299.020, 741.447 303.741, 743.415 308.452 C 745.237 312.811, 747.907 314.198, 752.929 313.395 C 756.320 312.853, 757.088 312.263, 758 309.499 C 758.592 307.708, 759.958 305.443, 761.038 304.466 C 763.563 302.181, 763.513 301.539, 760.500 297.589 C 759.125 295.786, 758 293.652, 758 292.847 C 758 290.068, 755.485 288.211, 750.840 287.559 L 746.179 286.904 744.090 292.490 M 883.663 288.820 C 881.494 291.216, 878 301.480, 878 305.454 C 878 307.781, 877 309.570, 874.137 312.366 C 869.702 316.697, 867.706 321.763, 868.174 327.500 C 868.653 333.371, 871.705 333.021, 875 326.717 C 876.382 324.073, 878.953 321.061, 880.750 319.982 C 884.566 317.689, 884.601 317.499, 881.996 313.226 C 880.898 311.425, 880 308.870, 880 307.548 C 880 304.571, 883.799 301.448, 888.491 300.568 C 891.807 299.946, 892 299.690, 892 295.920 C 892 288.647, 887.380 284.713, 883.663 288.820 M 691 290 C 689.021 291.979, 688.336 297.105, 689.607 300.418 C 690.606 303.022, 696.653 302.438, 699.641 299.450 C 702.600 296.491, 702.287 292.661, 698.847 289.750 C 696.130 287.451, 693.464 287.536, 691 290 M 791.484 289.388 C 789.685 290.703, 789.577 292.023, 789.829 309.648 C 790.119 329.911, 790.310 331.521, 792.523 332.370 C 795.255 333.419, 795.914 329.268, 796.067 310.043 C 796.189 294.683, 795.936 290.508, 794.815 289.386 C 793.607 288.179, 793.138 288.179, 791.484 289.388 M 330.421 291.248 C 329.522 294.080, 329.586 327.119, 330.496 329.986 C 330.896 331.248, 331.842 331.985, 332.820 331.796 C 334.561 331.461, 335.838 326.544, 335.942 319.773 C 336.023 314.554, 339.058 312.782, 348.892 312.212 C 355.924 311.805, 356.860 311.977, 359.342 314.133 C 361.163 315.715, 362.244 317.827, 362.599 320.500 C 363.541 327.602, 364.012 329, 365.460 329 C 368.043 329, 368.432 326.655, 368.566 310.235 C 368.704 293.310, 368.021 290.011, 364.645 291.306 C 363.450 291.765, 363 293.189, 363 296.514 C 363 304.871, 356.706 308.219, 344.901 306.139 C 337.140 304.772, 336 303.787, 336 298.443 C 336 290.524, 332.205 285.629, 330.421 291.248 M 284 292 C 280.096 295.904, 282.316 298.482, 287.316 295.850 C 291.617 293.586, 292.343 290, 288.500 290 C 287.125 290, 285.100 290.900, 284 292 M 629.338 290.999 C 628.149 291.478, 626.870 292.912, 626.496 294.185 C 626.122 295.458, 624.510 297.625, 622.915 299 C 620.196 301.344, 620.001 302.015, 619.791 309.762 C 619.542 318.951, 618.856 317.647, 629.500 328.215 C 635.270 333.944, 637.530 335.038, 643.315 334.900 C 649.111 334.762, 652.500 333.675, 652.500 331.955 C 652.500 330.840, 650.397 330.341, 643.500 329.818 C 636.428 329.282, 634.286 328.759, 633.500 327.377 C 632.259 325.193, 628.932 321.827, 626.704 320.500 C 624.336 319.090, 623.365 309.340, 625.008 303.473 C 626.034 299.805, 626.929 298.639, 629.555 297.541 C 633.508 295.890, 637.297 292.290, 636.477 290.964 C 635.755 289.794, 632.282 289.811, 629.338 290.999 M 927.572 292.250 C 926.486 293.907, 926.319 295.482, 926.938 298.226 C 927.400 300.276, 927.610 307.619, 927.405 314.545 C 927.126 323.928, 927.397 328.014, 928.467 330.575 C 930.211 334.750, 933.580 336.268, 938.176 334.950 C 939.997 334.427, 943.826 334, 946.684 334 C 949.543 334, 952.140 333.582, 952.456 333.072 C 953.310 331.689, 949.284 330.724, 945.568 331.421 C 940.989 332.280, 937.449 329.253, 935.548 322.850 C 934.394 318.963, 934.195 314.978, 934.678 305.441 C 935.150 296.121, 934.991 292.694, 934.030 291.536 C 932.194 289.324, 929.278 289.646, 927.572 292.250 M 276.035 299.934 C 275.466 300.998, 275 305.832, 275 310.677 L 275 319.485 282.468 326.691 C 287.906 331.938, 290.913 334.081, 293.531 334.572 C 297.912 335.394, 305.797 334.603, 307.200 333.200 C 309.328 331.072, 306.729 330, 299.441 330 C 293.109 330, 291.721 329.683, 290.125 327.875 C 286.929 324.253, 285.584 322.959, 283.103 321.120 C 280.909 319.494, 280.704 318.631, 280.678 310.922 C 280.663 306.290, 280.985 301.488, 281.393 300.250 C 282.031 298.314, 281.782 298, 279.603 298 C 278.123 298, 276.640 298.804, 276.035 299.934 M 493.188 301.739 C 493.690 304.345, 497 304.636, 497 302.073 C 497 300.642, 496.358 300, 494.927 300 C 493.496 300, 492.957 300.539, 493.188 301.739 M 50.033 305.939 C 48.515 308.775, 49.160 329.567, 50.817 331.201 C 52.804 333.160, 55 329.576, 55 324.374 C 55 317.478, 56.288 315.473, 62.557 312.602 C 65.684 311.171, 69.425 309.975, 70.871 309.945 C 73.321 309.893, 54.949 304.024, 52.285 304.008 C 51.617 304.003, 50.603 304.872, 50.033 305.939 M 892.189 311.035 C 889.511 317.992, 889.830 319.878, 894.109 322.405 C 895.949 323.492, 898.022 326.056, 899.183 328.681 C 900.263 331.122, 901.834 333.383, 902.674 333.705 C 906.559 335.196, 907.216 326.071, 903.607 320.752 C 902.290 318.813, 899.979 314.475, 898.470 311.113 C 896.961 307.751, 895.451 305.007, 895.113 305.015 C 894.776 305.023, 893.460 307.732, 892.189 311.035 M 681.609 311.020 C 680.724 313.231, 680 315.871, 680 316.885 C 680 317.900, 679.109 319.863, 678.020 321.247 C 676.931 322.632, 675.556 325.038, 674.965 326.593 C 672.799 332.288, 676.442 336.803, 679.124 331.750 C 679.781 330.512, 682.722 327.128, 685.659 324.229 C 688.597 321.330, 691 318.320, 691 317.541 C 691 315.465, 685.694 307.069, 684.359 307.032 C 683.731 307.014, 682.493 308.809, 681.609 311.020 M 702.672 311.807 C 700.768 313.288, 698.376 315.005, 697.355 315.623 C 695.660 316.649, 695.827 316.940, 699.287 318.993 C 701.369 320.229, 703.753 322.556, 704.584 324.163 C 705.925 326.755, 709.397 329, 712.065 329 C 713.246 329, 713.270 325.181, 712.113 321.399 C 711.625 319.805, 710.721 316.634, 710.104 314.353 C 708.667 309.045, 706.968 308.463, 702.672 311.807" stroke="none" fill="#ffffff" fill-rule="evenodd"/>
</svg>