<svg xmlns="http://www.w3.org/2000/svg" width="1000" height="457" viewBox="0 0 1000 457" version="1.1">
	<path d="M 0 228.501 L 0 457.002 500.250 456.751 L 1000.500 456.500 1000.752 228.250 L 1001.004 0 500.502 0 L 0 0 0 228.501 M 0.491 229 C 0.491 354.675, 0.608 406.088, 0.750 343.250 C 0.892 280.413, 0.892 177.588, 0.750 114.750 C 0.608 51.913, 0.491 103.325, 0.491 229 M 380.803 10.401 C 373.043 12.171, 370.468 14.104, 367.642 20.284 C 362.475 31.579, 361.702 35.021, 361.754 46.486 L 361.804 57.473 364.987 60.130 C 370.255 64.528, 374.799 65.253, 390.010 64.124 C 398.590 63.488, 410.416 63.451, 422.500 64.023 C 432.950 64.518, 443.551 64.940, 446.059 64.961 C 453.787 65.027, 453.964 65.387, 455.665 84.545 C 457.103 100.748, 457.024 118.160, 455.410 140.500 C 454.885 147.771, 455.046 148.819, 457.186 152 C 460.996 157.665, 464.979 159.093, 475.500 158.566 C 491.976 157.742, 500.533 154.849, 504.699 148.697 C 511.698 138.362, 512.906 88.141, 506.482 74.603 C 504.675 70.795, 498.754 65.384, 493.500 62.739 C 488.573 60.258, 480.045 58.945, 470.714 59.231 C 463.879 59.440, 461.727 59.176, 461.026 58.042 C 460.530 57.240, 460.181 52.007, 460.249 46.414 C 460.369 36.560, 460.258 36.015, 456.662 28.872 C 454.621 24.817, 451.499 19.574, 449.725 17.220 C 443.743 9.281, 444.842 9.524, 414 9.301 C 394.392 9.159, 384.865 9.475, 380.803 10.401 M 337.500 61.348 C 331.217 63.158, 321.452 68.859, 317.711 72.903 C 311.412 79.710, 310.500 84.465, 310.500 110.500 L 310.500 133.500 313.987 140.410 C 320.410 153.138, 324.879 155.400, 343.724 155.463 L 354.948 155.500 358.224 152.232 L 361.500 148.963 361.781 106.084 C 362.031 67.847, 361.888 63.031, 360.459 61.602 C 358.525 59.668, 343.898 59.506, 337.500 61.348 M 69 235.594 C 67.075 236.428, 64.372 238.189, 62.994 239.508 C 61.154 241.270, 58.499 242.212, 52.994 243.057 C 42.806 244.622, 39.556 246.159, 36.629 250.796 C 35.258 252.968, 31.935 256.099, 29.245 257.754 C 24.786 260.498, 24.108 261.438, 21.568 268.403 C 20.035 272.605, 17.663 277.691, 16.296 279.705 C 12.895 284.718, 12.291 286.570, 11.010 295.926 C 9.381 307.824, 10.940 317.595, 15.812 326.022 C 17.886 329.609, 20.377 335.070, 21.348 338.157 C 23.226 344.127, 24.477 345.747, 29.935 349.278 C 31.825 350.500, 34.300 353.300, 35.435 355.500 C 37.277 359.068, 38.244 359.741, 44.385 361.733 C 48.466 363.056, 53.524 365.704, 56.804 368.233 L 62.337 372.500 77.588 372.500 L 92.840 372.500 97.299 369.356 C 104.021 364.616, 105.381 364.449, 111.597 367.594 C 116.010 369.826, 117.595 370.180, 119.784 369.420 C 123.103 368.270, 125.996 362.857, 125.998 357.797 C 126.002 348.710, 131.153 346.004, 133.976 353.606 C 136.059 359.218, 137.572 360.792, 142.224 362.185 C 144.716 362.932, 147.316 364.755, 149.158 367.047 C 152.714 371.472, 157.206 373.002, 166.616 372.994 C 175.683 372.987, 179.812 371.734, 184.495 367.567 C 189.656 362.976, 192.037 362.530, 197.905 365.055 C 206.324 368.676, 208.429 367.630, 214.329 356.892 L 216.158 353.563 219.510 357.599 C 221.353 359.818, 224.693 362.460, 226.931 363.469 C 229.169 364.478, 231 365.600, 231 365.962 C 231 366.324, 232.403 368.056, 234.119 369.810 C 237.131 372.891, 237.522 373, 245.554 373 C 255.482 373, 258.246 372.082, 263.014 367.198 C 265 365.164, 268.172 362.591, 270.063 361.480 C 272.408 360.102, 273.912 358.205, 274.796 355.511 C 277.175 348.262, 280.175 348.928, 281.927 357.094 C 283.313 363.556, 285.470 366.725, 289.015 367.503 C 292.022 368.164, 295.006 367.004, 298.376 363.865 C 301.192 361.241, 304.121 361.536, 309.705 365.007 C 313.574 367.412, 315.777 368.049, 320.705 368.185 C 324.524 368.290, 327.464 367.860, 328.434 367.055 C 330.474 365.362, 330.446 356.898, 328.384 351.500 C 324.465 341.240, 324.119 338.890, 323.907 321.042 C 323.656 299.962, 323.675 299.914, 333.036 298.073 C 339.466 296.808, 341 295.287, 341 290.177 C 341 286.078, 338.391 283.481, 332.327 281.543 C 329.482 280.634, 326.655 279.289, 326.046 278.555 C 325.436 277.821, 324.511 273.477, 323.989 268.903 C 322.848 258.899, 320.793 256.136, 313.903 255.345 C 307.035 254.557, 304.473 253.187, 302.157 249.065 C 299.513 244.361, 295.525 242.568, 289.273 243.273 C 281.631 244.134, 281 245.600, 281 262.500 C 281 279.955, 280.580 280.796, 271.310 281.889 C 259.867 283.238, 259.533 284.103, 259.485 312.504 C 259.443 337.758, 258.863 340.985, 253.909 343.547 C 249.506 345.824, 242.600 345.420, 239.440 342.702 L 236.768 340.404 236.925 316.092 C 237.087 291.162, 236.462 285.819, 233.093 283.318 C 230.229 281.192, 219.622 280, 203.567 280 C 188.940 280, 187.040 279.779, 177.316 276.946 L 166.833 273.893 160.666 275.904 C 157.275 277.010, 150.675 278.663, 146 279.577 C 141.325 280.491, 136.920 281.705, 136.211 282.274 C 135.503 282.843, 134.014 285.421, 132.903 288.003 C 131.468 291.340, 129.782 293.316, 127.072 294.839 C 124.975 296.018, 122.696 297.661, 122.008 298.491 C 120.188 300.684, 117.974 300.350, 114.916 297.420 C 111.101 293.764, 106.722 293.050, 88 293.030 C 67.304 293.007, 60.297 294.032, 57.250 297.529 C 52.279 303.235, 56.105 314.734, 64.397 319.007 C 67.191 320.446, 79.519 320.925, 89.248 319.971 C 92.412 319.661, 93.541 320.132, 96.498 322.998 C 100.742 327.112, 101.110 331.481, 97.717 337.473 C 94.949 342.359, 90.861 343.814, 79.582 343.923 C 71.412 344.002, 59.823 342.438, 56.753 340.842 C 55.793 340.342, 54.096 338.148, 52.983 335.966 C 51.870 333.784, 49.210 330.895, 47.072 329.546 C 41.449 325.996, 40.558 322.483, 40.590 304 C 40.623 284.904, 41.567 281.051, 47.211 276.962 C 49.482 275.317, 52.116 272.224, 53.080 270.070 C 55.766 264.071, 57.307 263.648, 76.763 263.569 L 94.027 263.500 98.763 268.647 C 103.105 273.365, 103.978 273.854, 109.237 274.511 C 116.318 275.395, 121.503 274.497, 124.056 271.944 C 127.678 268.322, 126.028 258.578, 121.303 255.696 C 120.579 255.254, 119.085 253.126, 117.983 250.967 C 116.882 248.808, 114.633 246.344, 112.986 245.493 C 110.600 244.259, 99.990 242.264, 94.500 242.017 C 93.950 241.992, 91.511 240.178, 89.080 237.986 C 84.931 234.244, 84.288 234.002, 78.580 234.039 C 75.236 234.061, 70.925 234.760, 69 235.594 M 492 243.502 C 482.102 245.213, 481.465 245.531, 479.327 249.827 C 477.646 253.207, 477.475 257.447, 477.182 303 C 477.007 330.225, 477.146 354.410, 477.492 356.745 C 478.731 365.110, 485.671 369.773, 492.006 366.497 C 497.134 363.845, 498 360.230, 498 341.475 C 498 322.948, 499.020 316.862, 502.432 315.036 C 504.316 314.028, 505.329 314.173, 508.579 315.914 C 514.348 319.006, 524.816 318.861, 528.673 315.637 C 530.228 314.337, 532.512 312.957, 533.749 312.570 C 537.332 311.448, 538.133 315.496, 538.527 336.690 C 538.907 357.158, 539.844 362.565, 543.625 366.117 C 548.260 370.472, 556.318 367.685, 558.694 360.906 C 559.463 358.709, 559.907 350.085, 559.944 336.616 C 560.006 313.351, 560.654 309.697, 565.552 304.949 C 570.400 300.250, 586.566 296.967, 588.691 300.250 C 589.136 300.938, 589.500 310.969, 589.500 322.542 C 589.500 345.874, 589.875 347.463, 595.979 349.991 C 598.104 350.871, 599.893 352.828, 601.534 356.067 C 603.729 360.398, 604.466 360.994, 609.417 362.433 C 613.350 363.576, 615.497 364.889, 617.088 367.123 C 620.364 371.725, 624.468 373, 636 373 C 647.267 373, 650.968 371.879, 655.275 367.165 C 656.998 365.279, 660.064 363.542, 663.367 362.582 C 666.292 361.731, 669.857 360.114, 671.290 358.987 L 673.894 356.938 676.182 360.033 C 677.441 361.735, 679.939 364.035, 681.733 365.144 C 686.142 367.869, 690.156 366.872, 695.041 361.838 C 700.658 356.050, 701.411 351.148, 700.545 326 L 699.838 305.500 702.169 303.317 C 703.451 302.116, 705.816 300.635, 707.424 300.025 C 712.463 298.116, 721.616 300.860, 723.084 304.721 C 723.588 306.046, 724 317.429, 724 330.016 C 724 356.521, 724.783 361.798, 729.279 365.581 C 731.867 367.759, 733.086 368.118, 736.395 367.674 C 744.723 366.557, 746 361.520, 746 329.780 C 746 302.538, 746.149 301.886, 752.779 300.044 C 758.393 298.485, 760.614 298.764, 763.694 301.415 L 766.500 303.830 766.500 328.665 C 766.500 356.980, 766.644 357.595, 774.530 363.020 C 780.964 367.447, 784.818 367.866, 788.742 364.564 C 791.044 362.627, 792.161 360.549, 792.963 356.715 C 793.563 353.847, 794.446 350.872, 794.926 350.104 C 796.354 347.820, 798.922 349.651, 800.961 354.408 C 802.957 359.065, 804.137 360.023, 810.635 362.262 C 812.809 363.011, 817.234 365.621, 820.469 368.062 L 826.350 372.500 837.133 372.500 L 847.917 372.500 852.213 368.283 C 854.576 365.963, 858.307 363.448, 860.505 362.693 C 863.069 361.812, 865.291 360.099, 866.709 357.910 C 871.406 350.657, 871.628 350.447, 873.208 351.757 C 874.015 352.428, 875.233 354.835, 875.914 357.106 C 877.640 362.868, 881.290 366, 886.280 366 C 892.220 366, 897.556 364.073, 900.700 360.792 L 903.500 357.870 903.726 337.185 C 903.850 325.808, 903.963 313.737, 903.976 310.361 C 904.009 302.032, 905.821 299.829, 913.084 299.291 C 921.766 298.647, 924.679 300.760, 928.569 310.525 C 931.743 318.493, 931.759 318.622, 930.803 328.525 C 929.648 340.493, 930.277 352.212, 932.333 357 C 934.214 361.380, 938.650 365.647, 942.245 366.536 C 944.229 367.026, 946.375 366.491, 949.977 364.607 C 952.719 363.173, 955.657 362, 956.504 362 C 957.351 362, 960.046 363.845, 962.493 366.100 C 967.548 370.760, 971.746 371.445, 976.834 368.439 C 981.308 365.796, 982.324 357.502, 979.500 346.661 C 978.535 342.957, 977.998 336.192, 977.994 327.701 C 977.991 320.441, 977.506 312.760, 976.915 310.634 C 975.001 303.739, 976.590 301.682, 986.685 297.979 C 990.311 296.649, 992.354 292.338, 991.351 288.131 C 990.454 284.365, 989.060 282.923, 984.263 280.797 C 979.076 278.497, 978.292 277.108, 976.987 267.908 C 976.421 263.918, 975.482 260.080, 974.899 259.378 C 972.989 257.077, 966.939 255.778, 959.967 256.172 C 950.687 256.696, 949.023 258.541, 948.940 268.403 C 948.869 276.886, 947.692 284.708, 946.274 286.126 C 945.569 286.831, 944.092 286.142, 941.584 283.939 C 934.537 277.752, 916.624 274.485, 905.500 277.359 C 902.200 278.211, 896.350 279.194, 892.500 279.542 C 881.904 280.502, 879.247 281.595, 877.050 285.902 C 873.267 293.317, 870.234 293.521, 867.568 286.539 C 865.604 281.397, 865.226 281.226, 847.437 277.477 L 834.374 274.724 820.992 278.078 C 812.791 280.133, 806.718 282.219, 805.307 283.466 C 804.040 284.585, 801.766 287.975, 800.252 291 C 798.738 294.025, 796.767 296.635, 795.871 296.800 C 794.798 296.998, 792.863 294.916, 790.196 290.693 C 785.987 284.029, 781.727 280.711, 775.873 279.537 C 774.018 279.165, 769.628 277.935, 766.118 276.805 L 759.736 274.749 747.794 278.057 C 734.636 281.702, 735.872 281.746, 718.513 277.010 C 710.883 274.929, 710.257 274.902, 704.513 276.414 C 701.206 277.285, 694.256 278.664, 689.069 279.479 C 683.883 280.294, 679.255 281.345, 678.786 281.814 C 678.317 282.283, 677.095 284.879, 676.070 287.583 C 673.583 294.147, 671.816 294.270, 668.465 288.113 C 665.442 282.559, 662.241 280.745, 653.327 279.536 C 645.119 278.422, 644.438 277.533, 645.940 269.897 C 646.633 266.379, 648.617 260.924, 650.349 257.776 C 653.331 252.360, 653.418 251.903, 651.980 249.276 C 649.910 245.496, 644.536 243, 638.500 243.016 C 631.584 243.035, 628.859 244.679, 626.895 250.019 C 625.801 252.994, 623.946 255.440, 621.374 257.298 C 616.330 260.941, 614.966 264.176, 615.696 270.767 C 616.164 274.989, 615.923 276.427, 614.485 278.017 C 613.498 279.108, 612.062 280, 611.295 280 C 608.191 280, 604.264 283.089, 602.558 286.872 C 600.763 290.853, 598.673 292.534, 596.891 291.432 C 596.380 291.117, 594.858 288.679, 593.508 286.016 C 591.588 282.227, 590.231 280.882, 587.277 279.837 C 583.137 278.372, 567.376 278.194, 552.652 279.444 C 542.142 280.337, 540.682 281.397, 539.035 289.334 C 537.429 297.066, 536.306 297.702, 530.043 294.427 C 525.336 291.966, 524.291 291.800, 517.209 292.383 C 512.969 292.733, 507.642 293.282, 505.372 293.603 C 499.013 294.503, 497.996 292.351, 498.015 278.027 C 498.024 271.687, 498.458 265.825, 498.979 265 C 499.782 263.731, 502.912 263.552, 519.282 263.839 C 544.859 264.288, 548 263.074, 548 252.740 C 548 247.290, 545.035 244.124, 538.803 242.919 C 532.219 241.646, 500.443 242.042, 492 243.502 M 394.136 279.902 C 386.019 282.297, 382.799 284.737, 381.329 289.606 C 379.399 295.999, 379.712 305.516, 382 310 C 383.100 312.156, 384 314.439, 384 315.073 C 384 316.532, 379.712 322.005, 374.373 327.360 C 369.087 332.662, 367.992 334.879, 368.035 340.184 C 368.076 345.087, 368.889 346.758, 374.500 353.460 C 379.969 359.992, 382.445 362.341, 390 368.165 C 396.483 373.162, 396.517 373.174, 403 372.801 C 408.661 372.475, 410.116 371.952, 414.274 368.754 C 422.393 362.507, 427.898 361.955, 434.873 366.688 C 436.802 367.997, 439.006 368.828, 439.772 368.534 C 440.537 368.240, 441.493 368, 441.897 368 C 443.597 368, 446 360.571, 446 355.312 C 446 349.998, 445.773 349.483, 441.821 345.835 C 437.765 342.090, 437.626 341.751, 437.058 334.239 C 436.376 325.223, 436.017 324.453, 432.131 323.676 C 430.531 323.356, 427.956 322.006, 426.411 320.677 C 422.671 317.460, 422.677 312.914, 426.428 307.269 L 429.240 303.039 427.597 294.885 C 424.794 280.972, 423.199 279.643, 408 278.559 C 402.348 278.156, 398.932 278.487, 394.136 279.902 M 621.428 301.309 C 619.452 303.008, 618.920 304.171, 619.410 305.716 C 620.406 308.855, 622.361 309.313, 635.734 309.538 C 649.128 309.763, 650.394 309.294, 649.822 304.310 C 649.547 301.907, 648.848 301.331, 645 300.330 C 642.525 299.687, 636.813 299.125, 632.306 299.080 C 625.122 299.010, 623.781 299.285, 621.428 301.309 M 154.243 301.223 C 152.835 301.902, 151.571 303.850, 150.879 306.406 C 150.270 308.658, 148.882 312.704, 147.794 315.399 C 146.707 318.093, 146.028 321.468, 146.287 322.899 C 146.716 325.274, 149.626 332.902, 152.392 338.905 C 154.697 343.906, 167.905 346.298, 176.438 343.259 C 180.770 341.715, 181.713 340.842, 184.133 336.125 C 185.650 333.169, 187.816 329.889, 188.946 328.836 C 191.748 326.225, 191.551 324.672, 187.591 318.131 C 185.715 315.034, 183.862 310.351, 183.473 307.724 C 182.440 300.756, 180.836 299.986, 167.527 300.068 C 161.462 300.105, 155.485 300.625, 154.243 301.223 M 823.283 301.110 C 819.728 302.138, 818.750 304.526, 817.529 315.157 C 816.760 321.853, 818.558 336.605, 820.512 339.628 C 822.724 343.052, 834.319 345.491, 841.399 344.021 C 846.765 342.907, 850.994 339.647, 851.004 336.615 C 851.006 336.002, 852.354 332.800, 854 329.500 C 857.614 322.254, 857.694 320.319, 854.637 314.217 C 853.337 311.623, 851.749 307.879, 851.108 305.897 C 850.401 303.713, 848.951 301.843, 847.424 301.147 C 844.459 299.797, 827.916 299.771, 823.283 301.110 M 644.888 334.749 C 624.160 335.013, 622.134 335.195, 620.559 336.935 C 617.926 339.844, 620.012 342.629, 626.199 344.466 C 632.805 346.428, 636.341 346.399, 643.068 344.327 C 648.994 342.502, 665.609 341.910, 670.250 343.358 C 672.893 344.184, 673 344.080, 673 340.680 C 673 337.080, 670.811 333.814, 668.679 334.230 C 668.030 334.357, 657.325 334.590, 644.888 334.749 M 397.061 336.939 C 394.347 339.653, 394.461 341.552, 397.521 344.612 C 400.669 347.760, 403.915 347.429, 405.967 343.750 C 407.344 341.280, 407.344 340.720, 405.968 338.250 C 404.002 334.719, 399.886 334.114, 397.061 336.939 M 788.481 392.811 C 785.721 393.740, 782.653 394.985, 781.665 395.577 C 779.066 397.134, 778.051 402.906, 778.024 416.282 C 777.993 431.418, 779.015 434.136, 785.573 436.370 C 799.396 441.080, 806.133 434.763, 803.005 420.025 C 802.056 415.550, 802.028 412.662, 802.886 407.733 C 804.267 399.802, 803.501 395.540, 800.234 392.969 C 797.234 390.609, 795.109 390.581, 788.481 392.811 M 561.149 394.871 C 557.445 398.083, 555.763 403.984, 555.252 415.557 C 554.785 426.120, 554.870 426.737, 557.150 429.388 C 559.075 431.626, 560.696 432.296, 565.519 432.849 C 573.610 433.776, 579.627 432.818, 582.263 430.182 C 583.973 428.472, 584.518 426.524, 584.830 421.012 C 585.567 407.954, 583.483 403.792, 573.234 397.847 C 565.439 393.327, 563.484 392.845, 561.149 394.871 M 111.783 395.750 C 108.698 399.287, 107.837 402.348, 107.679 410.334 C 107.382 425.363, 112.243 438.026, 118.295 437.985 C 121.392 437.965, 131.145 434.812, 134.022 432.901 C 136.075 431.538, 136.429 430.502, 136.429 425.839 C 136.429 421.281, 135.978 419.889, 133.714 417.448 C 131.483 415.041, 131 413.593, 131 409.301 C 131 403.162, 128.607 397.829, 124.846 395.584 C 121.202 393.409, 113.743 393.504, 111.783 395.750 M 147.123 396.570 C 143.322 401.403, 143.134 412.790, 146.622 426.964 C 149.284 437.780, 152.409 439.639, 162.500 436.410 C 170.850 433.737, 174.278 431.660, 175.928 428.273 C 176.793 426.498, 177.950 425.039, 178.500 425.030 C 179.050 425.022, 180.539 426.835, 181.809 429.058 C 188.132 440.129, 203.975 440.650, 211.296 430.027 C 214.049 426.032, 213.465 422.305, 209.500 418.565 C 205.656 414.939, 205.256 412.950, 207.506 408.636 C 211.758 400.483, 206.394 395, 194.167 395 C 187.700 395, 183.657 397.171, 182.481 401.276 C 181.153 405.914, 178.470 411.993, 177.750 411.996 C 177.338 411.998, 177 412.948, 177 414.107 C 177 415.617, 176.552 416.042, 175.418 415.607 C 174.548 415.273, 173.036 415, 172.057 415 C 170.071 415, 166.828 409.102, 165.016 402.193 C 163.335 395.789, 161.055 394, 154.573 394 C 149.935 394, 148.851 394.374, 147.123 396.570 M 225.465 394.906 C 222.050 396.367, 220.927 398.542, 219.285 406.876 C 217.409 416.400, 218.310 419.792, 223.580 423.049 C 225.419 424.186, 228.335 426.898, 230.059 429.075 C 231.784 431.252, 234.043 433.488, 235.079 434.042 C 237.800 435.499, 246.435 435.914, 251.292 434.823 C 258.807 433.134, 260.492 430.434, 261.904 417.814 C 262.941 408.543, 264.937 405.212, 267.459 408.545 C 268.272 409.620, 269.140 411.850, 269.389 413.500 C 272.019 430.948, 272.982 433, 278.541 433 C 282.823 433, 284.436 429.534, 285.989 417 C 286.636 411.775, 287.397 405.611, 287.679 403.301 C 288.114 399.749, 287.801 398.710, 285.642 396.551 C 281.964 392.874, 272.329 393.181, 268.111 397.111 C 265.720 399.339, 262.452 399.514, 258.022 397.651 C 255.702 396.676, 253.664 396.554, 250.657 397.213 C 241.440 399.231, 241.230 399.230, 238.344 397.130 C 235.095 394.765, 228.470 393.621, 225.465 394.906 M 468.450 395.407 C 458.766 399.625, 456.403 412.743, 463.159 424.780 C 464.172 426.585, 465 428.706, 465 429.496 C 465 430.285, 466.397 432.521, 468.104 434.465 C 470.754 437.484, 471.836 438, 475.515 438 C 479.097 438, 480.258 437.482, 482.411 434.923 C 485.695 431.020, 486.423 428.070, 485.551 422.190 C 485.169 419.611, 484.551 413.072, 484.178 407.660 C 483.579 398.963, 483.226 397.599, 481.139 395.910 C 478.389 393.685, 472.903 393.467, 468.450 395.407 M 743.308 395.010 C 742.103 395.495, 740.367 397.036, 739.451 398.434 C 737.972 400.692, 737.913 402.119, 738.924 411.238 C 741.394 433.503, 741.635 434, 749.966 434 C 760.094 434, 764 429.876, 764 419.183 C 764 416.936, 764.675 412.506, 765.500 409.339 C 767.560 401.430, 767.427 400.273, 764.077 396.923 C 761.329 394.176, 760.684 394.004, 753.327 394.063 C 749.022 394.098, 744.514 394.524, 743.308 395.010 M 823.500 394.465 C 822.950 394.663, 821.313 395.085, 819.862 395.403 C 815.625 396.332, 813.724 402.387, 813.709 415 C 813.688 433.022, 816.420 436.221, 830.126 434.223 C 838.479 433.005, 843.378 430.537, 844.508 426.974 C 845.325 424.401, 851 424.132, 851 426.667 C 851 427.583, 851.263 428.071, 851.583 427.750 C 851.904 427.429, 853.029 428.029, 854.083 429.083 C 857.450 432.450, 859.753 431.685, 864.851 425.506 C 865.594 424.605, 866.442 421.214, 866.737 417.969 C 867.329 411.430, 865.979 406.922, 862.328 403.250 C 860.084 400.993, 855 400.126, 855 402 C 855 402.550, 854.148 403, 853.107 403 C 852.066 403, 850.955 403.675, 850.638 404.500 C 849.929 406.349, 847 406.495, 847 404.682 C 847 402.806, 840.883 396.321, 838.500 395.669 C 835.723 394.910, 824.717 394.026, 823.500 394.465 M 967.264 394.910 C 965.484 395.367, 962.415 396.971, 960.445 398.474 C 956.657 401.363, 954.463 401.448, 948.374 398.942 C 943.016 396.736, 935.860 400.806, 934.542 406.808 C 933.556 411.297, 929.983 410.959, 928.639 406.250 C 928.020 404.085, 927.092 403, 925.855 403 C 924.835 403, 924 402.550, 924 402 C 924 401.450, 922.815 401, 921.367 401 C 913.667 401, 911.590 416.648, 918.274 424.301 C 919.331 425.510, 921.039 428.145, 922.070 430.155 C 924.585 435.061, 928.534 438, 932.609 438 C 934.516 438, 939.351 436.284, 943.881 434 C 952.528 429.640, 957.231 429.015, 963.730 431.362 C 969.747 433.534, 976.709 435, 981.014 435 C 988.320 435, 991.002 429.612, 990.971 415 C 990.934 398.051, 989.036 395.068, 977.907 394.474 C 973.833 394.256, 969.044 394.452, 967.264 394.910 M 72.159 398 C 67.289 401.527, 65.701 401.701, 63 399 C 59.029 395.029, 50 397.256, 50 402.206 C 50 404.246, 51.516 405.351, 57.267 407.502 C 62.379 409.414, 62.201 409.090, 64.036 419.832 C 64.631 423.315, 65.563 427.140, 66.107 428.332 C 67.153 430.623, 72.484 434.589, 77.500 436.807 C 80.729 438.236, 88.486 437.640, 89.574 435.881 C 89.915 435.328, 91.251 434.475, 92.543 433.983 C 96.055 432.648, 97.669 426.409, 95.950 420.816 C 95.219 418.442, 94.705 413.575, 94.807 410 C 95.063 400.968, 94.604 399.708, 90.145 397.202 C 84.246 393.886, 77.420 394.189, 72.159 398 M 331 397.185 C 324.751 400.400, 321.966 405.742, 321.273 415.841 C 320.849 422.040, 321.095 424.283, 322.500 427.001 C 324.429 430.730, 326.395 433, 327.696 433 C 328.158 433, 330.191 434.125, 332.215 435.500 C 337.793 439.290, 342.964 438.944, 346.847 434.521 C 350.913 429.891, 351.608 425.604, 349.419 418.659 C 347.955 414.016, 347.856 412.423, 348.830 409.174 C 350.475 403.682, 350.244 400.873, 347.917 398.078 C 344.934 394.494, 337.040 394.077, 331 397.185 M 432.382 395.982 C 428.481 397.558, 426.079 403.076, 425.077 412.767 C 423.812 424.992, 424.715 428.531, 430.677 434.722 C 436.486 440.755, 443.184 439.876, 446.641 432.626 C 447.978 429.823, 448.073 427.160, 447.300 414.184 C 446.490 400.586, 446.173 398.810, 444.240 397.009 C 441.960 394.885, 436.310 394.396, 432.382 395.982 M 505 395.706 C 502.624 396.575, 499 400.215, 499 401.733 C 499 403.982, 504.973 410.746, 508.105 412.043 C 509.697 412.703, 511 413.638, 511 414.121 C 511 417.439, 518.303 411.963, 520.068 407.322 C 522.946 399.752, 519.612 394.953, 511.561 395.079 C 508.778 395.122, 505.825 395.405, 505 395.706 M 878.500 396.842 C 874.555 399.254, 873.768 400.428, 871.565 407.199 C 868.431 416.827, 870.974 428.719, 877.142 433.277 C 879.943 435.347, 885.196 436.742, 893.678 437.670 C 898.420 438.188, 899.124 437.986, 902.034 435.266 C 905.972 431.586, 906.927 425.640, 904.639 419.047 C 903.512 415.798, 903.253 412.534, 903.681 406.975 C 904.255 399.536, 904.204 399.305, 901.500 397.178 C 899.140 395.323, 897.455 395.001, 890.115 395.004 C 883.521 395.007, 880.796 395.438, 878.500 396.842 M 648.098 397.265 C 639.851 401.506, 644.795 407.956, 656.316 407.985 C 663.961 408.005, 666 406.854, 666 402.522 C 666 397.877, 663.118 395.996, 656.027 396.015 C 652.987 396.023, 649.419 396.585, 648.098 397.265 M 706.353 397.122 C 703.273 398.688, 700.593 407.826, 701.297 414.362 C 701.601 417.188, 702.841 421.857, 704.053 424.738 C 705.985 429.330, 706.912 430.286, 711.566 432.488 C 721.264 437.076, 729.169 434.944, 730.593 427.357 C 731.324 423.457, 729.670 411.565, 727.836 407.540 C 727.199 406.141, 724.230 403.149, 721.238 400.890 C 715.453 396.522, 710.166 395.184, 706.353 397.122 M 14.488 399.377 C 13.632 400.685, 12.496 403.269, 11.965 405.121 C 10.635 409.760, 10.854 425.742, 12.306 429.993 C 13.937 434.765, 19.322 437.280, 28.179 437.405 C 34.268 437.492, 35.129 437.240, 37.929 434.563 C 40.262 432.332, 41 430.747, 41 427.968 C 41 423.774, 39.283 421.875, 33.710 419.908 C 28.154 417.946, 26.874 415.966, 25.997 407.974 C 25.424 402.751, 24.664 400.335, 23.149 398.924 C 20.286 396.257, 16.400 396.461, 14.488 399.377 M 681.765 405.879 C 680.354 407.463, 678.705 409.684, 678.100 410.814 C 676.603 413.611, 676.707 423.816, 678.250 425.537 C 678.938 426.303, 680.080 427.621, 680.789 428.465 C 683.043 431.147, 686.765 430.355, 688.602 426.803 C 689.908 424.277, 690.145 421.812, 689.732 415.053 C 689.445 410.349, 688.889 405.712, 688.498 404.750 C 687.443 402.157, 684.667 402.623, 681.765 405.879 M 301.035 408.934 C 299.445 411.905, 299.728 423.871, 301.429 425.571 C 304.682 428.825, 307 425.725, 307 418.118 C 307 408.900, 303.740 403.881, 301.035 408.934 M 363 413.862 C 363 414.973, 362.550 416.160, 362 416.500 C 361.450 416.840, 361 419.515, 361 422.444 C 361 427.382, 361.310 428.077, 365.250 431.986 C 373.379 440.049, 380.021 440.807, 384.521 434.184 C 388.209 428.756, 387.884 423.950, 383.533 419.600 C 380.941 417.008, 378.859 415.954, 375.283 415.427 C 372.652 415.040, 370.275 414.391, 370 413.987 C 369.725 413.582, 368.038 412.934, 366.250 412.546 C 363.423 411.933, 363 412.104, 363 413.862 M 626.502 418.441 C 621.838 419.750, 619.713 422.998, 620.404 427.760 C 620.938 431.438, 621.927 432.612, 627.209 435.844 C 629.994 437.547, 632.105 438.036, 635.676 437.806 C 639.816 437.540, 640.730 437.059, 642.717 434.102 C 646.975 427.765, 644.860 419.625, 638.653 418.465 C 632.626 417.338, 630.451 417.333, 626.502 418.441" stroke="none" fill="#ffffff" fill-rule="evenodd"/>
</svg>