<svg xmlns="http://www.w3.org/2000/svg" width="1000" height="222" viewBox="0 0 1000 222" version="1.1">
	<path d="M 957 78.461 C 945.797 82.297, 942.435 84.456, 940.626 88.976 C 936.816 98.499, 939.895 106.400, 949.511 111.774 C 952.805 113.614, 957.075 116.169, 959 117.451 C 960.925 118.733, 964.854 120.539, 967.730 121.465 C 975.442 123.946, 977.435 125.873, 976.640 130.076 C 975.617 135.482, 972.166 139.034, 967.303 139.686 C 963.846 140.150, 961.725 139.595, 955.127 136.498 C 946.513 132.456, 942.667 132.322, 941.492 136.025 C 939.693 141.693, 944.522 147.979, 952.295 150.089 C 958.638 151.810, 974.251 150.761, 977.563 148.391 C 979.018 147.351, 982.280 145.375, 984.812 144 C 990.258 141.044, 992.871 136.988, 993.612 130.347 C 994.059 126.333, 993.666 124.555, 991.326 120 C 988.517 114.533, 988.413 114.456, 974.066 107.262 C 966.128 103.281, 959.272 99.456, 958.832 98.762 C 957.342 96.414, 957.988 93.915, 960.750 91.351 C 963.185 89.091, 964.072 88.868, 968.500 89.406 C 987.299 91.689, 989 91.409, 989 86.033 C 989 82.225, 986.149 80.050, 978.305 77.875 C 969.820 75.522, 965.212 75.649, 957 78.461 M 286 80.620 C 284.625 81.590, 283.169 82.860, 282.765 83.442 C 282.361 84.024, 282.024 97.197, 282.015 112.716 C 281.999 143.688, 282.519 146.877, 287.909 148.826 C 289.334 149.341, 297.475 149.677, 306 149.573 L 321.500 149.383 330.389 145.275 C 341.547 140.118, 343.145 138.548, 343.761 132.138 C 344.422 125.261, 343.641 122.862, 338.995 117.494 C 335.684 113.669, 335 112.150, 335 108.623 C 335 105.017, 335.534 103.895, 338.500 101.269 C 340.678 99.341, 342 97.259, 342 95.757 C 342 92.084, 336.143 83.958, 332.355 82.375 C 327.780 80.463, 316.052 80.575, 313.223 82.557 C 310.083 84.755, 310.417 85.666, 315.250 88.096 C 321.429 91.203, 323 92.907, 323 96.500 C 323 99.649, 320.511 103, 318.171 103 C 315.790 103, 313 107.002, 313 110.418 C 313 115.637, 313.840 116.885, 319.163 119.582 C 326.448 123.274, 327.114 125.610, 323.167 133.616 C 319.822 140.398, 316.332 143, 310.579 143 C 305.259 143, 303.083 141.010, 300.989 134.229 C 299.349 128.920, 299 124.934, 299 111.535 L 299 95.282 303 90.737 C 305.200 88.238, 307 85.524, 307 84.705 C 307 82.784, 300.447 80.178, 293.752 79.437 C 289.668 78.985, 287.944 79.248, 286 80.620 M 365.329 80.419 C 363.585 81.199, 361.767 82.661, 361.290 83.669 C 360.813 84.676, 360.473 98.395, 360.535 114.156 C 360.633 139.246, 360.858 143.134, 362.336 145.391 C 364.340 148.449, 368.010 149.600, 370.873 148.068 C 374.180 146.298, 375.300 139.918, 374.571 127 C 374.012 117.084, 374.169 115.018, 375.711 112 C 376.695 110.075, 378.175 108.500, 379 108.500 C 379.825 108.500, 381.933 110.750, 383.684 113.500 C 385.435 116.250, 388.092 119.705, 389.589 121.178 C 391.086 122.651, 393.478 126.108, 394.905 128.861 C 396.332 131.614, 399.963 137.047, 402.974 140.933 C 409.401 149.230, 412.264 150.070, 416.967 145.036 C 420.567 141.181, 421.237 137.412, 419.879 128.656 C 419.051 123.321, 419.077 117.151, 419.981 104.367 C 421.315 85.506, 421.076 84.125, 416.020 81.510 C 411.622 79.236, 408.443 79.621, 406.002 82.725 C 404.061 85.193, 403.921 86.212, 404.528 93.499 C 405.319 102.988, 403.949 109.564, 400.987 110.504 C 398.227 111.380, 397.113 110.429, 394.931 105.339 C 393.884 102.896, 391.559 99.150, 389.764 97.013 C 387.969 94.876, 385.347 90.962, 383.938 88.314 C 380.121 81.143, 371.698 77.570, 365.329 80.419 M 446.500 80.092 C 444.850 80.593, 442.436 81.831, 441.135 82.842 L 438.771 84.682 438.820 112.976 L 438.869 141.270 441.787 144.885 C 444.780 148.593, 447.447 149.606, 451.524 148.583 C 454.665 147.795, 456.333 142.462, 456.483 132.726 C 456.650 121.888, 457.526 121.128, 470.801 120.319 C 479.809 119.770, 481.586 119.340, 486.172 116.599 C 494.424 111.667, 497.525 108.179, 498.950 102.224 C 500.156 97.181, 500.087 96.701, 497.395 91.381 C 495.846 88.319, 493.567 85.018, 492.330 84.045 C 488.631 81.135, 479.138 79.743, 471.756 81.029 C 466.576 81.931, 464.145 81.845, 458.637 80.568 C 451.102 78.820, 450.733 78.806, 446.500 80.092 M 546.500 79.933 C 541.267 80.818, 538.020 82.654, 537.919 84.785 C 537.874 85.728, 537.807 98.892, 537.770 114.038 C 537.722 133.453, 538.052 142.228, 538.886 143.788 C 540.745 147.260, 544.433 149.164, 548.625 148.815 C 554.245 148.346, 556.341 144.220, 556.207 133.888 C 556.118 126.994, 556.398 125.649, 558.414 123.305 C 560.554 120.817, 561.468 120.575, 570.847 120.009 C 578.867 119.525, 581.550 118.969, 583.765 117.332 C 585.303 116.195, 588.348 114.342, 590.531 113.215 C 595.679 110.558, 597.153 107.962, 597.752 100.501 C 598.933 85.787, 589.177 78.965, 570.015 81.104 C 564.520 81.718, 560.374 81.748, 559.281 81.183 C 556.491 79.742, 550.876 79.193, 546.500 79.933 M 629.445 79.959 C 626.762 81.045, 621.224 87.391, 619.489 91.366 C 618.737 93.090, 617.210 97.668, 616.096 101.539 C 614.808 106.014, 613.167 109.364, 611.590 110.735 C 609.992 112.124, 608.224 115.773, 606.623 120.986 C 605.068 126.050, 602.989 130.387, 601.069 132.574 C 598.475 135.529, 598 136.884, 598 141.335 C 598 147.045, 599.175 149, 602.605 149 C 605.421 149, 613.001 142.739, 615.146 138.642 C 618.436 132.359, 620.302 131.480, 629.892 131.692 C 641.779 131.955, 643.317 132.704, 647.018 140.035 C 649.378 144.710, 650.904 146.480, 653.519 147.572 C 657.734 149.333, 662.428 149.415, 663.740 147.750 C 666.748 143.931, 665.704 136.179, 661.510 131.195 C 660.183 129.618, 658.190 125.053, 657.081 121.051 C 655.972 117.048, 653.976 112.347, 652.646 110.602 C 651.316 108.858, 648.842 103.461, 647.150 98.608 C 643.788 88.966, 640.467 83.865, 635.634 80.919 C 632.136 78.786, 632.285 78.809, 629.445 79.959 M 758.826 80.687 C 757.355 81.613, 755.770 83.300, 755.303 84.436 C 754.836 85.571, 754.689 99.181, 754.977 114.680 C 755.472 141.346, 755.613 143.011, 757.608 145.680 C 760.502 149.552, 765.463 149.600, 768.311 145.785 C 770.225 143.221, 770.349 141.457, 770.552 113.956 C 770.762 85.492, 770.719 84.787, 768.633 82.458 C 765.775 79.266, 762.129 78.608, 758.826 80.687 M 679.973 81.829 L 677.500 83.840 677.847 113.668 C 678.038 130.073, 678.611 144.273, 679.120 145.225 C 680.631 148.047, 683.829 149.205, 688.114 148.481 C 695.184 147.286, 695.492 146.062, 695.554 118.918 C 695.612 93.249, 695.831 92.123, 701.479 88.422 C 703.733 86.945, 704.330 86.949, 708.908 88.470 C 716.464 90.979, 719 93.384, 719 98.039 C 719 103.403, 716.294 108.636, 712.764 110.098 C 706.180 112.825, 705.519 119.059, 711.026 126.500 C 712.655 128.700, 715.287 133.237, 716.876 136.582 C 719.664 142.450, 721.481 144.183, 729.702 148.812 C 734.919 151.750, 738.721 147.295, 737.567 139.597 C 737.031 136.027, 735.991 134.190, 732.763 131.119 C 729.003 127.541, 728.604 126.676, 728.211 121.241 C 727.904 116.997, 728.171 114.969, 729.140 114.186 C 737.548 107.396, 737.402 107.631, 737.764 100.367 C 738.160 92.429, 736.633 89.107, 730.407 84.366 C 726.762 81.590, 726.236 81.492, 713.572 81.243 C 706.382 81.102, 696.438 80.723, 691.473 80.402 C 683.407 79.880, 682.184 80.032, 679.973 81.829 M 794.315 81.007 C 793.114 81.491, 791.651 82.783, 791.065 83.878 C 790.387 85.146, 790 95.705, 790 112.966 C 790 142.899, 790.512 146.055, 795.702 148.133 C 797.307 148.776, 805.323 149.306, 814.500 149.377 L 830.500 149.500 836.985 146.250 C 840.552 144.463, 843.961 143, 844.561 143 C 847.643 143, 853 133.356, 853 127.808 C 853 126.187, 851.712 122.979, 850.137 120.680 C 847.451 116.759, 843 108.623, 843 107.634 C 843 107.390, 844.575 105.304, 846.500 103 C 850.614 98.076, 851.036 93.951, 848.027 88.053 C 844.501 81.141, 833.445 78.754, 821.891 82.410 C 816.385 84.153, 816.208 84.147, 812.181 82.092 C 807.840 79.877, 798.523 79.311, 794.315 81.007 M 889.705 82.374 C 885.699 86.688, 881.876 93.893, 879.106 102.346 C 877.603 106.932, 875.241 111.906, 873.856 113.399 C 872.244 115.138, 870.719 118.743, 869.616 123.422 C 868.414 128.521, 867.050 131.601, 865.102 133.615 C 861.856 136.970, 860.759 140.544, 861.633 144.915 C 862.449 148.997, 865.552 149.780, 870.634 147.186 C 875.338 144.785, 877.462 142.532, 879.404 137.884 C 881.842 132.050, 883.188 131.473, 893.790 131.724 C 899 131.848, 904.148 132.230, 905.231 132.573 C 906.314 132.917, 908.055 135.066, 909.100 137.349 C 911.607 142.829, 912.859 144.335, 917.018 146.870 C 921.475 149.587, 926.567 149.678, 927.965 147.066 C 929.338 144.499, 929.286 136.425, 927.878 133.684 C 927.261 132.483, 925.715 130.375, 924.443 129 C 923.171 127.625, 921.216 123.187, 920.098 119.139 C 918.980 115.090, 916.654 109.577, 914.927 106.887 C 913.201 104.197, 910.950 99.302, 909.925 96.008 C 907.253 87.421, 905.500 84.472, 901.656 82.097 C 897.083 79.270, 892.488 79.377, 889.705 82.374 M 200 82.515 C 200 84.165, 195.906 92.432, 193.774 95.087 C 191.615 97.776, 188.339 99, 183.316 98.996 C 178.064 98.992, 172 96.071, 172 93.546 C 172 92.638, 171.418 92.286, 170.500 92.638 C 169.550 93.003, 169 92.625, 169 91.607 C 169 90.723, 168.325 90, 167.500 90 C 166.675 90, 166 89.325, 166 88.500 C 166 87.675, 165.438 87.003, 164.750 87.008 C 161.573 87.027, 150.490 89.201, 150.023 89.896 C 148.950 91.495, 145.060 91.730, 143.044 90.319 C 138.763 87.320, 132 91.954, 132 97.887 C 132 100.658, 127.325 102.263, 117.756 102.775 C 109.671 103.209, 108.593 103.033, 103.472 100.441 C 96.854 97.093, 96.490 97.311, 92.494 107 C 88.598 116.450, 82.709 122, 76.580 122 C 74.620 122, 73.281 120.780, 70.543 116.500 C 66.742 110.558, 65.971 110.115, 63.872 112.673 C 60.939 116.247, 50.705 122, 47.279 122 C 41.873 122, 40 120.495, 40 116.153 C 40 113.141, 40.590 111.940, 42.913 110.222 C 44.515 109.038, 46.112 106.767, 46.462 105.175 C 46.811 103.583, 48.425 101.009, 50.049 99.453 C 53.754 95.903, 53.762 94.558, 50.085 93.035 C 42.217 89.776, 33.389 88.468, 31.565 90.292 C 29.418 92.439, 24.937 91.213, 21.760 87.609 C 19.149 84.647, 18.952 84.587, 17.579 86.346 C 15.138 89.476, 14.575 99.954, 14.537 143 C 14.505 179.187, 14.722 185.363, 16.233 191.237 C 17.311 195.431, 17.743 199.598, 17.376 202.276 C 16.603 207.916, 18.677 210.097, 22.460 207.618 C 23.818 206.728, 25.819 206, 26.906 206 C 29.304 206, 30.500 204.337, 30.500 201 C 30.500 198.583, 30.747 198.490, 37.986 198.201 C 45.284 197.910, 45.535 197.980, 47.986 200.976 C 52.112 206.021, 62.397 206.022, 63.716 200.977 C 64.438 198.218, 68.015 197.562, 72.382 199.386 C 74.399 200.229, 76.713 200.664, 77.525 200.352 C 78.467 199.991, 79 200.397, 79 201.476 C 79 202.473, 79.513 202.927, 80.250 202.584 C 80.938 202.263, 82.287 201.724, 83.250 201.384 C 84.213 201.045, 85 200.192, 85 199.490 C 85 198.788, 85.636 197.970, 86.414 197.671 C 87.191 197.373, 88.407 194.512, 89.114 191.314 C 90.644 184.403, 93.842 180.727, 99.903 178.911 C 102.403 178.162, 105.937 175.870, 108.523 173.321 C 112.709 169.193, 113.174 169, 118.906 169 C 125.983 169, 129.367 170.315, 130.890 173.657 C 132.599 177.408, 132.273 178.693, 128.571 182.790 C 126.685 184.877, 124.845 187.770, 124.481 189.219 C 123.485 193.187, 121.231 194.610, 113.027 196.450 C 104.878 198.277, 103 199.319, 103 202.015 C 103 204.546, 105.214 205.091, 115.500 205.091 C 125.402 205.091, 128 204.530, 128 202.393 C 128 201.627, 128.450 201, 129 201 C 129.550 201, 130 200.334, 130 199.519 C 130 198.705, 131.125 197.756, 132.500 197.411 C 133.875 197.066, 135 196.382, 135 195.892 C 135 194.509, 140.780 194.841, 141.250 196.250 C 141.574 197.220, 147.709 197.422, 168.675 197.153 C 183.529 196.963, 198.668 197.127, 202.318 197.517 L 208.952 198.228 209.603 201.864 C 210.635 207.635, 214.630 210.956, 216.682 207.750 C 217.122 207.063, 217.549 204.025, 217.631 201 C 217.713 197.975, 218.117 188.731, 218.528 180.457 C 219.099 168.971, 218.887 161.997, 217.630 150.957 C 216.725 143.006, 215.837 126.080, 215.657 113.344 C 215.300 88.040, 214.990 86.706, 209.702 87.717 C 207.607 88.117, 206.310 87.461, 203.525 84.594 C 201.233 82.233, 200 81.506, 200 82.515 M 812.491 88.194 C 811.013 89.950, 809.479 92.313, 809.083 93.444 C 807.942 96.701, 808.633 132.024, 809.932 136.794 C 811.338 141.959, 814.228 143.431, 821.106 142.485 C 825.278 141.912, 826.330 141.180, 831.377 135.340 C 834.470 131.762, 837 128.042, 837 127.072 C 837 124.663, 834.483 122.638, 828.125 119.933 C 824.129 118.233, 822.421 116.858, 821.466 114.573 C 819.403 109.636, 820.613 106.576, 826.106 102.838 C 831.788 98.973, 832.793 96.860, 830.567 93.462 C 828.807 90.776, 819.466 85.024, 816.839 85.009 C 815.925 85.004, 813.969 86.437, 812.491 88.194 M 460.345 89.931 C 456.612 92.207, 455.526 95.917, 456.506 103.042 C 457.404 109.574, 460.332 112, 467.315 112 C 472.010 112, 472.652 111.686, 476.565 107.485 C 481.156 102.555, 483.548 97.872, 482.660 95.555 C 481.815 93.355, 470.553 87.999, 466.779 88.004 C 464.975 88.006, 462.080 88.873, 460.345 89.931 M 558.589 91.077 C 554.839 95.534, 555.139 105.625, 559.150 109.931 C 561.359 112.302, 568.216 112.770, 572.453 110.839 C 575.006 109.676, 580 100.554, 580 97.053 C 580 93.226, 571.123 88, 564.621 88 C 562.004 88, 560.557 88.738, 558.589 91.077 M 891.135 107.811 C 886.785 113.919, 887.148 119.990, 891.981 121.992 C 894.530 123.048, 895.379 122.982, 897.548 121.561 C 898.956 120.638, 900.369 119.201, 900.690 118.367 C 901.977 115.011, 896.989 105, 894.029 105 C 893.538 105, 892.235 106.265, 891.135 107.811 M 627.218 109.750 C 622.905 115.231, 622.542 117.221, 625.373 119.880 C 628.396 122.721, 633.776 123.027, 635.649 120.465 C 637.583 117.821, 637.310 113.020, 635.011 109.250 C 632.449 105.049, 630.835 105.152, 627.218 109.750 M 40.380 138.163 C 38.155 139.240, 36.530 143.457, 35.432 151 C 35.072 153.475, 33.766 157.081, 32.531 159.013 C 29.061 164.441, 28.616 166.764, 30.495 169.632 C 31.408 171.026, 33.681 172.805, 35.546 173.584 C 38.625 174.870, 43.466 180.258, 49.685 189.317 C 54.640 196.536, 57.122 197.606, 59.390 193.500 C 62.872 187.196, 65.123 185.094, 69.257 184.281 C 73.227 183.501, 73.520 183.215, 73.804 179.835 C 74.075 176.606, 73.624 175.826, 69.554 172.491 C 64.614 168.442, 64.033 166.317, 66.217 160.277 C 67.893 155.641, 66.552 153.931, 59.625 151.875 C 52.535 149.770, 51.308 148.761, 49.826 143.813 C 48.703 140.064, 45.767 136.920, 43.527 137.068 C 42.962 137.105, 41.546 137.598, 40.380 138.163" stroke="none" fill="#ffffff" fill-rule="evenodd"/>
</svg>