<svg xmlns="http://www.w3.org/2000/svg" width="1000" height="278" viewBox="0 0 1000 278" version="1.1">
	<path d="M 201.500 13.932 C 175.615 14.364, 166.866 14.826, 164.845 15.867 C 163.385 16.619, 161.029 19.319, 159.610 21.867 C 158.190 24.415, 156.235 27.455, 155.264 28.622 C 152.938 31.419, 143.365 37.394, 138.790 38.904 C 133.976 40.493, 132.653 42.269, 133.326 46.239 C 133.735 48.645, 133.127 50.942, 131.009 55 C 126.251 64.116, 120 76.918, 120 77.545 C 120 77.869, 118.936 79.566, 117.636 81.317 C 116.337 83.068, 112.894 89, 109.987 94.500 C 107.080 100, 103.643 106.480, 102.351 108.899 C 99.652 113.949, 99.403 116.803, 101.421 119.559 C 102.757 121.384, 104.272 121.503, 126.671 121.553 C 152.997 121.611, 162.958 122.777, 169.923 126.615 C 172.595 128.088, 178.084 129.654, 183.793 130.572 C 188.989 131.408, 195.099 132.740, 197.370 133.532 C 205.764 136.457, 210.794 135.164, 213.903 129.282 C 214.782 127.621, 216.460 124.516, 217.634 122.381 C 218.808 120.247, 220.324 115.800, 221.004 112.500 C 221.887 108.208, 223.343 105.111, 226.119 101.619 C 228.254 98.935, 230 96.108, 230 95.338 C 230 91.770, 234.469 81.270, 237.490 77.741 C 239.530 75.357, 241.318 71.803, 242.057 68.662 C 243.473 62.643, 246.163 56.940, 248.500 55 C 250.462 53.372, 253.132 48.117, 254.985 42.239 C 255.723 39.895, 257.840 36.210, 259.689 34.050 C 265.994 26.684, 267.752 18.898, 263.898 15.405 C 261.419 13.158, 255.783 13.025, 201.500 13.932 M 401.500 37.040 C 398.750 38.152, 393.126 41.418, 389.001 44.299 C 382.397 48.913, 380.875 50.608, 376.234 58.519 C 368.877 71.062, 368.703 71.539, 368.232 80.544 C 367.642 91.834, 368.873 95.288, 376.291 103.153 C 384.186 111.524, 386.859 112.360, 404.031 111.828 C 421.021 111.302, 422.202 110.597, 427.264 97.949 C 430.519 89.815, 431 87.613, 430.718 82.129 C 430.469 77.294, 429.935 75.426, 428.504 74.379 C 425.886 72.465, 423.069 72.661, 419.190 75.026 C 416.004 76.968, 415.363 78.068, 411.635 88 C 408.984 95.062, 407.629 96.334, 402.768 96.328 C 390.420 96.313, 385.016 85.478, 389.602 69.932 C 391.490 63.533, 397.038 57.618, 404.597 53.943 C 408.822 51.890, 410.835 51.581, 419.160 51.709 C 430.366 51.881, 431.910 50.979, 432.720 43.788 C 433.118 40.262, 432.810 39.138, 431 37.497 C 429.115 35.789, 427.182 35.465, 417.648 35.260 C 408.398 35.060, 405.649 35.363, 401.500 37.040 M 505.379 36.437 C 501.975 37.918, 498.335 42.256, 495.256 48.500 C 492.586 53.916, 492.309 55.280, 489.481 76.945 C 488.127 87.327, 486.564 97.017, 486.009 98.476 C 483.529 104.999, 485.619 109.374, 491.804 110.611 C 496.850 111.620, 499.623 109.132, 501.036 102.328 C 503.691 89.536, 506.355 88.836, 511.878 99.479 C 515.942 107.310, 520.762 110.955, 527.095 110.984 C 534.780 111.019, 535.720 105.857, 530.195 93.957 C 525.365 83.552, 525.331 84.052, 531.381 76.384 C 534.368 72.598, 538.165 68.337, 539.820 66.916 C 543.253 63.966, 544.664 57.890, 543.506 51.038 C 542.926 47.602, 541.836 46.105, 536.969 42.054 C 532.751 38.543, 529.708 36.889, 526.015 36.097 C 519.106 34.615, 509.189 34.778, 505.379 36.437 M 623.079 36.654 C 618.400 38.694, 605.968 48.175, 603.410 51.656 C 602.260 53.220, 599.203 58.576, 596.618 63.557 C 592.760 70.988, 591.810 73.883, 591.324 79.673 C 590.372 91.027, 591.378 94.893, 597.168 102.142 C 599.961 105.639, 603.428 109.156, 604.873 109.958 C 606.545 110.885, 611.377 111.561, 618.167 111.815 C 630.597 112.282, 637.364 110.590, 642.393 105.760 C 644.102 104.118, 647.357 101.492, 649.627 99.924 C 652.138 98.190, 654.348 95.591, 655.272 93.287 C 656.108 91.204, 658.467 85.974, 660.515 81.664 C 663.923 74.490, 664.238 73.095, 664.238 65.164 C 664.237 59.549, 663.684 55.176, 662.665 52.739 C 660.213 46.872, 651.601 38.393, 646.239 36.566 C 640.437 34.589, 627.706 34.637, 623.079 36.654 M 855 35.868 C 844.846 38.079, 842.682 43.031, 835.494 80.500 C 834.123 87.650, 832.716 96.273, 832.367 99.662 C 831.779 105.378, 831.921 106.012, 834.321 108.412 C 839.636 113.727, 845.550 110.498, 848.390 100.731 C 849.285 97.652, 851.084 93.865, 852.388 92.316 C 853.702 90.754, 859.757 87.074, 865.983 84.053 C 875.882 79.251, 877.844 77.858, 882.597 72.255 C 888.816 64.925, 889.462 63.066, 888.712 54.661 C 888.184 48.736, 887.959 48.316, 882.832 43.702 C 879.899 41.064, 876.229 38.222, 874.675 37.388 C 871.402 35.631, 860.099 34.757, 855 35.868 M 956.749 36.413 C 947.601 38.874, 945.860 42.040, 943.476 60.545 C 942.535 67.843, 940.525 77.430, 938.872 82.500 C 937.258 87.450, 935.571 94.124, 935.123 97.332 C 933.387 109.765, 935.105 111.362, 950.753 111.859 C 962.681 112.237, 968.946 111.185, 972.250 108.246 C 976.014 104.899, 973.310 100.981, 965.845 98.962 C 959.648 97.287, 957.751 95.044, 957.232 88.780 C 956.681 82.143, 958.628 79.466, 964.694 78.515 C 972.467 77.297, 975.875 75.970, 976.530 73.906 C 977.356 71.304, 974.765 68.327, 970.943 67.488 C 966.757 66.568, 963 63.236, 963 60.443 C 963 57.940, 967.059 54.371, 977.500 47.697 C 983.988 43.549, 984.750 40.037, 979.814 37.028 C 975.889 34.635, 964.489 34.331, 956.749 36.413 M 770.255 38.250 C 768.042 41.045, 767.031 44.111, 765.038 54.066 C 763.889 59.805, 762.120 66.750, 761.105 69.500 C 760.091 72.250, 758.938 76.750, 758.542 79.500 C 758.147 82.250, 756.453 87.084, 754.777 90.241 C 751.959 95.552, 751.322 96.112, 746.282 97.700 C 741.401 99.239, 740.557 99.262, 738.167 97.925 C 732.519 94.763, 732.014 81.394, 736.646 57.634 C 738.370 48.790, 737.914 44.431, 734.858 40.547 C 733.252 38.505, 732.047 37.961, 729.647 38.195 C 725.466 38.603, 722.447 44.121, 720.980 54.038 C 720.372 58.142, 718.505 67.105, 716.831 73.956 C 712.889 90.088, 713.169 94.684, 718.576 102.574 C 723.999 110.488, 727.496 111.953, 741 111.968 C 749.959 111.979, 752.246 111.633, 756.581 109.614 C 761.930 107.124, 766.466 102.250, 771.578 93.500 C 775.886 86.128, 776.019 85.672, 778.125 71 C 781.806 45.355, 781.794 42.794, 777.975 38.975 C 775.746 36.746, 771.743 36.370, 770.255 38.250 M 513.589 55.077 C 508.427 61.211, 511.408 68.849, 518.679 68.118 C 523.097 67.674, 524.512 59.192, 520.927 54.635 C 518.244 51.223, 516.756 51.313, 513.589 55.077 M 627 53.322 C 616.248 58.952, 613.171 63.211, 611.085 75.346 C 609.751 83.103, 610.605 87.299, 614.605 92.659 C 616.260 94.876, 618.100 96.010, 620.776 96.462 C 625.555 97.270, 629.030 95.972, 633.779 91.607 C 635.825 89.725, 638.464 87.356, 639.641 86.343 C 642.709 83.702, 645 75.745, 645 67.726 C 645 59.313, 643.152 55.678, 637.781 53.529 C 633.111 51.661, 630.276 51.606, 627 53.322 M 858.073 56.635 C 855.456 59.961, 855.429 63.429, 858 66 C 860.309 68.309, 861.303 68.441, 864.316 66.837 C 869.250 64.209, 870.143 60.722, 866.927 56.635 C 864.254 53.237, 860.746 53.237, 858.073 56.635 M 275.893 70.497 C 272.463 72.361, 270.801 75.037, 267.654 83.763 C 266.218 87.742, 263.701 93.586, 262.059 96.749 C 260.418 99.912, 258.160 105.471, 257.043 109.103 C 255.925 112.734, 253.888 117.359, 252.517 119.380 C 248.766 124.907, 247.396 127.959, 246.001 133.891 C 244.902 138.561, 243.745 140.264, 237.336 146.631 C 233.267 150.673, 228.638 154.653, 227.048 155.475 C 225.458 156.297, 223.152 158.439, 221.922 160.235 C 220.692 162.031, 218.206 165.075, 216.397 167 C 212.745 170.885, 210.498 178.437, 211.558 183.262 C 212.396 187.080, 217.710 189.462, 223.369 188.557 C 225.936 188.147, 229.221 188.512, 232.649 189.591 C 237.464 191.105, 238.174 191.116, 240.326 189.706 C 241.808 188.735, 243.179 186.343, 243.983 183.326 C 244.690 180.672, 246.726 175.800, 248.509 172.500 C 250.291 169.200, 252.459 163.654, 253.326 160.176 C 254.194 156.698, 256.421 151.523, 258.276 148.676 C 260.131 145.829, 262.872 140.085, 264.367 135.912 C 265.862 131.739, 267.853 127.247, 268.792 125.931 C 269.732 124.615, 273.830 117.005, 277.899 109.019 C 296.113 73.278, 295.377 75.286, 291.641 71.550 C 289.535 69.444, 288.169 69.007, 283.795 69.040 C 280.883 69.062, 277.327 69.718, 275.893 70.497 M 393.500 138.136 C 391.300 138.650, 387.846 140.399, 385.824 142.023 C 381.922 145.157, 379.180 146.503, 374.795 147.439 C 372.175 147.997, 357 162.005, 357 163.865 C 357 164.362, 355.194 166.523, 352.986 168.665 C 349.351 172.194, 348.827 173.359, 347.422 181.031 C 346.570 185.689, 344.580 192.662, 343 196.527 C 338.554 207.406, 338.237 212.368, 341.497 220.084 C 342.988 223.613, 345.221 229.250, 346.459 232.610 C 349.491 240.844, 349.312 240.635, 356.323 244.091 C 359.721 245.765, 364.750 248.342, 367.500 249.818 C 372.429 252.462, 372.765 252.499, 391 252.415 C 401.644 252.366, 411.219 251.842, 413.548 251.181 C 418.737 249.708, 428.144 242.744, 429.705 239.220 C 430.368 237.724, 430.930 233.062, 430.955 228.860 C 430.980 224.658, 431.900 216.846, 433 211.500 C 435.467 199.509, 435.486 197.486, 433.152 195.152 C 429.006 191.006, 417.463 191.729, 415.206 196.276 C 414.599 197.499, 413.628 203.145, 413.048 208.823 C 412.467 214.500, 411.540 219.991, 410.986 221.026 C 409.514 223.777, 399.219 231.907, 396.270 232.647 C 393.348 233.380, 384.049 230.733, 379.215 227.792 C 376.823 226.337, 374.689 223.307, 371.365 216.647 C 367.313 208.526, 366.863 206.965, 367.355 202.736 C 367.660 200.115, 369.050 195.699, 370.445 192.923 C 371.840 190.146, 373.668 185.511, 374.507 182.623 C 376.491 175.800, 386.758 164.626, 392.044 163.538 C 393.945 163.147, 398.164 161.466, 401.421 159.803 C 409.029 155.918, 417.203 155.019, 422.064 157.534 C 427.593 160.394, 434.879 161.996, 437.620 160.954 C 440.480 159.867, 441.637 157.154, 443.249 147.756 C 444.413 140.963, 444.383 140.729, 442.112 138.889 C 439.979 137.162, 437.963 137.009, 418.639 137.100 C 407.013 137.156, 395.700 137.622, 393.500 138.136 M 483.303 138.197 C 480.998 139.311, 479 143.685, 479 147.619 C 479 148.896, 477.596 152.704, 475.879 156.082 C 473.035 161.678, 472.632 163.700, 471.332 178.861 C 470.547 188.013, 468.968 201.763, 467.822 209.417 C 465.988 221.677, 465.889 224.178, 466.991 230.417 C 468.952 241.514, 469.540 242.282, 482.376 250.500 C 485.041 252.206, 487.578 252.550, 499.650 252.842 C 516.184 253.241, 523.404 252.050, 528.370 248.103 C 530.296 246.573, 533.907 244.543, 536.396 243.593 C 539.584 242.375, 541.569 240.778, 543.117 238.183 C 544.325 236.157, 546.644 233.076, 548.270 231.336 C 550.705 228.729, 551.645 226.177, 553.608 216.836 C 554.919 210.601, 557.338 200.752, 558.984 194.948 C 560.629 189.144, 562.668 178.344, 563.514 170.948 C 564.359 163.552, 565.556 155.025, 566.172 152 C 568.087 142.598, 567.844 139.757, 565 138.306 C 563.625 137.604, 559.962 137.023, 556.861 137.015 C 548.242 136.992, 547.176 138.325, 546.028 150.549 C 545.422 157.010, 544.034 163.616, 542.141 169.049 C 538.492 179.522, 538.329 180.353, 536.589 197.248 C 535.301 209.767, 534.860 211.557, 531.669 217.265 C 524.005 230.969, 518.323 235, 506.671 235 C 501.522 235, 500.681 234.660, 496.169 230.750 C 488.795 224.360, 488 222.575, 488 212.411 C 488 204.342, 488.282 203.085, 491.476 196.914 C 495.178 189.759, 495.992 185.682, 498.047 164 C 498.699 157.125, 499.879 149.569, 500.670 147.208 C 501.461 144.847, 501.833 142.049, 501.496 140.989 C 500.410 137.567, 488.416 135.726, 483.303 138.197 M 606.302 137.947 C 603.832 139.015, 602.842 142.233, 601.210 154.500 C 600.625 158.900, 599.216 164.667, 598.080 167.317 C 596.729 170.467, 595.305 178.077, 593.965 189.317 C 590.393 219.272, 589.640 223.304, 586.119 231.333 C 583.212 237.962, 583.196 246.962, 586.085 249.577 C 588.637 251.887, 599.306 252.237, 603.233 250.140 C 607.114 248.067, 608.131 244.650, 609.076 230.500 C 609.974 217.040, 611.015 212.116, 615.334 200.892 C 617.190 196.068, 618.171 190.802, 618.969 181.392 C 619.569 174.301, 620.309 165.678, 620.612 162.229 C 620.970 158.157, 622.183 153.947, 624.069 150.229 C 627.280 143.897, 627.810 139.525, 625.473 138.628 C 622.544 137.504, 608.483 137.004, 606.302 137.947 M 662.268 138.144 C 659.752 139.435, 659.376 141.104, 658.464 155 C 657.676 167.009, 656.365 173.281, 653.421 179.127 C 650.008 185.903, 649.133 190.566, 647.615 210.060 C 646.567 223.522, 645.811 228.393, 644.374 230.936 C 640.228 238.273, 639.760 239.374, 639.313 242.868 C 639.018 245.172, 639.393 247.231, 640.341 248.500 C 641.721 250.349, 643.371 250.544, 662.167 251.084 C 683.594 251.699, 691.186 251.047, 694.185 248.333 C 697.031 245.757, 698.405 239.295, 697.060 234.806 C 695.649 230.097, 693.392 228.847, 687.706 229.627 C 681.659 230.456, 676.642 228.602, 673.012 224.199 C 669.460 219.889, 669.411 219.130, 671.937 207.453 C 673.002 202.529, 674.600 191.750, 675.489 183.500 C 676.658 172.654, 677.945 166.045, 680.137 159.637 C 683.963 148.448, 684.873 140.969, 682.633 139.110 C 680.506 137.345, 665.238 136.621, 662.268 138.144 M 748.500 137.491 C 747.950 137.675, 746.271 138.096, 744.768 138.427 C 740.406 139.388, 739.145 143.296, 737.911 159.673 C 736.872 173.452, 735.802 178.903, 730.504 197.404 C 729.732 200.101, 728.594 206.626, 727.975 211.904 C 727.356 217.182, 726.191 226.753, 725.386 233.173 C 723.843 245.488, 724.185 249.573, 726.865 250.804 C 728.080 251.361, 768.476 251.602, 773.230 251.080 C 774.185 250.975, 777.534 244.256, 778.375 240.758 C 779.172 237.441, 776.919 231.562, 774.316 230.169 C 773.296 229.623, 768.945 229.250, 764.646 229.338 C 757.231 229.492, 756.707 229.356, 754.415 226.694 C 751.501 223.308, 751.434 221.161, 753.515 197.686 C 754.848 182.655, 755.373 179.986, 758.465 172.516 C 760.739 167.023, 762.297 161.136, 763.014 155.330 C 763.613 150.474, 764.355 145.484, 764.662 144.243 C 764.980 142.959, 764.516 140.911, 763.587 139.493 C 762.124 137.260, 761.304 137.008, 755.727 137.079 C 752.302 137.122, 749.050 137.308, 748.500 137.491 M 825.073 139.635 C 823.831 141.213, 823 143.741, 823 145.939 C 823 147.956, 821.466 154.308, 819.591 160.054 C 816.376 169.903, 815.697 173.954, 813.024 199.207 C 812.019 208.700, 811.655 210.076, 807.871 218.712 C 804.014 227.514, 801.946 244.691, 804.224 249 C 806.709 253.700, 818.411 252.405, 823.865 246.827 C 827.707 242.897, 828.622 239.191, 830.364 220.500 C 831.375 209.652, 832.723 201.602, 834.550 195.500 C 838.337 182.850, 839.694 176.128, 841.007 163.500 C 841.637 157.450, 842.763 150.087, 843.510 147.139 C 844.826 141.945, 844.793 141.702, 842.480 139.389 C 840.453 137.362, 839.109 137, 833.618 137 C 827.816 137, 826.930 137.273, 825.073 139.635 M 885.496 137.853 C 882.087 138.457, 880.235 140.936, 879.552 145.810 C 879.191 148.390, 878.028 153.200, 876.969 156.500 C 873.934 165.949, 872.199 175.567, 871.006 189.553 C 869.842 203.209, 868.927 207.578, 863.418 225.808 C 857.570 245.156, 859.243 252, 869.820 252 C 875.631 252, 878.834 249.882, 882.406 243.677 C 885.068 239.052, 885.612 235.744, 886.971 215.945 C 888.013 200.755, 888.794 197.836, 892.455 195.437 C 894.768 193.922, 895.216 193.911, 897.368 195.322 C 898.733 196.216, 900.876 199.719, 902.424 203.586 C 903.902 207.279, 906.592 212.145, 908.401 214.400 C 912.626 219.666, 912.916 220.567, 913.971 231.715 C 915.572 248.638, 918.500 251.201, 936.253 251.217 C 950.965 251.230, 952.094 249.943, 953.987 231 C 954.520 225.661, 956.268 217.339, 957.976 212 C 959.929 205.898, 961.561 197.672, 962.538 189 C 965.131 165.996, 966.053 160.789, 969.145 151.680 C 971.885 143.607, 972.011 142.666, 970.637 140.569 C 967.381 135.599, 950.133 135.696, 948.626 140.693 C 948.327 141.687, 947.573 150.099, 946.952 159.386 C 945.786 176.822, 944.390 183.807, 941.414 187.095 C 939.116 189.634, 936.915 189.498, 931.096 186.455 C 922.833 182.135, 921.611 179.861, 919.954 165.733 C 919.359 160.655, 918.481 155.018, 918.004 153.207 C 916.938 149.156, 910.550 139.365, 908.128 138.068 C 906.489 137.191, 890.114 137.036, 885.496 137.853" stroke="none" fill="#ffffff" fill-rule="evenodd"/>
</svg>