<svg xmlns="http://www.w3.org/2000/svg" width="1000" height="352" viewBox="0 0 1000 352" version="1.1">
	<path d="M 50.465 57.005 C 45.788 58.779, 45.857 57.938, 45.963 111.547 C 46.047 153.404, 46.313 162.705, 47.495 164.991 C 50.062 169.954, 55.189 170.468, 57.503 165.995 C 58.358 164.342, 60.957 161.802, 63.278 160.351 C 65.600 158.900, 69.108 156.314, 71.074 154.606 C 73.039 152.898, 76.800 150.244, 79.431 148.710 C 83.949 146.074, 84.177 145.741, 83.520 142.710 C 83.138 140.944, 82.600 121.647, 82.325 99.826 C 81.877 64.308, 81.649 59.992, 80.142 58.628 C 78.877 57.484, 75.230 56.997, 65.479 56.669 C 58.341 56.429, 51.584 56.580, 50.465 57.005 M 141.731 58.269 C 140.039 59.961, 139.917 61.839, 140.196 81.804 C 140.433 98.682, 140.835 104.164, 142.008 106.488 C 143.953 110.342, 146.232 110.720, 149.158 107.672 C 150.446 106.330, 153.300 104.678, 155.500 104.002 C 157.700 103.325, 161.525 101.509, 164 99.967 C 166.475 98.424, 170.168 96.377, 172.206 95.417 C 174.244 94.457, 176.093 93.183, 176.314 92.586 C 177.279 89.977, 175.674 59.936, 174.482 58.306 C 173.404 56.832, 171.180 56.584, 158.401 56.512 C 145.270 56.439, 143.360 56.640, 141.731 58.269 M 161.317 131.487 C 157.568 134.505, 153.927 136.980, 153.228 136.987 C 152.528 136.994, 150.053 138.709, 147.728 140.798 C 145.402 142.887, 142.278 145.362, 140.785 146.298 C 136.454 149.013, 135.812 151.119, 137.628 156.651 C 138.962 160.710, 139.301 169.153, 139.712 208.500 C 140.136 249.109, 140.414 255.738, 141.756 257.250 C 143.103 258.767, 145.268 259, 158 259 C 170.728 259, 172.899 258.766, 174.255 257.250 C 175.633 255.709, 175.844 248.338, 176.022 195.500 C 176.132 162.500, 176.173 134.262, 176.112 132.750 C 175.981 129.525, 172.824 126, 170.067 126 C 169.004 126, 165.066 128.469, 161.317 131.487 M 609 133.131 C 599.164 133.723, 598.016 134.024, 590.844 137.892 C 581.399 142.987, 577.557 147.177, 576.100 153.970 C 574.644 160.759, 574.619 231.149, 576.070 239.479 C 577.077 245.262, 577.505 245.948, 583.393 251.215 C 587.089 254.521, 591.253 257.254, 593.573 257.899 C 598.490 259.264, 632.471 259.354, 634.984 258.008 C 637.371 256.731, 638.318 252.304, 637.448 246.500 C 636.432 239.728, 634.956 238.689, 627.598 239.566 C 613.267 241.273, 605.598 239.024, 601.812 232 C 600.054 228.738, 599.945 226.251, 600.213 195.454 C 600.466 166.347, 600.703 162.098, 602.200 159.816 C 604.705 155.995, 611.804 154.587, 624.141 155.461 C 636.704 156.352, 637 156.144, 637 146.433 C 637 140.243, 636.646 138.700, 634.709 136.448 C 631.866 133.143, 624.537 132.197, 609 133.131 M 228.282 134.206 C 225.518 135.541, 224.468 138.766, 222.549 151.820 C 221.714 157.496, 220.201 164.021, 219.185 166.320 C 216.681 171.987, 216.339 173.594, 214.569 188 C 213.724 194.875, 211.929 204.325, 210.580 209 C 207.922 218.213, 205.509 230.756, 204.441 240.906 C 204.071 244.430, 203.149 248.792, 202.394 250.600 C 201.638 252.409, 201.265 254.527, 201.565 255.309 C 202.473 257.674, 206.750 259, 213.474 259 C 219.057 259, 220.096 258.693, 221.785 256.546 C 222.847 255.196, 223.994 252.059, 224.335 249.575 C 225.308 242.476, 230.388 232.183, 233.503 230.999 C 236.958 229.685, 245.634 229.728, 251.987 231.091 C 258.699 232.530, 259.926 234.571, 260.704 245.595 C 261.571 257.888, 262.743 259, 274.832 259 C 281.590 259, 284.061 258.632, 285.015 257.482 C 286.790 255.343, 285.769 248.312, 282.110 237.494 C 280.011 231.287, 278.412 223.287, 276.949 211.674 C 275.673 201.544, 273.854 191.993, 272.377 187.674 C 271.029 183.728, 269.068 174.118, 268.020 166.319 C 265.371 146.606, 263.556 140.551, 258.709 135.250 C 256.769 133.129, 255.904 133.004, 243.576 133.068 C 236.384 133.105, 229.502 133.617, 228.282 134.206 M 306.500 133.945 C 305.400 134.396, 303.660 135.698, 302.633 136.840 C 300.859 138.812, 300.774 141.332, 300.932 186.924 L 301.098 234.931 304.534 242.367 C 308.485 250.919, 315.041 257.487, 320.864 258.726 C 322.864 259.152, 331.700 259.491, 340.500 259.480 C 354.060 259.462, 357.078 259.175, 360.293 257.595 C 364.779 255.391, 369.573 249.751, 373.882 241.609 L 377 235.718 377 187.924 C 377 160.075, 376.603 139.085, 376.048 137.625 C 374.896 134.595, 370.020 133.014, 361.807 133.006 C 352.511 132.996, 353 130.267, 353 182.157 C 353 211.317, 352.630 227.849, 351.936 229.685 C 349.869 235.157, 342.659 241, 337.975 241 C 336.796 241, 333.550 238.805, 330.676 236.064 L 325.500 231.128 325 184.168 C 324.418 129.493, 325.123 132.954, 314.595 133.063 C 311.243 133.098, 307.600 133.495, 306.500 133.945 M 400.827 135.173 C 399.775 137.017, 399.440 149.718, 399.212 196.379 C 398.947 250.541, 399.060 255.408, 400.617 257.129 C 402.187 258.864, 404.165 259, 427.905 258.994 C 441.982 258.991, 455.126 258.537, 457.114 257.985 C 459.391 257.352, 462.596 255.006, 465.780 251.639 C 469.841 247.345, 470.997 245.334, 471.667 241.398 C 472.125 238.704, 472.499 218.050, 472.499 195.500 C 472.497 143.275, 472.940 145.105, 458.500 137.644 L 450.500 133.511 426.327 133.178 L 402.153 132.845 400.827 135.173 M 500.354 133.692 C 499.174 133.923, 497.374 135.034, 496.354 136.160 C 494.600 138.099, 494.485 141.364, 494.227 196.963 C 493.976 250.895, 494.091 255.831, 495.629 257.108 C 496.945 258.203, 502.986 258.564, 523.893 258.798 C 538.517 258.962, 551.441 258.855, 552.614 258.561 C 557.457 257.345, 558.161 246.379, 553.668 242.158 C 551.680 240.290, 550.349 240.113, 539.487 240.269 C 521.417 240.527, 518.500 238.058, 518.500 222.500 C 518.500 208.513, 522.207 205.162, 537.800 205.056 C 549.882 204.974, 553 202.984, 553 195.352 C 553 187.919, 549.513 186, 536 186 C 525.797 186, 521.210 184.681, 519.958 181.388 C 518.289 177, 517.745 166.634, 518.950 162.174 C 520.617 156.002, 523.559 155, 540.019 155 L 553.102 155 554.655 151.282 C 556.464 146.953, 556.117 137.051, 554.070 134.584 C 552.928 133.209, 549.446 133.018, 527.628 133.136 C 513.807 133.211, 501.534 133.461, 500.354 133.692 M 676 133.943 C 669.630 135.240, 660.178 140.772, 657.516 144.762 C 656.144 146.818, 654.229 149.599, 653.261 150.943 C 651.645 153.185, 651.500 156.931, 651.500 196.499 L 651.500 239.613 657.197 248.174 C 662.436 256.047, 663.256 256.827, 667.390 257.868 C 670.419 258.631, 687.195 259, 718.820 259 C 761.286 259, 765.886 258.842, 767.128 257.344 C 769.070 255, 768.800 245.870, 766.694 242.655 C 764.995 240.063, 764.922 240.051, 749.850 239.776 L 734.713 239.500 732.664 236.755 C 731.064 234.610, 730.523 232.066, 730.192 225.123 C 729.702 214.879, 730.937 209.981, 734.773 206.964 C 737.093 205.139, 738.540 204.932, 747.131 205.198 C 756.711 205.495, 756.909 205.455, 759.931 202.563 C 763.253 199.384, 763.946 195.171, 761.890 190.657 C 760.208 186.967, 756.882 186.003, 745.703 185.968 C 734.667 185.934, 732.807 185.254, 731.039 180.603 C 729.660 176.976, 729.708 162.734, 731.110 159.657 C 732.893 155.745, 736.076 155, 751.012 155 C 766.355 155, 765.978 155.157, 767.481 148.158 C 768.421 143.786, 767.281 136.424, 765.369 134.512 C 764.064 133.207, 758.090 133.016, 721.679 133.115 C 698.480 133.178, 677.925 133.551, 676 133.943 M 790.663 134.257 C 789.573 135.054, 788.560 137.973, 787.899 142.223 C 786.545 150.916, 787.272 236.983, 788.743 242.254 C 789.947 246.566, 799.112 256.315, 803.615 258.074 C 808.150 259.845, 830.428 260.447, 838.851 259.026 C 845.913 257.834, 846.451 257.541, 852.542 251.569 C 857.389 246.816, 859.143 244.309, 859.987 240.926 C 860.740 237.907, 860.997 220.503, 860.796 186.169 C 860.456 128.288, 861.372 133, 850.458 133 C 843.364 133, 838.521 134.409, 837.330 136.820 C 836.874 137.744, 836.429 158.843, 836.342 183.707 C 836.175 231.239, 835.950 233.820, 831.599 237.907 C 829.634 239.753, 828.311 240.059, 823.378 239.804 L 817.500 239.500 814.773 234.500 L 812.047 229.500 812.018 186.500 C 811.999 159.281, 811.599 142.094, 810.925 139.670 C 810.106 136.719, 809.082 135.515, 806.463 134.420 C 802.256 132.662, 792.975 132.567, 790.663 134.257 M 888.210 134.086 C 886.192 134.694, 884.564 136.016, 883.998 137.505 C 883.331 139.260, 882.482 235.539, 882.961 255.089 C 883.025 257.687, 887.567 259, 896.490 259 C 907.949 259, 908.060 258.821, 907.384 241.600 C 906.829 227.487, 908.085 219.583, 911.191 217.641 C 913.430 216.242, 916.108 218.653, 918.567 224.280 C 919.581 226.601, 921.384 229.701, 922.572 231.169 C 923.761 232.636, 925.510 236.911, 926.459 240.669 C 929.692 253.473, 930.944 256.078, 934.589 257.602 C 938.443 259.212, 951.626 259.473, 955.461 258.015 C 958.837 256.731, 959.662 254.389, 957.558 252.064 C 956.632 251.040, 954.614 246.826, 953.074 242.699 C 951.534 238.571, 949.387 233.913, 948.303 232.347 C 945.440 228.213, 942.997 221.449, 943.022 217.730 C 943.051 213.394, 946.319 206.435, 949 205 C 953.331 202.682, 954.352 197.867, 954.801 177.647 C 955.226 158.513, 954.253 148.698, 951.507 144.416 C 950.772 143.269, 946.195 140.366, 941.336 137.963 L 932.500 133.594 912 133.344 C 900.511 133.204, 890.054 133.530, 888.210 134.086 M 428.367 154.772 C 427.194 155.723, 425.731 157.483, 425.117 158.684 C 423.645 161.563, 423.580 228.947, 425.044 234.221 C 426.779 240.465, 431.108 242.209, 439.258 239.945 C 442.342 239.089, 443.463 238.020, 445.508 233.984 L 448 229.066 448 195.110 L 448 161.153 445.436 158.106 C 441.368 153.272, 432.385 151.518, 428.367 154.772 M 684.500 154.574 C 682.300 155.363, 679.471 157.175, 678.214 158.602 L 675.928 161.196 676.214 196.533 L 676.500 231.871 679.500 235.025 C 685.073 240.884, 691.471 242.475, 698.958 239.865 C 704.671 237.873, 704.891 236.306, 705.062 196.301 C 705.232 156.418, 705.344 157.155, 698.749 154.516 C 694.121 152.665, 689.780 152.682, 684.500 154.574 M 912.500 156.155 C 908.395 158.400, 908 159.926, 908 173.542 C 908 188.160, 908.910 192.182, 912.597 193.862 C 916.093 195.455, 923.155 195.280, 925.641 193.539 C 926.788 192.735, 928.753 189.333, 930.008 185.979 C 931.959 180.763, 932.204 178.685, 931.706 171.622 C 931.024 161.964, 929.647 158.386, 925.855 156.425 C 922.610 154.747, 915.343 154.600, 912.500 156.155 M 242.722 170.754 C 239.951 173.817, 234.149 187.276, 232.919 193.500 C 231.277 201.801, 232.988 205.848, 239.465 208.983 C 244.813 211.572, 247.677 210.948, 250.545 206.571 C 252.604 203.429, 252.720 199.401, 251.146 185.606 C 249.450 170.742, 246.862 166.180, 242.722 170.754 M 67.230 208.706 C 62.238 213.543, 56.882 218.677, 55.327 220.117 C 53.772 221.556, 50.980 225.717, 49.122 229.364 C 46.026 235.443, 45.735 236.791, 45.622 245.577 C 45.453 258.812, 45.709 259.005, 63.361 258.985 C 71.929 258.976, 77.370 258.531, 79 257.708 L 81.500 256.445 82.221 231.990 C 82.871 209.966, 82.772 207.186, 81.221 204.018 C 80.275 202.083, 78.781 200.368, 77.903 200.206 C 76.996 200.039, 72.388 203.709, 67.230 208.706" stroke="none" fill="#ffffff" fill-rule="evenodd"/>
</svg>