<svg xmlns="http://www.w3.org/2000/svg" width="1000" height="1000" viewBox="0 0 1000 1000" version="1.1">
	<path d="M 485 238.613 C 449.176 241.874, 416.604 250.912, 386.074 266.061 C 358.512 279.739, 334.550 297.332, 312.459 320.114 C 299.163 333.824, 292.186 342.487, 281.219 358.900 C 273.365 370.653, 257.831 400.328, 256.433 406.250 L 255.783 409 281.642 408.985 C 295.864 408.976, 307.950 408.639, 308.500 408.235 C 309.050 407.831, 311.856 402.741, 314.736 396.925 C 326.184 373.803, 339.630 355.393, 360 334.949 C 375.338 319.555, 387.544 309.812, 404.480 299.443 C 442.607 276.100, 485.677 264, 530.638 264 C 621.240 264, 702.939 313.642, 745.411 394.500 C 750.303 403.814, 752 406.312, 752 404.200 C 752 403.540, 751.550 403, 751 403 C 750.450 403, 750 402.279, 750 401.397 C 750 399.029, 742.994 384.500, 736.452 373.304 C 724.235 352.395, 710.151 334.143, 693.004 316.998 C 651.037 275.036, 599.310 249.023, 540.804 240.457 C 530.816 238.995, 494.123 237.782, 485 238.613 M 496.264 282.975 C 432.953 292.839, 377.318 328.439, 341.510 382 C 334.282 392.811, 326.508 406.842, 327.305 407.639 C 327.599 407.933, 328.489 407.122, 329.283 405.837 C 352.033 368.980, 373.393 347.436, 405.332 329.134 C 444.190 306.867, 490.078 297.780, 534.699 303.517 C 579.764 309.312, 623.447 331.044, 654.607 363.172 C 666.858 375.804, 680.092 393.401, 685.875 404.750 L 688.041 409 710.520 409 C 725.256 409, 733 408.646, 733 407.971 C 733 406.364, 727.241 395.353, 721.874 386.700 C 691.832 338.263, 642.588 302.130, 587.458 288.074 C 565.805 282.554, 559.307 281.757, 533 281.400 C 512.657 281.125, 506.424 281.392, 496.264 282.975 M 431.030 431.113 C 427.071 432.693, 422.358 436.684, 420.059 440.405 C 418.819 442.410, 415.666 453.400, 412.520 466.676 C 409.545 479.229, 403.255 505.662, 398.541 525.416 C 393.827 545.170, 389.693 563.068, 389.354 565.189 L 388.737 569.045 407.571 568.773 L 426.404 568.500 433.194 534.558 C 436.928 515.890, 440.382 500.218, 440.868 499.732 C 441.379 499.221, 448.179 511.614, 457.021 529.174 C 465.420 545.853, 473.161 560.625, 474.225 562 C 477.007 565.598, 483.394 569.664, 487.464 570.427 C 492.408 571.355, 498.572 569.425, 502.600 565.690 C 505.035 563.431, 510.679 553.311, 521.929 531.030 C 530.668 513.722, 538.197 499.435, 538.659 499.282 C 539.122 499.129, 542.650 514.640, 546.500 533.752 L 553.501 568.500 572.250 568.772 C 585.869 568.970, 591 568.729, 591 567.894 C 591 565.471, 563.278 448.438, 561.771 444.500 C 557.756 434.008, 546.389 427.719, 537.877 431.280 C 530.567 434.339, 527.705 438.791, 508.748 476.596 C 498.712 496.611, 490.193 512.991, 489.818 512.994 C 489.442 512.997, 480.956 496.624, 470.959 476.609 C 452.265 439.181, 449.121 434.220, 442.282 431.350 C 438.565 429.791, 434.554 429.706, 431.030 431.113 M 243.667 432.667 C 243.300 433.033, 243 463.869, 243 501.190 L 243 569.047 260.224 568.774 L 277.448 568.500 277.255 544.500 C 277.148 531.300, 277.416 519.931, 277.848 519.236 C 278.462 518.250, 285.780 518.030, 311.068 518.236 L 343.500 518.500 344 543.500 L 344.500 568.500 361.250 568.774 L 378 569.048 378 500.500 L 378 431.952 361.250 432.226 L 344.500 432.500 344.233 457.250 L 343.965 482 311.090 482 C 281.319 482, 278.154 481.842, 277.574 480.332 C 277.222 479.415, 276.965 468.727, 277.002 456.582 C 277.039 444.437, 277.054 433.938, 277.035 433.250 C 277.008 432.302, 273.048 432, 260.667 432 C 251.683 432, 244.033 432.300, 243.667 432.667 M 617.540 441.185 C 614.273 446.308, 609.417 453.829, 606.750 457.899 C 604.083 461.968, 602.134 465.906, 602.419 466.649 C 602.845 467.759, 612.082 468.004, 654.219 468.022 C 701.976 468.042, 705.780 468.171, 709.579 469.896 C 717.689 473.580, 720.726 481.309, 717.198 489.285 C 715.648 492.790, 714.236 494.200, 710.372 496.102 L 705.500 498.500 653.250 498.776 L 601 499.052 601 534.050 L 601 569.048 617.750 568.774 L 634.500 568.500 635 552 L 635.500 535.500 659.500 535.215 L 683.500 534.930 700 551.968 L 716.500 569.006 741.250 569.003 C 754.862 569.001, 766 568.658, 766 568.240 C 766 567.822, 757.450 558.939, 747 548.500 C 736.550 538.061, 728 529, 728 528.364 C 728 527.729, 730.257 525.760, 733.016 523.990 C 742.235 518.074, 749.644 507.695, 752.639 496.500 C 754.450 489.731, 754.346 476.138, 752.426 468.644 C 748.274 452.438, 735.787 440.554, 716.936 434.867 C 709.829 432.723, 707.594 432.607, 666.490 432.246 L 623.480 431.869 617.540 441.185 M 256.388 593.431 C 255.430 595.928, 272.275 628.786, 281.800 643 C 317.071 695.634, 367.744 733.366, 427.473 751.471 C 439.901 755.238, 458.140 759.108, 473 761.130 C 485.342 762.809, 523.693 762.840, 536 761.180 C 597.006 752.951, 648.602 727.823, 691.574 685.412 C 712.222 665.034, 731.942 637.981, 744.138 613.300 C 750.694 600.033, 751.887 594.351, 745.647 606.117 C 720.244 654.009, 683.936 689.417, 636.500 712.558 C 614.031 723.520, 595.946 729.298, 569 734.128 C 551.905 737.191, 512.391 737.478, 495.500 734.661 C 440.166 725.432, 398.018 704.083, 359.991 666.022 C 339.466 645.479, 326.340 627.512, 314.736 604.075 C 311.856 598.259, 309.050 593.169, 308.500 592.765 C 307.950 592.361, 296.123 592.024, 282.219 592.015 C 261.201 592.003, 256.845 592.241, 256.388 593.431 M 688.020 593.250 C 687.437 593.938, 684.462 598.550, 681.408 603.500 C 661.445 635.858, 633.502 660.997, 598.500 678.087 C 568.350 692.809, 541.451 698.973, 507.284 698.992 C 459.677 699.017, 414.884 683.057, 377.479 652.741 C 361.459 639.758, 343.419 618.808, 333.180 601.300 C 329.241 594.563, 327 591.804, 327 593.691 C 327 595.441, 337.856 614.010, 344.135 623 C 375.484 667.887, 421.860 700.079, 474.500 713.495 C 495.611 718.876, 509.641 720.315, 535.368 719.740 C 558.960 719.212, 566.852 718.180, 587.458 712.926 C 643.023 698.759, 692.878 661.911, 722.381 613.205 C 728.662 602.836, 733 594.596, 733 593.033 C 733 591.425, 689.388 591.635, 688.020 593.250" stroke="none" fill="#ffffff" fill-rule="evenodd"/>
</svg>