<svg xmlns="http://www.w3.org/2000/svg" width="1000" height="1000" viewBox="0 0 1000 1000" version="1.1">
	<path d="M 475 239.124 C 388.495 249.090, 312.934 299.439, 270.137 375.629 C 265.179 384.456, 255 406.298, 255 408.111 C 255 408.607, 266.669 409, 281.423 409 L 307.846 409 314.004 396.750 C 344.921 335.239, 401.660 289.115, 468.001 271.564 C 502.682 262.388, 539.222 261.001, 574.500 267.521 C 647.731 281.055, 711.470 328.558, 745.396 394.884 C 748.570 401.089, 751.419 405.915, 751.726 405.607 C 752.793 404.540, 736.088 372.431, 728.257 360.500 C 709.908 332.541, 688.693 309.963, 662.500 290.515 C 624.405 262.232, 582.313 245.274, 535.959 239.535 C 522.453 237.863, 487.962 237.630, 475 239.124 M 510.500 280.614 C 508.300 280.843, 501.775 281.725, 496 282.573 C 433.530 291.748, 376.784 327.875, 341.202 381.127 C 335.421 389.778, 325.537 407.870, 326.219 408.552 C 326.467 408.801, 329.028 405.020, 331.910 400.151 C 340.111 386.297, 349.391 374.527, 362.457 361.408 C 380.234 343.558, 396.850 331.703, 418.500 321.424 C 447.743 307.539, 474.321 301.619, 507.500 301.600 C 527.834 301.588, 540.019 303.023, 558.143 307.564 C 610.187 320.606, 656.646 355.181, 683.355 400.750 L 688.190 409 710.595 409 C 722.918 409, 733 408.766, 733 408.480 C 733 408.194, 731.005 403.989, 728.568 399.134 C 718.923 379.931, 701.439 357.039, 684.212 341.060 C 650.049 309.372, 609.366 289.781, 562.500 282.451 C 552.906 280.950, 518.823 279.746, 510.500 280.614 M 428.500 431.662 C 424.140 433.960, 421.057 437.009, 418.961 441.096 C 417.470 444.003, 388 564.871, 388 568.080 C 388 568.607, 396.045 569, 406.853 569 L 425.706 569 431.936 537.750 C 435.362 520.563, 438.627 504.310, 439.190 501.633 L 440.216 496.766 455.209 526.133 C 474.939 564.779, 474.129 563.460, 480.296 566.996 C 488.828 571.890, 497.688 570.724, 503.381 563.959 C 504.914 562.137, 511.265 550.488, 517.493 538.073 C 523.721 525.658, 531.039 511.318, 533.756 506.206 L 538.695 496.912 541.931 513.206 C 543.711 522.168, 547.001 538.388, 549.242 549.250 L 553.317 569 572.159 569 C 582.521 569, 590.989 568.663, 590.975 568.250 C 590.961 567.837, 584.292 539.481, 576.154 505.235 C 559.926 436.945, 559.979 437.101, 551.458 432.275 C 543.847 427.964, 533.775 430.354, 528.321 437.766 C 527.122 439.394, 518.009 456.988, 508.068 476.864 C 498.128 496.739, 489.772 513, 489.500 513 C 489.228 513, 480.903 496.800, 471 477 C 453.069 441.150, 449.042 434.624, 442.875 431.435 C 439.249 429.560, 432.278 429.670, 428.500 431.662 M 242.434 432.316 C 242.186 432.967, 242.099 463.875, 242.241 501 L 242.500 568.500 259.500 568.500 L 276.500 568.500 276.767 542.750 L 277.034 517 310 517 L 342.966 517 343.233 542.750 L 343.500 568.500 360.500 568.500 L 377.500 568.500 377.500 500 L 377.500 431.500 360.500 431.500 L 343.500 431.500 343.233 456.750 L 342.966 482 310 482 L 277.034 482 276.767 456.750 L 276.500 431.500 259.693 431.316 C 247.521 431.182, 242.762 431.458, 242.434 432.316 M 612.157 448.255 C 606.021 457.860, 601 465.989, 601 466.318 C 601 466.648, 624.737 467.048, 653.750 467.208 C 700.607 467.467, 706.835 467.685, 709.500 469.155 C 714.914 472.141, 717.247 475.512, 717.786 481.125 C 718.709 490.727, 713.723 496.028, 701.976 497.934 C 698.103 498.563, 676.301 498.988, 647.737 498.992 L 599.974 499 600.237 533.750 L 600.500 568.500 617.500 568.500 L 634.500 568.500 634.774 551.250 L 635.047 534 658.907 534 L 682.767 534 699.633 551.474 L 716.500 568.949 741.250 568.937 C 754.862 568.931, 766 568.601, 766 568.203 C 766 567.806, 757.225 558.714, 746.500 548 C 735.775 537.286, 727 528.224, 727 527.864 C 727 527.503, 729.138 525.835, 731.750 524.157 C 749.152 512.979, 757.134 492.455, 752.531 470.730 C 748.635 452.348, 735.330 439.543, 714.144 433.787 C 707.136 431.883, 703.037 431.672, 664.907 431.250 L 623.314 430.790 612.157 448.255 M 255 591.889 C 255 593.702, 265.179 615.544, 270.137 624.371 C 283.214 647.652, 298.392 667.308, 318.125 686.522 C 361.667 728.915, 415.310 754.134, 476.500 760.977 C 490.082 762.496, 521.757 762.223, 535.959 760.465 C 567.296 756.585, 595.544 747.935, 623.776 733.574 C 675.063 707.483, 717.552 664.623, 743.435 612.869 C 752.580 594.583, 753.525 589.621, 744.638 606.551 C 679.147 731.311, 522.339 774.266, 402.655 700.233 C 365.527 677.266, 333.713 642.463, 314.004 603.250 L 307.846 591 281.423 591 C 266.669 591, 255 591.393, 255 591.889 M 326.059 591.272 C 325.925 593.032, 334.254 608.213, 340.723 618 C 371.463 664.508, 418.977 698.811, 471.636 712.514 C 492.136 717.849, 504.740 719.380, 528.500 719.421 C 552.657 719.464, 563.320 718.255, 584.541 713.070 C 631.644 701.562, 675.935 673.253, 705.968 635.460 C 716.467 622.248, 730.168 600.389, 732.424 593.250 L 733.135 591 710.662 591 L 688.190 591 683.355 599.250 C 656.646 644.819, 610.187 679.394, 558.143 692.436 C 540.052 696.969, 527.826 698.412, 507.500 698.412 C 474.856 698.412, 447.927 692.460, 419.026 678.858 C 384.715 662.709, 353.282 634.684, 333.771 602.848 C 326.171 590.448, 326.127 590.381, 326.059 591.272" stroke="none" fill="#ffffff" fill-rule="evenodd"/>
</svg>