<svg xmlns="http://www.w3.org/2000/svg" width="1000" height="1000" viewBox="0 0 1000 1000" version="1.1">
	<path d="M 475 239.124 C 388.535 249.086, 312.914 299.473, 270.137 375.629 C 265.179 384.456, 255 406.298, 255 408.111 C 255 408.607, 266.651 409, 281.380 409 L 307.761 409 313.962 396.750 C 345.239 334.970, 401.663 289.115, 468.001 271.564 C 502.682 262.388, 539.222 261.001, 574.500 267.521 C 647.731 281.055, 711.470 328.558, 745.396 394.884 C 748.570 401.089, 751.419 405.915, 751.726 405.607 C 752.794 404.539, 736.084 372.426, 728.254 360.500 C 683.966 293.046, 614.323 249.237, 535.959 239.535 C 522.453 237.863, 487.962 237.630, 475 239.124 M 510.500 280.614 C 499.406 281.771, 484.269 284.432, 473.601 287.101 C 413.556 302.127, 360.105 343.836, 330.937 398.427 C 328.094 403.748, 325.971 408.304, 326.219 408.552 C 326.467 408.801, 329.028 405.020, 331.910 400.151 C 358.645 354.987, 403.819 321.279, 455.445 307.972 C 474.321 303.106, 486.551 301.612, 507.500 301.612 C 527.841 301.612, 540.176 303.062, 558.143 307.564 C 610.187 320.606, 656.646 355.181, 683.355 400.750 L 688.190 409 710.662 409 L 733.135 409 732.424 406.750 C 731.213 402.919, 722.037 386.927, 715.891 377.936 C 693.571 345.287, 663.578 319.668, 627.500 302.439 C 606.313 292.321, 586.450 286.217, 562.458 282.450 C 552.905 280.950, 518.826 279.746, 510.500 280.614 M 428.500 431.662 C 424.133 433.964, 421.057 437.010, 418.949 441.120 C 417.447 444.047, 388 564.842, 388 568.073 C 388 568.609, 395.947 569, 406.853 569 L 425.706 569 431.936 537.750 C 435.362 520.563, 438.627 504.310, 439.190 501.633 L 440.216 496.766 455.209 526.133 C 474.939 564.779, 474.129 563.460, 480.296 566.996 C 488.828 571.890, 497.688 570.724, 503.381 563.959 C 504.914 562.138, 511.042 550.939, 517 539.073 C 522.958 527.208, 530.276 512.865, 533.263 507.200 L 538.693 496.900 541.930 513.200 C 543.710 522.165, 547.001 538.388, 549.242 549.250 L 553.317 569 572.159 569 C 582.521 569, 590.989 568.663, 590.975 568.250 C 590.961 567.837, 584.292 539.481, 576.154 505.235 C 559.926 436.945, 559.979 437.101, 551.458 432.275 C 543.847 427.964, 533.775 430.354, 528.321 437.766 C 527.122 439.394, 518.009 456.988, 508.068 476.864 C 498.128 496.739, 489.772 513, 489.500 513 C 489.228 513, 480.903 496.800, 471 477 C 453.069 441.150, 449.042 434.624, 442.875 431.435 C 439.249 429.560, 432.278 429.670, 428.500 431.662 M 242.416 431.917 C 241.874 432.460, 241.871 567.537, 242.414 568.083 C 242.642 568.313, 250.517 568.367, 259.914 568.204 L 277 567.909 277 542.454 L 277 517 309.983 517 L 342.966 517 343.233 542.553 L 343.500 568.106 360.500 568.106 L 377.500 568.105 377.500 500 L 377.500 431.895 360.500 431.894 L 343.500 431.894 343.233 456.947 L 342.966 482 310 482 L 277.034 482 276.767 456.949 L 276.500 431.898 259.666 431.699 C 250.408 431.590, 242.646 431.688, 242.416 431.917 M 611.929 448.610 C 605.918 458.020, 601 466.008, 601 466.360 C 601 466.712, 623.643 467, 651.318 467 C 706.756 467, 708.950 467.207, 714.456 472.954 C 716.715 475.312, 717.429 477.128, 717.785 481.418 C 718.372 488.501, 715.838 492.865, 709.231 496.149 L 704.500 498.500 652.237 498.814 L 599.974 499.128 600.237 533.679 L 600.500 568.229 617.500 568.148 L 634.500 568.067 634.774 551.034 L 635.047 534 658.936 534 L 682.825 534 699.163 551.012 L 715.500 568.024 740.751 568.262 C 754.638 568.393, 766.001 568.271, 766.001 567.990 C 766 567.710, 757.225 558.714, 746.500 548 C 735.775 537.286, 727 528.224, 727 527.864 C 727 527.503, 729.138 525.835, 731.750 524.157 C 749.152 512.979, 757.134 492.455, 752.531 470.730 C 749.514 456.493, 740.233 444.914, 726.602 438.378 C 714.187 432.425, 710.033 431.983, 664.179 431.729 L 622.859 431.500 611.929 448.610 M 255 591.889 C 255 593.702, 265.179 615.544, 270.137 624.371 C 283.214 647.652, 298.392 667.308, 318.125 686.522 C 361.697 728.944, 415.268 754.129, 476.500 760.977 C 490.082 762.496, 521.757 762.223, 535.959 760.465 C 585.330 754.353, 632.207 734.326, 672 702.346 C 691.392 686.760, 712.448 663.297, 727.664 640.315 C 735.663 628.234, 751.015 599.169, 750.982 596.167 C 750.972 595.250, 748.117 599.923, 744.638 606.551 C 679.143 731.318, 522.346 774.270, 402.655 700.233 C 365.527 677.266, 333.713 642.463, 314.004 603.250 L 307.846 591 281.423 591 C 266.669 591, 255 591.393, 255 591.889 M 326.059 591.272 C 325.925 593.032, 334.254 608.213, 340.723 618 C 363.144 651.922, 393.532 678.807, 429.500 696.544 C 451.074 707.183, 472.079 713.808, 496.508 717.679 C 510.087 719.830, 545.083 720.121, 558.500 718.194 C 624.081 708.776, 679.934 674.662, 715.891 622.064 C 722.037 613.073, 731.213 597.081, 732.424 593.250 L 733.135 591 710.662 591 L 688.190 591 683.355 599.250 C 656.646 644.819, 610.187 679.394, 558.143 692.436 C 540.176 696.938, 527.841 698.388, 507.500 698.388 C 486.551 698.388, 474.321 696.894, 455.445 692.028 C 404.741 678.959, 360.934 646.775, 333.585 602.500 C 325.980 590.187, 326.125 590.404, 326.059 591.272" stroke="none" fill="#ffffff" fill-rule="evenodd"/>
</svg>