<svg xmlns="http://www.w3.org/2000/svg" width="1000" height="1000" viewBox="0 0 1000 1000" version="1.1">
	<path d="M 480.500 239.060 C 445.388 242.516, 413.063 252.048, 382.127 268.068 C 356.531 281.323, 335.054 297.092, 315.299 317.136 C 300.748 331.900, 292.895 341.484, 281.951 357.834 C 273.520 370.430, 257.783 400.266, 256.413 406.250 L 255.783 409 282.186 409 L 308.589 409 313.044 399.807 C 323.277 378.695, 339.181 356.029, 355.973 338.625 C 393.174 300.067, 438.879 275.999, 492.097 266.944 C 509.994 263.899, 540.215 263.209, 558.049 265.438 C 622.715 273.518, 677.598 303.563, 718.131 353.070 C 730.570 368.264, 743.501 388.672, 749.575 402.696 C 750.482 404.788, 751.432 405.947, 751.688 405.271 C 752.887 402.100, 734.269 368.409, 720.833 349.434 C 692.497 309.417, 647.372 274.391, 600.622 256.124 C 563.563 241.644, 518.821 235.288, 480.500 239.060 M 499 282.624 C 429.496 292.010, 366.965 334.876, 332.528 396.741 C 329.392 402.373, 326.984 407.451, 327.175 408.024 C 327.366 408.598, 329.923 405.012, 332.858 400.055 C 362.731 349.595, 415.097 314.453, 476 303.995 C 486.414 302.207, 516.142 301.603, 529.467 302.908 C 592.549 309.089, 649.423 344.943, 682.729 399.525 L 688.500 408.982 710.750 408.991 C 726.237 408.997, 733 408.666, 733 407.903 C 733 405.837, 724.812 391.066, 718.154 381.120 C 695.666 347.526, 666.342 321.830, 630.003 303.874 C 607.054 292.536, 584.057 285.642, 558.708 282.504 C 543.593 280.633, 513.292 280.694, 499 282.624 M 430.655 431.459 C 426.287 433.016, 422.766 436.024, 419.917 440.634 C 418.754 442.516, 412.912 465.038, 405.517 496.151 C 390.832 557.930, 388.865 566.085, 388.240 567.772 C 387.867 568.779, 391.787 568.987, 407.088 568.772 L 426.407 568.500 430.195 549.500 C 438.928 505.682, 440.360 499, 441.012 499 C 441.389 499, 447.906 511.262, 455.495 526.250 C 463.084 541.237, 470.450 555.506, 471.863 557.958 C 475.438 564.157, 479.614 567.686, 485.710 569.656 C 490.089 571.071, 491.569 571.146, 494.977 570.125 C 502.959 567.734, 504.834 565.004, 522.198 530.502 C 531.517 511.987, 538.785 498.652, 539.177 499.352 C 539.554 500.026, 542.931 515.969, 546.681 534.781 L 553.500 568.985 572.675 568.993 L 591.851 569 590.436 563.750 C 589.658 560.862, 582.923 532.679, 575.469 501.119 C 563.848 451.919, 561.503 443.138, 559.015 439.522 C 553.952 432.163, 546.545 428.968, 539.158 430.957 C 531.208 433.098, 528.456 437.228, 508.695 476.676 C 498.688 496.654, 490.214 512.999, 489.866 512.999 C 489.517 513, 481.045 496.635, 471.040 476.634 C 451.769 438.111, 448.881 433.720, 441.101 431.131 C 436.832 429.711, 435.435 429.755, 430.655 431.459 M 243 500.500 L 243 569.047 260.250 568.774 L 277.500 568.500 277.767 543.250 L 278.034 518 311.017 518 L 344 518 344 543.500 L 344 569 361 569 L 378 569 378 500.500 L 378 432 361 432 L 344 432 344 457 L 344 482 311.017 482 L 278.035 482 277.767 457.250 L 277.500 432.500 260.250 432.226 L 243 431.953 243 500.500 M 617.941 440.467 C 614.948 445.196, 610.138 452.743, 607.250 457.239 C 604.362 461.735, 602 465.996, 602 466.707 C 602 467.748, 612.005 468, 653.257 468 C 683.750 468, 705.898 468.397, 707.931 468.980 C 718.038 471.879, 722.219 485.508, 715.165 492.562 C 709.015 498.712, 711.375 498.473, 653.750 498.792 L 601 499.083 601 534.042 L 601 569 618 569 L 635 569 635 553.082 C 635 544.327, 635.230 536.564, 635.510 535.832 C 635.919 534.766, 640.760 534.543, 659.760 534.717 L 683.500 534.934 700.025 551.967 L 716.549 569 741.358 569 C 757.120 569, 766.045 568.643, 765.833 568.020 C 765.650 567.481, 756.794 558.303, 746.153 547.623 L 726.805 528.207 732.793 524.141 C 740.649 518.806, 745.453 513.150, 749.793 504.127 C 752.967 497.527, 753.387 495.684, 753.792 486.563 C 754.310 474.923, 753.175 468.317, 749.259 460.176 C 745.475 452.311, 736.103 443.095, 727.927 439.199 C 714.345 432.727, 713.727 432.657, 666.441 432.244 L 623.382 431.869 617.941 440.467 M 256.413 594.750 C 257.783 600.734, 273.520 630.570, 281.951 643.166 C 330.524 715.735, 408.882 759.587, 495.500 762.675 C 591.133 766.085, 679.903 717.934, 732.439 634.154 C 737.833 625.553, 751.982 598.490, 751.994 596.750 C 752.007 595.039, 750.082 596.170, 749.442 598.250 C 749.062 599.487, 746.035 605.450, 742.716 611.500 C 712.905 665.849, 663.001 706.962, 604 725.779 C 560.990 739.497, 512.207 740.622, 468.316 728.909 C 425.285 717.425, 387.488 695.040, 355.973 662.375 C 339.181 644.971, 323.277 622.305, 313.044 601.193 L 308.589 592 282.186 592 L 255.783 592 256.413 594.750 M 327 592.997 C 327 593.729, 329.526 598.866, 332.614 604.414 C 362.812 658.665, 414.900 698.661, 474.766 713.564 C 493.081 718.124, 509.002 720, 529.372 720 C 560.782 720, 587.345 715.093, 613.500 704.458 C 627.352 698.826, 629.263 697.928, 639.500 692.239 C 671.818 674.281, 697.779 650.378, 718.300 619.685 C 724.819 609.935, 733 595.138, 733 593.097 C 733 592.334, 726.237 592.003, 710.750 592.009 L 688.500 592.018 682.816 601.333 C 649.407 656.088, 592.647 691.901, 529.467 698.092 C 516.142 699.397, 486.414 698.793, 476 697.005 C 415.422 686.603, 363.893 652.231, 333.418 601.895 C 326.845 591.039, 327 591.254, 327 592.997" stroke="none" fill="#ffffff" fill-rule="evenodd"/>
</svg>