<svg xmlns="http://www.w3.org/2000/svg" width="1000" height="1000" viewBox="0 0 1000 1000" version="1.1">
	<path d="M 479 238.673 C 477.075 238.867, 469.572 239.942, 462.328 241.062 C 381.355 253.579, 310.403 303.485, 269.610 376.616 C 264.451 385.864, 257.323 401.168, 255.563 406.775 L 254.849 409.050 281.423 408.967 L 307.997 408.884 314.098 396.692 C 349.753 325.435, 420.408 275.204, 498.500 265.596 C 525.256 262.304, 546.367 262.731, 572.036 267.083 C 646.052 279.635, 712.231 328.708, 746.065 396.129 C 748.847 401.673, 751.377 405.957, 751.686 405.647 C 752.710 404.623, 737.344 374.710, 729.578 362.610 C 697.317 312.342, 650.911 274.692, 595.854 254.118 C 574.933 246.300, 555.299 241.696, 531.500 239.026 C 523.208 238.096, 487.132 237.853, 479 238.673 M 510.500 280.623 C 490.343 282.770, 469.088 287.467, 452.779 293.378 C 407.394 309.829, 367.651 341.260, 340.723 382 C 333.916 392.299, 325.486 407.819, 326.272 408.605 C 326.491 408.824, 329.010 405.065, 331.869 400.252 C 348.429 372.376, 375.940 345.175, 403.957 328.981 C 420.166 319.611, 441.138 311.167, 458.216 307.135 C 490.989 299.397, 526.396 299.544, 558.143 307.549 C 610.331 320.708, 656.647 355.184, 683.355 400.750 L 688.190 409 710.662 409 L 733.135 409 732.452 406.750 C 732.077 405.512, 729.511 400.450, 726.750 395.500 C 692.889 334.783, 632.475 293.091, 563 282.492 C 552.911 280.953, 518.802 279.739, 510.500 280.623 M 428.500 431.662 C 424.145 433.957, 421.058 437.008, 418.971 441.076 C 417.963 443.042, 414.204 456.992, 410.620 472.076 C 407.035 487.159, 402.924 504.450, 401.484 510.500 C 391.732 551.467, 388 567.425, 388 568.159 C 388 568.622, 396.484 569, 406.853 569 L 425.706 569 432.388 535.250 C 436.063 516.688, 439.441 500.600, 439.894 499.500 C 440.565 497.874, 442.169 500.397, 448.473 513 C 457.392 530.829, 469.154 553.551, 472.676 559.756 C 474.294 562.608, 476.808 564.996, 480.296 566.996 C 488.892 571.927, 497.982 570.676, 503.462 563.807 C 504.954 561.938, 512.351 548.279, 519.900 533.454 C 538.153 497.609, 538.080 497.746, 538.540 498.206 C 538.928 498.595, 552.996 566.746, 552.999 568.250 C 552.999 568.663, 561.550 569, 572 569 C 582.450 569, 591 568.808, 591 568.573 C 591 567.935, 563.313 450.876, 562.073 446.272 C 560.566 440.676, 555.716 434.406, 551.053 432.027 C 542.868 427.851, 533.112 430.699, 527.727 438.837 C 526.288 441.011, 517.209 458.587, 507.553 477.895 C 497.896 497.203, 489.772 513, 489.500 513 C 489.228 513, 480.903 496.800, 471 477 C 453.069 441.150, 449.042 434.624, 442.875 431.435 C 439.249 429.560, 432.278 429.670, 428.500 431.662 M 242.364 432.500 C 242.154 433.050, 242.099 463.850, 242.241 500.945 L 242.500 568.389 259.500 568.445 L 276.500 568.500 276.767 542.750 L 277.034 517 310 517 L 342.966 517 343.233 542.750 L 343.500 568.500 360.500 568.500 L 377.500 568.500 377.500 500.155 L 377.500 431.810 360.500 431.809 L 343.500 431.809 343.233 456.904 L 342.966 482 310 482 L 277.034 482 276.767 456.949 L 276.500 431.898 259.623 431.699 C 249.105 431.575, 242.601 431.877, 242.364 432.500 M 622.436 432.706 C 621.070 434.073, 601 465.644, 601 466.425 C 601 466.704, 624.513 467.060, 653.250 467.216 C 705.438 467.500, 705.506 467.503, 710.157 469.794 C 720.611 474.944, 720.880 490.507, 710.600 495.385 C 703.982 498.526, 695.929 498.988, 647.737 498.994 L 599.974 499 600.237 533.750 L 600.500 568.500 617.500 568.500 L 634.500 568.500 634.774 551.250 L 635.047 534 658.907 534 L 682.767 534 699.633 551.497 L 716.500 568.995 741.250 568.845 C 754.862 568.763, 766 568.422, 766 568.088 C 766 567.753, 757.646 559.159, 747.436 548.990 C 737.226 538.820, 728.458 529.755, 727.951 528.844 C 727.215 527.520, 727.978 526.581, 731.765 524.147 C 753.060 510.468, 760.215 481.068, 747.881 457.928 C 741.702 446.334, 728.012 436.869, 712.602 433.533 C 703.197 431.498, 624.365 430.775, 622.436 432.706 M 255.563 593.225 C 257.322 598.826, 264.449 614.134, 269.607 623.384 C 282.972 647.355, 298.049 666.975, 318.125 686.522 C 357.851 725.200, 404.359 748.850, 460 758.668 C 471.620 760.719, 478.970 761.328, 497 761.735 C 535.170 762.596, 563.123 758.113, 595.854 745.882 C 649.359 725.888, 696.216 688.320, 727.916 640 C 735.793 627.993, 751.019 599.050, 750.975 596.167 C 750.961 595.250, 748.140 599.900, 744.706 606.500 C 733.528 627.986, 719.158 647.506, 701.184 665.624 C 634.124 733.216, 532.531 754.793, 443.247 720.408 C 387.424 698.909, 340.805 656.638, 314.102 603.308 L 307.997 591.116 281.423 591.033 L 254.849 590.950 255.563 593.225 M 326 591.522 C 326 593.212, 334.803 609.044, 340.723 618 C 372.075 665.433, 419.481 699.236, 473.930 712.982 C 494.455 718.164, 505.276 719.433, 529 719.441 C 553.451 719.448, 565.513 717.998, 586.500 712.524 C 602.586 708.329, 613.290 704.440, 627.500 697.625 C 669.712 677.383, 704.096 645.121, 726.750 604.500 C 729.511 599.550, 732.077 594.487, 732.452 593.250 L 733.135 591 710.662 591 L 688.190 591 683.355 599.250 C 656.647 644.816, 610.331 679.292, 558.143 692.451 C 526.396 700.456, 490.989 700.603, 458.216 692.865 C 441.138 688.833, 420.166 680.389, 403.957 671.019 C 375.895 654.799, 348.200 627.397, 331.923 599.750 C 327.211 591.745, 326 590.063, 326 591.522" stroke="none" fill="#ffffff" fill-rule="evenodd"/>
</svg>