<svg xmlns="http://www.w3.org/2000/svg" width="1000" height="568" viewBox="0 0 1000 568" version="1.1">
	<path d="M 99.667 91.667 C 98.646 92.687, 98.874 96, 99.965 96 C 101.222 96, 103.118 92.451, 102.298 91.631 C 101.483 90.816, 100.504 90.829, 99.667 91.667 M 891.154 92.552 C 891.345 93.532, 892.105 94.536, 892.846 94.782 C 893.706 95.069, 894.066 94.588, 893.846 93.448 C 893.655 92.468, 892.895 91.464, 892.154 91.218 C 891.294 90.931, 890.934 91.412, 891.154 92.552 M 331.808 182.916 C 328.155 185.817, 322.806 195.330, 323.626 197.467 C 324.529 199.822, 328.194 201, 334.615 201 C 340.988 201, 344.681 202.643, 348.495 207.176 C 350.913 210.050, 351.161 210.992, 350.646 215.338 C 349.965 221.095, 350.961 223.411, 355.020 225.510 C 356.648 226.352, 358.879 228.802, 359.977 230.955 C 363.638 238.131, 368.734 239.852, 373.694 235.588 C 376.349 233.305, 376.519 232.658, 376.847 223.561 C 377.233 212.903, 376.052 209.553, 371.507 208.412 C 368.168 207.574, 362.457 199.378, 360.485 192.598 C 358.379 185.351, 356.169 182.731, 351.907 182.428 C 350.033 182.295, 345.350 181.869, 341.500 181.482 C 335.246 180.853, 334.213 181.005, 331.808 182.916 M 388.926 189.652 C 385.667 192.761, 383 195.670, 383 196.117 C 383 198.005, 387.796 199.197, 396.815 199.550 C 406.001 199.910, 407.420 199.685, 418 196.189 C 418.825 195.916, 417.726 195.369, 415.557 194.973 C 411.745 194.276, 410.110 192.882, 405.703 186.572 C 404.223 184.453, 403.110 184, 399.379 184 C 395.242 184, 394.341 184.487, 388.926 189.652 M 451.296 217.949 C 435.293 218.529, 432.465 219.344, 434.617 222.755 C 435.207 223.690, 436.772 224.757, 438.095 225.128 C 439.418 225.498, 454.018 225.845, 470.540 225.900 C 494.594 225.980, 501.767 226.317, 506.540 227.590 C 515.329 229.935, 518 230.268, 518 229.018 C 518 227.840, 517.693 227.398, 513.143 222.019 L 510.199 218.539 495.349 217.849 C 479.255 217.101, 474.366 217.112, 451.296 217.949 M 525.223 220.557 C 520.707 223.719, 523.263 225.958, 531.421 225.986 C 536.317 226.003, 539.387 223.592, 537.933 220.874 C 536.649 218.476, 528.485 218.272, 525.223 220.557 M 593.518 230.624 C 592.468 231.675, 592.001 233.529, 592.197 235.874 C 592.454 238.950, 592.898 239.546, 595.124 239.804 C 598.418 240.186, 601 237.692, 601 234.129 C 601 229.297, 596.809 227.334, 593.518 230.624 M 575.921 234.595 C 574.817 235.925, 574.845 236.632, 576.087 238.845 C 577.796 241.891, 581.300 242.395, 581.825 239.671 C 582.871 234.237, 578.988 230.899, 575.921 234.595 M 420 239 C 420 240.111, 420.667 241, 421.500 241 C 422.333 241, 423 240.111, 423 239 C 423 237.889, 422.333 237, 421.500 237 C 420.667 237, 420 237.889, 420 239 M 553.565 239.596 C 552.808 242.614, 554.392 245, 557.154 245 C 559.842 245, 560.511 242.429, 558.587 239.492 C 556.478 236.273, 554.388 236.316, 553.565 239.596 M 434 241.500 C 434 242.325, 434.675 243, 435.500 243 C 436.325 243, 437 242.325, 437 241.500 C 437 240.675, 436.325 240, 435.500 240 C 434.675 240, 434 240.675, 434 241.500 M 368.736 242.196 C 368.065 244.075, 369.809 247, 371.602 247 C 372.681 247, 373.040 246.191, 372.816 244.259 C 372.484 241.381, 369.557 239.901, 368.736 242.196 M 345 245 C 345 245.550, 345.675 246, 346.500 246 C 347.325 246, 348 245.550, 348 245 C 348 244.450, 347.325 244, 346.500 244 C 345.675 244, 345 244.450, 345 245 M 329.667 254.667 C 328.538 255.795, 328.929 259.836, 330.250 260.691 C 330.938 261.136, 333.030 261.952, 334.899 262.504 C 337.797 263.359, 338.541 264.244, 339.949 268.504 C 342.500 276.220, 344.286 279.335, 346.910 280.643 C 349.587 281.977, 365.546 281.503, 369.579 279.970 C 372.584 278.827, 373.526 275.123, 371.992 270.476 L 370.794 266.845 368.469 269.029 C 366.581 270.803, 365.333 271.116, 361.822 270.697 C 350.902 269.394, 341.239 264.405, 338.954 258.889 C 337.277 254.839, 331.926 252.407, 329.667 254.667 M 331.491 308.014 C 331.146 308.572, 329.077 309.940, 326.892 311.055 C 321.525 313.793, 320.137 316.967, 322.311 321.526 C 324.023 325.116, 326.895 326.112, 328.723 323.750 C 329.880 322.254, 332.952 313.608, 333.696 309.750 C 334.216 307.057, 332.781 305.928, 331.491 308.014 M 316 371.500 C 316 372.325, 316.675 373, 317.500 373 C 318.325 373, 319 372.325, 319 371.500 C 319 370.675, 318.325 370, 317.500 370 C 316.675 370, 316 370.675, 316 371.500 M 306 387.917 C 306 388.971, 306.563 390.030, 307.250 390.269 C 309.304 390.986, 311 389.911, 311 387.893 C 311 386.540, 310.286 386, 308.500 386 C 306.703 386, 306 386.539, 306 387.917 M 331.229 465.171 C 329.542 466.858, 329.688 469.496, 331.555 471.045 C 332.854 472.124, 333.466 471.978, 335.291 470.154 C 337.020 468.425, 337.246 467.612, 336.379 466.236 C 334.994 464.037, 332.814 463.586, 331.229 465.171 M 353.930 466.584 C 352.410 468.415, 353.704 471.301, 356.272 471.807 C 358.305 472.208, 359.525 468.338, 357.960 466.452 C 356.418 464.594, 355.559 464.622, 353.930 466.584 M 98 490.941 C 98 493.140, 99.506 494.423, 101.003 493.498 C 101.670 493.086, 101.658 492.229, 100.968 490.939 C 99.632 488.444, 98 488.445, 98 490.941 M 892.667 490.667 C 892.300 491.033, 892 492.228, 892 493.322 C 892 495.247, 892.064 495.252, 894 493.500 C 895.100 492.505, 896 491.310, 896 490.845 C 896 489.842, 893.619 489.714, 892.667 490.667 M 106.227 499.851 C 105.942 500.594, 106.337 501.600, 107.104 502.086 C 107.906 502.593, 273.868 502.976, 497.128 502.985 C 844.105 502.998, 885.891 502.837, 887.020 501.476 C 887.716 500.638, 888.074 499.740, 887.815 499.482 C 887.557 499.224, 711.711 498.897, 497.046 498.756 C 170.001 498.542, 106.661 498.719, 106.227 499.851" stroke="none" fill="#ffffff" fill-rule="evenodd"/>
</svg>