<svg xmlns="http://www.w3.org/2000/svg" width="1000" height="952" viewBox="0 0 1000 952" version="1.1">
	<path d="M 218.500 132.018 C 170.645 132.407, 145.457 132.968, 143.389 133.692 C 137.670 135.693, 136.096 136.999, 134.862 140.762 C 133.259 145.652, 131.984 293.709, 133.500 298.972 C 135.191 304.843, 141.634 306.309, 149.001 302.500 C 153.653 300.094, 154.486 297.092, 153.090 287.761 C 152.189 281.741, 151.942 264.312, 152.177 223.500 L 152.500 167.500 157.417 160.134 C 165.487 148.043, 159.626 149.009, 225 148.997 C 262.937 148.990, 284.010 149.369, 289.138 150.149 C 296.120 151.212, 297.103 151.142, 300.574 149.341 C 305.754 146.653, 308.684 141.065, 307.019 137.047 C 305.579 133.569, 299.719 130.898, 294.230 131.217 C 292.178 131.336, 258.100 131.696, 218.500 132.018 M 698.935 132.669 C 693.056 135.142, 692.641 142.365, 698.078 147.575 C 700.760 150.145, 701.760 150.468, 706.315 150.235 C 709.167 150.089, 738.500 149.723, 771.500 149.422 C 814.976 149.024, 832.568 149.188, 835.376 150.015 C 840.405 151.495, 848.772 159.316, 851.236 164.838 C 853.096 169.007, 853.161 171.735, 852.891 234.719 L 852.610 300.262 855.821 303.131 C 857.733 304.840, 860.162 306, 861.827 306 C 865.101 306, 868.718 302.971, 869.589 299.501 C 869.926 298.157, 870.023 262.282, 869.803 219.779 C 869.370 135.760, 869.458 137.035, 863.835 133.830 C 861.311 132.392, 852.694 132.229, 754.106 131.753 C 715.880 131.568, 700.961 131.816, 698.935 132.669 M 420 263.022 C 414.397 264.001, 411.154 265.250, 406.299 268.298 C 404.209 269.610, 398.675 272.142, 394 273.924 C 379.808 279.335, 378.261 280.579, 371.193 292.273 C 367.724 298.012, 363.789 305.423, 362.448 308.741 C 357.457 321.100, 356.802 341.267, 360.995 353.513 C 362.122 356.806, 365.001 362.425, 367.391 366 C 369.782 369.575, 372.922 374.604, 374.368 377.176 C 376.462 380.899, 378.169 382.414, 382.749 384.612 C 385.912 386.130, 391.896 389.523, 396.048 392.152 C 405.731 398.286, 408.531 399.416, 421.665 402.498 C 436.157 405.899, 443.825 408.507, 449.109 411.834 C 451.524 413.354, 456.032 415.618, 459.126 416.865 C 462.220 418.112, 465.907 420.339, 467.319 421.816 C 470.573 425.218, 475.992 438.414, 475.997 442.946 C 476.001 447.741, 465.793 463.349, 461.213 465.550 C 454.072 468.981, 430.754 469.646, 414.641 466.879 C 410.796 466.218, 404.528 463.659, 396.415 459.436 C 382.328 452.105, 378.157 451.402, 371.752 455.279 C 367.733 457.713, 360.581 466.483, 358.380 471.676 C 354.791 480.149, 355.899 492.578, 360.514 495.601 C 361.854 496.479, 366.953 498.216, 371.845 499.461 C 381.319 501.871, 383.570 502.832, 391.597 507.894 C 399.643 512.968, 408.833 514.187, 439.500 514.248 C 455.283 514.279, 468.197 513.833, 472.363 513.112 C 479.064 511.953, 485.856 509.209, 489.130 506.337 C 490.027 505.550, 495.399 502.565, 501.068 499.703 C 510.976 494.702, 511.526 494.250, 515.241 488.063 C 517.366 484.522, 520.708 479.852, 522.665 477.685 C 524.623 475.518, 527.079 471.816, 528.122 469.458 C 532.154 460.341, 533.019 429.045, 529.632 414.772 C 528.714 410.902, 527.157 407.809, 524.831 405.234 C 522.938 403.139, 519.672 398.838, 517.574 395.677 C 515.476 392.517, 511.676 388.522, 509.130 386.799 C 506.583 385.077, 502.447 381.779, 499.938 379.470 C 496.481 376.289, 493.332 374.615, 486.938 372.561 C 482.297 371.070, 474.251 367.821, 469.059 365.342 C 463.491 362.683, 454.756 359.631, 447.768 357.902 C 433.440 354.359, 427.973 351.905, 422.827 346.707 C 412.596 336.373, 412.501 326.199, 422.533 315.095 C 427.454 309.649, 434.659 307.488, 447.500 307.607 C 459.902 307.722, 464.248 308.897, 475 315.040 C 485.946 321.294, 491.408 322.706, 497.768 320.925 C 503.282 319.381, 510.072 313.138, 514.581 305.467 C 519.712 296.736, 518.078 285.059, 511 279.880 C 509.625 278.874, 503.005 276.480, 496.290 274.560 C 489.574 272.640, 481.313 269.672, 477.932 267.966 C 469 263.457, 459.588 261.980, 440.662 262.118 C 431.773 262.182, 422.475 262.589, 420 263.022 M 251.500 264.768 C 248.511 265.413, 245.376 268.700, 242.810 273.877 L 240.519 278.500 240.621 391.532 C 240.713 492.799, 240.889 504.885, 242.314 507.641 C 244.940 512.719, 248.390 513.500, 268.176 513.500 C 284.558 513.500, 286.058 513.347, 288.676 511.404 C 290.229 510.251, 292.059 508.226, 292.742 506.904 C 293.715 505.022, 293.932 479.850, 293.742 391 L 293.500 277.500 291.113 272.652 C 287.273 264.850, 285.155 264.075, 268.064 264.216 C 260.054 264.283, 252.600 264.531, 251.500 264.768 M 600.729 268.097 C 590.639 269.669, 585.744 275.432, 585.594 285.919 C 585.550 288.989, 585.623 340.212, 585.757 399.750 C 585.994 505.519, 586.045 508.045, 587.947 509.947 C 591.325 513.325, 597.552 514.301, 615.245 514.228 C 632.754 514.155, 637.473 513.343, 640.629 509.859 C 642.354 507.955, 642.539 505.232, 643 474.968 C 643.478 443.570, 643.592 442.019, 645.605 439.321 C 649.958 433.486, 652.204 432.909, 674.235 431.965 C 695.880 431.039, 699.368 430.380, 712.500 424.741 C 716.900 422.851, 724.227 420.070, 728.781 418.560 C 735.614 416.295, 737.538 415.175, 739.781 412.157 C 741.277 410.146, 744.804 406.250, 747.620 403.500 C 753.912 397.357, 755.242 394.806, 758.652 382.337 C 761.167 373.141, 761.347 371.100, 761.421 351 C 761.505 328.193, 760.777 322.029, 756.304 307.676 C 753.970 300.186, 753.453 299.442, 744.183 290.259 C 737.886 284.020, 732.737 279.857, 729.459 278.355 C 721.971 274.923, 685.742 268.921, 669.500 268.421 C 641.529 267.561, 605.266 267.390, 600.729 268.097 M 658.120 312.029 C 652.139 313.273, 649.578 315.161, 646.296 320.743 C 643.521 325.464, 643.498 325.653, 643.178 345.633 C 642.752 372.189, 644.165 379.853, 650.325 384.410 C 652.876 386.297, 654.476 386.495, 666.825 386.449 C 683.492 386.388, 685.005 385.817, 696.317 375.330 C 707.513 364.949, 708.122 363.494, 707.749 348 C 707.380 332.657, 706.139 329.570, 697.895 323.501 C 686.275 314.948, 668.602 309.850, 658.120 312.029 M 653.573 562.570 C 649.287 566.855, 650.758 573.130, 657.072 577.494 C 660.358 579.765, 662.327 582.263, 664.705 587.180 C 666.970 591.864, 669.102 594.640, 671.977 596.653 C 674.248 598.243, 677.435 601.928, 679.195 605 C 680.929 608.025, 683.654 612.018, 685.251 613.873 C 690.372 619.821, 690.536 620.995, 687.177 627.650 C 685.523 630.925, 683.408 636.281, 682.476 639.552 C 681.087 644.426, 679.804 646.421, 675.367 650.603 C 671.563 654.187, 668.792 658.103, 666.056 663.762 C 662.810 670.474, 661.230 672.506, 656.593 675.931 C 653.487 678.226, 650.760 681.106, 650.423 682.449 C 649.617 685.662, 650.699 688.770, 652.862 689.456 C 656.117 690.489, 693.746 688.232, 696.655 686.829 C 698.170 686.098, 701.356 682.938, 703.733 679.806 C 706.514 676.143, 709.706 673.290, 712.683 671.806 C 715.752 670.277, 718.352 667.913, 720.405 664.788 C 722.347 661.832, 725.266 659.110, 728.237 657.483 C 730.843 656.056, 734.893 652.609, 737.237 649.822 C 739.582 647.035, 743.874 643.233, 746.776 641.373 C 752.168 637.917, 753.645 635.616, 755.039 628.504 C 756.206 622.544, 754.227 618.792, 748.176 615.499 C 744.981 613.761, 741.964 611.023, 739.886 607.978 C 737.893 605.058, 734.657 602.071, 731.587 600.318 C 727.946 598.241, 725.740 596.020, 723.613 592.292 C 721.464 588.529, 719.363 586.427, 715.821 584.499 C 712.427 582.652, 709.918 580.212, 707.459 576.369 C 704.110 571.132, 698.328 567.088, 694.096 567.022 C 693.325 567.010, 690.281 565.859, 687.332 564.464 C 682.290 562.079, 681.624 561.999, 676.136 563.133 C 671.115 564.170, 669.720 564.105, 666.131 562.669 C 660.889 560.572, 655.613 560.530, 653.573 562.570 M 442.984 605.519 C 441.951 606.764, 442.060 607.409, 443.589 609.098 L 445.453 611.158 447.242 608.950 C 448.610 607.260, 448.763 606.419, 447.893 605.371 C 446.404 603.577, 444.550 603.633, 442.984 605.519 M 600.641 610.250 C 599.358 613.138, 597.113 617.250, 595.654 619.390 C 592.263 624.359, 592.317 626.260, 596.011 632.018 C 603.628 643.887, 605.128 642.562, 606.258 622.968 C 606.740 614.621, 606.893 607.163, 606.598 606.395 C 605.475 603.467, 602.922 605.119, 600.641 610.250 M 393.607 638.582 C 392.659 641.053, 392.892 643.815, 394.112 644.569 C 395.586 645.480, 396.966 643.165, 396.985 639.750 C 397.001 636.737, 394.630 635.916, 393.607 638.582 M 856.869 648.510 C 855.421 649.296, 853.902 650.741, 853.492 651.720 C 853.082 652.699, 852.832 682.975, 852.937 719 C 853.120 782.448, 853.062 784.705, 851.082 791.058 C 848.773 798.466, 846.564 800.978, 839.678 804.024 C 834.926 806.126, 834.255 806.144, 767.516 805.909 C 693.064 805.647, 696.758 805.342, 694.006 811.986 C 692.851 814.775, 692.928 815.429, 694.698 817.814 C 695.794 819.291, 698.223 820.950, 700.096 821.500 C 702.304 822.149, 731.680 822.324, 783.728 822 L 863.956 821.500 866.728 818.728 L 869.500 815.955 869.829 735.861 C 870.010 691.810, 869.892 654.707, 869.567 653.412 C 868.162 647.814, 862.308 645.554, 856.869 648.510 M 135.488 650.257 L 132.864 652.513 132.964 732.437 C 133.039 793.016, 133.358 812.982, 134.282 814.930 C 134.952 816.344, 137.300 818.400, 139.500 819.500 C 143.368 821.434, 146.033 821.516, 220.500 822 C 262.850 822.275, 298.992 822.133, 300.815 821.685 C 308.260 819.855, 310.384 813.184, 304.971 808.629 C 301.267 805.512, 296.676 804.563, 289.191 805.365 C 286.061 805.701, 257.353 806.026, 225.396 806.089 C 162.540 806.212, 164.312 806.353, 159.415 800.845 C 158.268 799.555, 156.243 796.025, 154.915 793 L 152.500 787.500 152.523 727.500 C 152.535 694.500, 152.928 664.986, 153.396 661.914 C 154.458 654.932, 153.291 652.489, 147.669 649.937 C 142.142 647.427, 138.671 647.519, 135.488 650.257" stroke="none" fill="#ffffff" fill-rule="evenodd"/>
</svg>