<svg xmlns="http://www.w3.org/2000/svg" width="1000" height="904" viewBox="0 0 1000 904" version="1.1">
	<path d="M 590.130 131.879 C 588.375 133.518, 584.590 135.629, 581.719 136.569 C 567.758 141.141, 558.563 148.178, 547.004 163.134 C 542.506 168.954, 539.912 173.369, 539.069 176.640 C 538.381 179.313, 536.697 185.100, 535.328 189.500 C 532.135 199.766, 531.155 208, 533.128 208 C 536.519 208, 541.718 203.019, 544.275 197.321 C 545.717 194.108, 548.523 189.684, 550.510 187.489 C 552.496 185.295, 555.380 180.768, 556.917 177.428 C 558.455 174.089, 562.477 168.306, 565.856 164.578 C 569.235 160.849, 572 157.413, 572 156.942 C 572 156.471, 575.089 153.620, 578.866 150.607 C 583.654 146.787, 586.220 143.908, 587.346 141.093 C 588.621 137.906, 589.964 136.577, 593.731 134.778 C 598.978 132.272, 599.993 129.673, 595.910 129.199 C 594.140 128.993, 592.311 129.841, 590.130 131.879 M 417.500 147.360 C 416.148 149.423, 415.964 151.198, 416.534 156.704 C 416.921 160.442, 417.889 165.300, 418.687 167.500 C 424.468 183.449, 426.354 189.772, 428.081 198.997 C 430.582 212.353, 431.062 213.403, 435.938 216.193 C 438.385 217.592, 440.842 220.135, 442.184 222.656 C 443.651 225.410, 446.044 227.770, 449.285 229.656 C 451.983 231.226, 455.142 234.121, 456.337 236.119 C 457.527 238.109, 460.526 241.280, 463.001 243.166 C 465.475 245.051, 468.552 248.496, 469.839 250.822 C 471.325 253.508, 473.613 255.782, 476.116 257.059 C 479.076 258.569, 480.722 260.429, 482.736 264.534 C 485.658 270.493, 487.600 271.443, 488.612 267.409 C 489.573 263.580, 487.543 258.026, 482.480 250.631 C 480.004 247.016, 476.812 240.909, 475.385 237.060 C 473.448 231.833, 471.652 229.012, 468.287 225.911 C 465.772 223.592, 462.764 219.455, 461.475 216.539 C 460.205 213.669, 457.498 209.785, 455.459 207.910 C 453.421 206.034, 450.513 201.800, 448.998 198.500 C 445.767 191.462, 442.684 177.990, 443.164 173.007 C 443.594 168.538, 447.015 166.738, 456.123 166.189 L 462.746 165.789 465.623 169.601 C 467.205 171.698, 470.687 175.683, 473.360 178.457 C 476.033 181.231, 480.047 186.200, 482.279 189.500 C 486.530 195.782, 487.330 196.589, 492.957 200.264 C 495.963 202.227, 496.585 203.365, 497.720 208.974 C 499.144 216.007, 500.531 218.387, 501.592 215.620 C 502.572 213.066, 501.338 205.722, 499.730 204.535 C 497.649 203, 496.307 200.086, 493.420 190.836 C 489.648 178.747, 487.224 175.214, 477.304 167.339 C 463.346 156.259, 463.034 156.085, 454.169 154.413 C 449.596 153.551, 441.725 151.244, 436.678 149.288 C 431.630 147.332, 425.626 145.524, 423.335 145.272 C 419.714 144.872, 418.951 145.145, 417.500 147.360 M 328.607 205.582 C 327.523 208.408, 327.956 214.079, 330.430 229.426 C 331.766 237.717, 333.627 252.150, 334.564 261.500 C 336.260 278.416, 337.067 281.449, 341.488 287.500 C 344.131 291.117, 345.500 294.693, 347.050 302.025 C 348.312 307.996, 349.985 310.634, 354.310 313.468 C 355.835 314.466, 358.190 317.174, 359.544 319.484 C 361.153 322.230, 363.687 324.600, 366.860 326.327 C 369.569 327.802, 372.838 330.668, 374.259 332.815 C 376.235 335.801, 378.136 337.146, 382.761 338.833 C 386.038 340.027, 390.695 342.511, 393.109 344.352 C 399.178 348.978, 402.262 350.428, 411.500 352.999 C 416.469 354.381, 421.311 356.549, 424.281 358.720 C 429.521 362.551, 437.650 366, 441.439 366 C 442.769 366, 444.597 365.260, 445.501 364.356 C 447.895 361.962, 446.632 358.122, 442.094 354 C 437.240 349.591, 436.360 347.842, 434.466 338.838 C 432.803 330.932, 431.493 328.424, 426.209 323.025 C 424.311 321.086, 421.658 316.978, 420.312 313.896 C 418.420 309.564, 416.948 307.777, 413.822 306.020 C 410.799 304.321, 409.204 302.449, 407.504 298.604 C 406.020 295.249, 404.233 292.962, 402.364 292.026 C 397.862 289.771, 395.150 286.984, 393.966 283.396 C 393.105 280.787, 391.724 279.541, 387.450 277.520 C 382.156 275.015, 379 271.266, 379 267.481 C 379 266.591, 376.975 263.779, 374.500 261.233 C 369.288 255.871, 368.585 251.973, 372.250 248.766 C 374.206 247.055, 375.625 246.851, 383.121 247.201 C 391.599 247.597, 391.822 247.674, 396.511 251.801 C 399.134 254.109, 402.923 256.441, 404.933 256.982 C 409.138 258.114, 412.321 260.786, 414.512 265.024 C 415.438 266.813, 418.052 269.006, 421.102 270.552 C 424.245 272.144, 426.791 274.307, 427.829 276.265 C 429.607 279.618, 432.879 283.049, 437.885 286.809 C 439.575 288.079, 441.796 291.004, 442.820 293.309 C 443.843 295.614, 446.583 299.525, 448.907 302 C 453.058 306.419, 457.961 315.046, 458.001 318 C 458.012 318.825, 460.037 322.185, 462.501 325.467 C 465.283 329.173, 467.972 334.411, 469.596 339.289 C 473.540 351.132, 476.962 350.998, 476.978 339 C 476.983 335.425, 476.111 327.411, 475.040 321.192 C 473.273 310.928, 472.690 309.312, 468.729 303.692 C 464.185 297.244, 462.818 294.337, 461.024 287.308 C 460.271 284.359, 458.701 282.048, 455.727 279.511 C 453.402 277.527, 450.375 273.583, 449 270.745 C 447.374 267.390, 444.991 264.522, 442.184 262.543 C 439.810 260.869, 436.885 257.737, 435.684 255.582 C 434.207 252.933, 432.406 251.299, 430.122 250.534 C 426.931 249.466, 424.795 247.439, 420.759 241.646 C 419.516 239.862, 417.370 238.779, 413.259 237.859 C 409.697 237.062, 405.184 234.985, 401.430 232.415 C 394.292 227.529, 391.169 226.415, 380.737 225.035 C 372.124 223.896, 363.704 221.228, 358.153 217.879 C 356.144 216.667, 352.137 214.398, 349.250 212.838 C 331.155 203.057, 329.764 202.568, 328.607 205.582 M 608.823 218.070 C 606.801 218.547, 600.401 220.578, 594.601 222.581 C 586.097 225.519, 582.973 227.171, 578.469 231.112 C 575.397 233.800, 572.449 236, 571.918 236 C 570.226 236, 553.926 253.224, 551.947 257.103 C 550.901 259.154, 547.863 263.325, 545.197 266.372 C 542.531 269.419, 539.755 273.845, 539.028 276.206 C 538.301 278.568, 535.310 284.100, 532.380 288.500 C 526.801 296.878, 524 304.950, 524 312.651 C 524 320.629, 527.655 319.184, 532.007 309.485 C 533.491 306.176, 536.459 301.625, 538.603 299.370 C 540.746 297.115, 543.311 293.722, 544.302 291.831 C 545.293 289.939, 547.917 286.391, 550.132 283.946 C 552.347 281.501, 555.313 277.700, 556.722 275.500 C 560.067 270.278, 586.211 244.508, 591.443 241.274 C 593.674 239.895, 597.075 237.267, 599 235.433 C 600.925 233.599, 604.602 231.171, 607.171 230.037 C 612.601 227.641, 617 222.891, 617 219.423 C 617 216.743, 615.493 216.494, 608.823 218.070 M 543.214 358.891 C 538.645 360.469, 535.139 363.120, 535.032 365.079 C 535.014 365.397, 536.364 367.716, 538.030 370.232 C 540.937 374.620, 546.415 378, 550.619 378 C 553.970 378, 576.776 386.277, 582.100 389.424 C 585.180 391.246, 591.255 393.924, 595.600 395.376 C 604.783 398.446, 619.455 408.298, 622.315 413.315 C 625.913 419.627, 621.961 433.029, 615.193 437.471 C 609.883 440.956, 581.620 453.013, 571.628 456.056 C 570.049 456.537, 562.439 457.406, 554.717 457.987 C 542.727 458.889, 538.927 459.624, 528.692 463.022 C 522.100 465.210, 515.581 467, 514.204 467 C 512.827 467, 509.348 465.809, 506.473 464.354 L 501.247 461.707 497.339 464.848 C 492.135 469.030, 487.537 469.707, 459 470.490 C 445.021 470.874, 429.423 471.942, 420.500 473.127 C 392.346 476.866, 389.482 477.111, 369.532 477.493 C 351.898 477.831, 349.413 478.082, 348.277 479.636 C 346.804 481.651, 347.460 484.763, 349.855 487.118 C 350.760 488.008, 355.149 489.920, 359.610 491.368 C 368.873 494.374, 372.371 494.518, 400 493.029 C 410.175 492.480, 428.400 491.535, 440.500 490.929 C 520.773 486.906, 518.696 487.111, 525.989 482.507 C 530.956 479.371, 537.880 477.131, 544.764 476.432 C 556.212 475.269, 561.685 473.758, 571.500 469.049 C 577 466.411, 584.572 463.461, 588.326 462.494 C 592.975 461.297, 596.961 459.388, 600.826 456.507 C 603.947 454.181, 610.224 450.804, 614.776 449.002 C 621.765 446.235, 623.477 445.087, 625.784 441.613 C 627.415 439.157, 630.229 436.675, 632.768 435.453 C 638.382 432.752, 639.522 431.394, 640.869 425.807 C 643.144 416.368, 641.673 406.072, 637.700 403.627 C 636.490 402.882, 632.575 401.490, 629 400.535 C 624.872 399.431, 620.652 397.382, 617.435 394.919 C 611.680 390.514, 606.745 388.542, 596 386.354 C 591 385.336, 586.273 383.498, 581.821 380.842 C 578.148 378.650, 572.763 376.229, 569.854 375.462 C 562.611 373.551, 559.869 371.239, 557.340 364.907 C 553.826 356.111, 552.678 355.622, 543.214 358.891 M 286.252 387.731 C 281.733 388.550, 282.341 393.947, 287.674 400.357 C 288.981 401.928, 291.046 406.599, 292.264 410.737 C 293.826 416.048, 295.588 419.523, 298.254 422.551 C 300.330 424.910, 303.553 429.914, 305.416 433.670 C 309.358 441.622, 312.494 444.885, 317.153 445.886 C 321.729 446.868, 420.629 445.709, 421.668 444.661 C 422.466 443.857, 415.785 437.225, 409.500 432.583 C 407.850 431.365, 403.847 429.566, 400.605 428.587 C 397.133 427.538, 393.640 425.668, 392.105 424.037 C 388.351 420.045, 385.300 418.323, 376.951 415.483 C 372.117 413.839, 368.327 411.775, 366.025 409.532 C 361.603 405.225, 355.669 402.602, 345.746 400.569 C 339.797 399.351, 336.516 397.971, 331.657 394.644 C 324.544 389.774, 322.746 389.360, 305 388.494 C 298.125 388.158, 291.600 387.758, 290.500 387.604 C 289.400 387.450, 287.488 387.507, 286.252 387.731 M 663.686 442.587 C 662.209 444.064, 661 445.885, 661 446.633 C 661 448.455, 654.325 455.762, 651.981 456.506 C 650.956 456.831, 648.578 459.241, 646.696 461.860 C 644.404 465.050, 641.486 467.527, 637.860 469.362 C 634.882 470.869, 630.758 473.693, 628.696 475.639 C 624.906 479.215, 612.992 486, 610.504 486 C 609.761 486, 607.118 487.553, 604.631 489.452 C 597.873 494.611, 593.390 496.570, 584.053 498.445 C 574.707 500.321, 573.725 500.723, 566.439 505.650 C 562.278 508.464, 559.610 509.351, 551.439 510.641 C 545.972 511.504, 537.225 513.488, 532 515.049 C 513.336 520.626, 498.834 522.725, 463 525.040 C 453.925 525.626, 444.700 526.461, 442.500 526.897 L 438.500 527.688 441.221 528.808 C 445.014 530.370, 459.439 532.751, 472.500 533.971 C 494.118 535.990, 508.185 535.161, 541.992 529.873 C 561.845 526.768, 566.161 525.592, 570.648 522.062 C 572.040 520.967, 577.632 518.679, 583.074 516.977 C 590.082 514.785, 594.403 512.749, 597.886 509.996 C 600.590 507.858, 605.727 504.783, 609.301 503.163 C 612.875 501.542, 618.207 498.412, 621.149 496.205 C 624.092 493.999, 628.881 490.801, 631.790 489.099 C 637.543 485.734, 642.202 481.609, 656.898 466.870 C 666.534 457.207, 673.579 446.284, 672.807 442.205 C 672.247 439.252, 666.793 439.480, 663.686 442.587 M 526.655 635.829 C 523.529 639.283, 525.465 647.986, 529.026 646.490 C 529.837 646.150, 532.003 644.002, 533.840 641.718 L 537.181 637.565 534.980 635.782 C 532.150 633.491, 528.754 633.510, 526.655 635.829 M 386.166 637.516 C 384.097 640.146, 382.498 647.131, 383.163 650.633 C 383.429 652.035, 384.550 652.575, 387.665 652.803 C 392.751 653.174, 395.008 650.623, 394.985 644.527 C 394.955 636.206, 390.182 632.411, 386.166 637.516 M 444.246 636.154 C 442.575 637.825, 442.658 644.471, 444.367 645.890 C 445.439 646.780, 446.638 646.147, 449.929 642.953 C 455.139 637.897, 455.009 635.613, 449.487 635.204 C 447.245 635.039, 444.944 635.456, 444.246 636.154 M 480 635.955 C 478.667 636.820, 478.667 637.086, 480 638.357 C 483.606 641.792, 489.648 640.911, 487.399 637.278 C 486.133 635.233, 482.198 634.529, 480 635.955 M 562.224 636.176 C 561.365 637.035, 561.344 637.710, 562.146 638.676 C 563.590 640.416, 570 640.436, 570 638.700 C 570 635.448, 564.679 633.721, 562.224 636.176 M 644.460 640.682 C 643.176 641.967, 642.919 643.395, 643.375 646.723 C 643.704 649.120, 644.434 651.943, 644.999 652.997 C 646.270 655.372, 652.055 656.576, 654.895 655.056 C 657.392 653.720, 657.542 651.542, 655.477 646.599 C 652.547 639.587, 647.999 637.144, 644.460 640.682 M 444.035 658.934 C 442.664 661.497, 442.718 679.443, 444.112 684.465 C 445.152 688.213, 445.291 688.323, 446.639 686.479 C 448.577 683.829, 452 672.497, 452 668.733 C 452 665.564, 447.615 657, 445.993 657 C 445.486 657, 444.605 657.870, 444.035 658.934 M 480.260 671.763 C 478.479 673.818, 477.016 675.978, 477.010 676.563 C 477.005 677.148, 478.338 678.908, 479.973 680.474 C 481.609 682.041, 483.683 685.541, 484.583 688.251 C 485.771 691.827, 486.521 692.879, 487.317 692.083 C 488.113 691.287, 487.953 689.254, 486.733 684.675 C 485.609 680.459, 485.255 676.644, 485.665 673.182 C 486.426 666.753, 484.942 666.363, 480.260 671.763 M 400.614 674.401 C 397.510 680.941, 399.192 689, 403.660 689 C 406.740 689, 408 686.952, 408 681.949 C 408 671.818, 403.851 667.579, 400.614 674.401 M 686.004 688.250 C 686.008 692.930, 688.696 698.232, 691.946 699.971 C 697.179 702.772, 702.291 694.149, 699.021 688.039 C 697.897 685.939, 693.015 684, 688.851 684 C 686.163 684, 686 684.243, 686.004 688.250 M 365.200 688.200 C 363.582 689.818, 363.675 693, 365.339 693 C 366.815 693, 369.223 688.557, 368.266 687.600 C 367.370 686.703, 366.533 686.867, 365.200 688.200 M 526.469 695.360 C 525.612 701.076, 526.439 704.630, 528.939 705.968 C 531.434 707.303, 534 706.276, 534 703.943 C 534 702.929, 532.461 699.546, 530.580 696.423 L 527.161 690.746 526.469 695.360 M 802.405 756.105 C 800.586 758.115, 800.494 760.585, 800.377 811.001 C 800.309 840.036, 800.622 864.388, 801.072 865.117 C 802.951 868.156, 803.500 863.827, 803.500 845.990 C 803.500 828.514, 803.650 826.949, 805.571 824.326 C 809.631 818.786, 812.798 818.003, 831.167 818.002 L 847.834 818 854.431 821.500 C 862.762 825.920, 865.264 825.936, 869.600 821.600 C 876.027 815.173, 873.006 811.357, 862.949 813.198 C 859.196 813.885, 855.416 813.854, 850.807 813.098 C 847.126 812.494, 837.180 812, 828.705 812 C 814.309 812, 813.072 811.850, 809.898 809.713 C 805.173 806.534, 803.880 801.883, 803.305 786 L 802.817 772.500 806.908 765.805 C 811.270 758.667, 811.698 757.098, 809.800 755.200 C 807.953 753.353, 804.515 753.774, 802.405 756.105 M 705.989 758.250 C 703.610 762.152, 703.400 768.699, 705.557 771.777 C 707.928 775.163, 713.895 774.834, 717.894 771.099 C 724.312 765.103, 720.518 755, 711.849 755 C 708.547 755, 707.676 755.483, 705.989 758.250 M 528.872 757.668 C 527.278 759.606, 527.236 779.636, 528.823 781.223 C 529.413 781.813, 531.484 780.854, 534.363 778.657 C 536.891 776.727, 539.868 774.859, 540.978 774.507 C 545.969 772.923, 543.184 762.131, 536.759 758.160 C 532.560 755.565, 530.698 755.449, 528.872 757.668 M 228.151 759.750 C 225.172 762.268, 224.655 772, 227.500 772 C 228.325 772, 229 771.582, 229 771.071 C 229 770.561, 229.572 769.548, 230.271 768.821 C 233.514 765.451, 236 761.564, 236 759.865 C 236 757.399, 231.019 757.326, 228.151 759.750 M 315.348 760.536 C 315.024 761.380, 315.938 764.699, 317.379 767.911 L 320 773.750 320 809.197 C 320 838.845, 319.742 845.401, 318.424 849.270 C 316.436 855.103, 316.821 858.500, 319.470 858.500 C 323.721 858.500, 323.970 855.853, 323.985 810.399 C 323.995 781.473, 323.637 766.256, 322.895 764.128 C 321.308 759.576, 316.580 757.325, 315.348 760.536 M 622.065 760.878 C 620.969 762.927, 621.152 765.994, 622.694 771.413 C 623.126 772.931, 623.397 773.034, 624.006 771.913 C 625.724 768.754, 626.093 762.505, 624.676 760.570 C 623.295 758.682, 623.237 758.689, 622.065 760.878 M 877.750 759.748 C 876.788 759.967, 876.001 760.451, 876.003 760.823 C 876.010 762.320, 883.705 772.962, 884.329 772.338 C 885.230 771.436, 885.158 763.782, 884.235 762.400 C 883.100 760.700, 879.691 759.306, 877.750 759.748 M 165.763 767.417 C 159.732 774.128, 158 777.352, 158 781.865 C 158 791.225, 171.288 787.072, 174.040 776.852 C 175.555 771.225, 174.912 761.586, 173 761.276 C 172.175 761.142, 168.918 763.905, 165.763 767.417 M 62.667 765.667 C 61.444 766.889, 61.980 776.693, 63.507 781.019 C 65.315 786.145, 67.419 787.926, 71.715 787.968 C 75.889 788.009, 77.444 785.254, 76.623 779.265 C 75.902 774.005, 73.215 769.914, 68.614 767.071 C 65.081 764.887, 63.759 764.575, 62.667 765.667 M 882.690 793.750 C 881.306 796.178, 880.039 801.938, 880.580 803.347 C 882.059 807.201, 886 803.783, 886 798.648 C 886 794.296, 884.036 791.390, 882.690 793.750 M 691.667 798.667 C 690.629 799.704, 690.883 803, 692 803 C 692.550 803, 693 801.875, 693 800.500 C 693 797.882, 692.769 797.564, 691.667 798.667 M 567.527 799.956 C 566.521 801.583, 567.948 805, 569.634 805 C 570.671 805, 571.035 804.176, 570.816 802.327 C 570.482 799.503, 568.632 798.169, 567.527 799.956 M 580.015 816.750 C 580.043 818.119, 581.882 820.452, 582.469 819.864 C 583.257 819.076, 582.002 816, 580.893 816 C 580.402 816, 580.007 816.337, 580.015 816.750 M 680.134 826.866 C 678.013 828.987, 676.586 836.501, 677.563 840.395 C 678.203 842.945, 680.380 843.747, 682.558 842.235 C 687.115 839.070, 688.822 828.045, 685.066 826.035 C 682.501 824.663, 682.304 824.696, 680.134 826.866 M 737.250 827.496 C 735.753 829.196, 735.598 832, 737 832 C 737.550 832, 738 832.813, 738 833.806 C 738 835.881, 742.270 842.012, 744.639 843.338 C 748.521 845.510, 748.713 837.279, 744.953 829.908 C 742.825 825.736, 739.669 824.748, 737.250 827.496 M 868.425 839.360 C 867.379 842.050, 869.196 848.500, 871 848.500 C 873.367 848.500, 873.450 842.774, 871.125 839.923 C 869.281 837.663, 869.100 837.625, 868.425 839.360 M 618.280 842.288 C 616.509 843.598, 613.246 845.487, 611.030 846.487 C 607.961 847.870, 607 848.871, 607 850.684 C 607 856.185, 611.545 862.380, 619.319 867.474 C 621.582 868.956, 622.265 869.025, 623.611 867.908 C 624.941 866.804, 625.138 864.884, 624.780 856.540 C 624.543 851.018, 623.708 845.017, 622.924 843.204 L 621.500 839.907 618.280 842.288 M 526.799 849.250 C 526.268 854.743, 527.027 864, 528.009 864 C 529.188 864, 530.236 853.355, 529.491 848.946 C 528.617 843.771, 527.315 843.918, 526.799 849.250 M 226 851.345 C 226 855.253, 226.492 857.135, 227.829 858.345 C 230.571 860.827, 232 860.352, 232 856.960 C 232 853.598, 228.520 846, 226.980 846 C 226.441 846, 226 848.405, 226 851.345 M 117.250 849.072 C 114.861 849.989, 114.169 854.139, 115.939 856.936 C 117.222 858.964, 119.670 856.779, 120.537 852.832 C 121.343 849.160, 120.258 847.918, 117.250 849.072 M 375.667 860.667 C 373.170 863.163, 376.744 869, 380.770 869 C 384.200 869, 384.245 867.348, 380.918 863.560 C 377.751 859.952, 376.868 859.466, 375.667 860.667" stroke="none" fill="#ffffff" fill-rule="evenodd"/>
</svg>