<svg xmlns="http://www.w3.org/2000/svg" width="1000" height="563" viewBox="0 0 1000 563" version="1.1">
	<path d="M 5 206.250 L 5 356 25 356 L 45 356 45.016 320.750 L 45.033 285.500 60.471 270.125 C 70.250 260.386, 76.428 254.950, 77.325 255.295 C 78.105 255.594, 79.038 257.016, 79.400 258.456 C 79.761 259.895, 81.381 263.965, 83 267.500 C 84.619 271.035, 86.230 275.068, 86.580 276.463 C 86.930 277.859, 87.547 279, 87.950 279 C 88.353 279, 89.501 281.700, 90.500 285 C 91.499 288.300, 92.624 291, 93 291 C 93.376 291, 94.501 293.700, 95.500 297 C 96.499 300.300, 97.695 303, 98.158 303 C 98.621 303, 98.929 303.337, 98.841 303.750 C 98.656 304.624, 99.409 306.626, 102.507 313.500 C 103.747 316.250, 105.103 319.625, 105.521 321 C 105.938 322.375, 107.117 325.068, 108.140 326.985 C 109.163 328.902, 110 330.801, 110 331.206 C 110 331.610, 111.181 334.522, 112.624 337.678 C 114.067 340.833, 115.792 344.784, 116.458 346.457 C 117.123 348.131, 118.290 350.962, 119.053 352.750 L 120.438 356 140.626 356 L 160.813 356 159.739 352.500 C 159.148 350.575, 158.361 349, 157.991 349 C 157.620 349, 156.499 346.300, 155.500 343 C 154.501 339.700, 153.376 337, 153 337 C 152.624 337, 151.756 335.087, 151.072 332.750 C 150.387 330.413, 149.259 327.600, 148.565 326.500 C 147.871 325.400, 146.735 322.700, 146.040 320.500 C 145.345 318.300, 144.238 315.600, 143.580 314.500 C 142.921 313.400, 141.548 310.250, 140.530 307.500 C 139.511 304.750, 138.125 301.600, 137.450 300.500 C 136.775 299.400, 135.655 296.700, 134.960 294.500 C 134.265 292.300, 133.129 289.600, 132.435 288.500 C 131.741 287.400, 130.613 284.587, 129.928 282.250 C 129.244 279.913, 128.376 278, 128 278 C 127.624 278, 126.499 275.300, 125.500 272 C 124.501 268.700, 123.376 266, 123 266 C 122.624 266, 121.499 263.300, 120.500 260 C 119.501 256.700, 118.305 254, 117.842 254 C 117.379 254, 117.071 253.662, 117.159 253.250 C 117.344 252.376, 116.591 250.374, 113.493 243.500 C 112.253 240.750, 110.913 237.375, 110.515 236 C 110.117 234.625, 109.232 232.600, 108.547 231.500 C 107.863 230.400, 106.740 227.782, 106.052 225.683 C 104.882 222.115, 104.966 221.691, 107.330 219.183 C 108.721 217.707, 112.085 214.025, 114.806 211 C 124.298 200.445, 141.514 181.555, 143.286 179.748 C 145.195 177.802, 147 178.196, 147 180.559 C 147 181.352, 147.401 182, 147.892 182 C 148.382 182, 149.086 183.238, 149.457 184.750 C 149.827 186.262, 151.451 190.314, 153.065 193.753 C 154.679 197.192, 156 200.292, 156 200.643 C 156 200.994, 156.884 203.130, 157.965 205.390 C 159.654 208.924, 162.952 216.446, 163.493 218 C 164.070 219.654, 166.319 224.804, 168.429 229.299 C 169.771 232.160, 171.173 235.738, 171.543 237.250 C 171.914 238.763, 172.547 240, 172.950 240 C 173.353 240, 174.248 241.912, 174.938 244.250 C 175.628 246.588, 177.006 249.850, 178 251.500 C 178.994 253.150, 180.372 256.413, 181.062 258.750 C 181.752 261.087, 182.695 263, 183.158 263 C 183.621 263, 183.929 263.337, 183.841 263.750 C 183.652 264.645, 184.457 266.758, 187.627 273.688 C 188.932 276.542, 190 279.128, 190 279.435 C 190 279.743, 191.321 282.808, 192.935 286.247 C 194.549 289.686, 196.173 293.738, 196.543 295.250 C 196.914 296.762, 197.525 298, 197.901 298 C 198.278 298, 199.427 300.475, 200.455 303.500 C 201.484 306.525, 202.631 309, 203.004 309 C 203.378 309, 204.501 311.700, 205.500 315 C 206.499 318.300, 207.647 321, 208.050 321 C 208.453 321, 209.086 322.238, 209.457 323.750 C 209.827 325.262, 211.391 329.200, 212.931 332.500 C 214.472 335.800, 216.078 339.625, 216.501 341 C 216.924 342.375, 217.575 343.725, 217.948 344 C 218.321 344.275, 219.504 346.975, 220.575 350 L 222.524 355.500 230.508 355.500 L 238.492 355.500 240.565 350 C 241.705 346.975, 243.328 342.925, 244.171 341 C 245.970 336.894, 247.278 333.702, 247.449 333 C 247.516 332.725, 248.058 331.600, 248.654 330.500 C 249.249 329.400, 250.314 326.700, 251.020 324.500 C 251.726 322.300, 252.871 319.600, 253.565 318.500 C 254.259 317.400, 255.387 314.587, 256.072 312.250 C 256.756 309.913, 257.624 308, 258 308 C 258.376 308, 259.501 305.300, 260.500 302 C 261.499 298.700, 262.624 296, 263 296 C 263.376 296, 264.501 293.300, 265.500 290 C 266.499 286.700, 267.624 284, 268 284 C 268.376 284, 269.501 281.300, 270.500 278 C 271.499 274.700, 272.624 272, 273 272 C 273.376 272, 274.501 269.300, 275.500 266 C 276.499 262.700, 277.624 260, 278 260 C 278.376 260, 279.501 257.300, 280.500 254 C 281.499 250.700, 282.647 248, 283.050 248 C 283.453 248, 284.086 246.762, 284.457 245.250 C 284.827 243.738, 286.179 240.250, 287.462 237.500 C 288.745 234.750, 290.362 230.588, 291.056 228.250 C 291.749 225.912, 292.695 224, 293.158 224 C 293.621 224, 294.007 223.438, 294.015 222.750 C 294.024 222.063, 294.439 220.854, 294.939 220.064 C 296.361 217.817, 298.611 220.307, 300.599 226.327 C 301.538 229.172, 302.874 232.400, 303.567 233.500 C 304.260 234.600, 305.387 237.412, 306.072 239.750 C 306.756 242.087, 307.637 244, 308.028 244 C 308.420 244, 309.307 246.025, 310 248.500 C 310.693 250.975, 311.678 253, 312.189 253 C 312.700 253, 312.859 253.419, 312.543 253.931 C 312.226 254.443, 312.375 255.114, 312.873 255.421 C 313.371 255.729, 314.071 257.147, 314.428 258.571 C 314.786 259.995, 316.382 263.937, 317.974 267.330 C 319.567 270.724, 321.173 274.738, 321.543 276.250 C 321.914 277.763, 322.547 279, 322.950 279 C 323.353 279, 324.244 280.913, 324.928 283.250 C 325.613 285.587, 326.741 288.400, 327.435 289.500 C 328.129 290.600, 329.281 293.282, 329.995 295.461 C 330.710 297.639, 332.318 301.464, 333.569 303.961 C 334.821 306.457, 336.153 309.738, 336.531 311.250 C 336.908 312.762, 337.547 314, 337.950 314 C 338.353 314, 339.501 316.700, 340.500 320 C 341.499 323.300, 342.624 326, 343 326 C 343.376 326, 344.244 327.913, 344.928 330.250 C 345.613 332.587, 346.741 335.400, 347.435 336.500 C 348.129 337.600, 349.281 340.300, 349.995 342.500 C 350.710 344.700, 352.128 348.068, 353.147 349.985 C 354.166 351.902, 355 354.040, 355 354.735 C 355 355.650, 357.217 356, 363 356 C 367.978 356, 371 355.599, 371 354.938 C 371 354.354, 372.068 351.542, 373.373 348.688 C 376.543 341.758, 377.348 339.645, 377.159 338.750 C 377.071 338.338, 377.379 338, 377.842 338 C 378.305 338, 379.248 336.087, 379.938 333.750 C 380.628 331.412, 382.006 328.150, 383 326.500 C 383.994 324.850, 385.372 321.587, 386.062 319.250 C 386.752 316.912, 387.647 315, 388.050 315 C 388.453 315, 389.086 313.762, 389.457 312.250 C 389.827 310.738, 391.229 307.160, 392.571 304.299 C 396.029 296.931, 397.348 293.614, 397.161 292.750 C 397.073 292.337, 397.401 292, 397.892 292 C 398.382 292, 399.086 290.762, 399.457 289.250 C 399.827 287.738, 401.451 283.686, 403.065 280.247 C 404.679 276.808, 406 273.652, 406 273.233 C 406 272.813, 406.858 270.870, 407.907 268.913 C 408.955 266.957, 410.376 263.476, 411.065 261.178 C 411.753 258.880, 412.605 257, 412.957 257 C 413.310 257, 414.194 255.312, 414.922 253.250 C 415.651 251.188, 417.259 247.250, 418.497 244.500 C 421.597 237.609, 422.343 235.622, 422.159 234.750 C 422.071 234.337, 422.361 234, 422.802 234 C 423.244 234, 424.445 231.638, 425.471 228.750 C 426.497 225.863, 427.897 222.600, 428.582 221.500 C 429.267 220.400, 430.387 217.588, 431.072 215.250 C 431.756 212.913, 432.647 211, 433.050 211 C 433.453 211, 434.075 209.839, 434.431 208.420 C 434.787 207, 436.354 203.063, 437.912 199.670 C 441.538 191.776, 442.355 189.676, 442.159 188.750 C 442.071 188.338, 442.379 188, 442.842 188 C 443.305 188, 444.248 186.088, 444.938 183.750 C 445.628 181.412, 446.995 178.150, 447.975 176.500 C 448.955 174.850, 450.327 171.700, 451.024 169.500 C 451.720 167.300, 452.601 165.275, 452.981 165 C 453.361 164.725, 454.150 163.150, 454.734 161.500 C 455.318 159.850, 456.115 157.713, 456.505 156.750 C 457.166 155.117, 455.843 155, 436.759 155 L 416.303 155 414.486 159.250 C 413.486 161.588, 411.828 165.525, 410.802 168 C 409.775 170.475, 408.299 173.850, 407.521 175.500 C 404.124 182.700, 401 189.932, 401 190.592 C 401 190.985, 399.872 193.691, 398.494 196.605 C 396.340 201.157, 394.094 206.275, 393.493 208 C 393.398 208.275, 392.603 210.100, 391.728 212.055 C 390.852 214.011, 389.831 216.823, 389.459 218.305 C 389.088 219.787, 388.431 221, 388 221 C 387.569 221, 386.925 222.161, 386.569 223.580 C 386.213 225, 384.618 228.937, 383.026 232.330 C 381.433 235.724, 379.827 239.738, 379.457 241.250 C 379.086 242.763, 378.453 244, 378.050 244 C 377.647 244, 376.499 246.700, 375.500 250 C 374.501 253.300, 373.353 256, 372.950 256 C 372.547 256, 371.925 257.161, 371.569 258.580 C 371.213 260, 369.646 263.937, 368.088 267.330 C 366.529 270.724, 364.986 274.287, 364.658 275.250 C 363.750 277.920, 361.301 277.336, 360.531 274.266 C 360.153 272.762, 358.754 269.149, 357.422 266.236 C 356.090 263.324, 355 260.610, 355 260.206 C 355 259.801, 354.142 257.870, 353.093 255.913 C 352.045 253.957, 350.624 250.476, 349.935 248.178 C 349.247 245.880, 348.376 244, 348 244 C 347.624 244, 346.499 241.300, 345.500 238 C 344.501 234.700, 343.387 232, 343.024 232 C 342.662 232, 341.554 229.427, 340.563 226.282 C 339.571 223.137, 338.189 219.649, 337.492 218.532 C 336.794 217.414, 335.658 214.700, 334.967 212.500 C 334.276 210.300, 333.392 208.275, 333.003 208 C 332.613 207.725, 331.484 205.025, 330.494 202 C 329.503 198.975, 328.137 195.600, 327.458 194.500 C 326.779 193.400, 325.655 190.700, 324.960 188.500 C 324.265 186.300, 323.129 183.600, 322.435 182.500 C 321.741 181.400, 320.613 178.588, 319.928 176.250 C 319.244 173.912, 318.376 172, 318 172 C 317.624 172, 316.756 170.088, 316.071 167.750 C 315.386 165.412, 313.880 161.576, 312.723 159.224 L 310.620 154.949 296.159 155.224 L 281.699 155.500 280.316 159.500 C 279.556 161.700, 278.075 165.300, 277.026 167.500 C 275.976 169.700, 274.817 172.738, 274.450 174.250 C 274.083 175.762, 273.453 177, 273.050 177 C 272.647 177, 271.499 179.700, 270.500 183 C 269.501 186.300, 268.376 189, 268 189 C 267.624 189, 266.499 191.700, 265.500 195 C 264.501 198.300, 263.376 201, 263 201 C 262.624 201, 261.499 203.700, 260.500 207 C 259.501 210.300, 258.376 213, 258 213 C 257.624 213, 256.756 214.912, 256.072 217.250 C 255.387 219.588, 254.267 222.400, 253.582 223.500 C 252.897 224.600, 251.477 227.975, 250.427 231 C 249.376 234.025, 248.262 236.725, 247.951 237 C 247.641 237.275, 246.779 239.075, 246.037 241 C 245.295 242.925, 243.633 246.876, 242.344 249.780 C 241.055 252.683, 240 255.390, 240 255.794 C 240 256.199, 239.163 258.098, 238.140 260.015 C 237.117 261.932, 235.938 264.625, 235.521 266 C 234.113 270.637, 230.956 277, 230.064 277 C 229.035 277, 225.424 269.764, 224.450 265.750 C 224.083 264.238, 223.382 263, 222.892 263 C 222.401 263, 222.071 262.663, 222.159 262.250 C 222.355 261.324, 221.538 259.224, 217.912 251.330 C 216.354 247.937, 214.787 244, 214.431 242.580 C 214.075 241.161, 213.431 240, 213 240 C 212.569 240, 211.914 238.762, 211.543 237.250 C 211.173 235.737, 209.567 231.724, 207.974 228.330 C 206.382 224.937, 204.787 221, 204.431 219.580 C 204.075 218.161, 203.382 217, 202.892 217 C 202.401 217, 202.071 216.662, 202.159 216.250 C 202.343 215.378, 201.597 213.391, 198.497 206.500 C 197.259 203.750, 195.651 199.813, 194.922 197.750 C 194.194 195.688, 193.310 194, 192.957 194 C 192.605 194, 191.499 191.300, 190.500 188 C 189.501 184.700, 188.376 182, 188 182 C 187.624 182, 186.752 180.088, 186.062 177.750 C 185.372 175.412, 184.005 172.150, 183.025 170.500 C 182.045 168.850, 180.670 165.700, 179.970 163.500 C 179.270 161.300, 178.038 158.488, 177.233 157.250 C 175.775 155.008, 175.677 155, 148.587 155 L 121.403 155 84.182 192.047 C 63.710 212.422, 46.519 228.821, 45.980 228.488 C 45.352 228.100, 45 197.084, 45 142.191 L 45 56.500 25 56.500 L 5 56.500 5 206.250 M 341.462 456 C 341.462 482.125, 341.591 492.813, 341.749 479.750 C 341.907 466.688, 341.907 445.313, 341.749 432.250 C 341.591 419.188, 341.462 429.875, 341.462 456" stroke="none" fill="#ffffff" fill-rule="evenodd"/>
</svg>