<svg xmlns="http://www.w3.org/2000/svg" width="1000" height="563" viewBox="0 0 1000 563" version="1.1">
	<path d="M 4 206 L 4 356 24.500 356 L 45 356 45 320.738 L 45 285.476 60.464 270.036 C 68.970 261.543, 76.154 254.821, 76.429 255.096 C 77.247 255.914, 84.049 271.027, 86.512 277.500 C 87.768 280.800, 90.909 288.225, 93.492 294 C 96.075 299.775, 98.839 306.300, 99.634 308.500 C 100.430 310.700, 103.722 318.575, 106.950 326 C 110.179 333.425, 114.323 343.207, 116.160 347.737 L 119.500 355.974 140.500 355.908 C 152.050 355.872, 160.935 355.614, 160.244 355.336 C 159.553 355.057, 159.202 354.481, 159.465 354.056 C 159.728 353.631, 157.749 348.157, 155.067 341.892 C 144.470 317.130, 135.362 295.522, 126.873 275 C 124.712 269.775, 120.521 259.875, 117.561 253 C 109.508 234.299, 104.996 223.252, 105.033 222.327 C 105.052 221.872, 106.964 219.425, 109.283 216.888 C 111.603 214.352, 120.440 204.564, 128.923 195.138 C 137.406 185.712, 144.650 178, 145.021 178 C 145.392 178, 146.387 179.688, 147.231 181.750 C 148.075 183.813, 151.695 192.250, 155.277 200.500 C 158.858 208.750, 163.685 220, 166.004 225.500 C 168.323 231, 171.296 237.623, 172.610 240.217 C 173.925 242.811, 175 245.419, 175 246.013 C 175 246.607, 177.650 253.034, 180.890 260.296 C 187.986 276.204, 199.530 302.876, 200.284 305.106 C 200.582 305.989, 203.510 312.739, 206.791 320.106 C 210.071 327.473, 214.943 338.563, 217.617 344.750 L 222.478 356 229.989 355.982 L 237.500 355.965 243.718 341.232 C 247.138 333.130, 253.135 318.850, 257.046 309.500 C 264.239 292.300, 268.209 282.859, 280.805 253 C 284.633 243.925, 288.078 235.472, 288.461 234.215 C 288.844 232.959, 290.654 228.697, 292.485 224.746 L 295.813 217.561 297.852 222.030 C 298.973 224.489, 302.576 232.800, 305.858 240.500 C 309.140 248.200, 313.953 259.450, 316.552 265.500 C 319.151 271.550, 322.941 280.550, 324.973 285.500 C 327.005 290.450, 330.724 299.225, 333.237 305 C 340.203 321.012, 349.480 342.804, 352.180 349.500 L 354.599 355.500 362.521 355.500 L 370.443 355.500 373.299 348.500 C 376.797 339.924, 387.176 316.043, 395.105 298.327 C 398.347 291.082, 401 284.919, 401 284.631 C 401 284.343, 403.428 278.570, 406.395 271.803 C 409.362 265.037, 414.806 252.525, 418.493 244 C 431.685 213.494, 438.305 198.304, 443.988 185.500 C 447.161 178.350, 450.096 171.375, 450.508 170 C 450.921 168.625, 452.267 165.475, 453.500 163 C 454.733 160.525, 456.055 157.487, 456.438 156.250 L 457.135 154 436.317 154.004 L 415.500 154.007 413.645 158.754 C 411.337 164.660, 401.623 187.224, 393.862 204.704 C 390.638 211.966, 388 218.203, 388 218.564 C 388 219.162, 385.547 224.842, 368.256 264.277 C 365.175 271.304, 362.358 276.704, 361.996 276.277 C 361.161 275.290, 350 249.493, 350 248.548 C 350 248.162, 347.075 241.165, 343.500 233 C 339.925 224.835, 337 217.838, 337 217.452 C 337 217.065, 334.564 211.067, 331.587 204.124 C 324.979 188.711, 313.682 161.685, 311.994 157.250 L 310.757 154 296.129 154.003 L 281.500 154.007 278.613 161.253 C 277.025 165.239, 272.683 175.700, 268.964 184.500 C 265.245 193.300, 259.190 207.700, 255.509 216.500 C 251.828 225.300, 246.442 238.125, 243.540 245 C 240.639 251.875, 236.585 261.550, 234.531 266.500 C 232.477 271.450, 230.418 275.902, 229.955 276.393 C 229.062 277.341, 228.690 276.585, 219.195 254.500 C 215.884 246.800, 210.164 233.525, 206.483 225 C 202.802 216.475, 197.174 203.425, 193.976 196 C 190.779 188.575, 185.360 176.088, 181.936 168.250 L 175.709 154 148.100 154 L 120.490 154 83.500 191 C 63.156 211.350, 46.170 228, 45.755 228 C 45.340 228, 45 189.300, 45 142 L 45 56 24.500 56 L 4 56 4 206 M 944.269 406.693 C 945.242 406.947, 946.592 406.930, 947.269 406.656 C 947.946 406.382, 947.150 406.175, 945.500 406.195 C 943.850 406.215, 943.296 406.439, 944.269 406.693 M 403.750 407.662 C 404.438 407.940, 405.563 407.940, 406.250 407.662 C 406.938 407.385, 406.375 407.158, 405 407.158 C 403.625 407.158, 403.063 407.385, 403.750 407.662 M 533.250 407.689 C 534.212 407.941, 535.788 407.941, 536.750 407.689 C 537.712 407.438, 536.925 407.232, 535 407.232 C 533.075 407.232, 532.288 407.438, 533.250 407.689 M 4.462 456 C 4.462 482.125, 4.591 492.813, 4.749 479.750 C 4.907 466.688, 4.907 445.313, 4.749 432.250 C 4.591 419.188, 4.462 429.875, 4.462 456 M 704.462 456 C 704.462 482.125, 704.591 492.813, 704.749 479.750 C 704.907 466.688, 704.907 445.313, 704.749 432.250 C 704.591 419.188, 704.462 429.875, 704.462 456 M 748.195 470.746 C 754.077 470.922, 763.977 470.923, 770.195 470.747 C 776.413 470.571, 771.600 470.427, 759.500 470.426 C 747.400 470.425, 742.313 470.569, 748.195 470.746 M 141.310 499.500 C 141.315 502.800, 141.502 504.029, 141.725 502.232 C 141.947 500.435, 141.943 497.735, 141.715 496.232 C 141.486 494.729, 141.304 496.200, 141.310 499.500 M 8.264 504.718 C 9.784 504.947, 12.034 504.941, 13.264 504.704 C 14.494 504.467, 13.250 504.279, 10.500 504.286 C 7.750 504.294, 6.744 504.488, 8.264 504.718" stroke="none" fill="#ffffff" fill-rule="evenodd"/>
</svg>