<svg xmlns="http://www.w3.org/2000/svg" width="1000" height="562" viewBox="0 0 1000 562" version="1.1">
	<path d="M 5.415 57.917 C 5.187 58.146, 5 125.308, 5 207.167 L 5 356 24.441 356 C 41.667 356, 47.731 355.267, 43.756 353.664 C 42.758 353.262, 42.757 353.142, 43.750 353.079 C 44.724 353.017, 45 345.561, 45 319.347 L 45 285.694 59.750 270.483 C 68.479 261.481, 75.329 255.216, 76.531 255.136 C 77.942 255.041, 78.973 255.991, 79.911 258.250 C 80.653 260.038, 81.181 262.069, 81.083 262.763 C 80.986 263.458, 81.574 264.283, 82.390 264.596 C 83.206 264.909, 83.646 265.758, 83.369 266.482 C 83.091 267.205, 83.344 268.095, 83.932 268.458 C 84.519 268.821, 85 269.936, 85 270.937 C 85 271.937, 85.648 273.293, 86.441 273.951 C 87.233 274.608, 87.636 275.785, 87.337 276.565 C 87.037 277.345, 87.512 278.259, 88.391 278.596 C 89.269 278.934, 89.727 279.632, 89.408 280.149 C 89.089 280.665, 89.552 282.193, 90.437 283.544 C 91.322 284.895, 91.756 286, 91.401 286 C 91.046 286, 91.366 286.736, 92.112 287.636 C 92.859 288.535, 93.491 289.773, 93.516 290.386 C 93.542 290.998, 94.266 293.075, 95.126 295 C 95.986 296.925, 96.647 298.768, 96.595 299.096 C 96.543 299.424, 97.168 300.498, 97.985 301.482 C 98.802 302.466, 99.504 303.773, 99.546 304.386 C 99.588 304.998, 100.465 307.300, 101.495 309.500 C 102.525 311.700, 103.264 314.069, 103.137 314.763 C 103.010 315.458, 103.600 316.293, 104.447 316.618 C 105.295 316.943, 105.747 317.600, 105.453 318.077 C 105.158 318.553, 105.662 320.081, 106.573 321.472 C 107.485 322.862, 107.898 324, 107.493 324 C 107.087 324, 107.366 324.736, 108.112 325.636 C 108.859 326.535, 109.491 327.773, 109.516 328.386 C 109.542 328.998, 110.316 331.196, 111.238 333.268 C 112.159 335.341, 112.971 337.366, 113.042 337.768 C 113.112 338.171, 113.688 339.123, 114.320 339.886 C 114.952 340.648, 115.491 341.773, 115.516 342.386 C 115.542 342.998, 116.316 345.196, 117.238 347.268 C 118.159 349.341, 118.857 351.141, 118.788 351.268 C 118.719 351.396, 119.204 352.512, 119.866 353.750 C 121.052 355.965, 121.370 356, 140.603 356 L 160.135 356 159.434 353.750 C 157.970 349.052, 157.089 347.173, 156.045 346.528 C 155.452 346.162, 155.188 345.504, 155.459 345.067 C 155.729 344.630, 154.972 342.298, 153.777 339.886 C 152.582 337.474, 151.715 334.931, 151.849 334.237 C 151.984 333.542, 151.400 332.707, 150.553 332.382 C 149.705 332.057, 149.253 331.400, 149.547 330.923 C 149.842 330.447, 149.388 328.995, 148.538 327.698 C 147.688 326.401, 147.230 325.103, 147.521 324.813 C 147.811 324.522, 147.389 323.738, 146.584 323.069 C 145.778 322.401, 145.364 321.215, 145.663 320.435 C 145.963 319.655, 145.488 318.741, 144.609 318.404 C 143.731 318.066, 143.273 317.368, 143.592 316.851 C 143.911 316.335, 143.448 314.807, 142.563 313.456 C 141.678 312.105, 141.244 311, 141.599 311 C 141.954 311, 141.634 310.264, 140.888 309.364 C 140.141 308.465, 139.509 307.227, 139.484 306.614 C 139.458 306.002, 138.595 303.700, 137.565 301.500 C 136.536 299.300, 135.783 296.931, 135.893 296.237 C 136.004 295.542, 135.426 294.717, 134.610 294.404 C 133.794 294.091, 133.354 293.242, 133.631 292.518 C 133.909 291.795, 133.656 290.905, 133.068 290.542 C 132.481 290.179, 132 289.064, 132 288.063 C 132 287.063, 131.330 285.689, 130.511 285.009 C 129.692 284.329, 129.231 283.436, 129.486 283.023 C 129.741 282.610, 129.061 280.433, 127.975 278.184 C 126.889 275.936, 126 273.680, 126 273.171 C 126 272.662, 125.330 271.689, 124.511 271.009 C 123.692 270.329, 123.231 269.436, 123.486 269.023 C 123.741 268.610, 122.972 266.298, 121.777 263.886 C 120.582 261.474, 119.715 258.931, 119.849 258.237 C 119.984 257.542, 119.426 256.717, 118.610 256.404 C 117.794 256.091, 117.354 255.242, 117.631 254.518 C 117.909 253.795, 117.656 252.905, 117.068 252.542 C 116.481 252.179, 116 251.064, 116 250.063 C 116 249.063, 115.352 247.707, 114.559 247.049 C 113.767 246.392, 113.364 245.215, 113.663 244.435 C 113.963 243.655, 113.488 242.741, 112.609 242.404 C 111.731 242.066, 111.273 241.368, 111.592 240.851 C 111.911 240.335, 111.448 238.807, 110.563 237.456 C 109.678 236.105, 109.259 235, 109.632 235 C 110.005 235, 109.564 234.176, 108.653 233.169 C 107.741 232.162, 107.230 231.104, 107.516 230.818 C 107.802 230.532, 107.355 228.993, 106.524 227.399 C 103.779 222.134, 104.491 220.663, 115 209.901 C 120.500 204.269, 125 199.268, 125 198.787 C 125 198.307, 128.814 194.048, 133.476 189.323 C 138.138 184.598, 141.740 180.389, 141.482 179.971 C 140.984 179.164, 143.311 178, 145.421 178 C 146.514 178, 149.224 182.193, 149.429 184.200 C 149.468 184.585, 150.027 185.427, 150.672 186.072 C 151.316 186.716, 151.607 187.860, 151.318 188.613 C 151.029 189.367, 151.512 190.259, 152.391 190.596 C 153.269 190.934, 153.769 191.565, 153.501 191.999 C 152.899 192.972, 155.609 199.640, 156.941 200.464 C 157.475 200.794, 157.661 201.721, 157.353 202.524 C 157.040 203.338, 157.498 204.254, 158.391 204.596 C 159.269 204.934, 159.777 205.551, 159.519 205.969 C 159.261 206.386, 160.028 208.702, 161.223 211.114 C 162.418 213.526, 163.285 216.069, 163.151 216.763 C 163.016 217.458, 163.600 218.293, 164.447 218.618 C 165.295 218.943, 165.777 219.551, 165.519 219.969 C 165.261 220.386, 166.028 222.702, 167.223 225.114 C 168.418 227.526, 169.285 230.069, 169.151 230.763 C 169.016 231.458, 169.600 232.293, 170.447 232.618 C 171.295 232.943, 171.761 233.578, 171.482 234.029 C 171.204 234.480, 172.071 236.908, 173.409 239.424 C 174.747 241.941, 175.597 244, 175.298 244 C 175 244, 175.366 244.736, 176.112 245.636 C 176.859 246.535, 177.491 247.773, 177.516 248.386 C 177.542 248.998, 178.408 251.300, 179.441 253.500 C 180.474 255.700, 181.367 257.725, 181.425 258 C 181.483 258.275, 181.962 259.175, 182.489 260 C 183.016 260.825, 183.473 261.950, 183.505 262.500 C 183.536 263.050, 184.408 265.300, 185.441 267.500 C 186.474 269.700, 187.360 271.815, 187.410 272.200 C 187.459 272.585, 188.027 273.427, 188.672 274.072 C 189.316 274.716, 189.607 275.860, 189.318 276.613 C 189.029 277.367, 189.512 278.259, 190.391 278.596 C 191.269 278.934, 191.747 279.600, 191.453 280.077 C 191.158 280.553, 191.612 282.005, 192.462 283.302 C 193.312 284.599, 193.770 285.897, 193.479 286.187 C 193.189 286.478, 193.611 287.262, 194.416 287.931 C 195.222 288.599, 195.636 289.785, 195.337 290.565 C 195.037 291.345, 195.486 292.249, 196.333 292.574 C 197.180 292.899, 197.646 293.758, 197.369 294.482 C 197.091 295.205, 197.344 296.095, 197.932 296.458 C 198.519 296.821, 199 297.936, 199 298.937 C 199 299.937, 199.648 301.293, 200.441 301.951 C 201.233 302.608, 201.636 303.785, 201.337 304.565 C 201.037 305.345, 201.512 306.259, 202.391 306.596 C 203.269 306.934, 203.777 307.551, 203.519 307.969 C 203.261 308.386, 204.028 310.702, 205.223 313.114 C 206.418 315.526, 207.285 318.069, 207.151 318.763 C 207.016 319.458, 207.600 320.293, 208.447 320.618 C 209.295 320.943, 209.761 321.578, 209.482 322.029 C 209.204 322.480, 210.071 324.908, 211.409 327.424 C 212.747 329.941, 213.597 332, 213.298 332 C 213 332, 213.366 332.736, 214.112 333.636 C 214.859 334.535, 215.491 335.773, 215.516 336.386 C 215.542 336.998, 216.408 339.300, 217.441 341.500 C 218.474 343.700, 219.360 345.815, 219.410 346.200 C 219.459 346.585, 220.027 347.427, 220.672 348.072 C 221.316 348.716, 221.607 349.860, 221.318 350.613 C 221.029 351.367, 221.486 352.249, 222.333 352.574 C 223.180 352.899, 223.629 353.803, 223.330 354.583 C 222.890 355.730, 224.254 356, 230.500 356 C 236.746 356, 238.110 355.730, 237.670 354.583 C 237.371 353.803, 237.794 352.909, 238.610 352.596 C 239.426 352.283, 240.004 351.458, 239.893 350.763 C 239.783 350.069, 240.536 347.700, 241.565 345.500 C 242.595 343.300, 243.458 340.998, 243.484 340.386 C 243.509 339.773, 244.141 338.535, 244.888 337.636 C 245.634 336.736, 245.954 336, 245.599 336 C 245.244 336, 245.678 334.895, 246.563 333.544 C 247.448 332.193, 247.911 330.665, 247.592 330.149 C 247.273 329.632, 247.731 328.934, 248.609 328.596 C 249.488 328.259, 249.963 327.345, 249.663 326.565 C 249.364 325.785, 249.767 324.608, 250.559 323.951 C 251.352 323.293, 252 321.937, 252 320.937 C 252 319.936, 252.481 318.821, 253.068 318.458 C 253.656 318.095, 253.916 317.223, 253.646 316.521 C 253.377 315.818, 253.684 314.716, 254.328 314.072 C 254.973 313.427, 255.521 312.585, 255.547 312.200 C 255.573 311.815, 256.575 309.526, 257.772 307.114 C 258.970 304.702, 259.741 302.390, 259.486 301.977 C 259.231 301.564, 259.692 300.671, 260.511 299.991 C 261.330 299.311, 262 297.937, 262 296.937 C 262 295.936, 262.481 294.821, 263.068 294.458 C 263.656 294.095, 263.909 293.205, 263.631 292.482 C 263.354 291.758, 263.794 290.909, 264.610 290.596 C 265.426 290.283, 266.004 289.458, 265.893 288.763 C 265.783 288.069, 266.536 285.700, 267.565 283.500 C 268.595 281.300, 269.458 278.998, 269.484 278.386 C 269.509 277.773, 270.141 276.535, 270.888 275.636 C 271.634 274.736, 271.954 274, 271.599 274 C 271.244 274, 271.678 272.895, 272.563 271.544 C 273.448 270.193, 273.911 268.665, 273.592 268.149 C 273.273 267.632, 273.684 266.952, 274.506 266.636 C 275.328 266.321, 276 265.244, 276 264.243 C 276 263.242, 276.893 260.671, 277.985 258.530 C 279.077 256.388, 279.751 254.417, 279.483 254.149 C 279.215 253.881, 279.640 252.951, 280.427 252.081 C 281.214 251.212, 281.909 250.171, 281.972 249.768 C 282.035 249.366, 282.841 247.341, 283.762 245.268 C 284.684 243.196, 285.458 240.998, 285.484 240.386 C 285.509 239.773, 286.141 238.535, 286.888 237.636 C 287.634 236.736, 287.913 236, 287.507 236 C 287.102 236, 287.515 234.862, 288.427 233.472 C 289.338 232.081, 289.842 230.553, 289.547 230.077 C 289.253 229.600, 289.705 228.943, 290.553 228.618 C 291.400 228.293, 291.990 227.458, 291.863 226.763 C 291.590 225.271, 294.620 218, 295.515 218 C 297.767 218, 300.032 220.323, 299.479 222.066 C 299.084 223.312, 299.403 224.217, 300.368 224.588 C 301.196 224.905, 301.646 225.758, 301.369 226.482 C 301.091 227.205, 301.344 228.095, 301.932 228.458 C 302.519 228.821, 303 229.936, 303 230.937 C 303 231.937, 303.648 233.293, 304.441 233.951 C 305.233 234.608, 305.636 235.785, 305.337 236.565 C 305.037 237.345, 305.486 238.249, 306.333 238.574 C 307.180 238.899, 307.646 239.758, 307.369 240.482 C 307.091 241.205, 307.344 242.095, 307.932 242.458 C 308.519 242.821, 309 243.936, 309 244.937 C 309 245.937, 309.648 247.293, 310.441 247.951 C 311.233 248.608, 311.636 249.785, 311.337 250.565 C 311.037 251.345, 311.512 252.259, 312.391 252.596 C 313.269 252.934, 313.773 253.558, 313.510 253.985 C 313.246 254.411, 314.075 256.726, 315.351 259.130 C 316.628 261.533, 317.483 264.062, 317.253 264.749 C 317.022 265.437, 317.544 266.271, 318.411 266.604 C 319.279 266.937, 319.727 267.632, 319.408 268.149 C 319.089 268.665, 319.552 270.193, 320.437 271.544 C 321.322 272.895, 321.756 274, 321.401 274 C 321.046 274, 321.366 274.736, 322.112 275.636 C 322.859 276.535, 323.491 277.773, 323.516 278.386 C 323.542 278.998, 324.316 281.196, 325.238 283.268 C 326.159 285.341, 326.971 287.366, 327.042 287.768 C 327.112 288.171, 327.688 289.123, 328.320 289.886 C 328.952 290.648, 329.491 291.773, 329.516 292.386 C 329.542 292.998, 330.316 295.196, 331.238 297.268 C 332.159 299.341, 332.971 301.366, 333.042 301.768 C 333.112 302.171, 333.688 303.123, 334.320 303.886 C 334.952 304.648, 335.491 305.773, 335.516 306.386 C 335.542 306.998, 336.405 309.300, 337.435 311.500 C 338.464 313.700, 339.217 316.069, 339.107 316.763 C 338.996 317.458, 339.600 318.293, 340.447 318.618 C 341.295 318.943, 341.777 319.551, 341.519 319.969 C 341.261 320.386, 342.028 322.702, 343.223 325.114 C 344.418 327.526, 345.285 330.069, 345.151 330.763 C 345.016 331.458, 345.574 332.283, 346.390 332.596 C 347.206 332.909, 347.646 333.758, 347.369 334.482 C 347.091 335.205, 347.344 336.095, 347.932 336.458 C 348.519 336.821, 349 337.936, 349 338.937 C 349 339.937, 349.648 341.293, 350.441 341.951 C 351.233 342.608, 351.636 343.785, 351.337 344.565 C 351.037 345.345, 351.512 346.259, 352.391 346.596 C 353.269 346.934, 353.722 347.641, 353.396 348.168 C 353.071 348.695, 353.542 349.941, 354.444 350.938 C 355.346 351.934, 355.952 353.369, 355.792 354.125 C 355.569 355.174, 357.250 355.570, 362.875 355.796 C 369.292 356.054, 370.170 355.885, 369.636 354.494 C 369.299 353.615, 369.424 353.144, 369.914 353.447 C 370.719 353.945, 373.241 348.955, 373.425 346.500 C 373.466 345.950, 373.950 345.177, 374.500 344.783 C 375.050 344.389, 375.526 343.489, 375.558 342.783 C 375.590 342.077, 376.591 339.526, 377.783 337.114 C 378.975 334.702, 379.739 332.386, 379.481 331.969 C 379.223 331.551, 379.731 330.934, 380.609 330.596 C 381.488 330.259, 381.963 329.345, 381.663 328.565 C 381.364 327.785, 381.778 326.599, 382.584 325.931 C 383.389 325.262, 383.811 324.478, 383.521 324.187 C 383.230 323.897, 383.688 322.599, 384.538 321.302 C 385.388 320.005, 385.842 318.553, 385.547 318.077 C 385.253 317.600, 385.721 316.937, 386.589 316.604 C 387.456 316.271, 387.986 315.457, 387.765 314.794 C 387.544 314.131, 388.871 310.695, 390.714 307.160 C 392.557 303.624, 393.824 300.491, 393.530 300.197 C 393.236 299.903, 393.741 298.838, 394.653 297.831 C 395.564 296.824, 396.051 296, 395.734 296 C 395.417 296, 396.253 293.941, 397.591 291.424 C 398.929 288.908, 399.796 286.480, 399.518 286.029 C 399.239 285.578, 399.705 284.943, 400.553 284.618 C 401.400 284.293, 401.984 283.458, 401.849 282.763 C 401.715 282.069, 402.582 279.526, 403.777 277.114 C 404.972 274.702, 405.739 272.386, 405.481 271.969 C 405.223 271.551, 405.731 270.934, 406.609 270.596 C 407.502 270.254, 407.960 269.338, 407.647 268.524 C 407.339 267.721, 407.525 266.794, 408.059 266.464 C 409.391 265.640, 412.101 258.972, 411.499 257.999 C 411.231 257.565, 411.731 256.934, 412.609 256.596 C 413.488 256.259, 413.963 255.345, 413.663 254.565 C 413.364 253.785, 413.767 252.608, 414.559 251.951 C 415.352 251.293, 416 250.415, 416 250 C 416 249.584, 416.773 247.502, 417.719 245.372 C 418.664 243.242, 419.458 240.998, 419.484 240.386 C 419.509 239.773, 420.141 238.535, 420.888 237.636 C 421.634 236.736, 422 236, 421.702 236 C 421.403 236, 422.253 233.941, 423.591 231.424 C 424.929 228.908, 425.796 226.480, 425.518 226.029 C 425.239 225.578, 425.705 224.943, 426.553 224.618 C 427.400 224.293, 427.984 223.458, 427.849 222.763 C 427.715 222.069, 428.582 219.526, 429.777 217.114 C 430.972 214.702, 431.739 212.386, 431.481 211.969 C 431.223 211.551, 431.731 210.934, 432.609 210.596 C 433.488 210.259, 433.963 209.345, 433.663 208.565 C 433.364 207.785, 433.778 206.599, 434.584 205.931 C 435.389 205.262, 435.830 204.497, 435.563 204.230 C 435.296 203.963, 436.207 201.723, 437.586 199.253 C 438.965 196.782, 439.847 194.514, 439.545 194.211 C 439.243 193.909, 439.640 192.951, 440.427 192.081 C 441.214 191.212, 441.909 190.171, 441.972 189.768 C 442.035 189.366, 442.841 187.341, 443.762 185.268 C 444.684 183.196, 445.458 180.998, 445.484 180.386 C 445.509 179.773, 446.141 178.535, 446.888 177.636 C 447.634 176.736, 448 176, 447.702 176 C 447.403 176, 448.253 173.941, 449.591 171.424 C 450.929 168.908, 451.796 166.480, 451.518 166.029 C 451.239 165.578, 451.731 164.934, 452.609 164.596 C 453.488 164.259, 453.963 163.345, 453.663 162.565 C 453.364 161.785, 453.767 160.608, 454.559 159.951 C 456.456 158.376, 456.391 156.364, 454.418 155.607 C 451.759 154.587, 420.307 154.933, 417.463 156.014 C 415.792 156.649, 414.998 157.552, 415.335 158.431 C 415.631 159.203, 415.206 160.091, 414.390 160.404 C 413.574 160.717, 413.016 161.542, 413.151 162.237 C 413.285 162.931, 412.418 165.474, 411.223 167.886 C 410.028 170.298, 409.261 172.614, 409.519 173.031 C 409.777 173.449, 409.295 174.057, 408.447 174.382 C 407.600 174.707, 407.016 175.542, 407.151 176.237 C 407.285 176.931, 406.418 179.474, 405.223 181.886 C 404.028 184.298, 403.261 186.614, 403.519 187.031 C 403.777 187.449, 403.269 188.066, 402.391 188.404 C 401.512 188.741, 401.037 189.655, 401.337 190.435 C 401.636 191.215, 401.222 192.401, 400.416 193.069 C 399.611 193.738, 399.189 194.522, 399.479 194.813 C 399.770 195.103, 399.312 196.401, 398.462 197.698 C 397.612 198.995, 397.158 200.447, 397.453 200.923 C 397.747 201.400, 397.269 202.066, 396.391 202.404 C 395.512 202.741, 395.037 203.655, 395.337 204.435 C 395.636 205.215, 395.222 206.401, 394.416 207.069 C 393.611 207.738, 393.189 208.522, 393.479 208.813 C 393.770 209.103, 393.312 210.401, 392.462 211.698 C 391.612 212.995, 391.158 214.447, 391.453 214.923 C 391.747 215.400, 391.269 216.066, 390.391 216.404 C 389.498 216.746, 389.040 217.662, 389.353 218.476 C 389.661 219.279, 389.475 220.206, 388.941 220.536 C 387.609 221.360, 384.899 228.028, 385.501 229.001 C 385.769 229.435, 385.279 230.063, 384.411 230.396 C 383.544 230.729, 383.023 231.563, 383.254 232.251 C 383.484 232.938, 382.602 235.423, 381.292 237.773 C 379.982 240.123, 379.153 242.438, 379.449 242.918 C 379.746 243.398, 379.279 244.063, 378.411 244.396 C 377.544 244.729, 377.023 245.563, 377.254 246.251 C 377.484 246.938, 376.602 249.423, 375.292 251.773 C 373.982 254.123, 373.153 256.438, 373.449 256.918 C 373.746 257.398, 373.269 258.066, 372.391 258.404 C 371.512 258.741, 371.037 259.655, 371.337 260.435 C 371.636 261.215, 371.247 262.380, 370.473 263.023 C 369.698 263.666, 369.145 264.486, 369.244 264.846 C 369.344 265.206, 368.858 266.522, 368.166 267.771 C 367.474 269.020, 367.151 270.435, 367.448 270.916 C 367.745 271.397, 367.316 272.048, 366.494 272.364 C 365.672 272.679, 365 273.851, 365 274.969 C 365 277.244, 363.829 277.514, 360.857 275.923 C 359.750 275.331, 359.079 274.237, 359.365 273.492 C 359.651 272.747, 358.922 270.194, 357.745 267.818 C 356.568 265.443, 355.715 262.931, 355.849 262.237 C 355.984 261.542, 355.400 260.707, 354.553 260.382 C 353.705 260.057, 353.227 259.442, 353.490 259.015 C 353.754 258.589, 352.886 256.202, 351.561 253.711 C 350.236 251.219, 349.340 248.993, 349.569 248.764 C 349.799 248.535, 349 246.357, 347.796 243.924 C 346.591 241.491, 345.715 238.931, 345.849 238.237 C 345.984 237.542, 345.426 236.717, 344.610 236.404 C 343.794 236.091, 343.354 235.242, 343.631 234.518 C 343.909 233.795, 343.656 232.905, 343.068 232.542 C 342.481 232.179, 342 231.064, 342 230.063 C 342 229.063, 341.352 227.707, 340.559 227.049 C 339.767 226.392, 339.364 225.215, 339.663 224.435 C 339.963 223.655, 339.488 222.741, 338.609 222.404 C 337.731 222.066, 337.255 221.397, 337.552 220.916 C 337.849 220.435, 337.527 219.020, 336.836 217.771 C 336.146 216.522, 335.696 214.931, 335.837 214.237 C 335.978 213.542, 335.426 212.717, 334.610 212.404 C 333.794 212.091, 333.354 211.242, 333.631 210.518 C 333.909 209.795, 333.656 208.905, 333.068 208.542 C 332.481 208.179, 332 207.064, 332 206.063 C 332 205.063, 331.330 203.689, 330.511 203.009 C 329.692 202.329, 329.231 201.436, 329.486 201.023 C 329.741 200.610, 328.972 198.298, 327.777 195.886 C 326.582 193.474, 325.715 190.931, 325.849 190.237 C 325.984 189.542, 325.426 188.717, 324.610 188.404 C 323.794 188.091, 323.354 187.242, 323.631 186.518 C 323.909 185.795, 323.656 184.905, 323.068 184.542 C 322.481 184.179, 322 183.064, 322 182.063 C 322 181.063, 321.330 179.689, 320.511 179.009 C 319.692 178.329, 319.248 177.408, 319.523 176.962 C 319.799 176.517, 318.929 174.092, 317.591 171.576 C 316.253 169.059, 315.403 167, 315.702 167 C 316 167, 315.634 166.264, 314.888 165.364 C 314.141 164.465, 313.498 163.227, 313.458 162.614 C 313.418 162.002, 313.074 160.713, 312.693 159.750 C 312.312 158.788, 311.816 157.396, 311.592 156.658 C 311.284 155.646, 308.146 155.263, 298.812 155.099 C 285.916 154.873, 280.376 155.933, 281.339 158.441 C 281.637 159.218, 281.247 160.380, 280.473 161.023 C 279.698 161.666, 279.139 162.486, 279.232 162.846 C 279.324 163.206, 278.413 165.491, 277.207 167.924 C 276.001 170.357, 275.203 172.536, 275.434 172.768 C 275.666 172.999, 274.743 175.181, 273.383 177.617 C 272.023 180.053, 271.153 182.438, 271.449 182.918 C 271.746 183.398, 271.295 184.057, 270.447 184.382 C 269.600 184.707, 268.996 185.542, 269.107 186.237 C 269.217 186.931, 268.464 189.300, 267.435 191.500 C 266.405 193.700, 265.542 196.002, 265.516 196.614 C 265.491 197.227, 264.859 198.465, 264.112 199.364 C 263.366 200.264, 263.046 201, 263.401 201 C 263.756 201, 263.322 202.105, 262.437 203.456 C 261.552 204.807, 261.089 206.335, 261.408 206.851 C 261.727 207.368, 261.269 208.066, 260.391 208.404 C 259.498 208.746, 259.040 209.662, 259.353 210.476 C 259.661 211.279, 259.475 212.206, 258.941 212.536 C 257.609 213.360, 254.899 220.028, 255.501 221.001 C 255.769 221.435, 255.295 222.057, 254.447 222.382 C 253.600 222.707, 252.996 223.542, 253.107 224.237 C 253.217 224.931, 252.464 227.300, 251.435 229.500 C 250.405 231.700, 249.542 234.002, 249.516 234.614 C 249.491 235.227, 248.859 236.465, 248.112 237.364 C 247.366 238.264, 247 239, 247.298 239 C 247.597 239, 246.734 241.082, 245.381 243.627 C 244.028 246.172, 243.129 248.463, 243.384 248.718 C 243.639 248.972, 242.764 251.219, 241.439 253.711 C 240.114 256.202, 239.246 258.589, 239.510 259.015 C 239.773 259.442, 239.295 260.057, 238.447 260.382 C 237.600 260.707, 237.016 261.542, 237.151 262.237 C 237.285 262.931, 236.418 265.474, 235.223 267.886 C 234.028 270.298, 233.268 272.625, 233.534 273.055 C 234.193 274.122, 231.197 277, 229.429 277 C 228.643 277, 228 276.086, 228 274.969 C 228 273.851, 227.328 272.679, 226.506 272.364 C 225.684 272.048, 225.223 271.449, 225.481 271.031 C 225.739 270.614, 224.972 268.298, 223.777 265.886 C 222.582 263.474, 221.715 260.931, 221.849 260.237 C 221.984 259.542, 221.400 258.707, 220.553 258.382 C 219.705 258.057, 219.223 257.449, 219.481 257.031 C 219.739 256.614, 218.972 254.298, 217.777 251.886 C 216.582 249.474, 215.715 246.931, 215.849 246.237 C 215.984 245.542, 215.400 244.707, 214.553 244.382 C 213.705 244.057, 213.223 243.449, 213.481 243.031 C 213.739 242.614, 212.970 240.298, 211.772 237.886 C 210.575 235.474, 209.573 233.185, 209.547 232.800 C 209.521 232.415, 208.973 231.573, 208.328 230.928 C 207.684 230.284, 207.393 229.140, 207.682 228.387 C 207.971 227.633, 207.488 226.741, 206.609 226.404 C 205.731 226.066, 205.273 225.368, 205.592 224.851 C 205.911 224.335, 205.448 222.807, 204.563 221.456 C 203.678 220.105, 203.244 219, 203.599 219 C 203.954 219, 203.634 218.264, 202.888 217.364 C 202.141 216.465, 201.509 215.227, 201.484 214.614 C 201.458 214.002, 200.664 211.758, 199.719 209.628 C 198.773 207.498, 198 205.416, 198 205 C 198 204.585, 197.352 203.707, 196.559 203.049 C 195.767 202.392, 195.364 201.215, 195.663 200.435 C 195.963 199.655, 195.488 198.741, 194.609 198.404 C 193.731 198.066, 193.253 197.400, 193.547 196.923 C 193.842 196.447, 193.388 194.995, 192.538 193.698 C 191.688 192.401, 191.230 191.103, 191.521 190.813 C 191.811 190.522, 191.389 189.738, 190.584 189.069 C 189.778 188.401, 189.364 187.215, 189.663 186.435 C 189.963 185.655, 189.488 184.741, 188.609 184.404 C 187.731 184.066, 187.223 183.449, 187.481 183.031 C 187.739 182.614, 186.972 180.298, 185.777 177.886 C 184.582 175.474, 183.715 172.931, 183.849 172.237 C 183.984 171.542, 183.400 170.707, 182.553 170.382 C 181.705 170.057, 181.223 169.449, 181.481 169.031 C 181.739 168.614, 180.970 166.298, 179.772 163.886 C 178.575 161.474, 177.573 159.126, 177.547 158.669 C 177.521 158.213, 176.626 157.200, 175.559 156.419 C 174.001 155.280, 168.519 155, 147.800 155 L 121.981 155 93.741 182.969 C 60.522 215.869, 64.624 211.768, 55.937 220.769 C 43.791 233.354, 44.970 241.709, 45.003 143.291 L 45.032 58.082 25.431 57.791 C 14.650 57.631, 5.643 57.688, 5.415 57.917" stroke="none" fill="#ffffff" fill-rule="evenodd"/>
</svg>