<svg xmlns="http://www.w3.org/2000/svg" width="1000" height="563" viewBox="0 0 1000 563" version="1.1">
	<path d="M 4 206 L 4 356 24.500 356 L 45 356 45 320.651 L 45 285.301 60.696 270.159 C 69.329 261.831, 76.676 255.476, 77.022 256.036 C 77.369 256.597, 87.068 279.318, 98.576 306.527 L 119.500 355.999 140.225 356 L 160.950 356 160.075 353.750 C 159.594 352.512, 147.005 322.552, 132.100 287.172 C 117.195 251.791, 105 222.627, 105 222.363 C 105 221.656, 144.376 177.995, 144.984 178.029 C 145.268 178.044, 157.849 206.732, 172.941 241.779 C 188.034 276.825, 205.303 316.863, 211.316 330.750 L 222.249 356 229.993 356 L 237.738 356 265.920 288.726 C 281.421 251.725, 294.564 220.787, 295.128 219.976 C 295.709 219.139, 296.353 218.933, 296.616 219.500 C 296.871 220.050, 310.021 250.875, 325.840 288 L 354.600 355.500 362.484 355.500 L 370.368 355.500 414.050 254.750 L 457.731 154 436.616 154.015 L 415.500 154.031 389.100 215.565 C 374.580 249.409, 362.388 276.740, 362.007 276.300 C 361.625 275.860, 349.930 248.163, 336.017 214.750 L 310.721 154 296.110 154.010 L 281.500 154.021 256.075 214.760 C 242.092 248.167, 230.294 275.913, 229.858 276.417 C 229.410 276.935, 228.753 276.500, 228.348 275.417 C 227.954 274.363, 216.066 246.725, 201.932 214 L 176.232 154.500 148.366 154.238 L 120.500 153.976 83.505 190.988 C 63.158 211.345, 46.170 228, 45.755 228 C 45.340 228, 45 189.300, 45 142 L 45 56 24.500 56 L 4 56 4 206 M 943.762 406.707 C 945.006 406.946, 946.806 406.937, 947.762 406.687 C 948.718 406.437, 947.700 406.241, 945.500 406.252 C 943.300 406.263, 942.518 406.468, 943.762 406.707 M 8.264 407.718 C 9.784 407.947, 12.034 407.941, 13.264 407.704 C 14.494 407.467, 13.250 407.279, 10.500 407.286 C 7.750 407.294, 6.744 407.488, 8.264 407.718 M 68.331 407.726 C 73.643 408.066, 74.045 408.251, 72.848 409.800 C 71.858 411.082, 72.084 411.031, 73.767 409.595 C 74.995 408.547, 76 407.603, 76 407.497 C 76 407.390, 72.963 407.314, 69.250 407.328 L 62.500 407.353 68.331 407.726 M 100.191 407.747 C 107.171 407.918, 118.871 407.919, 126.191 407.748 C 133.511 407.577, 127.800 407.436, 113.500 407.436 C 99.200 407.435, 93.211 407.575, 100.191 407.747 M 157.264 407.718 C 158.784 407.947, 161.034 407.941, 162.264 407.704 C 163.494 407.467, 162.250 407.279, 159.500 407.286 C 156.750 407.294, 155.744 407.488, 157.264 407.718 M 217.264 407.718 C 218.784 407.947, 221.034 407.941, 222.264 407.704 C 223.494 407.467, 222.250 407.279, 219.500 407.286 C 216.750 407.294, 215.744 407.488, 217.264 407.718 M 287.191 407.747 C 294.171 407.918, 305.871 407.919, 313.191 407.748 C 320.511 407.577, 314.800 407.436, 300.500 407.436 C 286.200 407.435, 280.211 407.575, 287.191 407.747 M 347.789 407.741 C 351.248 407.937, 356.648 407.936, 359.789 407.738 C 362.930 407.540, 360.100 407.380, 353.500 407.382 C 346.900 407.384, 344.330 407.546, 347.789 407.741 M 404.813 407.683 C 405.534 407.972, 406.397 407.936, 406.729 407.604 C 407.061 407.272, 406.471 407.036, 405.417 407.079 C 404.252 407.127, 404.015 407.364, 404.813 407.683 M 534.813 407.683 C 535.534 407.972, 536.397 407.936, 536.729 407.604 C 537.061 407.272, 536.471 407.036, 535.417 407.079 C 534.252 407.127, 534.015 407.364, 534.813 407.683 M 818 407.732 C 819.375 407.985, 821.175 408.711, 822 409.346 C 823.305 410.350, 823.322 410.273, 822.128 408.750 C 821.371 407.785, 819.576 407.061, 818.128 407.136 L 815.500 407.272 818 407.732 M 898.269 407.693 C 899.242 407.947, 900.592 407.930, 901.269 407.656 C 901.946 407.382, 901.150 407.175, 899.500 407.195 C 897.850 407.215, 897.296 407.439, 898.269 407.693 M 4.462 456 C 4.462 482.125, 4.591 492.813, 4.749 479.750 C 4.907 466.688, 4.907 445.313, 4.749 432.250 C 4.591 419.188, 4.462 429.875, 4.462 456 M 140.272 413 C 140.272 415.475, 140.467 416.488, 140.706 415.250 C 140.944 414.012, 140.944 411.988, 140.706 410.750 C 140.467 409.512, 140.272 410.525, 140.272 413 M 579.461 454 C 579.461 479.025, 579.590 489.263, 579.749 476.750 C 579.908 464.238, 579.908 443.763, 579.749 431.250 C 579.590 418.738, 579.461 428.975, 579.461 454 M 642.461 454 C 642.461 479.025, 642.590 489.263, 642.749 476.750 C 642.908 464.238, 642.908 443.763, 642.749 431.250 C 642.590 418.738, 642.461 428.975, 642.461 454 M 814.462 456 C 814.462 482.125, 814.591 492.813, 814.749 479.750 C 814.907 466.688, 814.907 445.313, 814.749 432.250 C 814.591 419.188, 814.462 429.875, 814.462 456 M 903.462 456 C 903.462 482.125, 903.591 492.813, 903.749 479.750 C 903.907 466.688, 903.907 445.313, 903.749 432.250 C 903.591 419.188, 903.462 429.875, 903.462 456 M 945.269 411.693 C 946.242 411.947, 947.592 411.930, 948.269 411.656 C 948.946 411.382, 948.150 411.175, 946.500 411.195 C 944.850 411.215, 944.296 411.439, 945.269 411.693 M 965 412.378 C 965 412.585, 965.788 413.373, 966.750 414.128 C 968.336 415.371, 968.371 415.336, 967.128 413.750 C 965.821 412.084, 965 411.555, 965 412.378 M 51.924 415.750 L 49.500 418.500 52.250 416.076 C 54.820 413.810, 55.459 413, 54.674 413 C 54.495 413, 53.258 414.238, 51.924 415.750 M 63.924 419.750 L 61.500 422.500 64.250 420.076 C 66.820 417.810, 67.459 417, 66.674 417 C 66.495 417, 65.258 418.238, 63.924 419.750 M 109.803 418.746 C 115.470 418.925, 124.470 418.924, 129.803 418.745 C 135.136 418.565, 130.500 418.419, 119.500 418.420 C 108.500 418.421, 104.136 418.568, 109.803 418.746 M 298.304 418.747 C 304.247 418.924, 313.697 418.923, 319.304 418.745 C 324.912 418.567, 320.050 418.422, 308.500 418.423 C 296.950 418.424, 292.362 418.570, 298.304 418.747 M 830 419.378 C 830 419.585, 830.788 420.373, 831.750 421.128 C 833.336 422.371, 833.371 422.336, 832.128 420.750 C 830.821 419.084, 830 418.555, 830 419.378 M 40.924 427.750 L 38.500 430.500 41.250 428.076 C 43.820 425.810, 44.459 425, 43.674 425 C 43.495 425, 42.258 426.238, 40.924 427.750 M 880.872 426.750 C 879.629 428.336, 879.664 428.371, 881.250 427.128 C 882.916 425.821, 883.445 425, 882.622 425 C 882.415 425, 881.627 425.788, 880.872 426.750 M 52.924 431.750 L 50.500 434.500 53.250 432.076 C 54.763 430.742, 56 429.505, 56 429.326 C 56 428.541, 55.190 429.180, 52.924 431.750 M 839 430.378 C 839 430.585, 839.788 431.373, 840.750 432.128 C 842.336 433.371, 842.371 433.336, 841.128 431.750 C 839.821 430.084, 839 429.555, 839 430.378 M 396.286 435.500 C 396.294 438.250, 396.488 439.256, 396.718 437.736 C 396.947 436.216, 396.941 433.966, 396.704 432.736 C 396.467 431.506, 396.279 432.750, 396.286 435.500 M 29.437 440.250 L 26.500 443.500 29.750 440.563 C 31.538 438.948, 33 437.485, 33 437.313 C 33 436.540, 32.175 437.221, 29.437 440.250 M 109.302 450.746 C 114.693 450.926, 123.243 450.925, 128.302 450.744 C 133.361 450.563, 128.950 450.416, 118.500 450.417 C 108.050 450.418, 103.911 450.566, 109.302 450.746 M 296.750 450.746 C 302.387 450.924, 311.613 450.924, 317.250 450.746 C 322.887 450.568, 318.275 450.422, 307 450.422 C 295.725 450.422, 291.113 450.568, 296.750 450.746 M 358.750 460.732 C 361.087 460.943, 364.913 460.943, 367.250 460.732 C 369.587 460.522, 367.675 460.349, 363 460.349 C 358.325 460.349, 356.413 460.522, 358.750 460.732 M 21.924 465.750 L 19.500 468.500 22.250 466.076 C 24.820 463.810, 25.459 463, 24.674 463 C 24.495 463, 23.258 464.238, 21.924 465.750 M 748.195 470.746 C 754.077 470.922, 763.977 470.923, 770.195 470.747 C 776.413 470.571, 771.600 470.427, 759.500 470.426 C 747.400 470.425, 742.313 470.569, 748.195 470.746 M 971.272 480 C 971.272 482.475, 971.467 483.488, 971.706 482.250 C 971.944 481.012, 971.944 478.988, 971.706 477.750 C 971.467 476.512, 971.272 477.525, 971.272 480 M 958.872 494.750 C 957.629 496.336, 957.664 496.371, 959.250 495.128 C 960.212 494.373, 961 493.585, 961 493.378 C 961 492.555, 960.179 493.084, 958.872 494.750 M 329.310 499.500 C 329.315 502.800, 329.502 504.029, 329.725 502.232 C 329.947 500.435, 329.943 497.735, 329.715 496.232 C 329.486 494.729, 329.304 496.200, 329.310 499.500 M 262.286 500.500 C 262.294 503.250, 262.488 504.256, 262.718 502.736 C 262.947 501.216, 262.941 498.966, 262.704 497.736 C 262.467 496.506, 262.279 497.750, 262.286 500.500 M 987.459 497.067 C 987.096 497.653, 987.014 498.348, 987.276 498.610 C 987.538 498.872, 988.019 498.392, 988.345 497.543 C 989.021 495.781, 988.445 495.471, 987.459 497.067 M 590.250 500.746 C 595.612 500.925, 604.388 500.925, 609.750 500.746 C 615.112 500.566, 610.725 500.419, 600 500.419 C 589.275 500.419, 584.888 500.566, 590.250 500.746 M 653.250 500.746 C 658.612 500.925, 667.388 500.925, 672.750 500.746 C 678.112 500.566, 673.725 500.419, 663 500.419 C 652.275 500.419, 647.888 500.566, 653.250 500.746" stroke="none" fill="#ffffff" fill-rule="evenodd"/>
</svg>