<svg xmlns="http://www.w3.org/2000/svg" width="1000" height="563" viewBox="0 0 1000 563" version="1.1">
	<path d="M 209.715 14.461 C 205.111 15.409, 203.059 16.507, 199.665 19.838 C 195.791 23.641, 194.639 24.157, 187.058 25.490 C 178.971 26.912, 175.677 28.304, 171.500 32.066 C 170.400 33.057, 165.900 35.302, 161.500 37.056 C 157.100 38.809, 151.285 41.361, 148.577 42.727 C 144.841 44.610, 141.104 45.422, 133.077 46.094 C 127.260 46.581, 118.450 47.470, 113.500 48.069 C 107.986 48.736, 90.167 49.030, 67.500 48.829 L 30.500 48.500 27.252 50.816 C 22.984 53.861, 22.385 56.809, 24.366 65.016 C 25.268 68.751, 26.454 78.938, 27.002 87.654 C 28.914 118.039, 30.185 129.415, 32.599 137.744 C 37.503 154.669, 38.567 162.178, 39.998 190 C 40.995 209.388, 43.532 227.039, 46.898 238 C 49.436 246.266, 52 265.875, 52 277.019 C 52 288.167, 55.209 313.518, 58.390 327.500 C 61.328 340.419, 62.550 349.859, 64.019 371 C 65.393 390.792, 67.420 406.436, 70.532 421.266 C 72.335 429.860, 73 436.146, 73 444.582 C 73 450.934, 73.433 456.940, 73.962 457.929 C 75.342 460.508, 80.466 462.357, 84.177 461.615 C 85.918 461.266, 89.766 459.152, 92.727 456.917 C 100.201 451.274, 103.794 449.999, 112.218 450.004 C 120.555 450.008, 125.314 452.159, 127.148 456.750 C 129.427 462.452, 124.909 486.536, 119.063 499.856 C 117.059 504.421, 115.327 511.127, 113.955 519.632 C 112.813 526.709, 111.205 534.843, 110.381 537.707 C 108.549 544.074, 109.517 546.472, 114.830 548.727 C 119.069 550.526, 132.940 550.766, 140 549.163 C 142.904 548.503, 182.517 548.119, 251.685 548.079 C 330.759 548.033, 359.537 547.713, 361.415 546.857 C 364.829 545.301, 365.386 543.002, 364.121 535.670 C 363.536 532.277, 362.399 524.550, 361.594 518.500 L 360.132 507.500 363.607 500.439 C 369.253 488.966, 366.760 486.885, 347.815 487.258 C 339.416 487.423, 334.514 487.084, 332.401 486.191 C 328.668 484.615, 325.729 479.667, 323.581 471.341 C 322.708 467.954, 320.874 462.779, 319.506 459.841 C 316.734 453.886, 316.330 449.299, 318.335 446.556 C 319.614 444.808, 319.891 444.803, 324.834 446.445 C 330.962 448.480, 334.822 447.883, 338.102 444.391 C 339.397 443.013, 342.836 440.524, 345.745 438.860 C 353.109 434.646, 354.322 431.897, 353.825 420.540 C 353.305 408.659, 351.524 405.371, 344.064 402.525 C 341.021 401.363, 337.799 399.272, 336.620 397.693 C 334.702 395.124, 334.658 394.699, 336.052 392.204 C 336.883 390.717, 339.779 388.297, 342.487 386.827 C 345.196 385.357, 348.304 382.882, 349.394 381.327 C 350.484 379.772, 353.459 376.250, 356.006 373.500 C 359.089 370.170, 361.552 366.102, 363.378 361.323 C 366.576 352.950, 367.479 352.026, 373.583 350.886 C 378.848 349.902, 384.178 351.596, 385.892 354.798 C 386.471 355.879, 388.035 361.817, 389.368 367.992 C 390.812 374.683, 392.489 379.883, 393.516 380.860 C 394.726 382.012, 395.371 382.147, 395.682 381.315 C 396.605 378.838, 402.019 372.060, 403.862 371.074 C 405.349 370.278, 406.363 370.498, 408.326 372.042 C 411.174 374.282, 412.018 377.591, 414.478 396.159 C 415.327 402.572, 417.364 412.472, 419.005 418.159 C 424.368 436.752, 427.098 465.538, 424.168 472.599 C 423.419 474.405, 421.239 476.621, 418.943 477.912 C 413.094 481.199, 412.547 482.867, 414.474 491.528 C 415.374 495.574, 417.119 500.372, 418.351 502.192 C 422.930 508.955, 425.893 520.306, 427.523 537.339 C 428.433 546.840, 431.337 549.626, 437.434 546.848 C 440.847 545.293, 441.326 543.161, 439.443 537.917 C 438.571 535.488, 437.006 526.876, 435.965 518.781 C 434.715 509.066, 433.379 502.704, 432.036 500.070 C 429.551 495.200, 429.520 493.154, 431.888 490.318 C 434.711 486.938, 441.026 483, 443.624 483 C 447.636 483, 451.801 487.841, 453.484 494.460 C 454.318 497.738, 455 501.287, 455 502.347 C 455 503.407, 456.743 507.925, 458.874 512.387 C 461.208 517.277, 463.425 524.034, 464.454 529.396 C 466.430 539.696, 467.534 543, 469 543 C 471.097 543, 472.175 537.174, 473.071 521 C 474.382 497.309, 475.608 489.826, 479.787 480 C 482.782 472.957, 483.403 470.296, 483.412 464.479 C 483.422 458.202, 483.045 456.824, 479.853 451.479 C 477.889 448.190, 474.998 441.900, 473.428 437.500 C 471.859 433.100, 469.292 427.670, 467.724 425.434 C 466.157 423.197, 463.775 417.572, 462.432 412.934 C 461.088 408.295, 459.096 403.375, 458.005 402 C 448.451 389.968, 447.259 376.410, 455.373 372.068 C 457.420 370.972, 459.028 370.930, 463.625 371.854 C 466.765 372.484, 473.068 373, 477.633 373 C 487.064 373, 492.131 371.203, 493.949 367.213 C 494.578 365.833, 495.513 359.033, 496.027 352.102 C 496.541 345.171, 497.398 336.800, 497.931 333.500 C 498.465 330.200, 499.416 320.975, 500.046 313 C 500.675 305.025, 502.297 292.650, 503.649 285.500 C 509.172 256.297, 511.089 242.643, 512.017 225.907 C 513.061 207.076, 513.633 203.105, 517.523 187.718 C 521.104 173.551, 522.956 160.014, 524.050 140 C 525.128 120.278, 524.834 122.234, 530.051 100 C 534.133 82.604, 536 70.311, 536 60.832 C 536 56.330, 535.518 54.551, 533.734 52.477 L 531.468 49.843 461.984 50.172 C 374.570 50.585, 371.167 50.533, 361.669 48.632 C 355.788 47.456, 352.991 46.321, 350.432 44.075 C 348.559 42.430, 345.333 40.646, 343.263 40.109 C 341.193 39.573, 337.586 38.637, 335.247 38.028 C 331.815 37.135, 330.719 36.264, 329.573 33.520 C 327.841 29.376, 321.802 26, 316.122 26 C 310.700 26, 309 26.824, 309 29.452 C 309 33.669, 313.376 35.989, 324.082 37.448 C 328.036 37.987, 328.884 38.534, 330.270 41.440 C 331.277 43.551, 334.491 46.608, 338.880 49.628 C 342.732 52.279, 346.312 55.360, 346.836 56.474 C 347.360 57.588, 350.561 61.650, 353.949 65.500 C 358.541 70.717, 361.879 76.119, 367.057 86.712 C 370.879 94.528, 374.695 103.528, 375.537 106.712 C 377.284 113.314, 378.600 130.473, 377.650 134.260 C 377.300 135.653, 374.825 138.890, 372.151 141.453 C 367.338 146.066, 367.281 146.193, 366.680 153.807 C 365.880 163.929, 363.567 171.409, 360.488 173.830 C 358.173 175.652, 356.717 175.740, 336.761 175.265 C 306.245 174.540, 292.184 176.270, 286 181.513 C 285.175 182.212, 279.500 185.300, 273.388 188.373 C 263.462 193.366, 258.952 196.421, 260.107 197.371 C 260.323 197.548, 262.863 198.959, 265.750 200.506 C 268.637 202.052, 271 203.634, 271 204.020 C 271 204.406, 272.996 206.866, 275.436 209.486 C 280.559 214.987, 282.231 215.033, 289.303 209.873 C 293.162 207.057, 293.903 206.872, 298.500 207.573 C 307.994 209.022, 311.145 208.499, 319.645 204.064 C 327.487 199.971, 327.811 199.894, 331.194 201.308 C 333.709 202.358, 335.560 204.331, 337.865 208.415 C 341.457 214.779, 344.556 216.843, 347.863 215.073 C 351.051 213.367, 352.924 208.882, 354.192 199.916 C 355.652 189.594, 356.327 189.116, 371.407 187.714 C 384.470 186.500, 386.976 187.304, 389.584 193.546 C 391.510 198.156, 391.418 214.797, 389.396 227.456 C 388.052 235.868, 386.838 239.450, 381.924 249.500 C 378.696 256.100, 374.412 263.750, 372.403 266.500 L 368.751 271.500 369.322 285.278 C 369.978 301.116, 368.878 313.165, 365.439 327.798 C 362.550 340.094, 361.981 341.285, 356.421 346.679 C 354.052 348.977, 351.190 352.667, 350.062 354.878 C 348.934 357.089, 346.803 359.708, 345.326 360.699 C 343.850 361.690, 340.360 364.827, 337.571 367.671 C 334.555 370.747, 330.376 373.734, 327.258 375.041 C 324.375 376.250, 320.545 378.873, 318.746 380.870 C 315.567 384.397, 314.706 386.457, 311.571 398.027 C 308.849 408.074, 300.427 415.048, 293.061 413.355 C 290.376 412.737, 285.890 408.777, 272.839 395.500 C 263.196 385.690, 262.575 383.866, 263.268 367.372 C 263.706 356.964, 264.167 354.378, 266.523 349.129 C 269.251 343.049, 269.258 342.979, 267.667 337.257 C 266.022 331.335, 266.387 326.882, 268.904 322.179 C 270.735 318.759, 273.928 317.995, 281.653 319.128 C 292.559 320.727, 294.860 320.508, 297.916 317.580 C 301.140 314.492, 304.693 313.346, 313.799 312.458 C 319.281 311.923, 321.501 312.185, 326 313.901 C 332.817 316.501, 335.057 316.529, 338.204 314.054 C 343.439 309.936, 348.925 291.932, 347.708 282.863 C 347.405 280.601, 345.344 276.098, 342.885 272.323 C 339.139 266.574, 337.809 265.382, 332.463 262.984 C 327.996 260.979, 325.767 259.270, 324.235 256.674 C 323.080 254.717, 320.595 252.076, 318.713 250.807 C 316.832 249.538, 313.387 247.177, 311.059 245.560 C 306.269 242.232, 304.740 242.595, 301.702 247.781 C 299.113 252.200, 298.157 256.193, 299.087 258.707 C 299.851 260.771, 301.270 261.378, 310 263.370 C 311.375 263.684, 314.300 265.646, 316.500 267.730 C 318.700 269.815, 322.650 273.064, 325.279 274.950 C 331.122 279.144, 332.307 282.484, 328.893 285.132 C 325.074 288.094, 320.784 288.793, 298.500 290.082 C 276.727 291.342, 275.193 291.618, 270.951 295.036 C 267.445 297.862, 245.737 301.400, 239.923 300.094 C 235.510 299.103, 232 296.524, 232 294.274 C 232 292.210, 243.850 279.305, 246.908 278.038 C 248.468 277.392, 255.124 277.068, 263.506 277.230 C 276.728 277.485, 277.773 277.362, 282.443 275 C 288.659 271.856, 290.126 269.698, 287.698 267.269 C 286.337 265.907, 283.582 265.360, 275.715 264.893 C 267.832 264.424, 263.942 263.651, 258.673 261.506 C 249.949 257.953, 249.603 257.093, 250.837 242.041 C 251.358 235.693, 251.563 228.025, 251.293 225 C 250.937 221.014, 251.379 217.788, 252.901 213.282 C 254.055 209.861, 255 206.469, 255 205.743 C 255 205.017, 255.825 202.804, 256.834 200.826 L 258.667 197.230 253.084 195.061 C 250.013 193.869, 245.250 191.963, 242.500 190.826 C 232.655 186.757, 227.970 186, 212.532 185.987 C 204.264 185.979, 191.101 186.511, 183.279 187.168 C 169.929 188.289, 168.934 188.250, 167.029 186.526 C 164.097 183.873, 164.432 178.130, 167.991 170.021 C 169.725 166.070, 171.410 159.908, 172.003 155.354 C 172.565 151.034, 173.503 143.900, 174.087 139.500 C 175.438 129.339, 179.438 117.233, 182.514 114 C 183.822 112.625, 185.801 109.447, 186.910 106.938 C 189.283 101.571, 190.189 100.735, 199.781 95.049 C 206.973 90.786, 207.200 90.727, 218.362 90.235 C 225.026 89.941, 232.473 90.225, 236.512 90.929 C 242.751 92.015, 243.584 91.954, 245.876 90.243 C 248.962 87.939, 250.247 83.636, 248.799 80.458 C 247.598 77.822, 244.558 76.216, 235 73.169 C 216.574 67.295, 200.538 66.414, 188.176 70.598 C 178.848 73.755, 170.476 74.616, 167 72.774 C 162.910 70.607, 163.349 67.747, 168.690 61.778 C 171.336 58.822, 176.573 52.446, 180.330 47.609 C 184.086 42.772, 188.546 38.069, 190.240 37.158 C 191.934 36.246, 195.681 33.405, 198.567 30.844 C 203.618 26.361, 204.105 26.164, 211.657 25.537 C 215.971 25.178, 224.225 24.174, 230 23.304 C 246.227 20.860, 253.542 20.677, 265.960 22.405 C 281.458 24.562, 299.284 24.568, 301.070 22.416 C 303.099 19.971, 301.073 17.751, 294.915 15.670 C 290.125 14.052, 285.227 13.808, 252.500 13.555 C 226.734 13.356, 213.744 13.631, 209.715 14.461 M 165.452 92.646 C 164.104 94.101, 163 95.701, 163 96.201 C 163 96.701, 160.637 98.167, 157.750 99.459 C 154.863 100.752, 150.700 103.692, 148.500 105.993 C 146.300 108.294, 141.350 111.774, 137.500 113.725 C 129.698 117.679, 119.549 125.105, 118.007 127.988 C 116.437 130.921, 116.811 133.519, 119.102 135.593 C 123.938 139.969, 124.380 142.237, 125.127 166.500 C 125.516 179.150, 126.324 191.120, 126.923 193.100 C 128.392 197.958, 131.227 200.411, 134.442 199.604 C 138.906 198.483, 140.241 194.025, 141.170 177.127 C 141.925 163.384, 142.384 160.691, 145.502 151.718 C 149.386 140.540, 154.118 131.482, 157.438 128.870 C 159.483 127.261, 160.964 124.421, 164.068 116.150 C 164.760 114.307, 166.855 110.969, 168.724 108.732 C 175.268 100.900, 177.140 94.038, 173.465 91.351 C 170.674 89.310, 168.169 89.715, 165.452 92.646 M 355.023 126.965 C 352.975 128.259, 353.138 135.036, 355.296 138.329 C 356.413 140.034, 357.942 141, 359.523 141 C 361.771 141, 362 140.607, 361.996 136.750 C 361.994 134.279, 361.163 131.139, 360.011 129.250 C 357.889 125.770, 357.323 125.510, 355.023 126.965 M 207.568 215.724 C 206.506 215.995, 203.413 217.746, 200.694 219.616 C 196.293 222.644, 191.248 224.563, 182.820 226.414 C 176.875 227.720, 175.385 232.914, 178.951 239.903 C 180.023 242.006, 182.284 249.075, 183.975 255.613 C 185.666 262.151, 187.298 268.303, 187.603 269.284 C 189.143 274.249, 196.618 276.916, 205.017 275.497 C 208.426 274.921, 211.007 273.139, 219.053 265.805 C 228.020 257.631, 229.333 255.958, 233.573 247.299 C 242.463 229.145, 238.909 220.207, 221.322 216.480 C 214.412 215.016, 211.068 214.832, 207.568 215.724 M 142.229 217.171 C 141.553 217.847, 141 220.590, 141 223.266 C 141 232.182, 145.042 235.273, 147.032 227.880 C 149.002 220.564, 145.855 213.545, 142.229 217.171 M 592.003 243.497 C 591.163 244.509, 590.670 249.935, 590.482 260.247 C 590.137 279.159, 588.922 285.534, 583.910 294.730 C 580.521 300.949, 579.699 303.756, 578.031 314.794 C 575.723 330.070, 574.928 332.417, 570.500 337 C 566.619 341.017, 565 344.696, 565 349.494 C 565 355.841, 566.289 356.247, 584.919 355.773 C 594.039 355.541, 602.304 354.993, 603.287 354.554 C 606.868 352.958, 608.236 348.174, 608.432 336.562 C 608.622 325.299, 610.611 316.398, 613.466 314.029 C 614.211 313.410, 616.418 312.644, 618.370 312.327 C 621.693 311.788, 622.372 312.189, 629.038 318.626 C 633.225 322.668, 637.325 327.784, 638.990 331.045 C 640.698 334.389, 644.583 339.194, 648.779 343.152 C 657.932 351.787, 667.299 355.400, 683.077 356.382 C 692.816 356.989, 693.795 356.884, 695.445 355.060 C 698.171 352.048, 696.807 347.186, 691.905 342.444 C 689.662 340.275, 686.783 336.475, 685.507 334 C 684.231 331.525, 681.752 328.150, 679.999 326.500 C 678.245 324.850, 675.514 320.945, 673.928 317.823 C 672.342 314.700, 670.541 311.834, 669.925 311.453 C 669.309 311.073, 667.498 308.702, 665.902 306.185 C 661.928 299.919, 661.822 292.996, 665.646 289.452 C 667.101 288.104, 668.715 287, 669.233 287 C 669.750 287, 672.947 284.372, 676.337 281.160 C 679.726 277.948, 684.525 273.946, 687 272.266 C 689.475 270.587, 692.625 267.995, 694 266.507 C 695.375 265.019, 698.750 262.662, 701.500 261.269 C 704.250 259.876, 709.567 255.549, 713.315 251.652 C 722.435 242.170, 722.182 241.999, 699.059 242.004 C 683.368 242.007, 681.157 242.216, 678.277 243.973 C 676.341 245.153, 674.815 247.049, 674.457 248.719 C 672.744 256.713, 670.774 259.952, 664.196 265.590 C 660.513 268.747, 656.375 272.567, 655 274.080 C 653.625 275.593, 650.250 277.959, 647.500 279.339 C 644.750 280.720, 641.600 283.233, 640.500 284.924 C 637.603 289.380, 632.823 291.427, 628.583 290.027 C 621.644 287.737, 620.321 283.584, 622.999 272.505 C 624.721 265.379, 626.492 261.212, 632.348 250.500 C 634.518 246.529, 634.427 245.412, 631.777 243.557 C 628.557 241.301, 593.868 241.249, 592.003 243.497 M 753.308 243.194 C 750.321 244.638, 749.734 246.664, 751.103 250.811 C 751.805 252.938, 752.064 257.739, 751.763 263.022 C 751.254 271.941, 751.433 271.430, 743.357 287.075 C 742.626 288.492, 741.532 293.217, 740.925 297.575 C 738.630 314.071, 737.235 319.560, 734.070 324.549 C 732.343 327.272, 730.271 331.719, 729.465 334.432 C 726.857 343.209, 728.052 353.934, 731.855 355.887 C 734.397 357.191, 757.753 356.130, 761.567 354.536 C 763.761 353.620, 765.608 351.729, 767.029 348.943 C 768.861 345.352, 769.078 343.753, 768.506 338.055 C 768.017 333.187, 768.282 329.766, 769.483 325.438 C 772.168 315.771, 773.052 314.131, 776.868 311.759 C 780.203 309.685, 781.692 309.499, 795.060 309.490 L 809.620 309.480 815.324 304.606 C 821.906 298.983, 823.366 295.524, 820.229 292.984 C 818.612 291.675, 815.197 291.182, 804.700 290.742 C 790.216 290.135, 786.357 289.001, 783.397 284.484 C 781.444 281.502, 782.044 277.218, 785.516 269.367 C 787.211 265.536, 788.700 263.680, 790.697 262.910 C 796.064 260.840, 812 259.933, 822.780 261.085 C 832.682 262.143, 833.234 262.097, 837.780 259.842 C 841.666 257.914, 842.762 256.742, 843.983 253.210 C 846.021 247.313, 844.174 243.832, 838.468 242.819 C 831.910 241.656, 755.799 241.991, 753.308 243.194 M 905.411 243.459 C 902.062 244.201, 896.662 246.145, 893.411 247.779 C 890.160 249.412, 884.125 251.790, 880 253.063 C 874.120 254.878, 871.420 256.394, 867.500 260.079 C 864.750 262.665, 860.737 265.392, 858.583 266.140 C 855.721 267.134, 853.768 268.847, 851.333 272.500 C 849.500 275.250, 847.102 278.625, 846.004 280 C 839.904 287.637, 837.149 309.619, 840.381 324.870 C 841.917 332.122, 842.070 332.362, 849.911 339.870 C 857.549 347.183, 858.370 347.677, 869.711 351.756 C 887.811 358.267, 893.645 359.197, 914 358.814 L 931.500 358.484 938 355.144 C 941.575 353.306, 945.277 350.835, 946.228 349.652 C 948.812 346.434, 948.477 342.359, 945.468 340.387 C 943.271 338.948, 941.981 338.874, 935.718 339.827 C 922.121 341.898, 920.573 341.938, 910.546 340.469 C 894.961 338.186, 893.008 337.170, 884.946 327.153 C 875.326 315.199, 874 312.056, 874 301.207 C 874 293.092, 874.236 292.038, 876.974 287.946 C 884.376 276.883, 887.228 273.413, 890.583 271.388 C 892.562 270.194, 895.603 267.871, 897.341 266.227 C 902.513 261.333, 906.547 260.544, 926.500 260.528 C 943.227 260.514, 944.866 260.678, 949.670 262.845 C 952.514 264.128, 955.660 265.020, 956.662 264.827 C 959.172 264.343, 961.112 259.864, 961.719 253.146 C 962.141 248.479, 961.879 247.067, 960.205 245 L 958.180 242.500 934.840 242.304 C 918.270 242.165, 909.734 242.500, 905.411 243.459 M 202.096 301.265 C 200.774 301.944, 198.781 303.729, 197.666 305.230 C 195.811 307.728, 195.730 308.538, 196.712 314.730 C 198.483 325.904, 201.628 332.763, 207.909 339.149 C 230.292 361.909, 229.174 360.965, 233.750 360.983 C 239.845 361.007, 242.439 358.218, 241.653 352.484 C 241.331 350.132, 240.310 346.621, 239.385 344.682 C 237.772 341.300, 236.221 340.223, 227.838 336.669 C 221.465 333.967, 216.539 325.137, 214.075 312 C 212.756 304.967, 211.690 302.960, 208.316 301.163 C 205.605 299.720, 205.086 299.728, 202.096 301.265 M 281.627 305.282 C 280.262 306.281, 279.953 307.276, 280.486 308.955 C 281.164 311.093, 281.612 311.217, 286.765 310.685 C 295.428 309.791, 295.895 305.902, 287.500 304.553 C 284.799 304.119, 282.892 304.356, 281.627 305.282 M 201.328 390.622 C 198.846 394.411, 198.516 403.498, 200.475 414.157 C 201.827 421.514, 202.829 424.259, 205.301 427.381 C 208.199 431.039, 208.451 431.996, 208.836 440.785 C 209.370 453.011, 207.887 452.816, 202.755 439.986 C 200.695 434.837, 198.445 430.260, 197.755 429.815 C 196.307 428.882, 185.309 429.846, 182.830 431.124 C 179.458 432.862, 178.671 438.528, 179.378 455.959 C 180.116 474.162, 183.114 493.154, 186.249 499.500 C 190.658 508.422, 192.884 509.234, 205.500 506.519 C 220.118 503.374, 239.784 499.988, 247 499.374 C 251.125 499.023, 255.884 498.176, 257.576 497.492 C 261.723 495.814, 272.599 487.459, 273.495 485.264 C 273.890 484.294, 275.498 479.754, 277.069 475.176 C 278.692 470.442, 281.234 465.359, 282.962 463.391 C 286.349 459.533, 286.861 455.674, 284.443 452.223 C 282.444 449.368, 279.485 449.402, 275.594 452.324 C 270.743 455.967, 269.199 456.183, 264.155 453.930 C 261.595 452.786, 256.021 451.491, 251.769 451.052 C 242.472 450.094, 239.479 448.336, 236.790 442.259 C 233.064 433.835, 233.276 431.624, 238.953 419.687 C 241.984 413.315, 243.861 408.138, 243.525 407.079 C 243.212 406.092, 241.278 404.572, 239.228 403.701 C 237.177 402.831, 233.452 401.257, 230.949 400.204 C 228.446 399.150, 224.846 396.934, 222.949 395.279 C 214.443 387.856, 204.538 385.723, 201.328 390.622 M 380.469 485.062 C 378.801 485.547, 376.439 486.874, 375.219 488.011 C 371.425 491.545, 372.343 494.238, 379.530 500.663 C 385.908 506.365, 386.081 506.651, 386.989 513 C 387.500 516.575, 388.387 522.737, 388.959 526.693 C 389.532 530.649, 390 535.836, 390 538.220 C 390 544.472, 392.111 547, 397.334 547 C 401.485 547, 406 544.854, 406 542.881 C 406 542.328, 404.873 539.494, 403.496 536.583 C 399.962 529.112, 397.732 512.336, 398.567 499.500 C 399.172 490.201, 399.064 489.307, 397.036 486.750 C 395.095 484.303, 394.229 484.010, 389.177 484.090 C 386.055 484.140, 382.136 484.577, 380.469 485.062" stroke="none" fill="#ffffff" fill-rule="evenodd"/>
</svg>