<svg xmlns="http://www.w3.org/2000/svg" width="1000" height="522" viewBox="0 0 1000 522" version="1.1">
	<path d="M 430.732 74.147 C 428.272 74.839, 425.801 76.647, 423.614 79.354 C 418.989 85.079, 418.329 86.621, 417.538 93.565 C 417.158 96.901, 416.534 100.135, 416.153 100.753 C 415.211 102.277, 410.463 103.999, 407.185 104.006 C 399.133 104.022, 390.163 109.947, 387.926 116.725 C 386.177 122.024, 386.557 130.209, 388.785 135.246 C 391.110 140.503, 397.057 144.428, 405.165 146.056 C 413.334 147.697, 415.721 148.912, 417.042 152.102 C 418.414 155.413, 417.725 161.713, 415.784 163.625 C 415.078 164.321, 411.338 165.544, 407.473 166.344 C 394.081 169.117, 387 176.038, 387 186.354 C 387 192.016, 384.224 195.598, 378.696 197.067 C 376.388 197.680, 371.489 199.295, 367.809 200.656 C 361.570 202.963, 360.901 203.514, 357.925 208.786 C 352.167 218.990, 352.195 220.638, 358.302 230.846 C 362.075 237.153, 366.013 239.500, 374.510 240.504 C 377.805 240.893, 381.490 241.835, 382.700 242.596 C 385.221 244.183, 386.986 249.581, 386.994 255.730 C 387 259.951, 389.581 268, 390.929 268 C 391.320 268, 393.490 269.583, 395.751 271.519 C 399.252 274.515, 400.946 275.174, 407.170 275.955 C 416.597 277.139, 417.986 278.661, 418.035 287.861 C 418.075 295.274, 418.875 297.192, 424.328 302.947 C 430.655 309.623, 439.986 310.872, 449.011 306.250 C 453.619 303.890, 454.851 302.601, 457.691 297.165 C 460.327 292.120, 461 289.652, 461 285.038 C 461 277.857, 462.107 276.800, 470.539 275.927 C 475.634 275.400, 477.711 274.614, 481.184 271.901 C 483.558 270.048, 486.087 267.849, 486.805 267.015 C 489.448 263.945, 491.957 257.389, 491.978 253.493 C 492.006 248.480, 493.565 242.894, 495.232 241.836 C 497.386 240.468, 504.759 240.902, 506.347 242.490 C 507.886 244.029, 508.405 245.983, 509.531 254.477 C 510.428 261.247, 513.134 266.166, 518.226 270.281 C 524.185 275.098, 526.234 276, 531.212 276 C 537.938 276, 539.626 277.758, 540.240 285.398 C 540.637 290.352, 541.606 293.392, 544.354 298.305 C 547.452 303.845, 548.632 305.025, 552.909 306.866 C 562.686 311.072, 572.813 308.812, 578.959 301.052 C 582.442 296.654, 583.883 291.701, 583.956 283.872 C 583.981 281.231, 584.586 278.759, 585.365 278.112 C 586.116 277.489, 589.991 276.570, 593.977 276.069 C 599.485 275.377, 601.858 274.569, 603.862 272.702 C 605.313 271.350, 607.513 269.723, 608.752 269.086 C 611.784 267.526, 613.770 262.400, 614.915 253.177 C 616.094 243.682, 618.034 241.594, 626.659 240.538 C 636.825 239.292, 640.718 236.378, 645.960 226.086 C 648.728 220.651, 648.325 217.317, 643.964 209.591 C 640.486 203.428, 635.155 199.836, 627.445 198.460 C 622.015 197.490, 616.021 194.014, 615.526 191.548 C 615.300 190.422, 614.829 187.734, 614.479 185.575 C 612.659 174.336, 606.634 168.757, 593.670 166.306 C 589.760 165.566, 586.175 164.575, 585.703 164.103 C 584.076 162.476, 583.182 155.923, 584.122 152.519 C 585.122 148.900, 586.547 148.146, 596.500 145.977 C 603.784 144.389, 609.652 140.602, 612.020 135.960 C 616.616 126.951, 615.455 117.618, 608.845 110.447 C 604.288 105.504, 604.064 105.404, 594.588 104.075 C 590.787 103.541, 587.049 102.478, 586.282 101.711 C 585.516 100.944, 584.307 96.969, 583.596 92.877 C 582.045 83.943, 581.278 82.387, 576.130 77.737 C 570.089 72.279, 559.868 71.418, 551.351 75.650 C 546.814 77.904, 541.787 86.454, 540.121 94.752 C 538.657 102.039, 536.829 104, 531.494 104 C 519.562 104, 510.441 113.044, 509.262 126.043 C 508.615 133.187, 506.796 135, 500.277 135 C 494.384 135, 492.007 132.494, 491.978 126.250 C 491.921 113.931, 481.843 104, 469.397 104 C 464.156 104, 462.528 102.058, 460.996 93.978 C 459.689 87.087, 454.401 78.138, 450.180 75.673 C 446.291 73.402, 436.198 72.610, 430.732 74.147 M 435.240 84.545 C 434.215 85.263, 432.114 87.671, 430.572 89.896 C 427.362 94.528, 427.559 97.153, 431.428 101.328 C 433.522 103.588, 434.737 104, 439.297 104 C 445.430 104, 447.337 102.555, 448.360 97.138 C 448.790 94.860, 448.391 92.412, 447.121 89.541 C 445.538 85.963, 444.617 85.146, 441.176 84.273 C 438.073 83.485, 436.660 83.550, 435.240 84.545 M 559.378 84.434 C 554.934 86.373, 553 89.643, 553 95.223 C 553 101.777, 555.298 104, 562.077 104 C 566.355 104, 567.614 103.540, 570.077 101.077 C 571.778 99.376, 573 97.089, 573 95.606 C 573 93.160, 567.388 84, 565.889 84 C 565.490 84, 564.564 83.791, 563.832 83.536 C 563.099 83.282, 561.095 83.686, 559.378 84.434 M 401.974 118.115 C 397.071 121.990, 396.808 122.429, 397.356 125.809 C 397.676 127.780, 399.087 130.542, 400.492 131.946 C 402.618 134.073, 403.977 134.500, 408.611 134.500 C 413.339 134.500, 414.481 134.124, 416.198 132.003 C 418.908 128.658, 418.122 120.622, 414.773 117.415 C 410.573 113.395, 407.750 113.549, 401.974 118.115 M 434.487 115.115 C 429.760 117.415, 426.694 125.433, 428.621 130.455 C 430.090 134.283, 441.241 136.547, 446.023 133.988 C 450.067 131.823, 449.722 120.631, 445.479 116.388 C 442.939 113.848, 438.215 113.301, 434.487 115.115 M 464.736 115.250 C 462.379 117.040, 461 121.381, 461 127.008 C 461 133.187, 463.206 135, 470.723 135 C 478.049 135, 480.489 132.581, 479.612 126.187 C 478.906 121.038, 476.134 117.438, 471.282 115.371 C 467.333 113.688, 466.806 113.678, 464.736 115.250 M 529.209 115.668 C 524.158 118.157, 522 121.544, 522 126.980 C 522 133.141, 523.995 135, 530.606 135 C 536.457 135, 539.595 133.119, 540.482 129.082 C 541.729 123.406, 537.503 113.954, 533.750 114.023 C 533.063 114.035, 531.019 114.776, 529.209 115.668 M 557.315 115.007 C 554.083 116.309, 552.667 119.776, 552.667 126.387 C 552.667 130.979, 553.078 132.584, 554.524 133.642 C 556.965 135.426, 565.162 135.377, 569.532 133.551 C 572.874 132.155, 573 131.909, 573 126.774 C 573 120.789, 571.392 117.771, 566.989 115.494 C 563.784 113.837, 560.616 113.677, 557.315 115.007 M 590.270 114.703 C 586.309 115.468, 584 119.633, 584 126.012 C 584 132.680, 585.012 133.924, 591.103 134.741 C 598.499 135.733, 604 131.142, 604 123.980 C 604 121.566, 603.083 120.435, 598.763 117.527 C 595.883 115.587, 593.296 114.061, 593.013 114.136 C 592.731 114.211, 591.496 114.466, 590.270 114.703 M 435.313 147.092 C 427.995 149.233, 425.643 157.797, 430.923 163.077 C 433.446 165.600, 434.600 166, 439.352 166 C 442.895 166, 445.388 165.469, 446.347 164.510 C 449.674 161.183, 449.604 151.724, 446.230 148.749 C 443.883 146.678, 439.171 145.964, 435.313 147.092 M 466.357 146.959 C 462.895 148.409, 461 152.040, 461 157.223 C 461 165.217, 466.173 168.044, 474.463 164.580 C 477.082 163.485, 478.106 162.281, 478.925 159.330 C 480.450 153.840, 480.278 152.422, 477.750 149.601 C 475.268 146.833, 469.728 145.548, 466.357 146.959 M 527.500 146.684 C 523.551 147.716, 522 150.088, 522 155.099 C 522 161.844, 524.922 165.094, 531.560 165.732 C 538.057 166.356, 540.323 164.124, 540.427 156.999 C 540.486 152.994, 540.022 151.571, 538 149.548 C 535.424 146.972, 531.009 145.768, 527.500 146.684 M 558.854 146.789 C 554.497 147.322, 552.556 150.385, 552.645 156.587 C 552.760 164.560, 554.675 166.317, 562.690 165.807 C 571.023 165.276, 573 163.467, 573 156.368 C 573 151.808, 572.645 150.814, 570.523 149.423 C 567.564 147.485, 562.505 146.343, 558.854 146.789 M 494.467 149.036 C 493.388 150.229, 492.345 153.440, 491.949 156.786 C 490.653 167.754, 481.672 176.548, 470.161 178.122 C 462.837 179.123, 461 181.008, 461 187.519 C 461 194.116, 464.248 197.967, 469.886 198.058 C 471.874 198.090, 475.961 199.328, 478.970 200.808 C 486.513 204.520, 490.822 210.680, 492.078 219.548 C 492.593 223.183, 493.467 227.003, 494.019 228.036 C 495.281 230.393, 500.648 231.464, 504.278 230.084 C 507.428 228.887, 508.426 226.744, 509.420 219.044 C 510.460 210.977, 515.001 204.533, 522.208 200.895 C 525.362 199.303, 529.418 197.998, 531.221 197.995 C 533.176 197.992, 535.711 197.021, 537.500 195.590 C 540.123 193.491, 540.500 192.553, 540.500 188.123 C 540.500 181.493, 538.234 179.133, 530.907 178.131 C 519.475 176.568, 511.012 168.180, 509.514 156.927 C 508.561 149.771, 506.039 147, 500.481 147 C 497.555 147, 495.760 147.608, 494.467 149.036 M 403.243 179.976 C 398.630 182.070, 397 184.838, 397 190.580 C 397 193.399, 397.594 194.392, 400.250 196.011 C 404.131 198.377, 409.016 198.560, 413.020 196.490 C 416.513 194.684, 418 192.187, 418 188.131 C 418 182.758, 416.393 180.203, 412.298 179.066 C 407.580 177.756, 408.293 177.684, 403.243 179.976 M 433.329 179.403 C 429.551 181.111, 427.995 183.684, 428.015 188.184 C 428.034 192.309, 428.623 193.216, 433 195.870 C 439.772 199.976, 446.972 197.945, 448.597 191.471 C 449.462 188.025, 448.410 181.981, 446.637 180.208 C 444.585 178.156, 437.089 177.703, 433.329 179.403 M 557.500 178.675 C 554.283 179.544, 553.287 180.802, 552.647 184.807 C 551.783 190.209, 553.481 195.442, 556.550 196.841 C 560.522 198.651, 565.389 198.212, 569.102 195.710 C 572.328 193.536, 572.500 193.120, 572.500 187.474 C 572.500 181.913, 572.314 181.438, 569.632 180.153 C 566.376 178.592, 560.471 177.873, 557.500 178.675 M 589.686 179.027 C 588.138 179.486, 586.280 180.353, 585.557 180.953 C 583.618 182.562, 582.958 187.266, 584.095 191.382 C 585.835 197.684, 594.195 200.008, 600.750 196.011 C 603.604 194.271, 604 193.507, 604 189.737 C 604 183.374, 601.649 180.651, 594.500 178.730 C 593.400 178.434, 591.234 178.568, 589.686 179.027 M 403 209.698 C 397.961 210.674, 396.765 212.842, 397.183 220.241 C 397.683 229.090, 399.022 230.467, 407.121 230.467 C 414.052 230.467, 416.257 228.773, 417.425 222.550 C 418.275 218.018, 416.468 211.271, 414.228 210.614 C 410.977 209.660, 405.501 209.213, 403 209.698 M 435.139 210.001 C 430.508 211.092, 428.858 213.057, 428.300 218.147 C 427.368 226.657, 434.805 232.768, 443.190 230.382 C 445.905 229.609, 446.744 228.674, 447.858 225.180 C 449.347 220.506, 448.709 212.803, 446.701 211.212 C 444.853 209.748, 438.874 209.122, 435.139 210.001 M 529.388 210.212 C 525.900 210.934, 525.006 211.660, 523.503 214.993 C 521.311 219.854, 521.892 227.717, 524.590 229.689 C 527.188 231.589, 534.367 231.334, 536.939 229.250 C 539.109 227.492, 541.264 220.799, 540.562 218 C 540.355 217.175, 539.922 215.307, 539.599 213.850 C 538.848 210.461, 534.930 209.065, 529.388 210.212 M 589.686 209.980 C 584.910 211.475, 584 212.848, 584 218.557 C 584 221.479, 584.412 224.954, 584.916 226.279 C 586.142 229.504, 591.006 231.397, 596.259 230.692 C 602.235 229.891, 604 227.330, 604 219.461 C 604 213.097, 602.544 210, 599.554 210 C 598.837 210, 596.956 209.797, 595.375 209.550 C 593.794 209.302, 591.234 209.496, 589.686 209.980 M 370.786 211.553 C 369.031 212.506, 367.647 214.447, 366.867 217.048 C 365.794 220.631, 365.882 221.367, 367.673 223.785 C 368.779 225.278, 371.206 227.536, 373.067 228.802 C 377.040 231.505, 380.251 231.107, 383.964 227.452 C 386.004 225.444, 386.429 224.057, 386.429 219.396 C 386.429 214.710, 386.039 213.450, 384.104 211.883 C 381.291 209.605, 374.677 209.441, 370.786 211.553 M 462.557 212.223 C 459.373 216.767, 461.349 228.769, 465.545 230.379 C 468.019 231.328, 473.910 231.119, 475.986 230.008 C 480.579 227.549, 480.555 216.555, 475.947 211.947 C 473.036 209.036, 464.668 209.208, 462.557 212.223 M 554.035 211.934 C 552.548 214.713, 552.741 226.264, 554.311 228.410 C 557.392 232.624, 569.305 231.036, 571.970 226.055 C 573.149 223.852, 573.333 215.045, 572.235 213.400 C 570.733 211.151, 566.963 210, 561.101 210 C 556.162 210, 554.883 210.350, 554.035 211.934 M 617.073 212.635 C 614.607 215.769, 614.333 221.810, 616.470 225.941 C 619.554 231.906, 627.967 231.672, 632.832 225.486 C 635.392 222.232, 635.580 219.022, 633.452 214.907 C 630.584 209.362, 620.723 207.994, 617.073 212.635 M 528.263 240.812 C 523.901 241.233, 522 244.221, 522 250.657 C 522 257.888, 523.352 260.831, 527.462 262.548 C 532.487 264.648, 535.327 264.345, 538.076 261.417 C 540.073 259.289, 540.490 257.836, 540.441 253.167 C 540.335 243.054, 537.269 239.943, 528.263 240.812 M 399.536 242.350 C 397.344 243.953, 396.276 253.082, 397.815 257.059 C 398.382 258.525, 400.725 260.637, 403.294 262 C 407.318 264.135, 408.192 264.259, 411.727 263.200 C 416.087 261.894, 418.004 258.990, 417.994 253.703 C 417.986 248.686, 416.095 243.121, 414.022 242.012 C 411.283 240.546, 401.697 240.770, 399.536 242.350 M 432.656 242.133 C 428.773 244.390, 426.633 254.576, 429.080 259.150 C 430.416 261.646, 435.835 264, 440.245 264 C 444.600 264, 447.681 261.727, 448.523 257.895 C 449.470 253.586, 448.164 244.307, 446.357 242.499 C 444.595 240.738, 435.476 240.494, 432.656 242.133 M 463.657 242.486 C 461.667 244.476, 460.780 249.109, 461.185 255.402 C 461.594 261.767, 464.862 264.624, 470.522 263.562 C 478.308 262.101, 482.168 253.104, 478.356 245.300 C 476.569 241.641, 476.291 241.489, 470.868 241.204 C 466.766 240.988, 464.807 241.336, 463.657 242.486 M 554.391 243.526 C 553.293 245.202, 552.696 248.386, 552.618 252.989 C 552.475 261.391, 553.744 263.083, 560.675 263.729 C 564.578 264.092, 566.169 263.724, 569 261.804 C 572.329 259.545, 572.514 259.112, 572.791 252.906 C 573.050 247.119, 572.801 246.077, 570.589 243.691 C 568.414 241.343, 567.326 241, 562.071 241 C 556.731 241, 555.858 241.287, 554.391 243.526 M 587.016 242.786 C 584.471 244.847, 582.804 251.860, 583.674 256.843 C 584.282 260.327, 588.692 263.989, 592.290 263.996 C 595.024 264.002, 601.805 260.234, 602.967 258.062 C 603.535 257, 604 253.627, 604 250.566 C 604 243.052, 601.986 241, 594.611 241 C 590.926 241, 588.524 241.565, 587.016 242.786 M 432.500 277.155 C 426.993 280.167, 426.574 285.339, 431.257 292.511 C 433.714 296.275, 435.214 297.580, 437.365 297.827 C 444.557 298.651, 448.500 293.815, 448.500 284.169 C 448.500 280.047, 448.060 278.517, 446.559 277.419 C 444.270 275.746, 435.382 275.578, 432.500 277.155 M 555.770 276.686 C 553.467 277.289, 551.866 283.574, 552.883 288.024 C 554.523 295.207, 557.285 298.014, 562.684 297.985 C 566.182 297.966, 566.837 297.487, 570.253 292.446 C 572.294 289.434, 573 287.172, 573 283.645 C 573 279.173, 572.799 278.814, 569.532 277.449 C 566.240 276.073, 559.526 275.701, 555.770 276.686 M 315.985 356.015 C 314.893 357.107, 313.977 359.012, 313.948 360.250 C 313.920 361.488, 313.871 373.211, 313.840 386.302 C 313.790 407.682, 313.963 410.302, 315.547 412.052 C 318.047 414.814, 320.424 414.473, 323.411 410.923 C 325.405 408.553, 326 406.750, 326 403.071 C 326 397.605, 329.323 391.622, 332.534 391.307 C 334.499 391.114, 339.256 396.145, 346.452 406.024 C 352.086 413.759, 360.778 416.424, 362.516 410.949 C 363.352 408.316, 358.950 401.574, 348.159 388.961 C 346.103 386.558, 344.620 383.588, 344.306 381.242 C 343.828 377.682, 344.150 377.085, 349.147 372.254 C 352.091 369.408, 355.526 366.274, 356.780 365.289 C 358.087 364.264, 359.310 361.940, 359.646 359.847 C 360.131 356.815, 359.873 356.002, 358.129 355.069 C 356.445 354.168, 355.225 354.355, 351.973 356.014 C 347.573 358.259, 347.159 358.636, 339.015 367.817 C 334.983 372.362, 332.851 374, 330.965 374 C 327.220 374, 326 372.208, 326 366.704 C 326 361.154, 323.816 356.693, 320.320 355.100 C 318.398 354.224, 317.609 354.391, 315.985 356.015 M 507.611 356.195 C 499.905 360.149, 502.603 365.293, 513.018 366.502 C 516.341 366.888, 519.722 367.865, 520.530 368.673 C 521.719 369.862, 522 373.747, 522 389.024 C 522 408.556, 522.651 412.437, 526.114 413.536 C 527.110 413.852, 528.831 413.626, 529.939 413.032 C 533.891 410.918, 534.372 408.319, 534.112 390.494 C 533.973 380.946, 534.301 372.338, 534.861 370.867 C 535.988 367.902, 540.322 366, 545.949 366 C 550.276 366, 552 364.563, 552 360.955 C 552 355.519, 550.064 354.974, 529.683 354.682 C 513.475 354.450, 510.633 354.645, 507.611 356.195 M 576.031 355.420 C 569.952 357.164, 569.673 358.494, 569.908 384.630 C 570.024 397.565, 570.372 408.806, 570.681 409.611 C 571.982 413.003, 576.341 413.867, 593.316 414.099 C 608.217 414.302, 610.194 414.134, 611.991 412.508 C 614.671 410.083, 614.548 406.405, 611.726 404.556 C 610.038 403.450, 606.752 403.101, 598.972 403.200 C 592.775 403.278, 587.620 402.867, 586.360 402.193 C 581.914 399.813, 582.690 391.829, 587.547 389.982 C 588.968 389.442, 593.955 389, 598.631 389 C 608.190 389, 611 387.997, 611 384.587 C 611 380.671, 608.576 379.693, 597.351 379.077 C 587.858 378.557, 586.635 378.268, 584.911 376.139 C 582.366 372.996, 582.494 369.468, 585.223 367.557 C 586.914 366.372, 590.197 365.992, 598.973 365.968 C 611.219 365.934, 614 365.061, 614 361.251 C 614 360.135, 613.157 358.181, 612.127 356.909 C 610.319 354.676, 609.719 354.594, 594.746 354.548 C 586.217 354.522, 577.795 354.914, 576.031 355.420 M 678.923 356.923 C 676.055 359.791, 676 360.049, 675.985 370.673 C 675.976 376.628, 675.562 382.144, 675.063 382.932 C 673.524 385.365, 666.859 382.732, 664.551 378.780 C 662.603 375.442, 660.976 373.311, 651.964 362.284 C 648.011 357.448, 646.100 355.922, 643.349 355.406 C 640.506 354.872, 639.391 355.165, 637.657 356.897 C 635.583 358.969, 635.488 359.994, 635.200 383.625 C 634.859 411.474, 635.180 413, 641.368 413 C 647.111 413, 648.215 410.674, 648.104 398.810 C 647.999 387.555, 649.138 383.703, 652.723 383.187 C 654.384 382.948, 655.361 383.788, 656.876 386.757 C 657.965 388.892, 660.351 392.512, 662.178 394.801 C 664.005 397.089, 667.525 401.502, 670 404.607 C 677.025 413.419, 683.614 416.459, 686.005 411.991 C 686.673 410.742, 687.160 400.414, 687.290 384.699 C 687.479 361.963, 687.321 359.144, 685.727 356.709 C 683.484 353.282, 682.535 353.312, 678.923 356.923 M 382.872 356.650 C 381.863 357.864, 381.415 362.689, 381.177 374.900 C 380.769 395.818, 381.178 398.468, 385.789 404.786 C 390.439 411.158, 399.550 415.590, 407.500 415.347 C 417.762 415.033, 429.532 406.604, 432.071 397.751 C 432.582 395.970, 433 386.623, 433 376.979 C 433 362.728, 432.709 359.029, 431.443 357.223 C 429.384 354.283, 425.527 354.382, 422.455 357.455 C 420.051 359.858, 420 360.247, 419.984 376.205 C 419.968 391.253, 419.795 392.805, 417.712 396.481 C 415.091 401.109, 411.978 402.965, 406.797 402.985 C 401.331 403.007, 398.504 401.299, 396.126 396.537 C 394.231 392.744, 394 390.586, 394 376.717 C 394 361.432, 393.954 361.098, 391.411 358.077 C 388.538 354.662, 385.015 354.073, 382.872 356.650 M 477.365 356.169 C 473.675 357.956, 473.077 360.916, 472.750 379 C 472.426 396.852, 471.586 401.177, 468.189 402.481 C 467.343 402.806, 463.386 402.523, 459.398 401.853 C 450.816 400.411, 448.705 401.355, 449.199 406.415 C 449.457 409.055, 450.294 409.889, 455 412.192 C 462.796 416.007, 468.540 415.896, 476.264 411.778 C 485.171 407.031, 485.800 405.112, 486.019 382 C 486.245 358.235, 486.333 359.333, 484 357 C 481.789 354.789, 480.538 354.633, 477.365 356.169" stroke="none" fill="#ffffff" fill-rule="evenodd"/>
</svg>