<svg xmlns="http://www.w3.org/2000/svg" width="960" height="1000" viewBox="0 0 960 1000" version="1.1">
	<path d="M 822.929 25.750 C 817.354 37.568, 812.191 48.656, 810.006 53.500 C 809.014 55.700, 806.846 60.425, 805.187 64 C 803.529 67.575, 800.831 73.425, 799.193 77 C 797.555 80.575, 794.320 87.550, 792.004 92.500 C 783.746 110.153, 780.756 116.575, 778.269 122 C 776.882 125.025, 773.965 131.325, 771.785 136 C 767.718 144.724, 765.910 148.625, 759.499 162.500 C 757.467 166.900, 754.552 173.200, 753.023 176.500 C 751.495 179.800, 748.791 185.650, 747.017 189.500 C 745.242 193.350, 742.746 198.750, 741.471 201.500 C 740.196 204.250, 737.816 209.425, 736.184 213 C 734.551 216.575, 731.318 223.550, 729 228.500 C 726.682 233.450, 723.532 240.200, 722 243.500 C 720.468 246.800, 717.318 253.550, 714.999 258.500 C 712.680 263.450, 709.650 269.975, 708.265 273 C 706.881 276.025, 703.965 282.325, 701.785 287 C 699.606 291.675, 696.682 297.975, 695.287 301 C 690.030 312.403, 687.653 317, 687.012 317 C 686.649 317, 685.081 314.188, 683.529 310.750 C 680.513 304.072, 675.276 292.663, 671.478 284.500 C 670.199 281.750, 667.816 276.575, 666.184 273 C 664.551 269.425, 661.318 262.450, 658.999 257.500 C 656.680 252.550, 653.650 246.025, 652.265 243 C 650.881 239.975, 648.060 233.900, 645.998 229.500 C 643.935 225.100, 641.242 219.250, 640.013 216.500 C 638.784 213.750, 636.253 208.238, 634.389 204.250 C 632.525 200.263, 629.475 193.738, 627.611 189.750 C 625.747 185.763, 623.216 180.250, 621.987 177.500 C 620.758 174.750, 618.065 168.900, 616.002 164.500 C 613.940 160.100, 611.119 154.025, 609.735 151 C 608.350 147.975, 605.319 141.450, 603 136.500 C 600.681 131.550, 597.650 125.025, 596.265 122 C 594.881 118.975, 592.060 112.900, 589.998 108.500 C 587.935 104.100, 585.249 98.250, 584.027 95.500 C 580.936 88.538, 574.260 74.196, 572.158 70 L 570.405 66.500 555.188 66.224 L 539.971 65.948 535.857 74.724 C 526.841 93.955, 525.134 97.636, 523.669 101 C 522.831 102.925, 520.037 109, 517.460 114.500 C 514.883 120, 511.437 127.425, 509.802 131 C 508.166 134.575, 505.561 140.200, 504.012 143.500 C 496.748 158.977, 493.069 166.899, 491.009 171.500 C 489.777 174.250, 486.981 180.325, 484.795 185 C 480.727 193.699, 479.044 197.365, 474.693 207 C 472.293 212.316, 469.936 217.391, 460.995 236.500 C 458.679 241.450, 455.650 247.975, 454.265 251 C 452.881 254.025, 450.060 260.100, 447.998 264.500 C 445.935 268.900, 443.247 274.750, 442.024 277.500 C 440.800 280.250, 438.440 285.425, 436.779 289 C 424.366 315.708, 422.531 319.672, 419.184 327 C 417.551 330.575, 414.318 337.550, 411.999 342.500 C 409.680 347.450, 406.650 353.975, 405.265 357 C 403.881 360.025, 401.060 366.100, 398.998 370.500 C 396.935 374.900, 394.249 380.750, 393.029 383.500 C 391.808 386.250, 389.328 391.650, 387.516 395.500 C 385.704 399.350, 383.216 404.750, 381.987 407.500 C 380.758 410.250, 378.065 416.100, 376.002 420.500 C 373.940 424.900, 371.119 430.975, 369.735 434 C 368.350 437.025, 365.320 443.550, 363.001 448.500 C 360.682 453.450, 357.449 460.425, 355.816 464 C 350.735 475.125, 342.453 493.048, 340.381 497.404 C 337.704 503.032, 337.621 503, 354.863 503 L 370.725 503 373.763 496.750 C 375.433 493.313, 377.802 488.250, 379.028 485.500 C 380.254 482.750, 382.712 477.350, 384.492 473.500 C 388.417 465.010, 391.792 457.531, 393.517 453.500 C 394.223 451.850, 396.590 446.675, 398.776 442 C 400.963 437.325, 403.750 431.250, 404.969 428.500 C 406.188 425.750, 408.217 421.250, 409.478 418.500 C 410.740 415.750, 412.776 411.250, 414.003 408.500 C 415.230 405.750, 418.206 399.286, 420.617 394.136 C 423.028 388.987, 425 384.390, 425 383.922 C 425 383.453, 425.788 382.717, 426.750 382.285 C 429.220 381.177, 657 381.801, 657 382.916 C 657 383.411, 654.926 388.244, 652.392 393.658 C 644.726 410.031, 641.381 417.255, 639.039 422.500 C 636.812 427.485, 635.696 429.905, 628.196 446 C 626.017 450.675, 623.104 456.975, 621.722 460 C 617.968 468.218, 612.180 480.730, 609 487.500 C 607.450 490.800, 604.519 497.100, 602.487 501.500 C 596.631 514.180, 593.558 520.788, 588.540 531.500 C 585.963 537, 583.169 543.075, 582.331 545 C 580.904 548.276, 577.815 554.960, 571.701 568 C 566.955 578.123, 562 589.142, 562 589.573 C 562 589.808, 568.677 590, 576.838 590 L 591.675 590 594.757 583.250 C 597.669 576.873, 601.691 568.187, 609.691 551 C 613.182 543.499, 615.072 539.408, 620.895 526.750 C 624.588 518.721, 628.382 510.558, 633.792 499 C 635.980 494.325, 638.777 488.250, 640.009 485.500 C 641.240 482.750, 643.935 476.900, 645.998 472.500 C 648.060 468.100, 650.881 462.025, 652.265 459 C 653.650 455.975, 656.679 449.450, 658.995 444.500 C 667.282 426.790, 670.251 420.406, 673.180 414 C 674.815 410.425, 677.196 405.250, 678.471 402.500 C 679.746 399.750, 682.136 394.575, 683.780 391 C 685.425 387.425, 688.347 381.125, 690.272 377 C 692.198 372.875, 694.902 367.025, 696.282 364 C 699.681 356.546, 705.576 343.794, 708.993 336.500 C 715.805 321.959, 719.923 313.116, 722.265 308 C 723.650 304.975, 726.680 298.450, 728.999 293.500 C 735.879 278.811, 741.427 266.834, 748.684 251 C 751.568 244.707, 754.183 239.062, 759.804 227 C 761.983 222.325, 764.894 216.025, 766.274 213 C 767.654 209.975, 770.681 203.450, 773 198.500 C 775.319 193.550, 778.350 187.025, 779.735 184 C 781.119 180.975, 783.939 174.900, 786 170.500 C 788.061 166.100, 790.881 160.025, 792.265 157 C 793.650 153.975, 796.680 147.450, 798.999 142.500 C 801.318 137.550, 804.542 130.575, 806.163 127 C 807.785 123.425, 810.212 118.138, 811.556 115.250 C 812.900 112.363, 815.090 107.638, 816.422 104.750 C 817.754 101.862, 820.626 95.675, 822.804 91 C 824.983 86.325, 827.894 80.025, 829.274 77 C 830.654 73.975, 833.681 67.450, 836 62.500 C 838.319 57.550, 841.349 51.025, 842.733 48 C 849.434 33.357, 854.125 23.337, 855.016 21.764 C 857.574 17.249, 856.869 17, 841.528 17 L 827.057 17 822.929 25.750 M 29.248 286.250 L 29.500 502.500 147 502.500 L 264.500 502.500 264.777 488.255 L 265.055 474.009 163.277 473.755 L 61.500 473.500 61.248 271.750 L 60.995 70 44.995 70 L 28.995 70 29.248 286.250 M 553 103.847 C 553 104.803, 550.784 109.896, 543.797 125 C 542.143 128.575, 539.749 133.750, 538.476 136.500 C 534.040 146.088, 529.256 156.535, 527.028 161.500 C 525.794 164.250, 523.528 169.200, 521.992 172.500 C 520.457 175.800, 518.198 180.750, 516.972 183.500 C 515.746 186.250, 513.288 191.650, 511.508 195.500 C 509.728 199.350, 507.262 204.750, 506.028 207.500 C 504.794 210.250, 502.528 215.200, 500.992 218.500 C 499.457 221.800, 497.198 226.750, 495.972 229.500 C 494.746 232.250, 492.179 237.875, 490.267 242 C 488.355 246.125, 485.670 251.975, 484.300 255 C 482.931 258.025, 480.779 262.750, 479.519 265.500 C 478.259 268.250, 476.221 272.750, 474.990 275.500 C 473.759 278.250, 470.963 284.325, 468.776 289 C 466.590 293.675, 464.121 299.075, 463.290 301 C 462.460 302.925, 460.525 307.200, 458.990 310.500 C 457.456 313.800, 455.200 318.750, 453.976 321.500 C 452.753 324.250, 449.963 330.325, 447.776 335 C 445.590 339.675, 443.121 344.959, 442.290 346.742 C 439.144 353.496, 430.316 353.002, 553.719 352.985 C 615.198 352.976, 666.108 352.584, 666.850 352.114 C 667.937 351.425, 667.621 350.010, 665.236 344.879 C 663.605 341.370, 661.266 336.250, 660.038 333.500 C 657.498 327.812, 654.574 321.400, 650.232 312 C 648.581 308.425, 646.236 303.250, 645.022 300.500 C 643.808 297.750, 641.783 293.250, 640.522 290.500 C 639.260 287.750, 637.224 283.250, 635.997 280.500 C 634.770 277.750, 631.794 271.286, 629.383 266.136 C 626.972 260.987, 625 256.612, 625 256.416 C 625 256.054, 622.350 250.152, 616.505 237.500 C 614.727 233.650, 612.267 228.250, 611.039 225.500 C 609.811 222.750, 607.750 218.250, 606.459 215.500 C 604.163 210.607, 600.492 202.504, 596.040 192.500 C 594.816 189.750, 592.783 185.250, 591.522 182.500 C 590.260 179.750, 588.219 175.250, 586.986 172.500 C 585.753 169.750, 583.288 164.350, 581.508 160.500 C 577.583 152.010, 574.208 144.531, 572.483 140.500 C 571.777 138.850, 569.411 133.675, 567.226 129 C 565.041 124.325, 562.072 117.800, 560.629 114.500 C 559.186 111.200, 557.441 107.411, 556.753 106.080 C 555.444 103.552, 553 102.097, 553 103.847 M 710.224 472.176 C 709.551 472.849, 709 473.747, 709 474.170 C 709 474.969, 706.432 480.770, 700 494.500 C 697.939 498.900, 695.119 504.975, 693.735 508 C 692.350 511.025, 689.319 517.550, 687 522.500 C 684.681 527.450, 681.650 533.975, 680.265 537 C 678.881 540.025, 676.060 546.100, 673.998 550.500 C 671.935 554.900, 669.249 560.750, 668.029 563.500 C 666.808 566.250, 664.328 571.650, 662.516 575.500 C 660.704 579.350, 658.216 584.750, 656.987 587.500 C 654.959 592.038, 652.257 597.859, 643.993 615.500 C 640.661 622.613, 634.958 634.951, 630.820 644 C 624.077 658.745, 621.301 664.757, 614.193 680 C 612.014 684.675, 609.223 690.750, 607.991 693.500 C 606.760 696.250, 604.065 702.100, 602.002 706.500 C 599.940 710.900, 597.118 716.975, 595.731 720 C 593.001 725.956, 588.875 734.821, 581.536 750.500 C 578.961 756, 576.168 762.075, 575.328 764 C 574.488 765.925, 572.746 769.750, 571.457 772.500 C 570.167 775.250, 567.785 780.425, 566.163 784 C 564.542 787.575, 561.318 794.550, 558.999 799.500 C 556.680 804.450, 553.650 810.975, 552.265 814 C 550.881 817.025, 548.060 823.100, 545.998 827.500 C 543.935 831.900, 541.240 837.750, 540.009 840.500 C 538.777 843.250, 535.986 849.325, 533.807 854 C 526.543 869.579, 525.209 872.476, 523.681 876 C 522.845 877.925, 519.699 884.732, 516.687 891.127 C 508.281 908.981, 507.089 907, 526.240 907 L 542.615 907 544.446 902.750 C 545.452 900.413, 547.739 895.350, 549.526 891.500 C 551.313 887.650, 553.788 882.250, 555.024 879.500 C 556.260 876.750, 558.728 871.350, 560.508 867.500 C 563.510 861.006, 564.862 858.020, 570.242 846 C 571.350 843.525, 573.712 838.350, 575.492 834.500 C 577.272 830.650, 579.743 825.250, 580.983 822.500 C 583.327 817.302, 585.441 812.671, 591.251 800 C 593.142 795.875, 595.320 791.038, 596.089 789.250 L 597.488 786 725.575 786 L 853.662 786 854.729 788.250 C 855.316 789.487, 856.472 792.075, 857.298 794 C 858.124 795.925, 860.690 801.550, 863 806.500 C 865.310 811.450, 867.777 816.850, 868.483 818.500 C 870.208 822.531, 873.583 830.010, 877.508 838.500 C 879.288 842.350, 881.753 847.750, 882.986 850.500 C 884.219 853.250, 886.260 857.750, 887.522 860.500 C 888.783 863.250, 890.814 867.750, 892.036 870.500 C 893.257 873.250, 895.712 878.650, 897.492 882.500 C 902.398 893.112, 904.631 898.079, 906.596 902.750 L 908.385 907 925.692 907 C 935.212 907, 943 906.731, 943 906.401 C 943 905.632, 939.126 896.983, 930.725 879 C 928.799 874.875, 926.216 869.250, 924.987 866.500 C 923.758 863.750, 921.065 857.900, 919.002 853.500 C 916.940 849.100, 914.119 843.025, 912.735 840 C 911.350 836.975, 908.320 830.450, 906.001 825.500 C 903.682 820.550, 900.449 813.575, 898.816 810 C 894.945 801.524, 891.355 793.708, 888.481 787.500 C 887.208 784.750, 884.510 778.900, 882.485 774.500 C 877.529 763.727, 874.912 758.077, 870.215 748 C 868.035 743.325, 865.119 737.025, 863.735 734 C 862.350 730.975, 859.320 724.450, 857.001 719.500 C 851.599 707.966, 847.835 699.783, 845.043 693.500 C 843.821 690.750, 841.546 685.800, 839.987 682.500 C 837.361 676.940, 833.504 668.601, 827.269 655 C 825.882 651.975, 823.060 645.900, 820.998 641.500 C 818.935 637.100, 816.330 631.475, 815.209 629 C 814.087 626.525, 810.847 619.550, 808.009 613.500 C 805.170 607.450, 802.163 600.925, 801.327 599 C 800.491 597.075, 798.326 592.350, 796.516 588.500 C 794.706 584.650, 792.534 579.925, 791.689 578 C 790.844 576.075, 787.830 569.550, 784.991 563.500 C 782.153 557.450, 778.913 550.475, 777.791 548 C 776.670 545.525, 774.065 539.900, 772.002 535.500 C 769.940 531.100, 767.118 525.025, 765.731 522 C 764.344 518.975, 761.560 512.900, 759.544 508.500 C 757.527 504.100, 754.821 498.250, 753.529 495.500 C 752.238 492.750, 749.540 486.900, 747.534 482.500 C 745.528 478.100, 743.526 473.825, 743.086 473 C 742.013 470.992, 712.157 470.243, 710.224 472.176 M 724.634 508.852 C 723.735 509.845, 723 511.105, 723 511.652 C 723 512.198, 721.710 515.313, 720.134 518.573 C 718.558 521.833, 716.250 526.750, 715.006 529.500 C 713.762 532.250, 711.288 537.650, 709.508 541.500 C 707.728 545.350, 705.256 550.750, 704.014 553.500 C 702.772 556.250, 700.512 561.200, 698.992 564.500 C 697.473 567.800, 695.222 572.750, 693.991 575.500 C 692.760 578.250, 690.064 584.100, 688 588.500 C 685.936 592.900, 683.343 598.525, 682.238 601 C 676.456 613.945, 674.369 618.520, 666.732 635 C 664.820 639.125, 662.299 644.638, 661.128 647.250 C 659.958 649.862, 658.042 654.138, 656.872 656.750 C 655.701 659.362, 653.180 664.875, 651.268 669 C 645.626 681.175, 642.393 688.213, 640.246 693 C 639.136 695.475, 637.219 699.750, 635.986 702.500 C 634.753 705.250, 632.180 710.875, 630.268 715 C 624.535 727.371, 621.388 734.226, 619.020 739.500 C 617.786 742.250, 615.694 746.893, 614.371 749.817 C 613.048 752.742, 612.225 755.555, 612.542 756.067 C 612.893 756.635, 657.292 757, 726.059 757 C 822.226 757, 839 756.792, 839 755.599 C 839 754.829, 837.255 750.441, 835.123 745.849 C 832.990 741.257, 830.239 735.250, 829.009 732.500 C 827.778 729.750, 825.741 725.250, 824.481 722.500 C 823.221 719.750, 821.069 715.025, 819.700 712 C 818.330 708.975, 815.646 703.125, 813.735 699 C 807.892 686.385, 805 679.958, 805 679.584 C 805 679.388, 803.028 675.013, 800.617 669.864 C 798.206 664.714, 795.333 658.475, 794.231 656 C 791.090 648.945, 787.972 642.019, 785 635.500 C 783.496 632.200, 781.260 627.250, 780.032 624.500 C 778.804 621.750, 776.543 616.800, 775.008 613.500 C 773.472 610.200, 771.206 605.250, 769.972 602.500 C 768.738 599.750, 766.272 594.350, 764.492 590.500 C 762.712 586.650, 760.350 581.475, 759.242 579 C 755.147 569.851, 752.667 564.350, 750 558.500 C 748.496 555.200, 746.265 550.250, 745.043 547.500 C 743.821 544.750, 741.573 539.800, 740.047 536.500 C 738.521 533.200, 736.470 528.700, 735.489 526.500 C 734.508 524.300, 732.422 519.833, 730.853 516.573 C 729.284 513.313, 728 510.077, 728 509.382 C 728 507.224, 726.343 506.964, 724.634 508.852 M 145 769.500 L 145 986 243.959 986 C 339.216 986, 347.286 985.794, 365 982.917 C 399.256 977.351, 427.904 963.944, 447.384 944.361 C 463.668 927.990, 472.963 910.476, 477.028 888.500 C 478.690 879.519, 478.670 854.027, 476.996 846.927 C 472.422 827.526, 465.725 814.862, 453.061 801.660 C 442.438 790.586, 425.974 780.020, 408.500 773.064 C 407.400 772.626, 405.375 771.778, 404 771.179 C 399.348 769.152, 386.360 765, 384.675 765 C 381.464 765, 383.036 762.987, 388.187 760.502 C 391.040 759.126, 393.762 758, 394.235 758 C 394.709 758, 397.558 756.425, 400.567 754.500 C 403.577 752.575, 406.250 751, 406.508 751 C 407.048 751, 408.118 750.154, 417 742.704 C 424.041 736.798, 426.070 734.643, 433.197 725.500 C 437.778 719.623, 446.988 702.947, 448.385 698 C 451.435 687.206, 452.314 683.460, 453.553 676 C 457.719 650.916, 451.569 623.862, 437.072 603.500 C 431.773 596.058, 429.167 593.317, 422 587.650 C 418.425 584.823, 415.350 582.170, 415.167 581.755 C 414.983 581.340, 414.369 581, 413.801 581 C 413.233 581, 410.683 579.494, 408.134 577.654 C 400.380 572.055, 378.839 562.092, 369 559.553 C 367.625 559.199, 364.250 558.293, 361.500 557.541 C 345.203 553.086, 342.930 553, 241.500 553 L 145 553 145 769.500 M 177 668 L 177 753 249.250 752.992 C 322.040 752.983, 329.931 752.672, 347.500 749.115 C 365.531 745.464, 385.208 735.485, 397.817 723.596 C 425.312 697.672, 430.145 647.488, 407.899 618.909 C 393.604 600.543, 373.262 589.909, 342.250 584.587 C 334.341 583.230, 321.686 583, 255 583 L 177 583 177 668 M 177.909 783.609 C 177.360 784.271, 177.092 819.400, 177.244 870.609 L 177.500 956.500 261.500 956.489 C 325.061 956.481, 347.203 956.169, 352.500 955.208 C 367.943 952.404, 370.918 951.699, 381.392 948.361 C 423.017 935.096, 446 906.291, 446 867.385 C 446 853.921, 443.955 844.768, 438.412 833.417 C 431.397 819.051, 418.278 806.980, 400.500 798.534 C 396.100 796.444, 391.719 794.344, 390.764 793.867 C 389.809 793.390, 388.340 793, 387.500 793 C 386.660 793, 385.191 792.585, 384.236 792.077 C 382.298 791.046, 373.360 788.781, 365 787.201 C 361.975 786.629, 356.800 785.595, 353.500 784.902 C 345.286 783.179, 179.279 781.956, 177.909 783.609" stroke="none" fill="#ffffff" fill-rule="evenodd"/>
</svg>