<svg xmlns="http://www.w3.org/2000/svg" width="1000" height="265" viewBox="0 0 1000 265" version="1.1">
	<path d="M 15.266 14.526 C 9.969 18.237, 10 17.526, 10 134.003 C 10 230.059, 10.172 242.149, 11.600 246.340 C 12.480 248.924, 14.071 251.503, 15.134 252.072 C 17.803 253.500, 247.415 253.384, 250.088 251.953 C 251.954 250.954, 252 248.100, 252 133.522 L 252 16.113 249.811 14.580 C 247.876 13.225, 234.286 13.043, 132.549 13.013 C 30.247 12.982, 17.231 13.150, 15.266 14.526 M 80.288 68.969 C 71.085 69.560, 67.142 70.250, 64.288 71.767 C 62.204 72.874, 58.097 75.032, 55.161 76.562 C 52.224 78.092, 49.212 80.279, 48.467 81.422 C 46.327 84.707, 45.016 95.392, 45.008 109.614 C 44.998 126.002, 46.153 132.506, 49.736 136.246 C 51.994 138.603, 52.243 139.358, 51.235 140.786 C 47.300 146.362, 47.102 147.160, 44.295 168.733 C 43.328 176.161, 46.111 179.944, 52.575 179.986 C 53.716 179.994, 55.407 180.787, 56.332 181.750 C 57.257 182.713, 60.929 186.527, 64.492 190.227 C 68.055 193.927, 72.148 197.250, 73.587 197.611 C 78.012 198.722, 90.302 197.143, 92.192 195.221 C 93.123 194.274, 94.718 191.250, 95.738 188.500 C 97.786 182.978, 98.154 182.860, 107 184.884 C 109.475 185.450, 118.025 185.931, 126 185.953 C 138.774 185.988, 140.890 185.755, 143.774 183.996 C 145.575 182.898, 147.480 182, 148.008 182 C 148.536 182, 152.452 185.484, 156.710 189.742 L 164.452 197.484 171.521 197.841 C 181.109 198.325, 185.593 196.445, 187.712 191.052 C 189.562 186.342, 192.879 184.866, 201.748 184.810 C 210.860 184.752, 213.894 183.445, 216.076 178.640 C 217.141 176.294, 217.966 172.208, 217.978 169.210 C 217.998 164.328, 217.685 163.613, 213.910 159.912 C 209.985 156.065, 209.886 155.814, 211.438 153.702 C 216.274 147.121, 217.726 138.426, 216.187 125.260 C 215.362 118.197, 214.780 116.514, 212.120 113.484 C 210.242 111.345, 208.755 108.323, 208.358 105.837 C 207.873 102.805, 206.435 100.382, 202.885 96.613 C 191.248 84.260, 186.194 80.135, 180.689 78.500 C 177.957 77.689, 174.217 75.877, 172.377 74.474 C 165.209 69.006, 163.266 68.752, 126.500 68.457 C 107.800 68.307, 87.004 68.538, 80.288 68.969 M 328.960 77.040 C 324.925 81.075, 324.770 83.017, 324.951 127.147 C 325.169 179.984, 325.109 179.648, 335.424 186.492 C 341.730 190.677, 345.143 192, 349.631 192 C 354.650 192, 356.922 190.430, 359.131 185.436 C 360.890 181.460, 360.934 180.774, 359.601 178.195 C 358.790 176.628, 356.079 174.259, 353.575 172.931 C 346.024 168.925, 346.012 168.845, 345.924 124.230 C 345.869 96.164, 345.507 84.536, 344.610 82 C 342.428 75.833, 333.118 72.882, 328.960 77.040 M 67.223 97.557 C 65.194 98.978, 65 99.933, 65 108.522 C 65 119.978, 65.025 120, 78.279 120 C 90.513 120, 90.924 119.595, 90.639 107.861 C 90.506 102.403, 89.936 98.628, 89.092 97.611 C 87.206 95.339, 70.448 95.298, 67.223 97.557 M 114.609 97.495 C 113.191 98.568, 112.664 100.377, 112.506 104.714 C 112.390 107.896, 111.978 111.645, 111.591 113.044 C 110.117 118.369, 117.987 121.107, 130.334 119.564 C 138.928 118.490, 139.247 118.007, 138.304 107.474 L 137.500 98.500 134 97.306 C 129.006 95.603, 116.953 95.721, 114.609 97.495 M 157.780 97.363 C 156.580 98.563, 156.200 101.054, 156.199 107.721 C 156.199 112.550, 156.620 117.287, 157.135 118.250 C 157.965 119.804, 159.849 120, 173.928 120 C 187.102 120, 189.883 119.746, 190.362 118.500 C 191.347 115.932, 190.162 114.464, 179.800 105.424 C 170.362 97.190, 169.411 96.616, 164.548 96.212 C 160.716 95.895, 158.948 96.195, 157.780 97.363 M 399.310 102.006 C 395.905 102.479, 392.080 103.420, 390.810 104.098 C 383.316 108.095, 371.375 121.436, 368.931 128.543 C 366.770 134.828, 367.042 158.146, 369.354 164.803 C 370.367 167.719, 372.072 170.644, 373.142 171.303 C 374.213 171.961, 376.499 174.689, 378.223 177.366 C 380.965 181.623, 382.554 182.804, 390.928 186.812 C 399.935 191.122, 401.001 191.394, 409 191.431 C 416.799 191.467, 418.233 191.142, 426.396 187.485 C 431.288 185.293, 436.463 182.246, 437.896 180.713 C 439.328 179.181, 441.962 176.383, 443.750 174.497 C 447.663 170.367, 448.028 166.282, 444.750 163.306 C 439.412 158.458, 432.830 159.978, 423.106 168.303 C 413.926 176.162, 403.979 176.074, 395.967 168.063 C 389.900 161.995, 388.606 159.606, 389.988 157.023 C 392.015 153.234, 394.740 152.710, 411.704 152.848 C 422.973 152.939, 429.985 153.476, 434.412 154.588 C 439.876 155.961, 441.227 155.999, 443.608 154.849 C 448.331 152.567, 450.500 147.572, 450.500 138.979 C 450.500 132.533, 450.041 130.525, 447.289 124.936 C 443.148 116.523, 431.267 104.673, 425.453 103.154 C 419.554 101.613, 406.326 101.032, 399.310 102.006 M 652.120 103.025 C 647.584 103.973, 643 106.418, 643 107.890 C 643 108.354, 641.160 109.952, 638.912 111.440 C 636.177 113.250, 634.144 115.694, 632.771 118.823 C 631.642 121.395, 629.491 124.911, 627.990 126.636 C 624.467 130.685, 623.654 136.264, 624.558 150.204 C 625.304 161.713, 625.272 161.618, 632.944 175.289 C 636.023 180.775, 636.725 181.348, 646.346 186.224 C 655.826 191.028, 656.998 191.373, 664 191.418 C 670.003 191.456, 672.384 190.998, 675.928 189.122 C 681.991 185.912, 690.853 185.179, 695.929 187.468 C 700.792 189.661, 705.680 188.357, 709.467 183.857 L 712 180.847 712 144.496 L 712 108.145 709.399 106.099 C 705.395 102.949, 700.454 102.431, 694.316 104.518 C 689.181 106.263, 688.743 106.263, 681.748 104.511 C 673.436 102.429, 658.545 101.682, 652.120 103.025 M 748.657 103.436 C 744.865 104.456, 742.300 106.231, 736.833 111.619 C 728.578 119.755, 727.464 121.662, 725.494 131.026 C 723.562 140.212, 723.602 148.333, 725.633 159.500 C 727.105 167.593, 727.641 168.853, 730.947 172 C 732.969 173.925, 735.588 176.891, 736.767 178.591 C 738.455 181.026, 740.470 182.145, 746.266 183.866 C 756.317 186.850, 762.338 187.385, 770 185.978 C 782.450 183.691, 782.984 183.675, 785.045 185.540 C 787.257 187.543, 787.532 191.116, 785.858 196.101 C 784.304 200.728, 782.332 202.794, 776.783 205.608 C 769.532 209.285, 762.879 208.914, 754.333 204.355 C 745.889 199.851, 740.356 199.378, 736.666 202.845 C 733.289 206.016, 732.512 209.606, 734.532 212.690 C 736.880 216.273, 741.942 220.762, 746.167 223.007 C 754.261 227.309, 772.299 228.006, 783.934 224.466 C 788.061 223.211, 790.911 221.333, 795.786 216.657 C 799.317 213.271, 803.023 208.901, 804.023 206.946 C 807.393 200.356, 807.911 192.461, 807.808 149.175 C 807.699 103.562, 807.838 104.750, 802.440 103.396 C 801.110 103.062, 795.949 103.537, 790.971 104.451 C 782.153 106.072, 781.782 106.062, 776.423 104.057 C 769.965 101.641, 756.461 101.339, 748.657 103.436 M 850.801 103.341 C 848.217 104.069, 844.617 105.874, 842.801 107.351 C 840.985 108.828, 837.601 111.491, 835.280 113.269 C 831.970 115.803, 829.822 118.981, 825.320 128 C 819.973 138.711, 819.579 139.980, 819.581 146.500 C 819.582 152.410, 820.072 154.434, 822.729 159.500 C 824.459 162.800, 826.838 167.628, 828.016 170.228 C 831.035 176.895, 838.116 182.831, 848.599 187.485 C 856.367 190.933, 858.455 191.438, 865 191.453 C 871.853 191.469, 873.430 191.050, 883.284 186.591 C 891.108 183.052, 894.662 180.860, 896.229 178.606 C 897.418 176.898, 900.048 173.586, 902.074 171.246 C 906.686 165.922, 909.016 157.304, 908.958 145.794 C 908.899 134.410, 907.212 127.935, 902.987 122.884 C 901.069 120.591, 898.948 117.703, 898.274 116.465 C 897.600 115.227, 895.013 112.929, 892.526 111.357 C 890.039 109.786, 888.003 108.137, 888.002 107.694 C 888.001 107.250, 885.862 105.931, 883.250 104.761 C 877.275 102.086, 858.217 101.252, 850.801 103.341 M 955 102.659 C 953.625 102.929, 950.620 103.775, 948.322 104.539 C 944.673 105.752, 943.554 105.727, 939.492 104.343 C 934.093 102.503, 927.243 102.955, 923.514 105.399 C 921.003 107.044, 921 107.063, 920.817 124.273 C 920.516 152.649, 921.182 181.381, 922.186 183.304 C 923.586 185.984, 929.075 188.992, 932.576 188.996 C 935.935 189, 939.273 186.149, 940.767 182 C 941.262 180.625, 941.746 169.880, 941.843 158.122 C 942.001 138.998, 942.235 136.257, 944.063 132.122 C 947.842 123.576, 953.158 120.019, 962.172 120.006 C 966.830 119.999, 973.503 124.910, 976.364 130.451 C 978.244 134.091, 978.409 136.258, 978.452 157.951 C 978.494 178.674, 978.716 181.895, 980.298 184.793 C 983.024 189.787, 985.770 190.610, 991.296 188.093 C 993.823 186.942, 996.815 186, 997.945 186 C 999.975 186, 1000 185.618, 1000 154.070 L 1000 122.139 997.750 121.820 C 996.231 121.604, 993.948 119.146, 990.727 114.258 C 984.235 104.410, 980.854 102.682, 967.500 102.388 C 962 102.267, 956.375 102.389, 955 102.659 M 493.280 103.966 C 492.059 104.487, 490.789 105.991, 490.459 107.308 C 489.674 110.433, 492.489 120.183, 495.999 126.500 C 497.527 129.250, 499.581 135.100, 500.563 139.500 C 501.545 143.900, 503.813 150.200, 505.602 153.500 C 507.391 156.800, 509.843 163.742, 511.052 168.926 C 513.008 177.318, 513.733 178.870, 517.663 183.071 C 524.021 189.868, 526.764 190.777, 532.516 187.992 C 538.060 185.308, 539.358 183.435, 541.515 175 C 542.430 171.425, 544.239 166.176, 545.536 163.336 C 546.833 160.496, 548.622 155.668, 549.512 152.608 C 550.510 149.175, 552.103 146.278, 553.672 145.044 C 557.688 141.884, 559.544 143.702, 562.583 153.771 C 564.032 158.572, 566.036 163.850, 567.036 165.500 C 568.036 167.151, 569.781 171.876, 570.912 176 C 573.183 184.278, 575.649 187.257, 581.587 188.896 C 586.215 190.174, 588.526 189.205, 593.641 183.842 C 598.875 178.354, 600.324 175.377, 602.431 165.772 C 603.364 161.522, 605.388 155.672, 606.929 152.772 C 608.471 149.872, 610.941 142.325, 612.418 136 C 613.895 129.675, 615.860 123.375, 616.785 122 C 622.216 113.925, 623.389 107.086, 619.777 104.557 C 617.022 102.626, 607.213 102.523, 604.742 104.398 C 603.776 105.131, 602.146 108.155, 601.120 111.116 C 600.095 114.077, 598.290 118.342, 597.109 120.593 C 595.928 122.844, 594.331 128.244, 593.559 132.593 C 591.939 141.726, 591.264 143.839, 589.193 146.250 C 587.154 148.624, 584.754 148.449, 582.319 145.750 C 579.225 142.321, 573.212 127.275, 571.603 118.936 C 569.528 108.187, 568.517 106.114, 564.538 104.452 C 556.860 101.243, 547.783 103.642, 544.656 109.706 C 543.863 111.243, 542.282 116.907, 541.141 122.294 C 539.770 128.773, 537.943 134.020, 535.743 137.794 C 533.914 140.932, 531.536 145.295, 530.459 147.488 C 526.829 154.879, 522.917 152.394, 520.915 141.422 C 519.304 132.596, 510.989 107.786, 508.899 105.567 C 506.823 103.363, 497.042 102.361, 493.280 103.966 M 398.935 121.250 C 391.520 125.112, 390.196 126.807, 391.557 130.697 C 392.786 134.213, 398.245 135.829, 409 135.862 C 419.984 135.895, 423.940 134.961, 426.322 131.770 C 429.223 127.885, 427.426 125.132, 419.408 121.178 C 411.062 117.063, 406.946 117.078, 398.935 121.250 M 663.718 121.131 C 657.292 122.577, 654.377 124.705, 649.960 131.175 C 646.274 136.577, 645.641 138.288, 645.240 143.956 C 644.588 153.174, 646.078 157.566, 652.178 164.410 C 658.121 171.079, 661.846 173, 668.828 173 C 679.412 173, 689.673 161.069, 690.743 147.519 C 691.184 141.923, 690.912 140.911, 686.859 133.107 C 682.865 125.416, 682.123 124.571, 678 123.003 C 671.722 120.617, 668.107 120.143, 663.718 121.131 M 762 120.939 C 755.385 122.268, 750.547 125.651, 747.034 131.400 C 743.817 136.666, 743.189 148.295, 745.734 155.500 C 747.258 159.814, 748.392 161.090, 754 164.804 C 760.127 168.862, 760.844 169.089, 766.500 168.763 C 771.498 168.474, 773.502 167.753, 778.500 164.446 C 783.587 161.079, 784.767 159.716, 786.257 155.488 C 788.772 148.347, 788.225 138.015, 784.986 131.500 C 783.028 127.563, 781.437 125.941, 777.500 123.869 C 771.741 120.839, 766.978 119.938, 762 120.939 M 855.155 123.694 C 851.484 124.992, 850.061 126.376, 845.994 132.607 C 838.952 143.394, 838.698 147.095, 844.275 157.735 C 846.444 161.874, 848.495 163.942, 854.074 167.618 C 860.820 172.062, 861.370 172.242, 866.583 171.704 C 870.875 171.261, 873.093 170.326, 876.992 167.320 C 879.718 165.219, 882.880 162.825, 884.019 162 C 888.268 158.923, 890.584 144.350, 887.943 137.315 C 886.519 133.521, 878.263 125.104, 874.282 123.388 C 870.115 121.591, 860.677 121.742, 855.155 123.694" stroke="none" fill="#ffffff" fill-rule="evenodd"/>
</svg>