<svg xmlns="http://www.w3.org/2000/svg" width="1000" height="810" viewBox="0 0 1000 810" version="1.1">
	<path d="M 462 62.480 C 459.525 63.225, 454.350 64.292, 450.500 64.849 C 441.597 66.138, 431.967 68.412, 429.245 69.869 C 428.082 70.491, 426.259 71, 425.193 71 C 423.438 71, 419.270 72.567, 410.349 76.582 C 408.616 77.362, 406.710 78, 406.113 78 C 405.517 78, 402.435 79.338, 399.265 80.973 C 396.094 82.609, 392.375 84.428, 391 85.016 C 389.625 85.605, 387.600 86.629, 386.500 87.293 C 385.400 87.957, 381.887 90.010, 378.693 91.856 C 367.654 98.236, 350.061 111.143, 342.441 118.455 C 340.695 120.130, 337.294 123.345, 334.883 125.600 C 332.472 127.856, 328.475 132.111, 326 135.057 C 323.525 138.003, 319.897 142.233, 317.939 144.457 C 313.068 149.987, 305.098 160.704, 303.899 163.337 C 302.826 165.693, 301.806 167.414, 297.876 173.500 C 296.455 175.700, 294.074 180.079, 292.583 183.230 C 291.093 186.382, 289.452 189.221, 288.937 189.539 C 288.422 189.857, 288 190.811, 288 191.658 C 288 192.505, 287.358 194.616, 286.572 196.349 C 282.111 206.196, 281 209.081, 281 210.823 C 281 211.886, 280.325 213.315, 279.500 214 C 278.675 214.685, 278 216.562, 278 218.172 C 278 219.782, 277.350 222.357, 276.555 223.893 C 275.761 225.430, 274.799 229.120, 274.419 232.094 C 274.039 235.067, 273.114 238.715, 272.364 240.200 C 271.614 241.686, 271 245.566, 271 248.825 C 271 252.083, 270.325 256.662, 269.500 259 C 267.620 264.329, 267.317 306.160, 269.125 310.685 C 269.744 312.233, 270.590 317.329, 271.004 322.009 C 271.418 326.689, 272.487 332.667, 273.379 335.294 C 274.270 337.921, 275 341.592, 275 343.452 C 275 345.312, 275.443 346.983, 275.985 347.167 C 276.527 347.350, 277.384 349.525, 277.889 352 C 278.870 356.802, 280.429 361.639, 282.562 366.500 C 283.286 368.150, 284.806 371.613, 285.939 374.195 C 287.073 376.777, 288 379.563, 288 380.386 C 288 381.209, 288.422 382.143, 288.937 382.461 C 289.452 382.779, 291.035 385.496, 292.455 388.497 C 293.875 391.499, 296.326 395.878, 297.901 398.228 C 299.475 400.577, 301.609 404.075, 302.641 406 C 305.397 411.138, 311.846 420.628, 313.536 422.029 C 314.341 422.698, 315 423.611, 315 424.058 C 315 425.995, 342.395 454.304, 350 460.225 C 360.922 468.730, 375.096 478.628, 378.473 480.107 C 379.588 480.596, 381.175 481.421, 382 481.941 C 387.358 485.320, 396.319 490, 397.431 490 C 398.159 490, 399.315 490.675, 400 491.500 C 400.685 492.325, 402.260 493, 403.500 493 C 404.740 493, 406.305 493.663, 406.978 494.474 C 407.651 495.284, 409.843 496.244, 411.850 496.607 C 413.858 496.970, 416.715 497.882, 418.200 498.634 C 419.686 499.385, 421.936 500.014, 423.200 500.032 C 424.465 500.049, 426.374 500.724, 427.441 501.532 C 428.509 502.339, 430.771 503, 432.469 503 C 434.166 503, 436.443 503.619, 437.527 504.376 C 438.612 505.133, 442.425 506.083, 446 506.488 C 449.575 506.892, 453.015 507.638, 453.643 508.145 C 457.474 511.236, 517.335 511.597, 529.054 508.600 C 532.049 507.834, 536.975 506.883, 540 506.486 C 543.025 506.090, 546.715 505.143, 548.200 504.383 C 549.686 503.622, 552.668 503, 554.828 503 C 557.099 503, 559.280 502.367, 560 501.500 C 560.685 500.675, 562.454 500, 563.931 500 C 565.409 500, 567.491 499.339, 568.559 498.532 C 569.626 497.724, 571.087 497.049, 571.805 497.032 C 574.699 496.961, 598.771 485.240, 607.167 479.813 C 610.412 477.716, 613.679 476, 614.427 476 C 615.174 476, 616.045 475.325, 616.362 474.500 C 616.678 473.675, 617.450 473, 618.077 473 C 619.735 473, 645.048 452.780, 645.833 450.829 C 646.017 450.373, 646.614 450, 647.162 450 C 648.617 450, 658.307 439.538, 665.500 430.202 C 666.050 429.488, 667.198 428.138, 668.051 427.202 C 670.721 424.274, 679.579 412.573, 680.318 411 C 680.705 410.175, 681.920 408.150, 683.018 406.500 C 684.116 404.850, 686.180 401.250, 687.604 398.500 C 689.028 395.750, 691.264 391.700, 692.573 389.500 C 693.882 387.300, 695.416 384.375, 695.983 383 C 696.550 381.625, 697.614 379.375, 698.348 378 C 699.082 376.625, 700.713 372.678, 701.971 369.229 C 703.230 365.780, 704.651 362.716, 705.130 362.420 C 705.608 362.124, 706.010 360.671, 706.022 359.191 C 706.034 357.711, 706.934 354.538, 708.022 352.141 C 709.110 349.743, 710.016 346.368, 710.035 344.641 C 710.055 342.913, 710.714 340.375, 711.500 339 C 712.286 337.625, 712.945 334.894, 712.965 332.932 C 712.984 330.969, 713.769 326.919, 714.710 323.932 C 716.175 319.275, 716.424 313.789, 716.450 285.500 C 716.477 256.435, 716.274 251.978, 714.741 248.124 C 713.783 245.718, 712.984 241.893, 712.965 239.624 C 712.945 237.356, 712.286 234.375, 711.500 233 C 710.714 231.625, 710.040 229.150, 710.002 227.500 C 709.963 225.850, 709.063 222.700, 708 220.500 C 706.937 218.300, 706.053 215.289, 706.034 213.809 C 706.015 212.329, 705.600 210.871, 705.111 210.568 C 704.622 210.266, 703.931 208.777, 703.576 207.259 C 703.221 205.742, 702.331 203.150, 701.597 201.500 C 699.103 195.893, 692.753 182.506, 691.872 181 C 691.390 180.175, 690.544 178.453, 689.994 177.174 C 689.443 175.895, 687.644 172.889, 685.996 170.494 C 684.348 168.099, 683 165.842, 683 165.478 C 683 165.113, 682.212 163.784, 681.250 162.523 C 680.288 161.263, 678.825 159.235, 678 158.017 C 664.647 138.303, 640.583 114.170, 621.515 101.370 C 611.328 94.531, 608.325 92.577, 605.272 90.798 C 602.464 89.162, 586.496 81.213, 582.500 79.462 C 580.850 78.739, 577.925 77.459, 576 76.618 C 570.507 74.218, 563.820 71.911, 560 71.096 C 558.075 70.686, 555.517 69.821, 554.316 69.175 C 553.114 68.529, 550.767 68, 549.100 68 C 547.432 68, 544.590 67.365, 542.784 66.590 C 540.978 65.814, 536.350 64.736, 532.500 64.193 C 528.650 63.651, 523.700 62.721, 521.500 62.128 C 515.423 60.487, 467.675 60.769, 462 62.480 M 471 107.043 C 467.425 107.460, 462.928 108.296, 461.007 108.901 C 459.085 109.505, 455.935 110.016, 454.007 110.035 C 452.078 110.055, 449.375 110.714, 448 111.500 C 446.625 112.286, 444.138 112.945, 442.473 112.965 C 440.807 112.984, 438.557 113.618, 437.473 114.372 C 436.388 115.127, 433.940 116.084, 432.033 116.499 C 430.126 116.915, 427.876 117.619, 427.033 118.064 C 426.190 118.510, 423.250 119.856, 420.500 121.056 C 417.750 122.255, 414.825 123.618, 414 124.084 C 413.175 124.550, 409.688 126.359, 406.250 128.103 C 402.813 129.847, 400 131.663, 400 132.137 C 400 132.612, 399.545 133, 398.990 133 C 396.414 133, 373.713 150.497, 366.360 158.150 C 351.995 173.101, 340.408 188.481, 336.903 197.250 C 336.299 198.762, 335.505 200, 335.138 200 C 334.772 200, 333.423 202.363, 332.140 205.250 C 330.858 208.137, 329.398 211.175, 328.898 212 C 328.397 212.825, 327.735 214.175, 327.426 215 C 327.117 215.825, 325.995 218.425, 324.932 220.777 C 323.869 223.129, 323 226.080, 323 227.336 C 323 228.591, 322.339 230.491, 321.532 231.559 C 320.724 232.626, 320.049 234.760, 320.032 236.300 C 320.014 237.839, 319.371 240.315, 318.603 241.801 C 317.835 243.286, 316.884 247.202, 316.490 250.501 C 316.096 253.800, 315.150 258.957, 314.387 261.960 C 312.399 269.784, 312.471 302.937, 314.489 309.591 C 315.308 312.291, 315.983 316.621, 315.989 319.213 C 315.995 321.805, 316.900 326.209, 318 329 C 319.100 331.791, 320 335.096, 320 336.346 C 320 337.595, 320.661 339.491, 321.468 340.559 C 322.276 341.626, 322.951 343.651, 322.968 345.059 C 322.986 346.466, 323.661 348.491, 324.468 349.559 C 325.276 350.626, 325.951 352.090, 325.968 352.811 C 326.017 354.833, 333.789 370.898, 337.071 375.761 C 338.682 378.147, 340 380.307, 340 380.560 C 340 381.800, 358.869 407.275, 360.199 407.832 C 360.635 408.015, 363.806 411.091, 367.246 414.668 C 374.222 421.922, 385.921 431.321, 396.500 438.169 C 405.393 443.926, 424.411 453.115, 433.500 456.046 C 437.350 457.288, 442.075 458.858, 444 459.537 C 453.095 462.741, 475.801 465.890, 491 466.055 C 504.010 466.196, 523.653 464.372, 528.500 462.573 C 530.700 461.756, 533.850 461.052, 535.500 461.008 C 537.150 460.965, 539.625 460.286, 541 459.500 C 542.375 458.714, 544.625 458.040, 546 458.002 C 547.375 457.963, 550.300 457.063, 552.500 456 C 554.700 454.937, 557.026 454.053, 557.669 454.034 C 558.716 454.004, 562.889 452.121, 567 449.825 C 567.825 449.364, 569.175 448.725, 570 448.405 C 576.157 446.016, 583.587 441.826, 591.994 436 C 595.566 433.525, 599.234 431.050, 600.145 430.500 C 603.518 428.464, 618.677 415.060, 624.038 409.374 C 627.084 406.143, 632.804 399, 636.749 393.500 C 640.694 388, 644.839 382.304, 645.961 380.842 C 647.082 379.380, 648 377.715, 648 377.142 C 648 376.569, 649.317 374.148, 650.928 371.762 C 652.538 369.376, 654.157 366.222, 654.526 364.753 C 654.895 363.284, 655.827 361.558, 656.598 360.919 C 657.369 360.279, 658 359.005, 658 358.089 C 658 357.173, 658.900 354.658, 660 352.500 C 661.100 350.342, 662 347.799, 662 346.848 C 662 345.896, 662.411 344.864, 662.913 344.554 C 663.415 344.243, 664.143 342.079, 664.531 339.745 C 664.919 337.410, 665.858 334.285, 666.618 332.800 C 667.378 331.314, 668 328.557, 668 326.672 C 668 324.787, 668.675 321.629, 669.500 319.654 C 670.325 317.680, 671.027 313.237, 671.060 309.782 C 671.092 306.327, 671.525 301.250, 672.021 298.500 C 673.193 292.001, 671.354 259.191, 669.438 252.412 C 668.647 249.614, 668 246.104, 668 244.612 C 668 243.121, 667.385 240.686, 666.634 239.200 C 665.882 237.715, 664.945 234.723, 664.551 232.551 C 664.157 230.379, 663.197 227.692, 662.417 226.579 C 661.638 225.466, 661 223.616, 661 222.469 C 661 221.321, 660.339 219.509, 659.532 218.441 C 658.724 217.374, 658.049 215.543, 658.032 214.372 C 658.014 213.202, 657.354 211.709, 656.564 211.053 C 655.775 210.398, 654.840 208.548, 654.487 206.942 C 654.135 205.337, 653.470 203.790, 653.010 203.506 C 652.549 203.222, 651.151 200.854, 649.901 198.244 C 647.245 192.699, 644.020 187.833, 642.250 186.700 C 641.563 186.260, 641 185.023, 641 183.950 C 641 182.878, 640.564 182, 640.032 182 C 639.500 182, 638.487 180.934, 637.782 179.630 C 635.294 175.032, 618.100 156.347, 610.500 149.982 C 608.850 148.600, 604.125 144.888, 600 141.732 C 595.875 138.576, 592.045 135.628, 591.488 135.180 C 588.757 132.983, 568.566 122.467, 559.500 118.520 C 555.345 116.712, 543.633 113, 542.081 113 C 541.378 113, 539.384 112.386, 537.651 111.636 C 534.797 110.400, 531.057 109.616, 515.500 106.990 C 509.409 105.962, 479.962 105.997, 471 107.043 M 391 201.872 L 391 215.744 395.012 216.386 C 399.957 217.177, 406.064 222.435, 408.942 228.379 C 410.950 232.529, 411 234.099, 411 293.500 C 411 354.107, 410.991 354.388, 408.807 358.898 C 406.599 363.460, 402.461 367.910, 400.372 367.968 C 399.752 367.986, 398.707 368.648, 398.049 369.441 C 397.392 370.233, 395.649 371.020, 394.177 371.191 L 391.500 371.500 391.230 392.250 L 390.959 413 475.421 413 C 532.313 413, 560.090 412.664, 560.519 411.970 C 561.306 410.695, 561.243 349.202, 560.453 347.923 C 559.694 346.697, 545.823 346.737, 542.565 347.975 C 541.154 348.512, 540 349.604, 540 350.404 C 540 352.039, 539.353 352.741, 532.277 358.792 C 526.653 363.601, 522.047 366.194, 514.079 369.036 C 509.379 370.712, 505.677 370.984, 486.260 371.082 C 473.941 371.145, 463.650 370.984, 463.391 370.725 C 463.132 370.466, 462.947 338.818, 462.980 300.396 L 463.039 230.539 465.384 227.020 C 469.273 221.183, 473.054 218.045, 477.900 216.633 L 482.500 215.293 482.778 201.647 L 483.056 188 437.028 188 L 391 188 391 201.872 M 45.243 683.741 L 45.500 752.500 95.631 752.759 C 142.787 753.003, 145.784 752.914, 146.131 751.259 C 146.334 750.292, 146.359 744.663, 146.186 738.750 L 145.871 728 115.186 727.986 C 98.309 727.979, 83.487 727.701, 82.250 727.370 C 80.046 726.779, 80 726.466, 80 712.058 C 80 691.582, 77.548 693.120, 109.846 693.333 C 123.786 693.425, 135.543 693.275, 135.972 693 C 136.401 692.725, 136.696 687.775, 136.626 682 L 136.500 671.500 108.500 671 L 80.500 670.500 80.223 656.929 C 79.976 644.812, 80.143 643.181, 81.786 641.694 C 83.406 640.228, 87.366 639.997, 114.920 639.765 L 146.215 639.500 146.215 627.500 L 146.215 615.500 95.600 615.241 L 44.986 614.982 45.243 683.741 M 227.809 615.750 C 227.639 616.163, 227.619 647.212, 227.764 684.750 L 228.027 753 273.514 753 L 319 753 319 740.500 L 319 728 291.559 728 C 274.651 728, 263.885 727.623, 263.510 727.016 C 263.176 726.476, 262.935 701.051, 262.975 670.516 L 263.047 615 245.583 615 C 235.977 615, 227.979 615.337, 227.809 615.750 M 597 683.425 C 597 741.556, 597.215 752.021, 598.421 752.700 C 599.202 753.140, 606.211 753.275, 613.996 753 L 628.151 752.500 628.074 684 L 627.998 615.500 612.499 615.225 L 597 614.949 597 683.425 M 512 642.301 C 511.725 642.579, 507.285 643.315, 502.133 643.937 C 496.982 644.560, 491.492 645.729, 489.933 646.535 C 488.374 647.341, 486.289 648, 485.300 648.001 C 482.428 648.003, 473.276 657.533, 470.641 663.264 C 469.317 666.144, 467.662 670.975, 466.964 674 C 465.303 681.196, 464.520 718.716, 465.994 720.493 C 466.585 721.205, 467.350 724.156, 467.692 727.051 C 468.035 729.945, 469.347 734.158, 470.607 736.413 C 473.376 741.368, 482.161 750, 484.434 750 C 485.334 750, 487.067 750.622, 488.285 751.381 C 494.911 755.513, 550.690 755.488, 554.123 751.352 C 554.740 750.608, 555.977 749.982, 556.872 749.959 C 559.105 749.904, 564.174 745.265, 566.853 740.825 C 569.591 736.288, 572.042 727.146, 572.303 720.500 L 572.500 715.500 558.853 715.222 L 545.205 714.945 543.103 719.288 C 541.946 721.677, 541 724.311, 541 725.141 C 541 731.071, 523.146 735.957, 512.116 733.045 C 510.127 732.520, 507.282 731.842, 505.793 731.537 C 501.817 730.724, 497.248 725.269, 495.291 719 C 493.202 712.310, 492.761 685.836, 494.672 681.909 C 495.317 680.584, 496.092 678.375, 496.396 677 C 497.411 672.395, 503.413 666.870, 508.694 665.679 C 514.604 664.346, 525.080 664.358, 530.685 665.703 C 535.128 666.770, 540.997 671.487, 541.004 673.997 C 541.006 674.824, 541.831 676.850, 542.837 678.500 L 544.666 681.500 557.649 681.423 C 564.790 681.380, 571.165 681.016, 571.816 680.614 C 573.431 679.615, 573.303 675.969, 571.500 671.654 C 570.675 669.680, 570 666.947, 570 665.582 C 570 662.755, 565.537 655.732, 561.335 651.946 C 556.786 647.848, 549.193 645.123, 539 643.930 C 526.850 642.507, 512.646 641.651, 512 642.301 M 912.994 642.322 C 912.715 642.610, 907.884 643.353, 902.258 643.972 C 895.701 644.693, 890.076 645.961, 886.587 647.504 C 880.792 650.067, 871 659.150, 871 661.963 C 871 662.863, 870.438 664.161, 869.750 664.846 C 866.841 667.747, 864.221 691.673, 865.079 707.500 C 866.150 727.234, 869.655 737.648, 877.689 744.960 C 883.376 750.135, 887.787 751.779, 901 753.645 C 911.232 755.089, 931.543 754.992, 946.216 753.428 C 957.501 752.225, 967.509 744.465, 969.556 735.331 C 969.904 733.774, 970.852 730.669, 971.661 728.432 C 972.471 726.194, 972.990 722.369, 972.816 719.932 L 972.500 715.500 958.729 715.222 C 946.265 714.970, 944.906 715.112, 944.401 716.722 C 944.094 717.700, 943.203 719.694, 942.422 721.154 C 941.640 722.614, 941 724.448, 941 725.230 C 941 729.424, 930.036 734.032, 920.201 733.971 C 917.616 733.955, 912.499 733.122, 908.830 732.120 C 896.544 728.764, 893.500 722.068, 893.500 698.403 C 893.500 688.635, 893.901 682.810, 894.635 681.903 C 895.259 681.131, 896.101 678.925, 896.508 677 C 897.346 673.031, 903.088 667.242, 907 666.424 C 908.375 666.136, 911.116 665.425, 913.090 664.843 C 916.806 663.748, 923.341 664.094, 930.818 665.782 C 935.294 666.792, 941 671.296, 941 673.819 C 941 674.614, 941.889 676.703, 942.976 678.462 L 944.953 681.660 958.226 681.368 C 965.527 681.208, 971.837 681.059, 972.250 681.038 C 973.542 680.972, 973.068 674.407, 971.500 670.654 C 970.675 668.680, 970 666.132, 970 664.992 C 970 661.683, 960.112 649, 957.532 649 C 956.948 649, 954.850 648.132, 952.870 647.070 C 948.138 644.534, 914.702 640.552, 912.994 642.322 M 367.880 644.047 C 363.138 644.469, 357.873 645.531, 356.179 646.407 C 354.485 647.283, 352.267 648, 351.249 648 C 349.206 648, 338 657.516, 338 659.251 C 338 659.851, 337.323 661.090, 336.496 662.005 C 335.669 662.919, 334.104 667.004, 333.019 671.083 C 331.339 677.404, 331.049 681.751, 331.059 700.500 C 331.068 717.721, 331.381 723.043, 332.500 725 C 333.286 726.375, 333.945 728.576, 333.965 729.890 C 333.984 731.205, 335.012 734.316, 336.250 736.804 C 338.617 741.562, 346.333 749.996, 348.329 750.006 C 348.973 750.010, 350.766 750.673, 352.314 751.480 C 353.862 752.288, 357.360 753.244, 360.087 753.606 C 362.814 753.968, 365.286 754.654, 365.581 755.132 C 365.877 755.609, 375.536 756, 387.048 756 C 405.261 756, 408.985 755.725, 415.739 753.881 C 420.007 752.715, 425.111 750.945, 427.081 749.947 C 433.926 746.478, 440 735.457, 440 726.508 L 440 721.271 425.750 721.385 C 411.660 721.499, 411.496 721.526, 411.172 723.811 C 410.992 725.082, 410.205 726.368, 409.422 726.668 C 408.640 726.968, 408 727.818, 408 728.556 C 408 729.294, 406.348 731.159, 404.328 732.699 C 400.698 735.468, 400.494 735.499, 386.578 735.445 C 373.048 735.393, 372.335 735.286, 368.271 732.696 C 362.918 729.285, 360.656 724.716, 359.102 714.178 C 358.155 707.759, 358.146 705.529, 359.060 704.428 C 360.050 703.234, 366.790 703, 400.122 703 L 440 703 439.956 691.250 C 439.928 683.640, 439.404 678.091, 438.471 675.500 C 437.679 673.300, 437.023 670.276, 437.015 668.781 C 437.007 667.285, 436.030 664.135, 434.845 661.781 C 432.377 656.879, 425.231 649, 423.252 649 C 422.520 649, 420.188 648.116, 418.070 647.036 C 411.606 643.738, 387.476 642.301, 367.880 644.047 M 692 644.161 C 671.845 646.047, 661.187 653.507, 657.224 668.500 C 654.071 680.432, 653.775 683.905, 654.284 703.101 C 654.954 728.392, 657.552 738.038, 665.765 745.734 C 673.818 753.280, 682.333 755.200, 709.924 755.694 C 727.532 756.009, 732.034 755.804, 735.195 754.539 C 737.310 753.692, 740.494 752.989, 742.270 752.975 C 744.355 752.958, 747.438 751.602, 750.964 749.151 C 757.966 744.283, 762.642 735.895, 763.156 727.282 L 763.500 721.500 749 721.500 C 734.840 721.500, 734.493 721.551, 734.188 723.691 C 734.017 724.896, 732.217 727.737, 730.188 730.004 C 726.756 733.839, 725.980 734.198, 719 735.168 C 714.875 735.741, 707.966 735.923, 703.648 735.573 C 690.101 734.474, 684.526 729.942, 682.893 718.701 C 682.398 715.290, 681.717 711.033, 681.381 709.241 C 680.179 702.827, 679.025 703, 723.122 703 L 763 703 763 690.468 C 763 681.590, 762.563 676.889, 761.500 674.346 C 760.675 672.371, 760 669.262, 760 667.437 C 760 665.612, 759.543 663.836, 758.985 663.491 C 758.427 663.146, 757.363 661.411, 756.622 659.637 C 754.883 655.477, 747.096 648.025, 744.473 648.011 C 743.357 648.005, 741.557 647.394, 740.473 646.654 C 739.306 645.857, 732.758 644.836, 724.448 644.154 C 708.855 642.874, 705.749 642.874, 692 644.161 M 788.413 643.917 C 788.186 644.146, 788 668.795, 788 698.692 L 788 753.051 803.750 752.775 L 819.500 752.500 819.764 720.649 C 819.982 694.401, 820.290 688.424, 821.514 686.676 C 822.331 685.510, 823 683.785, 823 682.844 C 823 681.903, 825.167 678.908, 827.816 676.189 C 831.733 672.168, 833.624 671.032, 837.946 670.105 C 840.868 669.478, 845.451 669.256, 848.130 669.612 L 853 670.258 853 656.629 L 853 643 850.549 643 C 841.648 643, 829.648 648.741, 825.500 654.984 C 823.480 658.025, 820.162 659.054, 819.808 656.750 C 819.702 656.063, 819.590 653.025, 819.558 650 L 819.500 644.500 804.163 644 C 795.728 643.725, 788.640 643.688, 788.413 643.917 M 376.500 663.713 C 375.400 663.978, 374.072 664.600, 373.550 665.097 C 373.028 665.594, 371.649 666, 370.487 666 C 368.337 666, 364.650 669.418, 361.768 674.083 C 359.835 677.212, 358.619 685.015, 359.792 686.768 C 360.447 687.747, 366.310 687.975, 385.570 687.768 L 410.500 687.500 410.821 683.571 C 411.197 678.971, 408.653 672.539, 405.111 669.136 C 400.141 664.361, 385.414 661.569, 376.500 663.713 M 696.104 664.947 C 689.982 667.224, 687.481 669.188, 685.220 673.498 C 683.095 677.546, 681.950 685.174, 683.230 686.750 C 684.834 688.725, 732.316 688.529, 733.966 686.541 C 737.352 682.461, 728.683 666, 723.148 666 C 722.187 666, 720.896 665.496, 720.279 664.879 C 719.662 664.262, 715.185 663.574, 710.329 663.349 C 703.233 663.021, 700.441 663.334, 696.104 664.947" stroke="none" fill="#ffffff" fill-rule="evenodd"/>
</svg>