<svg xmlns="http://www.w3.org/2000/svg" width="1000" height="521" viewBox="0 0 1000 521" version="1.1">
	<path d="M 496.878 18.115 C 489.386 18.568, 479.036 19.906, 473.878 21.090 C 460.357 24.191, 457.018 24.755, 442.128 26.446 C 424.540 28.444, 418.874 30.861, 415.710 37.713 C 413.517 42.463, 413.500 42.915, 413.500 96 C 413.500 153.230, 413.748 156.535, 418.466 162.142 C 419.758 163.677, 421.818 167.986, 423.045 171.717 C 426.238 181.428, 428.226 184.910, 433.481 190 C 436.036 192.475, 439.091 196.206, 440.271 198.292 C 441.500 200.466, 444.520 203.379, 447.347 205.119 C 450.060 206.788, 454.356 210.286, 456.895 212.892 C 460.214 216.300, 463.524 218.421, 468.677 220.443 C 473.151 222.198, 477.498 224.818, 480.250 227.417 C 484.241 231.187, 485.611 231.785, 494.778 233.758 C 501.956 235.303, 507.399 237.254, 513.493 240.468 C 521.249 244.559, 522.749 245, 528.894 245 C 537.163 245, 541.152 243.760, 546.850 239.416 C 549.637 237.291, 553.229 235.700, 556.850 234.987 C 568.758 232.640, 573.323 230.898, 576.442 227.513 C 578.128 225.683, 583.314 222.411, 588 220.221 C 593.849 217.488, 597.794 214.843, 600.650 211.741 C 602.932 209.262, 606.548 206.462, 608.685 205.519 C 611.232 204.395, 613.778 202.029, 616.073 198.652 C 617.999 195.818, 621.317 192.375, 623.447 191 C 626.428 189.075, 628.107 186.775, 630.746 181 C 632.631 176.875, 635.640 171.700, 637.431 169.500 C 642.130 163.730, 642.711 162.310, 643.916 153.651 C 645.374 143.164, 645.378 49.413, 643.920 41.527 C 641.848 30.318, 639.648 29.185, 613.875 26.046 C 604.731 24.933, 592.575 22.895, 586.862 21.518 C 570.270 17.520, 531.184 16.042, 496.878 18.115 M 512.500 35.011 C 508.650 35.406, 496.500 36.704, 485.500 37.894 C 474.500 39.084, 460.522 40.414, 454.439 40.849 C 446.148 41.441, 442.196 42.211, 438.661 43.922 C 430.275 47.982, 430.540 46.310, 430.211 97.124 C 429.958 136.291, 430.121 142.283, 431.545 146.124 C 432.437 148.531, 434.869 155.480, 436.950 161.566 C 441.552 175.029, 442.057 175.977, 445.962 178.500 C 447.665 179.600, 450.360 182.795, 451.953 185.600 C 453.880 188.995, 456.032 191.262, 458.391 192.381 C 460.339 193.306, 463.798 196.273, 466.077 198.976 C 468.356 201.679, 471.407 204.161, 472.860 204.493 C 474.312 204.825, 477.300 206.417, 479.500 208.031 C 486.466 213.142, 487.587 213.500, 490.543 211.564 C 496.178 207.872, 496.199 207.633, 496.356 145.690 L 496.500 88.823 498.997 86.801 C 501.184 85.031, 502.553 84.835, 509.997 85.226 C 517.544 85.624, 519.399 86.138, 526.500 89.803 C 534.496 93.930, 535.499 94.178, 559.707 98.022 C 569.306 99.546, 575.400 102.631, 575.809 106.174 C 576.130 108.948, 573.133 115.860, 570.823 117.672 C 568.616 119.404, 563.090 120.968, 550.366 123.462 C 534.324 126.607, 525.968 131.007, 521.256 138.790 C 519.037 142.455, 519.010 142.939, 519.005 179.054 L 519 215.608 521.959 220.275 C 523.696 223.013, 525.922 225.193, 527.345 225.550 C 528.762 225.906, 533.060 225.120, 537.680 223.661 C 542.029 222.287, 548.490 220.636, 552.037 219.993 C 560.558 218.448, 564.449 216.731, 569.245 212.398 C 573.013 208.993, 582.140 204.031, 584.672 204.010 C 585.317 204.004, 587.567 202.027, 589.672 199.615 C 591.777 197.204, 595.408 194.051, 597.740 192.609 C 600.072 191.167, 603.169 188.190, 604.623 185.993 C 606.077 183.796, 608.821 181.038, 610.720 179.864 C 613.233 178.311, 615.066 175.790, 617.449 170.615 C 619.250 166.702, 621.919 162.401, 623.380 161.059 C 629.428 155.500, 630.355 143.977, 629.268 87.854 C 628.564 51.522, 628.348 48.040, 626.676 46.194 C 624.293 43.562, 614.133 41.271, 601.500 40.518 C 589.446 39.800, 566.438 37.457, 551.818 35.459 C 540.759 33.948, 524.650 33.765, 512.500 35.011 M 212.250 293.031 C 206.654 295.280, 211.985 298.569, 218.925 297.149 C 223.683 296.176, 223.857 294.332, 219.312 293.070 C 214.914 291.848, 215.189 291.850, 212.250 293.031 M 450.500 292.491 C 449.950 292.675, 448.262 293.098, 446.750 293.432 C 443.061 294.245, 443.284 295.167, 447.740 297.523 C 449.797 298.610, 453.209 301.049, 455.324 302.942 C 457.986 305.326, 459.549 306.094, 460.408 305.442 C 463.436 303.142, 474.221 296.090, 475.304 295.702 C 477.282 294.994, 475.342 293.797, 470.790 292.917 C 466.630 292.112, 452.523 291.817, 450.500 292.491 M 544.068 293.120 C 539.122 294.131, 537.354 298.211, 540.498 301.355 C 541.829 302.686, 542.730 302.471, 548.571 299.427 C 552.187 297.542, 556.463 296, 558.073 296 C 559.683 296, 561 295.613, 561 295.141 C 561 293.882, 547.953 292.325, 544.068 293.120 M 772.861 293.937 C 770.942 295.512, 770.706 296.214, 771.602 297.687 C 772.208 298.684, 773.682 299.645, 774.878 299.823 C 777.499 300.212, 790 296.197, 790 294.965 C 790 293.783, 783.335 292.012, 778.861 292.006 C 776.733 292.002, 774.241 292.805, 772.861 293.937 M 858.250 293.491 C 855.452 294.707, 855 295.401, 855 298.483 C 855 302.953, 856.929 303.843, 860.681 301.105 C 862.232 299.974, 865.953 298.430, 868.950 297.673 C 871.948 296.916, 874.564 295.809, 874.762 295.213 C 875.184 293.949, 868.855 291.996, 864.500 292.045 C 862.850 292.063, 860.038 292.714, 858.250 293.491 M 117.102 294.898 C 115.556 296.444, 115.058 299.118, 114.357 309.643 C 112.562 336.567, 113.807 355.898, 117.261 354.746 C 118.191 354.436, 121.230 344.281, 122.999 335.570 C 123.937 330.953, 122.909 322.620, 120.494 315.257 C 118.367 308.772, 119.079 304.232, 122.762 300.797 C 127.046 296.802, 129.530 295.925, 136.008 296.120 C 141.875 296.296, 144.041 295.707, 142.649 294.316 C 142.273 293.940, 136.796 293.492, 130.477 293.321 C 120.301 293.046, 118.774 293.226, 117.102 294.898 M 957.571 294.571 C 954.648 297.495, 955.710 298.310, 961.642 297.697 C 967.507 297.092, 969.702 295.945, 968.554 294.087 C 967.514 292.404, 959.380 292.763, 957.571 294.571 M 361.124 300.768 C 359.223 304.321, 358.842 309.436, 360.328 311.451 C 361.427 312.940, 363.007 313.414, 367.007 313.451 C 373.003 313.507, 374.712 311.971, 373.596 307.527 C 371.990 301.126, 363.418 296.482, 361.124 300.768 M 196.982 307.548 C 195.791 310.680, 198.109 317, 200.449 317 C 201.616 317, 202 315.907, 202 312.582 C 202 310.152, 201.727 307.452, 201.393 306.582 C 200.467 304.169, 198.066 304.695, 196.982 307.548 M 883.573 308.167 C 882.028 312.985, 878 330.487, 878 332.385 C 878 333.653, 878.941 335.541, 880.090 336.582 C 882.059 338.363, 882.254 338.373, 883.442 336.749 C 884.136 335.800, 885.073 331.081, 885.524 326.262 C 886.759 313.082, 886.682 307.742, 885.251 307.257 C 884.563 307.024, 883.809 307.434, 883.573 308.167 M 949.536 316.885 C 948.488 320.188, 950.966 324, 954.161 324 C 956.449 324, 957 323.558, 957 321.723 C 957 316.523, 950.905 312.573, 949.536 316.885 M 855.349 318.500 C 854.911 319.600, 854.540 325.539, 854.526 331.697 C 854.490 347.397, 856.358 348.770, 862.073 337.245 C 864.148 333.061, 864.153 332.896, 862.403 327.332 C 861.425 324.220, 859.616 320.510, 858.385 319.087 C 856.227 316.593, 856.118 316.572, 855.349 318.500 M 540.138 320.750 C 538.738 323.379, 537.873 335.018, 538.782 339 C 540.612 347.010, 547.594 339.765, 546.625 330.863 C 546.040 325.483, 543.559 319, 542.086 319 C 541.527 319, 540.651 319.788, 540.138 320.750 M 348.073 329.635 C 346.649 331.445, 346 333.729, 346 336.935 C 346 341.757, 347.258 344, 349.963 344 C 352.651 344, 362.149 337.009, 361.810 335.280 C 361.513 333.760, 352.657 327, 350.963 327 C 350.513 327, 349.212 328.186, 348.073 329.635 M 371 330.584 C 368.525 332.545, 366.359 334.539, 366.186 335.016 C 365.551 336.770, 372.438 339.187, 379.617 339.730 C 387.481 340.325, 388.066 339.947, 385.880 335.684 C 384.126 332.263, 378.770 326.999, 377.054 327.010 C 376.199 327.015, 373.475 328.624, 371 330.584 M 222.311 335.633 C 221.475 337.809, 224.199 345.095, 226.348 346.435 C 227.641 347.241, 228.290 347.135, 229.013 346 C 230.371 343.871, 230.228 336.628, 228.800 335.200 C 227.060 333.460, 223.041 333.728, 222.311 335.633 M 977.195 345.750 C 977.451 349.732, 977.823 350.500, 979.500 350.500 C 982.197 350.500, 982.798 345.539, 980.420 342.912 C 977.696 339.901, 976.867 340.631, 977.195 345.750 M 32.673 346.144 C 32.364 347.323, 32.705 349.686, 33.429 351.394 L 34.746 354.500 35.481 351.750 C 36.293 348.714, 35.452 344, 34.098 344 C 33.622 344, 32.981 344.965, 32.673 346.144 M 389 345.335 C 389 347.631, 390.103 350, 391.173 350 C 392.572 350, 391.726 344.729, 390.250 344.244 C 389.563 344.018, 389 344.509, 389 345.335 M 623 347 C 623 348.650, 623.450 350, 624 350 C 624.550 350, 625 348.650, 625 347 C 625 345.350, 624.550 344, 624 344 C 623.450 344, 623 345.350, 623 347 M 45 401.873 C 39.775 402.230, 34.887 402.913, 34.137 403.390 C 33.387 403.868, 31.865 406.312, 30.754 408.823 C 28.859 413.108, 28.725 415.642, 28.574 450.268 C 28.426 484.031, 28.563 487.396, 30.191 490.074 C 32.321 493.576, 36.034 493.966, 39 491 C 40.679 489.321, 40.998 487.677, 40.987 480.750 C 40.972 470.961, 43.516 459.138, 46.420 455.502 C 49.081 452.172, 53.996 451.054, 66.115 451.024 C 78.427 450.993, 79.772 450.058, 83.453 438.960 C 86.556 429.604, 86.320 423.374, 82.581 415.947 C 80.763 412.337, 78.839 410.606, 72.329 406.723 C 63.270 401.320, 60.434 400.817, 45 401.873 M 402.051 402.099 C 392.152 403.190, 389.482 404.657, 386.942 410.398 C 385.233 414.262, 385.061 417.807, 384.950 451.461 C 384.835 486.428, 384.927 488.426, 386.765 490.897 C 389.217 494.195, 392.008 494.624, 395.038 492.170 C 397.242 490.386, 397.464 489.309, 398.089 477.373 C 398.809 463.603, 399.472 459.804, 401.773 456.250 C 403.834 453.068, 405.264 453.405, 410.892 458.404 C 413.619 460.826, 417.188 463.102, 418.822 463.461 C 422.701 464.313, 424.368 466.349, 426.468 472.798 C 427.827 476.973, 429.015 478.615, 432.068 480.543 C 434.199 481.888, 436.683 484.454, 437.588 486.245 C 441.617 494.214, 446.222 496.076, 450.006 491.266 C 451.573 489.273, 451.995 487.727, 451.563 485.564 C 450.900 482.252, 447.657 478.343, 444.825 477.444 C 443.803 477.120, 442.017 474.975, 440.858 472.677 C 439.698 470.380, 437.125 466.271, 435.141 463.547 C 431.945 459.161, 431.530 457.901, 431.516 452.531 C 431.502 447.155, 431.936 445.810, 435.350 440.664 C 439.158 434.924, 439.196 434.769, 438.850 426.503 C 438.435 416.594, 436.606 413.359, 430.038 410.918 C 427.698 410.048, 424.369 407.681, 422.641 405.657 C 418.906 401.283, 415.224 400.646, 402.051 402.099 M 675.465 401.952 C 674.346 402.405, 672.822 403.509, 672.078 404.406 C 671.335 405.302, 667.638 407.658, 663.863 409.641 C 649.812 417.025, 645.264 423.114, 642.358 438.436 C 640.652 447.426, 640.921 454.872, 643.367 466.462 C 645.354 475.874, 646.650 478.113, 651.786 481 C 653.902 482.189, 656.497 484.768, 657.555 486.732 C 660.715 492.600, 663.750 493.332, 686.500 493.714 C 708.141 494.077, 718.022 492.978, 721.140 489.860 C 723.370 487.630, 723.479 486.035, 721.576 483.441 C 719.315 480.360, 709.322 481.009, 695.297 485.148 C 689.845 486.757, 679.725 484.464, 669 479.189 L 661.500 475.500 658.189 467.211 C 653.458 455.371, 653.020 447.939, 656.402 436.888 C 659.252 427.574, 660.151 426.417, 667.066 423.154 C 670.164 421.692, 672.332 419.754, 673.811 417.123 C 675.761 413.652, 676.667 413.076, 682.450 411.623 C 690.418 409.622, 694.105 409.599, 700.409 411.511 C 706.732 413.429, 712.888 413.457, 713.612 411.570 C 714.601 408.992, 711.046 403.212, 707.770 402.070 C 704.205 400.827, 678.472 400.733, 675.465 401.952 M 154.253 403.506 C 149.435 405.576, 143.316 410.823, 141.991 414.021 C 141.351 415.567, 140.828 419.232, 140.829 422.166 C 140.842 470.947, 141.148 484.728, 142.271 487 C 145.236 492.999, 158.896 495.920, 168.445 492.597 C 171.817 491.423, 173.095 491.433, 177.242 492.664 C 183.943 494.654, 189 492.607, 189 487.904 C 189 484.829, 184.541 483.644, 177.878 484.949 C 172.340 486.034, 172.123 485.986, 163.400 481.775 C 152.826 476.671, 150.987 474.325, 152.805 468.257 C 154.307 463.243, 160.477 456.186, 167.042 451.973 C 171.761 448.945, 172.380 448.797, 175.923 449.859 C 182.429 451.808, 185.879 451.360, 187.232 448.390 C 189.118 444.252, 186.195 442.707, 178 443.512 C 172.244 444.077, 170.642 443.805, 164 441.135 C 154.916 437.484, 151.590 434.142, 152.575 429.658 C 153.878 423.728, 161.942 413.116, 167.220 410.386 C 169.472 409.221, 171.903 409.028, 177.821 409.544 C 184.882 410.159, 185.658 410.039, 187.458 408.048 C 188.966 406.381, 189.171 405.494, 188.350 404.191 C 187.436 402.742, 185.156 402.472, 172.392 402.305 C 161.505 402.163, 156.627 402.486, 154.253 403.506 M 936.836 403.914 C 931.208 408.341, 930.883 410.894, 930.835 451.043 C 930.806 476.135, 931.144 488.400, 931.904 489.820 C 934.783 495.200, 940.830 496.319, 949.854 493.141 C 953.960 491.696, 956.150 491.473, 959.717 492.139 C 964.788 493.087, 971.034 491.869, 972.950 489.560 C 973.901 488.414, 973.626 487.801, 971.548 486.439 C 969.407 485.037, 967.605 484.863, 961.084 485.432 C 953.325 486.109, 953.154 486.074, 949.777 483.109 C 947.891 481.453, 945.535 478.296, 944.542 476.092 C 942.829 472.295, 942.822 471.733, 944.398 465.293 C 947.475 452.720, 951.944 447.739, 958.193 449.917 C 962.868 451.547, 967.474 451.239, 969.345 449.171 C 973.366 444.729, 969.649 442.581, 959.573 443.525 C 952.429 444.195, 952.243 444.153, 948.713 441.053 C 943.213 436.224, 942.445 432.632, 944.866 423.057 C 948.262 409.629, 949.016 408.975, 960.750 409.287 C 967.461 409.465, 969.120 409.185, 970.916 407.567 C 972.863 405.813, 972.917 405.488, 971.498 404.067 C 970.246 402.812, 966.893 402.437, 954.687 402.183 C 940.567 401.889, 939.248 402.017, 936.836 403.914 M 317.102 407.586 C 315.233 408.914, 312.983 410.002, 312.102 410.004 C 308.455 410.012, 304.250 413.818, 302.629 418.576 C 299.382 428.106, 297.902 428.493, 280.179 424.455 C 278.521 424.077, 277.138 422.294, 275.341 418.213 C 272.245 411.182, 270.610 409.293, 266.919 408.482 C 261.415 407.273, 260 408.514, 260 414.552 C 260 419.057, 260.463 420.480, 262.750 423.009 C 264.262 424.681, 267.015 426.825, 268.866 427.774 C 271.771 429.263, 273.197 431.561, 279.248 444.500 L 286.263 459.500 285.182 471.315 C 283.968 484.597, 284.526 487.147, 289.056 489.023 C 292.650 490.512, 295.872 489.468, 297.022 486.442 C 297.521 485.129, 297.654 478.920, 297.318 472.644 C 296.845 463.820, 297.112 459.110, 298.495 451.867 C 300.751 440.050, 301.743 438.118, 310.084 429.302 C 314.515 424.620, 317.258 420.776, 317.935 418.302 C 318.507 416.211, 319.881 413.027, 320.988 411.226 C 324.835 404.966, 323.090 403.331, 317.102 407.586 M 784.324 409.681 C 782.924 412.956, 782.674 418.626, 782.566 449.500 C 782.437 486.549, 782.860 491.242, 786.457 492.622 C 789.209 493.678, 792.926 492.043, 794.444 489.109 C 795.463 487.139, 795.906 483.274, 795.866 476.714 C 795.805 466.800, 796.103 464.890, 798.639 458.907 C 800.233 455.146, 802.450 453.824, 812.618 450.566 C 817 449.163, 819.500 449.070, 829.991 449.919 C 842.659 450.945, 844.708 451.718, 847.225 456.421 C 849.350 460.390, 850.930 469.769, 850.964 478.615 C 850.994 486.289, 851.328 488.147, 853.073 490.365 C 855.686 493.687, 857.992 493.703, 861.076 490.418 L 863.500 487.837 863.662 452.668 C 863.754 432.758, 863.406 415.850, 862.860 413.697 C 861.753 409.338, 858.606 405.733, 856.305 406.189 C 852.816 406.880, 851 412.917, 851 423.830 C 851 435.062, 850.092 437.816, 845.185 441.470 C 842.957 443.130, 840.515 443.504, 829.718 443.840 C 811.680 444.402, 799.613 441.760, 796.750 436.620 C 796.059 435.380, 795.555 430.143, 795.535 424 C 795.494 411.768, 793.565 406.753, 788.679 406.181 C 786.354 405.909, 785.717 406.421, 784.324 409.681 M 539.761 408.384 C 537.103 410.402, 535.296 415.734, 534.490 423.932 C 533.879 430.157, 533.353 431.701, 531.253 433.432 C 524.302 439.166, 524.422 438.907, 519.022 459.757 C 518.385 462.217, 516.482 465.451, 514.515 467.418 C 512.126 469.807, 510.457 472.978, 508.914 478.057 C 506.405 486.319, 506.924 489.539, 511.148 491.910 C 515.240 494.206, 518.530 491.515, 520.519 484.244 C 522.609 476.600, 524.248 473.795, 527.658 472.023 C 529.221 471.210, 533.272 468.821, 536.660 466.714 C 546.311 460.711, 551.373 461.122, 561.500 468.728 C 564.800 471.206, 568.489 473.611, 569.698 474.072 C 572.508 475.145, 574.533 478.329, 576.008 484 C 578.102 492.049, 582.897 495.103, 587 491 C 591.071 486.929, 587.919 474.886, 581.170 468.728 C 578.924 466.678, 577.835 464.463, 576.990 460.228 C 574.232 446.404, 572.746 443.409, 565.814 437.709 C 563.553 435.850, 562.808 433.854, 561.112 425.116 C 558.930 413.870, 557.176 410.882, 551.282 408.371 C 547.247 406.652, 542.035 406.658, 539.761 408.384 M 48.315 410.943 C 45.565 412.132, 44.622 413.932, 42.611 421.831 C 40.603 429.721, 40.581 433.289, 42.517 437.033 C 44.582 441.026, 48.838 443, 55.385 443 C 62.054 443, 65.303 441.855, 68.538 438.364 C 71.389 435.289, 71.868 429.015, 69.657 423.718 C 68.918 421.948, 67.999 418.818, 67.614 416.762 C 67.207 414.591, 66.091 412.584, 64.951 411.974 C 62.205 410.504, 50.946 409.806, 48.315 410.943 M 402.739 411.991 C 400.823 413.498, 399.941 415.520, 399.104 420.322 C 397.252 430.959, 397.627 435.403, 400.682 439.035 C 403.343 442.196, 403.421 442.217, 410.133 441.556 C 418.338 440.747, 423.087 439.465, 424.164 437.768 C 426.260 434.466, 423.526 417.081, 420.436 414.055 C 419.730 413.364, 407.400 410, 405.573 410 C 405.406 410, 404.131 410.896, 402.739 411.991 M 535.571 436.571 C 532.083 440.060, 534.550 450.928, 539.762 455.027 C 545.375 459.443, 556.396 455.946, 559.940 448.624 C 563.710 440.836, 563.062 440.029, 550.671 437.092 C 540.099 434.587, 537.641 434.502, 535.571 436.571" stroke="none" fill="#ffffff" fill-rule="evenodd"/>
</svg>