<svg xmlns="http://www.w3.org/2000/svg" width="1000" height="579" viewBox="0 0 1000 579" version="1.1">
	<path d="M 813.500 126.976 C 805.444 129.047, 803.881 130.353, 801.401 137.086 C 800.216 140.304, 799.815 144.545, 799.920 152.738 C 800.088 165.875, 799.643 167.061, 791.577 174.966 C 784.386 182.014, 784.282 184.096, 790.956 187.478 C 793.682 188.859, 796.855 191.002, 798.009 192.240 C 800.092 194.476, 800.105 194.859, 799.935 252.751 C 799.803 297.848, 800.045 311.349, 801.005 312.506 C 803.094 315.023, 806.912 314.362, 808.084 311.280 C 808.761 309.498, 809.052 288.656, 808.927 250.893 C 808.712 186.139, 808.187 190.822, 816.223 185.818 C 818.271 184.543, 819.958 183.173, 819.973 182.773 C 819.988 182.373, 818.879 181.312, 817.509 180.414 C 816.139 179.516, 813.551 175.803, 811.759 172.162 C 809.063 166.686, 808.508 164.415, 808.544 159.021 C 808.650 143.337, 810.669 137.765, 816.725 136.447 C 825.502 134.536, 827.500 133.531, 827.500 131.030 C 827.500 126.780, 821.275 124.977, 813.500 126.976 M 86.557 129.223 C 85.176 131.193, 85.001 141.413, 85.006 219.473 C 85.009 277.231, 85.368 308.785, 86.049 311.238 C 86.620 313.294, 87.973 315.451, 89.056 316.030 C 92.054 317.634, 168.505 317.346, 171.903 315.718 C 175.701 313.897, 175.469 309.915, 171.500 308.805 C 169.850 308.343, 154.775 307.995, 138 308.030 C 106.828 308.096, 101.116 307.560, 97.817 304.262 C 96.005 302.449, 95.938 299.294, 95.983 217.652 C 96.030 132.293, 95.944 129.998, 92.600 127.765 C 90.557 126.401, 88.122 126.988, 86.557 129.223 M 371.571 128.571 C 370.707 129.436, 369.971 130.448, 369.935 130.821 C 369.899 131.195, 369.753 171.550, 369.611 220.500 C 369.337 314.633, 369.397 316, 373.794 316 C 374.837 316, 376.435 315.177, 377.345 314.171 C 378.761 312.606, 379.002 309.614, 379.011 293.421 C 379.024 270.588, 379.414 267.838, 383.218 263.767 C 384.836 262.034, 387.212 258.543, 388.496 256.008 C 391.070 250.929, 398.566 244.474, 403.028 243.494 C 407.274 242.561, 409.638 244.394, 411.527 250.082 C 412.459 252.887, 414.544 256.689, 416.161 258.531 C 417.778 260.373, 420.209 264.707, 421.564 268.163 C 422.918 271.618, 425.155 275.358, 426.535 276.473 C 427.916 277.588, 430.374 281.782, 431.998 285.794 C 433.795 290.231, 436.136 294.085, 437.976 295.633 C 439.639 297.033, 441 298.700, 441.001 299.339 C 441.001 299.978, 442.303 303.252, 443.895 306.615 C 446.197 311.483, 447.452 312.962, 450.043 313.865 C 458.679 316.876, 462.482 313.591, 457.254 307.636 C 455.658 305.819, 453.777 302.276, 453.074 299.763 C 452.316 297.056, 450.417 293.858, 448.417 291.919 C 446.411 289.975, 443.982 285.880, 442.435 281.831 C 440.724 277.352, 438.859 274.323, 436.993 272.995 C 435.045 271.608, 433.495 268.992, 432.053 264.660 C 430.700 260.593, 428.731 257.162, 426.522 255.022 C 424.636 253.193, 422.817 250.441, 422.479 248.907 C 422.142 247.372, 420.473 244.192, 418.770 241.842 C 415.890 237.865, 413 230.560, 413 227.256 C 413 226.471, 414.633 224.405, 416.628 222.665 C 418.623 220.924, 420.878 218.040, 421.639 216.256 C 422.400 214.471, 424.775 211.904, 426.918 210.552 C 429.455 208.950, 431.215 206.878, 431.963 204.612 C 432.686 202.421, 434.365 200.392, 436.494 199.136 C 438.354 198.039, 440.629 195.647, 441.550 193.820 C 442.471 191.994, 444.566 189.085, 446.206 187.356 C 449.395 183.993, 449.629 180.745, 446.722 180.185 C 445.757 179.999, 442.922 180.628, 440.423 181.583 C 436.908 182.925, 435.414 184.229, 433.829 187.336 C 432.701 189.545, 429.637 193.636, 427.019 196.427 C 424.401 199.217, 421.532 202.927, 420.645 204.671 C 419.757 206.415, 417.628 208.841, 415.915 210.061 C 414.201 211.281, 412.057 213.993, 411.150 216.088 C 410.242 218.182, 407.961 220.932, 406.081 222.198 C 404.200 223.464, 401.725 226.159, 400.581 228.187 C 399.436 230.214, 397.452 232.914, 396.170 234.187 C 394.889 235.459, 392.850 238.075, 391.639 240 C 388.656 244.740, 384.176 245.311, 381.059 241.348 L 378.888 238.588 379.070 184.762 C 379.240 134.397, 379.138 130.810, 377.471 128.968 C 375.319 126.590, 373.664 126.479, 371.571 128.571 M 556.018 129.130 C 551.644 131.797, 550.628 133.174, 548.003 140 C 546.840 143.025, 544.618 146.850, 543.065 148.500 C 541.512 150.150, 539.450 153.939, 538.484 156.920 C 537.306 160.553, 535.345 163.687, 532.539 166.420 C 529.620 169.265, 527.998 171.915, 527.181 175.174 C 526.391 178.327, 525.024 180.619, 522.979 182.219 C 520.975 183.788, 518.981 187.079, 517.089 191.940 C 515.165 196.886, 513.386 199.802, 511.649 200.856 C 510.229 201.717, 508.651 203.565, 508.142 204.961 C 507.633 206.357, 506.469 209.602, 505.555 212.172 C 504.515 215.099, 502.614 217.820, 500.464 219.460 C 497.937 221.387, 496.612 223.525, 495.433 227.582 C 494.482 230.853, 493.002 233.577, 491.785 234.294 C 490.659 234.957, 488.216 238.800, 486.356 242.834 C 484.496 246.867, 481.855 251.634, 480.487 253.428 C 479.119 255.221, 478 257.364, 478 258.189 C 478 262.637, 488.221 265.972, 495.750 263.981 C 499.023 263.116, 507.497 262.791, 523 262.938 C 549.716 263.191, 552.710 263.941, 556.008 271.207 C 557.708 274.953, 557.959 277.826, 557.978 293.750 C 557.998 310.650, 558.148 312.148, 560 314 C 562.596 316.596, 564.515 316.530, 566.443 313.777 C 567.709 311.970, 568 308.266, 568 293.959 C 568 268.371, 570.300 262.096, 579.211 263.379 C 583.807 264.041, 585.277 263.500, 586.280 260.779 C 587.425 257.674, 584.493 256.036, 578.963 256.691 C 573.515 257.336, 570.640 255.775, 568.902 251.228 C 568.424 249.978, 568 222.198, 567.960 189.495 L 567.887 130.034 565.721 128.517 C 562.770 126.450, 560.141 126.616, 556.018 129.130 M 625.313 127.786 C 624.659 128.201, 623.759 129.657, 623.313 131.020 C 622.866 132.384, 622.725 173.875, 623 223.223 L 623.500 312.945 625.698 315.143 L 627.896 317.340 669.198 317.161 C 709.836 316.985, 710.528 316.948, 712.250 314.880 C 714.417 312.277, 714.430 311.573, 712.345 309.488 C 710.861 308.004, 707.310 307.859, 678.095 308.090 C 646.016 308.344, 645.417 308.311, 640.256 306.053 C 635.668 304.046, 634.879 303.266, 633.951 299.817 C 633.236 297.161, 632.946 268.963, 633.064 213.398 C 633.228 135.683, 633.136 130.808, 631.464 128.960 C 629.620 126.923, 627.351 126.490, 625.313 127.786 M 748.635 130.073 C 746.386 131.842, 746 132.914, 746 137.398 C 746 141.657, 746.456 143.080, 748.411 144.916 C 753.323 149.531, 757.353 145.244, 756.698 136.100 C 756.427 132.323, 755.756 130.294, 754.464 129.350 C 752.054 127.588, 751.745 127.626, 748.635 130.073 M 209.862 130.992 C 205.835 133.406, 207.047 143.472, 211.499 144.589 C 212.787 144.912, 214.649 145.022, 215.635 144.832 C 218.107 144.356, 219.554 138.811, 218.412 134.190 C 217.636 131.050, 217.053 130.464, 214.500 130.255 C 212.850 130.121, 210.763 130.452, 209.862 130.992 M 549.093 156.869 C 547.969 158.448, 546.596 160.934, 546.040 162.394 C 545.485 163.854, 543.489 165.959, 541.604 167.071 C 538.834 168.706, 537.945 170.063, 536.963 174.155 C 536.137 177.596, 534.405 180.729, 531.550 183.943 C 529.100 186.702, 526.819 190.573, 526.072 193.242 C 525.309 195.969, 523.259 199.409, 520.990 201.770 C 518.564 204.295, 516.532 207.808, 515.375 211.480 C 514.079 215.591, 512.620 217.951, 510.262 219.750 C 507.948 221.514, 506.619 223.629, 505.814 226.823 C 505.014 230, 503.052 233.137, 499.333 237.181 C 494.748 242.169, 494 243.543, 494 246.976 C 494 249.948, 494.725 251.780, 496.836 254.143 L 499.672 257.317 523.457 257.093 C 548.961 256.853, 553.053 256.215, 556.140 252 C 557.841 249.678, 557.985 246.406, 558.165 206 C 558.272 182.075, 558.017 161.034, 557.598 159.242 C 556.897 156.238, 554.564 154, 552.134 154 C 551.585 154, 550.217 155.291, 549.093 156.869 M 883.084 170.964 C 879.957 171.470, 878.008 172.506, 876.408 174.513 C 875.164 176.072, 872.202 178.282, 869.824 179.424 C 866.676 180.936, 864.956 182.631, 863.500 185.660 C 862.400 187.948, 860.295 190.767, 858.822 191.926 C 855.337 194.666, 854.289 198.085, 852.498 212.548 C 851.684 219.122, 850.504 228.633, 849.876 233.685 C 848.932 241.269, 849.017 245.189, 850.364 256.185 C 851.261 263.508, 852.435 274.338, 852.972 280.251 C 854.098 292.637, 854.929 294.591, 863.368 304.709 C 872.479 315.632, 873.695 316.048, 895.636 315.747 L 913.654 315.500 919.077 310.697 C 923.900 306.426, 929.955 299.630, 934.532 293.349 C 935.409 292.147, 936.361 288.088, 936.691 284.140 C 937.163 278.518, 936.945 276.564, 935.619 274.541 C 932.104 269.176, 928.726 272.667, 926.591 283.870 C 925.164 291.361, 924.017 293.543, 921.002 294.499 C 920.002 294.817, 918.282 296.997, 917.178 299.344 C 914.619 304.788, 913.852 305.333, 906 307.288 C 894.647 310.116, 893.516 310.163, 885.886 308.140 C 875.290 305.330, 874.994 305.153, 872.962 300.412 C 871.820 297.747, 869.988 295.528, 868.143 294.574 C 864.699 292.793, 864.719 292.863, 861.958 272.500 C 859.517 254.487, 859.950 248.896, 864.110 244.737 L 866.977 241.869 901.057 242.094 L 935.136 242.318 937.751 239.703 L 940.367 237.088 938.603 221.794 C 935.539 195.231, 935.467 194.918, 931.516 191.191 C 929.582 189.367, 928 187.288, 928 186.572 C 928 184.323, 923.954 180.008, 920.488 178.559 C 918.658 177.795, 916.639 176.193, 916 175 C 914.032 171.323, 909.044 169.988, 897.782 170.125 C 892.127 170.194, 885.513 170.572, 883.084 170.964 M 290.641 173.243 C 289.615 174.010, 288.948 175.498, 289.152 176.566 C 289.463 178.196, 290.639 178.587, 296.639 179.055 C 305.115 179.717, 306.844 180.723, 317.064 190.942 C 323.168 197.047, 324.871 199.431, 325.821 203.203 C 326.650 206.497, 327 223.114, 327 259.220 C 327 304.064, 327.197 310.836, 328.557 312.777 C 330.449 315.479, 332.152 315.594, 334.345 313.171 C 335.843 311.516, 336 306.122, 336 256.415 C 336 223.409, 335.608 200.118, 335.017 198.058 C 334.476 196.173, 332.747 193.251, 331.174 191.565 C 329.602 189.879, 327.731 187.016, 327.017 185.203 C 325.716 181.900, 322.829 179.838, 317.827 178.641 C 316.357 178.289, 313.684 176.763, 311.887 175.250 C 309.016 172.834, 307.641 172.461, 300.560 172.177 C 294.817 171.947, 291.966 172.254, 290.641 173.243 M 883.742 179.602 C 880.094 180.724, 878.421 181.957, 876.572 184.886 C 875.245 186.988, 872.346 190.260, 870.130 192.157 C 865.350 196.248, 864.554 198.096, 863.063 208.559 C 862.440 212.927, 861.461 218.600, 860.886 221.167 C 859.636 226.746, 860.633 229.195, 865.314 232.050 C 868.257 233.844, 870.520 233.993, 895 233.993 C 919.584 233.993, 921.733 233.850, 924.723 232.027 C 926.496 230.946, 928.237 228.905, 928.591 227.491 C 929.346 224.484, 926.430 198.671, 925.042 196.079 C 924.522 195.106, 922.495 193.090, 920.539 191.597 C 918.582 190.105, 916.110 187.176, 915.046 185.089 C 913.360 181.785, 912.350 181.081, 907.239 179.647 C 900.109 177.646, 890.165 177.627, 883.742 179.602 M 255.405 182.105 C 253.574 184.129, 253.500 186.674, 253.500 248 C 253.500 309.326, 253.574 311.871, 255.405 313.895 C 257.765 316.503, 258.483 316.517, 261 314 C 262.943 312.057, 263 310.667, 263 265.588 C 263 216.189, 263.565 208.693, 267.935 200.127 C 271.058 194.005, 270.623 191.445, 265.423 185.358 C 260.455 179.543, 258.344 178.858, 255.405 182.105 M 275.952 183.048 C 274.012 184.988, 273.945 185.373, 275.308 186.737 C 277.861 189.290, 285.769 185.842, 284.718 182.634 C 284.008 180.470, 278.258 180.742, 275.952 183.048 M 748.625 182.285 C 746.980 183.488, 746.869 187.658, 746.886 247.535 L 746.903 311.500 749.062 313.250 C 751.716 315.401, 752.432 315.425, 754.429 313.429 C 755.825 312.033, 756 304.685, 756 247.629 C 756 199.006, 755.708 183.108, 754.800 182.200 C 753.242 180.642, 750.827 180.675, 748.625 182.285 M 211.065 183.750 L 208.909 185.500 208.965 248 C 209.017 305.337, 209.160 310.603, 210.702 311.750 C 212.823 313.328, 215.252 313.348, 216.800 311.800 C 217.708 310.892, 218 295.208, 218 247.335 C 218 185.811, 217.947 184.042, 216.066 183.035 C 213.569 181.699, 213.598 181.695, 211.065 183.750 M 748.575 359.104 C 741.754 360.213, 739.958 364.893, 745.539 367.015 C 749.193 368.404, 932.467 368.355, 935.066 366.965 C 937.611 365.603, 937.580 361.381, 935.015 360.008 C 932.863 358.856, 755.390 357.995, 748.575 359.104 M 530.223 360.557 C 529 361.413, 528 362.737, 528 363.500 C 528 364.263, 529 365.587, 530.223 366.443 C 532.194 367.824, 542.517 368, 621.500 368 C 700.483 368, 710.806 367.824, 712.777 366.443 C 715.479 364.551, 715.594 362.848, 713.171 360.655 C 711.498 359.141, 703.723 359, 621.894 359 C 542.554 359, 532.194 359.176, 530.223 360.557" stroke="none" fill="#ffffff" fill-rule="evenodd"/>
</svg>