<svg xmlns="http://www.w3.org/2000/svg" width="1000" height="489" viewBox="0 0 1000 489" version="1.1">
	<path d="M 56 11.088 C 46.931 12.252, 35.006 14.970, 31.838 16.595 C 30.374 17.346, 28.124 19.293, 26.838 20.922 C 25.552 22.552, 22.690 25.189, 20.479 26.783 C 17.033 29.266, 16.045 30.886, 13.578 38.091 C 10.125 48.179, 8.833 49.843, 3.831 50.643 L 0 51.256 0 105.128 C 0 147.563, 0.265 158.998, 1.250 158.992 C 4.278 158.974, 15.752 156.850, 18.288 155.838 C 19.822 155.226, 21.522 153.893, 22.067 152.875 C 22.611 151.858, 25.407 149.508, 28.278 147.654 C 35.476 143.007, 51.860 125.181, 55.350 118.200 C 57.790 113.321, 59.635 112, 64.011 112 C 67.045 112, 68.609 112.917, 73.563 117.602 C 76.821 120.683, 80.616 125.294, 81.996 127.849 C 83.787 131.165, 85.854 133.224, 89.217 135.040 C 91.808 136.439, 94.957 138.516, 96.214 139.654 C 99.073 142.242, 104.205 144, 108.899 144 C 114.063 144, 127.142 141.358, 136.294 138.467 C 141.547 136.807, 149.533 135.472, 160.330 134.446 C 169.224 133.602, 180.550 132.202, 185.500 131.336 C 203.248 128.232, 207.087 128.380, 241.500 133.494 C 247 134.312, 253.387 135.234, 255.693 135.543 C 258.189 135.878, 262.153 137.644, 265.488 139.908 C 268.570 142, 273.806 144.533, 277.124 145.537 C 281.563 146.882, 283.993 148.336, 286.328 151.046 C 288.072 153.072, 291.525 155.753, 294 157.004 C 296.475 158.256, 300.886 161.455, 303.803 164.115 C 306.720 166.774, 310.320 169.672, 311.803 170.554 C 313.286 171.437, 315.587 173.602, 316.915 175.365 C 320.653 180.327, 323.827 182.273, 328.180 182.273 C 333.653 182.273, 336.627 180.391, 338.483 175.752 C 340.664 170.300, 353.736 157.443, 358.411 156.152 C 360.396 155.604, 364.153 153.607, 366.760 151.715 C 369.367 149.822, 374.466 147.299, 378.090 146.109 C 382.034 144.813, 385.795 142.779, 387.458 141.044 C 394.015 134.200, 405.995 132.169, 411.864 136.908 C 419.536 143.102, 422.704 145.120, 427.682 146.982 C 430.692 148.108, 434.853 150.395, 436.930 152.064 C 440.021 154.548, 442.646 155.449, 451.385 157.025 C 458.028 158.223, 465.168 160.321, 470.281 162.579 C 477.847 165.919, 479.463 166.250, 490.624 166.744 C 504.687 167.366, 506.328 167.063, 510.886 163.010 C 514.279 159.993, 515.908 159.373, 528 156.493 C 531.606 155.634, 536.726 153.453, 539.500 151.593 C 542.250 149.750, 547.688 147.297, 551.585 146.142 C 556.498 144.686, 560.023 142.854, 563.085 140.164 C 565.513 138.031, 569.384 135.326, 571.686 134.155 C 573.989 132.983, 576.648 130.711, 577.596 129.106 C 578.544 127.502, 581.068 125.206, 583.205 124.005 C 585.341 122.804, 588.247 120.073, 589.662 117.935 C 591.076 115.797, 593.623 113.169, 595.321 112.093 C 597.020 111.018, 599.574 108.420, 600.998 106.319 C 602.422 104.219, 605.571 101.458, 607.996 100.183 C 610.421 98.909, 614.037 96.393, 616.031 94.591 C 618.537 92.327, 621.795 90.764, 626.579 89.530 C 630.385 88.549, 639.350 86.173, 646.500 84.251 C 653.650 82.328, 661.750 80.312, 664.500 79.769 C 672.334 78.224, 683.702 79.382, 691.087 82.476 C 701.391 86.795, 704.177 87.815, 710.027 89.415 C 713.133 90.264, 717.294 92.384, 719.527 94.255 C 721.712 96.086, 726.682 98.811, 730.572 100.310 C 734.909 101.982, 738.948 104.383, 741.018 106.518 C 742.874 108.433, 744.867 110, 745.446 110.001 C 747.843 110.003, 758.664 115.927, 760.757 118.383 C 761.998 119.840, 765.373 122.091, 768.257 123.387 C 771.141 124.682, 774.850 127.181, 776.500 128.941 C 780.297 132.990, 788.209 137.007, 792.332 136.978 C 797.262 136.944, 803.442 133.639, 805.845 129.752 C 807.029 127.835, 809.694 125.145, 811.766 123.773 C 813.839 122.402, 816.366 119.736, 817.381 117.850 C 818.397 115.964, 820.681 113.468, 822.457 112.304 C 824.797 110.770, 826.333 108.459, 828.033 103.912 C 830.582 97.096, 834.687 91.730, 839.099 89.449 C 845.400 86.190, 858.742 88.818, 867.376 95.018 C 870.499 97.261, 874.608 98.794, 882.104 100.512 C 887.822 101.823, 896.325 104.260, 901 105.928 C 911.356 109.623, 919.599 109.911, 931.079 106.980 C 939.713 104.775, 939.555 104.760, 955.326 109.271 C 964.199 111.808, 966.544 112.889, 968.326 115.266 C 969.522 116.860, 972.394 119.980, 974.708 122.198 C 977.292 124.675, 979.515 128.036, 980.469 130.907 C 981.324 133.479, 983.744 137.875, 985.849 140.676 C 987.953 143.477, 990.254 147.837, 990.962 150.365 C 992.443 155.654, 993.479 156.746, 997.845 157.619 L 1001 158.250 1000.997 104.375 L 1000.994 50.500 997.448 50.423 C 992.598 50.318, 990.727 48.010, 987.508 38.170 C 985.022 30.573, 984.362 29.538, 979.992 26.399 C 977.358 24.506, 974.444 21.800, 973.517 20.385 C 971.031 16.591, 964.823 14.295, 950.914 12.026 C 938.574 10.012, 935.886 10.001, 500.500 10.127 C 259.600 10.197, 59.575 10.629, 56 11.088 M 0.466 105 C 0.466 134.975, 0.594 147.237, 0.749 132.250 C 0.905 117.262, 0.905 92.737, 0.749 77.750 C 0.594 62.762, 0.466 75.025, 0.466 105 M 271.494 249.421 C 269.525 251.113, 266.845 252.061, 262.589 252.573 C 259.240 252.976, 198.788 253.318, 128.250 253.334 L 0 253.362 0.002 348.431 L 0.004 443.500 3.158 443.722 C 7.729 444.044, 10.764 447.488, 13.045 454.942 C 14.562 459.896, 16.085 462.502, 19.276 465.596 C 21.599 467.849, 24.531 470.856, 25.791 472.279 C 27.050 473.702, 30.287 475.599, 32.984 476.495 C 39.643 478.707, 42.644 481.288, 43.431 485.482 L 44.091 489 500.934 489 L 957.777 489 958.404 485.660 C 959.202 481.406, 962.173 478.660, 968.606 476.230 C 976.069 473.411, 985.522 463.366, 987.645 456 C 989.796 448.533, 993.162 444.248, 997.519 443.430 L 1001 442.777 1001 347.269 L 1001 251.760 989.250 252.565 C 980.923 253.136, 771.049 253.468, 706.750 253.012 C 705.709 253.005, 705 252.239, 705 251.122 C 705 250.090, 704.321 248.681, 703.490 247.992 C 701.397 246.255, 694.652 247.315, 691.984 249.800 C 690.798 250.906, 688.392 252.079, 686.637 252.408 C 684.883 252.737, 624.285 253.052, 551.974 253.107 C 362.909 253.251, 328 253.073, 328 251.962 C 328 251.433, 327.357 251, 326.571 251 C 325.786 251, 324.355 250.213, 323.393 249.250 C 322.430 248.287, 321.503 247.600, 321.332 247.723 C 321.161 247.845, 320.280 247.661, 319.375 247.313 C 316.721 246.295, 314.723 248.201, 311 255.302 C 307.072 262.793, 305.071 264.001, 296.601 263.998 C 288.732 263.996, 285.131 261.633, 282.126 254.500 C 278.579 246.079, 276.525 245.098, 271.494 249.421 M 0.480 348.500 C 0.480 401.300, 0.602 422.753, 0.750 396.174 C 0.898 369.595, 0.898 326.395, 0.750 300.174 C 0.601 273.953, 0.480 295.700, 0.480 348.500 M 331.209 311.599 C 328.850 312.426, 323.675 313.940, 319.709 314.963 C 309.993 317.471, 307.847 318.383, 305.500 321.005 C 304.400 322.234, 301.137 324.755, 298.250 326.607 C 295.363 328.460, 293 330.441, 293 331.010 C 293 331.579, 290.824 334.172, 288.165 336.772 C 285.222 339.650, 282.640 343.375, 281.567 346.289 C 280.598 348.924, 278.718 352.370, 277.390 353.948 C 276.062 355.526, 274.362 358.557, 273.612 360.683 C 271.654 366.232, 270.747 384.871, 271.880 396.263 C 272.762 405.129, 273.203 406.552, 276.684 411.764 C 278.791 414.920, 281.165 419.469, 281.958 421.872 C 282.902 424.733, 286.114 429.219, 291.264 434.871 C 297.648 441.876, 300.488 444.159, 306.350 447 C 310.321 448.925, 314.965 451.506, 316.670 452.736 C 321.520 456.235, 328.509 457.203, 346.264 456.836 C 362.287 456.504, 362.579 456.458, 368.500 453.325 C 371.800 451.578, 377.283 448.775, 380.684 447.095 C 384.194 445.361, 388.011 442.541, 389.513 440.572 C 390.967 438.665, 393.722 436.181, 395.635 435.053 C 397.945 433.690, 399.802 431.408, 401.169 428.251 C 402.301 425.638, 404.704 421.925, 406.510 420 C 410.281 415.981, 411.177 412.480, 413.078 394.348 C 414.238 383.276, 414.171 380.962, 412.328 368.341 L 410.304 354.487 403.652 344.538 C 399.993 339.067, 397 334.265, 397 333.868 C 397 332.758, 382.014 320.861, 377.502 318.390 C 375.301 317.184, 371.925 315.887, 370 315.507 C 368.075 315.127, 362.694 313.732, 358.043 312.408 C 348.258 309.622, 337.756 309.305, 331.209 311.599 M 416.405 314.064 C 407.856 317.353, 406.852 322.774, 412.908 332.940 C 415.057 336.548, 418.020 343.550, 419.491 348.500 C 420.963 353.450, 423.640 360.200, 425.441 363.500 C 427.242 366.800, 429.482 372.650, 430.419 376.500 C 431.357 380.350, 433.828 386.650, 435.910 390.500 C 437.993 394.350, 440.466 400.650, 441.406 404.500 C 442.346 408.350, 444.840 414.425, 446.948 418 C 449.279 421.951, 451.409 427.374, 452.381 431.827 C 454.022 439.351, 456.648 446, 457.978 446 C 458.390 446, 460.023 447.868, 461.605 450.152 C 464.972 455.010, 469.080 457.002, 475.718 456.994 C 484.857 456.984, 487.678 455.549, 491.042 449.200 C 492.704 446.065, 495.400 441.700, 497.034 439.500 C 499.021 436.825, 500.838 432.203, 502.522 425.545 C 504.255 418.691, 506.115 414.018, 508.492 410.545 C 510.778 407.206, 512.820 402.194, 514.533 395.721 C 515.956 390.343, 518.640 383.368, 520.498 380.221 C 522.356 377.074, 524.807 370.816, 525.943 366.313 C 527.080 361.810, 529.557 355.510, 531.446 352.313 C 533.336 349.116, 535.600 343.350, 536.478 339.500 C 537.356 335.650, 538.958 330.799, 540.037 328.719 C 542.817 323.364, 542.517 321.517, 538.156 317.156 C 533.593 312.593, 530.042 311.690, 522.293 313.123 C 513.395 314.768, 511.453 316.172, 509.001 322.736 C 507.816 325.906, 505.734 329.963, 504.372 331.750 C 500.900 336.312, 499.399 340.305, 497.607 349.750 C 496.475 355.714, 495.100 359.394, 492.569 363.227 C 490.435 366.460, 488.078 372.176, 486.479 378 C 483.242 389.780, 482.937 390.514, 479.101 395.750 C 477.278 398.239, 475.177 400, 474.032 400 C 471.911 400, 471.289 398.325, 468.534 385.184 C 466.923 377.502, 466.336 376.058, 462.573 370.513 C 461.298 368.633, 459.071 362.237, 457.625 356.298 C 455.835 348.947, 454.036 344.131, 451.990 341.210 C 450.337 338.851, 448.123 333.808, 447.069 330.005 C 443.988 318.887, 443.254 317.881, 436 314.813 C 428.342 311.574, 423.372 311.384, 416.405 314.064 M 563.914 312.977 C 558.247 313.692, 554.750 315.910, 551.468 320.869 L 548.939 324.690 549.220 384.595 L 549.500 444.500 551.810 449.190 C 554.847 455.356, 560.066 457.592, 569.195 456.637 C 576.244 455.901, 579.644 454.064, 581.117 450.198 C 583.033 445.169, 583.957 419.661, 583.979 371.218 C 584.002 319.358, 583.889 318.107, 578.886 314.859 C 575.955 312.956, 570.005 312.208, 563.914 312.977 M 648.882 313.324 C 641.327 316.142, 638.201 318.845, 636.188 324.298 C 635.132 327.159, 633.950 331.300, 633.562 333.500 C 633.173 335.700, 631.103 340.208, 628.962 343.517 C 626.086 347.962, 624.436 352.210, 622.649 359.772 C 621.131 366.197, 619.313 371.219, 617.768 373.255 C 615.198 376.644, 613.201 382.055, 610.482 393 C 609.593 396.575, 607.754 401.204, 606.394 403.288 C 603.386 407.896, 602.343 410.511, 600.009 419.296 C 599.017 423.035, 597.067 427.812, 595.677 429.912 C 592.557 434.626, 590.897 440.568, 590.845 447.197 C 590.791 454.193, 592.822 456.055, 601.239 456.731 C 609.476 457.392, 614.090 455.880, 619.750 450.663 C 624.974 445.847, 627.492 441.211, 628.321 434.877 C 629.170 428.397, 630.919 425.071, 633.921 424.226 C 635.340 423.827, 642.575 423.607, 650 423.739 C 657.425 423.870, 665.899 423.493, 668.831 422.901 C 676.550 421.342, 678.604 422.535, 684.104 431.770 C 686.636 436.021, 689.284 441.300, 689.987 443.500 C 693.422 454.233, 696.482 456.353, 708.669 456.441 C 715.403 456.490, 717.323 456.140, 719.592 454.450 C 724.212 451.010, 724.545 449.758, 722.157 444.824 C 720.971 442.373, 720 439.436, 720 438.296 C 720 434.637, 715.060 419.035, 712.046 413.177 C 710.440 410.054, 708.407 404.674, 707.528 401.220 C 705.679 393.954, 704.467 390.962, 701.246 385.707 C 699.967 383.621, 697.793 377.546, 696.415 372.207 C 694.782 365.882, 692.702 360.672, 690.446 357.253 C 688.128 353.741, 686.310 349.117, 684.946 343.270 C 683.083 335.280, 678.442 325.560, 672.538 317.283 C 669.747 313.370, 655.259 310.946, 648.882 313.324 M 739.023 314.175 C 730.472 318.616, 730.539 318.265, 730.226 360.500 C 730.076 380.850, 730.306 408.750, 730.737 422.500 C 731.883 459.034, 729.530 457.253, 776.035 456.804 C 806.456 456.510, 807.640 456.425, 811.711 454.249 C 815.311 452.326, 816.147 451.245, 817.461 446.818 C 820.689 435.949, 818.981 431.611, 809.863 427.519 L 803.608 424.712 785.766 425.263 L 767.924 425.814 766.316 423.359 C 764.896 421.193, 764.695 415.073, 764.604 371.202 C 764.491 317.008, 764.526 317.358, 758.777 314.385 C 757.219 313.579, 753.144 312.679, 749.722 312.384 C 744.498 311.935, 742.782 312.222, 739.023 314.175 M 193.962 315.891 L 190.500 318.781 190.500 384.141 C 190.500 459.265, 189.837 453.994, 199.545 456.009 C 205.707 457.289, 267.420 456.967, 270.190 455.641 C 275.259 453.215, 277.784 439.562, 274.460 432.558 C 271.065 425.401, 268.882 424.770, 249.563 425.350 C 230.675 425.917, 228.280 425.376, 225.451 419.905 C 224.063 417.222, 223.895 411.013, 224.088 369.482 C 224.334 316.389, 224.661 318.908, 217.025 315.013 C 214.066 313.503, 211.123 313, 205.252 313 C 198.086 313, 197.132 313.244, 193.962 315.891 M 338 342.760 C 327.637 343.433, 323.305 344.912, 320.352 348.783 C 318.811 350.803, 316.102 353.727, 314.332 355.282 C 309.401 359.611, 307.603 369.143, 308.282 387.351 C 308.891 403.657, 309.909 407.479, 315.266 413.565 C 319.478 418.350, 332.721 425.615, 339.088 426.635 C 344.526 427.505, 352.571 425.407, 362 420.659 L 370.500 416.379 374.365 408.440 C 380.895 395.028, 381.548 380.400, 376.320 364.640 C 374.067 357.848, 372.747 355.644, 368.069 350.864 C 364.141 346.850, 361.321 344.882, 358.500 344.184 C 353.756 343.010, 344.282 342.352, 338 342.760 M 653.096 361.821 C 652.559 362.823, 651.581 366.761, 650.921 370.571 C 649.431 379.172, 647.641 384.370, 645.021 387.700 C 642.611 390.764, 642.547 391.405, 644.462 393.319 C 646.098 394.955, 662.414 396.638, 665.903 395.531 C 669.798 394.295, 670.250 391.650, 667.916 383.758 C 664.891 373.529, 657.468 360, 654.880 360 C 654.435 360, 653.632 360.820, 653.096 361.821" stroke="none" fill="#ffffff" fill-rule="evenodd"/>
</svg>