<svg xmlns="http://www.w3.org/2000/svg" width="1000" height="972" viewBox="0 0 1000 972" version="1.1">
	<path d="M 0 486.001 L 0 972.002 500.250 971.751 L 1000.500 971.500 1000.751 485.750 L 1001.002 0 500.501 0 L 0 0 0 486.001 M 0.496 486.500 C 0.496 753.800, 0.610 863.001, 0.750 729.168 C 0.890 595.336, 0.890 376.636, 0.750 243.168 C 0.610 109.701, 0.496 219.200, 0.496 486.500 M 528.500 259.959 C 527.400 260.417, 525.151 262.217, 523.503 263.959 C 521.855 265.700, 518.590 267.972, 516.249 269.008 C 510.259 271.658, 509.471 274.158, 510.896 286 C 511.826 293.735, 512.622 296.429, 515.179 300.500 C 521.064 309.868, 521.146 310.210, 522.121 329.264 C 523.212 350.579, 525.703 364.250, 529.912 372.021 C 533.745 379.099, 534.706 383.634, 535.963 400.575 C 536.530 408.234, 537.493 417.934, 538.101 422.130 C 539.064 428.769, 538.985 430.229, 537.497 433.365 C 535.580 437.405, 530.534 441, 526.781 441 C 525.416 441, 522.867 440.501, 521.118 439.891 C 516.482 438.275, 512 440.278, 512 443.966 C 512 447.480, 513.977 449.094, 522.261 452.346 C 533.612 456.802, 543.927 455.125, 549.001 447.998 L 551.305 444.764 550.111 427.632 C 548.597 405.913, 546.341 386.925, 544.511 380.500 C 543.728 377.750, 541.953 373.965, 540.568 372.089 C 536.704 366.856, 536.132 363.930, 535.076 344 C 533.971 323.153, 531.913 312.811, 527.417 305.506 C 525.812 302.900, 523.944 299.808, 523.265 298.634 C 521.245 295.144, 521.786 288.002, 524.514 282.141 C 526.994 276.814, 527.031 276.786, 530.754 277.391 C 540.343 278.950, 543.602 279.031, 546 277.769 C 551.880 274.675, 548.265 265.429, 539.596 261.392 C 534.242 258.899, 531.803 258.584, 528.500 259.959 M 679.524 264.385 C 675.700 268.209, 674.529 274.216, 675.939 282.772 C 676.812 288.069, 677.079 311.081, 676.920 367.471 C 676.721 438.370, 676.844 445.112, 678.374 447.449 C 680.534 450.744, 684.412 450.827, 686.512 447.622 C 687.890 445.519, 688.064 436.322, 688.019 368.104 C 687.962 283.441, 687.741 286.593, 693.933 284.028 C 697.902 282.384, 701.553 283.387, 703.737 286.723 C 705.398 289.258, 705.510 297.603, 705.679 430.457 C 705.777 508.031, 705.889 572.262, 705.929 573.194 C 705.968 574.126, 707.039 576.096, 708.309 577.572 C 711.242 580.982, 714.181 580.246, 716.413 575.542 C 717.869 572.473, 717.995 558.180, 717.760 422.329 C 717.533 291.453, 717.310 272.132, 716 269.592 C 713.543 264.829, 711.890 264.345, 704.662 266.271 C 697.792 268.101, 696.054 267.851, 688.350 263.924 C 683.485 261.443, 682.410 261.499, 679.524 264.385 M 328.144 266.327 C 325.637 269.347, 324.148 275.037, 323.518 284 C 322.478 298.803, 320.181 315.687, 317.940 325 C 316.815 329.675, 314.536 340.025, 312.877 348 C 309.321 365.083, 307.046 371, 304.031 371 C 300.414 371, 298.639 363.730, 297.009 342.252 C 296.436 334.688, 295.506 322.425, 294.943 315 C 293.883 301.019, 292.490 289.205, 290.863 280.399 C 289.649 273.834, 285.780 269.853, 280.467 269.702 C 274.632 269.537, 272.691 272.639, 273.426 280.955 C 274.614 294.379, 275.056 406.254, 274.240 486.500 C 273.706 538.941, 273.746 570.321, 274.349 571.731 C 275.732 574.963, 278.762 575.570, 281.870 573.238 C 284.243 571.459, 284.464 570.739, 284.135 565.883 C 283.935 562.922, 283.696 539.350, 283.605 513.500 C 283.493 481.530, 283.014 462.949, 282.107 455.396 C 281.052 446.612, 281.017 442.463, 281.939 435.531 C 282.980 427.706, 285.062 422, 286.874 422 C 288.185 422, 289.800 425.764, 290.972 431.550 C 293.916 446.096, 294.226 447.032, 296.736 449.007 C 303.160 454.060, 311.672 448.633, 315.178 437.250 C 315.898 434.913, 317.067 433, 317.775 433 C 319.179 433, 319.357 433.377, 321.038 439.930 C 322.329 444.963, 327.037 450, 330.451 450 C 331.682 450, 333.547 449.051, 334.595 447.891 C 336.362 445.936, 336.503 443.924, 336.535 420.141 C 336.555 406.039, 337.179 369.269, 337.923 338.431 C 338.667 307.593, 338.967 279.888, 338.589 276.865 C 337.714 269.864, 334.864 265, 331.637 265 C 330.321 265, 328.749 265.597, 328.144 266.327 M 459.877 274.123 C 457.992 276.008, 457.841 276.879, 458.532 281.873 C 459.611 289.676, 459.701 432.428, 458.630 438.130 C 457.869 442.186, 458.024 443.024, 459.880 444.880 C 462.586 447.586, 466.412 447.588, 469.116 444.884 C 470.975 443.025, 471.135 442.144, 470.433 437.634 C 469.348 430.668, 469.336 288.974, 470.420 281.735 C 471.157 276.814, 471.020 275.680, 469.486 273.985 C 467.136 271.388, 462.546 271.454, 459.877 274.123 M 605.153 279.884 C 600.542 281.526, 596.910 283.545, 595.403 285.306 L 593 288.112 593 365.605 C 593 450.335, 592.796 447.340, 598.767 450.339 C 600.270 451.094, 604.460 452.497, 608.078 453.458 C 614.199 455.082, 615.102 455.092, 621.078 453.601 C 626.152 452.335, 628.182 451.229, 630.750 448.333 L 634 444.667 634 366.233 L 634 287.800 630.750 284.561 C 628.680 282.498, 625.065 280.538, 620.791 279.161 C 612.984 276.646, 614.436 276.579, 605.153 279.884 M 395.657 284.836 C 393.716 286.862, 392.668 289.363, 391.988 293.586 C 385.680 332.796, 384.099 348.797, 384.043 374 C 384.008 389.579, 383.507 399.422, 382.416 406 C 381.549 411.225, 380.764 421.859, 380.670 429.632 C 380.517 442.370, 380.692 443.978, 382.448 445.929 C 385.533 449.359, 388.806 448.279, 392.840 442.500 C 396.992 436.551, 399.720 434, 401.931 434 C 405.003 434, 407.843 437.011, 409.513 442.038 C 410.526 445.090, 412.186 447.731, 413.723 448.738 C 416.182 450.349, 416.334 450.312, 418.737 447.519 C 421.571 444.224, 421.660 445.632, 417.113 421.715 C 415.462 413.034, 413.412 404.527, 412.556 402.812 C 411.359 400.413, 410.993 396.207, 410.970 384.596 C 410.954 376.293, 410.516 361.400, 409.997 351.500 C 409.478 341.600, 408.784 324.950, 408.456 314.500 C 408.127 304.050, 407.425 293.268, 406.895 290.541 C 405.206 281.846, 400.709 279.563, 395.657 284.836 M 608.699 294.250 C 607.377 296.038, 605.968 298.400, 605.567 299.500 C 605.166 300.600, 604.855 330.855, 604.875 366.733 C 604.913 434.888, 604.850 433.866, 609.299 438.750 C 611.850 441.551, 613.976 441.593, 617.385 438.912 C 623.189 434.347, 623 436.784, 623 366.388 L 623 301.676 620.469 297.356 C 616.275 290.200, 612.442 289.188, 608.699 294.250 M 573.519 475.598 C 565.162 478.657, 560.169 486.399, 561.414 494.367 C 561.769 496.640, 562.022 527.789, 561.974 563.587 C 561.884 632.763, 562.296 640.207, 565.996 636.235 C 569.994 631.943, 570 631.841, 569.988 570.816 L 569.976 511.500 567.490 507.151 C 566.123 504.760, 565.246 502.411, 565.542 501.933 C 566.472 500.427, 581.392 490.951, 583.787 490.344 C 585.093 490.013, 588.263 490.674, 591.171 491.882 C 593.974 493.047, 596.850 494, 597.562 494 C 599.878 494, 602 490.932, 602 487.584 C 602 483.918, 600.241 482.006, 595 479.970 C 593.075 479.223, 589.520 477.574, 587.101 476.306 C 582.088 473.678, 579.179 473.526, 573.519 475.598 M 403.500 475.724 C 400.592 476.438, 399.074 477.915, 397.115 481.933 C 395.502 485.243, 395.386 491.665, 395.503 571 C 395.617 648.341, 395.786 656.799, 397.277 659.629 C 398.184 661.350, 399.681 663.047, 400.604 663.402 C 402.516 664.135, 406.631 661.733, 409.327 658.309 C 414.945 651.175, 416.940 651.224, 423.574 658.661 C 429.369 665.157, 431.155 665.267, 433.655 659.283 C 435.079 655.874, 435.075 655.080, 433.610 650.431 C 431.389 643.387, 431.587 639.749, 434.500 634 L 437 629.066 437 556.878 L 437 484.689 434.481 481.386 C 431.486 477.459, 426.801 476.251, 420.321 477.734 C 416.646 478.575, 415.308 478.432, 412.247 476.871 C 408.562 474.992, 407.201 474.814, 403.500 475.724 M 327.500 476.952 C 317.618 477.872, 316.546 478.329, 314.586 482.461 C 313.228 485.322, 313.027 491.881, 313.097 531.134 C 313.141 556.085, 312.872 587.075, 312.499 600 C 311.799 624.280, 312.788 639.833, 315.217 642.763 C 317.791 645.866, 322.952 647.083, 333.537 647.083 C 349.329 647.083, 351.765 645.149, 353.828 630.967 C 354.732 624.752, 354.650 622.389, 353.360 617.467 C 352.054 612.484, 351.897 607.377, 352.404 586.500 C 352.739 572.750, 353.274 555.650, 353.593 548.500 C 354.040 538.504, 353.807 533.926, 352.587 528.688 C 351.714 524.941, 351 519.965, 351 517.629 C 351 515.293, 350.353 512.509, 349.562 511.441 C 348.141 509.523, 348.106 509.524, 346.594 511.500 C 345.662 512.718, 345.050 515.650, 345.028 519 C 344.986 525.472, 342.612 530.047, 337.759 533.005 C 331.935 536.556, 326.814 535.192, 324.415 529.452 C 322.304 524.397, 322.450 500.986, 324.621 496.700 C 328.692 488.660, 331.581 488.168, 339.017 494.250 C 348.211 501.769, 348.558 501.896, 351.592 498.863 C 355.397 495.057, 355.941 488.614, 352.838 484.092 C 347.740 476.661, 343.494 475.464, 327.500 476.952 M 643.951 477.500 C 641.449 478.294, 638.361 480.052, 637.088 481.406 L 634.775 483.869 634.861 562.684 C 634.909 606.033, 635.253 644.640, 635.626 648.479 C 636.746 660.014, 641.340 662.706, 658.428 661.843 C 664.057 661.559, 666.589 660.948, 668.699 659.362 C 671.395 657.337, 671.501 656.925, 671.522 648.379 C 671.536 642.786, 672.184 637.490, 673.272 634.068 C 674.840 629.139, 674.999 622.257, 674.994 559.568 C 674.991 514.665, 674.624 489.185, 673.945 486.741 C 672.709 482.291, 670.558 480.734, 662.500 478.455 C 654.096 476.078, 649.221 475.827, 643.951 477.500 M 495.051 480.662 C 492.319 484.135, 492.290 484.298, 490.445 506.500 C 489.576 516.950, 487.576 534.725, 486 546 C 484.424 557.275, 482.646 574.150, 482.050 583.500 C 481.453 592.850, 480.479 606.034, 479.886 612.798 C 478.692 626.404, 479.005 628.995, 482.201 631.972 C 485.542 635.086, 488.038 634.441, 493.711 628.999 C 496.578 626.250, 499.503 624.014, 500.211 624.032 C 501.991 624.076, 504.014 625.849, 507.291 630.237 C 510.816 634.956, 513.379 636.403, 515.863 635.073 C 518.958 633.417, 520.304 628.655, 519.630 621.752 C 519.294 618.314, 518.609 610.775, 518.108 605 C 517.607 599.225, 516.026 589.775, 514.595 584 C 512.627 576.057, 511.751 568.996, 510.997 555 C 510.449 544.825, 509.773 533.350, 509.495 529.500 C 509.216 525.650, 508.532 514.850, 507.973 505.500 C 506.718 484.469, 506.465 482.876, 503.949 480.175 C 501.189 477.213, 497.610 477.409, 495.051 480.662 M 413.291 488.250 C 407.559 494.519, 407.752 492.072, 407.764 558.140 C 407.774 618.774, 407.779 618.912, 409.985 623.468 C 412.580 628.830, 415.085 630.560, 417.997 629.002 C 420.280 627.780, 423.421 622.052, 424.468 617.201 C 424.860 615.386, 425.185 587.888, 425.190 556.094 C 425.201 492.715, 425.441 495.422, 419.199 488.750 C 416.089 485.426, 415.889 485.409, 413.291 488.250 M 651.054 492.608 C 649.350 494.042, 647.457 496.145, 646.850 497.281 C 646.075 498.729, 645.757 518.086, 645.786 562 C 645.833 631.252, 645.747 630.266, 652.029 633.515 C 656.022 635.580, 659.433 634.795, 661.737 631.279 C 663.367 628.793, 663.522 623.720, 663.792 564.103 C 664.102 495.428, 664.127 495.818, 659.230 491.966 C 655.954 489.389, 654.769 489.482, 651.054 492.608 M 327.061 552.750 C 323.632 555.528, 323.048 560.800, 323.044 589 C 323.039 619.184, 323.948 628.612, 327.119 631.250 C 329.785 633.469, 333.848 633.487, 337.027 631.296 C 343.749 626.663, 344.869 620.585, 344.488 590.810 C 344.104 560.769, 343.328 557, 336.701 552.960 C 332.736 550.541, 329.865 550.479, 327.061 552.750 M 498.557 593.223 C 496.378 596.333, 496.619 599.619, 499.155 601.396 C 503.631 604.531, 507.823 598.432, 504.587 593.493 C 502.567 590.409, 500.589 590.321, 498.557 593.223 M 563.051 641.708 C 562.255 642.606, 561.427 645.851, 561.211 648.920 C 560.861 653.906, 561.151 654.956, 563.940 658.783 C 570.167 667.330, 578.088 669.220, 588.236 664.578 C 591.149 663.246, 594.729 661.855, 596.192 661.488 C 599.921 660.552, 602.320 657.545, 602.217 653.934 C 602.048 647.987, 598.590 646.602, 591.408 649.603 C 589.185 650.532, 586.075 651.005, 584.014 650.729 C 581.015 650.326, 570.470 644.550, 566.292 641.020 C 564.781 639.744, 564.798 639.740, 563.051 641.708 M 491 660 C 488.605 662.395, 488.458 664.305, 490.535 666.029 C 491.779 667.061, 493.107 667.054, 497.547 665.989 C 500.560 665.266, 503.477 664.130, 504.030 663.464 C 505.742 661.402, 504.047 659.270, 500.189 658.632 C 494.398 657.674, 493.138 657.862, 491 660" stroke="none" fill="#ffffff" fill-rule="evenodd"/>
</svg>