<svg xmlns="http://www.w3.org/2000/svg" width="1000" height="152" viewBox="0 0 1000 152" version="1.1">
	<path d="M 68.616 1.441 C 68.990 2.417, 67.612 3.673, 64.334 5.342 C 58.173 8.478, 55.631 11.265, 53.248 17.500 C 52.197 20.250, 50.199 24.158, 48.808 26.184 C 47.417 28.211, 45.323 33.679, 44.155 38.337 C 42.986 42.994, 40.488 49.436, 38.602 52.653 C 36.716 55.869, 34.215 62.060, 33.045 66.411 C 31.875 70.762, 29.390 77.062, 27.523 80.411 C 25.655 83.760, 23.179 90.100, 22.021 94.500 C 20.862 98.900, 18.581 104.670, 16.953 107.323 C 15.325 109.975, 12.927 115.928, 11.625 120.552 C 8.599 131.295, 6.860 134, 2.977 134 L 0 134 0 143 L 0 152 17.500 152 C 33.353 152, 35 151.839, 35 150.288 C 35 149.346, 36.760 146.759, 38.912 144.538 C 41.861 141.493, 43.359 138.679, 45 133.095 C 46.198 129.022, 48.303 123.988, 49.679 121.909 C 51.055 119.830, 53.297 113.713, 54.661 108.315 C 56.087 102.672, 58.393 96.541, 60.085 93.891 C 61.924 91.010, 63.763 85.909, 64.992 80.279 C 66.073 75.327, 67.260 70.426, 67.631 69.388 C 69.956 62.870, 75.435 62.198, 80.981 67.750 C 84.280 71.053, 84.994 72.693, 86.964 81.500 C 88.380 87.824, 90.510 93.870, 92.761 97.949 C 94.727 101.510, 97.377 108.663, 98.680 113.923 C 99.978 119.163, 102.150 125.052, 103.508 127.011 C 104.865 128.970, 106.732 132.806, 107.657 135.536 C 108.581 138.266, 110.837 142.688, 112.669 145.362 C 114.501 148.036, 116 150.624, 116 151.112 C 116 151.600, 122.750 152, 131 152 L 146 152 146.006 149.250 C 146.009 147.738, 146.484 144.796, 147.062 142.714 C 147.975 139.429, 147.774 138.186, 145.544 133.316 C 144.131 130.229, 142.292 124.733, 141.457 121.102 C 140.623 117.471, 138.442 112.025, 136.612 109 C 134.781 105.975, 132.294 99.675, 131.085 95 C 129.876 90.325, 127.384 83.800, 125.548 80.500 C 123.712 77.200, 121.211 70.675, 119.990 66 C 118.769 61.325, 116.784 55.925, 115.580 54 C 112.026 48.320, 110.248 43.874, 108.979 37.500 C 108.299 34.081, 105.357 26.788, 102.142 20.547 C 96.279 9.164, 92.233 4.949, 85.750 3.469 C 82.423 2.709, 82.168 1.299, 85.250 0.706 C 86.487 0.467, 83.127 0.211, 77.781 0.136 C 69.695 0.023, 68.156 0.242, 68.616 1.441 M 135 1.768 C 135 2.740, 133.866 5.205, 132.480 7.245 C 131.093 9.285, 129.694 12.278, 129.371 13.897 C 128.682 17.340, 133.040 31.631, 136.416 37 C 139.168 41.378, 140.472 44.802, 142.448 52.843 C 143.305 56.332, 145.525 61.957, 147.382 65.343 C 149.238 68.729, 151.754 75.325, 152.974 80 C 154.193 84.675, 156.498 90.645, 158.096 93.267 C 159.694 95.888, 162.069 102.033, 163.374 106.923 C 164.678 111.812, 167.110 118.217, 168.777 121.156 C 170.445 124.095, 172.748 129.686, 173.896 133.579 C 175.600 139.361, 176.810 141.433, 180.492 144.884 C 182.971 147.209, 185 149.760, 185 150.555 C 185 151.748, 187.505 152, 199.361 152 L 213.721 152 214.352 146.750 C 215.559 136.702, 215.210 134.308, 212.003 130.656 C 209.830 128.181, 208.318 124.594, 206.502 117.604 C 205.124 112.303, 202.678 105.611, 201.066 102.733 C 199.454 99.855, 197.172 93.675, 195.995 89 C 194.818 84.325, 192.570 78.475, 191 76 C 189.430 73.525, 186.966 67.283, 185.523 62.129 C 184.081 56.974, 181.362 49.774, 179.480 46.129 C 177.598 42.483, 175.116 35.900, 173.964 31.500 C 171.728 22.957, 168.090 16.442, 161.250 8.727 C 158.912 6.090, 157 3.048, 157 1.967 C 157 0.130, 156.271 0, 146 0 C 136.148 0, 135 0.185, 135 1.768 M 419.643 1.513 C 420.182 2.916, 413.707 10, 411.886 10 C 411.488 10, 410.161 11.622, 408.936 13.604 C 406.810 17.043, 406.733 17.923, 407.252 32.883 C 407.635 43.892, 407.455 49.022, 406.648 50.116 C 403.756 54.039, 396.708 55.158, 390.701 52.649 C 383.881 49.799, 378.607 49.755, 367.411 52.452 C 354.827 55.485, 350.733 57.262, 349.039 60.427 C 348.351 61.713, 345.866 64.119, 343.517 65.775 C 339.670 68.486, 338.969 69.655, 336.456 77.548 C 334.921 82.368, 332.466 87.704, 330.999 89.406 C 329.532 91.108, 327.518 93.907, 326.524 95.626 L 324.716 98.751 329.928 109.051 C 332.795 114.715, 335.955 121.491, 336.949 124.108 C 339.787 131.576, 347.396 139.666, 354.768 143.053 C 360.031 145.471, 361.134 146.419, 361.643 148.966 L 362.250 152 379.125 152 C 395.233 152, 396 151.911, 396 150.035 C 396 147.592, 398.590 146.155, 404.433 145.354 C 409.478 144.663, 413.374 146.452, 414.492 149.973 C 415.074 151.810, 415.974 152, 424.067 152 C 432.391 152, 433 151.861, 433 149.960 C 433 148.838, 434.012 146.026, 435.250 143.710 L 437.500 139.500 437.500 78.500 C 437.500 44.950, 437.173 16.339, 436.774 14.921 C 436.374 13.502, 434.466 10.352, 432.534 7.921 C 430.601 5.489, 429.015 2.712, 429.010 1.750 C 429.002 0.319, 428.093 0, 424.031 0 C 420.007 0, 419.173 0.288, 419.643 1.513 M 458 3.463 C 458 5.368, 457.092 9.229, 455.983 12.043 C 454.288 16.344, 454.136 17.825, 455.030 21.330 C 457.633 31.534, 459.229 33.008, 468.482 33.751 C 477.246 34.454, 484.524 31.258, 487.107 25.571 C 489.887 19.451, 489.519 14.259, 485.972 9.572 C 484.306 7.370, 483 4.404, 483 2.822 L 483 0 470.500 0 L 458 0 458 3.463 M 146 2 C 146 2.550, 146.675 3, 147.500 3 C 148.325 3, 149 2.550, 149 2 C 149 1.450, 148.325 1, 147.500 1 C 146.675 1, 146 1.450, 146 2 M 952.500 48.903 C 951.400 49.290, 948.475 50.546, 946 51.695 C 939.187 54.856, 931.358 55.438, 922.412 53.448 C 910.705 50.844, 902.848 52.648, 900.154 58.561 C 899.347 60.332, 899 72.433, 899.001 98.797 L 899.002 136.500 902.001 142.840 C 903.650 146.327, 905 149.814, 905 150.590 C 905 151.699, 906.921 152, 914 152 C 922.008 152, 923 151.801, 923 150.196 C 923 149.203, 924.462 146.166, 926.250 143.446 L 929.500 138.500 929.543 115 L 929.586 91.500 932.376 86.500 C 936.392 79.304, 937.934 78.069, 944.161 77.055 C 954.378 75.392, 961.921 78.662, 965.956 86.504 C 968.462 91.372, 968.501 91.806, 968.595 115.198 C 968.690 138.866, 968.699 138.968, 971.345 144.067 C 972.805 146.882, 974 149.818, 974 150.592 C 974 151.730, 976.490 152, 987 152 L 1000 152 1000 111 L 1000 70 997.589 70 C 994.944 70, 991.096 66.059, 989.147 61.355 C 987.613 57.652, 986.303 56.869, 973.511 52.004 C 963.232 48.096, 957.290 47.218, 952.500 48.903 M 267 49.692 C 265.625 49.946, 259.668 51.436, 253.763 53.003 C 243.698 55.674, 242.613 56.218, 236.442 61.676 C 232.499 65.164, 228.668 69.706, 226.893 73 C 225.262 76.025, 222.932 80.075, 221.714 82 C 219.701 85.183, 219.500 86.769, 219.500 99.500 C 219.500 112.151, 219.710 113.837, 221.681 117 C 222.881 118.925, 225.436 123.200, 227.359 126.500 C 232.231 134.860, 238.387 140.545, 245.539 143.290 C 250.259 145.101, 251.798 146.246, 252.930 148.789 L 254.361 152 273.180 152 L 292 152 292 149.523 C 292 146.754, 294.396 144.891, 300.416 142.979 C 302.570 142.295, 306.317 139.906, 308.743 137.670 C 316.490 130.528, 318.048 124.760, 313.250 120.976 C 310.704 118.968, 309.807 118.859, 301.139 119.505 C 289.784 120.352, 286.850 121.139, 281.673 124.727 C 275.264 129.168, 269.422 128.674, 260 122.895 C 253.665 119.010, 252.453 117.832, 252.199 115.312 C 251.627 109.650, 252.407 109.505, 283.921 109.446 C 315.750 109.386, 316.276 109.286, 320.735 102.484 L 322.939 99.122 319.501 88.311 C 317.610 82.365, 315.585 75.600, 315 73.277 C 314.238 70.247, 312.887 68.270, 310.219 66.278 C 308.173 64.750, 305.852 62.628, 305.061 61.561 C 301.840 57.220, 299.833 56.184, 288.908 53.223 C 276.581 49.882, 270.918 48.969, 267 49.692 M 543 49.726 C 537.755 50.678, 523.928 54.990, 520.615 56.707 C 516.237 58.975, 505.295 71.230, 502.943 76.500 C 500.322 82.371, 498.628 96.003, 499.352 105.396 C 500.333 118.131, 502.422 124.639, 507.285 130.107 C 509.603 132.714, 512.454 136.120, 513.621 137.676 C 514.788 139.232, 517.488 141.120, 519.621 141.871 C 526.393 144.255, 530 146.935, 530 149.582 L 530 152 546.500 152 C 561.871 152, 563 151.874, 563 150.155 C 563 147.689, 565.939 145.162, 569.677 144.415 C 573.658 143.618, 578.774 146.251, 579.594 149.518 C 580.205 151.951, 580.411 152, 590.108 152 C 599.818 152, 600 151.957, 600 149.655 C 600 148.365, 600.946 146.454, 602.102 145.407 C 606.764 141.189, 606.831 140.566, 607.091 98.756 C 607.280 68.288, 607.049 58.764, 606.091 57.610 C 602.554 53.348, 588.317 51.539, 576.940 53.906 C 571.883 54.958, 570.255 54.789, 558.965 52.032 C 552.137 50.364, 546.314 49.061, 546.025 49.136 C 545.736 49.211, 544.375 49.477, 543 49.726 M 816.500 49.652 C 815.400 49.884, 810.077 51.268, 804.672 52.729 C 793.727 55.688, 788.651 59.202, 782.821 67.858 C 781.101 70.411, 778.429 73.533, 776.882 74.796 C 772.903 78.043, 772.012 82.476, 772.006 99.068 C 771.999 116.521, 773.197 121.446, 779.223 128.719 C 781.575 131.559, 784.349 135.087, 785.387 136.560 C 786.472 138.101, 790.441 140.682, 794.730 142.636 C 800.633 145.327, 802.421 146.656, 803.313 149.017 L 804.438 152 820.219 152 L 836 152 836 149.622 C 836 146.272, 838.611 144.500, 843.549 144.500 C 848.215 144.500, 852 147.033, 852 150.155 C 852 151.837, 852.975 152, 863 152 C 872.335 152, 874 151.762, 874 150.428 C 874 149.564, 875.165 146.868, 876.589 144.438 L 879.178 140.021 879.184 98.883 C 879.191 49.480, 880.514 53.692, 864.815 53.151 C 859.241 52.960, 852.159 53.299, 849.077 53.905 C 844.015 54.901, 842.359 54.718, 831.986 52.021 C 825.669 50.379, 820.050 49.079, 819.500 49.133 C 818.950 49.188, 817.600 49.421, 816.500 49.652 M 623.251 53.425 C 617.763 55.920, 617.402 58.230, 620.484 71.118 C 621.974 77.349, 624.327 84.684, 625.712 87.419 C 627.098 90.153, 629.515 97.620, 631.083 104.011 C 632.651 110.401, 635.126 117.763, 636.583 120.370 C 638.040 122.977, 640.118 128.566, 641.200 132.791 C 642.829 139.150, 643.937 141.294, 647.635 145.248 C 650.093 147.875, 651.828 150.469, 651.492 151.012 C 651.106 151.638, 654.572 152, 660.941 152 C 670.052 152, 671 151.826, 671 150.155 C 671 149.140, 672.793 145.535, 674.985 142.144 C 681.219 132.499, 682.750 128.943, 684.554 119.915 C 687.385 105.745, 689.596 102.613, 694.200 106.250 C 697.283 108.686, 704.717 124.632, 706.479 132.587 C 708.050 139.681, 708.685 140.918, 712.616 144.540 C 715.027 146.763, 717 149.350, 717 150.290 C 717 151.789, 718.233 152, 727 152 C 736.776 152, 737 151.948, 737 149.694 C 737 148.425, 739.267 144.170, 742.037 140.238 C 747.095 133.059, 748.768 128.288, 751.993 111.844 C 752.604 108.733, 754.396 104.233, 755.977 101.844 C 758.890 97.440, 759.955 93.920, 762.065 81.722 C 762.768 77.657, 764.187 73.655, 765.611 71.722 C 769.533 66.397, 771.172 62.060, 770.470 58.863 C 769.429 54.123, 766.629 53.036, 755.159 52.919 C 742.421 52.789, 740.723 53.684, 738.398 61.756 C 737.489 64.915, 735.701 70.200, 734.426 73.500 C 733.150 76.800, 731.178 82.735, 730.043 86.689 C 725.783 101.530, 720.719 100.450, 716.791 83.862 C 715.747 79.455, 713.619 73.295, 712.061 70.175 C 710.503 67.054, 708.714 62.879, 708.086 60.897 C 707.457 58.915, 705.821 56.241, 704.450 54.953 C 698.985 49.819, 681.129 52.961, 677.683 59.662 C 676.881 61.223, 675.271 67.188, 674.106 72.917 C 671.630 85.098, 669.848 88.605, 664.810 91.220 C 657.759 94.878, 655.274 91.299, 652.509 73.508 C 651.569 67.462, 650.139 61.235, 649.329 59.670 C 646.381 53.969, 630.447 50.153, 623.251 53.425 M 459 55.481 L 456.500 58.159 456.217 97.016 C 455.944 134.333, 456.016 136.103, 458.029 141.686 C 459.182 144.884, 460.374 148.512, 460.679 149.750 C 461.204 151.883, 461.719 152, 470.549 152 C 479.341 152, 479.904 151.873, 480.548 149.750 C 480.923 148.512, 482.022 146.600, 482.990 145.500 C 487.406 140.482, 487.435 140.200, 487.618 100 C 487.721 77.290, 487.398 60.425, 486.829 58.880 C 485.423 55.059, 481.679 53.724, 471 53.237 C 461.735 52.815, 461.438 52.870, 459 55.481 M 264.981 74.423 C 253.917 76.675, 249.080 82.044, 254.054 86.552 C 255.915 88.238, 257.971 88.539, 269.352 88.789 C 280.398 89.031, 283.060 88.792, 286 87.289 C 288.825 85.845, 289.500 84.921, 289.500 82.500 C 289.500 79.853, 288.853 79.187, 284 76.839 C 277.287 73.591, 272.225 72.948, 264.981 74.423 M 377.534 76.468 C 374.335 77.326, 371.748 78.814, 370.264 80.650 C 368.996 82.218, 366.298 85.485, 364.269 87.912 C 360.791 92.071, 360.576 92.731, 360.539 99.412 C 360.506 105.374, 360.934 107.238, 363.230 111.145 C 364.732 113.699, 367.432 117.032, 369.230 118.552 C 373.595 122.240, 382.264 126, 386.404 126 C 390.947 126, 399.860 121.880, 403.394 118.147 C 405.988 115.407, 406.390 114.061, 407.269 105.176 C 408.174 96.038, 408.073 94.729, 405.980 88.441 C 403.179 80.024, 400.798 77.551, 394.114 76.118 C 387.545 74.709, 383.792 74.788, 377.534 76.468 M 543.101 76.528 C 537.264 78.427, 535.624 80.070, 532.146 87.503 C 527.520 97.386, 527.361 100.408, 530.973 109.774 C 534.325 118.465, 535.170 119.302, 544.272 122.942 C 548.553 124.654, 551.320 125.128, 554.980 124.776 C 561.552 124.144, 572.551 118.498, 573.994 115.014 C 574.592 113.570, 575.158 107.239, 575.251 100.945 C 575.471 86.084, 573.701 81.495, 566.372 77.920 C 560.442 75.027, 549.693 74.384, 543.101 76.528 M 816.759 76.372 C 810.582 78.661, 808.149 80.773, 805.360 86.268 C 801.609 93.658, 801.208 102.385, 804.224 111 C 806.460 117.386, 806.623 117.565, 813.500 121.218 C 822.859 126.190, 828.083 126.279, 838.266 121.638 C 847.865 117.264, 848.323 116.195, 847.830 99.297 C 847.379 83.819, 846.461 81.475, 839.500 78.014 C 833.465 75.014, 822.551 74.226, 816.759 76.372" stroke="none" fill="#ffffff" fill-rule="evenodd"/>
</svg>