<svg xmlns="http://www.w3.org/2000/svg" width="1000" height="275" viewBox="0 0 1000 275" version="1.1">
	<path d="M 136.374 34.985 C 133.670 36.077, 131.751 39.007, 125.230 52 C 120.902 60.624, 119.614 64.455, 118.021 73.445 C 116.772 80.492, 115.112 86.190, 113.361 89.445 C 105.875 103.353, 105.689 103.894, 104.893 114.173 C 103.897 127.035, 103.285 129.657, 100.722 132.044 C 96.711 135.781, 90.458 134.429, 81.413 127.868 C 74.492 122.847, 69.678 113.100, 67.977 100.661 C 67.129 94.460, 65.870 90.133, 63.759 86.161 C 62.105 83.048, 59.663 78.440, 58.334 75.923 C 56.909 73.226, 55.097 66.707, 53.922 60.054 C 52.826 53.844, 51.262 47.473, 50.447 45.897 C 48.281 41.708, 42.609 36.370, 39.494 35.588 C 36.156 34.750, 32.314 37.043, 30.923 40.704 C 30.298 42.347, 29.940 76.255, 29.951 132.892 C 29.967 218.896, 30.043 222.581, 31.842 224.990 C 34.538 228.601, 39.574 228.451, 42.392 224.676 C 44.468 221.896, 44.500 221.115, 44.500 173.676 C 44.500 130.075, 44.663 125.203, 46.213 122.371 C 49.684 116.031, 53.436 117.022, 58.357 125.577 C 60.738 129.717, 63.442 132.885, 65.941 134.463 C 71.147 137.749, 73.337 143.846, 75.404 160.812 C 77.279 176.204, 78.520 179.798, 83.144 183.220 C 87.505 186.448, 89.016 186.917, 91.765 185.895 C 94.590 184.845, 95.776 181.781, 97.103 172.106 C 98.126 164.649, 103.666 148.942, 107.016 144 C 107.949 142.625, 110.616 137.675, 112.945 133 C 117.228 124.399, 121.345 119, 123.619 119 C 125.674 119, 128.863 124.382, 130.508 130.627 C 131.773 135.427, 132.042 142.986, 131.981 172 C 131.860 229.909, 131.618 224.709, 134.566 227.657 C 137.794 230.885, 142.411 230.305, 145.785 226.248 L 148.071 223.500 147.661 131.918 C 147.373 67.759, 146.920 39.718, 146.146 38.273 C 145.332 36.751, 139.500 33.498, 138.601 34.063 C 138.545 34.098, 137.543 34.513, 136.374 34.985 M 194.364 35.107 C 190.157 37.267, 189.677 40.218, 189.017 68 C 188.058 108.303, 188.778 218.799, 190.024 222.574 C 192.260 229.348, 191.637 229.228, 225.542 229.371 C 253.679 229.490, 256.315 229.355, 258.080 227.711 C 262.435 223.653, 259.941 213.461, 253.988 210.995 C 251.429 209.935, 249.881 209.954, 245.191 211.104 C 242.061 211.872, 235.450 212.500, 230.500 212.500 C 222.895 212.500, 220.749 212.116, 216.652 210.024 C 210.036 206.645, 207.355 203.942, 206.086 199.373 C 204.400 193.298, 204.665 153.736, 206.421 149.534 C 208.988 143.392, 214.425 141.824, 233.943 141.602 C 249.029 141.429, 253.432 140.111, 254.611 135.414 C 255.817 130.608, 253.859 126.694, 249.025 124.250 C 245.112 122.271, 243.058 122, 231.966 122 C 217.911 122, 211.831 120.578, 207.876 116.368 C 205.504 113.842, 205.500 113.790, 205.500 88.669 C 205.500 59.712, 205.469 59.828, 214.298 55.877 C 219.220 53.674, 220.487 53.563, 237.849 53.816 C 254.901 54.064, 256.513 53.930, 260.651 51.927 C 269.286 47.747, 269.655 42.817, 261.717 37.669 L 257.600 35 232.947 35 C 219.387 35, 205.640 34.777, 202.397 34.505 C 199.045 34.224, 195.578 34.483, 194.364 35.107 M 319.500 34.963 L 291.500 35.500 284.963 38.641 C 277.257 42.344, 275.201 44.333, 276.928 46.414 C 278.807 48.677, 285.907 51.582, 294 53.397 C 304.386 55.728, 309.257 58.333, 311.849 62.945 C 313.999 66.770, 314 66.817, 314 144.018 C 314 219.663, 314.042 221.331, 316.011 224.518 C 319.426 230.044, 326.012 230.668, 329.011 225.750 C 330.941 222.584, 330.993 220.491, 331.002 145 C 331.008 92.810, 331.362 66.235, 332.086 63.627 C 333.994 56.757, 336.678 55.241, 347.631 54.845 C 356.758 54.515, 357.286 54.372, 359.697 51.567 C 361.865 49.046, 362.152 47.929, 361.738 43.626 C 361.103 37.016, 357.783 33.904, 351.694 34.213 C 349.387 34.329, 334.900 34.667, 319.500 34.963 M 616.718 35.450 C 612.147 37.722, 612.116 38.364, 612.056 133.300 C 611.994 231.919, 611.765 228.131, 617.879 229.473 C 621.204 230.204, 626.737 228.229, 629 225.504 C 630.249 223.999, 630.584 217.749, 631 188.099 C 631.464 155.090, 631.642 152.266, 633.448 149.279 C 635.522 145.851, 641.139 142.993, 645.770 143.010 C 648.878 143.021, 657.382 146.912, 660.776 149.875 C 664.243 152.902, 666.682 159.557, 667.969 169.500 C 669.808 183.702, 670.932 187.677, 674.626 193.046 C 677.826 197.699, 681.935 210.227, 681.990 215.500 C 682.029 219.197, 684.114 225.114, 686.065 227.065 C 688.619 229.619, 693.070 229.519, 696.488 226.831 C 699.021 224.838, 699.200 224.250, 698.692 219.581 C 698.118 214.297, 695.702 205.843, 689.667 188 C 687.714 182.225, 684.798 173.450, 683.187 168.500 C 681.577 163.550, 679.484 157.475, 678.538 155 C 677.241 151.610, 676.981 149.032, 677.481 144.549 C 678.348 136.776, 678.963 135.698, 686.952 127.952 C 692.134 122.927, 694.232 120.020, 695.972 115.452 C 699.408 106.432, 700.507 94.996, 699.283 81.006 C 697.884 65.026, 695.025 58.783, 684.109 47.866 C 673.329 37.087, 670.104 35.765, 653.500 35.323 C 646.350 35.132, 635.648 34.835, 629.718 34.662 C 623.219 34.473, 618.054 34.786, 616.718 35.450 M 857.901 35.112 C 852.485 37.100, 852.660 33.926, 852.603 131.256 C 852.554 215.801, 852.662 221.708, 854.323 224.793 C 857.663 230.998, 864.600 231.608, 867.524 225.954 C 868.873 223.345, 869.062 217.226, 868.925 180.719 C 868.786 144.034, 868.990 137.543, 870.475 131.199 C 871.446 127.048, 873.172 122.749, 874.474 121.235 C 876.451 118.937, 877.093 118.721, 879.156 119.661 C 881.681 120.812, 891.121 136.769, 893.693 144.235 C 894.475 146.505, 896.052 150.418, 897.198 152.931 C 901.974 163.404, 902.749 165.827, 903.456 172.500 C 904.286 180.322, 906.176 185.747, 908.365 186.586 C 911.887 187.938, 920.813 180.217, 922.915 174 C 923.566 172.075, 924.772 164.875, 925.595 158 C 927.670 140.662, 929.282 136.429, 935.197 132.786 C 938.059 131.024, 941.069 127.984, 942.901 125.007 C 946.824 118.630, 949.539 117.094, 952.193 119.749 C 953.265 120.821, 954.550 123.454, 955.047 125.599 C 955.545 127.745, 955.963 150.477, 955.976 176.115 C 955.999 221.742, 956.044 222.786, 958.073 225.365 C 960.705 228.712, 965.814 228.969, 968.595 225.893 C 970.442 223.850, 970.494 220.993, 970.313 131.775 L 970.127 39.764 967.889 37.382 C 964.217 33.473, 957.714 34.611, 953.192 39.954 C 950.449 43.194, 948.132 49.792, 947.029 57.500 C 945.500 68.190, 944.473 71.330, 940 79 C 935.520 86.682, 934.561 89.557, 932.513 101.464 C 930.506 113.132, 928.022 118.054, 920.050 126.161 C 912.155 134.190, 907 136.324, 901.656 133.776 C 897.569 131.827, 896 127.172, 896 117 C 896 108.382, 894.594 102.947, 890.954 97.500 C 886.104 90.242, 884.851 86.887, 882.975 76.137 C 881.043 65.065, 879.159 59.453, 875.775 54.690 C 874.677 53.144, 872.700 48.869, 871.383 45.190 C 868.951 38.395, 865.263 33.936, 862.194 34.079 C 861.262 34.122, 859.331 34.587, 857.901 35.112 M 406.560 38.250 C 401.704 43.121, 399.037 51.503, 397.414 67 C 395.592 84.393, 393.478 94.723, 389.887 103.775 C 386.223 113.010, 383.391 124.162, 381.963 134.972 C 381.347 139.631, 380.698 143.681, 380.519 143.972 C 380.341 144.262, 379.250 149.977, 378.096 156.671 C 376.941 163.365, 375.125 170.875, 374.060 173.359 C 372.996 175.843, 371.445 181.391, 370.615 185.688 C 363.371 223.190, 363.304 228, 370.026 228 C 373.772 228, 376.663 224.396, 378.457 217.488 C 379.313 214.195, 382.461 206.500, 385.452 200.390 C 392.627 185.736, 393.109 185.476, 412.754 185.686 C 434.880 185.923, 436.822 187.544, 440.033 208.461 C 442.221 222.717, 442.852 224.330, 447.314 227.050 C 451.558 229.638, 456.440 229.560, 459.139 226.861 C 461.098 224.902, 461.229 223.998, 460.698 216.111 C 460.089 207.058, 459.036 202.775, 456.001 197 C 450.437 186.416, 448.712 178.951, 447.008 158.093 C 445.801 143.325, 444.654 138.429, 440.424 130 C 435.855 120.893, 434.250 114.394, 433.014 100 C 431.539 82.821, 430.134 75.317, 427.355 69.768 C 424.981 65.028, 420.662 50.701, 419.543 43.851 C 418.746 38.971, 415.509 35, 412.327 35 C 410.807 35, 408.509 36.295, 406.560 38.250 M 515.720 36.412 C 512.952 37.906, 506.798 42.793, 500.498 48.500 C 496.948 51.716, 491.115 65.649, 489.068 75.799 C 487.791 82.134, 487.664 177.843, 488.918 188.659 C 489.945 197.509, 495.933 212.394, 500.715 217.981 C 509.812 228.608, 526.313 232.431, 545.755 228.416 C 555.279 226.448, 558.252 224.943, 560.840 220.774 C 561.959 218.973, 564.739 215.700, 567.019 213.500 C 569.299 211.300, 571.753 208.375, 572.472 207 C 574.970 202.222, 576 189.973, 576 165.026 C 576 130.188, 576.245 130.623, 555.990 129.512 C 543.549 128.830, 543.464 128.840, 540.740 131.365 C 538.899 133.071, 538 134.913, 538 136.977 C 538 139.778, 538.589 140.333, 544.686 143.275 C 555.104 148.301, 555.437 149.063, 555.841 168.822 C 556.227 187.657, 555.015 199.137, 552.240 202.936 C 549.828 206.239, 534.545 214.183, 530.377 214.301 C 528.021 214.367, 526.108 213.427, 523.133 210.739 C 520.909 208.730, 517.382 206.211, 515.295 205.141 C 508.813 201.817, 507.098 199.187, 506.026 190.930 C 505.496 186.844, 505.048 160.414, 505.031 132.197 C 504.998 77.608, 505.425 71.763, 509.998 64.244 C 512.065 60.844, 520.977 55.776, 526.873 54.647 C 530.407 53.970, 541.148 55.310, 546.827 57.136 C 551.325 58.582, 553.990 63.175, 554.002 69.500 C 554.014 75.991, 555.645 81.744, 557.794 82.872 C 560.944 84.526, 567.470 84.943, 570.988 83.716 C 576.089 81.938, 577.375 78.591, 575.965 70.766 C 574.355 61.838, 570.716 55.881, 561.671 47.372 C 550.094 36.482, 548.261 35.735, 532 35.285 C 521.357 34.990, 517.912 35.229, 515.720 36.412 M 770.296 36.200 C 767.856 39.276, 766.734 42.786, 764.976 52.831 C 763.949 58.699, 762.400 65.496, 761.533 67.936 C 757.046 80.569, 755.054 98.277, 757.198 106.488 C 758.977 113.304, 760.871 113.418, 767.107 107.083 C 772.828 101.271, 776.736 100.376, 779.480 104.250 C 780.357 105.487, 783.085 112.800, 785.542 120.500 C 788 128.200, 791.122 137.200, 792.481 140.500 C 793.840 143.800, 794.963 147.573, 794.976 148.884 C 795.027 154.025, 792.430 159.519, 787.389 164.932 L 782.204 170.500 775.183 170.496 C 769.011 170.493, 767.637 170.129, 763.831 167.489 C 756.830 162.635, 755.117 157.967, 754.181 141.186 C 753.357 126.420, 752.462 123.541, 749.469 126.025 C 744.977 129.754, 741.358 142.323, 739.976 159 C 738.481 177.029, 736.943 184.951, 733.473 192.500 C 731.704 196.350, 729.761 201.750, 729.157 204.500 C 728.552 207.250, 727.594 211.612, 727.029 214.193 C 724.833 224.212, 726.878 230, 732.616 230 C 736.065 230, 740.736 225.125, 741.335 220.900 C 743.348 206.700, 744.250 202.430, 745.933 199.131 C 748.036 195.010, 754.823 188.396, 758.302 187.079 C 762.483 185.496, 776.495 184.885, 784 185.959 C 795.739 187.638, 798.077 190.246, 803.890 208.147 C 805.739 213.841, 808.127 220.355, 809.197 222.622 C 812.257 229.106, 818.620 231.036, 821.657 226.401 C 823.167 224.097, 823.217 223.107, 822.105 217.651 C 821.415 214.268, 819.350 208.125, 817.517 204 C 813.967 196.010, 812.497 189.761, 811.519 178.500 C 809.732 157.914, 807.414 147.362, 803.370 141.404 C 799.158 135.197, 797 128.466, 797 121.535 C 797 108.985, 794.457 94.387, 790.027 81.500 C 787.168 73.184, 785.871 66.728, 784.001 51.500 C 783.393 46.550, 782.132 40.925, 781.198 39 C 779.720 35.954, 778.969 35.461, 775.414 35.200 C 772.931 35.019, 770.923 35.411, 770.296 36.200 M 639.034 55.752 C 637.128 56.713, 634.653 59.075, 633.534 61 C 631.636 64.266, 631.500 66.174, 631.500 89.500 C 631.500 113.950, 631.553 114.599, 633.893 119 C 636.838 124.537, 639.231 126.689, 644.046 128.132 C 649.423 129.743, 660.107 127.710, 665.400 124.069 C 667.655 122.518, 671.525 120.124, 674 118.748 C 681.163 114.766, 681.896 112.367, 681.952 92.693 C 682.024 67.643, 680.616 63.129, 671.387 58.804 C 661.035 53.953, 645.504 52.488, 639.034 55.752 M 409.552 97.943 C 407.743 99.941, 403 111.956, 403 114.539 C 403 115.336, 401.016 120.402, 398.591 125.798 C 396.166 131.193, 393.403 139.230, 392.452 143.658 C 390.802 151.336, 390.805 151.971, 392.509 157.390 C 394.658 164.221, 398.027 167.371, 405.513 169.547 C 415.114 172.338, 422.808 169.159, 426.898 160.711 C 429.381 155.581, 429.500 152.734, 427.549 145.144 C 426.751 142.040, 425.603 134.595, 424.999 128.599 C 423.858 117.267, 421.635 106.114, 419.810 102.562 C 418.070 99.176, 414.764 96, 412.981 96 C 412.062 96, 410.519 96.874, 409.552 97.943" stroke="none" fill="#ffffff" fill-rule="evenodd"/>
</svg>