<svg xmlns="http://www.w3.org/2000/svg" width="1000" height="983" viewBox="0 0 1000 983" version="1.1">
	<path d="M 295.500 97.980 C 293.300 99.634, 289.499 102.227, 287.053 103.743 C 279.412 108.480, 278.353 109.993, 277.012 118.084 C 275.017 130.119, 273.083 139.651, 272.127 142.158 C 271.636 143.446, 269.386 146.956, 267.128 149.958 C 262.395 156.251, 260.662 161.122, 258.933 173 C 257.525 182.665, 255.632 187.675, 250.652 194.915 C 246.704 200.655, 244.024 208.241, 241.083 222 C 238.132 235.812, 237.536 237.465, 232.670 245.350 C 227.594 253.574, 225.514 259.434, 223.922 270 C 222.506 279.392, 221.024 282.990, 216.155 288.850 C 210.726 295.386, 210.480 296.008, 207.504 310.795 C 205.006 323.205, 202.002 331.032, 198.279 334.835 C 195.959 337.206, 193.207 344.334, 192.040 351 C 189.987 362.718, 186.949 372.322, 183.499 378.002 C 178.408 386.382, 176.229 392.107, 174.453 401.764 C 171.871 415.802, 170.063 421.093, 165.484 428 C 159.913 436.403, 158.261 440.562, 156.514 450.579 C 153.964 465.201, 153.059 467.621, 147.962 473.446 C 143.803 478.198, 142.934 479.971, 141.574 486.474 C 140.708 490.613, 139.309 497.307, 138.465 501.349 C 137.302 506.922, 135.737 510.516, 131.994 516.217 C 127.470 523.109, 126.807 524.921, 124.050 537.926 C 120.872 552.921, 118.954 558.256, 114.242 565.217 C 110.589 570.613, 108.633 575.743, 107.079 584 C 104.069 599.989, 102.786 603.964, 98.938 609.224 C 92.661 617.806, 91.334 620.930, 89.050 632.500 C 86.145 647.214, 85.413 649.306, 81.265 654.740 C 76.616 660.831, 74.480 665.820, 71.935 676.537 C 69.414 687.150, 69.896 690.893, 74.253 694.559 C 77.273 697.100, 77.774 697.197, 83.969 696.433 C 87.561 695.989, 101.300 695.541, 114.500 695.436 C 146.963 695.180, 146.867 695.227, 150.998 677.507 C 152.326 671.813, 154.501 666.288, 157.419 661.198 C 162.483 652.365, 165.207 644.629, 167.004 633.977 C 168.764 623.543, 170.370 619.530, 175 614 C 180.290 607.681, 181.693 604.064, 182.988 593.392 C 184.436 581.456, 185.367 578.945, 191.139 571.415 C 196.185 564.831, 198.740 557.534, 200.562 544.500 C 201.520 537.648, 204.531 529.865, 207.831 525.713 C 211.951 520.528, 213.661 515.866, 216.893 501 C 218.914 491.704, 220.797 485.787, 222.942 482 C 230.008 469.522, 231.962 464.318, 234.586 451 C 236.739 440.068, 237.875 436.535, 240.560 432.424 C 242.384 429.632, 244.554 426.785, 245.383 426.097 C 247.487 424.351, 249.716 416.931, 250.968 407.500 C 252.445 396.375, 253.564 393.355, 258.691 386.643 C 264.001 379.690, 265.287 376.327, 267.895 362.573 C 269.885 352.072, 271.935 346.915, 277.133 339.326 C 280.918 333.800, 281.567 331.932, 284.887 317.007 C 287.637 304.647, 290.087 298.242, 295.601 289 C 297.215 286.296, 299.799 278.415, 302.079 269.251 C 305.463 255.644, 309.172 246, 311.021 246 C 312.992 246, 317.109 234.628, 318.442 225.500 C 320.386 212.180, 321.447 208.904, 324.882 205.613 C 328.349 202.291, 333.100 201.055, 342.500 201.028 C 350.022 201.006, 354.845 202.974, 356.961 206.927 C 357.560 208.046, 358.706 214.264, 359.508 220.744 C 361.175 234.208, 362.949 240.793, 366.447 246.500 C 372.764 256.806, 374.102 260.442, 377.487 276.507 C 381.268 294.452, 381.267 294.449, 387.459 303.493 C 390.422 307.822, 392.013 311.485, 392.913 316.052 C 396.172 332.592, 397.974 338.223, 401.490 342.848 C 406.553 349.509, 408.897 354.924, 410.537 363.756 C 412.968 376.846, 414.917 381.840, 419.693 387.218 C 425.379 393.620, 426 395.402, 426 405.322 C 426 415.944, 424.891 419.514, 420.060 424.449 C 415.110 429.506, 413.502 433.340, 411.071 445.881 C 409.352 454.749, 406.956 461.569, 405.058 463 C 404.693 463.275, 403.143 465.167, 401.613 467.205 C 398.285 471.638, 396.515 477.112, 394.056 490.569 C 392.218 500.635, 389.461 507.424, 384.545 513.991 C 381.509 518.046, 378.880 526.014, 376.432 538.580 C 374.787 547.024, 372.860 551.617, 365.973 563.500 C 363.396 567.947, 361.470 574.698, 357.960 591.594 C 356.985 596.283, 355.735 598.467, 350.652 604.358 C 346.891 608.719, 344.748 614.608, 342.992 625.412 C 340.770 639.085, 340.105 640.823, 335.041 646.199 C 330.615 650.897, 328.757 655.648, 326.962 666.853 C 326.290 671.050, 324.543 676.567, 322.892 679.705 C 318.224 688.580, 319.175 692.086, 327.159 695.422 C 330.258 696.717, 334.974 696.789, 361.917 695.955 C 395.801 694.906, 398.699 694.416, 401.351 689.287 C 402.168 687.709, 403.319 682.943, 403.909 678.697 C 405.194 669.457, 406.646 665.750, 411.933 658.205 C 414.510 654.526, 416.478 650.191, 417.473 646 C 423.667 619.904, 424.157 618.361, 428.916 610 C 433.969 601.122, 436.210 595.234, 438.048 586 C 440.036 576.016, 442.222 570.575, 446.734 564.382 C 449.186 561.017, 452.611 554.717, 454.346 550.382 C 457.093 543.517, 457.989 542.261, 461.293 540.647 C 468.601 537.077, 475.820 540.837, 478.103 549.402 C 480.797 559.505, 483.584 565.897, 487.522 571 C 492.243 577.118, 494.348 582.851, 495.965 594 C 497.472 604.396, 499.319 609.502, 504.464 617.499 C 508.096 623.145, 509.372 626.477, 511.528 635.945 C 515.793 654.670, 517.915 661.109, 522.154 668.192 C 524.357 671.873, 526.839 677.486, 527.669 680.664 C 529.608 688.091, 531.306 691.309, 534.687 693.969 C 537.327 696.045, 538.206 696.107, 561.957 695.896 C 578.815 695.746, 588.442 696.079, 592.702 696.960 C 600.166 698.502, 602.858 697.941, 607.482 693.882 C 611.749 690.135, 611.878 688.129, 608.493 678.154 C 607.122 674.114, 606 670.113, 606 669.262 C 606 664.689, 601.714 654.093, 598.099 649.731 C 593.649 644.359, 591.839 639.489, 589.492 626.574 C 587.637 616.370, 586.433 613.640, 581.438 608.313 C 576.942 603.518, 576.278 601.845, 573.878 589.271 C 571.379 576.174, 570.114 572.695, 564.473 563.403 C 560.550 556.940, 559.336 553.578, 556.439 541.145 C 552.405 523.841, 551.901 522.469, 546.465 514 C 541.674 506.536, 540.731 503.883, 538.489 491.552 C 536.517 480.713, 535.351 477.782, 530.475 471.417 C 525.615 465.072, 524.288 461.797, 522.947 452.836 C 520.948 439.475, 518.447 432.758, 513.489 427.434 C 508.142 421.692, 506.971 418.355, 506.285 406.902 C 505.609 395.620, 507.392 389.508, 513.841 381 C 519.281 373.823, 521.317 368.421, 523.031 356.625 C 524.191 348.636, 526.349 343.521, 530.465 339 C 534.758 334.284, 535.845 331.474, 538.861 317.274 C 541.337 305.617, 542.603 301.825, 545.876 296.274 C 551.155 287.319, 552.300 284.217, 556.864 266.500 C 559.627 255.772, 561.775 249.724, 564.403 245.265 C 569.189 237.145, 570.745 232.563, 572.574 221.199 C 575.236 204.656, 577.933 201, 587.475 201 C 592.590 201, 602.187 204.035, 606 206.858 C 610.184 209.956, 611.787 213.965, 613.971 226.797 C 616.413 241.147, 618.998 248.716, 622.608 252.085 C 626.742 255.944, 629.069 261.587, 630.988 272.403 C 633.553 286.867, 634.512 289.834, 638.611 296 C 643.657 303.590, 644.587 306.076, 648.499 322.426 C 652.325 338.419, 653.257 340.980, 657.073 346 C 662.701 353.403, 664.817 359.651, 666.555 374 C 667.445 381.340, 669.062 384.984, 674.268 391.374 C 678.881 397.037, 680.085 400.587, 683.440 418.420 C 684.756 425.414, 685.915 428.503, 688.809 432.726 C 695.589 442.619, 696.040 443.712, 698.966 457.340 C 702.128 472.070, 702.214 472.290, 708.727 482.316 C 712.749 488.506, 713.467 490.612, 716.558 505.274 C 719.255 518.068, 720.621 522.464, 723.144 526.459 C 730.262 537.732, 731.231 540.125, 733.087 551.003 C 735.986 567.991, 736.762 570.262, 741.534 575.717 C 746.941 581.899, 748.565 586.058, 749.991 597.384 C 751.339 608.083, 753.630 614.446, 758.820 621.902 C 763.266 628.288, 765.108 633.440, 767.879 647.236 C 769.138 653.505, 770.978 659.025, 773.045 662.736 C 778.614 672.737, 779.915 675.657, 781.020 680.644 C 782.260 686.234, 785.894 692.229, 789.461 694.566 C 792.071 696.276, 807.164 696.688, 821 695.426 C 826.794 694.898, 838.566 695.764, 850.722 697.614 C 854.607 698.205, 855.226 697.974, 858.472 694.728 C 861.550 691.650, 862 690.574, 862 686.299 C 862 683.603, 860.932 677.725, 859.628 673.238 C 857.730 666.710, 856.342 664.061, 852.686 659.996 C 847.972 654.752, 845.843 649.461, 844.441 639.500 C 843.244 630.994, 840.097 622.281, 836.538 617.618 C 831.725 611.312, 830.460 608.520, 828.559 600 C 827.639 595.875, 826.251 589.673, 825.475 586.218 C 823.831 578.902, 821.961 574.651, 816.947 566.837 C 813.382 561.282, 811.820 556.260, 808.444 539.500 C 807.054 532.601, 804.159 525.689, 801.952 524 C 799.942 522.462, 795.826 514.322, 794.992 510.237 C 790.653 488.975, 789.780 486.001, 786.680 481.909 C 784.931 479.600, 782.500 476.344, 781.278 474.674 C 780.056 473.004, 778.355 468.232, 777.499 464.069 C 776.643 459.906, 775.418 454.072, 774.777 451.104 C 774.129 448.106, 771.850 442.994, 769.651 439.604 C 764.019 430.923, 762.268 426.531, 759.981 415.352 C 757.115 401.342, 756.598 399.861, 749.920 386.500 C 744.725 376.107, 743.654 372.960, 741.919 363 C 739.479 348.988, 738.706 346.937, 733.668 341.116 C 728.571 335.227, 727.592 332.710, 725.497 320.096 C 723.456 307.810, 722.481 305.290, 716.944 298 C 711.850 291.293, 711.463 290.314, 709.547 279.279 C 706.954 264.340, 705.174 259.001, 700.648 252.584 C 696.356 246.499, 693.690 239.459, 692.473 231 C 690.998 220.745, 687.680 210.368, 683.551 203.090 C 677.441 192.322, 676.237 189.067, 674.515 178.667 C 672.351 165.595, 671.170 162.194, 666.669 156.080 C 661.446 148.986, 659.393 143.343, 657.549 131.006 C 655.824 119.472, 653.575 113.608, 649.493 110 C 647.938 108.625, 644.225 105.136, 641.243 102.246 C 638.260 99.357, 634.804 96.738, 633.561 96.426 C 632.318 96.114, 628.869 96.494, 625.896 97.270 C 621.456 98.430, 614.421 98.545, 586.504 97.912 L 552.518 97.143 545.093 100.234 C 533.292 105.147, 532.216 106.519, 529.986 119.500 C 527.683 132.912, 526.518 136.437, 522.823 141.170 C 518.506 146.701, 516.148 152.835, 513.565 165.252 C 510.153 181.656, 509.419 183.927, 505.563 190 C 500.041 198.697, 497.901 203.913, 496.331 212.500 C 493.698 226.904, 491.924 232.723, 489.458 235.040 C 485.057 239.174, 482.183 244.462, 479.970 252.500 C 477.340 262.051, 473.729 269.540, 471.067 270.964 C 464.253 274.611, 457.938 269.757, 453.435 257.411 C 451.889 253.172, 448.886 247.505, 446.762 244.818 C 441.723 238.443, 439.396 232.840, 437.594 222.743 C 435.499 211.001, 433.693 205.750, 429.659 199.674 C 425.023 192.690, 423.535 188.643, 420.951 176 C 417.715 160.165, 416.368 156.092, 412.022 148.997 C 405.886 138.978, 404.837 136.224, 403.264 126 C 400.896 110.606, 400.202 108.959, 394.500 105.226 C 391.750 103.426, 388.431 101.176, 387.125 100.226 C 380.117 95.133, 378.220 94.526, 373.359 95.826 C 370.768 96.520, 359.046 97.312, 346.622 97.634 C 326.562 98.154, 318.970 97.779, 303 95.477 C 300.194 95.072, 298.707 95.569, 295.500 97.980 M 751 752 C 747.058 755.942, 749.452 767.322, 754.489 768.587 C 759.255 769.783, 765.814 761.092, 764.400 755.457 C 763.159 750.515, 754.674 748.326, 751 752 M 864.091 751.031 C 856.659 752.580, 853.998 756.345, 852.491 767.439 C 851.582 774.140, 847.723 784.582, 841.935 796.005 C 839.151 801.500, 835.796 810.361, 833.984 817.005 C 831.966 824.404, 828.565 833.133, 824.440 841.500 C 818.659 853.226, 817.922 855.431, 816.918 864 C 815.592 875.306, 814.389 878.494, 809.064 884.809 C 805.942 888.512, 804.593 891.360, 803.036 897.540 C 801.933 901.918, 801.024 906.264, 801.015 907.198 C 801.007 908.132, 799.861 912.502, 798.469 916.907 C 796.154 924.238, 796.059 925.206, 797.357 928.313 C 798.138 930.180, 799.631 931.932, 800.675 932.205 C 804.669 933.249, 806.771 931.210, 811.381 921.818 C 818.071 908.190, 826.681 899.753, 835.588 898.096 C 838.368 897.579, 843.972 897.535, 848.500 897.995 C 852.900 898.443, 868.200 898.441, 882.500 897.991 C 896.800 897.542, 909.699 897.405, 911.164 897.687 C 916.058 898.630, 930.887 914.665, 933.462 921.798 C 938.163 934.820, 941.087 938.041, 945.932 935.535 C 951.081 932.872, 952.243 924.237, 948.440 916.884 C 947.677 915.408, 945.746 909.693, 944.149 904.185 C 942.392 898.124, 940.015 892.459, 938.127 889.835 C 932.636 882.203, 930.779 877.096, 929.390 865.807 C 928.017 854.654, 926.913 851.778, 920.575 842.840 C 918.696 840.189, 916.515 835.230, 915.518 831.340 C 911.460 815.496, 908.818 807.955, 905.719 803.368 C 901.869 797.668, 899.476 792.436, 897.546 785.500 C 890.093 758.706, 888.637 755.479, 882.741 752.681 C 878.373 750.609, 869.768 749.847, 864.091 751.031 M 633.567 753.926 C 631.542 756.164, 631.791 758.839, 634.164 760.333 C 636.152 761.585, 643.535 758.655, 644.458 756.248 C 646.040 752.127, 636.950 750.188, 633.567 753.926 M 869.335 781.772 C 866.760 783.828, 864.163 788.376, 860.063 798.011 C 858.401 801.917, 855.463 807.040, 853.534 809.394 C 849.341 814.511, 847.889 818.419, 845.510 831 C 843.786 840.119, 841.169 847.160, 839.007 848.496 C 835.895 850.419, 832 863.135, 832 871.374 C 832 881.806, 838.255 883.796, 872 884.101 C 895.771 884.316, 897.737 884.094, 905.214 880.358 C 910.353 877.790, 912 875.611, 912 871.380 C 912 866.967, 908.983 855.997, 905.982 849.500 C 904.458 846.200, 901.775 838.100, 900.020 831.500 C 897.162 820.750, 893.222 811.531, 890.795 809.915 C 890.311 809.593, 888.349 805.093, 886.434 799.915 C 880.330 783.412, 878.138 780.044, 873.500 780.044 C 872.400 780.044, 870.526 780.822, 869.335 781.772 M 750.725 801.752 C 747.339 805.493, 746.953 808.639, 748.080 823.325 C 748.722 831.693, 749.031 856.139, 748.834 883 C 748.526 924.993, 748.638 928.806, 750.289 932.465 C 753.076 938.642, 755.874 939.649, 758.617 935.462 C 762.656 929.297, 763.094 923.514, 763.684 868.500 C 763.997 839.350, 764.308 813.174, 764.376 810.330 C 764.477 806.132, 764.044 804.675, 762.076 802.580 C 759.138 799.454, 753.197 799.020, 750.725 801.752 M 610.512 818.983 C 606.625 819.676, 606.225 822.105, 609.321 826.227 C 610.674 828.027, 612.992 831.844, 614.474 834.709 C 617.372 840.314, 619.709 841.761, 623.010 839.995 C 626.432 838.163, 627.266 834.425, 625.561 828.561 C 623.226 820.528, 618.546 817.550, 610.512 818.983" stroke="none" fill="#ffffff" fill-rule="evenodd"/>
</svg>