<svg xmlns="http://www.w3.org/2000/svg" width="1000" height="236" viewBox="0 0 1000 236" version="1.1">
	<path d="M 605.574 29.662 C 604.515 29.966, 599.519 32.421, 594.472 35.117 C 585.714 39.797, 585.073 40.373, 580.398 47.760 L 575.500 55.500 575.500 66.500 C 575.500 76.710, 575.683 77.751, 578.051 81 C 579.454 82.925, 581.197 85.700, 581.925 87.167 C 583.971 91.288, 593.587 99.038, 599.330 101.194 C 602.173 102.261, 606.075 104.199, 608 105.498 C 609.925 106.798, 614.350 108.590, 617.833 109.480 C 628.291 112.152, 641.794 123.068, 644.968 131.416 C 646.280 134.866, 646.291 144.444, 644.988 149 C 643.574 153.945, 635.079 162.603, 630.329 163.941 C 613.448 168.695, 595.228 166.639, 583.610 158.668 C 579.118 155.586, 577.744 155.399, 575.571 157.571 C 571.738 161.404, 575.123 168.946, 582.005 171.907 C 584.681 173.058, 587.337 174, 587.907 174 C 588.477 174, 591.543 175.205, 594.721 176.679 C 599.888 179.074, 601.718 179.365, 612 179.429 C 623.211 179.498, 623.738 179.400, 633 175.532 C 640.653 172.336, 643.626 170.447, 648.291 165.821 C 653.915 160.243, 654.144 159.805, 656.245 150.545 C 658.170 142.066, 658.278 140.265, 657.222 134.256 C 655.030 121.772, 654.150 119.845, 647.980 114 C 638.042 104.587, 634.665 102.248, 628.485 100.498 C 625.193 99.565, 620.925 97.753, 619 96.471 C 617.075 95.189, 612.575 93.199, 609 92.050 C 600.385 89.281, 591.798 81.593, 589.950 74.995 C 588.104 68.405, 588.517 60.993, 591.059 55.084 C 593.897 48.488, 596.044 46.873, 606.483 43.477 L 615.018 40.700 624.259 42.986 C 629.342 44.243, 635.170 46.111, 637.210 47.136 C 642.261 49.673, 645.611 49.480, 648.614 46.477 C 651.851 43.240, 651.360 40.927, 646.988 38.812 C 627.888 29.572, 628.196 29.671, 617.578 29.383 C 612.035 29.233, 606.633 29.359, 605.574 29.662 M 319.308 34.188 C 317.634 37.254, 317.498 41.161, 317.475 86.739 C 317.446 143.905, 317.871 141.400, 309.080 136.325 C 306.069 134.586, 302.260 131.097, 299.747 127.775 C 289.606 114.372, 286.938 111.062, 285.666 110.305 C 284.923 109.862, 283.475 108.150, 282.448 106.500 C 281.421 104.850, 278.988 101.863, 277.040 99.862 C 275.093 97.860, 271.250 93.421, 268.500 89.997 C 265.750 86.572, 262.283 82.458, 260.796 80.855 C 259.309 79.251, 257.063 76.490, 255.805 74.719 C 254.546 72.949, 251.352 69.025, 248.705 66 C 243.651 60.222, 239.807 55.781, 232.695 47.500 C 230.333 44.750, 227.625 41.263, 226.677 39.750 C 224.813 36.776, 221.033 36.051, 219.160 38.308 C 217.407 40.420, 217.429 170.037, 219.184 173.697 C 221.175 177.853, 224.977 177.526, 227.284 173 C 228.931 169.769, 229.054 165.799, 228.883 121.305 C 228.714 77.585, 228.854 72.872, 230.384 70.537 L 232.071 67.962 236.679 71.481 C 239.214 73.417, 241.661 75, 242.118 75 C 242.575 75, 243.644 76.345, 244.494 77.989 C 245.345 79.633, 247.944 83.175, 250.270 85.859 C 252.597 88.543, 256.750 93.518, 259.500 96.915 C 268.406 107.915, 273.820 114.417, 277.472 118.500 C 281.006 122.451, 284.774 126.914, 296.500 141.040 C 308.556 155.564, 311.946 159.551, 314.373 162.067 C 315.736 163.478, 317.805 166.250, 318.972 168.227 C 320.138 170.204, 321.746 172.072, 322.546 172.379 C 324.440 173.106, 326.707 172.206, 327.376 170.462 C 327.668 169.701, 327.975 139.407, 328.057 103.141 C 328.218 32.498, 328.177 31.885, 323.298 31.188 C 321.693 30.959, 320.637 31.753, 319.308 34.188 M 529.009 60.979 C 528.330 62.617, 527.822 67.004, 527.880 70.729 C 528.067 82.794, 527.168 86.766, 523.397 90.537 C 519.362 94.571, 519.120 97.211, 522.477 100.568 C 527.384 105.475, 527.461 105.972, 527.994 136.179 C 528.572 168.928, 527.964 166.655, 538.327 174.832 C 543.517 178.927, 544.660 179.402, 549.449 179.448 C 555.727 179.509, 559 177.266, 559 172.902 C 559 170.001, 555.936 167, 552.974 167 C 549.893 167, 540.856 161.751, 539.983 159.455 C 539.503 158.193, 539.012 146.433, 538.891 133.321 C 538.623 104.170, 538.523 104.493, 548.726 101.494 C 557.255 98.987, 558.070 93.405, 550.258 91.006 C 539.564 87.723, 539.199 87.132, 538.682 72.259 C 538.399 64.105, 537.956 61.608, 536.508 60.009 C 533.782 56.997, 530.482 57.423, 529.009 60.979 M 676.557 61.223 C 675.413 62.855, 674.999 65.975, 674.994 72.973 C 674.988 84.218, 673.906 88.800, 670.502 91.999 C 667.451 94.864, 667.331 97.085, 670.093 99.584 C 674.297 103.389, 674.484 104.679, 674.999 133.500 L 675.500 161.500 679.219 167.154 C 681.729 170.969, 684.817 173.998, 688.719 176.472 C 693.738 179.653, 695.121 180.081, 699.217 179.718 C 705.229 179.185, 707.004 177.679, 706.985 173.128 C 706.963 168.056, 706.240 167.389, 700 166.684 C 688.892 165.429, 687.472 160.647, 688.202 126.950 C 688.711 103.498, 688.881 103.107, 700 99.827 C 703.395 98.826, 704.578 97.950, 704.818 96.260 C 705.154 93.893, 704.959 93.770, 695.684 90.488 C 689.629 88.346, 688.821 86.458, 688.582 73.878 C 688.359 62.172, 686.856 59, 681.534 59 C 679.133 59, 677.649 59.662, 676.557 61.223 M 377 90.508 C 368.533 92.413, 365.144 93.862, 363.955 96.085 C 363.422 97.081, 361.666 98.675, 360.054 99.627 C 358.442 100.580, 355.959 103.416, 354.537 105.929 C 353.115 108.443, 351.057 111.627, 349.963 113.005 C 347.527 116.076, 345.999 124.855, 346.049 135.500 C 346.104 147.060, 347.209 151.270, 352.025 158.270 C 358.800 168.118, 361.923 170.919, 371 175.290 C 379.064 179.174, 379.987 179.387, 389 179.442 C 397.323 179.493, 399.306 179.148, 405 176.657 C 408.575 175.093, 412.951 173.194, 414.724 172.436 C 418.719 170.728, 419.903 167.028, 417.587 163.493 C 415.718 160.640, 413.455 160.363, 409.364 162.487 C 404.129 165.204, 392.174 167.303, 385.753 166.632 C 372.946 165.293, 365.233 159.456, 360.133 147.242 C 355.862 137.014, 359.060 136, 395.595 136 L 421.091 136 423.673 133.417 C 426.040 131.051, 426.201 130.367, 425.598 125.237 C 425.236 122.158, 424.091 118.258, 423.053 116.570 C 422.016 114.881, 420.386 111.475, 419.432 109 C 416.848 102.298, 407.570 93.544, 400.976 91.586 C 393.082 89.241, 384.370 88.850, 377 90.508 M 740.627 90.507 C 727.499 92.411, 723.912 95.165, 727.475 100.603 C 729.813 104.170, 731.662 104.560, 736.894 102.591 C 739.427 101.637, 745.553 100.605, 750.507 100.296 C 762.026 99.579, 768.128 101.802, 772.301 108.238 C 775.497 113.167, 775.645 114.982, 773.107 118.116 C 771.274 120.380, 770.734 120.454, 755.857 120.477 C 740.548 120.500, 740.485 120.509, 735.683 123.500 C 726.282 129.355, 722.469 132.648, 720 137.047 C 717.846 140.883, 717.501 142.746, 717.507 150.500 C 717.513 157.926, 717.911 160.245, 719.782 163.758 C 722.229 168.354, 728.124 173.126, 736.753 177.495 C 741.628 179.964, 742.973 180.200, 749.843 179.793 C 756.546 179.397, 758.093 178.921, 762.259 175.971 L 767.018 172.602 775.311 173.801 C 779.872 174.460, 784.391 175, 785.353 175 C 789.117 175, 789.638 170.066, 788.996 140.500 L 788.388 112.500 785.047 106.500 C 778.914 95.485, 774.027 91.859, 762.871 90.049 C 755.110 88.790, 752.023 88.853, 740.627 90.507 M 837 90.360 C 828.996 91.799, 824.608 94.100, 818.064 100.290 C 812.300 105.743, 810.253 109.377, 806.962 120 C 803.716 130.478, 803.903 137.321, 807.768 149.569 C 810.645 158.686, 811.491 160.206, 816.723 165.659 C 821.285 170.414, 824.412 172.556, 831.592 175.840 C 842.928 181.027, 850.057 181.491, 857.093 177.500 C 865.278 172.857, 868.098 171.863, 871.168 172.537 C 875.357 173.457, 876.483 176.506, 875.079 183.134 C 872.628 194.708, 871.443 196.508, 862.433 202.345 C 855.515 206.826, 853.092 207.844, 847.968 208.424 C 839.656 209.365, 831.338 208.220, 826.500 205.470 C 815.502 199.219, 807.492 203.489, 814.528 211.851 C 819.066 217.244, 824.431 218.508, 842.500 218.440 C 851.800 218.405, 859.584 217.918, 861.089 217.276 C 865.876 215.235, 878.847 205.526, 880.481 202.761 C 881.372 201.254, 882.953 197.654, 883.996 194.761 C 885.038 191.867, 886.589 187.586, 887.442 185.247 C 888.742 181.680, 889.011 174.261, 889.107 139.247 C 889.170 116.286, 889.172 96.728, 889.111 95.785 C 888.895 92.444, 885.700 91.933, 878.134 94.030 C 869.221 96.500, 868.494 96.488, 864.735 93.811 C 861.748 91.685, 851.051 89.013, 846 89.133 C 844.625 89.165, 840.575 89.718, 837 90.360 M 936.707 90.539 C 928.439 92.183, 925 94.222, 917.850 101.720 C 910.823 109.088, 910.631 109.479, 907.974 121.892 C 905.454 133.663, 905.629 138.282, 909.076 151.056 C 910.970 158.078, 911.979 160.028, 915.482 163.445 C 917.769 165.675, 920.058 168.234, 920.570 169.131 C 921.081 170.029, 926.047 172.841, 931.606 175.381 C 940.823 179.594, 942.386 180, 949.388 180 C 954.357 180, 958.376 179.418, 960.782 178.349 C 962.827 177.440, 967.871 175.303, 971.992 173.599 C 979.721 170.402, 980.758 169.157, 979.586 164.488 C 978.682 160.886, 976.117 160.729, 966.414 163.685 C 949.998 168.686, 932.108 166.531, 927.670 159.019 C 926.694 157.366, 924.981 155.525, 923.863 154.927 C 919.661 152.678, 917.516 142.414, 920.418 138.441 C 921.751 136.617, 923.603 136.470, 951.267 136 C 975.266 135.592, 981.028 135.226, 982.481 134.018 C 984.023 132.736, 984.183 131.450, 983.661 124.518 C 982.783 112.851, 981.558 109.699, 974.889 101.951 C 968.033 93.985, 963.868 91.509, 954.871 90.049 C 947.066 88.782, 945.299 88.830, 936.707 90.539 M 437.655 92.829 C 435.315 95.415, 435.578 97.151, 438.983 101.601 C 440.624 103.746, 443.809 108.115, 446.062 111.312 C 448.315 114.508, 450.741 117.347, 451.452 117.620 C 452.163 117.893, 453.924 120.282, 455.365 122.929 C 456.806 125.576, 458.663 128.305, 459.492 128.994 C 461.204 130.415, 461.516 134.563, 459.981 135.512 C 459.421 135.858, 457.890 138.247, 456.580 140.821 C 455.270 143.394, 453.021 146.598, 451.583 147.939 C 450.145 149.281, 447.781 152.431, 446.329 154.939 C 444.878 157.448, 442.161 161.215, 440.293 163.311 C 437.300 166.667, 436.931 167.680, 437.198 171.811 C 437.466 175.980, 437.777 176.529, 440 176.766 C 443.254 177.112, 451.019 169.708, 455.232 162.242 C 456.913 159.264, 458.920 156.584, 459.691 156.288 C 460.462 155.993, 462.204 153.557, 463.563 150.875 C 467.130 143.836, 469.824 144.083, 477.302 152.133 C 480.436 155.507, 483 158.719, 483 159.272 C 483 159.824, 484.688 162.210, 486.750 164.572 C 488.813 166.935, 491.494 170.184, 492.709 171.793 C 494.975 174.793, 502.819 177.848, 504.921 176.549 C 508.260 174.485, 503.589 164.840, 495.211 156.500 C 493.554 154.850, 491.518 152.150, 490.688 150.500 C 489.858 148.850, 487.800 146.190, 486.116 144.589 C 484.432 142.987, 482.337 139.519, 481.461 136.882 C 479.954 132.346, 479.975 131.845, 481.847 127.612 C 482.936 125.151, 485.034 122.094, 486.509 120.819 C 487.984 119.543, 489.883 117.150, 490.729 115.500 C 491.575 113.850, 493.897 110.700, 495.888 108.500 C 497.878 106.300, 500.625 102.372, 501.990 99.772 C 504.184 95.595, 504.300 94.875, 502.986 93.588 C 502.169 92.787, 500.245 91.824, 498.711 91.448 C 496.237 90.841, 495.299 91.427, 490.413 96.632 C 487.383 99.859, 483.835 104.554, 482.530 107.063 C 479.015 113.819, 472.677 119.195, 468.683 118.808 C 466.184 118.566, 465.128 117.748, 463.770 115 C 462.819 113.075, 460.960 110.600, 459.640 109.500 C 458.319 108.400, 456.526 106.091, 455.655 104.369 C 453.799 100.699, 447.399 93.819, 444.297 92.159 C 441.269 90.538, 439.573 90.710, 437.655 92.829 M 381.500 100.491 C 380.950 100.675, 379.282 101.093, 377.792 101.421 C 376.303 101.749, 373.971 103.026, 372.610 104.258 C 371.248 105.491, 368.529 107.757, 366.567 109.293 C 363.419 111.757, 363 112.614, 363 116.588 C 363 119.937, 363.582 121.673, 365.271 123.362 C 367.498 125.589, 367.910 125.627, 386.435 125.303 C 397.844 125.103, 405.838 124.550, 406.613 123.906 C 408.481 122.356, 410.280 116.254, 409.632 113.669 C 408.819 110.432, 398.497 101.906, 394.175 100.902 C 390.568 100.064, 383.471 99.834, 381.500 100.491 M 837.720 101.421 C 832.694 102.772, 823.362 110.741, 820.469 116.150 C 817.689 121.350, 816.568 132.439, 817.926 141.310 C 819.332 150.491, 820.006 152.086, 824.394 156.604 C 826.102 158.364, 828.259 160.646, 829.187 161.676 C 831.031 163.722, 841.971 167, 846.959 167 C 848.680 167, 852.972 166.276, 856.497 165.390 C 862.094 163.985, 863.581 163.067, 868.247 158.140 C 873.296 152.811, 873.711 151.968, 875.787 142.847 L 877.984 133.194 875.510 123.347 C 873.562 115.596, 872.482 113.074, 870.435 111.500 C 869.005 110.400, 866.097 107.855, 863.973 105.845 C 858.152 100.336, 848.070 98.637, 837.720 101.421 M 940.500 100.935 C 935.884 102.059, 931.946 104.492, 926.750 109.431 C 922.645 113.333, 922 114.482, 922 117.901 C 922 124.865, 922.455 125, 946 125 C 969.680 125, 970.015 124.898, 969.979 117.679 C 969.960 114.004, 969.309 112.819, 964.579 107.854 C 960.085 103.138, 958.352 102.027, 954.051 101.104 C 948.353 99.882, 944.997 99.840, 940.500 100.935 M 745.326 132.921 C 735.685 136.472, 731.283 139.692, 729.427 144.551 C 726.451 152.345, 728.760 158.929, 736.093 163.559 C 741.168 166.762, 747.991 167.606, 756.240 166.049 C 764.851 164.424, 769.969 161.391, 772.819 156.226 C 775.702 150.999, 776.811 141.885, 774.981 138.464 C 771.659 132.258, 755.384 129.215, 745.326 132.921" stroke="none" fill="#ffffff" fill-rule="evenodd"/>
</svg>