<svg xmlns="http://www.w3.org/2000/svg" width="1000" height="957" viewBox="0 0 1000 957" version="1.1">
	<path d="M 0 478.501 L 0 957.002 500.250 956.751 L 1000.500 956.500 1000.751 478.250 L 1001.002 0 500.501 0 L 0 0 0 478.501 M 0.496 479 C 0.496 742.175, 0.610 849.837, 0.750 718.250 C 0.890 586.662, 0.890 371.337, 0.750 239.750 C 0.610 108.162, 0.496 215.825, 0.496 479 M 533.054 65.058 C 522.561 66.364, 514.315 68.639, 509.036 71.685 C 497.559 78.307, 493.832 80.066, 484.297 83.367 C 471.538 87.785, 470.100 88.548, 461.500 95.460 C 457.650 98.555, 449.825 103.429, 444.112 106.293 C 435.584 110.568, 432.753 112.595, 428.304 117.614 C 425.263 121.045, 420.113 125.349, 416.569 127.422 C 409.038 131.826, 407.091 133.554, 403.065 139.406 C 401.386 141.847, 397.212 145.796, 393.791 148.183 C 389.989 150.835, 385.946 154.851, 383.394 158.511 C 380.913 162.068, 376.635 166.354, 372.859 169.065 C 364.903 174.777, 362.645 178.103, 360.613 187.103 C 357.603 200.432, 358.533 204.019, 365.836 207.254 C 370.109 209.148, 372.217 209.305, 391 209.134 C 402.275 209.032, 412.950 208.687, 414.722 208.368 C 416.710 208.010, 420.539 205.485, 424.722 201.773 C 428.450 198.465, 433.075 194.739, 435 193.493 C 439.436 190.621, 442.742 186.978, 447.386 179.845 C 449.933 175.934, 453.010 172.925, 457.367 170.087 C 461.286 167.533, 465.241 163.814, 467.837 160.241 C 471.982 154.536, 474.163 152.748, 483.237 147.612 C 485.842 146.138, 490.171 142.734, 492.856 140.049 C 498.766 134.138, 504.072 131.357, 519.623 126.016 C 526.155 123.772, 533.975 120.420, 537 118.568 C 545.880 113.129, 555.516 110.675, 565.821 111.228 C 579.732 111.974, 584.930 114.373, 594.497 124.462 C 603.158 133.595, 606.520 135.320, 610.931 132.894 C 612.344 132.117, 614.547 129.461, 615.827 126.991 C 617.899 122.990, 618.101 121.517, 617.671 113.500 C 616.859 98.315, 615.127 94.847, 601.892 81.906 C 588.596 68.905, 587.818 68.330, 580.813 66.351 C 574.337 64.520, 543.973 63.699, 533.054 65.058 M 601 232.884 C 584.377 233.438, 582.021 233.736, 577.778 235.826 C 572.649 238.352, 558.357 252.985, 550.583 263.670 C 548.114 267.063, 543.935 271.318, 541.297 273.125 C 538.659 274.933, 532.435 280.257, 527.466 284.956 C 521.034 291.039, 515.418 295.191, 507.966 299.371 C 502.210 302.600, 495.475 306.918, 493 308.967 C 484.860 315.707, 481.113 317.013, 454.103 322.519 L 436.706 326.066 428.551 324.538 C 412.256 321.484, 410.432 320.612, 401.822 311.756 C 394.542 304.267, 393.805 303.768, 391.543 304.799 C 388.171 306.335, 386.358 309.441, 384.422 316.999 C 380.841 330.974, 385.345 345.313, 396.711 356.131 C 404.078 363.142, 409.580 366.329, 422.844 371.269 C 431.704 374.569, 435.101 375.317, 443 375.709 C 453.744 376.243, 457.117 375.628, 482 368.593 C 515.751 359.051, 517.952 358.184, 526.521 351.058 C 531.087 347.261, 534.773 345.218, 548.286 338.992 C 550.919 337.779, 555.452 334.612, 558.361 331.953 C 561.269 329.295, 569.050 323.552, 575.651 319.190 C 582.631 314.578, 589.211 309.359, 591.376 306.717 C 593.423 304.218, 598.677 299.406, 603.049 296.023 C 607.422 292.640, 611 289.430, 611 288.889 C 611 288.348, 616.288 282.628, 622.750 276.177 C 635.661 263.290, 643.924 251.988, 644.708 246.142 C 645.112 243.130, 644.703 241.801, 642.608 239.311 C 637.233 232.923, 630.600 231.899, 601 232.884 M 135 485.569 C 113.915 489.895, 110.910 491.059, 106.247 496.703 C 101.174 502.842, 98.313 505.581, 93.011 509.373 C 87.613 513.235, 84.693 517.359, 82.437 524.306 C 81.509 527.163, 78.490 534.404, 75.728 540.399 C 71.121 550.397, 70.666 552.060, 70.223 560.524 C 69.640 571.671, 70.930 577.793, 76.013 588 C 78.067 592.125, 80.959 598.871, 82.440 602.992 C 85.697 612.058, 88.777 616.288, 94.881 620.079 C 97.421 621.656, 101.540 625.547, 104.033 628.724 C 109.673 635.912, 114.547 638.438, 127.548 640.910 C 148.175 644.832, 156.097 645.447, 168.249 644.071 C 181.092 642.617, 200.647 637.974, 205.250 635.286 C 206.960 634.288, 210.613 630.552, 213.369 626.985 C 216.124 623.418, 219.306 619.855, 220.439 619.067 C 221.573 618.278, 224.339 615.803, 226.587 613.567 C 230.029 610.142, 231.252 607.711, 234.340 598.160 C 241.371 576.412, 241.534 554.713, 234.841 531.672 C 231.266 519.365, 229.318 515.989, 223.029 511.192 C 220.582 509.326, 216.297 504.823, 213.506 501.185 C 210.715 497.548, 207.081 493.783, 205.431 492.819 C 199.512 489.363, 166.409 481.955, 157.490 482.092 C 154.195 482.142, 144.075 483.707, 135 485.569 M 271.329 487.011 C 260.511 490.540, 257.306 496.915, 258.480 512.568 C 259.049 520.162, 258.707 524.222, 256.415 537.085 C 253.041 556.018, 252.755 570.602, 255.436 587 C 256.668 594.539, 257.348 604.011, 257.410 614.500 C 257.497 629.204, 257.685 630.790, 259.728 634.078 C 262.154 637.984, 265.591 640.003, 269.797 639.994 C 274.083 639.986, 279.987 638.037, 284.224 635.233 C 291.165 630.640, 291.195 630.466, 290.878 596.644 C 290.573 564.060, 290.745 562.811, 295.811 560.879 C 298.901 559.701, 306.252 560.562, 310.103 562.553 C 313.430 564.274, 316.118 570.877, 319.584 585.843 C 321.607 594.579, 323.590 599.863, 328.212 608.843 C 331.513 615.254, 335.065 622.932, 336.106 625.905 C 339.655 636.041, 345.200 641, 352.982 641 C 358.257 641, 362.283 639.252, 368.649 634.200 C 375.073 629.101, 377.954 623.378, 382.024 607.627 C 385.805 592.993, 389.368 584.975, 395.358 577.622 C 400.805 570.934, 401.890 568.953, 407.988 554.570 C 412.716 543.420, 414.435 541.186, 417.409 542.327 C 422.466 544.267, 424.558 560.930, 423.395 590 C 422.010 624.622, 422.139 628.920, 424.681 633 C 430.698 642.657, 442.459 642.168, 446.775 632.082 C 448.375 628.343, 448.385 626.955, 447.526 529 C 447.242 496.546, 446.933 494.645, 441.146 489.776 C 434.292 484.009, 415.794 483.367, 407.325 488.602 C 398.078 494.319, 387.448 513.188, 381.652 534.174 C 377.641 548.697, 376.971 550.217, 372.470 555 C 370.659 556.925, 367.054 562.893, 364.458 568.261 C 360.067 577.343, 354.727 584, 351.833 584 C 351.230 584, 349.247 582.421, 347.427 580.492 C 344.162 577.029, 343.563 575.476, 336.867 553.100 C 335.545 548.680, 333.320 544.049, 331.342 541.600 C 323.864 532.339, 322.966 530.412, 319.445 516.056 C 314.512 495.946, 313.550 494.488, 301.517 488.860 C 292.407 484.598, 280.885 483.893, 271.329 487.011 M 483.240 485.996 C 476.605 487.403, 473.154 489.976, 470.506 495.492 L 468.102 500.500 467.812 555.500 C 467.652 585.750, 467.517 614.775, 467.511 620 C 467.499 630.412, 468.943 634.385, 474.148 638.265 C 479.975 642.607, 491.360 638.984, 496.163 631.259 C 498.412 627.642, 498.490 626.839, 498.232 610 C 498.084 600.375, 497.492 581.734, 496.917 568.576 C 495.915 545.679, 495.952 544.541, 497.784 542.076 C 500.759 538.072, 504.121 538.322, 514.369 543.308 C 525.283 548.619, 528.394 551.583, 534.023 562.042 C 537.038 567.644, 539.985 571.426, 544.172 575.068 C 547.992 578.391, 551.105 582.247, 553.003 586.007 C 554.958 589.879, 558.119 593.742, 562.493 597.607 C 566.566 601.205, 570.370 605.758, 572.529 609.617 C 576.684 617.048, 595.865 638.323, 599.753 639.813 C 607.629 642.832, 612.070 641.962, 616.908 636.452 C 621.693 631.002, 622.197 627.350, 621.141 605.742 C 620.600 594.682, 620.520 568.641, 620.953 544.500 C 621.778 498.461, 621.541 495.746, 616.274 490.832 C 610.622 485.559, 606.701 484.783, 601.618 487.931 C 597.833 490.275, 594.924 494.989, 593.898 500.441 C 593.478 502.673, 593.620 516.875, 594.213 532 C 595.388 561.950, 594.986 566.105, 590.476 570.615 C 585.908 575.183, 579.827 572.499, 574.623 563.620 C 572.267 559.599, 569.565 556.921, 562.239 551.341 C 560.680 550.154, 557.410 545.478, 554.974 540.951 C 551.542 534.575, 549.324 531.800, 545.132 528.635 C 541.650 526.005, 537.852 521.689, 534.478 516.524 C 527.466 505.793, 514.565 492.170, 508.065 488.632 C 503.931 486.382, 501.290 485.729, 495.182 485.447 C 490.957 485.252, 485.583 485.499, 483.240 485.996 M 663 486.888 C 649.933 491.117, 642.709 496.705, 641.419 503.579 C 641.056 505.515, 641.096 518.440, 641.509 532.300 C 641.921 546.160, 642.101 561.775, 641.907 567 C 641.713 572.225, 641.543 587.750, 641.527 601.500 C 641.501 625.546, 641.584 626.635, 643.701 630.038 C 646.223 634.094, 650.737 636.873, 660 640.073 C 666.322 642.257, 667.742 642.324, 711.909 642.541 C 762.039 642.788, 761.271 642.872, 766.855 636.512 C 773.799 628.604, 769.084 618.466, 756.828 614.951 C 755.294 614.511, 740.807 614.531, 724.635 614.996 C 708.408 615.463, 693.533 615.459, 691.443 614.987 C 684.019 613.313, 678.850 607.413, 677.001 598.503 C 675.561 591.566, 676.547 586.586, 680.180 582.448 C 685.582 576.295, 689.328 575.599, 712.941 576.357 C 735.526 577.083, 741.075 576.476, 749.180 572.394 C 754.100 569.916, 757 566.734, 757 563.812 C 757 560.910, 751.332 555.396, 745.757 552.876 C 740.673 550.578, 739.678 550.500, 715.500 550.500 C 693.582 550.500, 690.106 550.284, 687.302 548.751 C 683.162 546.487, 679.682 541.743, 677.635 535.572 C 674.078 524.850, 676.479 518.501, 685.686 514.286 L 691.319 511.707 723.058 512.239 C 751.901 512.722, 755.155 512.610, 758.727 511.011 C 766.867 507.366, 769.521 498.989, 764.750 491.999 C 759.910 484.909, 760.551 484.994, 712.016 485.054 C 673.110 485.102, 667.917 485.296, 663 486.888 M 846 485.694 C 839.254 486.416, 826.453 489.243, 821.415 491.123 C 815.265 493.418, 813.187 495.560, 809.016 503.905 C 807.256 507.427, 804.188 512.760, 802.198 515.756 C 799.246 520.203, 798.510 522.332, 798.193 527.352 C 797.308 541.345, 805.161 554.244, 821.195 565.133 C 832.348 572.707, 842.196 575.016, 871.229 576.867 C 881.348 577.512, 885.643 578.191, 887.563 579.449 C 891.659 582.133, 893.337 587.323, 893.398 597.500 C 893.465 608.841, 891.872 612.283, 885.179 615.248 C 878.501 618.207, 859.800 618.855, 847.574 616.551 C 837.337 614.623, 834.894 613.534, 828.624 608.107 C 821.299 601.768, 814.459 600.643, 806.925 604.539 C 803.645 606.235, 801.557 611.035, 802.358 615.038 C 804.881 627.656, 809.193 634.929, 815.782 637.682 C 821.820 640.205, 851.597 644.014, 865.500 644.042 C 878.960 644.069, 883.113 643.535, 897.180 639.969 C 909.996 636.720, 912.966 634.559, 918.050 624.786 C 920.420 620.232, 923.830 614.458, 925.628 611.955 C 927.973 608.691, 929.194 605.546, 929.947 600.831 C 931.467 591.320, 930.023 584.928, 924.920 578.564 C 922.686 575.779, 919.362 571.250, 917.533 568.500 C 915.704 565.750, 912.923 562.295, 911.354 560.822 C 905.785 555.597, 892.269 551.837, 872.556 550.030 C 853.971 548.327, 847.560 546.554, 842.203 541.637 C 833.702 533.832, 830.472 522.020, 835.389 516.715 C 840.272 511.445, 856.469 509.241, 873 511.596 C 883.727 513.125, 888.002 514.217, 900.333 518.581 C 904.803 520.163, 905.419 520.171, 908.545 518.680 C 915.270 515.473, 918.618 502.988, 914.305 497.202 C 910.063 491.511, 903.354 489.424, 880.030 486.541 C 868.547 485.122, 854.597 484.775, 846 485.694 M 145 512.102 C 135.559 513.541, 129.404 516.774, 119.749 525.365 C 109.621 534.375, 107.991 537.370, 104.838 552.756 L 102.531 564.011 104.815 575.256 C 107.634 589.137, 109.920 594.033, 115.804 598.792 C 118.326 600.831, 122.664 604.579, 125.445 607.121 C 128.225 609.662, 131.859 612.432, 133.520 613.277 C 143.774 618.493, 173.300 618.033, 184.019 612.490 C 185.636 611.654, 188.778 608.507, 191.002 605.498 C 193.225 602.488, 197.583 598.333, 200.685 596.263 C 203.788 594.193, 207.143 591.375, 208.141 590 C 210.959 586.117, 213.332 570.091, 212.659 559.500 C 211.528 541.720, 209.362 536.746, 200.483 531.543 C 198.018 530.098, 194.188 526.462, 191.973 523.463 C 189.757 520.463, 186.942 517.353, 185.717 516.550 C 179.703 512.609, 157.546 510.189, 145 512.102 M 614.659 706.377 C 608.427 708.128, 605.517 710.938, 606.378 714.371 C 607.113 717.298, 621.157 728.499, 625.440 729.574 C 632.043 731.232, 641.042 715.545, 636.718 709.913 C 633.527 705.757, 622.919 704.056, 614.659 706.377 M 857.201 709.028 C 852.922 713.014, 853.017 719.194, 857.540 731.219 C 861.839 742.645, 863.364 743.536, 873.409 740.489 C 884.998 736.974, 890.841 739.355, 896 749.696 C 900.465 758.648, 901.640 760, 904.948 760 C 912.135 760, 914.151 750.030, 909.539 737.295 C 905.993 727.506, 904.570 726.618, 893.543 727.324 C 881.469 728.096, 879.314 727.029, 874.519 717.903 C 872.510 714.081, 869.912 710.064, 868.745 708.977 C 865.910 706.336, 860.062 706.362, 857.201 709.028 M 201.256 708.965 C 197.138 709.955, 195 711.726, 195 714.147 C 195 716.909, 199.423 718.230, 207.247 717.803 C 214.366 717.415, 217.575 715.662, 216.465 712.769 C 215.325 709.798, 206.732 707.649, 201.256 708.965 M 518.357 708.992 C 515.396 710.187, 513.380 713.348, 510.980 720.561 C 509.853 723.947, 507.542 728.243, 505.844 730.108 C 497.160 739.650, 496.648 754, 504.992 754 C 507.280 754, 509.050 752.665, 513.613 747.500 C 520.669 739.513, 522.445 739.266, 527.600 745.556 C 531.604 750.443, 537.152 753.430, 540.612 752.561 C 543.721 751.781, 545.386 746.905, 544.653 740.721 C 544.092 735.981, 543.508 735.010, 538.205 730.004 C 533.586 725.644, 531.972 723.280, 530.439 718.630 C 529.259 715.048, 527.402 711.833, 525.676 710.380 C 522.641 707.827, 521.690 707.646, 518.357 708.992 M 98.207 711.509 C 92.735 713.886, 90.675 720.046, 90.686 734 C 90.699 751.341, 94.279 758, 103.588 758 C 113.489 758, 116.083 754.074, 115.272 740.316 C 114.851 733.175, 115.094 730.223, 116.365 727.046 C 118.425 721.898, 118.472 715.615, 116.466 713.609 C 113.026 710.169, 103.747 709.102, 98.207 711.509 M 753.559 728.887 C 750.778 734.264, 752.167 744.383, 756.014 746.780 C 758.044 748.045, 758.065 747.934, 757.784 737.361 C 757.478 725.848, 756.326 723.536, 753.559 728.887 M 205.750 754.162 C 201.132 755.849, 202.973 758, 209.035 758 C 212.137 758, 217 756.136, 217 754.946 C 217 752.936, 210.371 752.474, 205.750 754.162 M 794.198 846.349 C 790.857 848.202, 786.009 856, 786.004 859.527 C 785.993 867.364, 797.229 873.030, 803.739 868.471 C 806.032 866.864, 808.072 861.292, 807.473 858.274 C 807.279 857.298, 806.868 855.297, 806.561 853.827 C 805.767 850.038, 801.234 844.993, 798.661 845.035 C 797.472 845.055, 795.464 845.646, 794.198 846.349 M 673.437 848.363 C 671.202 849.086, 666.275 851.143, 662.488 852.932 C 652.443 857.678, 647.296 857.921, 637.724 854.102 C 633.447 852.396, 629.240 851, 628.374 851 C 627.508 851, 625.270 852.530, 623.400 854.400 C 618.175 859.625, 618.877 866.334, 624.980 869.490 C 628.497 871.308, 632.063 871.384, 642.120 869.853 C 648.480 868.886, 651.383 868.967, 659.664 870.347 C 671.157 872.262, 685.205 872.500, 690.101 870.864 C 696.951 868.574, 702 861.930, 702 855.205 C 702 848.811, 699.705 847.543, 687.648 847.273 C 681.368 847.133, 675.951 847.548, 673.437 848.363 M 465.500 853.211 C 463.850 853.782, 456.725 854.532, 449.668 854.878 C 438.555 855.421, 436.645 855.765, 435.418 857.444 C 431.134 863.301, 435.524 866.119, 450.334 867.018 C 458.211 867.497, 462.837 868.293, 466.040 869.723 C 474.435 873.470, 476.617 873.537, 479.998 870.156 C 482.474 867.680, 483 866.338, 483 862.500 C 483 858.690, 482.470 857.316, 480.077 854.923 C 477.703 852.550, 476.340 852.016, 472.827 852.086 C 470.447 852.133, 467.150 852.639, 465.500 853.211 M 581.495 854.414 C 575.082 860.827, 578.438 871, 586.966 871 C 590.327 871, 594.558 868.972, 596.235 866.558 C 598.152 863.797, 596.963 858.763, 593.600 855.400 C 589.397 851.197, 585.065 850.844, 581.495 854.414 M 269.139 853.999 C 264.566 855.079, 262.600 857.315, 262.600 861.436 C 262.600 868.834, 268.113 870.735, 278.740 867 C 285.628 864.579, 292.233 864.464, 300.808 866.614 C 308.578 868.563, 324.260 868.178, 327.750 865.953 C 330.836 863.986, 330.911 858.424, 327.864 857.457 C 326.690 857.084, 319.377 856.677, 311.614 856.553 C 302.500 856.407, 295.197 855.743, 291 854.678 C 284.179 852.948, 274.818 852.657, 269.139 853.999 M 727.750 854.080 C 724.938 855.718, 725.450 861.422, 728.635 863.927 C 736.141 869.831, 742.811 862.657, 736.077 855.923 C 733.027 852.873, 730.705 852.359, 727.750 854.080 M 372.500 855.802 C 369.338 856.441, 367 859.075, 367 862 C 367 866.433, 370.270 868.420, 377.061 868.115 C 380.112 867.978, 384 864.637, 384 862.152 C 384 858.024, 377.974 854.697, 372.500 855.802" stroke="none" fill="#ffffff" fill-rule="evenodd"/>
</svg>