<svg xmlns="http://www.w3.org/2000/svg" width="1000" height="558" viewBox="0 0 1000 558" version="1.1">
	<path d="M 413.475 223.268 L 410.838 225.537 410.744 271.018 C 410.651 316.110, 410.669 316.543, 412.896 321.499 C 414.132 324.248, 416.225 327.918, 417.549 329.653 C 420.892 334.036, 431.320 337.926, 440.396 338.176 C 446.497 338.344, 447.498 338.103, 449.143 336.072 C 451.553 333.096, 451.517 329.347, 449.066 328.035 C 448.002 327.466, 443.484 327, 439.027 327 C 430.979 327, 430.893 326.973, 426.711 323.073 L 422.500 319.146 422.208 289.821 C 421.965 265.328, 422.158 260.167, 423.380 258.498 C 424.690 256.709, 426.014 256.498, 436.025 256.482 C 446.534 256.464, 447.321 256.322, 449.103 254.121 C 451.610 251.025, 451.500 248.464, 448.777 246.557 C 447.087 245.372, 443.872 245, 435.337 245 C 427.460 245, 423.877 244.628, 423.309 243.750 C 422.864 243.063, 422.257 238.288, 421.959 233.139 C 421.516 225.492, 421.069 223.524, 419.517 222.389 C 417 220.548, 416.563 220.611, 413.475 223.268 M 250.942 245.297 C 239.531 248.543, 229.214 257.941, 222.724 271 L 218.500 279.500 218.544 292 L 218.587 304.500 222.894 312.855 C 228.951 324.607, 236.058 331.387, 247.555 336.381 C 256.065 340.076, 256.738 340.206, 264.954 339.736 C 281.188 338.807, 294.949 329.289, 303 313.422 L 306.500 306.525 306.500 290.985 L 306.500 275.446 302.004 267.973 C 299.531 263.863, 295.997 258.975, 294.149 257.112 C 289.938 252.864, 282.225 247.635, 277.843 246.057 C 272.784 244.235, 256.310 243.769, 250.942 245.297 M 347.500 245.393 C 339.373 247.380, 327.787 257.373, 321.681 267.662 C 321.301 268.301, 320.128 273.026, 319.073 278.162 C 317.387 286.372, 317.118 292.835, 316.847 331.666 C 316.553 373.776, 316.626 375.929, 318.424 377.916 C 320.791 380.532, 324.605 380.607, 325.965 378.066 C 326.589 376.900, 327 367.343, 327 354 C 327 327.560, 327.819 324.768, 333.945 330.312 C 335.350 331.583, 340.235 334.337, 344.800 336.431 C 352.856 340.128, 353.355 340.225, 361.800 339.735 C 369.427 339.293, 371.425 338.751, 378 335.340 C 386.912 330.716, 391.787 326.210, 395.653 319.025 C 397.219 316.113, 399.081 312.679, 399.792 311.392 C 402.028 307.342, 403.194 292.422, 402.027 282.797 C 400.835 272.979, 400.725 272.640, 396.192 264.832 C 393.132 259.562, 388.687 254.965, 380.973 249.097 C 374.840 244.431, 358.725 242.648, 347.500 245.393 M 490.500 244.497 C 489.950 244.684, 487.894 245.103, 485.932 245.429 C 481.554 246.157, 471.750 252.459, 466.917 257.651 C 457.237 268.050, 454.444 275.958, 454.610 292.500 C 454.731 304.584, 456.045 310.056, 460.635 317.592 C 463.409 322.146, 473.685 332.934, 475.292 332.978 C 475.727 332.990, 479.102 334.462, 482.792 336.250 C 489.026 339.270, 490.207 339.496, 499.500 339.448 C 508.910 339.400, 509.962 339.178, 517.329 335.687 C 526.862 331.171, 534.909 324.420, 538.396 318.014 C 541.787 311.783, 541.758 309.239, 538.278 307.916 C 535.286 306.778, 531 308.069, 531 310.107 C 531 311.685, 524.355 318.932, 520.007 322.098 C 514.430 326.157, 512.754 326.841, 505.572 327.988 C 498.375 329.138, 488.936 328.055, 484.042 325.519 C 478.777 322.789, 471.824 315.594, 468.949 309.898 C 465.414 302.896, 465.322 301.588, 468.223 299.557 C 470.126 298.224, 475.216 298, 503.657 298 C 522.272 298, 537.971 297.581, 539.375 297.048 C 544.459 295.115, 544.880 285.509, 540.333 275.221 C 539.050 272.318, 538 269.391, 538 268.717 C 538 268.043, 535.698 264.681, 532.885 261.246 C 526.601 253.573, 516.417 246.637, 509.201 245.117 C 504.309 244.086, 492.834 243.706, 490.500 244.497 M 648.917 245.370 C 642.724 246.703, 639.395 248.877, 631.110 257 C 623.037 264.915, 621.183 267.686, 618.950 275.176 C 614.940 288.626, 614.765 291.572, 617.355 302.025 C 618.654 307.264, 620.472 312.889, 621.396 314.525 C 626.843 324.169, 634.810 331.458, 644.971 336.092 C 651.803 339.208, 653.259 339.500, 661.971 339.500 C 669.708 339.500, 672.346 339.091, 676 337.326 C 678.475 336.130, 682.075 334.498, 684 333.699 C 688.771 331.718, 699.967 321.324, 701.638 317.323 C 703.724 312.332, 703.381 309.131, 700.626 307.876 C 698.066 306.709, 694 308.097, 694 310.138 C 694 310.725, 690.801 314.311, 686.890 318.107 C 681.158 323.670, 678.687 325.334, 674.140 326.689 C 667.594 328.639, 656.337 328.853, 650.304 327.142 C 644.894 325.608, 635.637 317.191, 632.456 310.913 C 631.126 308.288, 629.579 305.858, 629.019 305.512 C 627.598 304.634, 627.748 302.727, 629.418 300.441 C 630.762 298.601, 632.654 298.474, 665.668 298 C 700.107 297.506, 700.537 297.474, 703.750 295.182 C 706.603 293.147, 707 292.307, 707 288.300 C 707 285.570, 706.235 282.483, 705.095 280.618 C 704.048 278.903, 702.512 275.189, 701.683 272.365 C 699.889 266.253, 692.103 255.824, 687.063 252.781 C 685.103 251.598, 682.288 249.639, 680.807 248.428 C 675.899 244.414, 660.304 242.918, 648.917 245.370 M 740.500 244.618 C 735.305 245.949, 731.874 247.265, 730.741 248.363 C 730.058 249.025, 728.143 250.519, 726.484 251.684 C 722.088 254.772, 715.865 264.338, 714.903 269.487 C 714.445 271.939, 713.841 286.824, 713.560 302.565 C 713.139 326.194, 713.304 331.791, 714.504 334.665 C 715.646 337.397, 716.446 338.075, 718.229 337.822 C 722.258 337.250, 722.882 332.743, 722.944 303.766 L 723 277.032 726.008 270.822 C 729.703 263.195, 731.867 260.830, 738.665 256.994 C 746.332 252.667, 752.388 252.887, 760.893 257.804 C 766.656 261.136, 767.665 262.227, 771.143 268.881 L 775 276.262 775.015 304.381 C 775.030 334.238, 775.446 337.197, 779.707 337.811 C 783.697 338.385, 784.238 335.227, 784.542 309.576 C 784.872 281.679, 783.885 268.654, 781.012 263.024 C 778.206 257.523, 769.464 249.093, 764.109 246.724 C 759.638 244.746, 745.072 243.447, 740.500 244.618 M 260 253.766 C 256.241 254.388, 244.827 259.851, 242.116 262.324 C 235.276 268.567, 232.319 273.694, 230.466 282.527 C 228.879 290.085, 228.796 292.186, 229.842 298.285 C 230.506 302.155, 231.875 307.191, 232.886 309.475 C 234.893 314.012, 243.472 323.158, 247.838 325.416 C 252.961 328.065, 262.423 329.193, 269.208 327.962 C 277.335 326.488, 279.849 325.092, 286.340 318.444 C 291.112 313.556, 292.119 311.759, 294.880 303.201 C 296.602 297.866, 298.008 292.601, 298.005 291.502 C 298.002 290.404, 296.599 285.301, 294.888 280.163 C 290.807 267.913, 286.362 262.633, 276 257.724 C 268.221 254.038, 264.266 253.060, 260 253.766 M 355 253.952 C 349.248 255.921, 341.640 260.293, 338.498 263.436 C 336.647 265.286, 333.429 270.053, 331.347 274.029 C 327.636 281.112, 327.561 281.470, 327.625 291.878 C 327.689 302.207, 327.798 302.709, 331.595 310.092 C 335.927 318.512, 342.435 324.981, 348.703 327.094 C 353.564 328.733, 365.254 328.763, 370.792 327.150 C 373.791 326.277, 376.956 324.032, 381.292 319.700 C 386.443 314.556, 387.968 312.206, 390.250 305.900 C 394.041 295.425, 393.966 288.030, 389.959 277.049 C 387.712 270.894, 385.817 267.610, 382.709 264.486 C 375.212 256.952, 361.483 251.732, 355 253.952 M 494.500 253.965 C 488.428 255.492, 479.394 260.201, 475.633 263.800 C 472.077 267.202, 465 279.772, 465 282.687 C 465 285.573, 469.353 286, 498.812 286 C 532.577 286, 531.765 286.183, 530.594 278.863 C 529.395 271.363, 520.797 261.769, 511.466 257.516 C 503.414 253.847, 498.804 252.882, 494.500 253.965 M 656.802 253.952 C 654.769 254.346, 652.519 255.117, 651.802 255.666 C 651.086 256.216, 648.925 257.270, 647 258.010 C 641.562 260.100, 634.821 266.859, 631.250 273.802 C 627.509 281.076, 627.222 283.513, 629.934 284.965 C 631.144 285.612, 643.111 286, 661.899 286 C 691.191 286, 691.957 285.949, 693.031 283.941 C 694.564 281.077, 693.403 276.799, 689.530 271.044 C 685.204 264.616, 680.226 260.340, 673.201 257.017 C 666.454 253.827, 661.871 252.970, 656.802 253.952 M 576.503 339.991 C 575.690 342.552, 576.613 344, 579.059 344 C 581.258 344, 581.705 341.105, 579.800 339.200 C 578.097 337.497, 577.228 337.705, 576.503 339.991" stroke="none" fill="#ffffff" fill-rule="evenodd"/>
</svg>