<svg xmlns="http://www.w3.org/2000/svg" width="991" height="1000" viewBox="0 0 991 1000" version="1.1">
	<path d="M 249.295 453.037 C 242.866 455.037, 243 454.015, 243 501.150 L 243 543.855 245.635 545.927 C 248.765 548.390, 252.973 548.583, 257.093 546.452 C 261.181 544.338, 262.045 541.395, 261.324 532.041 C 260.843 525.805, 261.080 523.078, 262.406 519.606 C 264.693 513.620, 266.118 512.663, 273.870 511.917 C 285.272 510.818, 288.328 509.512, 294.920 502.920 C 301.255 496.585, 302.404 494.071, 303.569 484 C 303.992 480.346, 303.685 476.516, 302.656 472.589 C 301.321 467.497, 300.250 465.871, 294.924 460.851 C 291.430 457.557, 287.168 454.558, 285.121 453.954 C 280.158 452.488, 253.270 451.800, 249.295 453.037 M 832.376 453.159 C 830.657 453.617, 828.675 454.687, 827.970 455.536 C 826.986 456.722, 826.600 467.020, 826.304 499.917 L 825.920 542.755 829.037 545.377 C 832.790 548.536, 837.758 548.827, 841.139 546.086 C 843.305 544.331, 843.500 543.426, 843.500 535.139 C 843.500 529.848, 843.960 525.643, 844.611 524.991 C 845.427 524.173, 847.154 524.642, 851.111 526.758 C 855.487 529.097, 857.031 530.660, 859.324 535.069 C 864.442 544.910, 868.720 548, 877.228 548 C 883.123 548, 887 546.012, 887 542.990 C 887 541.947, 885.087 539.096, 882.750 536.655 C 876.633 530.267, 868.789 520.534, 866.711 516.754 C 863.706 511.290, 865.685 504.952, 873.055 496.437 C 879.103 489.448, 880.081 487.626, 880.266 482.996 C 880.390 479.881, 879.939 478.428, 878.526 477.395 C 875.553 475.221, 872.897 475.715, 867.306 479.480 C 863.487 482.052, 861.292 484.549, 858.893 489.050 C 856.506 493.527, 854.645 495.650, 851.863 497.070 C 847.513 499.289, 844.362 499.552, 843.724 497.750 C 843.480 497.063, 843.508 488.084, 843.786 477.797 C 844.219 461.792, 844.063 458.744, 842.699 456.664 C 840.652 453.540, 836.384 452.091, 832.376 453.159 M 406.655 454.829 C 405.501 456.104, 405 458.479, 405 462.681 C 405 467.525, 404.512 469.369, 402.508 472.102 C 396.048 480.910, 395.233 487.547, 400.057 492.053 C 401.738 493.623, 403.538 496.388, 404.057 498.198 C 404.575 500.007, 405 511.052, 405 522.743 C 405 542.667, 405.125 544.125, 407 546 C 409.416 548.416, 412.625 548.534, 417.953 546.402 C 423.120 544.335, 423.469 542.482, 422.618 521.611 C 421.749 500.290, 422.510 495.843, 427.874 490.890 C 430.143 488.794, 432 486.335, 432 485.425 C 432 484.514, 429.890 480.595, 427.312 476.717 C 423.173 470.492, 422.638 469.068, 422.747 464.582 C 422.816 461.787, 422.644 458.708, 422.365 457.739 C 421.112 453.384, 409.850 451.298, 406.655 454.829 M 524.635 455.073 L 522 457.145 522 500.550 L 522 543.954 524.514 545.601 C 528.112 547.959, 535.025 548.431, 537.500 546.489 C 539.357 545.031, 539.536 543.403, 540 523.709 L 540.500 502.500 543.919 497.750 C 547.729 492.459, 551.748 490.703, 557.224 491.938 C 566.766 494.090, 568 497.675, 568 523.244 C 568 533.826, 568.436 542.947, 568.992 543.986 C 571.179 548.072, 582.077 549.022, 585.092 545.389 C 586.611 543.558, 586.490 505.631, 584.935 496.138 C 584.427 493.037, 584.009 490.368, 584.006 490.207 C 583.985 489.167, 573.713 479.208, 570 476.627 C 565.943 473.808, 564.811 473.511, 558.500 473.615 C 554.650 473.678, 549.868 474.189, 547.873 474.750 C 545.879 475.312, 543.769 475.476, 543.186 475.115 C 541.293 473.945, 540 469.003, 540 462.935 C 540 458.333, 539.551 456.551, 538 455 C 535.242 452.242, 528.184 452.281, 524.635 455.073 M 265.750 471.080 C 260.577 474.093, 259.340 484.874, 263.589 489.923 C 265.837 492.595, 266.829 493, 271.121 493 C 277.909 493, 282.362 490.955, 283.957 487.104 C 285.526 483.316, 284.805 476.547, 282.569 474.076 C 279.505 470.690, 269.484 468.905, 265.750 471.080 M 340 473.639 C 333.607 476.210, 322.777 483.713, 320.923 486.855 C 319.756 488.833, 317.984 491.024, 316.984 491.724 C 313.323 494.288, 311.500 501.694, 311.500 514 C 311.500 527.272, 312.298 529.425, 321.048 539.772 C 325.585 545.136, 327.090 546.201, 332.873 548.134 C 341.162 550.906, 349.546 550.918, 357.298 548.172 C 362.251 546.417, 364.585 546.202, 373.312 546.696 C 382.057 547.191, 383.725 547.037, 384.900 545.621 C 385.992 544.304, 386.289 537.784, 386.353 513.639 C 386.426 485.896, 386.278 483.073, 384.611 480.528 C 382.837 477.821, 382.609 477.764, 376.144 478.383 C 372.490 478.733, 367.876 479.281, 365.891 479.602 C 362.810 480.100, 361.743 479.713, 358.604 476.957 C 355.378 474.125, 354.100 473.685, 348.213 473.382 C 344.521 473.192, 340.825 473.307, 340 473.639 M 471.135 473.939 C 469.284 474.409, 466.570 475.681, 465.104 476.765 C 463.638 477.849, 460.652 479.653, 458.469 480.774 C 454.126 483.005, 445.602 492.286, 443.981 496.551 C 440.676 505.242, 441.022 522.245, 444.646 529.308 C 446.769 533.444, 456.542 544.097, 459.868 545.900 C 471.260 552.076, 494.016 550.664, 500.907 543.354 C 502.387 541.784, 504.904 539.568, 506.499 538.429 C 510.331 535.694, 510.622 529.732, 507.065 526.851 C 504.008 524.376, 499.795 525.076, 490.149 529.663 C 479.653 534.654, 477.709 534.766, 470.078 530.821 C 463.983 527.669, 463.504 527.152, 460.649 520.647 C 457.828 514.220, 457.717 513.504, 458.867 509.147 C 459.541 506.591, 461.623 502.180, 463.494 499.345 C 467.580 493.150, 471.295 491.595, 480.592 492.187 C 486.159 492.541, 487.415 493.010, 490.304 495.810 C 494.844 500.211, 503.559 502.174, 507.394 499.661 C 510.662 497.520, 510.773 494.147, 507.752 488.773 C 506.025 485.699, 503.374 483.520, 496.294 479.353 C 488.355 474.681, 486.215 473.874, 480.792 473.507 C 477.331 473.274, 472.986 473.468, 471.135 473.939 M 802.066 476.568 C 799.617 477.631, 796.992 477.872, 792.904 477.410 C 784.045 476.407, 784.099 476.194, 783.848 513.544 L 783.642 544.292 786.061 546.250 C 789.054 548.674, 796.968 548.243, 800.010 545.491 C 801.872 543.806, 802 542.386, 802 523.365 C 802 499.794, 802.692 496.793, 809.109 492.547 C 814.397 489.047, 816.741 484.203, 815.083 480.201 C 813.860 477.247, 810.378 474.966, 807.203 475.039 C 806.266 475.061, 803.955 475.749, 802.066 476.568 M 598.400 476.765 C 596.405 478.097, 595 481.809, 595.022 485.684 C 595.044 489.568, 597.971 497.206, 600.513 500.015 C 601.285 500.868, 602.834 505.501, 603.956 510.311 C 605.078 515.122, 607.138 521.312, 608.534 524.067 C 609.930 526.823, 611.795 532.273, 612.677 536.179 C 613.559 540.085, 615.117 544.117, 616.140 545.140 C 619.372 548.372, 629.243 546.965, 630.468 543.098 C 630.747 542.219, 631.897 536.377, 633.023 530.117 C 635.144 518.334, 636.282 515, 638.180 515 C 638.791 515, 641.251 516.237, 643.647 517.750 C 648.553 520.847, 649.314 522.570, 651.045 534.500 C 652.489 544.453, 653.180 545.755, 657.434 546.554 C 665.725 548.109, 669.136 545.144, 670.481 535.215 C 670.875 532.308, 672.676 527.133, 674.482 523.715 C 676.289 520.297, 678.753 513.450, 679.958 508.500 C 681.244 503.220, 683.445 497.433, 685.284 494.500 C 689.024 488.533, 689.562 481.383, 686.522 478.025 C 684.317 475.588, 682.309 475.492, 677.097 477.578 C 672.404 479.456, 670.806 482.453, 669.075 492.629 C 667.708 500.663, 664.809 504.488, 659.246 505.601 C 655.289 506.392, 654.749 505.344, 652.026 491.559 C 649.714 479.858, 648.169 477.727, 641.995 477.727 C 636.193 477.727, 633.317 480.795, 631.869 488.529 C 629.762 499.782, 628.707 502.290, 625.230 504.308 C 623.237 505.466, 621.045 505.977, 619.614 505.618 C 617.121 504.992, 616.195 502.524, 613.941 490.500 C 612.502 482.820, 610.830 480.280, 605.672 477.938 C 601.068 475.848, 600.025 475.680, 598.400 476.765 M 342.088 492.386 C 337.116 494.183, 331.228 500.442, 329.904 505.337 C 328.582 510.223, 329.219 519.599, 331.146 523.616 C 331.891 525.169, 334.975 528.144, 338 530.226 C 343.002 533.669, 343.998 533.981, 349 533.668 C 353.380 533.394, 355.620 532.560, 360 529.573 C 366.531 525.118, 367.826 522.972, 368.622 515.290 C 369.520 506.629, 367.863 501.961, 362.028 496.715 C 355.734 491.056, 349.506 489.704, 342.088 492.386 M 127.165 505.597 C 125.572 506.713, 124.978 507.992, 125.193 509.847 C 125.444 512.018, 126.226 512.682, 129.500 513.500 C 134.709 514.802, 136 515.703, 136 518.036 C 136 519.091, 137.101 520.675, 138.447 521.557 C 140.545 522.932, 141.287 522.971, 143.654 521.830 C 145.173 521.099, 146.677 519.387, 146.997 518.026 C 147.798 514.616, 152.752 513.251, 158.627 514.823 C 163.780 516.201, 166.693 515.002, 167.684 511.095 C 168.799 506.704, 166.998 505.555, 157.896 504.849 C 141.495 503.578, 129.636 503.867, 127.165 505.597 M 201.180 512.250 C 201.356 513.487, 201.950 514.500, 202.500 514.500 C 203.050 514.500, 203.644 513.487, 203.820 512.250 C 204.039 510.702, 203.628 510, 202.500 510 C 201.372 510, 200.961 510.702, 201.180 512.250 M 690.582 549.628 C 689.302 551.073, 687.355 553.155, 686.255 554.255 C 685.155 555.355, 683.073 557.302, 681.628 558.582 C 678.770 561.113, 678.003 566.603, 680.200 568.800 C 682.772 571.372, 685.563 569.946, 692.750 562.389 C 700.554 554.183, 701.621 551.249, 697.777 548.557 C 694.681 546.388, 693.265 546.598, 690.582 549.628 M 134.495 584.414 C 130.780 588.129, 130.434 591.287, 133.142 596.739 C 134.955 600.388, 136.251 601.693, 138.750 602.387 C 145.774 604.337, 151.647 600.053, 152.698 592.212 C 153.185 588.588, 152.887 587.733, 150.202 585.048 C 147.598 582.444, 146.408 582, 142.031 582 C 137.950 582, 136.419 582.490, 134.495 584.414" stroke="none" fill="#ffffff" fill-rule="evenodd"/>
</svg>