<svg xmlns="http://www.w3.org/2000/svg" width="1000" height="795" viewBox="0 0 1000 795" version="1.1">
	<path d="M -0 397.501 L -0 795.002 500.250 794.751 L 1000.500 794.500 1000.751 397.250 L 1001.002 0 500.501 0 L 0 0 -0 397.501 M 0.495 398 C 0.495 616.625, 0.610 706.063, 0.750 596.750 C 0.890 487.438, 0.890 308.563, 0.750 199.250 C 0.610 89.938, 0.495 179.375, 0.495 398 M 175.740 116.033 C 157.172 117.008, 138.447 118.282, 134.129 118.863 C 119.516 120.830, 117.745 121.977, 97.956 142.298 C 88.207 152.309, 78.719 161.850, 76.871 163.500 C 75.022 165.150, 72.158 168.030, 70.505 169.900 C 68.852 171.770, 61.319 179.568, 53.764 187.228 C 42.500 198.649, 39.471 202.358, 36.937 207.828 C 35.238 211.498, 32.644 216.750, 31.174 219.500 L 28.500 224.500 28.457 356.500 C 28.433 429.100, 28.308 523.150, 28.178 565.500 C 27.969 633.648, 28.124 643.034, 29.530 647.149 C 31.898 654.078, 33.889 655.405, 42.571 655.843 L 49.964 656.217 55.414 650.858 C 69.485 637.024, 72.782 634.117, 76.595 632.189 C 78.847 631.050, 82.106 628.504, 83.839 626.531 C 85.571 624.558, 89.578 621.415, 92.744 619.545 C 95.910 617.675, 100.019 614.517, 101.875 612.526 C 103.732 610.536, 107.557 607.747, 110.375 606.329 C 113.544 604.735, 119.562 599.696, 126.144 593.125 C 135.289 583.995, 137.006 581.759, 138.345 577.233 C 139.733 572.539, 139.905 548.821, 139.930 358.957 C 139.950 208.176, 140.274 145.356, 141.040 143.926 C 141.635 142.814, 143.224 141.485, 144.572 140.973 C 148.163 139.607, 267.420 139.619, 269.972 140.985 C 272.877 142.540, 273.447 146.289, 272.007 154.350 C 270.873 160.696, 270.279 161.890, 266.471 165.479 C 261.319 170.335, 260.680 171.543, 258.525 180.500 C 257.035 186.697, 256.276 188.016, 251.908 192 C 247.220 196.276, 246.879 196.943, 245.057 205.385 C 243.249 213.761, 242.873 214.505, 238.493 218.385 C 234.258 222.136, 233.637 223.288, 231.484 231.404 C 229.394 239.281, 228.616 240.780, 224.739 244.404 C 220.842 248.047, 220.101 249.488, 218.039 257.424 C 216.202 264.495, 214.955 267.195, 212.038 270.424 C 208.174 274.701, 207.129 276.899, 204.567 286.149 C 203.626 289.549, 201.190 294.210, 198.449 297.856 C 195.176 302.210, 193.077 306.532, 190.984 313.227 C 189.037 319.456, 186.747 324.318, 184.071 327.905 C 181.808 330.937, 178.672 337.175, 176.854 342.255 C 174.951 347.576, 172.229 352.926, 170.182 355.371 C 166.226 360.097, 163.857 365.178, 162.020 372.881 C 161.315 375.841, 159.784 379.196, 158.619 380.338 C 153.633 385.221, 152 388.354, 152 393.037 C 152 398.120, 155.638 406.302, 158.112 406.781 C 158.910 406.936, 161.710 405.640, 164.334 403.902 C 170.122 400.068, 171.524 400.492, 176.181 407.483 C 179.911 413.082, 183.488 414.918, 187.749 413.419 C 189.789 412.702, 191.418 410.598, 194.063 405.267 C 196.023 401.315, 198.849 397.120, 200.342 395.946 C 203.721 393.288, 206.160 388.431, 208.410 379.878 C 209.761 374.746, 211.030 372.400, 214.054 369.447 C 217.120 366.453, 218.620 363.644, 221.055 356.334 C 223.144 350.063, 225.387 345.539, 227.934 342.457 C 230.415 339.454, 232.823 334.666, 234.941 328.522 C 236.715 323.374, 239.289 317.663, 240.661 315.831 C 244.327 310.935, 246.500 306.395, 249.339 297.703 C 250.943 292.793, 253.531 287.738, 256.386 283.940 C 259.504 279.792, 261.673 275.396, 263.407 269.713 C 265.372 263.270, 266.749 260.674, 269.766 257.729 C 273.443 254.138, 275.614 249.544, 277.945 240.416 C 278.594 237.874, 280.339 235.103, 282.569 233.074 C 286.393 229.594, 289.239 223.972, 290.435 217.535 C 291.418 212.243, 293.564 208.273, 295.831 207.554 C 299.951 206.246, 302.014 202.492, 303.597 193.424 C 305.272 183.828, 305.875 182.633, 310.160 180.417 C 313.589 178.644, 315.408 175.267, 316.941 167.827 C 318.685 159.365, 321.857 157.800, 325.622 163.545 C 327.026 165.689, 327.515 169.780, 328.170 184.849 C 329.077 205.699, 329.531 210.513, 334.407 251 C 336.295 266.675, 338.115 284.450, 338.452 290.500 C 338.789 296.550, 339.744 309.825, 340.575 320 C 343.517 356.036, 343.274 355.500, 356.678 355.500 L 365.300 355.500 370.400 349.549 C 377.093 341.739, 397.779 321.101, 417.057 303 C 440.943 280.572, 445.929 275.812, 450.048 271.500 C 452.150 269.300, 455.054 266.375, 456.501 265 C 457.948 263.625, 461.916 259.688, 465.317 256.250 C 469.649 251.873, 472.251 250.005, 474.001 250.015 C 480.090 250.053, 481.158 253.159, 480.247 268.179 C 479.836 274.956, 479.725 362.400, 480 462.500 C 480.493 641.986, 480.528 644.555, 482.500 648.500 C 484.941 653.383, 488.579 655.250, 495.651 655.250 C 499.951 655.250, 501.649 654.730, 504.254 652.614 C 506.039 651.164, 509.975 648.230, 513 646.094 C 516.025 643.958, 519.850 640.771, 521.500 639.012 C 523.150 637.253, 526.554 634.765, 529.063 633.484 C 531.573 632.203, 535.271 629.335, 537.281 627.111 C 539.290 624.887, 543.240 621.899, 546.057 620.471 C 548.875 619.043, 553.052 616.160, 555.340 614.064 C 557.628 611.968, 561.975 608.762, 565 606.940 C 572.696 602.303, 587.789 586.818, 589.677 581.623 C 590.990 578.010, 591.191 549.915, 591.299 354.500 C 591.415 143.454, 591.327 131.279, 589.657 127.386 C 588.597 124.917, 586.815 122.781, 585.200 122.045 C 582.086 120.626, 569.369 120.529, 565.771 121.897 C 563.300 122.836, 558 128.394, 558 130.046 C 558 130.537, 555.591 132.479, 552.648 134.362 C 549.704 136.246, 546.288 139.416, 545.057 141.407 C 543.827 143.399, 540.821 146.403, 538.378 148.084 C 535.936 149.764, 532.840 152.877, 531.500 155 C 530.160 157.123, 527.037 160.255, 524.560 161.959 C 522.083 163.663, 518.672 167.069, 516.980 169.528 C 515.288 171.988, 513.477 174, 512.955 174 C 511.445 174, 504.146 180.965, 503.490 183.031 C 503.163 184.063, 500.615 186.580, 497.829 188.626 C 495.043 190.671, 491.479 194.117, 489.909 196.284 C 488.340 198.451, 485.337 201.338, 483.237 202.700 C 481.137 204.061, 478.326 206.769, 476.992 208.717 C 475.657 210.664, 472.240 213.976, 469.397 216.076 C 466.554 218.176, 463.246 221.484, 462.045 223.428 C 460.844 225.371, 458.014 228.208, 455.756 229.731 C 453.498 231.254, 450.267 234.428, 448.576 236.784 C 446.884 239.141, 443.832 242.181, 441.794 243.541 C 439.755 244.900, 436.715 248.008, 435.037 250.446 C 433.359 252.884, 430.154 255.910, 427.914 257.169 C 425.673 258.428, 422.793 261.214, 421.513 263.361 C 420.233 265.507, 417.006 268.906, 414.343 270.914 C 411.679 272.921, 408.627 276.179, 407.561 278.153 C 406.494 280.128, 403.665 282.925, 401.274 284.369 C 398.882 285.814, 395.705 288.961, 394.213 291.363 C 392.721 293.765, 389.803 296.952, 387.730 298.444 C 385.656 299.937, 383.102 302.841, 382.053 304.896 C 379.491 309.918, 377.573 311.361, 374.488 310.586 C 369.959 309.450, 368.008 306.526, 367.924 300.750 C 367.882 297.862, 367.249 291, 366.518 285.500 C 362.036 251.774, 360.758 236.643, 356.973 172.500 C 356.013 156.240, 354.424 147.692, 351.023 140.500 C 349.983 138.300, 348.208 133.800, 347.078 130.500 C 345.816 126.812, 343.809 123.396, 341.870 121.636 C 339.130 119.151, 338.107 118.831, 334.105 119.216 C 331.570 119.459, 327.247 120.765, 324.498 122.118 C 320.338 124.165, 319.053 125.493, 316.834 130.039 C 315.367 133.042, 313.400 138.265, 312.463 141.645 C 310.756 147.804, 309.657 148.990, 304.250 150.505 C 302.047 151.122, 302 150.962, 301.994 142.817 C 301.988 132.928, 300.807 128.066, 297.752 125.349 C 294.016 122.027, 281.963 117.301, 272.890 115.601 C 261.494 113.466, 221.199 113.645, 175.740 116.033 M 296.302 152.012 C 293.275 153.231, 291.383 157.415, 290.693 164.418 C 290.054 170.898, 291.086 174, 293.880 174 C 296.976 174, 298.921 170.663, 300.667 162.356 C 302.908 151.698, 302.062 149.692, 296.302 152.012 M 278.932 180.582 C 276.980 182.934, 276.992 194.755, 278.946 195.965 C 282.679 198.276, 286.479 191.395, 285.829 183.500 C 285.545 180.045, 285.148 179.459, 282.914 179.199 C 281.405 179.024, 279.747 179.599, 278.932 180.582 M 265.458 207.424 C 262.006 212.692, 265.807 222.286, 269.441 217.478 C 272.177 213.858, 271.028 205, 267.823 205 C 267.396 205, 266.332 206.091, 265.458 207.424 M 252.005 231.990 C 250.562 234.687, 250.420 240.820, 251.769 242.169 C 254.884 245.284, 258.151 238.156, 256.091 232.740 C 254.859 229.500, 253.474 229.246, 252.005 231.990 M 241 503.570 C 229.667 504.862, 223.798 506.376, 219.454 509.131 L 214.761 512.107 208.724 508.054 C 201.628 503.288, 197.182 502.838, 188.674 506.021 C 181.910 508.551, 180.814 509.781, 177.078 519.023 C 175.296 523.433, 172.981 527.320, 171.435 528.500 C 165.867 532.748, 163.211 536.102, 162.155 540.221 C 161.532 542.652, 159.384 546.371, 157.182 548.832 C 150.319 556.502, 148.702 572.430, 154.400 576.235 C 157.963 578.614, 163.867 575.488, 165.402 570.408 C 166.608 566.417, 170.276 564.237, 178.500 562.625 C 187.149 560.930, 209.817 560.600, 213.793 562.111 C 215.069 562.596, 218.450 565.191, 221.306 567.877 C 226.299 572.571, 227.011 572.886, 239.707 576.019 C 251.085 578.827, 253.322 579.109, 255.858 578.059 C 264.008 574.683, 266.533 565.431, 265.598 542.379 C 264.923 525.720, 264.904 525.780, 271.153 523.919 C 276.153 522.430, 290.708 520.889, 293.397 521.564 C 297.334 522.552, 298 525.871, 298 544.498 C 298 554.070, 298.483 564.155, 299.074 566.910 C 301.757 579.421, 311.252 581.459, 318.452 571.070 C 320.003 568.831, 321.930 567, 322.733 567 C 323.537 567, 326.162 569.189, 328.568 571.864 C 332.371 576.095, 333.694 576.874, 338.720 577.850 C 341.899 578.467, 353.725 579.088, 365 579.231 C 383.454 579.464, 385.883 579.300, 389.341 577.588 C 394.152 575.206, 396.581 570.660, 395.111 566.793 C 392.803 560.721, 381.629 558.437, 362.779 560.184 C 350.892 561.286, 349.926 561.243, 348.029 559.526 C 345.404 557.151, 345.444 553.556, 348.127 550.873 C 350.026 548.974, 350.855 548.834, 355.877 549.570 C 363.200 550.642, 380.231 550.717, 386.155 549.703 C 394.624 548.253, 398.325 542.225, 394.068 536.814 C 390.267 531.981, 377.298 530.586, 363.500 533.526 C 352.152 535.944, 349.068 535.780, 346.345 532.614 C 345.055 531.115, 344 529.271, 344 528.517 C 344 526.082, 348.763 523.307, 355.075 522.065 C 359.377 521.219, 361.949 520.079, 363.615 518.281 C 366.537 515.129, 366.554 514.586, 363.849 510.788 C 360.444 506.007, 354.900 504.047, 344.700 504.022 C 334.700 503.997, 331.383 505.199, 326.176 510.737 L 322.853 514.272 318.676 510.194 C 312.763 504.420, 310.197 503.668, 301.427 505.142 C 295.834 506.082, 292.966 506.092, 288.842 505.186 C 283.531 504.019, 247.686 502.809, 241 503.570 M 653 503.911 C 639.814 504.481, 635.137 505.083, 629.713 506.906 C 623.268 509.073, 622.725 509.107, 618.943 507.594 C 610.870 504.364, 605.760 506.205, 603.067 513.315 C 601.697 516.930, 601.656 554.615, 603.013 562.566 C 604.310 570.169, 606.720 574.892, 609.682 575.635 C 611.060 575.981, 614.334 575.285, 617.640 573.943 C 623.164 571.701, 623.333 571.693, 627.878 573.434 C 641.260 578.562, 646.388 579.267, 670.870 579.346 L 694.240 579.422 696.620 576.655 C 699.952 572.781, 699.884 566.794, 696.469 563.378 L 693.939 560.848 672.516 561.121 C 645.335 561.467, 646.390 562.196, 643.893 541.325 C 642.602 530.533, 643.550 526.288, 647.811 523.771 C 650.256 522.327, 653.113 522.193, 670.588 522.708 C 691.714 523.331, 695.668 522.821, 699.837 518.937 C 703.869 515.180, 701.978 508.591, 695.976 505.488 C 692.278 503.576, 675.224 502.950, 653 503.911 M 714.190 506.026 C 708.545 509.467, 708.257 511.421, 708.960 541.500 C 709.657 571.379, 710.306 574.641, 716.019 577.008 C 722.903 579.859, 727.058 575.080, 729.065 562 C 730.223 554.455, 731.410 551.078, 733.347 549.819 C 734.885 548.819, 769.933 550.003, 773.813 551.186 C 777.454 552.297, 778.871 554.699, 781.448 564.131 C 783.324 570.995, 785.752 574.199, 789.034 574.140 C 790.390 574.115, 795.325 574.020, 800 573.928 C 806.273 573.804, 810.727 574.379, 817 576.122 C 824.687 578.258, 827.653 578.496, 848 578.613 C 874.107 578.762, 874.479 578.664, 879.124 570.434 L 882.231 564.929 887.475 569.888 C 891.055 573.273, 894.112 575.193, 897.109 575.936 C 899.524 576.534, 903.127 577.469, 905.116 578.012 C 907.105 578.555, 915.880 578.980, 924.616 578.956 C 942.656 578.907, 948.854 577.512, 952.398 572.704 C 954.282 570.149, 954.332 569.683, 952.979 567.295 C 952.166 565.858, 949.700 563.741, 947.500 562.591 C 943.841 560.678, 942.123 560.525, 927.358 560.795 L 911.217 561.091 909.184 558.506 C 906.654 555.290, 905.908 548.663, 905.676 527.330 C 905.506 511.709, 905.418 511.072, 903.076 508.580 C 900.233 505.555, 894.648 505.096, 889.989 507.506 C 886.690 509.212, 882.545 515.786, 881.483 521 C 879.651 529.983, 875.747 532.439, 863 532.623 C 858.325 532.690, 849.002 533.089, 842.282 533.509 C 831.731 534.168, 829.718 534.046, 827.532 532.613 C 824.957 530.926, 824.352 528.571, 825.876 526.167 C 826.350 525.418, 830.618 524.247, 835.610 523.494 C 846.814 521.806, 847.551 521.499, 849.044 517.895 C 850.678 513.948, 849.293 509.308, 845.674 506.606 C 841.529 503.511, 830.240 503.255, 815.245 505.916 C 806.183 507.524, 801.275 507.883, 794.901 507.404 C 786.865 506.801, 786.401 506.881, 784.214 509.240 C 782.957 510.596, 781.003 515.107, 779.874 519.263 C 776.607 531.282, 776.593 531.289, 754.211 532.099 C 743.920 532.471, 734.774 532.393, 733.887 531.926 C 731.636 530.740, 730.236 526.712, 729.111 518.186 C 728.043 510.087, 726.164 506.393, 722.383 504.955 C 718.861 503.617, 717.945 503.736, 714.190 506.026 M 222.689 522.454 C 219.558 525.584, 220.566 529.537, 225.847 534.846 C 228.974 537.989, 232.158 542.785, 234.819 548.359 C 237.088 553.112, 239.395 557, 239.947 557 C 243.927 557, 247.853 533.160, 244.929 526.743 C 243.240 523.036, 240.073 521.687, 231.939 521.209 C 225.770 520.847, 224.067 521.076, 222.689 522.454 M 833.854 550.706 C 830.631 551.201, 827.549 554.382, 828.327 556.410 C 829.315 558.983, 835.863 559.811, 858 560.160 L 879.500 560.500 879.823 558.220 C 880.042 556.681, 879.114 554.975, 876.968 552.970 L 873.788 550 855.144 550.150 C 844.890 550.232, 835.309 550.483, 833.854 550.706 M 854.500 600.988 C 853.400 601.424, 851.375 602.993, 850 604.474 C 847.930 606.703, 847.505 608.145, 847.531 612.861 C 847.592 623.869, 853.270 628.639, 867.605 629.727 C 879.112 630.601, 885.314 629.415, 890.085 625.429 C 893.703 622.406, 894.859 622.001, 899.845 622.013 C 904.300 622.023, 906.773 622.712, 911.500 625.259 C 917.417 628.447, 917.686 628.492, 931 628.490 C 942.504 628.489, 945.081 628.194, 948.431 626.494 C 954.465 623.433, 954.765 622.231, 951.325 614.880 C 947.261 606.196, 942.963 602, 938.131 602 C 935.049 602, 933.664 602.767, 930 606.500 C 925.310 611.279, 922.110 612.150, 918.473 609.638 C 911.319 604.698, 902.886 601, 898.773 601 C 893.343 601, 890.981 603.252, 888.545 610.750 C 886.895 615.827, 886.718 616, 883.147 616 C 880.463 616, 878.387 615.119, 875.537 612.770 C 873.382 610.994, 869.342 608.161, 866.559 606.476 C 863.777 604.790, 860.375 602.687, 859 601.803 C 857.370 600.754, 855.804 600.470, 854.500 600.988" stroke="none" fill="#ffffff" fill-rule="evenodd"/>
</svg>