<svg xmlns="http://www.w3.org/2000/svg" width="1000" height="1000" viewBox="0 0 1000 1000" version="1.1">
	<path d="M 270.250 348.491 C 268.462 349.268, 267 350.244, 267 350.661 C 267 351.962, 276.239 359.970, 277.115 359.429 C 278.371 358.653, 280.100 351.424, 279.441 349.706 C 279.122 348.876, 277.880 347.934, 276.681 347.612 C 273.878 346.861, 274.057 346.836, 270.250 348.491 M 246.246 359.154 C 244.155 361.245, 244.846 366.504, 248 372.500 C 249.650 375.637, 251 378.832, 251 379.602 C 251 381.004, 252.053 381.373, 255.174 381.065 C 256.095 380.974, 259.289 381.610, 262.272 382.477 C 267.891 384.110, 270.630 383.739, 272.718 381.062 C 274.652 378.583, 274.201 377, 271.562 377 C 267.905 377, 255.710 374.004, 254.172 372.728 C 253.259 371.970, 253.029 370.469, 253.456 368.056 C 255.007 359.300, 254.813 358.526, 250.996 358.204 C 249.068 358.042, 246.931 358.469, 246.246 359.154 M 150.528 370.250 C 147.320 373.043, 145.145 383.019, 146.619 388.183 C 147.492 391.245, 147.908 391.519, 152.032 391.745 C 154.738 391.894, 157.237 391.421, 158.368 390.548 C 160.100 389.212, 160.157 388.436, 159.154 379.948 C 157.708 367.720, 155.842 365.622, 150.528 370.250 M 247.200 386.200 C 245.573 387.827, 245.683 390, 247.393 390 C 248.703 390, 250 387.970, 250 385.918 C 250 384.636, 248.626 384.774, 247.200 386.200 M 236.655 397.829 C 234.681 400.010, 234.476 403, 236.300 403 C 238.303 403, 240 400.845, 240 398.300 C 240 395.526, 238.881 395.369, 236.655 397.829 M 165.596 401.845 C 164.581 403.487, 166.145 413.834, 167.697 415.747 C 168.950 417.291, 169.069 416.626, 168.688 410.178 C 168.272 403.122, 166.972 399.618, 165.596 401.845 M 227.245 409.250 C 225.619 411.282, 224.844 414.786, 225.879 415.425 C 226.996 416.116, 231 411.378, 231 409.365 C 231 407.656, 228.580 407.582, 227.245 409.250 M 136.667 411.667 C 136.300 412.033, 136 412.798, 136 413.367 C 136 413.993, 136.466 413.934, 137.183 413.217 C 137.834 412.566, 138.134 411.801, 137.850 411.517 C 137.566 411.233, 137.033 411.300, 136.667 411.667 M 218.369 421.250 C 217.281 422.488, 215.293 425.170, 213.953 427.211 C 212.612 429.252, 210.541 431.443, 209.351 432.080 C 206.186 433.773, 203.226 439.626, 204.759 441.159 C 206.484 442.884, 209.637 439.747, 210.431 435.516 C 210.877 433.141, 212.023 431.594, 214.359 430.216 C 217.003 428.656, 222 421.627, 222 419.469 C 222 418.302, 220.175 419.197, 218.369 421.250 M 126.750 442.572 C 126.338 442.991, 126.014 444.721, 126.030 446.417 C 126.056 449.027, 126.220 449.227, 127.096 447.721 C 128.239 445.757, 127.944 441.359, 126.750 442.572 M 192 448.504 C 190.075 449.243, 187.600 449.889, 186.500 449.939 C 182.261 450.133, 181.728 451.316, 182.485 458.854 L 183.198 465.949 185.860 464.573 C 187.324 463.815, 189.496 461.462, 190.688 459.342 C 191.879 457.222, 194.040 454.456, 195.491 453.195 C 198.034 450.983, 198.566 447.935, 196.500 447.413 C 195.950 447.274, 193.925 447.765, 192 448.504 M 110.630 458.560 C 107.577 459.679, 100.084 459.964, 75.130 459.912 C 57.734 459.876, 39.827 459.394, 35.338 458.841 C 29.481 458.120, 26.586 458.151, 25.088 458.953 C 20.196 461.571, 24.099 467.513, 33.732 472.111 C 37.377 473.850, 41.444 476.562, 42.769 478.137 C 45.076 480.879, 48.330 481.894, 49.378 480.197 C 49.651 479.756, 48.500 477.282, 46.820 474.700 C 43.897 470.206, 43.836 469.899, 45.397 467.516 C 49.163 461.769, 50.007 461.614, 78.378 461.467 C 92.745 461.392, 106.979 461.774, 110.009 462.316 C 114.564 463.130, 116.080 463.010, 118.759 461.625 C 120.542 460.703, 122 459.285, 122 458.474 C 122 456.562, 115.956 456.607, 110.630 458.560 M 227.182 460.595 C 227.618 462.735, 230.052 462.817, 244.500 461.175 C 251.477 460.382, 251.848 460.249, 247.401 460.133 C 244.596 460.060, 238.812 459.705, 234.548 459.345 C 227.276 458.730, 226.818 458.808, 227.182 460.595 M 267.500 459.636 C 254.672 461.260, 255.339 461.045, 257.542 462.847 C 263.553 467.766, 264.494 472.800, 260 476 C 258.350 477.175, 257 478.781, 257 479.568 C 257 481.672, 258.601 481.314, 260.677 478.746 C 261.680 477.506, 265.996 474.777, 270.269 472.682 C 278.428 468.681, 281.372 465.649, 280.827 461.808 C 280.538 459.769, 279.918 459.486, 275.500 459.378 C 272.750 459.311, 269.150 459.427, 267.500 459.636 M 168.819 482.081 C 166.967 483.118, 163 489.107, 163 490.868 C 163 492.588, 165.499 492.220, 167.203 490.250 C 168.647 488.581, 171.299 481.965, 170.746 481.413 C 170.602 481.268, 169.735 481.569, 168.819 482.081 M 56 488.477 C 56 490.362, 59.687 492.787, 63.802 493.610 C 69.188 494.688, 67.013 490.886, 60.703 488.193 C 57.029 486.626, 56 486.688, 56 488.477 M 242.861 489.914 C 241.562 490.967, 240.750 492.079, 241.056 492.387 C 242.118 493.454, 249 490.912, 249 489.453 C 249 487.399, 245.653 487.650, 242.861 489.914 M 156 497 C 153.886 499.114, 153.348 502.479, 154.964 503.477 C 156.489 504.420, 160 500.253, 160 497.500 C 160 494.481, 158.684 494.316, 156 497 M 71 499.101 C 71 501.263, 76.458 504.422, 78.704 503.560 C 81.137 502.626, 77.954 498.675, 74.140 497.895 C 71.521 497.359, 71 497.559, 71 499.101 M 229.009 499.290 C 226.062 500.781, 225.046 504, 227.522 504 C 229.497 504, 235 500.271, 235 498.932 C 235 497.618, 231.953 497.800, 229.009 499.290 M 146.748 508.282 C 144.683 509.909, 143.644 513.662, 145.022 514.514 C 145.629 514.889, 146.998 514.407, 148.063 513.443 C 151.353 510.466, 150.120 505.627, 146.748 508.282 M 85 509.492 C 85 510.313, 86.688 511.783, 88.750 512.760 L 92.500 514.536 92.500 522.518 C 92.500 529.847, 92.671 530.524, 94.586 530.798 C 96.171 531.025, 97.242 530.020, 99.051 526.611 C 101.942 521.161, 101.096 517.321, 96.489 514.982 C 94.845 514.147, 92.283 512.235, 90.795 510.732 C 87.840 507.746, 85 507.139, 85 509.492 M 214.445 510.061 C 212.919 511.747, 212.829 512.276, 213.949 512.969 C 216.066 514.277, 222 511.238, 222 508.845 C 222 507.129, 216.262 508.053, 214.445 510.061 M 321.643 509.038 C 315.446 509.508, 311.270 510.302, 310.396 511.176 C 309.258 512.314, 308.984 520.046, 308.886 553.790 C 308.760 597.097, 308.848 598, 313.173 598 C 316.586 598, 317.904 592.680, 317.283 581.414 C 316.367 564.784, 319.737 561, 335.469 561 C 343.884 561, 349 559.896, 349 558.081 C 349 557.485, 345.052 557.312, 338.750 557.630 C 330.100 558.067, 327.954 557.863, 325 556.324 C 319.848 553.639, 317.593 548.328, 317.164 537.867 C 316.247 515.512, 321.595 510.346, 343.158 512.753 C 351.362 513.669, 352.467 514.054, 355.701 517.129 C 357.652 518.983, 360.542 522.255, 362.124 524.400 C 364.637 527.808, 365 529.170, 365 535.200 C 365 542.803, 363.240 547.472, 359.984 548.505 C 357.703 549.229, 354.375 553.709, 355.376 554.709 C 355.977 555.310, 362.816 552.008, 365.823 549.665 C 366.551 549.098, 368.013 546.934, 369.073 544.857 C 372.209 538.710, 371.285 520, 367.846 520 C 367.319 520, 364.726 517.746, 362.084 514.990 C 357.474 510.182, 356.983 509.942, 349.890 509.021 C 341.612 507.946, 335.998 507.950, 321.643 509.038 M 413.363 510.090 L 410.226 510.999 410.363 551.846 C 410.510 595.738, 410.541 596, 415.622 596 C 418.865 596, 418.784 592.463, 415.393 585.977 C 412.506 580.456, 412.051 573.217, 414.031 564.339 C 415.502 557.745, 417.102 555.613, 422.564 552.969 L 427.231 550.710 422.216 548.326 C 415.872 545.311, 413.553 541.037, 413.630 532.500 C 413.718 522.785, 415.533 519.148, 422.689 514.351 C 428.108 510.719, 428.606 510.128, 426.689 509.614 C 423.597 508.785, 417.059 509.018, 413.363 510.090 M 451.551 509.918 C 450.813 511.111, 454.830 512.316, 457.938 511.833 C 459.116 511.650, 460.174 511.050, 460.290 510.500 C 460.571 509.161, 452.357 508.614, 451.551 509.918 M 511.750 511.080 C 509.863 512.179, 509.261 518, 511.034 518 C 512.646 518, 518.116 511.996, 517.464 510.942 C 516.710 509.721, 513.969 509.787, 511.750 511.080 M 205.655 518.829 C 203.701 520.988, 203.636 522.584, 205.112 532.231 C 207.610 548.571, 209.580 547.822, 209.667 530.500 C 209.738 516.404, 209.218 514.892, 205.655 518.829 M 136.653 520.490 C 135.834 521.309, 134.870 523.317, 134.511 524.952 C 134.092 526.859, 132.617 528.691, 130.398 530.063 C 127.154 532.068, 122.226 539.559, 123.387 540.720 C 124.565 541.898, 127.025 539.872, 128.914 536.168 C 130.017 534.007, 132.546 530.723, 134.536 528.870 C 139.901 523.873, 142.057 519, 138.905 519 C 138.486 519, 137.472 519.670, 136.653 520.490 M 83.374 539.551 C 81.399 542.566, 82.524 544.165, 85.750 542.928 C 87.264 542.347, 88 541.236, 88 539.532 C 88 536.217, 85.552 536.228, 83.374 539.551 M 114.526 548.950 C 112.572 552.729, 112.601 553, 114.965 553 C 116.997 553, 119 550.303, 119 547.566 C 119 544.937, 116.144 545.821, 114.526 548.950 M 74.655 548.829 C 71.213 552.632, 73.830 556.028, 77.429 552.429 C 79.351 550.506, 79.498 547, 77.655 547 C 76.915 547, 75.565 547.823, 74.655 548.829 M 436 549.940 C 432.317 551.096, 435.324 552.096, 443.152 552.319 C 448.208 552.463, 449.500 552.195, 449.500 551 C 449.500 549.869, 448.146 549.458, 444 549.328 C 440.975 549.233, 437.375 549.509, 436 549.940 M 511 558.441 C 511 564.362, 511.958 565.326, 514.392 561.851 C 515.711 559.968, 515.719 559.357, 514.456 556.914 C 511.959 552.086, 511 552.509, 511 558.441 M 215.636 556.780 C 214.649 558.377, 216.070 568.713, 217.556 570.745 C 219.591 573.529, 220.266 571.596, 219.515 565.129 C 218.798 558.949, 216.865 554.791, 215.636 556.780 M 105.073 559.635 C 102.462 562.953, 102.426 565, 104.977 565 C 107.332 565, 110.461 560.645, 109.641 558.508 C 108.798 556.311, 107.419 556.651, 105.073 559.635 M 64.667 558.667 C 63.400 559.933, 63.981 564, 65.429 564 C 67.270 564, 70 561.270, 70 559.429 C 70 557.981, 65.933 557.400, 64.667 558.667 M 148.635 560.073 C 147.022 561.341, 146 563.132, 146 564.689 C 146 566.967, 146.288 567.160, 148.750 566.535 C 150.262 566.151, 153.863 565.327, 156.750 564.703 C 162.417 563.480, 163.281 562.011, 159.777 559.557 C 156.681 557.387, 151.759 557.615, 148.635 560.073 M 166 568.464 C 166 570.363, 169.678 572.786, 173.820 573.614 C 176.465 574.143, 176.930 573.982, 176.441 572.706 C 176.113 571.853, 175.318 570.936, 174.673 570.668 C 174.028 570.401, 171.813 569.460, 169.750 568.577 C 166.478 567.178, 166 567.163, 166 568.464 M 95.571 570.571 C 94.707 571.436, 94 573.477, 94 575.107 C 94 577.749, 94.214 577.956, 95.977 577.012 C 99.538 575.106, 101.515 569, 98.571 569 C 97.786 569, 96.436 569.707, 95.571 570.571 M 135.528 576.581 C 134.594 578.551, 134.082 580.415, 134.390 580.724 C 135.334 581.668, 137.787 579.050, 138.870 575.942 C 140.403 571.545, 137.670 572.067, 135.528 576.581 M 182.247 580.250 C 182.960 582.406, 187.777 584.623, 189.029 583.371 C 189.828 582.572, 189.682 581.825, 188.493 580.636 C 186.550 578.693, 181.631 578.389, 182.247 580.250 M 86.755 581.750 C 85.899 582.712, 84.473 585.257, 83.586 587.404 C 80.921 593.855, 83.155 593.529, 88.066 586.750 C 89.680 584.523, 91 582.092, 91 581.350 C 91 579.447, 88.601 579.673, 86.755 581.750 M 125.581 588.562 C 123.506 590.637, 123.540 593.237, 125.637 592.823 C 127.502 592.455, 129.363 588.343, 128.037 587.523 C 127.555 587.225, 126.450 587.693, 125.581 588.562 M 196 590.433 C 196 591.909, 199.708 593.625, 200.718 592.615 C 201.552 591.782, 198.982 589, 197.378 589 C 196.620 589, 196 589.645, 196 590.433 M 224.474 594.399 C 222.005 598.167, 217.703 599.527, 212.851 598.073 C 210.626 597.407, 208.569 597.098, 208.279 597.388 C 207.013 598.653, 209.287 601.197, 213.229 602.925 C 215.578 603.955, 219.417 606.868, 221.759 609.399 C 225.967 613.943, 228.868 615.003, 231.880 613.095 C 233.410 612.126, 233.093 609.255, 230.653 602 C 229.820 599.525, 228.874 596.263, 228.551 594.750 C 227.826 591.366, 226.535 591.254, 224.474 594.399 M 74.557 598.223 C 72.601 601.015, 72.562 603, 74.465 603 C 76.071 603, 78 600.034, 78 597.566 C 78 595.324, 76.369 595.635, 74.557 598.223 M 114.947 601.639 C 114.395 603.090, 114.203 604.537, 114.520 604.853 C 115.551 605.885, 118.492 603.351, 118.820 601.148 C 119.287 598.005, 116.179 598.399, 114.947 601.639 M 64.989 609.021 C 63.770 611.298, 64.426 613, 66.524 613 C 67.933 613, 70 610.065, 70 608.066 C 70 606.187, 66.109 606.928, 64.989 609.021 M 107.304 609.791 C 106.647 610.209, 105.297 612.429, 104.304 614.723 C 103.292 617.064, 101.001 619.907, 99.086 621.198 C 95.100 623.886, 90.774 632.384, 93.678 631.821 C 94.590 631.645, 97.172 628.907, 99.418 625.739 C 101.663 622.570, 104.515 619.280, 105.756 618.428 C 110.886 614.904, 112.382 606.563, 107.304 609.791 M 84.305 639.487 C 83.390 641.406, 82.883 643.216, 83.178 643.511 C 84.354 644.688, 86.920 642.669, 87.930 639.771 C 89.279 635.903, 89.290 636, 87.484 636 C 86.650 636, 85.219 637.569, 84.305 639.487 M 76.072 649.414 C 74.837 650.901, 75.352 653, 76.952 653 C 78.231 653, 79.178 649.778, 78.190 648.790 C 77.690 648.290, 76.782 648.557, 76.072 649.414" stroke="none" fill="#ffffff" fill-rule="evenodd"/>
</svg>