<svg xmlns="http://www.w3.org/2000/svg" width="990" height="1000" viewBox="0 0 990 1000" version="1.1">
	<path d="M 57.357 469.930 C 52.242 472.141, 52 473.545, 52 501.068 C 52 524.620, 52.148 526.824, 53.829 528.345 C 54.835 529.255, 56.410 530, 57.329 530 C 59.899 530, 62.999 526.313, 63.006 523.250 C 63.009 521.737, 63.476 518.825, 64.045 516.777 C 64.975 513.428, 65.595 512.901, 70.221 511.527 C 73.049 510.687, 78.769 509.997, 82.932 509.994 C 94.263 509.986, 96.641 508.991, 103.382 501.437 C 108.214 496.020, 109.352 494.059, 109.760 490.439 C 110.221 486.345, 108.608 480, 107.106 480 C 106.748 480, 105.588 478.390, 104.528 476.423 C 101.235 470.307, 98.820 469.659, 78 469.313 C 67.825 469.143, 58.536 469.421, 57.357 469.930 M 233.835 471.263 C 231.036 472.605, 227.817 475.301, 225.790 478 C 223.835 480.603, 221.434 482.641, 220.093 482.834 C 216.393 483.368, 208.793 479.091, 205.457 474.598 C 202.711 470.899, 201.993 470.500, 198.079 470.500 C 194.827 470.500, 193.406 471.009, 192.392 472.536 C 191.220 474.301, 191.326 475.152, 193.184 478.907 C 194.363 481.290, 197.617 485.437, 200.414 488.122 C 205.472 492.977, 205.499 493.036, 205.329 498.919 C 205.127 505.932, 204.045 508.277, 199.896 510.698 C 198.196 511.689, 195.759 514.553, 194.481 517.063 C 193.202 519.572, 191.446 522.215, 190.578 522.935 C 186.580 526.253, 189.904 530, 196.845 530 C 200.058 530, 201.319 529.409, 203.411 526.923 C 204.835 525.231, 206 523.471, 206 523.011 C 206 521.630, 217.824 514, 219.963 514 C 221.118 514, 222.544 515.151, 223.371 516.750 C 224.153 518.263, 227.507 522.087, 230.823 525.250 C 237.436 531.557, 241.225 532.619, 244.439 529.067 C 246.845 526.409, 245.737 522.023, 241.695 518.200 C 234.553 511.446, 228.084 501.386, 228.022 496.937 C 228.010 496.077, 229.383 494.052, 231.072 492.437 C 232.762 490.822, 235.095 487.813, 236.256 485.750 C 237.418 483.688, 238.670 482, 239.038 482 C 240.638 482, 245 476.913, 245 475.048 C 245 472.781, 241.704 468.993, 239.750 469.013 C 239.063 469.020, 236.401 470.032, 233.835 471.263 M 328.856 470.482 C 324.596 472.852, 324 476.498, 324 500.181 C 324 523.633, 324.682 527.689, 329.017 530.009 C 330.360 530.728, 337.363 531.274, 347.179 531.425 C 365.235 531.703, 369.500 530.672, 369.500 526.030 C 369.500 522.091, 365.961 521.001, 353.500 521.103 C 341.151 521.204, 339.718 520.871, 338.203 517.546 C 336.850 514.577, 337.622 511.380, 340.689 507.250 C 342.850 504.339, 343.623 504, 348.096 504 C 352.102 504, 353.590 503.501, 355.612 501.479 C 360.802 496.289, 356.856 492.041, 346.823 492.015 C 341.889 492.002, 340.873 491.655, 339.073 489.365 C 336.387 485.951, 336.460 484.449, 339.455 481.455 C 341.776 479.133, 342.533 479, 353.407 479 C 365.428 479, 370 477.896, 370 474.994 C 370 474.068, 369.054 472.453, 367.898 471.405 C 366.028 469.710, 363.903 469.473, 348.648 469.256 C 335.073 469.062, 330.949 469.318, 328.856 470.482 M 555 470.067 C 551.396 471.584, 542.201 481.398, 541.295 484.695 C 540.271 488.424, 540.285 509.485, 541.315 514.356 C 541.908 517.162, 543.679 519.710, 547.815 523.707 C 550.942 526.729, 554.587 529.623, 555.916 530.139 C 559.640 531.584, 577.913 531.463, 582.827 529.961 C 589.848 527.814, 598 515.534, 598 507.105 C 598 503.391, 597.653 502.881, 593.452 500.419 C 589.922 498.350, 588.100 497.884, 585.309 498.337 C 578.393 499.460, 574.919 505.665, 578.532 510.441 C 580.472 513.006, 580.395 516.427, 578.360 518.116 C 576.122 519.973, 566.281 519.723, 562.398 517.710 C 554.268 513.495, 550.696 504.781, 552.959 494.684 C 555.170 484.819, 560.419 481, 571.769 481 C 579.027 481, 581.289 481.966, 583.292 485.919 C 585.168 489.621, 587.441 490.637, 590.359 489.076 C 593.591 487.346, 594.225 484.518, 592.720 478.542 C 590.696 470.502, 588.589 469.573, 571.693 469.270 C 563.401 469.121, 556.461 469.453, 555 470.067 M 633.988 471.858 L 631 474.846 631 499.788 C 631 523.507, 631.102 524.859, 633.073 527.365 C 635.651 530.643, 639.435 530.818, 641.382 527.750 C 642.167 526.513, 643.107 523.228, 643.471 520.452 C 643.835 517.676, 644.440 514.931, 644.816 514.352 C 646.275 512.107, 650.274 510.828, 653.855 511.462 C 660.216 512.587, 660.939 513.039, 663.583 517.551 C 666.702 522.874, 675.479 531, 678.108 531 C 680.508 531, 684 527.560, 684 525.197 C 684 524.205, 682.605 521.497, 680.900 519.179 C 676.910 513.753, 676.340 506.439, 679.625 502.833 C 683.168 498.943, 684.230 495.974, 684.359 489.595 C 684.515 481.932, 681.960 476.658, 676.079 472.500 L 671.836 469.500 654.405 469.185 L 636.975 468.871 633.988 471.858 M 725.007 470.593 C 717.639 473.788, 713.826 479.592, 711.926 490.506 C 710.703 497.528, 711.211 508.349, 713.092 515.341 C 714.244 519.620, 720.765 527.262, 725.448 529.821 C 729.503 532.037, 750.211 532.229, 754 530.086 C 763.225 524.870, 766.318 520.349, 768.426 509 C 769.828 501.456, 769.845 499.511, 768.571 491.705 C 766.647 479.903, 763.549 474.630, 756.655 471.420 C 752.138 469.316, 750.078 469.023, 740 469.049 C 731.988 469.069, 727.441 469.538, 725.007 470.593 M 889.888 470.456 C 885.283 473.036, 884.870 475.743, 885.197 501.231 C 885.474 522.754, 885.665 524.976, 887.405 526.897 C 889.599 529.319, 894.198 529.671, 895.957 527.552 C 896.618 526.756, 897.501 523.577, 897.920 520.489 C 899.131 511.568, 900.638 510.633, 914.812 510.008 L 926.596 509.489 932.771 504.118 C 936.167 501.164, 939.211 497.911, 939.535 496.889 C 939.860 495.867, 940.125 492.074, 940.125 488.460 C 940.125 479.795, 936.986 474.067, 930.778 471.406 C 924.921 468.895, 893.956 468.176, 889.888 470.456 M 144 472 C 142.104 473.896, 142 475.333, 142 499.566 C 142 515.079, 142.402 525.883, 143.023 527.043 C 144.591 529.973, 147.476 531.150, 150.384 530.044 C 154.467 528.492, 155.136 523.569, 154.801 497.556 C 154.526 476.242, 154.334 474.022, 152.595 472.103 C 150.194 469.452, 146.591 469.409, 144 472 M 277.557 472.223 C 276.246 474.093, 276 478.489, 276 500 C 276 521.511, 276.246 525.907, 277.557 527.777 C 279.562 530.640, 284.057 530.699, 286.595 527.897 C 288.345 525.965, 288.524 523.728, 288.798 500.400 L 289.096 475.005 286.594 472.503 C 283.478 469.387, 279.627 469.267, 277.557 472.223 M 798.872 472.657 C 796.908 475.027, 796.907 511.096, 798.871 515.750 C 799.626 517.538, 800.639 519, 801.123 519 C 801.607 519, 803.600 521.223, 805.552 523.939 C 809.971 530.090, 813.110 531.220, 825.858 531.247 C 835.981 531.268, 841.949 529.680, 844.672 526.239 C 847.487 522.682, 850.786 515.338, 851.876 510.201 C 853.265 503.654, 853.363 477.546, 852.008 475.014 C 850.805 472.768, 844.776 470.619, 842.077 471.475 C 838.881 472.490, 837.919 477.750, 838.114 493.139 C 838.274 505.742, 838.040 508.121, 836.242 512.185 C 833.789 517.732, 831.738 519, 825.221 519 C 819.740 519, 819.046 518.453, 814.447 510.500 C 811.577 505.537, 811.557 505.393, 811.858 491.253 L 812.160 477.007 809.157 474.003 C 805.754 470.600, 801.083 469.989, 798.872 472.657 M 401.872 473.657 C 399.931 476.001, 399.887 520.049, 401.822 524.631 C 404.198 530.259, 408.825 531.467, 428.078 531.484 C 443.122 531.498, 445 531.310, 446.895 529.595 C 449.484 527.252, 449.581 524.835, 447.171 522.655 C 445.695 521.319, 443.142 520.999, 433.921 520.996 C 414.914 520.990, 414.014 519.694, 414.006 492.307 C 414 475.676, 413.927 475.062, 411.777 473.557 C 408.863 471.515, 403.602 471.568, 401.872 473.657 M 70.096 480.507 C 65.190 482.037, 64.038 483.286, 64.015 487.101 C 63.964 495.865, 68.567 499.383, 80.160 499.438 C 89.281 499.481, 90.917 498.413, 93.369 490.820 C 94.877 486.150, 94.886 485.474, 93.461 483.300 C 92.600 481.986, 90.765 480.481, 89.383 479.955 C 85.799 478.593, 75.270 478.894, 70.096 480.507 M 645.873 482.127 C 644.037 483.963, 643.825 485.021, 644.326 489.877 C 645.139 497.770, 647.232 499.326, 656.351 498.810 C 662.605 498.457, 663.496 498.129, 666.096 495.218 C 673.831 486.562, 668.941 480.005, 654.750 480.002 C 649.198 480, 647.623 480.377, 645.873 482.127 M 733.833 481.132 C 728.862 482.525, 727.349 484.477, 725.428 491.976 C 722.789 502.274, 725.475 513.644, 731.475 517.575 C 735.364 520.123, 741.410 520.497, 746.611 518.511 C 750.544 517.009, 751.548 516.019, 753.593 511.628 C 756.504 505.375, 756.779 496.642, 754.305 488.982 C 752.918 484.688, 752.007 483.483, 749.285 482.346 C 744.678 480.421, 738.192 479.911, 733.833 481.132 M 901.223 481.557 C 899.366 482.857, 899 484.056, 899 488.834 C 899 495.935, 900.671 498.532, 905.764 499.346 C 910.903 500.168, 920.826 498.467, 923.147 496.367 C 925.573 494.171, 927.438 487.880, 926.623 484.635 C 925.806 481.379, 921.189 480.013, 910.973 480.006 C 905.771 480.002, 902.758 480.481, 901.223 481.557" stroke="none" fill="#ffffff" fill-rule="evenodd"/>
</svg>