<svg xmlns="http://www.w3.org/2000/svg" width="1000" height="235" viewBox="0 0 1000 235" version="1.1">
	<path d="M 161.459 10.067 C 160.433 11.727, 161.354 11.957, 162.789 10.399 C 163.499 9.630, 163.638 9, 163.098 9 C 162.559 9, 161.821 9.480, 161.459 10.067 M 187.211 10.399 C 187.920 11.169, 188.658 11.649, 188.850 11.466 C 189.443 10.902, 187.940 9, 186.902 9 C 186.362 9, 186.501 9.630, 187.211 10.399 M 266.071 14.775 C 262.383 25.239, 254.265 34.829, 245.286 39.328 C 236.475 43.743, 232.403 44.136, 198.418 43.853 L 166.500 43.587 155.299 46.785 C 141.657 50.679, 135.246 53.450, 125.910 59.489 C 107.977 71.090, 95.116 88.901, 90.208 108.932 L 88.386 116.365 79.443 118.109 C 57.211 122.445, 38.398 133.141, 25.350 148.863 C 19.885 155.447, 10.726 172.709, 9.624 178.500 C 9.070 181.413, 9.086 181.428, 10.171 179 C 10.786 177.625, 12.505 173.800, 13.992 170.500 C 19.359 158.586, 30.535 149.622, 43.255 147.029 C 47.139 146.238, 59.172 145.952, 80.255 146.150 C 110.248 146.431, 111.841 146.351, 120 144.137 C 144.202 137.571, 161.037 127.110, 173.147 111.112 C 179.662 102.506, 184.911 91.725, 187.457 81.720 L 189.516 73.631 196.674 72.425 C 228.167 67.119, 254.799 46.453, 265.590 18.947 C 267.092 15.119, 268.110 11.777, 267.852 11.519 C 267.594 11.261, 266.793 12.726, 266.071 14.775 M 320.500 36.980 C 307.761 37.910, 301.455 39.372, 300.603 41.593 C 300.271 42.457, 300 71.387, 300 105.882 C 300 153.329, 300.292 168.892, 301.200 169.800 C 301.968 170.568, 305.887 171, 312.093 171 C 320.009 171, 321.897 170.710, 322.393 169.418 C 322.727 168.548, 323 155.700, 323 140.866 L 323 113.896 331.028 114.089 C 335.596 114.200, 339.366 114.761, 339.773 115.391 C 340.167 116.001, 345.916 128.650, 352.550 143.500 L 364.610 170.500 375.971 170.784 C 382.219 170.941, 387.726 170.674, 388.208 170.192 C 388.711 169.689, 383.519 157.876, 376.043 142.512 C 368.869 127.770, 363 115.407, 363 115.038 C 363 114.670, 364.727 113.398, 366.838 112.211 C 372.716 108.907, 379.447 101.093, 381.776 94.868 C 385.934 83.757, 385.566 68.713, 380.875 58 C 376.920 48.968, 367.366 41.633, 355.547 38.554 C 348.198 36.640, 333.929 35.999, 320.500 36.980 M 425.734 37.088 C 416.124 39.352, 408.501 46.174, 405.284 55.391 C 403.677 59.994, 403.500 64.856, 403.500 104.522 L 403.500 148.544 406.810 155.267 C 412.237 166.288, 420.280 170.677, 436.894 171.683 C 446.833 172.284, 468.059 170.688, 472.480 169.007 C 474.883 168.094, 475 167.678, 475 160.060 C 475 153.184, 474.730 151.926, 473.066 151.035 C 471.922 150.423, 463.158 150, 451.622 150 C 432.445 150, 432.064 149.959, 429.306 147.589 L 426.500 145.178 426.180 129.589 L 425.859 114 448.307 114 C 466.352 114, 470.984 113.725, 471.920 112.597 C 472.658 111.707, 472.977 108.141, 472.792 102.847 L 472.500 94.500 449.250 94.232 L 426 93.963 426 79.432 C 426 64.214, 426.899 60.203, 430.713 58.396 C 431.696 57.930, 441.950 57.313, 453.500 57.025 L 474.500 56.500 474.788 47.829 C 475.115 37.972, 475.833 38.763, 465 37.045 C 457.214 35.811, 431.034 35.840, 425.734 37.088 M 531.905 36.885 C 526.274 38.059, 521.765 41.208, 518.783 46.049 C 516.111 50.385, 514.676 56.041, 490.399 157.919 C 489.033 163.650, 488.146 168.938, 488.427 169.669 C 488.807 170.660, 491.620 171, 499.433 171 C 508.414 171, 510.062 170.747, 510.845 169.250 C 511.349 168.287, 517.056 143.200, 523.528 113.500 C 530 83.800, 535.900 58.844, 536.640 58.043 C 539.455 54.994, 539.161 53.887, 556.038 131 C 560.552 151.625, 564.695 169.063, 565.245 169.750 C 566.720 171.594, 586.596 171.495, 587.308 169.639 C 587.749 168.490, 567.503 81.412, 561.002 56.500 C 558.477 46.825, 555.152 41.730, 549.638 39.087 C 544.827 36.780, 537.043 35.814, 531.905 36.885 M 601.082 37.401 C 600.221 38.438, 599.995 53.060, 600.210 93.651 L 600.500 148.500 602.889 153.788 C 605.760 160.140, 612.301 166.200, 618.805 168.534 C 625.052 170.776, 641.944 171.517, 654.830 170.115 C 668.989 168.575, 669 168.566, 669 159.587 C 669 154.925, 668.543 151.865, 667.747 151.205 C 667.015 150.597, 658.815 150.027, 647.997 149.833 C 628.270 149.478, 626.234 149.003, 624.071 144.257 C 623.354 142.683, 623 124.925, 623 90.524 C 623 45.147, 622.816 38.959, 621.429 37.571 C 619.298 35.441, 602.824 35.303, 601.082 37.401 M 842.727 37.953 C 831.645 41.495, 826.119 48.124, 823.401 61.141 C 822.129 67.230, 821.927 75.229, 822.230 107.500 C 822.656 152.865, 822.803 153.742, 831.479 162.664 C 838.765 170.157, 843.880 171.517, 864.500 171.442 C 873.300 171.410, 883.526 170.799, 887.225 170.084 C 893.760 168.820, 893.968 168.685, 894.597 165.335 C 895.521 160.408, 894.518 151.942, 892.887 150.909 C 892.124 150.426, 882.583 150.024, 871.684 150.015 C 859.432 150.006, 851.098 149.588, 849.850 148.920 C 846.115 146.921, 845 142.004, 845 127.532 L 845 114 867.965 114 C 894.427 114, 893 114.570, 893 104 C 893 93.427, 894.440 94, 867.875 94 L 844.821 94 845.160 78.521 C 845.498 63.138, 845.517 63.025, 848.270 60.271 L 851.041 57.500 871.770 57.211 C 895.715 56.877, 895 57.176, 895 47.500 C 895 44.135, 894.438 40.648, 893.750 39.751 C 890.737 35.820, 853.506 34.508, 842.727 37.953 M 936.251 37.474 C 924.366 40.835, 916.330 47.783, 913.567 57.087 C 911.302 64.713, 911.526 76.658, 914.061 83.433 C 917.223 91.886, 922.811 97.096, 943.497 110.881 C 964.390 124.803, 966.428 126.961, 966.306 135.034 C 966.220 140.732, 964.447 144.622, 960.665 147.410 C 958 149.375, 956.562 149.500, 936.665 149.500 L 915.500 149.500 915.500 158.496 L 915.500 167.491 919.500 168.815 C 921.700 169.542, 928.780 170.640, 935.232 171.253 C 962.034 173.802, 979.265 167.046, 986.887 151 C 989.234 146.060, 989.500 144.329, 989.500 134 C 989.500 123.441, 989.272 122.036, 986.712 116.822 C 982.818 108.893, 975.015 102.137, 957.463 91.500 C 949.296 86.550, 940.901 80.882, 938.807 78.905 C 935.293 75.587, 935 74.885, 935 69.801 C 935 65.379, 935.471 63.783, 937.389 61.715 C 941.284 57.512, 946.605 56.656, 963.500 57.517 C 971.750 57.937, 980.300 58.330, 982.500 58.390 L 986.500 58.500 986.500 49.023 L 986.500 39.547 981 38.234 C 972.339 36.166, 942.658 35.662, 936.251 37.474 M 685.200 38.200 C 683.795 39.605, 683.452 166.588, 684.847 168.787 C 685.448 169.733, 688.420 169.998, 696.082 169.787 L 706.500 169.500 706.757 104.611 C 706.944 57.512, 706.705 39.349, 705.885 38.361 C 704.404 36.576, 686.960 36.440, 685.200 38.200 M 724.035 38.934 C 722.586 41.642, 722.712 55.312, 724.200 56.800 C 725.025 57.625, 730.022 58, 740.200 58 L 755 58 755.015 112.750 C 755.024 142.863, 755.398 168.079, 755.847 168.787 C 756.448 169.733, 759.420 169.998, 767.082 169.787 L 777.500 169.500 777.758 113.775 L 778.017 58.051 793.758 57.775 L 809.500 57.500 809.790 48.651 C 809.976 42.987, 809.662 39.298, 808.918 38.401 C 807.955 37.241, 800.645 37, 766.413 37 C 726.562 37, 725.033 37.070, 724.035 38.934 M 323 75.915 L 323 93.829 330.343 94.517 C 339.031 95.332, 349.846 93.858, 354.307 91.253 C 359.122 88.441, 362 83.518, 362 78.096 C 362 63.165, 354.757 58, 333.818 58 L 323 58 323 75.915 M 123 75.013 C 113.883 77.298, 103.364 85.203, 97.828 93.931 C 95.317 97.891, 90 112.254, 90 115.080 C 90 115.701, 101.913 115.955, 122.750 115.778 L 155.500 115.500 161.500 112.529 C 174.841 105.922, 183.358 94.207, 187.330 77 L 187.907 74.500 157.204 74.318 C 140.317 74.218, 124.925 74.530, 123 75.013 M 116.413 96.500 C 116.414 106.400, 116.564 110.315, 116.746 105.199 C 116.928 100.084, 116.927 91.984, 116.744 87.199 C 116.561 82.415, 116.412 86.600, 116.413 96.500 M 116.409 162.500 C 116.408 171.850, 116.558 175.810, 116.743 171.299 C 116.928 166.789, 116.929 159.139, 116.745 154.299 C 116.562 149.460, 116.410 153.150, 116.409 162.500 M 89.880 180.283 C 90.312 180.714, 96.029 180.937, 102.583 180.779 L 114.500 180.491 101.796 179.995 C 94.809 179.723, 89.447 179.852, 89.880 180.283 M 10.269 196.693 C 11.242 196.947, 12.592 196.930, 13.269 196.656 C 13.946 196.382, 13.150 196.175, 11.500 196.195 C 9.850 196.215, 9.296 196.439, 10.269 196.693 M 44.269 196.693 C 45.242 196.947, 46.592 196.930, 47.269 196.656 C 47.946 196.382, 47.150 196.175, 45.500 196.195 C 43.850 196.215, 43.296 196.439, 44.269 196.693 M 62.269 196.693 C 63.242 196.947, 64.592 196.930, 65.269 196.656 C 65.946 196.382, 65.150 196.175, 63.500 196.195 C 61.850 196.215, 61.296 196.439, 62.269 196.693 M 82 196.383 C 82 196.594, 83.111 196.979, 84.470 197.239 C 85.828 197.499, 86.702 197.326, 86.411 196.856 C 85.899 196.027, 82 195.610, 82 196.383 M 102.269 196.693 C 103.242 196.947, 104.592 196.930, 105.269 196.656 C 105.946 196.382, 105.150 196.175, 103.500 196.195 C 101.850 196.215, 101.296 196.439, 102.269 196.693 M 125.292 196.742 C 129.027 196.935, 134.877 196.934, 138.292 196.739 C 141.706 196.545, 138.650 196.387, 131.500 196.389 C 124.350 196.390, 121.556 196.550, 125.292 196.742 M 162.250 196.739 C 165.412 196.937, 170.588 196.937, 173.750 196.739 C 176.912 196.541, 174.325 196.378, 168 196.378 C 161.675 196.378, 159.088 196.541, 162.250 196.739 M 193.221 211.250 L 193.442 226.500 193.747 211.816 C 194.044 197.548, 194.116 197.120, 196.276 196.702 C 198.151 196.340, 198.068 196.251, 195.750 196.136 L 193 196 193.221 211.250 M 228.720 196.702 C 230.846 197.113, 230.953 197.642, 231.254 209.316 L 231.568 221.500 231.784 208.750 L 232 196 229.250 196.136 C 226.938 196.251, 226.853 196.341, 228.720 196.702 M 263.224 196.684 C 264.738 197.082, 264.984 198.917, 265.253 211.818 L 265.558 226.500 265.779 211.250 C 266 196.006, 265.999 196, 263.750 196.116 C 262.099 196.201, 261.959 196.352, 263.224 196.684 M 322.221 211.250 L 322.442 226.500 322.748 211.750 L 323.053 197 332.957 197 C 342.433 197, 342.880 197.097, 343.294 199.250 C 343.666 201.179, 343.747 201.108, 343.864 198.750 L 344 196 333 196 L 322 196 322.221 211.250 M 360.269 196.693 C 361.242 196.947, 362.592 196.930, 363.269 196.656 C 363.946 196.382, 363.150 196.175, 361.500 196.195 C 359.850 196.215, 359.296 196.439, 360.269 196.693 M 379.206 205.250 L 379.411 214.500 379.744 205.815 C 380.051 197.774, 380.240 197.097, 382.288 196.701 C 384.138 196.342, 384.050 196.250, 381.750 196.136 L 379 196 379.206 205.250 M 443.250 196.739 C 446.413 196.937, 451.587 196.937, 454.750 196.739 C 457.913 196.541, 455.325 196.378, 449 196.378 C 442.675 196.378, 440.087 196.541, 443.250 196.739 M 494.250 196.728 C 496.313 196.944, 499.688 196.944, 501.750 196.728 C 503.813 196.513, 502.125 196.336, 498 196.336 C 493.875 196.336, 492.188 196.513, 494.250 196.728 M 536.250 196.739 C 539.413 196.937, 544.587 196.937, 547.750 196.739 C 550.913 196.541, 548.325 196.378, 542 196.378 C 535.675 196.378, 533.087 196.541, 536.250 196.739 M 626.750 196.740 C 630.188 196.936, 635.813 196.936, 639.250 196.740 C 642.688 196.545, 639.875 196.385, 633 196.385 C 626.125 196.385, 623.313 196.545, 626.750 196.740 M 664.287 196.740 C 667.469 196.939, 672.419 196.937, 675.287 196.736 C 678.154 196.535, 675.550 196.372, 669.500 196.374 C 663.450 196.376, 661.104 196.541, 664.287 196.740 M 698.750 196.732 C 701.087 196.943, 704.913 196.943, 707.250 196.732 C 709.587 196.522, 707.675 196.349, 703 196.349 C 698.325 196.349, 696.413 196.522, 698.750 196.732 M 736.750 196.732 C 739.087 196.943, 742.913 196.943, 745.250 196.732 C 747.587 196.522, 745.675 196.349, 741 196.349 C 736.325 196.349, 734.413 196.522, 736.750 196.732 M 772.724 196.702 C 774.884 197.120, 774.956 197.548, 775.253 211.816 L 775.558 226.500 775.779 211.250 L 776 196 773.250 196.136 C 770.932 196.251, 770.849 196.340, 772.724 196.702 M 802.183 196.746 C 812.225 197.018, 813.929 197.304, 814.317 198.781 C 814.646 200.037, 814.799 199.894, 814.884 198.250 C 814.999 196.022, 814.881 196.002, 802.750 196.215 L 790.500 196.430 802.183 196.746 M 834.441 197.555 C 832.531 199.085, 832.532 199.096, 834.500 198.190 C 835.600 197.684, 837.175 197.020, 838 196.714 C 839.296 196.234, 839.288 196.147, 837.941 196.079 C 837.084 196.036, 835.509 196.700, 834.441 197.555 M 872.724 196.702 C 874.884 197.120, 874.956 197.548, 875.253 211.816 L 875.558 226.500 875.779 211.250 L 876 196 873.250 196.136 C 870.932 196.251, 870.849 196.340, 872.724 196.702 M 895.280 196.736 C 897.909 196.943, 901.959 196.940, 904.280 196.731 C 906.601 196.521, 904.450 196.352, 899.500 196.355 C 894.550 196.358, 892.651 196.530, 895.280 196.736 M 934.250 196.739 C 937.413 196.937, 942.587 196.937, 945.750 196.739 C 948.913 196.541, 946.325 196.378, 940 196.378 C 933.675 196.378, 931.087 196.541, 934.250 196.739 M 303 197.378 C 303 197.585, 303.788 198.373, 304.750 199.128 C 306.336 200.371, 306.371 200.336, 305.128 198.750 C 303.821 197.084, 303 196.555, 303 197.378 M 751.083 197.261 C 751.313 197.404, 752.625 198.417, 754 199.511 L 756.500 201.500 754.595 199.250 C 753.547 198.012, 752.235 197, 751.678 197 C 751.122 197, 750.854 197.117, 751.083 197.261 M 848 197.393 C 848 197.609, 848.698 198.054, 849.552 198.382 C 850.442 198.723, 850.843 198.555, 850.493 197.989 C 849.906 197.038, 848 196.583, 848 197.393 M 909 197.393 C 909 197.609, 909.698 198.054, 910.552 198.382 C 911.442 198.723, 911.843 198.555, 911.493 197.989 C 910.906 197.038, 909 196.583, 909 197.393 M 967.872 198.750 C 966.629 200.336, 966.664 200.371, 968.250 199.128 C 969.916 197.821, 970.445 197, 969.622 197 C 969.415 197, 968.627 197.787, 967.872 198.750 M 986.100 198.705 C 986.829 199.917, 987.640 200.694, 987.903 200.431 C 988.166 200.168, 987.570 199.176, 986.579 198.226 C 984.857 196.577, 984.835 196.598, 986.100 198.705 M 13.378 209 C 13.378 215.325, 13.541 217.912, 13.739 214.750 C 13.937 211.588, 13.937 206.412, 13.739 203.250 C 13.541 200.088, 13.378 202.675, 13.378 209 M 65.397 212 C 65.397 219.975, 65.553 223.238, 65.743 219.250 C 65.932 215.262, 65.932 208.738, 65.743 204.750 C 65.553 200.762, 65.397 204.025, 65.397 212 M 227.219 211.750 L 227 226 231.250 225.832 L 235.500 225.664 231.778 225.273 L 228.056 224.883 227.747 211.191 L 227.439 197.500 227.219 211.750 M 364 198.378 C 364 198.585, 364.788 199.373, 365.750 200.128 C 367.336 201.371, 367.371 201.336, 366.128 199.750 C 364.821 198.084, 364 197.555, 364 198.378 M 491.219 211.750 L 491 226 497.750 225.807 L 504.500 225.615 498.278 225.260 L 492.056 224.906 491.747 211.203 L 491.439 197.500 491.219 211.750 M 577.813 198.683 C 578.534 198.972, 579.397 198.936, 579.729 198.604 C 580.061 198.272, 579.471 198.036, 578.417 198.079 C 577.252 198.127, 577.015 198.364, 577.813 198.683 M 715 198.378 C 715 198.585, 715.788 199.373, 716.750 200.128 C 718.336 201.371, 718.371 201.336, 717.128 199.750 C 715.821 198.084, 715 197.555, 715 198.378 M 733.218 211.750 C 733.019 224.743, 733.154 225.999, 734.750 225.985 C 735.963 225.974, 736.125 225.731, 735.280 225.195 C 734.447 224.665, 733.962 220.158, 733.749 210.960 L 733.437 197.500 733.218 211.750 M 771.392 211 C 771.392 218.425, 771.549 221.463, 771.742 217.750 C 771.934 214.037, 771.934 207.963, 771.742 204.250 C 771.549 200.537, 771.392 203.575, 771.392 211 M 871.397 212 C 871.397 219.975, 871.553 223.238, 871.743 219.250 C 871.932 215.262, 871.932 208.738, 871.743 204.750 C 871.553 200.762, 871.397 204.025, 871.397 212 M 976.269 198.693 C 977.242 198.947, 978.592 198.930, 979.269 198.656 C 979.946 198.382, 979.150 198.175, 977.500 198.195 C 975.850 198.215, 975.296 198.439, 976.269 198.693 M 412.269 199.693 C 413.242 199.947, 414.592 199.930, 415.269 199.656 C 415.946 199.382, 415.150 199.175, 413.500 199.195 C 411.850 199.215, 411.296 199.439, 412.269 199.693 M 582 199.393 C 582 199.609, 582.698 200.054, 583.552 200.382 C 584.442 200.723, 584.843 200.555, 584.493 199.989 C 583.906 199.038, 582 198.583, 582 199.393 M 840.250 199.689 C 841.212 199.941, 842.788 199.941, 843.750 199.689 C 844.712 199.438, 843.925 199.232, 842 199.232 C 840.075 199.232, 839.288 199.438, 840.250 199.689 M 88 200.378 C 88 200.585, 88.787 201.373, 89.750 202.128 C 91.336 203.371, 91.371 203.336, 90.128 201.750 C 88.821 200.084, 88 199.555, 88 200.378 M 166.280 200.736 C 168.909 200.943, 172.959 200.940, 175.280 200.731 C 177.601 200.521, 175.450 200.352, 170.500 200.355 C 165.550 200.358, 163.651 200.530, 166.280 200.736 M 330.776 200.733 C 333.128 200.945, 336.728 200.942, 338.776 200.727 C 340.824 200.512, 338.900 200.339, 334.500 200.343 C 330.100 200.346, 328.424 200.522, 330.776 200.733 M 446.750 200.732 C 449.087 200.943, 452.913 200.943, 455.250 200.732 C 457.587 200.522, 455.675 200.349, 451 200.349 C 446.325 200.349, 444.413 200.522, 446.750 200.732 M 502.750 200.662 C 503.438 200.940, 504.563 200.940, 505.250 200.662 C 505.938 200.385, 505.375 200.158, 504 200.158 C 502.625 200.158, 502.063 200.385, 502.750 200.662 M 542.250 200.728 C 544.313 200.944, 547.688 200.944, 549.750 200.728 C 551.813 200.513, 550.125 200.336, 546 200.336 C 541.875 200.336, 540.188 200.513, 542.250 200.728 M 667.250 200.728 C 669.313 200.944, 672.688 200.944, 674.750 200.728 C 676.813 200.513, 675.125 200.336, 671 200.336 C 666.875 200.336, 665.188 200.513, 667.250 200.728 M 938.250 200.728 C 940.313 200.944, 943.688 200.944, 945.750 200.728 C 947.813 200.513, 946.125 200.336, 942 200.336 C 937.875 200.336, 936.188 200.513, 938.250 200.728 M 983.733 201.124 C 984.412 201.808, 985.219 202.115, 985.526 201.807 C 985.834 201.499, 985.279 200.940, 984.293 200.564 C 982.868 200.022, 982.753 200.136, 983.733 201.124 M 129.389 213.500 C 129.390 220.650, 129.550 223.444, 129.742 219.708 C 129.935 215.973, 129.934 210.123, 129.739 206.708 C 129.545 203.294, 129.387 206.350, 129.389 213.500 M 631.389 213.500 C 631.390 220.650, 631.550 223.444, 631.742 219.708 C 631.935 215.973, 631.934 210.123, 631.739 206.708 C 631.545 203.294, 631.387 206.350, 631.389 213.500 M 737.300 206 C 737.300 209.025, 737.487 210.262, 737.716 208.750 C 737.945 207.238, 737.945 204.762, 737.716 203.250 C 737.487 201.738, 737.300 202.975, 737.300 206 M 804 212.930 C 804 224.508, 803.933 224.874, 801.750 225.294 C 799.821 225.666, 799.892 225.747, 802.250 225.864 L 805 226 805 213.500 C 805 206.625, 804.775 201, 804.500 201 C 804.225 201, 804 206.369, 804 212.930 M 833.405 203.250 L 831.500 205.500 833.750 203.595 C 835.864 201.805, 836.455 201, 835.655 201 C 835.465 201, 834.453 202.012, 833.405 203.250 M 848 201.378 C 848 201.585, 848.788 202.373, 849.750 203.128 C 851.336 204.371, 851.371 204.336, 850.128 202.750 C 848.821 201.084, 848 200.555, 848 201.378 M 895.300 206 C 895.300 209.025, 895.487 210.262, 895.716 208.750 C 895.945 207.238, 895.945 204.762, 895.716 203.250 C 895.487 201.738, 895.300 202.975, 895.300 206 M 966.158 203 C 966.158 204.375, 966.385 204.938, 966.662 204.250 C 966.940 203.563, 966.940 202.438, 966.662 201.750 C 966.385 201.063, 966.158 201.625, 966.158 203 M 42 203.333 C 42 204.260, 42.777 204.993, 43.750 204.985 C 44.749 204.976, 45.071 204.649, 44.500 204.223 C 43.950 203.813, 43.163 203.069, 42.750 202.572 C 42.337 202.074, 42 202.417, 42 203.333 M 514.564 203.293 C 514.940 204.279, 515.499 204.834, 515.807 204.526 C 516.115 204.219, 515.808 203.412, 515.124 202.733 C 514.136 201.753, 514.022 201.868, 514.564 203.293 M 635.378 213 C 635.378 219.325, 635.541 221.912, 635.739 218.750 C 635.937 215.588, 635.937 210.412, 635.739 207.250 C 635.541 204.088, 635.378 206.675, 635.378 213 M 933.232 205 C 933.232 206.925, 933.438 207.713, 933.689 206.750 C 933.941 205.787, 933.941 204.213, 933.689 203.250 C 933.438 202.287, 933.232 203.075, 933.232 205 M 911.079 205.583 C 911.127 206.748, 911.364 206.985, 911.683 206.188 C 911.972 205.466, 911.936 204.603, 911.604 204.271 C 911.272 203.939, 911.036 204.529, 911.079 205.583 M 92 205.378 C 92 205.585, 92.787 206.373, 93.750 207.128 C 95.336 208.371, 95.371 208.336, 94.128 206.750 C 92.821 205.084, 92 204.555, 92 205.378 M 851.564 206.293 C 851.940 207.279, 852.499 207.834, 852.807 207.526 C 853.115 207.219, 852.808 206.412, 852.124 205.733 C 851.136 204.753, 851.022 204.868, 851.564 206.293 M 363.370 216 C 363.370 221.775, 363.535 224.137, 363.737 221.250 C 363.939 218.363, 363.939 213.637, 363.737 210.750 C 363.535 207.863, 363.370 210.225, 363.370 216 M 516.079 207.583 C 516.127 208.748, 516.364 208.985, 516.683 208.188 C 516.972 207.466, 516.936 206.603, 516.604 206.271 C 516.272 205.939, 516.036 206.529, 516.079 207.583 M 568 206.711 C 568 207.285, 568.788 208.373, 569.750 209.128 C 571.369 210.397, 571.390 210.350, 570.033 208.500 C 569.226 207.400, 568.439 206.313, 568.283 206.083 C 568.127 205.854, 568 206.137, 568 206.711 M 402.079 208.583 C 402.127 209.748, 402.364 209.985, 402.683 209.188 C 402.972 208.466, 402.936 207.603, 402.604 207.271 C 402.272 206.939, 402.036 207.529, 402.079 208.583 M 827.272 211 C 827.272 213.475, 827.467 214.488, 827.706 213.250 C 827.944 212.012, 827.944 209.988, 827.706 208.750 C 827.467 207.512, 827.272 208.525, 827.272 211 M 856.272 211 C 856.272 213.475, 856.467 214.488, 856.706 213.250 C 856.944 212.012, 856.944 209.988, 856.706 208.750 C 856.467 207.512, 856.272 208.525, 856.272 211 M 284.232 211 C 284.232 212.925, 284.438 213.713, 284.689 212.750 C 284.941 211.787, 284.941 210.213, 284.689 209.250 C 284.438 208.287, 284.232 209.075, 284.232 211 M 372 208.378 C 372 208.585, 372.788 209.373, 373.750 210.128 C 375.336 211.371, 375.371 211.336, 374.128 209.750 C 372.821 208.084, 372 207.555, 372 208.378 M 578.813 208.683 C 579.534 208.972, 580.397 208.936, 580.729 208.604 C 581.061 208.272, 580.471 208.036, 579.417 208.079 C 578.252 208.127, 578.015 208.364, 578.813 208.683 M 976.813 208.683 C 977.534 208.972, 978.397 208.936, 978.729 208.604 C 979.061 208.272, 978.471 208.036, 977.417 208.079 C 976.252 208.127, 976.015 208.364, 976.813 208.683 M 177 210.458 C 177 211.580, 175.217 211.994, 169.250 212.257 L 161.500 212.598 169.750 212.799 C 177.400 212.985, 178 212.855, 178 211 C 178 209.900, 177.775 209, 177.500 209 C 177.225 209, 177 209.656, 177 210.458 M 368 209.378 C 368 209.585, 368.788 210.373, 369.750 211.128 C 371.336 212.371, 371.371 212.336, 370.128 210.750 C 368.821 209.084, 368 208.555, 368 209.378 M 91 210.378 C 91 210.585, 91.787 211.373, 92.750 212.128 C 94.336 213.371, 94.371 213.336, 93.128 211.750 C 91.821 210.084, 91 209.555, 91 210.378 M 96 210.378 C 96 210.585, 96.787 211.373, 97.750 212.128 C 99.336 213.371, 99.371 213.336, 98.128 211.750 C 96.821 210.084, 96 209.555, 96 210.378 M 280.079 211.583 C 280.127 212.748, 280.364 212.985, 280.683 212.188 C 280.972 211.466, 280.936 210.603, 280.604 210.271 C 280.272 209.939, 280.036 210.529, 280.079 211.583 M 587 210.378 C 587 210.585, 587.788 211.373, 588.750 212.128 C 590.336 213.371, 590.371 213.336, 589.128 211.750 C 587.821 210.084, 587 209.555, 587 210.378 M 912.405 212.250 L 910.500 214.500 912.750 212.595 C 914.864 210.805, 915.455 210, 914.655 210 C 914.465 210, 913.453 211.012, 912.405 212.250 M 575.813 211.683 C 576.534 211.972, 577.397 211.936, 577.729 211.604 C 578.061 211.272, 577.471 211.036, 576.417 211.079 C 575.252 211.127, 575.015 211.364, 575.813 211.683 M 701.250 211.689 C 702.212 211.941, 703.788 211.941, 704.750 211.689 C 705.712 211.438, 704.925 211.232, 703 211.232 C 701.075 211.232, 700.288 211.438, 701.250 211.689 M 707.813 211.683 C 708.534 211.972, 709.397 211.936, 709.729 211.604 C 710.061 211.272, 709.471 211.036, 708.417 211.079 C 707.252 211.127, 707.015 211.364, 707.813 211.683 M 741.264 211.718 C 742.784 211.947, 745.034 211.941, 746.264 211.704 C 747.494 211.467, 746.250 211.279, 743.500 211.286 C 740.750 211.294, 739.744 211.488, 741.264 211.718 M 753.559 212.532 C 752.491 213.339, 752.099 214, 752.686 214 C 753.274 214, 754.315 213.325, 755 212.500 C 756.557 210.624, 756.067 210.634, 753.559 212.532 M 899.768 211.725 C 901.565 211.947, 904.265 211.943, 905.768 211.715 C 907.271 211.486, 905.800 211.304, 902.500 211.310 C 899.200 211.315, 897.971 211.502, 899.768 211.725 M 82.300 217 C 82.300 220.025, 82.487 221.262, 82.716 219.750 C 82.945 218.238, 82.945 215.762, 82.716 214.250 C 82.487 212.738, 82.300 213.975, 82.300 217 M 297.250 212.689 C 298.212 212.941, 299.788 212.941, 300.750 212.689 C 301.712 212.438, 300.925 212.232, 299 212.232 C 297.075 212.232, 296.288 212.438, 297.250 212.689 M 330.750 212.732 C 333.087 212.943, 336.913 212.943, 339.250 212.732 C 341.587 212.522, 339.675 212.349, 335 212.349 C 330.325 212.349, 328.413 212.522, 330.750 212.732 M 402.079 213.583 C 402.127 214.748, 402.364 214.985, 402.683 214.188 C 402.972 213.466, 402.936 212.603, 402.604 212.271 C 402.272 211.939, 402.036 212.529, 402.079 213.583 M 446.750 212.732 C 449.087 212.943, 452.913 212.943, 455.250 212.732 C 457.587 212.522, 455.675 212.349, 451 212.349 C 446.325 212.349, 444.413 212.522, 446.750 212.732 M 539.750 212.732 C 542.087 212.943, 545.913 212.943, 548.250 212.732 C 550.587 212.522, 548.675 212.349, 544 212.349 C 539.325 212.349, 537.413 212.522, 539.750 212.732 M 667.750 212.732 C 670.087 212.943, 673.913 212.943, 676.250 212.732 C 678.587 212.522, 676.675 212.349, 672 212.349 C 667.325 212.349, 665.413 212.522, 667.750 212.732 M 938.776 212.733 C 941.128 212.945, 944.728 212.942, 946.776 212.727 C 948.824 212.512, 946.900 212.339, 942.500 212.343 C 938.100 212.346, 936.424 212.522, 938.776 212.733 M 516.079 214.583 C 516.127 215.748, 516.364 215.985, 516.683 215.188 C 516.972 214.466, 516.936 213.603, 516.604 213.271 C 516.272 212.939, 516.036 213.529, 516.079 214.583 M 303.195 216.500 C 303.215 218.150, 303.439 218.704, 303.693 217.731 C 303.947 216.758, 303.930 215.408, 303.656 214.731 C 303.382 214.054, 303.175 214.850, 303.195 216.500 M 590.232 217 C 590.232 218.925, 590.438 219.713, 590.689 218.750 C 590.941 217.787, 590.941 216.213, 590.689 215.250 C 590.438 214.287, 590.232 215.075, 590.232 217 M 831 214.941 C 831 215.459, 831.445 216.157, 831.989 216.493 C 832.555 216.843, 832.723 216.442, 832.382 215.552 C 831.717 213.820, 831 213.503, 831 214.941 M 851.564 215.707 C 851.022 217.132, 851.136 217.247, 852.124 216.267 C 852.808 215.588, 853.115 214.781, 852.807 214.474 C 852.499 214.166, 851.940 214.721, 851.564 215.707 M 933.232 217 C 933.232 218.925, 933.438 219.713, 933.689 218.750 C 933.941 217.787, 933.941 216.213, 933.689 215.250 C 933.438 214.287, 933.232 215.075, 933.232 217 M 95 215.378 C 95 215.585, 95.787 216.373, 96.750 217.128 C 98.336 218.371, 98.371 218.336, 97.128 216.750 C 95.821 215.084, 95 214.555, 95 215.378 M 737.300 221 C 737.300 224.025, 737.487 225.262, 737.716 223.750 C 737.945 222.238, 737.945 219.762, 737.716 218.250 C 737.487 216.738, 737.300 217.975, 737.300 221 M 895.300 221 C 895.300 224.025, 895.487 225.262, 895.716 223.750 C 895.945 222.238, 895.945 219.762, 895.716 218.250 C 895.487 216.738, 895.300 217.975, 895.300 221 M 989.079 217.583 C 989.127 218.748, 989.364 218.985, 989.683 218.188 C 989.972 217.466, 989.936 216.603, 989.604 216.271 C 989.272 215.939, 989.036 216.529, 989.079 217.583 M 712 217.313 C 712 217.485, 713.462 218.948, 715.250 220.563 L 718.500 223.500 715.563 220.250 C 712.825 217.221, 712 216.540, 712 217.313 M 375 218.378 C 375 218.585, 375.788 219.373, 376.750 220.128 C 378.336 221.371, 378.371 221.336, 377.128 219.750 C 375.821 218.084, 375 217.555, 375 218.378 M 710 220.500 C 711.292 221.875, 712.574 223, 712.849 223 C 713.124 223, 712.292 221.875, 711 220.500 C 709.708 219.125, 708.426 218, 708.151 218 C 707.876 218, 708.708 219.125, 710 220.500 M 833 218.378 C 833 218.585, 833.788 219.373, 834.750 220.128 C 836.336 221.371, 836.371 221.336, 835.128 219.750 C 833.821 218.084, 833 217.555, 833 218.378 M 848.872 219.750 C 847.629 221.336, 847.664 221.371, 849.250 220.128 C 850.212 219.373, 851 218.585, 851 218.378 C 851 217.555, 850.179 218.084, 848.872 219.750 M 891.232 221 C 891.232 222.925, 891.438 223.713, 891.689 222.750 C 891.941 221.787, 891.941 220.213, 891.689 219.250 C 891.438 218.287, 891.232 219.075, 891.232 221 M 967.083 218.283 C 967.313 218.439, 968.400 219.226, 969.500 220.033 C 971.350 221.390, 971.397 221.369, 970.128 219.750 C 969.373 218.787, 968.285 218, 967.711 218 C 967.137 218, 966.854 218.127, 967.083 218.283 M 98 219.378 C 98 219.585, 98.787 220.373, 99.750 221.128 C 101.336 222.371, 101.371 222.336, 100.128 220.750 C 98.821 219.084, 98 218.555, 98 219.378 M 421 219.378 C 421 219.585, 421.788 220.373, 422.750 221.128 C 424.336 222.371, 424.371 222.336, 423.128 220.750 C 421.821 219.084, 421 218.555, 421 219.378 M 584.872 220.750 C 583.629 222.336, 583.664 222.371, 585.250 221.128 C 586.916 219.821, 587.445 219, 586.622 219 C 586.415 219, 585.627 219.787, 584.872 220.750 M 750.600 222.854 C 752.923 225.333, 754.384 226.079, 756.429 225.831 L 759.158 225.500 755.833 222.500 C 752.758 219.727, 752.690 219.708, 754.928 222.250 C 757.119 224.740, 757.172 225, 755.479 225 C 754.451 225, 752.235 223.773, 750.555 222.273 L 747.500 219.546 750.600 222.854 M 986.286 222.699 C 985.068 223.965, 984.436 225, 984.881 225 C 985.856 225, 989.494 221.112, 988.911 220.693 C 988.685 220.531, 987.504 221.434, 986.286 222.699 M 29.195 223.500 C 29.215 225.150, 29.439 225.704, 29.693 224.731 C 29.947 223.758, 29.930 222.408, 29.656 221.731 C 29.382 221.054, 29.175 221.850, 29.195 223.500 M 166.280 221.736 C 168.909 221.943, 172.959 221.940, 175.280 221.731 C 177.601 221.521, 175.450 221.352, 170.500 221.355 C 165.550 221.358, 163.651 221.530, 166.280 221.736 M 304.872 222.750 C 303.629 224.336, 303.664 224.371, 305.250 223.128 C 306.212 222.373, 307 221.585, 307 221.378 C 307 220.555, 306.179 221.084, 304.872 222.750 M 334.686 221.743 C 342.207 222.052, 342.906 222.258, 343.299 224.289 C 343.657 226.137, 343.750 226.048, 343.864 223.750 L 344 221 335.250 221.204 L 326.500 221.407 334.686 221.743 M 447.280 221.736 C 449.909 221.943, 453.959 221.940, 456.280 221.731 C 458.601 221.521, 456.450 221.352, 451.500 221.355 C 446.550 221.358, 444.651 221.530, 447.280 221.736 M 498.264 221.718 C 499.784 221.947, 502.034 221.941, 503.264 221.704 C 504.494 221.467, 503.250 221.279, 500.500 221.286 C 497.750 221.294, 496.744 221.488, 498.264 221.718 M 540.280 221.736 C 542.909 221.943, 546.959 221.940, 549.280 221.731 C 551.601 221.521, 549.450 221.352, 544.500 221.355 C 539.550 221.358, 537.651 221.530, 540.280 221.736 M 568.722 223.050 C 569.944 224.337, 571.138 225.189, 571.374 224.944 C 571.611 224.700, 570.611 223.648, 569.152 222.606 L 566.500 220.712 568.722 223.050 M 667.750 221.732 C 670.087 221.943, 673.913 221.943, 676.250 221.732 C 678.587 221.522, 676.675 221.349, 672 221.349 C 667.325 221.349, 665.413 221.522, 667.750 221.732 M 830 221.378 C 830 221.585, 830.788 222.373, 831.750 223.128 C 833.336 224.371, 833.371 224.336, 832.128 222.750 C 830.821 221.084, 830 220.555, 830 221.378 M 908.927 223.252 C 910.630 225.185, 912.184 225.942, 914.142 225.792 C 916.754 225.593, 916.828 225.467, 915.310 223.790 C 913.353 221.628, 912.242 221.382, 914 223.500 C 916.066 225.989, 912.063 225.381, 909.064 222.750 L 906.500 220.500 908.927 223.252 M 938.750 221.732 C 941.087 221.943, 944.913 221.943, 947.250 221.732 C 949.587 221.522, 947.675 221.349, 943 221.349 C 938.325 221.349, 936.413 221.522, 938.750 221.732 M 972.733 222.124 C 973.412 222.808, 974.219 223.115, 974.526 222.807 C 974.834 222.499, 974.279 221.940, 973.293 221.564 C 971.868 221.022, 971.753 221.136, 972.733 222.124 M 294.250 222.689 C 295.212 222.941, 296.788 222.941, 297.750 222.689 C 298.712 222.438, 297.925 222.232, 296 222.232 C 294.075 222.232, 293.288 222.438, 294.250 222.689 M 379.500 224 C 380.495 225.100, 381.535 226, 381.810 226 C 382.085 226, 381.495 225.100, 380.500 224 C 379.505 222.900, 378.465 222, 378.190 222 C 377.915 222, 378.505 222.900, 379.500 224 M 412.269 222.693 C 413.242 222.947, 414.592 222.930, 415.269 222.656 C 415.946 222.382, 415.150 222.175, 413.500 222.195 C 411.850 222.215, 411.296 222.439, 412.269 222.693 M 842.813 222.683 C 843.534 222.972, 844.397 222.936, 844.729 222.604 C 845.061 222.272, 844.471 222.036, 843.417 222.079 C 842.252 222.127, 842.015 222.364, 842.813 222.683 M 286.733 224.124 C 287.412 224.808, 288.219 225.115, 288.526 224.807 C 288.834 224.499, 288.279 223.940, 287.293 223.564 C 285.868 223.022, 285.753 223.136, 286.733 224.124 M 13.784 225.738 C 16.689 225.941, 21.189 225.939, 23.784 225.734 C 26.378 225.528, 24 225.363, 18.500 225.365 C 13 225.368, 10.878 225.536, 13.784 225.738 M 61.813 225.683 C 62.534 225.972, 63.397 225.936, 63.729 225.604 C 64.061 225.272, 63.471 225.036, 62.417 225.079 C 61.252 225.127, 61.015 225.364, 61.813 225.683 M 82.750 225.662 C 83.438 225.940, 84.563 225.940, 85.250 225.662 C 85.938 225.385, 85.375 225.158, 84 225.158 C 82.625 225.158, 82.063 225.385, 82.750 225.662 M 131.813 225.683 C 132.534 225.972, 133.397 225.936, 133.729 225.604 C 134.061 225.272, 133.471 225.036, 132.417 225.079 C 131.252 225.127, 131.015 225.364, 131.813 225.683 M 161.250 225.716 C 162.762 225.945, 165.238 225.945, 166.750 225.716 C 168.262 225.487, 167.025 225.300, 164 225.300 C 160.975 225.300, 159.738 225.487, 161.250 225.716 M 172.250 225.689 C 173.213 225.941, 174.787 225.941, 175.750 225.689 C 176.713 225.438, 175.925 225.232, 174 225.232 C 172.075 225.232, 171.287 225.438, 172.250 225.689 M 197.264 225.718 C 198.784 225.947, 201.034 225.941, 202.264 225.704 C 203.494 225.467, 202.250 225.279, 199.500 225.286 C 196.750 225.294, 195.744 225.488, 197.264 225.718 M 209.269 225.693 C 210.242 225.947, 211.592 225.930, 212.269 225.656 C 212.946 225.382, 212.150 225.175, 210.500 225.195 C 208.850 225.215, 208.296 225.439, 209.269 225.693 M 238.750 225.723 C 240.537 225.945, 243.463 225.945, 245.250 225.723 C 247.037 225.502, 245.575 225.320, 242 225.320 C 238.425 225.320, 236.963 225.502, 238.750 225.723 M 328.250 225.735 C 330.863 225.941, 335.137 225.941, 337.750 225.735 C 340.363 225.529, 338.225 225.360, 333 225.360 C 327.775 225.360, 325.637 225.529, 328.250 225.735 M 359.813 225.683 C 360.534 225.972, 361.397 225.936, 361.729 225.604 C 362.061 225.272, 361.471 225.036, 360.417 225.079 C 359.252 225.127, 359.015 225.364, 359.813 225.683 M 444.784 225.738 C 447.689 225.941, 452.189 225.939, 454.784 225.734 C 457.378 225.528, 455 225.363, 449.500 225.365 C 444 225.368, 441.878 225.536, 444.784 225.738 M 536.250 225.739 C 539.413 225.937, 544.587 225.937, 547.750 225.739 C 550.913 225.541, 548.325 225.378, 542 225.378 C 535.675 225.378, 533.087 225.541, 536.250 225.739 M 633.813 225.683 C 634.534 225.972, 635.397 225.936, 635.729 225.604 C 636.061 225.272, 635.471 225.036, 634.417 225.079 C 633.252 225.127, 633.015 225.364, 633.813 225.683 M 661.264 225.718 C 662.784 225.947, 665.034 225.941, 666.264 225.704 C 667.494 225.467, 666.250 225.279, 663.500 225.286 C 660.750 225.294, 659.744 225.488, 661.264 225.718 M 671.768 225.725 C 673.565 225.947, 676.265 225.943, 677.768 225.715 C 679.271 225.486, 677.800 225.304, 674.500 225.310 C 671.200 225.315, 669.971 225.502, 671.768 225.725 M 715.813 225.683 C 716.534 225.972, 717.397 225.936, 717.729 225.604 C 718.061 225.272, 717.471 225.036, 716.417 225.079 C 715.252 225.127, 715.015 225.364, 715.813 225.683 M 891.813 225.683 C 892.534 225.972, 893.397 225.936, 893.729 225.604 C 894.061 225.272, 893.471 225.036, 892.417 225.079 C 891.252 225.127, 891.015 225.364, 891.813 225.683 M 933.750 225.737 C 936.638 225.939, 941.362 225.939, 944.250 225.737 C 947.138 225.535, 944.775 225.370, 939 225.370 C 933.225 225.370, 930.862 225.535, 933.750 225.737" stroke="none" fill="#ffffff" fill-rule="evenodd"/>
</svg>