<svg xmlns="http://www.w3.org/2000/svg" width="1000" height="235" viewBox="0 0 1000 235" version="1.1">
	<path d="M 161.476 10.038 C 161.104 10.640, 161.070 11.403, 161.400 11.733 C 161.730 12.063, 162 11.808, 162 11.167 C 162 10.338, 165.762 10, 175 10 L 188 10 188 26.353 L 188 42.706 176.348 43.403 C 164.161 44.132, 149.215 47.719, 138.353 52.522 C 123.950 58.892, 110.101 70.526, 101.477 83.500 C 95.478 92.525, 92.482 99.314, 90.008 109.485 L 88.309 116.471 81.065 117.684 C 59.377 121.315, 38.556 132.949, 25.425 148.772 C 19.887 155.444, 10.734 172.666, 9.624 178.500 C 9.070 181.413, 9.086 181.428, 10.171 179 C 10.786 177.625, 12.545 173.700, 14.080 170.277 C 19.260 158.723, 30.456 149.691, 42.799 147.109 C 45.714 146.499, 57.076 146, 68.049 146 L 88 146 88 162.300 C 88 173.644, 88.365 178.965, 89.200 179.800 C 90.008 180.608, 94.578 181, 103.200 181 C 110.240 181, 116.086 180.887, 116.191 180.750 C 116.297 180.613, 116.634 172.427, 116.941 162.561 L 117.500 144.622 126.500 142.012 C 149.244 135.416, 167.263 121.837, 178.923 102.506 C 182.649 96.330, 187.350 83.923, 188.442 77.386 L 189.130 73.271 194.915 72.667 C 202.162 71.909, 215.630 67.706, 223.500 63.746 C 243.875 53.493, 258.665 37.260, 266.037 17.062 C 267.682 12.554, 268.572 9.146, 268.014 9.491 C 267.456 9.836, 267 10.667, 267 11.337 C 267 14.009, 260.030 26.766, 256.239 31.034 C 254.023 33.527, 249.868 36.842, 247.005 38.401 C 238.059 43.270, 233.422 43.975, 210.274 43.988 L 189.047 44 188.774 26.750 L 188.500 9.500 175.327 9.222 C 166.576 9.037, 161.926 9.311, 161.476 10.038 M 319.350 37.072 C 313.217 37.575, 306.467 38.554, 304.350 39.247 L 300.500 40.509 300.224 103.504 C 300.072 138.152, 300.193 167.512, 300.493 168.750 C 301.012 170.893, 301.504 171, 310.819 171 C 317.093 171, 321.030 170.570, 321.800 169.800 C 322.675 168.925, 323 161.171, 323 141.172 L 323 113.743 331.001 114.206 C 335.402 114.461, 339.234 114.901, 339.517 115.184 C 339.801 115.467, 345.540 128.029, 352.271 143.099 L 364.510 170.500 376.255 170.782 C 387.176 171.044, 388 170.932, 388 169.187 C 388 168.155, 382.375 155.794, 375.500 141.718 C 368.625 127.642, 363 115.690, 363 115.158 C 363 114.625, 364.950 113.047, 367.334 111.650 C 372.924 108.374, 378.587 102.070, 381.239 96.170 C 384.474 88.972, 384.925 71.404, 382.113 62.146 C 378.561 50.452, 369.183 42.106, 355.628 38.575 C 347.956 36.577, 332.957 35.955, 319.350 37.072 M 425.734 37.088 C 416.688 39.219, 409.741 44.939, 405.801 53.500 C 403.530 58.435, 403.496 59.056, 403.200 101.405 C 402.915 142.043, 403.006 144.659, 404.914 150.905 C 410.426 168.949, 425.607 174.481, 459.938 170.958 C 475.325 169.379, 475 169.615, 475 160.060 C 475 153.184, 474.730 151.926, 473.066 151.035 C 471.922 150.423, 463.158 150, 451.622 150 C 432.828 150, 432.016 149.917, 429.503 147.750 C 426.046 144.767, 425.053 139.889, 425.024 125.750 L 425 114 447.878 114 C 466.291 114, 470.982 113.726, 471.920 112.597 C 472.658 111.707, 472.977 108.141, 472.792 102.847 L 472.500 94.500 449 94 L 425.500 93.500 425.243 82 C 425.090 75.187, 425.498 68.462, 426.243 65.500 C 428.221 57.632, 430.241 57.003, 453.550 57.002 C 467.031 57, 472.951 56.649, 473.800 55.800 C 475.440 54.160, 475.399 40.575, 473.750 39.209 C 470.420 36.451, 435.068 34.889, 425.734 37.088 M 531.905 36.932 C 526.632 37.963, 521.897 41.068, 518.766 45.548 C 516.451 48.860, 513.718 59.089, 501.886 108.726 C 494.121 141.300, 488.031 168.637, 488.352 169.476 C 488.825 170.707, 490.949 171, 499.410 171 C 505.169 171, 510.142 170.580, 510.459 170.066 C 510.776 169.553, 516.464 144.466, 523.099 114.316 C 529.733 84.167, 535.688 58.954, 536.331 58.286 C 536.974 57.619, 538.021 57.394, 538.657 57.788 C 539.293 58.181, 545.044 82.352, 551.435 111.501 C 557.827 140.651, 563.534 165.977, 564.117 167.783 L 565.177 171.066 575.838 170.783 C 585.674 170.522, 586.522 170.343, 586.790 168.474 C 587.140 166.034, 560.664 54.700, 558.373 48.973 C 556.166 43.458, 549.962 38.372, 543.840 37.059 C 538.438 35.901, 537.250 35.888, 531.905 36.932 M 600.571 37.571 C 599.187 38.956, 599 44.827, 599 86.999 C 599 115.745, 599.430 137.950, 600.078 142.604 C 603.442 166.795, 618.371 174.165, 655.500 169.966 C 669.050 168.433, 668.122 169.248, 667.788 159.171 L 667.500 150.500 648.500 150 C 628.619 149.477, 626.192 148.959, 623.773 144.727 C 622.798 143.022, 622.431 130.332, 622.207 90.551 C 622.008 55.242, 621.569 38.185, 620.835 37.301 C 619.171 35.297, 602.625 35.518, 600.571 37.571 M 844.718 37.092 C 836.700 38.980, 829.425 44.397, 826.007 51.025 C 822.312 58.189, 821.855 64.942, 822.183 107.500 L 822.500 148.500 825.631 155.109 C 830.830 166.080, 839.216 170.673, 855.894 171.683 C 865.833 172.284, 887.059 170.688, 891.480 169.007 C 893.877 168.096, 894 167.667, 894 160.225 C 894 155.472, 893.529 151.929, 892.800 151.200 C 891.945 150.345, 885.738 150, 871.223 150 L 850.846 150 847.923 147.077 L 845 144.154 845 129.077 L 845 114 867.378 114 C 885.362 114, 889.984 113.725, 890.920 112.597 C 891.658 111.707, 891.977 108.141, 891.792 102.847 L 891.500 94.500 868.144 94 L 844.788 93.500 844.943 79.107 C 845.103 64.123, 846.019 60.146, 849.713 58.396 C 850.696 57.930, 860.950 57.313, 872.500 57.025 L 893.500 56.500 893.788 48.404 C 893.990 42.713, 893.693 39.996, 892.788 39.258 C 889.296 36.412, 854.303 34.835, 844.718 37.092 M 934.733 37.809 C 922.440 41.144, 915.392 48.146, 912.397 60 C 909.134 72.909, 912.348 86.050, 920.910 94.815 C 923.228 97.189, 932.409 103.872, 941.312 109.667 C 963.544 124.138, 966 126.679, 966 135.216 C 966 140.772, 963.246 145.844, 958.923 148.250 C 955.814 149.979, 953.665 150.124, 935.500 149.827 L 915.500 149.500 915.213 158.097 C 915.010 164.205, 915.299 166.987, 916.213 167.704 C 918.125 169.203, 928.186 170.895, 939.551 171.627 C 969.936 173.585, 987.665 161.344, 989.702 137.001 C 990.779 124.136, 985.049 110.953, 975.060 103.314 C 972.552 101.396, 963.975 95.841, 956 90.971 C 948.025 86.100, 939.925 80.489, 938 78.502 C 934.857 75.258, 934.500 74.324, 934.500 69.358 C 934.500 64.563, 934.866 63.512, 937.252 61.460 C 942.587 56.871, 950.874 56.077, 972.995 58.034 C 983.416 58.957, 984.606 58.891, 985.745 57.335 C 987.381 55.097, 987.385 42.901, 985.750 40.698 C 983.873 38.170, 976.286 37.013, 958 36.466 C 944.048 36.049, 940.455 36.256, 934.733 37.809 M 685.115 38.361 C 684.295 39.349, 684.056 57.512, 684.243 104.611 L 684.500 169.500 694.918 169.787 C 702.580 169.998, 705.552 169.733, 706.153 168.787 C 707.548 166.588, 707.205 39.605, 705.800 38.200 C 704.040 36.440, 686.596 36.576, 685.115 38.361 M 724.082 38.401 C 723.338 39.298, 723.024 42.987, 723.210 48.651 L 723.500 57.500 739.242 57.775 L 754.983 58.051 755.242 113.775 L 755.500 169.500 765.918 169.787 C 773.580 169.998, 776.552 169.733, 777.153 168.787 C 777.602 168.079, 777.976 142.863, 777.985 112.750 L 778 58 792.800 58 C 802.978 58, 807.975 57.625, 808.800 56.800 C 809.536 56.064, 810 52.467, 810 47.500 C 810 42.533, 809.536 38.936, 808.800 38.200 C 806.900 36.300, 725.666 36.493, 724.082 38.401 M 323 75.915 L 323 93.829 330.343 94.517 C 343.767 95.775, 354.788 92.858, 359.255 86.864 C 363.687 80.919, 362.258 68.866, 356.475 63.412 C 352.145 59.328, 346.522 58, 333.557 58 L 323 58 323 75.915 M 122 75.283 L 117.500 76.500 117.229 96.250 L 116.958 116 134.229 115.994 C 151.957 115.989, 158.562 115.051, 160.750 112.229 C 161.438 111.343, 162 110.958, 162 111.373 C 162 113.096, 170.579 107.140, 174.715 102.545 C 179.610 97.106, 182.899 91.171, 185.268 83.500 C 188.385 73.405, 191.822 74.529, 157.086 74.283 C 135.572 74.131, 125.165 74.428, 122 75.283 M 112.500 79.652 C 107.885 82.071, 100.200 89.948, 97.039 95.500 C 94.557 99.859, 90 112.551, 90 115.105 C 90 115.597, 95.850 116, 103 116 L 116 116 116 97 C 116 86.550, 115.888 78.018, 115.750 78.040 C 115.612 78.062, 114.150 78.788, 112.500 79.652 M 110 146.151 C 106.975 146.509, 101.001 146.847, 96.725 146.901 L 88.950 147 89.225 163.250 L 89.500 179.500 102.270 179.780 C 112.119 179.996, 115.155 179.758, 115.546 178.742 C 115.824 178.017, 115.927 170.240, 115.776 161.462 L 115.500 145.500 110 146.151 M 290.500 195.954 C 289.091 196.602, 289.839 196.714, 293.029 196.331 C 298.332 195.696, 306.094 198.306, 304.284 200.116 C 303.525 200.875, 302.623 200.869, 301.173 200.093 C 298.860 198.855, 291.359 198.610, 290.654 199.750 C 290.400 200.162, 292.125 200.346, 294.489 200.158 C 296.853 199.970, 299.787 200.351, 301.010 201.005 C 302.806 201.967, 303.521 201.907, 304.732 200.696 C 306.064 199.365, 305.938 199.005, 303.601 197.474 C 300.530 195.462, 293.375 194.632, 290.500 195.954 M 572.357 195.992 C 569.441 197.168, 566.978 200.909, 567.102 203.973 C 567.189 206.103, 567.329 205.972, 567.999 203.139 C 569.147 198.279, 571.085 196.849, 577.658 196.009 C 583.211 195.299, 583.277 195.259, 579 195.195 C 576.525 195.157, 573.536 195.516, 572.357 195.992 M 841.500 195.932 C 842.600 196.442, 844.452 196.891, 845.615 196.930 C 848.545 197.027, 852.971 200.723, 854.579 204.415 C 855.353 206.194, 855.938 206.774, 855.961 205.785 C 856.008 203.716, 850.552 197.285, 848.188 196.622 C 847.260 196.362, 844.925 195.892, 843 195.577 C 840.394 195.151, 840.011 195.242, 841.500 195.932 M 974.750 195.706 C 975.987 195.944, 978.013 195.944, 979.250 195.706 C 980.487 195.467, 979.475 195.272, 977 195.272 C 974.525 195.272, 973.513 195.467, 974.750 195.706 M 9 211 L 9 226 19.500 226 L 30 226 30 223.500 C 30 221.031, 29.903 221.002, 22.250 221.199 L 14.500 221.397 21.750 221.743 C 27.273 222.005, 29 222.435, 29 223.544 C 29 224.717, 27.151 225, 19.500 225 L 10 225 10 211.070 C 10 197.418, 10.045 197.130, 12.250 196.706 C 14.179 196.334, 14.108 196.253, 11.750 196.136 L 9 196 9 211 M 43.116 198.250 C 43.198 199.844, 43.362 200.008, 43.677 198.811 C 43.922 197.883, 45.108 196.932, 46.311 196.698 C 48.113 196.348, 48.014 196.248, 45.750 196.136 C 43.494 196.024, 43.021 196.404, 43.116 198.250 M 61 211 L 61 226 63.500 226 L 66 226 66 211 L 66 196 63.500 196 L 61 196 61 211 M 83.167 196.868 C 84.896 197.278, 88.003 200.224, 92.006 205.250 C 95.402 209.512, 98.418 213, 98.710 213 C 99.002 213, 97.699 211.088, 95.814 208.750 C 93.929 206.412, 90.874 202.588, 89.026 200.250 C 86.530 197.093, 85.001 196.030, 83.083 196.118 L 80.500 196.237 83.167 196.868 M 101.206 205.250 L 101.411 214.500 101.745 205.750 C 102.006 198.895, 102.394 197, 103.539 197 C 104.751 197, 105 199.388, 105 211 C 105 218.700, 104.634 225, 104.186 225 C 103.739 225, 100.317 220.966, 96.582 216.036 C 92.848 211.106, 89.059 206.494, 88.164 205.786 C 86.730 204.654, 89.700 208.654, 100.387 222.250 C 105.508 228.765, 106 227.778, 106 211 L 106 196 103.500 196 L 101 196 101.206 205.250 M 119.116 198.250 C 119.201 199.895, 119.353 200.038, 119.684 198.780 C 120.073 197.295, 121.799 197.018, 132.318 196.746 L 144.500 196.432 131.750 196.216 C 119.100 196.002, 119.001 196.018, 119.116 198.250 M 166.750 196.747 C 175.684 197, 178 197.360, 178 198.494 C 178 199.600, 176.042 199.987, 169.331 200.211 C 163.293 200.412, 160.584 200.887, 160.406 201.775 C 160.265 202.476, 160.379 202.589, 160.658 202.025 C 160.949 201.440, 164.991 201, 170.083 201 C 178.928 201, 179 200.980, 179 198.500 L 179 196 167.250 196.214 L 155.500 196.428 166.750 196.747 M 194.269 196.693 C 195.242 196.947, 196.592 196.930, 197.269 196.656 C 197.946 196.382, 197.150 196.175, 195.500 196.195 C 193.850 196.215, 193.296 196.439, 194.269 196.693 M 227 211 L 227 226 237.500 226 L 248 226 248 223.500 C 248 221.042, 247.867 221, 240 221 L 232 221 232 208.500 L 232 196 229.500 196 L 227 196 227 211 M 261 211 L 261 226 263.500 226 L 266 226 266 211 L 266 196 263.500 196 L 261 196 261 211 M 332.250 196.746 C 340.740 197, 343 197.367, 343 198.493 C 343 199.585, 341.068 199.998, 334.750 200.256 L 326.500 200.593 335.250 200.796 C 343.971 200.999, 344 200.992, 344 198.500 L 344 196 332.750 196.212 L 321.500 196.425 332.250 196.746 M 359 211 L 359 226 361.500 226 L 364 226 363.791 215.750 L 363.581 205.500 363.254 215.250 C 362.995 222.994, 362.626 225, 361.464 225 C 360.248 225, 360 222.624, 360 211 C 360 199.501, 360.256 197, 361.436 197 C 362.225 197, 365.674 200.488, 369.098 204.750 C 375.953 213.281, 379.341 217.050, 376.898 213.426 C 371.003 204.681, 363.266 196.087, 361.250 196.046 C 359.015 196, 359 196.097, 359 211 M 379.206 205.250 L 379.411 214.500 379.745 205.750 C 380.006 198.895, 380.394 197, 381.539 197 C 382.751 197, 383 199.388, 383 211 C 383 218.890, 382.597 225, 382.077 225 C 381.569 225, 377.904 220.838, 373.933 215.750 C 366.253 205.911, 364.135 203.445, 365.616 206.065 C 368.660 211.451, 380.774 225.950, 382.250 225.973 C 383.840 225.998, 384 224.629, 384 211 L 384 196 381.500 196 L 379 196 379.206 205.250 M 404.314 197.950 C 401.076 199.924, 398.362 203.696, 399.419 204.752 C 399.739 205.072, 400.010 204.921, 400.022 204.417 C 400.074 202.291, 403.854 198.811, 407.538 197.499 C 409.797 196.694, 410.640 196.071, 409.500 196.048 C 408.400 196.026, 406.066 196.882, 404.314 197.950 M 419.500 197.906 C 422.623 199.354, 423.134 199.913, 421.828 200.457 C 420.909 200.840, 419.251 200.669, 418.144 200.077 C 412.063 196.822, 401.810 202.184, 402.090 208.473 C 402.148 209.776, 402.519 209.325, 403.129 207.212 C 404.838 201.285, 413.705 198.004, 418.651 201.468 C 420.534 202.787, 420.922 202.743, 422.463 201.040 C 424.104 199.228, 424.045 199.075, 421.139 197.572 C 419.467 196.707, 417.514 196.012, 416.800 196.026 C 416.085 196.041, 417.300 196.887, 419.500 197.906 M 447.250 196.746 C 455.740 197, 458 197.367, 458 198.493 C 458 199.589, 456.090 199.986, 449.750 200.210 L 441.500 200.500 441.395 204.259 L 441.290 208.017 441.706 204.509 L 442.121 201 450.560 201 C 458.896 201, 459 200.969, 459 198.500 L 459 196 447.750 196.212 L 436.500 196.425 447.250 196.746 M 497 196.639 C 506.061 197.225, 508.791 197.953, 511.975 200.632 C 513.792 202.162, 514.772 202.570, 514.420 201.652 C 513.091 198.189, 508.719 196.610, 500 196.445 C 495.325 196.356, 493.975 196.443, 497 196.639 M 530 211 L 530 226 541.750 225.786 L 553.500 225.572 542.250 225.253 L 531 224.934 531 211 L 531 197.066 542.250 196.747 L 553.500 196.428 541.750 196.214 L 530 196 530 211 M 586.139 197.914 C 589.384 200.545, 587.820 201.617, 583.635 199.631 C 581.744 198.734, 579.141 198.046, 577.849 198.102 C 576.079 198.179, 576.333 198.401, 578.879 199.002 C 580.738 199.441, 583.276 200.345, 584.520 201.011 C 586.055 201.832, 587.342 201.908, 588.526 201.245 C 590.150 200.337, 590.123 200.123, 588.135 198.135 C 586.961 196.961, 585.500 196, 584.889 196 C 584.278 196, 584.841 196.861, 586.139 197.914 M 621.136 198.750 C 621.253 201.108, 621.334 201.179, 621.706 199.250 C 622.123 197.081, 622.532 197, 633 197 C 643.468 197, 643.877 197.081, 644.294 199.250 C 644.666 201.179, 644.747 201.108, 644.864 198.750 L 645 196 633 196 L 621 196 621.136 198.750 M 658 211 L 658 226 669 226 L 680 226 680 223.500 C 680 221.029, 679.900 221, 671.500 221 L 663 221 663 217.039 L 663 213.078 671.503 212.727 L 680.005 212.376 671.253 212.438 L 662.500 212.500 662.500 217 L 662.500 221.500 670.750 221.790 C 677.182 222.017, 679 222.402, 679 223.540 C 679 224.723, 677.099 225, 669 225 L 659 225 659 211 L 659 197 669 197 C 677.430 197, 679 197.247, 679 198.573 C 679 199.905, 677.718 200.097, 670.671 199.823 L 662.343 199.500 662.310 204 C 662.281 208.075, 662.317 208.146, 662.699 204.750 L 663.121 201 671.560 201 C 679.896 201, 680 200.969, 680 198.500 L 680 196 669 196 L 658 196 658 211 M 694 210.906 L 694 226 696.500 226 C 698.872 226, 698.991 225.731, 698.820 220.750 L 698.640 215.500 698.265 220.250 C 698.005 223.553, 697.450 225, 696.445 225 C 695.254 225, 695 222.542, 695 211 L 695 197 703.050 197 C 711.104 197, 716.241 198.521, 717.331 201.229 C 717.617 201.940, 717.877 202.018, 717.921 201.405 C 717.964 200.803, 717.054 199.453, 715.897 198.405 C 714.195 196.863, 711.909 196.435, 703.897 196.156 L 694 195.813 694 210.906 M 741.838 196.867 C 751.094 197.434, 752.377 197.747, 754.088 199.861 C 757.204 203.708, 756.142 213, 752.587 213 C 751.849 213, 750.668 213.695, 749.963 214.545 C 748.881 215.849, 749.251 216.673, 752.341 219.837 C 754.353 221.898, 756 223.903, 756 224.292 C 756 226.351, 752.554 224.405, 747.955 219.750 L 742.767 214.500 747.634 220.237 C 751.816 225.168, 752.987 225.977, 755.962 225.987 L 759.425 226 754.594 221.096 C 750.055 216.487, 749.321 214, 752.502 214 C 754.722 214, 757 209.864, 757 205.833 C 757 203.342, 756.203 201.184, 754.588 199.306 C 752.252 196.588, 751.853 196.496, 741.838 196.367 L 731.500 196.234 741.838 196.867 M 771 211 L 771 226 773.500 226 C 775.460 226, 775.975 225.514, 775.884 223.750 C 775.797 222.057, 775.655 221.933, 775.311 223.250 C 775.059 224.213, 774.211 225, 773.427 225 C 772.259 225, 772 222.467, 772 211.070 C 772 197.418, 772.045 197.130, 774.250 196.706 C 776.179 196.334, 776.108 196.253, 773.750 196.136 L 771 196 771 211 M 790.136 198.750 C 790.251 201.062, 790.341 201.147, 790.702 199.280 C 791.113 197.154, 791.642 197.047, 803.316 196.746 L 815.500 196.432 802.750 196.216 L 790 196 790.136 198.750 M 831.535 199.104 C 829.591 200.811, 828 202.645, 828 203.180 C 828 203.716, 829.162 202.772, 830.583 201.084 C 832.004 199.396, 834.591 197.602, 836.333 197.097 C 838.770 196.392, 838.990 196.160, 837.285 196.090 C 836.066 196.041, 833.479 197.397, 831.535 199.104 M 871 211 L 871 226 873.500 226 C 874.875 226, 876 225.592, 876 225.094 C 876 224.595, 875.100 224.423, 874 224.710 C 872.070 225.215, 872 224.741, 872 211.186 C 872 197.414, 872.044 197.131, 874.250 196.706 C 876.179 196.334, 876.108 196.253, 873.750 196.136 L 871 196 871 211 M 894.250 196.735 C 896.862 196.941, 901.138 196.941, 903.750 196.735 C 906.362 196.529, 904.225 196.360, 899 196.360 C 893.775 196.360, 891.638 196.529, 894.250 196.735 M 929 211 L 929 226 940 226 L 951 226 951 223.500 C 951 221.008, 950.971 221.001, 942.250 221.204 L 933.500 221.407 941.750 221.744 C 948.161 222.006, 950 222.406, 950 223.540 C 950 224.723, 948.099 225, 940 225 L 930 225 930 211 L 930 197 940 197 C 948.099 197, 950 197.277, 950 198.460 C 950 199.596, 948.192 199.983, 941.830 200.210 C 936.199 200.410, 933.582 200.896, 933.405 201.775 C 933.265 202.476, 933.379 202.589, 933.658 202.025 C 933.945 201.446, 937.833 201, 942.583 201 C 950.894 201, 951 200.969, 951 198.500 L 951 196 940 196 L 929 196 929 211 M 968.153 197.750 C 967.016 198.713, 965.837 200.850, 965.534 202.500 C 964.996 205.426, 965.014 205.417, 966.280 202.148 C 966.995 200.304, 968.686 198.183, 970.039 197.433 C 971.393 196.684, 971.987 196.055, 971.361 196.035 C 970.734 196.016, 969.291 196.787, 968.153 197.750 M 983.500 197.155 C 984.600 197.756, 986.063 198.954, 986.750 199.815 C 987.438 200.677, 988 200.872, 988 200.248 C 988 198.977, 984.115 195.983, 982.527 196.030 C 981.962 196.047, 982.400 196.553, 983.500 197.155 M 62 211 C 62 222.778, 62.238 225, 63.500 225 C 64.762 225, 65 222.778, 65 211 C 65 199.222, 64.762 197, 63.500 197 C 62.238 197, 62 199.222, 62 211 M 228 211 L 228 225 237.500 225 C 245.156 225, 247 224.717, 247 223.542 C 247 222.415, 245.239 222.018, 239.250 221.792 L 231.500 221.500 231.219 209.250 C 230.990 199.269, 230.666 197, 229.469 197 C 228.247 197, 228 199.353, 228 211 M 262 211 C 262 222.778, 262.238 225, 263.500 225 C 264.762 225, 265 222.778, 265 211 C 265 199.222, 264.762 197, 263.500 197 C 262.238 197, 262 199.222, 262 211 M 285.750 198.080 C 284.787 198.641, 283.325 200.405, 282.500 202 C 280.266 206.321, 280.695 207.013, 283.130 203.018 C 284.298 201.102, 285.984 198.979, 286.877 198.299 C 288.842 196.803, 288.167 196.672, 285.750 198.080 M 911.545 199.455 C 913.343 201.252, 914 202.993, 914 205.955 C 914 209.966, 912.794 211.867, 908.412 214.764 C 907.361 215.460, 907.949 215.342, 909.720 214.504 C 913.578 212.678, 915 210.307, 915 205.701 C 915 202.414, 911.872 197, 909.973 197 C 909.488 197, 910.195 198.105, 911.545 199.455 M 13.382 209.500 C 13.384 216.100, 13.546 218.670, 13.741 215.211 C 13.937 211.752, 13.936 206.352, 13.738 203.211 C 13.540 200.070, 13.380 202.900, 13.382 209.500 M 142.500 199 C 142.160 199.550, 142.359 200, 142.941 200 C 143.523 200, 144 199.550, 144 199 C 144 198.450, 143.802 198, 143.559 198 C 143.316 198, 142.840 198.450, 142.500 199 M 157.382 209.500 C 157.384 216.100, 157.546 218.670, 157.741 215.211 C 157.937 211.752, 157.936 206.352, 157.738 203.211 C 157.540 200.070, 157.380 202.900, 157.382 209.500 M 193.219 211.750 L 193 226 203 226 L 213 226 213 223.500 C 213 221.058, 212.828 221, 205.583 221 C 201.504 221, 197.938 220.539, 197.658 219.975 C 197.379 219.411, 197.265 219.524, 197.405 220.225 C 197.576 221.082, 200.011 221.596, 204.830 221.794 C 210.306 222.018, 212 222.432, 212 223.544 C 212 224.711, 210.217 225, 203.028 225 L 194.056 225 193.748 211.250 L 193.439 197.500 193.219 211.750 M 322.219 211.750 L 322 226 333 226 L 344 226 344 223.500 C 344 221.008, 343.971 221.001, 335.250 221.204 L 326.500 221.407 334.750 221.744 C 341.161 222.006, 343 222.406, 343 223.540 C 343 224.722, 341.103 225, 333.028 225 L 323.056 225 322.748 211.250 L 322.439 197.500 322.219 211.750 M 491.219 211.750 L 491 226 498.250 225.804 L 505.500 225.608 498.778 225.259 L 492.056 224.910 491.747 211.205 L 491.439 197.500 491.219 211.750 M 775.355 206.500 C 775.352 211.450, 775.521 213.601, 775.731 211.280 C 775.940 208.959, 775.943 204.909, 775.736 202.280 C 775.530 199.651, 775.358 201.550, 775.355 206.500 M 971.635 200.073 C 970.186 201.212, 969 202.718, 969 203.418 C 969 204.828, 972.150 208, 973.551 208 C 974.043 208, 973.445 207.299, 972.223 206.443 C 968.275 203.679, 970.016 200.456, 976.256 198.975 C 979.197 198.277, 979.256 198.195, 976.885 198.102 C 975.447 198.046, 973.084 198.933, 971.635 200.073 M 123.813 199.683 C 124.534 199.972, 125.397 199.936, 125.729 199.604 C 126.061 199.272, 125.471 199.036, 124.417 199.079 C 123.252 199.127, 123.015 199.364, 123.813 199.683 M 572.571 200.571 C 571.707 201.436, 571 202.716, 571 203.416 C 571 204.828, 574.150 208, 575.551 208 C 576.043 208, 575.445 207.299, 574.223 206.443 C 571.570 204.585, 571.438 203.279, 573.655 200.829 C 575.675 198.597, 574.763 198.380, 572.571 200.571 M 809.813 199.683 C 810.534 199.972, 811.397 199.936, 811.729 199.604 C 812.061 199.272, 811.471 199.036, 810.417 199.079 C 809.252 199.127, 809.015 199.364, 809.813 199.683 M 836.241 200.325 C 833.853 201.652, 830.496 205.830, 831.230 206.563 C 831.468 206.802, 832.249 205.902, 832.966 204.564 C 834.347 201.984, 837.580 200.331, 842.500 199.690 C 845.325 199.322, 845.296 199.293, 842 199.185 C 840.075 199.122, 837.484 199.635, 836.241 200.325 M 981.559 200.468 C 982.626 201.276, 984.175 201.935, 985 201.933 C 985.870 201.931, 985.450 201.329, 984 200.500 C 980.713 198.621, 979.089 198.600, 981.559 200.468 M 437.079 201.583 C 437.127 202.748, 437.364 202.985, 437.683 202.188 C 437.972 201.466, 437.936 200.603, 437.604 200.271 C 437.272 199.939, 437.036 200.529, 437.079 201.583 M 498.250 200.716 C 499.762 200.945, 502.238 200.945, 503.750 200.716 C 505.262 200.487, 504.025 200.300, 501 200.300 C 497.975 200.300, 496.738 200.487, 498.250 200.716 M 540.280 200.736 C 542.909 200.943, 546.959 200.940, 549.280 200.731 C 551.601 200.521, 549.450 200.352, 544.500 200.355 C 539.550 200.358, 537.651 200.530, 540.280 200.736 M 698.406 201.386 C 698.113 202.148, 698.049 204.735, 698.262 207.136 C 698.650 211.496, 698.651 211.495, 698.825 206.305 L 699 201.110 703.750 200.735 L 708.500 200.360 703.719 200.180 C 700.435 200.056, 698.771 200.434, 698.406 201.386 M 710 200.713 C 710.825 201.019, 712.175 201.771, 713 202.384 C 714.303 203.354, 714.320 203.271, 713.128 201.750 C 712.373 200.787, 711.023 200.036, 710.128 200.079 C 708.766 200.145, 708.745 200.249, 710 200.713 M 739.264 200.718 C 740.784 200.947, 743.034 200.941, 744.264 200.704 C 745.494 200.467, 744.250 200.279, 741.500 200.286 C 738.750 200.294, 737.744 200.488, 739.264 200.718 M 749.777 201.557 C 752.241 203.282, 752.845 208.335, 750.750 209.691 C 750.063 210.136, 746.575 210.767, 743 211.093 L 736.500 211.685 743.095 211.843 C 750.437 212.018, 753 210.461, 753 205.826 C 753 203.419, 750.330 200, 748.449 200 C 747.957 200, 748.555 200.701, 749.777 201.557 M 848.250 202.313 C 849.763 203.738, 851 205.451, 851 206.119 C 851 206.787, 851.261 207.072, 851.581 206.752 C 852.532 205.802, 850.123 202.134, 847.727 200.884 C 845.883 199.921, 845.973 200.167, 848.250 202.313 M 897.250 200.689 C 898.212 200.941, 899.788 200.941, 900.750 200.689 C 901.712 200.438, 900.925 200.232, 899 200.232 C 897.075 200.232, 896.288 200.438, 897.250 200.689 M 907.777 201.557 C 910.258 203.294, 910.770 207.737, 908.750 210.002 C 907.687 211.194, 907.761 211.206, 909.250 210.079 C 911.534 208.351, 911.491 203.754, 909.171 201.655 C 908.165 200.745, 906.940 200, 906.449 200 C 905.957 200, 906.555 200.701, 907.777 201.557 M 41.769 202.776 C 41.300 204.569, 41.605 204.997, 43.344 204.985 C 44.597 204.976, 45.039 204.662, 44.400 204.235 C 43.795 203.831, 43.086 202.837, 42.825 202.026 C 42.491 200.988, 42.178 201.210, 41.769 202.776 M 129.216 213.250 L 129 226 131.500 226 L 134 226 133.784 213.250 L 133.568 200.500 133.253 212.750 C 133 222.593, 132.656 225, 131.500 225 C 130.344 225, 130 222.593, 129.747 212.750 L 129.432 200.500 129.216 213.250 M 285.989 204.250 C 284.787 206.221, 284.059 209.074, 284.137 211.500 L 284.267 215.500 284.911 210.914 C 285.266 208.391, 286.341 205.129, 287.301 203.664 C 288.261 202.199, 288.804 201, 288.508 201 C 288.213 201, 287.079 202.463, 285.989 204.250 M 509.408 204.073 C 512.849 208.162, 512.930 213.807, 509.604 217.674 C 507.667 219.926, 506.088 220.579, 501.354 221.083 L 495.500 221.706 500.850 221.853 C 505.693 221.986, 506.522 221.678, 509.600 218.600 C 512.240 215.960, 513 214.374, 513 211.504 C 513 207.574, 510.524 202.415, 508.211 201.527 C 507.443 201.233, 507.982 202.378, 509.408 204.073 M 534.252 204.500 C 534.263 206.700, 534.468 207.482, 534.707 206.238 C 534.946 204.994, 534.937 203.194, 534.687 202.238 C 534.437 201.282, 534.241 202.300, 534.252 204.500 M 800.216 213.250 L 800 226 802.500 226 L 805 226 804.784 213.250 L 804.568 200.500 804.253 212.750 C 804 222.593, 803.656 225, 802.500 225 C 801.344 225, 801 222.593, 800.747 212.750 L 800.432 200.500 800.216 213.250 M 718.136 205.849 C 718.040 208.210, 717.067 210.069, 714.838 212.151 C 711.879 214.915, 711.843 215.029, 714.271 213.922 C 717.257 212.562, 719.367 208.256, 718.718 204.845 C 718.384 203.086, 718.238 203.337, 718.136 205.849 M 891.079 204.583 C 891.127 205.748, 891.364 205.985, 891.683 205.188 C 891.972 204.466, 891.936 203.603, 891.604 203.271 C 891.272 202.939, 891.036 203.529, 891.079 204.583 M 437.286 208.500 C 437.294 211.250, 437.488 212.256, 437.718 210.736 C 437.947 209.216, 437.941 206.966, 437.704 205.736 C 437.467 204.506, 437.279 205.750, 437.286 208.500 M 713.985 205.750 C 713.953 209.315, 712.149 210.492, 705.787 211.097 L 699.500 211.695 705.250 211.848 C 709.800 211.968, 711.417 211.583, 713 210 C 714.769 208.231, 715.826 204, 714.500 204 C 714.225 204, 713.993 204.787, 713.985 205.750 M 826.564 208.750 C 826.227 210.813, 826.403 214.041, 826.956 215.925 C 827.947 219.304, 832.534 225, 834.264 225 C 834.753 225, 833.777 223.842, 832.096 222.427 C 828.540 219.435, 826.622 213.529, 827.569 208.485 C 827.928 206.568, 827.987 205, 827.699 205 C 827.411 205, 826.900 206.688, 826.564 208.750 M 197.079 207.583 C 197.127 208.748, 197.364 208.985, 197.683 208.188 C 197.972 207.466, 197.936 206.603, 197.604 206.271 C 197.272 205.939, 197.036 206.529, 197.079 207.583 M 398.300 211 C 398.300 214.025, 398.487 215.262, 398.716 213.750 C 398.945 212.238, 398.945 209.762, 398.716 208.250 C 398.487 206.738, 398.300 207.975, 398.300 211 M 736.158 208 C 736.158 209.375, 736.385 209.938, 736.662 209.250 C 736.940 208.563, 736.940 207.438, 736.662 206.750 C 736.385 206.063, 736.158 206.625, 736.158 208 M 966 206.711 C 966 207.285, 966.788 208.373, 967.750 209.128 C 969.369 210.397, 969.390 210.350, 968.033 208.500 C 967.226 207.400, 966.439 206.313, 966.283 206.083 C 966.127 205.854, 966 206.137, 966 206.711 M 280.394 212.285 C 280.546 215.467, 281.261 218.617, 281.982 219.285 C 283.025 220.252, 283.131 220.215, 282.500 219.108 C 282.063 218.342, 281.349 215.192, 280.912 212.108 L 280.118 206.500 280.394 212.285 M 516.272 211 C 516.272 213.475, 516.467 214.488, 516.706 213.250 C 516.944 212.012, 516.944 209.988, 516.706 208.750 C 516.467 207.512, 516.272 208.525, 516.272 211 M 569.560 208.819 C 570.797 210.167, 573.193 211.245, 575.560 211.517 L 579.500 211.969 575.550 210.959 C 573.378 210.403, 570.678 209.189, 569.550 208.261 C 567.505 206.578, 567.505 206.579, 569.560 208.819 M 577.500 208.497 C 578.050 208.684, 580.213 209.123, 582.306 209.474 C 587.045 210.268, 590 213.116, 590 216.889 C 590 220.767, 587.207 223.982, 582.976 224.978 C 579.705 225.747, 579.666 225.801, 582.327 225.898 C 588.254 226.112, 592.819 218.267, 589.920 212.850 C 588.624 210.430, 583.139 207.970, 579.282 208.079 C 577.752 208.122, 576.950 208.311, 577.500 208.497 M 830.110 210.349 C 829.770 219.167, 838.629 225.404, 846.439 221.846 C 848.890 220.729, 852.586 216.252, 851.748 215.415 C 851.522 215.188, 850.761 216.078, 850.058 217.391 C 849.355 218.704, 847.684 220.279, 846.343 220.890 C 839.529 223.994, 832.614 219.966, 831.084 212 C 830.443 208.664, 830.191 208.237, 830.110 210.349 M 852.232 211 C 852.232 212.925, 852.438 213.713, 852.689 212.750 C 852.941 211.787, 852.941 210.213, 852.689 209.250 C 852.438 208.287, 852.232 209.075, 852.232 211 M 856.232 211 C 856.232 212.925, 856.438 213.713, 856.689 212.750 C 856.941 211.787, 856.941 210.213, 856.689 209.250 C 856.438 208.287, 856.232 209.075, 856.232 211 M 978.880 208.998 C 985.826 210.492, 988 212.388, 988 216.952 C 988 221.340, 986.187 223.713, 982.180 224.570 C 977.632 225.542, 975.007 226.971, 979 226.301 C 984.249 225.421, 987.900 223.245, 988.564 220.603 C 990.284 213.748, 986.634 209.153, 978.913 208.454 L 974.500 208.055 978.880 208.998 M 165.250 209.728 C 167.313 209.944, 170.688 209.944, 172.750 209.728 C 174.813 209.513, 173.125 209.336, 169 209.336 C 164.875 209.336, 163.188 209.513, 165.250 209.728 M 177 210.458 C 177 211.580, 175.217 211.994, 169.250 212.257 L 161.500 212.598 169.750 212.799 C 177.400 212.985, 178 212.855, 178 211 C 178 209.900, 177.775 209, 177.500 209 C 177.225 209, 177 209.656, 177 210.458 M 295 211 C 295 212.673, 295.613 212.974, 298.750 212.840 C 302.442 212.682, 302.450 212.674, 299.250 212.277 C 294.029 211.629, 295.504 210.131, 301.750 209.739 L 307.500 209.378 301.250 209.189 C 295.604 209.018, 295 209.193, 295 211 M 327.813 209.683 C 328.534 209.972, 329.397 209.936, 329.729 209.604 C 330.061 209.272, 329.471 209.036, 328.417 209.079 C 327.252 209.127, 327.015 209.364, 327.813 209.683 M 333.264 209.718 C 334.784 209.947, 337.034 209.941, 338.264 209.704 C 339.494 209.467, 338.250 209.279, 335.500 209.286 C 332.750 209.294, 331.744 209.488, 333.264 209.718 M 342 210.458 C 342 211.580, 340.217 211.994, 334.250 212.257 L 326.500 212.598 334.750 212.799 C 342.400 212.985, 343 212.855, 343 211 C 343 209.900, 342.775 209, 342.500 209 C 342.225 209, 342 209.656, 342 210.458 M 443.813 209.683 C 444.534 209.972, 445.397 209.936, 445.729 209.604 C 446.061 209.272, 445.471 209.036, 444.417 209.079 C 443.252 209.127, 443.015 209.364, 443.813 209.683 M 449.250 209.716 C 450.762 209.945, 453.238 209.945, 454.750 209.716 C 456.262 209.487, 455.025 209.300, 452 209.300 C 448.975 209.300, 447.738 209.487, 449.250 209.716 M 458 210.460 C 458 211.594, 456.161 211.994, 449.750 212.256 L 441.500 212.593 450.250 212.796 C 458.401 212.986, 459 212.863, 459 211 C 459 209.900, 458.775 209, 458.500 209 C 458.225 209, 458 209.657, 458 210.460 M 543.250 209.743 C 547.513 209.931, 551 210.496, 551 211 C 551 211.504, 547.513 212.069, 543.250 212.257 L 535.500 212.598 543.750 212.799 C 551.400 212.985, 552 212.855, 552 211 C 552 209.145, 551.400 209.015, 543.750 209.201 L 535.500 209.402 543.250 209.743 M 667.750 209.732 C 670.087 209.943, 673.913 209.943, 676.250 209.732 C 678.587 209.522, 676.675 209.349, 672 209.349 C 667.325 209.349, 665.413 209.522, 667.750 209.732 M 937.250 209.728 C 939.313 209.944, 942.688 209.944, 944.750 209.728 C 946.813 209.513, 945.125 209.336, 941 209.336 C 936.875 209.336, 935.188 209.513, 937.250 209.728 M 949 210.458 C 949 211.580, 947.217 211.994, 941.250 212.257 L 933.500 212.598 941.750 212.799 C 949.400 212.985, 950 212.855, 950 211 C 950 209.900, 949.775 209, 949.500 209 C 949.225 209, 949 209.656, 949 210.458 M 898.768 211.725 C 900.565 211.947, 903.265 211.943, 904.768 211.715 C 906.271 211.486, 904.800 211.304, 901.500 211.310 C 898.200 211.315, 896.971 211.502, 898.768 211.725 M 974.269 211.693 C 975.242 211.947, 976.592 211.930, 977.269 211.656 C 977.946 211.382, 977.150 211.175, 975.500 211.195 C 973.850 211.215, 973.296 211.439, 974.269 211.693 M 306.079 213.583 C 306.127 214.748, 306.364 214.985, 306.683 214.188 C 306.972 213.466, 306.936 212.603, 306.604 212.271 C 306.272 211.939, 306.036 212.529, 306.079 213.583 M 402.090 213.827 C 401.994 216.314, 406.926 222.003, 409.173 221.996 C 409.903 221.994, 409.055 221.111, 407.288 220.034 C 405.320 218.834, 403.710 216.803, 403.129 214.788 C 402.369 212.155, 402.162 211.964, 402.090 213.827 M 583.357 213.628 C 585.837 214.972, 586.135 215.594, 585.609 218.338 C 585.175 220.600, 585.283 221.073, 585.986 220 C 587.587 217.558, 587.148 215.217, 584.777 213.557 C 583.555 212.701, 582.093 212.018, 581.527 212.040 C 580.962 212.062, 581.786 212.777, 583.357 213.628 M 981 213.290 C 984.103 214.854, 984.869 218.892, 982.404 220.694 C 979.677 222.688, 973.647 222.296, 970.640 219.931 C 968.116 217.946, 964 217.976, 964 219.978 C 964 221.602, 970.173 225.999, 972.327 225.910 C 973.990 225.841, 973.777 225.610, 971.419 224.925 C 969.724 224.433, 967.525 223.133, 966.533 222.036 C 964.830 220.154, 964.826 220.004, 966.465 219.375 C 967.420 219.009, 968.494 219.157, 968.851 219.705 C 972.331 225.045, 985 223.392, 985 217.598 C 985 215.097, 982.175 211.991, 979.921 212.015 C 979.140 212.023, 979.625 212.597, 981 213.290 M 303 216.339 C 303 218.948, 302.442 219.933, 300.453 220.839 C 295.471 223.109, 290.328 221.912, 286.683 217.633 L 284.866 215.500 285.963 217.740 C 288.281 222.475, 295.608 224.288, 301.050 221.474 C 303.458 220.229, 304 219.310, 304 216.474 C 304 214.563, 303.775 213, 303.500 213 C 303.225 213, 303 214.503, 303 216.339 M 441.232 217 C 441.232 218.925, 441.438 219.713, 441.689 218.750 C 441.941 217.787, 441.941 216.213, 441.689 215.250 C 441.438 214.287, 441.232 215.075, 441.232 217 M 534.232 217 C 534.232 218.925, 534.438 219.713, 534.689 218.750 C 534.941 217.787, 534.941 216.213, 534.689 215.250 C 534.438 214.287, 534.232 215.075, 534.232 217 M 709.535 220.250 C 713.329 224.884, 714.815 226, 717.190 226 L 720.136 226 718.166 223.250 C 717.082 221.738, 714.927 219.375, 713.376 218 C 711.689 216.505, 712.139 217.306, 714.495 219.993 C 717.816 223.781, 718.150 224.540, 716.627 224.833 C 715.467 225.057, 713.035 223.272, 709.824 219.841 L 704.828 214.500 709.535 220.250 M 855 216.484 C 855 217.301, 853.724 219.396, 852.165 221.141 C 849.695 223.906, 848.443 224.412, 842.415 225.081 L 835.500 225.848 842.378 225.618 C 848.902 225.401, 849.429 225.200, 852.628 221.709 C 855.549 218.521, 857.057 215, 855.500 215 C 855.225 215, 855 215.668, 855 216.484 M 905.500 220.247 C 909.670 224.953, 911.061 225.899, 913.880 225.945 L 917.260 226 913.380 221.594 C 911.246 219.171, 909.071 217.146, 908.547 217.094 C 908.023 217.042, 909.352 218.800, 911.500 221 C 914.879 224.461, 915.126 225, 913.330 225 C 912.159 225, 909.491 223.086, 907.206 220.608 C 901.152 214.040, 899.734 213.740, 905.500 220.247 M 513.756 219.102 C 512.817 220.738, 510.576 222.716, 508.775 223.499 C 506.974 224.281, 506.227 224.939, 507.115 224.961 C 509.116 225.009, 513.646 221.530, 515.087 218.837 C 516.818 215.603, 515.628 215.840, 513.756 219.102 M 399.007 217.615 C 398.985 221.222, 406.866 226.688, 410.671 225.705 C 412.027 225.354, 411.854 225.193, 410 225.081 C 406.448 224.865, 403.187 222.831, 400.946 219.433 C 399.883 217.820, 399.010 217.002, 399.007 217.615 M 437.079 218.583 C 437.127 219.748, 437.364 219.985, 437.683 219.188 C 437.972 218.466, 437.936 217.603, 437.604 217.271 C 437.272 216.939, 437.036 217.529, 437.079 218.583 M 567.147 218.888 C 564.086 220.828, 571.565 227.136, 575.199 225.679 C 575.916 225.392, 575.550 225.122, 574.385 225.079 C 571.362 224.966, 566.581 221.019, 567.886 219.714 C 568.592 219.008, 569.479 219.128, 570.708 220.092 C 572.341 221.375, 572.379 221.345, 571.128 219.750 C 569.582 217.779, 569.072 217.668, 567.147 218.888 M 418.559 220.532 C 417.491 221.339, 417.064 222, 417.609 222 C 418.154 222, 419.140 221.460, 419.800 220.800 C 420.733 219.867, 421.267 219.867, 422.200 220.800 C 423.738 222.338, 422.524 223.529, 418 224.918 L 414.500 225.993 417.987 225.474 C 422.632 224.783, 424.801 222.670, 423.042 220.550 C 421.476 218.663, 421.032 218.661, 418.559 220.532 M 736.079 221.583 C 736.127 222.748, 736.364 222.985, 736.683 222.188 C 736.972 221.466, 736.936 220.603, 736.604 220.271 C 736.272 219.939, 736.036 220.529, 736.079 221.583 M 166.280 221.736 C 168.909 221.943, 172.959 221.940, 175.280 221.731 C 177.601 221.521, 175.450 221.352, 170.500 221.355 C 165.550 221.358, 163.651 221.530, 166.280 221.736 M 284.861 223.033 C 286.159 224.115, 287.734 224.970, 288.361 224.932 C 288.987 224.895, 288.488 224.376, 287.250 223.780 C 286.012 223.183, 285 222.313, 285 221.847 C 285 221.381, 284.438 221.015, 283.750 221.033 C 283.063 221.052, 283.562 221.952, 284.861 223.033 M 304.910 222.519 C 304.074 223.354, 301.391 224.467, 298.946 224.991 L 294.500 225.945 298.897 225.548 C 301.601 225.304, 304.093 224.352, 305.369 223.075 C 306.510 221.934, 307.216 221, 306.937 221 C 306.657 221, 305.745 221.683, 304.910 222.519 M 442.097 221.430 C 442.812 222.145, 458.987 222.346, 459.685 221.648 C 460.042 221.292, 456.133 221, 451 221 C 445.867 221, 441.860 221.194, 442.097 221.430 M 540.280 221.736 C 542.909 221.943, 546.959 221.940, 549.280 221.731 C 551.601 221.521, 549.450 221.352, 544.500 221.355 C 539.550 221.358, 537.651 221.530, 540.280 221.736 M 579 222 L 574.500 222.700 578.691 222.850 C 580.996 222.932, 583.160 222.550, 583.500 222 C 583.840 221.450, 583.979 221.068, 583.809 221.150 C 583.639 221.233, 581.475 221.615, 579 222 M 412.269 222.693 C 413.242 222.947, 414.592 222.930, 415.269 222.656 C 415.946 222.382, 415.150 222.175, 413.500 222.195 C 411.850 222.215, 411.296 222.439, 412.269 222.693 M 167.500 225 L 156.500 225.605 167.750 225.802 C 174.715 225.925, 179 225.619, 179 225 C 179 224.450, 178.887 224.089, 178.750 224.198 C 178.613 224.306, 173.550 224.667, 167.500 225 M 891 225.139 C 891 225.612, 892.125 226, 893.500 226 C 894.875 226, 896 225.827, 896 225.617 C 896 225.406, 894.875 225.018, 893.500 224.755 C 892.125 224.492, 891 224.665, 891 225.139 M 83.269 225.693 C 84.242 225.947, 85.592 225.930, 86.269 225.656 C 86.946 225.382, 86.150 225.175, 84.500 225.195 C 82.850 225.215, 82.296 225.439, 83.269 225.693 M 290.750 225.662 C 291.438 225.940, 292.563 225.940, 293.250 225.662 C 293.938 225.385, 293.375 225.158, 292 225.158 C 290.625 225.158, 290.063 225.385, 290.750 225.662 M 442.250 225.739 C 445.413 225.937, 450.587 225.937, 453.750 225.739 C 456.913 225.541, 454.325 225.378, 448 225.378 C 441.675 225.378, 439.087 225.541, 442.250 225.739 M 631.269 225.693 C 632.242 225.947, 633.592 225.930, 634.269 225.656 C 634.946 225.382, 634.150 225.175, 632.500 225.195 C 630.850 225.215, 630.296 225.439, 631.269 225.693 M 733.269 225.693 C 734.242 225.947, 735.592 225.930, 736.269 225.656 C 736.946 225.382, 736.150 225.175, 734.500 225.195 C 732.850 225.215, 732.296 225.439, 733.269 225.693" stroke="none" fill="#ffffff" fill-rule="evenodd"/>
</svg>