<svg xmlns="http://www.w3.org/2000/svg" width="1000" height="235" viewBox="0 0 1000 235" version="1.1">
	<path d="M 162.250 9.662 C 161.563 9.940, 161 10.669, 161 11.283 C 161 12.059, 161.366 12.034, 162.200 11.200 C 163.891 9.509, 186.097 9.552, 188.002 11.250 C 189.194 12.313, 189.206 12.239, 188.079 10.750 C 186.945 9.251, 185.089 9.011, 175.128 9.079 C 168.732 9.122, 162.938 9.385, 162.250 9.662 M 266.948 11.750 C 264.498 18.476, 263.472 20.748, 261.193 24.500 C 255.909 33.198, 247.621 39.618, 238.068 42.412 C 230.964 44.489, 189.010 44.778, 188.985 42.750 C 188.974 41.858, 188.759 41.823, 188.235 42.631 C 187.780 43.330, 182.543 43.951, 174.500 44.259 C 163.444 44.682, 160.004 45.239, 151.500 47.977 C 131.934 54.278, 116.785 64.016, 106.032 77.204 C 99.628 85.058, 92.560 99.158, 90.108 108.973 L 88.241 116.445 78.982 118.264 C 46.229 124.696, 20.884 145.771, 10.859 174.910 C 9.834 177.890, 9.175 180.508, 9.396 180.729 C 9.616 180.949, 10.544 178.879, 11.458 176.128 C 15.163 164.971, 23.918 154.758, 33.560 150.344 C 42.546 146.230, 48.398 145.705, 78.500 146.309 C 93.900 146.618, 108.637 146.521, 111.250 146.094 L 116 145.317 116 162.109 C 116 177.046, 115.807 179.013, 114.250 179.920 C 112.583 180.891, 112.583 180.941, 114.250 180.970 C 115.213 180.986, 116.086 180.887, 116.191 180.750 C 116.297 180.613, 116.634 172.462, 116.941 162.637 L 117.500 144.774 126 142.342 C 157.367 133.367, 180.677 110.226, 187.554 81.234 C 188.942 75.384, 189.689 73.882, 191.389 73.525 C 192.550 73.281, 197.010 72.393, 201.300 71.552 C 221.537 67.586, 241.950 55.089, 253.875 39.364 C 259.298 32.215, 266.122 19.209, 267.841 12.750 C 269.001 8.391, 268.413 7.732, 266.948 11.750 M 425.230 37.550 C 417.945 39.512, 414.920 41.239, 410.816 45.782 C 403.528 53.849, 403.500 54.071, 403.500 104.500 L 403.500 149.500 406.311 155.224 C 409.685 162.095, 415.454 167.295, 422.391 169.716 C 426.657 171.206, 430.552 171.475, 446 171.349 C 457.926 171.252, 466.277 170.719, 469.500 169.849 L 474.500 168.500 474.500 160 L 474.500 151.500 453.500 150.989 C 430.998 150.441, 429.345 150.073, 426.897 145.054 C 426.158 143.540, 425.473 136.695, 425.214 128.250 L 424.778 114 447.689 114 C 464.175 114, 470.937 113.663, 471.800 112.800 C 473.143 111.457, 473.457 97.267, 472.188 95.269 C 471.614 94.367, 465.285 93.967, 448.453 93.769 L 425.500 93.500 425.533 79.500 C 425.572 62.928, 426.642 59.749, 432.752 58.052 C 434.813 57.480, 444.889 57.009, 455.143 57.006 C 476.510 56.999, 475 57.763, 475 46.953 C 475 41.382, 474.661 39.889, 473.223 39.119 C 467.464 36.037, 434.816 34.970, 425.230 37.550 M 844 37.585 C 833.232 40.432, 826.278 47.592, 823.469 58.723 C 822.137 64.001, 821.949 71.285, 822.230 106.723 C 822.596 152.809, 822.686 153.524, 829.129 161.340 C 836.948 170.826, 855.047 174.128, 881.500 170.894 C 894.341 169.324, 894.136 169.511, 893.790 159.694 L 893.500 151.500 872.953 151 C 844.576 150.309, 844.972 150.623, 844.879 128.759 L 844.818 114.500 867.080 114.230 C 881.821 114.052, 889.804 113.578, 890.708 112.828 C 891.713 111.993, 891.998 109.425, 891.787 103.097 L 891.500 94.500 868.098 94 L 844.696 93.500 844.751 79.691 C 844.782 71.865, 845.294 64.704, 845.932 63.163 C 848.099 57.933, 849.788 57.541, 872.500 57 L 893.500 56.500 893.790 48.306 C 894.039 41.233, 893.831 39.980, 892.263 39.141 C 886.417 36.012, 853.915 34.965, 844 37.585 M 938 37.029 C 930.784 38.548, 921.436 43.661, 918.044 47.945 C 913.203 54.056, 911.668 59.302, 911.590 70 C 911.530 78.279, 911.858 80.207, 914.148 85 C 915.593 88.025, 918.073 92.011, 919.660 93.858 C 921.246 95.705, 931.301 103.130, 942.004 110.358 C 963.443 124.836, 966.001 127.452, 965.998 134.898 C 965.996 141.294, 963.358 146.075, 958.500 148.482 C 954.963 150.236, 952.939 150.419, 941 150.070 C 933.575 149.853, 924.800 149.636, 921.500 149.588 L 915.500 149.500 915.213 158.097 C 915.010 164.195, 915.301 166.995, 916.213 167.730 C 920.156 170.905, 946.254 173.023, 957.529 171.083 C 975.624 167.970, 986.306 157.917, 989.151 141.324 C 990.054 136.058, 990.075 132.670, 989.236 127.607 C 986.862 113.279, 980.703 106.217, 959.040 92.983 C 941.621 82.342, 938.236 79.904, 935.840 76.270 C 932.266 70.850, 934.323 62.436, 939.931 59.536 C 944.549 57.148, 952.388 56.721, 968.974 57.955 C 987.639 59.344, 987.339 59.510, 986.699 48.193 C 986.472 44.175, 985.885 40.499, 985.393 40.024 C 982.546 37.275, 947.386 35.054, 938 37.029 M 311.256 38.015 C 302.631 39.274, 301.064 39.892, 300.489 42.265 C 300.191 43.494, 300.072 72.850, 300.224 107.500 L 300.500 170.500 310.918 170.787 C 318.580 170.998, 321.552 170.733, 322.153 169.787 C 322.602 169.079, 322.976 156.238, 322.985 141.250 L 323 114 325.353 114 C 326.648 114, 330.425 114.284, 333.748 114.631 L 339.790 115.263 351.563 141.881 C 358.039 156.522, 363.766 169.063, 364.291 169.750 C 364.956 170.621, 368.696 171, 376.622 171 C 387.157 171, 388 170.858, 388 169.089 C 388 168.038, 382.375 155.794, 375.500 141.881 C 368.625 127.967, 363 116.104, 363 115.519 C 363 114.934, 364.584 113.602, 366.521 112.559 C 371.406 109.928, 378.715 101.857, 381.321 96.217 C 383.219 92.108, 383.500 89.760, 383.500 78 C 383.500 65.229, 383.344 64.163, 380.615 58.253 C 375.796 47.820, 366.444 40.955, 353.201 38.130 C 347.359 36.884, 319.527 36.808, 311.256 38.015 M 526.421 38.896 C 522.079 40.868, 518.607 44.606, 516.569 49.500 C 514.357 54.814, 487.763 167.940, 488.360 169.497 C 488.823 170.703, 491.023 171, 499.493 171 C 509.523 171, 510.092 170.888, 510.895 168.750 C 511.360 167.512, 517.014 142.429, 523.460 113.010 C 529.905 83.590, 535.390 59.178, 535.648 58.760 C 536.329 57.658, 538.776 57.828, 539.518 59.029 C 539.867 59.594, 545.298 83.510, 551.586 112.175 C 557.874 140.841, 563.381 165.690, 563.823 167.397 L 564.627 170.500 575.564 170.500 C 585.753 170.500, 586.520 170.363, 586.788 168.492 C 587.128 166.120, 560.469 54.105, 558.353 49.014 C 554.983 40.904, 548.258 37.044, 537.500 37.044 C 532.820 37.044, 529.148 37.658, 526.421 38.896 M 600.079 38.404 C 599.141 39.535, 598.946 52.114, 599.238 92.688 C 599.567 138.509, 599.836 146.163, 601.275 150.508 C 603.929 158.520, 608.236 163.499, 615.691 167.168 C 621.718 170.136, 623.219 170.434, 634.048 170.820 C 644.875 171.206, 662.558 169.874, 666.454 168.379 C 667.807 167.860, 668.027 166.333, 667.787 159.129 L 667.500 150.500 648.500 150 C 628.619 149.477, 626.192 148.959, 623.773 144.727 C 622.805 143.034, 622.380 129.908, 622 90 L 621.500 37.500 611.400 37.217 C 603.473 36.994, 601.038 37.250, 600.079 38.404 M 685.200 38.200 C 684.291 39.109, 684 55.126, 684 104.165 C 684 178.934, 682.592 171, 695.863 171 C 701.797 171, 704.262 170.595, 705.429 169.429 C 706.824 168.033, 707 160.752, 707 104.363 C 707 62.507, 706.647 40.209, 705.965 38.934 C 705.056 37.236, 703.801 37, 695.665 37 C 689.792 37, 685.961 37.439, 685.200 38.200 M 724.082 38.401 C 723.338 39.298, 723.024 42.987, 723.210 48.651 L 723.500 57.500 739.250 57.775 L 755 58.051 755 113.490 C 755 177.552, 753.648 171, 766.863 171 C 772.797 171, 775.262 170.595, 776.429 169.429 C 777.819 168.038, 778 161.530, 778 112.929 L 778 58 792.800 58 C 802.978 58, 807.975 57.625, 808.800 56.800 C 810.288 55.312, 810.414 41.642, 808.965 38.934 C 807.967 37.070, 806.438 37, 766.587 37 C 732.355 37, 725.045 37.241, 724.082 38.401 M 324.250 58.602 C 323.320 59.022, 323 63.609, 323 76.538 L 323 93.909 326.612 94.587 C 333.597 95.897, 347.525 94.448, 352.652 91.878 C 359.624 88.383, 361.501 85.261, 361.494 77.173 C 361.487 68.859, 359.172 64.482, 352.965 61.046 C 349.098 58.905, 347.066 58.557, 337.016 58.315 C 330.682 58.163, 324.938 58.292, 324.250 58.602 M 123.179 75.127 C 113.554 77.396, 102.442 86.195, 96.739 96.063 C 94.488 99.959, 90 112.640, 90 115.105 C 90 115.597, 95.840 116, 102.978 116 L 115.956 116 116.251 97.250 L 116.547 78.500 116.773 97.325 L 117 116.150 136.750 115.800 C 156.249 115.455, 156.569 115.414, 161.925 112.585 C 172.775 106.853, 180.977 97.018, 184.918 85.010 C 188.707 73.468, 191.450 74.529, 157.244 74.304 C 139.800 74.190, 125.713 74.530, 123.179 75.127 M 88.400 162.500 C 88.401 170.750, 88.556 173.992, 88.744 169.704 C 88.932 165.417, 88.931 158.667, 88.742 154.704 C 88.552 150.742, 88.399 154.250, 88.400 162.500 M 89.226 179.579 C 90.176 180.570, 91.168 181.166, 91.431 180.903 C 91.694 180.640, 90.917 179.829, 89.705 179.100 C 87.598 177.835, 87.577 177.857, 89.226 179.579 M 294.813 195.683 C 295.534 195.972, 296.397 195.936, 296.729 195.604 C 297.061 195.272, 296.471 195.036, 295.417 195.079 C 294.252 195.127, 294.015 195.364, 294.813 195.683 M 577.250 195.689 C 578.212 195.941, 579.788 195.941, 580.750 195.689 C 581.712 195.438, 580.925 195.232, 579 195.232 C 577.075 195.232, 576.288 195.438, 577.250 195.689 M 975.250 195.689 C 976.212 195.941, 977.788 195.941, 978.750 195.689 C 979.712 195.438, 978.925 195.232, 977 195.232 C 975.075 195.232, 974.288 195.438, 975.250 195.689 M 9 196.383 C 9 196.594, 10.125 196.982, 11.500 197.245 C 12.875 197.508, 14 197.335, 14 196.861 C 14 196.388, 12.875 196, 11.500 196 C 10.125 196, 9 196.173, 9 196.383 M 43.116 198.250 C 43.198 199.844, 43.362 200.008, 43.677 198.811 C 43.922 197.883, 45.108 196.932, 46.311 196.698 C 48.113 196.348, 48.014 196.248, 45.750 196.136 C 43.494 196.024, 43.021 196.404, 43.116 198.250 M 62.722 196.702 C 64.871 197.118, 64.955 197.586, 65.253 210.816 L 65.561 224.500 65.781 210.250 L 66 196 63.250 196.136 C 60.934 196.251, 60.851 196.340, 62.722 196.702 M 82 196.383 C 82 196.594, 83.111 196.979, 84.470 197.239 C 85.828 197.499, 86.702 197.326, 86.411 196.856 C 85.899 196.027, 82 195.610, 82 196.383 M 101.199 203.750 L 101.397 211.500 101.743 204.250 C 102.002 198.796, 102.441 197, 103.516 197 C 104.669 197, 105.003 199.647, 105.252 210.750 L 105.561 224.500 105.781 210.250 L 106 196 103.500 196 C 101.031 196, 101.002 196.097, 101.199 203.750 M 119.136 198.750 C 119.251 201.062, 119.341 201.147, 119.702 199.280 C 120.113 197.154, 120.642 197.047, 132.316 196.746 L 144.500 196.432 131.750 196.216 L 119 196 119.136 198.750 M 162.250 196.739 C 165.412 196.937, 170.588 196.937, 173.750 196.739 C 176.912 196.541, 174.325 196.378, 168 196.378 C 161.675 196.378, 159.088 196.541, 162.250 196.739 M 194.269 196.693 C 195.242 196.947, 196.592 196.930, 197.269 196.656 C 197.946 196.382, 197.150 196.175, 195.500 196.195 C 193.850 196.215, 193.296 196.439, 194.269 196.693 M 227 211 L 227 226 237.750 225.789 L 248.500 225.578 238.250 225.254 L 228 224.930 228 210.965 C 228 199.348, 228.247 197, 229.469 197 C 230.664 197, 230.997 199.285, 231.253 209.250 L 231.568 221.500 231.784 208.750 L 232 196 229.500 196 L 227 196 227 211 M 262.722 196.702 C 264.871 197.118, 264.955 197.586, 265.253 210.816 L 265.561 224.500 265.781 210.250 L 266 196 263.250 196.136 C 260.934 196.251, 260.851 196.340, 262.722 196.702 M 286.873 197.684 C 285.428 198.580, 283.515 200.550, 282.623 202.061 C 280.192 206.177, 280.668 206.793, 283.270 202.898 C 284.518 201.029, 287.106 198.713, 289.020 197.752 C 290.934 196.790, 291.825 196.014, 291 196.028 C 290.175 196.042, 288.318 196.787, 286.873 197.684 M 327.250 196.739 C 330.413 196.937, 335.587 196.937, 338.750 196.739 C 341.913 196.541, 339.325 196.378, 333 196.378 C 326.675 196.378, 324.087 196.541, 327.250 196.739 M 359 211 L 359 226 361.500 226 L 364 226 363.791 215.750 L 363.581 205.500 363.254 215.250 C 362.995 222.994, 362.626 225, 361.464 225 C 360.248 225, 360 222.624, 360 211 C 360 195.884, 360.296 195.179, 364.936 199.250 L 367.500 201.500 365.076 198.750 C 363.742 197.238, 361.830 196, 360.826 196 C 359.139 196, 359 197.144, 359 211 M 379.206 205.250 L 379.411 214.500 379.744 205.815 C 380.051 197.774, 380.240 197.097, 382.288 196.701 C 384.138 196.342, 384.050 196.250, 381.750 196.136 L 379 196 379.206 205.250 M 408.813 196.683 C 409.534 196.972, 410.397 196.936, 410.729 196.604 C 411.061 196.272, 410.471 196.036, 409.417 196.079 C 408.252 196.127, 408.015 196.364, 408.813 196.683 M 415.813 196.683 C 416.534 196.972, 417.397 196.936, 417.729 196.604 C 418.061 196.272, 417.471 196.036, 416.417 196.079 C 415.252 196.127, 415.015 196.364, 415.813 196.683 M 442.250 196.739 C 445.413 196.937, 450.587 196.937, 453.750 196.739 C 456.913 196.541, 454.325 196.378, 448 196.378 C 441.675 196.378, 439.087 196.541, 442.250 196.739 M 490.999 196.750 C 490.999 197.162, 493.362 197.370, 496.249 197.211 C 505.052 196.727, 505.885 196.280, 498.250 196.136 C 494.262 196.061, 491 196.338, 490.999 196.750 M 535.250 196.739 C 538.413 196.937, 543.587 196.937, 546.750 196.739 C 549.913 196.541, 547.325 196.378, 541 196.378 C 534.675 196.378, 532.087 196.541, 535.250 196.739 M 569.455 198.455 C 567.950 199.959, 567.031 201.992, 567.079 203.705 C 567.162 206.647, 567.440 206.249, 568.425 201.775 C 568.766 200.230, 570.210 198.408, 571.763 197.565 C 573.268 196.748, 573.917 196.062, 573.205 196.040 C 572.492 196.018, 570.805 197.105, 569.455 198.455 M 621.136 198.750 C 621.253 201.108, 621.334 201.179, 621.706 199.250 C 622.123 197.081, 622.532 197, 633 197 C 643.468 197, 643.877 197.081, 644.294 199.250 C 644.666 201.179, 644.747 201.108, 644.864 198.750 L 645 196 633 196 L 621 196 621.136 198.750 M 658 211 L 658 226 669 226 L 680 226 680 223.500 C 680 221.031, 679.896 221, 671.560 221 L 663.121 221 662.691 217.250 L 662.262 213.500 662.381 217.500 L 662.500 221.500 670.750 221.790 C 677.182 222.017, 679 222.402, 679 223.540 C 679 224.723, 677.099 225, 669 225 L 659 225 659 211.036 L 659 197.072 668.750 196.746 L 678.500 196.419 668.250 196.209 L 658 196 658 211 M 679 197.960 C 679 199.720, 678.162 199.953, 670.750 200.256 L 662.500 200.593 671.250 200.796 C 679.971 200.999, 680 200.992, 680 198.500 C 680 197.125, 679.775 196, 679.500 196 C 679.225 196, 679 196.882, 679 197.960 M 694 211 L 694 226 696.500 226 C 698.833 226, 699 225.667, 699 221 C 699 216.026, 699.017 216, 702.250 216 C 704.903 215.999, 706.327 216.936, 710 221.094 C 713.661 225.239, 715.004 226.124, 717.207 225.844 L 719.913 225.500 715.369 220.500 L 710.825 215.500 714.533 220.250 C 717.826 224.469, 718.014 225, 716.214 225 C 715.003 225, 712.483 222.965, 709.956 219.948 C 706.134 215.383, 705.378 214.925, 702.113 215.198 C 698.561 215.495, 698.495 215.581, 698.195 220.250 C 697.981 223.585, 697.460 225, 696.445 225 C 695.254 225, 695 222.547, 695 211.042 L 695 197.084 702.750 196.743 L 710.500 196.402 702.250 196.201 L 694 196 694 211 M 735.750 196.732 C 738.087 196.943, 741.913 196.943, 744.250 196.732 C 746.587 196.522, 744.675 196.349, 740 196.349 C 735.325 196.349, 733.413 196.522, 735.750 196.732 M 771 196.861 C 771 197.335, 772.125 197.508, 773.500 197.245 C 774.875 196.982, 776 196.594, 776 196.383 C 776 196.173, 774.875 196, 773.500 196 C 772.125 196, 771 196.388, 771 196.861 M 790.116 198.250 C 790.201 199.894, 790.354 200.037, 790.683 198.781 C 791.071 197.304, 792.775 197.018, 802.817 196.746 L 814.500 196.430 802.250 196.215 C 790.119 196.002, 790.001 196.022, 790.116 198.250 M 836.750 196.662 C 837.438 196.940, 838.563 196.940, 839.250 196.662 C 839.938 196.385, 839.375 196.158, 838 196.158 C 836.625 196.158, 836.063 196.385, 836.750 196.662 M 843.083 196.359 C 843.313 196.557, 844.850 197.021, 846.500 197.390 C 848.691 197.880, 849.095 197.787, 848 197.046 C 846.650 196.132, 842.080 195.494, 843.083 196.359 M 871.116 198.250 C 871.198 199.844, 871.362 200.008, 871.677 198.811 C 871.922 197.883, 873.108 196.932, 874.311 196.698 C 876.113 196.348, 876.014 196.248, 873.750 196.136 C 871.494 196.024, 871.021 196.404, 871.116 198.250 M 894.750 196.732 C 897.087 196.943, 900.913 196.943, 903.250 196.732 C 905.587 196.522, 903.675 196.349, 899 196.349 C 894.325 196.349, 892.413 196.522, 894.750 196.732 M 929.079 197.750 C 929.126 198.795, 929.361 198.997, 929.662 198.250 C 930.451 196.294, 950 196.496, 950 198.460 C 950 199.594, 948.161 199.994, 941.750 200.256 L 933.500 200.593 942.250 200.796 C 950.971 200.999, 951 200.992, 951 198.500 L 951 196 940 196 C 930.160 196, 929.008 196.185, 929.079 197.750 M 968.441 197.555 C 966.611 199.022, 966.643 199.042, 969 197.920 C 972.061 196.462, 972.628 196, 971.358 196 C 970.821 196, 969.509 196.700, 968.441 197.555 M 982.083 196.365 C 982.313 196.565, 983.625 197.265, 985 197.920 C 987.357 199.042, 987.389 199.022, 985.559 197.555 C 983.966 196.279, 980.711 195.164, 982.083 196.365 M 303.557 198.418 C 306.276 200.406, 304.654 201.514, 301.151 200.062 C 299.548 199.399, 296.721 199.041, 294.869 199.268 C 291.634 199.663, 291.661 199.686, 295.527 199.840 C 297.743 199.928, 300.507 200.667, 301.670 201.482 C 303.539 202.790, 303.929 202.790, 305.015 201.482 C 305.989 200.309, 305.986 199.688, 305 198.500 C 304.315 197.675, 303.274 197, 302.686 197 C 302.099 197, 302.491 197.638, 303.557 198.418 M 404.507 197.989 C 404.157 198.555, 404.558 198.723, 405.448 198.382 C 407.180 197.717, 407.497 197, 406.059 197 C 405.541 197, 404.843 197.445, 404.507 197.989 M 419 197.393 C 419 197.609, 419.698 198.054, 420.552 198.382 C 421.442 198.723, 421.843 198.555, 421.493 197.989 C 420.906 197.038, 419 196.583, 419 197.393 M 586.964 198.456 C 587.628 199.257, 587.885 200.377, 587.534 200.945 C 587.150 201.567, 587.530 201.734, 588.491 201.365 C 589.935 200.811, 589.925 200.574, 588.388 198.876 C 586.398 196.677, 585.192 196.322, 586.964 198.456 M 712.083 197.365 C 712.313 197.565, 713.625 198.265, 715 198.920 C 717.357 200.042, 717.389 200.022, 715.559 198.555 C 713.966 197.279, 710.711 196.164, 712.083 197.365 M 749.813 197.683 C 750.534 197.972, 751.397 197.936, 751.729 197.604 C 752.061 197.272, 751.471 197.036, 750.417 197.079 C 749.252 197.127, 749.015 197.364, 749.813 197.683 M 61.392 211 C 61.392 218.425, 61.549 221.463, 61.742 217.750 C 61.934 214.037, 61.934 207.963, 61.742 204.250 C 61.549 200.537, 61.392 203.575, 61.392 211 M 322.392 211 C 322.392 218.425, 322.549 221.463, 322.742 217.750 C 322.934 214.037, 322.934 207.963, 322.742 204.250 C 322.549 200.537, 322.392 203.575, 322.392 211 M 512 200.500 C 513.292 201.875, 514.574 203, 514.849 203 C 515.124 203, 514.292 201.875, 513 200.500 C 511.708 199.125, 510.426 198, 510.151 198 C 509.876 198, 510.708 199.125, 512 200.500 M 754.100 199.705 C 754.829 200.917, 755.640 201.694, 755.903 201.431 C 756.166 201.168, 755.570 200.176, 754.579 199.226 C 752.857 197.577, 752.835 197.598, 754.100 199.705 M 830.405 200.250 L 828.500 202.500 830.750 200.595 C 832.864 198.805, 833.455 198, 832.655 198 C 832.465 198, 831.453 199.012, 830.405 200.250 M 851.500 200 C 852.495 201.100, 853.535 202, 853.810 202 C 854.085 202, 853.495 201.100, 852.500 200 C 851.505 198.900, 850.465 198, 850.190 198 C 849.915 198, 850.505 198.900, 851.500 200 M 912.420 199.973 C 915.788 205.243, 914.255 210.902, 908.412 214.764 C 907.361 215.460, 907.949 215.342, 909.720 214.504 C 911.492 213.665, 913.404 212.114, 913.970 211.055 C 915.687 207.849, 915.177 202.423, 912.920 199.861 L 910.840 197.500 912.420 199.973 M 976.813 198.683 C 977.534 198.972, 978.397 198.936, 978.729 198.604 C 979.061 198.272, 978.471 198.036, 977.417 198.079 C 976.252 198.127, 976.015 198.364, 976.813 198.683 M 88.500 201 C 89.495 202.100, 90.535 203, 90.810 203 C 91.085 203, 90.495 202.100, 89.500 201 C 88.505 199.900, 87.465 199, 87.190 199 C 86.915 199, 87.505 199.900, 88.500 201 M 401 201 C 400.411 202.100, 400.155 203, 400.430 203 C 400.705 203, 401.411 202.100, 402 201 C 402.589 199.900, 402.845 199, 402.570 199 C 402.295 199, 401.589 199.900, 401 201 M 412.269 199.693 C 413.242 199.947, 414.592 199.930, 415.269 199.656 C 415.946 199.382, 415.150 199.175, 413.500 199.195 C 411.850 199.215, 411.296 199.439, 412.269 199.693 M 573.507 199.989 C 573.157 200.555, 573.558 200.723, 574.448 200.382 C 576.180 199.717, 576.497 199, 575.059 199 C 574.541 199, 573.843 199.445, 573.507 199.989 M 834.535 202.104 C 832.591 203.811, 831 205.566, 831 206.004 C 831 206.442, 832.530 205.270, 834.400 203.400 C 838.010 199.790, 842.050 198.995, 846.316 201.055 C 848.426 202.074, 848.434 202.057, 846.559 200.555 C 843.354 197.988, 838.512 198.611, 834.535 202.104 M 970.872 200.750 C 969.603 202.369, 969.650 202.390, 971.500 201.033 C 972.600 200.226, 973.688 199.439, 973.917 199.283 C 974.146 199.127, 973.863 199, 973.289 199 C 972.715 199, 971.627 199.787, 970.872 200.750 M 166.280 200.736 C 168.909 200.943, 172.959 200.940, 175.280 200.731 C 177.601 200.521, 175.450 200.352, 170.500 200.355 C 165.550 200.358, 163.651 200.530, 166.280 200.736 M 331.280 200.736 C 333.909 200.943, 337.959 200.940, 340.280 200.731 C 342.601 200.521, 340.450 200.352, 335.500 200.355 C 330.550 200.358, 328.651 200.530, 331.280 200.736 M 407.507 200.989 C 407.157 201.555, 407.558 201.723, 408.448 201.382 C 410.180 200.717, 410.497 200, 409.059 200 C 408.541 200, 407.843 200.445, 407.507 200.989 M 417.083 200.283 C 417.313 200.439, 418.247 201.135, 419.161 201.832 C 420.446 202.811, 420.990 202.825, 421.565 201.894 C 422.020 201.159, 421.887 200.952, 421.224 201.362 C 420.627 201.731, 419.856 201.575, 419.510 201.016 C 419.165 200.457, 418.384 200, 417.774 200 C 417.165 200, 416.854 200.127, 417.083 200.283 M 446.750 200.732 C 449.087 200.943, 452.913 200.943, 455.250 200.732 C 457.587 200.522, 455.675 200.349, 451 200.349 C 446.325 200.349, 444.413 200.522, 446.750 200.732 M 498.250 200.716 C 499.762 200.945, 502.238 200.945, 503.750 200.716 C 505.262 200.487, 504.025 200.300, 501 200.300 C 497.975 200.300, 496.738 200.487, 498.250 200.716 M 540.280 200.736 C 542.909 200.943, 546.959 200.940, 549.280 200.731 C 551.601 200.521, 549.450 200.352, 544.500 200.355 C 539.550 200.358, 537.651 200.530, 540.280 200.736 M 698.667 200.667 C 697.750 201.583, 697.822 210.771, 698.750 211.348 C 699.163 211.604, 699.347 209.403, 699.160 206.457 L 698.821 201.100 705.160 200.743 L 711.500 200.385 705.417 200.193 C 702.071 200.087, 699.033 200.300, 698.667 200.667 M 740.768 200.725 C 742.565 200.947, 745.265 200.943, 746.768 200.715 C 748.271 200.486, 746.800 200.304, 743.500 200.310 C 740.200 200.315, 738.971 200.502, 740.768 200.725 M 901.726 200.740 C 906.747 201.026, 908.248 201.515, 909.476 203.270 C 910.314 204.466, 911 204.965, 911 204.377 C 911 201.625, 907.284 200.002, 901.421 200.193 L 895.500 200.385 901.726 200.740 M 982.768 201.168 C 983.350 201.750, 984.415 202.028, 985.137 201.788 C 985.886 201.538, 985.432 201.085, 984.080 200.731 C 982.417 200.296, 982.026 200.426, 982.768 201.168 M 42.079 202.750 C 42.026 204.262, 42.574 204.995, 43.750 204.985 C 44.829 204.975, 45.078 204.688, 44.400 204.235 C 43.795 203.831, 43.043 202.825, 42.729 202 C 42.347 200.998, 42.132 201.247, 42.079 202.750 M 129.216 213.250 L 129 226 131.500 226 L 134 226 133.784 213.250 L 133.568 200.500 133.253 212.750 C 133 222.593, 132.656 225, 131.500 225 C 130.344 225, 130 222.593, 129.747 212.750 L 129.432 200.500 129.216 213.250 M 509.458 203.738 C 510.535 205.021, 511.712 208.193, 512.074 210.786 L 512.733 215.500 512.866 211.266 C 512.973 207.890, 512.443 206.461, 510.250 204.218 C 508.738 202.670, 508.381 202.454, 509.458 203.738 M 717.670 204.500 C 718.428 209.443, 719.005 210.285, 718.985 206.417 C 718.976 204.813, 718.539 202.825, 718.013 202 C 717.362 200.979, 717.252 201.776, 717.670 204.500 M 800.216 213.250 L 800 226 802.750 225.864 C 805.062 225.749, 805.147 225.659, 803.280 225.298 C 801.154 224.887, 801.047 224.358, 800.746 212.684 L 800.432 200.500 800.216 213.250 M 368.500 204 C 369.495 205.100, 370.535 206, 370.810 206 C 371.085 206, 370.495 205.100, 369.500 204 C 368.505 202.900, 367.465 202, 367.190 202 C 366.915 202, 367.505 202.900, 368.500 204 M 441.232 205 C 441.232 206.925, 441.438 207.713, 441.689 206.750 C 441.941 205.787, 441.941 204.213, 441.689 203.250 C 441.438 202.287, 441.232 203.075, 441.232 205 M 534.232 205 C 534.232 206.925, 534.438 207.713, 534.689 206.750 C 534.941 205.787, 534.941 204.213, 534.689 203.250 C 534.438 202.287, 534.232 203.075, 534.232 205 M 571.079 203.583 C 571.127 204.748, 571.364 204.985, 571.683 204.188 C 571.972 203.466, 571.936 202.603, 571.604 202.271 C 571.272 201.939, 571.036 202.529, 571.079 203.583 M 662.232 205 C 662.232 206.925, 662.438 207.713, 662.689 206.750 C 662.941 205.787, 662.941 204.213, 662.689 203.250 C 662.438 202.287, 662.232 203.075, 662.232 205 M 804.378 213 C 804.378 219.325, 804.541 221.912, 804.739 218.750 C 804.937 215.588, 804.937 210.412, 804.739 207.250 C 804.541 204.088, 804.378 206.675, 804.378 213 M 756.160 206.250 C 756.064 208.496, 755.198 210.802, 754 212 C 752.900 213.100, 752.440 214, 752.977 214 C 754.914 214, 757.138 209.150, 756.729 205.821 L 756.320 202.500 756.160 206.250 M 969 203.941 C 969 204.459, 969.445 205.157, 969.989 205.493 C 970.555 205.843, 970.723 205.442, 970.382 204.552 C 969.717 202.820, 969 202.503, 969 203.941 M 92.500 206 C 93.495 207.100, 94.535 208, 94.810 208 C 95.085 208, 94.495 207.100, 93.500 206 C 92.505 204.900, 91.465 204, 91.190 204 C 90.915 204, 91.505 204.900, 92.500 206 M 285.035 205.934 C 283.842 208.164, 283.637 215.657, 284.750 216.346 C 285.163 216.600, 285.346 214.875, 285.158 212.511 C 284.970 210.147, 285.323 207.265, 285.943 206.107 C 286.563 204.948, 286.845 204, 286.570 204 C 286.295 204, 285.605 204.870, 285.035 205.934 M 714.158 206 C 714.158 207.375, 714.385 207.938, 714.662 207.250 C 714.940 206.563, 714.940 205.438, 714.662 204.750 C 714.385 204.063, 714.158 204.625, 714.158 206 M 751.932 206.477 C 751.655 208.384, 750.602 209.906, 749 210.712 C 747.443 211.496, 747.101 211.976, 748.095 211.985 C 750.523 212.008, 753.212 208.464, 752.763 205.832 C 752.410 203.768, 752.315 203.842, 751.932 206.477 M 634.079 206.583 C 634.127 207.748, 634.364 207.985, 634.683 207.188 C 634.972 206.466, 634.936 205.603, 634.604 205.271 C 634.272 204.939, 634.036 205.529, 634.079 206.583 M 827.079 206.583 C 827.127 207.748, 827.364 207.985, 827.683 207.188 C 827.972 206.466, 827.936 205.603, 827.604 205.271 C 827.272 204.939, 827.036 205.529, 827.079 206.583 M 366 206.678 C 366 207.235, 367.012 208.547, 368.250 209.595 L 370.500 211.500 368.511 209 C 367.417 207.625, 366.404 206.313, 366.261 206.083 C 366.117 205.854, 366 206.122, 366 206.678 M 398.300 211 C 398.300 214.025, 398.487 215.262, 398.716 213.750 C 398.945 212.238, 398.945 209.762, 398.716 208.250 C 398.487 206.738, 398.300 207.975, 398.300 211 M 966 206.881 C 966 207.856, 969.888 211.494, 970.307 210.911 C 970.469 210.685, 969.566 209.504, 968.301 208.286 C 967.035 207.068, 966 206.436, 966 206.881 M 371 207.378 C 371 207.585, 371.788 208.373, 372.750 209.128 C 374.336 210.371, 374.371 210.336, 373.128 208.750 C 371.821 207.084, 371 206.555, 371 207.378 M 383.079 208.583 C 383.127 209.748, 383.364 209.985, 383.683 209.188 C 383.972 208.466, 383.936 207.603, 383.604 207.271 C 383.272 206.939, 383.036 207.529, 383.079 208.583 M 402.079 208.583 C 402.127 209.748, 402.364 209.985, 402.683 209.188 C 402.972 208.466, 402.936 207.603, 402.604 207.271 C 402.272 206.939, 402.036 207.529, 402.079 208.583 M 516.272 211 C 516.272 213.475, 516.467 214.488, 516.706 213.250 C 516.944 212.012, 516.944 209.988, 516.706 208.750 C 516.467 207.512, 516.272 208.525, 516.272 211 M 569.722 209.050 C 570.944 210.337, 572.138 211.189, 572.374 210.944 C 572.611 210.700, 571.611 209.648, 570.152 208.606 L 567.500 206.712 569.722 209.050 M 908.286 209.699 C 907.068 210.965, 906.436 212, 906.881 212 C 907.856 212, 911.494 208.112, 910.911 207.693 C 910.685 207.531, 909.504 208.434, 908.286 209.699 M 280.252 211.500 C 280.263 213.700, 280.468 214.482, 280.707 213.238 C 280.946 211.994, 280.937 210.194, 280.687 209.238 C 280.437 208.282, 280.241 209.300, 280.252 211.500 M 577.750 208.662 C 578.438 208.940, 579.563 208.940, 580.250 208.662 C 580.938 208.385, 580.375 208.158, 579 208.158 C 577.625 208.158, 577.063 208.385, 577.750 208.662 M 852 211.066 C 852 212.752, 851.525 215.114, 850.945 216.316 C 849.926 218.426, 849.943 218.434, 851.445 216.559 C 852.857 214.796, 853.695 208, 852.500 208 C 852.225 208, 852 209.380, 852 211.066 M 975.750 208.662 C 976.438 208.940, 977.563 208.940, 978.250 208.662 C 978.938 208.385, 978.375 208.158, 977 208.158 C 975.625 208.158, 975.063 208.385, 975.750 208.662 M 91.500 211 C 92.495 212.100, 93.535 213, 93.810 213 C 94.085 213, 93.495 212.100, 92.500 211 C 91.505 209.900, 90.465 209, 90.190 209 C 89.915 209, 90.505 209.900, 91.500 211 M 96.606 211.152 C 97.648 212.611, 98.700 213.611, 98.944 213.374 C 99.189 213.138, 98.337 211.944, 97.050 210.722 L 94.712 208.500 96.606 211.152 M 163.250 209.689 C 164.213 209.941, 165.787 209.941, 166.750 209.689 C 167.713 209.438, 166.925 209.232, 165 209.232 C 163.075 209.232, 162.287 209.438, 163.250 209.689 M 177.158 211 C 177.158 212.375, 177.385 212.938, 177.662 212.250 C 177.940 211.563, 177.940 210.438, 177.662 209.750 C 177.385 209.063, 177.158 209.625, 177.158 211 M 297.750 209.723 C 299.538 209.945, 302.462 209.945, 304.250 209.723 C 306.038 209.502, 304.575 209.320, 301 209.320 C 297.425 209.320, 295.962 209.502, 297.750 209.723 M 342 210.458 C 342 211.580, 340.217 211.994, 334.250 212.257 L 326.500 212.598 334.750 212.799 C 342.400 212.985, 343 212.855, 343 211 C 343 209.900, 342.775 209, 342.500 209 C 342.225 209, 342 209.656, 342 210.458 M 444.762 209.707 C 446.006 209.946, 447.806 209.937, 448.762 209.687 C 449.718 209.437, 448.700 209.241, 446.500 209.252 C 444.300 209.263, 443.518 209.468, 444.762 209.707 M 454.688 209.719 C 456.605 209.959, 458.054 210.792, 458.322 211.809 C 458.639 213.010, 458.802 212.849, 458.884 211.250 C 458.986 209.270, 458.550 209.019, 455.250 209.160 C 451.647 209.314, 451.625 209.336, 454.688 209.719 M 538.250 209.689 C 539.212 209.941, 540.788 209.941, 541.750 209.689 C 542.712 209.438, 541.925 209.232, 540 209.232 C 538.075 209.232, 537.288 209.438, 538.250 209.689 M 551 210.458 C 551 211.580, 549.217 211.994, 543.250 212.257 L 535.500 212.598 543.750 212.799 C 551.400 212.985, 552 212.855, 552 211 C 552 209.900, 551.775 209, 551.500 209 C 551.225 209, 551 209.656, 551 210.458 M 664.750 209.662 C 665.438 209.940, 666.563 209.940, 667.250 209.662 C 667.938 209.385, 667.375 209.158, 666 209.158 C 664.625 209.158, 664.063 209.385, 664.750 209.662 M 673.269 209.693 C 674.242 209.947, 675.592 209.930, 676.269 209.656 C 676.946 209.382, 676.150 209.175, 674.500 209.195 C 672.850 209.215, 672.296 209.439, 673.269 209.693 M 826.158 211 C 826.158 212.375, 826.385 212.938, 826.662 212.250 C 826.940 211.563, 826.940 210.438, 826.662 209.750 C 826.385 209.063, 826.158 209.625, 826.158 211 M 830.158 211 C 830.158 212.375, 830.385 212.938, 830.662 212.250 C 830.940 211.563, 830.940 210.438, 830.662 209.750 C 830.385 209.063, 830.158 209.625, 830.158 211 M 937.813 209.683 C 938.534 209.972, 939.397 209.936, 939.729 209.604 C 940.061 209.272, 939.471 209.036, 938.417 209.079 C 937.252 209.127, 937.015 209.364, 937.813 209.683 M 943.250 209.689 C 944.212 209.941, 945.788 209.941, 946.750 209.689 C 947.712 209.438, 946.925 209.232, 945 209.232 C 943.075 209.232, 942.288 209.438, 943.250 209.689 M 949 210.458 C 949 211.580, 947.217 211.994, 941.250 212.257 L 933.500 212.598 941.750 212.799 C 949.400 212.985, 950 212.855, 950 211 C 950 209.900, 949.775 209, 949.500 209 C 949.225 209, 949 209.656, 949 210.458 M 982.946 210.104 C 984.292 210.641, 985.888 211.400, 986.493 211.790 C 987.099 212.181, 986.736 211.713, 985.686 210.750 C 984.637 209.787, 983.041 209.029, 982.139 209.063 C 981.103 209.103, 981.400 209.486, 982.946 210.104 M 374 211.378 C 374 211.585, 374.788 212.373, 375.750 213.128 C 377.336 214.371, 377.371 214.336, 376.128 212.750 C 374.821 211.084, 374 210.555, 374 211.378 M 574.750 211.662 C 575.438 211.940, 576.563 211.940, 577.250 211.662 C 577.938 211.385, 577.375 211.158, 576 211.158 C 574.625 211.158, 574.063 211.385, 574.750 211.662 M 588.564 212.293 C 588.940 213.279, 589.499 213.834, 589.807 213.526 C 590.115 213.219, 589.808 212.412, 589.124 211.733 C 588.136 210.753, 588.022 210.868, 588.564 212.293 M 972.750 211.662 C 973.438 211.940, 974.563 211.940, 975.250 211.662 C 975.938 211.385, 975.375 211.158, 974 211.158 C 972.625 211.158, 972.063 211.385, 972.750 211.662 M 165.250 212.728 C 167.313 212.944, 170.688 212.944, 172.750 212.728 C 174.813 212.513, 173.125 212.336, 169 212.336 C 164.875 212.336, 163.188 212.513, 165.250 212.728 M 370 212.378 C 370 212.585, 370.788 213.373, 371.750 214.128 C 373.336 215.371, 373.371 215.336, 372.128 213.750 C 370.821 212.084, 370 211.555, 370 212.378 M 383.079 213.583 C 383.127 214.748, 383.364 214.985, 383.683 214.188 C 383.972 213.466, 383.936 212.603, 383.604 212.271 C 383.272 211.939, 383.036 212.529, 383.079 213.583 M 446.728 212.722 C 448.503 212.943, 451.653 212.946, 453.728 212.730 C 455.802 212.513, 454.350 212.333, 450.500 212.328 C 446.650 212.324, 444.952 212.501, 446.728 212.722 M 581 212.714 C 581.825 213.020, 583.400 213.684, 584.500 214.190 C 586.468 215.096, 586.469 215.085, 584.559 213.555 C 583.491 212.700, 581.916 212.036, 581.059 212.079 C 579.712 212.147, 579.704 212.234, 581 212.714 M 667.776 212.733 C 670.128 212.945, 673.728 212.942, 675.776 212.727 C 677.824 212.512, 675.900 212.339, 671.500 212.343 C 667.100 212.346, 665.424 212.522, 667.776 212.733 M 978.813 212.683 C 979.534 212.972, 980.397 212.936, 980.729 212.604 C 981.061 212.272, 980.471 212.036, 979.417 212.079 C 978.252 212.127, 978.015 212.364, 978.813 212.683 M 402.063 214.194 C 402.029 215.126, 403.012 216.948, 404.250 218.243 C 405.488 219.538, 405.961 219.892, 405.303 219.028 C 404.644 218.165, 403.660 216.343, 403.116 214.979 C 402.458 213.331, 402.106 213.068, 402.063 214.194 M 983.100 214.705 C 983.829 215.917, 984.640 216.694, 984.903 216.431 C 985.166 216.168, 984.570 215.176, 983.579 214.226 C 981.857 212.577, 981.835 212.598, 983.100 214.705 M 94 214.378 C 94 214.585, 94.787 215.373, 95.750 216.128 C 97.336 217.371, 97.371 217.336, 96.128 215.750 C 94.821 214.084, 94 213.555, 94 214.378 M 303.195 216.500 C 303.215 218.150, 303.439 218.704, 303.693 217.731 C 303.947 216.758, 303.930 215.408, 303.656 214.731 C 303.382 214.054, 303.175 214.850, 303.195 216.500 M 441.232 217 C 441.232 218.925, 441.438 219.713, 441.689 218.750 C 441.941 217.787, 441.941 216.213, 441.689 215.250 C 441.438 214.287, 441.232 215.075, 441.232 217 M 534.232 217 C 534.232 218.925, 534.438 219.713, 534.689 218.750 C 534.941 217.787, 534.941 216.213, 534.689 215.250 C 534.438 214.287, 534.232 215.075, 534.232 217 M 988.079 215.583 C 988.127 216.748, 988.364 216.985, 988.683 216.188 C 988.972 215.466, 988.936 214.603, 988.604 214.271 C 988.272 213.939, 988.036 214.529, 988.079 215.583 M 590.195 217.500 C 590.215 219.150, 590.439 219.704, 590.693 218.731 C 590.947 217.758, 590.930 216.408, 590.656 215.731 C 590.382 215.054, 590.175 215.850, 590.195 217.500 M 740.500 215.727 C 742.150 215.962, 744.850 217.357, 746.500 218.827 L 749.500 221.500 746.563 218.250 C 744.361 215.814, 742.859 215.038, 740.563 215.150 L 737.500 215.300 740.500 215.727 M 827.039 216.215 C 826.995 218.128, 832.627 225, 834.238 225 C 834.806 225, 834.031 224.026, 832.517 222.835 C 831.003 221.644, 829.160 219.281, 828.421 217.585 C 827.647 215.806, 827.062 215.226, 827.039 216.215 M 831 215.941 C 831 216.459, 831.445 217.157, 831.989 217.493 C 832.555 217.843, 832.723 217.442, 832.382 216.552 C 831.717 214.820, 831 214.503, 831 215.941 M 855 216.423 C 855 218.847, 849.996 223.939, 846.667 224.903 C 843.997 225.676, 843.872 225.834, 845.868 225.910 C 848.573 226.013, 856 219.201, 856 216.618 C 856 215.728, 855.775 215, 855.500 215 C 855.225 215, 855 215.640, 855 216.423 M 898.500 215.724 C 900.150 215.957, 903.300 217.802, 905.500 219.824 L 909.500 223.500 905.547 219.250 C 902.437 215.906, 900.945 215.032, 898.547 215.150 L 895.500 215.300 898.500 215.724 M 374.500 218 C 375.495 219.100, 376.535 220, 376.810 220 C 377.085 220, 376.495 219.100, 375.500 218 C 374.505 216.900, 373.465 216, 373.190 216 C 372.915 216, 373.505 216.900, 374.500 218 M 508.924 218.750 L 506.500 221.500 509.250 219.076 C 510.762 217.742, 512 216.505, 512 216.326 C 512 215.541, 511.190 216.180, 508.924 218.750 M 515 216.757 C 515 217.356, 513.778 219.344, 512.285 221.173 C 510.053 223.909, 509.980 224.147, 511.878 222.511 C 514.573 220.188, 516.412 217.078, 515.581 216.248 C 515.261 215.928, 515 216.157, 515 216.757 M 586.079 217.583 C 586.127 218.748, 586.364 218.985, 586.683 218.188 C 586.972 217.466, 586.936 216.603, 586.604 216.271 C 586.272 215.939, 586.036 216.529, 586.079 217.583 M 281 217.941 C 281 218.459, 281.445 219.157, 281.989 219.493 C 282.555 219.843, 282.723 219.442, 282.382 218.552 C 281.717 216.820, 281 216.503, 281 217.941 M 383.232 220 C 383.232 221.925, 383.438 222.713, 383.689 221.750 C 383.941 220.787, 383.941 219.213, 383.689 218.250 C 383.438 217.287, 383.232 218.075, 383.232 220 M 399.040 217.527 C 398.926 220.454, 405.640 226.038, 409.200 225.978 C 409.915 225.966, 408.621 225.103, 406.325 224.061 C 404.017 223.013, 401.464 220.898, 400.615 219.333 C 399.771 217.775, 399.062 216.962, 399.040 217.527 M 750 217.313 C 750 217.485, 751.462 218.948, 753.250 220.563 L 756.500 223.500 753.563 220.250 C 750.825 217.221, 750 216.540, 750 217.313 M 911 220.500 C 912.866 222.425, 914.617 224, 914.892 224 C 915.167 224, 913.866 222.425, 912 220.500 C 910.134 218.575, 908.383 217, 908.108 217 C 907.833 217, 909.134 218.575, 911 220.500 M 98.500 220 C 99.495 221.100, 100.535 222, 100.810 222 C 101.085 222, 100.495 221.100, 99.500 220 C 98.505 218.900, 97.465 218, 97.190 218 C 96.915 218, 97.505 218.900, 98.500 220 M 286 218.378 C 286 218.585, 286.788 219.373, 287.750 220.128 C 289.336 221.371, 289.371 221.336, 288.128 219.750 C 286.821 218.084, 286 217.555, 286 218.378 M 571.757 220.750 C 573.052 221.988, 575.099 222.961, 576.306 222.914 C 578.126 222.843, 578.013 222.682, 575.643 221.972 C 574.071 221.501, 572.024 220.527, 571.094 219.808 C 570.163 219.088, 570.462 219.512, 571.757 220.750 M 965.580 219.318 C 963.894 220.551, 963.982 220.807, 966.966 223.318 C 968.719 224.793, 970.681 225.986, 971.327 225.970 C 971.972 225.953, 971.600 225.440, 970.500 224.830 C 969.400 224.219, 967.694 223.021, 966.708 222.167 C 965 220.687, 965.023 220.556, 967.208 219.343 C 968.469 218.643, 969.024 218.055, 968.441 218.035 C 967.859 218.016, 966.571 218.593, 965.580 219.318 M 983.100 220.295 C 981.835 222.402, 981.857 222.423, 983.579 220.774 C 984.570 219.824, 985.166 218.832, 984.903 218.569 C 984.640 218.306, 983.829 219.083, 983.100 220.295 M 988.079 219.583 C 988.127 220.748, 988.364 220.985, 988.683 220.188 C 988.972 219.466, 988.936 218.603, 988.604 218.271 C 988.272 217.939, 988.036 218.529, 988.079 219.583 M 419.500 220.235 C 418.400 220.881, 415.700 221.711, 413.500 222.079 C 409.637 222.727, 409.613 222.754, 412.800 222.875 C 415.758 222.987, 422 220.680, 422 219.474 C 422 218.826, 421.794 218.888, 419.500 220.235 M 566 220.059 C 566 220.641, 566.450 220.840, 567 220.500 C 567.550 220.160, 568 219.684, 568 219.441 C 568 219.198, 567.550 219, 567 219 C 566.450 219, 566 219.477, 566 220.059 M 326.888 221.293 C 327.327 221.729, 331.469 221.951, 336.093 221.785 L 344.500 221.485 335.295 220.992 C 330.233 220.722, 326.450 220.857, 326.888 221.293 M 582 221.563 C 579.585 222.477, 579.138 222.905, 580.559 222.944 C 581.691 222.975, 583.491 222.339, 584.559 221.532 C 586.839 219.808, 586.633 219.810, 582 221.563 M 29 222.965 C 29 224.769, 28.163 224.957, 18.750 225.254 L 8.500 225.578 19.250 225.789 L 30 226 30 223.500 C 30 222.125, 29.775 221, 29.500 221 C 29.225 221, 29 221.884, 29 222.965 M 166.280 221.736 C 168.909 221.943, 172.959 221.940, 175.280 221.731 C 177.601 221.521, 175.450 221.352, 170.500 221.355 C 165.550 221.358, 163.651 221.530, 166.280 221.736 M 283.552 222.084 C 284.237 223.193, 290.039 226.294, 290.524 225.810 C 290.709 225.624, 289.087 224.500, 286.919 223.313 C 284.751 222.125, 283.236 221.572, 283.552 222.084 M 304.139 223.033 C 302.841 224.115, 302.209 225, 302.734 225 C 303.260 225, 304.505 224.100, 305.500 223 C 307.787 220.473, 307.195 220.487, 304.139 223.033 M 377 221.378 C 377 221.585, 377.788 222.373, 378.750 223.128 C 380.336 224.371, 380.371 224.336, 379.128 222.750 C 377.821 221.084, 377 220.555, 377 221.378 M 422.462 221.939 C 422.781 222.455, 422.245 223.341, 421.271 223.908 C 420.297 224.475, 419.973 224.953, 420.550 224.970 C 421.775 225.005, 424 222.961, 424 221.800 C 424 221.360, 423.523 221, 422.941 221 C 422.359 221, 422.143 221.422, 422.462 221.939 M 446.750 221.732 C 449.087 221.943, 452.913 221.943, 455.250 221.732 C 457.587 221.522, 455.675 221.349, 451 221.349 C 446.325 221.349, 444.413 221.522, 446.750 221.732 M 498.250 221.716 C 499.762 221.945, 502.238 221.945, 503.750 221.716 C 505.262 221.487, 504.025 221.300, 501 221.300 C 497.975 221.300, 496.738 221.487, 498.250 221.716 M 539.750 221.732 C 542.087 221.943, 545.913 221.943, 548.250 221.732 C 550.587 221.522, 548.675 221.349, 544 221.349 C 539.325 221.349, 537.413 221.522, 539.750 221.732 M 587.405 223.250 L 585.500 225.500 587.750 223.595 C 589.864 221.805, 590.455 221, 589.655 221 C 589.465 221, 588.453 222.012, 587.405 223.250 M 941.469 221.747 C 946.240 221.954, 949.746 222.575, 950.204 223.296 C 950.726 224.117, 950.974 223.943, 950.985 222.750 C 950.998 221.200, 949.998 221.023, 942.250 221.201 L 933.500 221.402 941.469 221.747 M 293.762 222.707 C 295.006 222.946, 296.806 222.937, 297.762 222.687 C 298.718 222.437, 297.700 222.241, 295.500 222.252 C 293.300 222.263, 292.518 222.468, 293.762 222.707 M 567 222.430 C 567 222.705, 567.900 223.411, 569 224 C 570.100 224.589, 571 224.845, 571 224.570 C 571 224.295, 570.100 223.589, 569 223 C 567.900 222.411, 567 222.155, 567 222.430 M 750.405 223.750 C 751.701 225.281, 753.299 225.952, 755.405 225.850 L 758.500 225.700 755.500 225.267 C 753.850 225.028, 751.600 224.083, 750.500 223.166 C 748.516 221.513, 748.515 221.518, 750.405 223.750 M 839.762 222.707 C 841.006 222.946, 842.806 222.937, 843.762 222.687 C 844.718 222.437, 843.700 222.241, 841.500 222.252 C 839.300 222.263, 838.518 222.468, 839.762 222.707 M 973.813 222.683 C 974.534 222.972, 975.397 222.936, 975.729 222.604 C 976.061 222.272, 975.471 222.036, 974.417 222.079 C 973.252 222.127, 973.015 222.364, 973.813 222.683 M 978.813 222.683 C 979.534 222.972, 980.397 222.936, 980.729 222.604 C 981.061 222.272, 980.471 222.036, 979.417 222.079 C 978.252 222.127, 978.015 222.364, 978.813 222.683 M 102 224.500 C 102.685 225.325, 103.977 225.948, 104.872 225.884 C 106.246 225.786, 106.226 225.697, 104.750 225.311 C 103.787 225.059, 103 224.436, 103 223.927 C 103 223.417, 102.495 223, 101.878 223 C 101.102 223, 101.140 223.464, 102 224.500 M 506.813 224.683 C 507.534 224.972, 508.397 224.936, 508.729 224.604 C 509.061 224.272, 508.471 224.036, 507.417 224.079 C 506.252 224.127, 506.015 224.364, 506.813 224.683 M 909.879 225.279 C 910.362 225.762, 912.049 225.995, 913.628 225.798 C 916.272 225.468, 916.202 225.399, 912.751 224.921 C 910.601 224.623, 909.376 224.776, 909.879 225.279 M 62.269 225.693 C 63.242 225.947, 64.592 225.930, 65.269 225.656 C 65.946 225.382, 65.150 225.175, 63.500 225.195 C 61.850 225.215, 61.296 225.439, 62.269 225.693 M 83.269 225.693 C 84.242 225.947, 85.592 225.930, 86.269 225.656 C 86.946 225.382, 86.150 225.175, 84.500 225.195 C 82.850 225.215, 82.296 225.439, 83.269 225.693 M 162.250 225.739 C 165.412 225.937, 170.588 225.937, 173.750 225.739 C 176.912 225.541, 174.325 225.378, 168 225.378 C 161.675 225.378, 159.088 225.541, 162.250 225.739 M 197.750 225.737 C 200.637 225.939, 205.363 225.939, 208.250 225.737 C 211.137 225.535, 208.775 225.370, 203 225.370 C 197.225 225.370, 194.863 225.535, 197.750 225.737 M 262.269 225.693 C 263.242 225.947, 264.592 225.930, 265.269 225.656 C 265.946 225.382, 265.150 225.175, 263.500 225.195 C 261.850 225.215, 261.296 225.439, 262.269 225.693 M 327.250 225.739 C 330.413 225.937, 335.587 225.937, 338.750 225.739 C 341.913 225.541, 339.325 225.378, 333 225.378 C 326.675 225.378, 324.087 225.541, 327.250 225.739 M 380.750 225.662 C 381.438 225.940, 382.563 225.940, 383.250 225.662 C 383.938 225.385, 383.375 225.158, 382 225.158 C 380.625 225.158, 380.063 225.385, 380.750 225.662 M 442.250 225.739 C 445.413 225.937, 450.587 225.937, 453.750 225.739 C 456.913 225.541, 454.325 225.378, 448 225.378 C 441.675 225.378, 439.087 225.541, 442.250 225.739 M 494.250 225.728 C 496.313 225.944, 499.688 225.944, 501.750 225.728 C 503.813 225.513, 502.125 225.336, 498 225.336 C 493.875 225.336, 492.188 225.513, 494.250 225.728 M 535.789 225.741 C 539.248 225.937, 544.648 225.936, 547.789 225.738 C 550.930 225.540, 548.100 225.380, 541.500 225.382 C 534.900 225.384, 532.330 225.546, 535.789 225.741 M 631.269 225.693 C 632.242 225.947, 633.592 225.930, 634.269 225.656 C 634.946 225.382, 634.150 225.175, 632.500 225.195 C 630.850 225.215, 630.296 225.439, 631.269 225.693 M 733.269 225.693 C 734.242 225.947, 735.592 225.930, 736.269 225.656 C 736.946 225.382, 736.150 225.175, 734.500 225.195 C 732.850 225.215, 732.296 225.439, 733.269 225.693 M 772.269 225.693 C 773.242 225.947, 774.592 225.930, 775.269 225.656 C 775.946 225.382, 775.150 225.175, 773.500 225.195 C 771.850 225.215, 771.296 225.439, 772.269 225.693 M 872.269 225.693 C 873.242 225.947, 874.592 225.930, 875.269 225.656 C 875.946 225.382, 875.150 225.175, 873.500 225.195 C 871.850 225.215, 871.296 225.439, 872.269 225.693 M 892.269 225.693 C 893.242 225.947, 894.592 225.930, 895.269 225.656 C 895.946 225.382, 895.150 225.175, 893.500 225.195 C 891.850 225.215, 891.296 225.439, 892.269 225.693 M 934.250 225.739 C 937.413 225.937, 942.587 225.937, 945.750 225.739 C 948.913 225.541, 946.325 225.378, 940 225.378 C 933.675 225.378, 931.087 225.541, 934.250 225.739" stroke="none" fill="#ffffff" fill-rule="evenodd"/>
</svg>