<svg xmlns="http://www.w3.org/2000/svg" width="1000" height="234" viewBox="0 0 1000 234" version="1.1">
	<path d="M 168.311 9.896 C 165.458 10.252, 162.825 10.841, 162.462 11.205 C 162.098 11.568, 161.829 18.984, 161.864 27.683 C 161.898 36.383, 161.587 44.051, 161.171 44.723 C 160.756 45.394, 156.481 47.085, 151.670 48.479 C 119.613 57.769, 96.776 81.154, 90.630 110.986 L 89.500 116.472 79 118.637 C 52.572 124.088, 31.143 138.574, 18.534 159.513 C 13.704 167.534, 14.090 169.191, 19.300 162.801 C 24.856 155.984, 30.517 151.719, 37.718 148.923 C 42.841 146.933, 45.803 146.626, 63.725 146.224 C 74.849 145.975, 85.087 146.056, 86.475 146.404 L 89 147.038 89 162.448 C 89 175.123, 89.279 178.136, 90.571 179.429 C 92.568 181.425, 113.862 181.738, 115.800 179.800 C 116.634 178.966, 117 173.672, 117 162.422 C 117 150.676, 117.342 145.973, 118.250 145.253 C 118.938 144.708, 121.975 143.691, 125 142.992 C 132.415 141.281, 146.368 135.212, 152.500 131.032 C 172.325 117.517, 185.044 98.899, 187.834 79.309 L 188.519 74.500 197.509 72.745 C 208.853 70.531, 214.737 68.621, 223.304 64.374 C 238.344 56.918, 249.932 46.787, 258.914 33.244 C 265.072 23.957, 266.002 18.878, 260.013 27.243 C 255.575 33.439, 248.760 38.891, 241.981 41.666 C 238.064 43.269, 234.483 43.500, 213.534 43.500 L 189.569 43.500 189.534 27.800 C 189.514 18.667, 189.082 11.711, 188.500 11.169 C 187.129 9.892, 174.641 9.105, 168.311 9.896 M 175.159 12.241 C 174.476 12.924, 171.798 13.487, 169.209 13.491 L 164.500 13.500 164.439 24 C 164.359 37.916, 164.883 40.235, 168.386 41.467 C 170.590 42.242, 171.443 42.120, 172.347 40.901 C 172.981 40.046, 174.577 39.069, 175.894 38.729 C 177.691 38.266, 178.003 38.397, 177.144 39.256 C 174.970 41.430, 176.012 42.174, 180.233 41.461 C 185.370 40.593, 187.950 37.912, 184.785 36.731 C 182.864 36.014, 182.835 35.840, 184.362 34.152 C 186.640 31.635, 186.758 17, 184.500 17 C 183.675 17, 183 16.550, 183 16 C 183 15.450, 183.675 15, 184.500 15 C 185.325 15, 186 14.550, 186 14 C 186 12.405, 180.997 12.844, 180.364 14.494 C 179.608 16.464, 178 15.407, 178 12.941 C 178 10.712, 176.947 10.453, 175.159 12.241 M 265.079 19.583 C 265.127 20.748, 265.364 20.985, 265.683 20.188 C 265.972 19.466, 265.936 18.603, 265.604 18.271 C 265.272 17.939, 265.036 18.529, 265.079 19.583 M 430.500 36.608 C 420.007 39.325, 417.481 40.437, 413.536 44.073 C 408.400 48.808, 405.372 55.365, 404.027 64.668 C 402.776 73.320, 402.752 134.115, 403.995 143.685 C 405.653 156.441, 410.866 164.162, 421 168.867 C 425.813 171.101, 428.152 171.471, 439.728 171.825 C 454.773 172.286, 472.345 170.512, 474.547 168.310 C 476.264 166.593, 476.554 155.904, 474.965 152.934 C 473.997 151.125, 472.688 151, 454.715 150.998 C 426.494 150.996, 425.707 150.335, 426.221 127.084 L 426.500 114.500 448.921 114.230 C 463.406 114.056, 471.813 113.570, 472.671 112.858 C 474.417 111.409, 474.479 98.026, 472.750 95.701 C 471.654 94.227, 468.724 93.988, 449 93.760 L 426.500 93.500 426.193 81 C 426.018 73.878, 426.359 66.885, 426.984 64.746 C 428.942 58.055, 430.731 57.547, 453.725 57.147 C 472.937 56.813, 474.099 56.684, 475.128 54.761 C 476.176 52.802, 475.972 40.639, 474.873 39.540 C 472.869 37.536, 436.257 35.117, 430.500 36.608 M 847.988 37.001 C 837.392 38.798, 829.111 45.394, 825.284 55.087 C 823.743 58.987, 823.503 64.429, 823.220 101.903 C 822.912 142.481, 822.988 144.602, 824.977 151.150 C 828.167 161.654, 834.499 167.717, 845.275 170.585 C 854.995 173.173, 889.836 171.851, 893.750 168.747 C 895.050 167.715, 895.534 155.555, 894.393 152.582 C 893.868 151.215, 891.152 151, 874.361 151 C 845.746 151, 845.517 150.818, 845.506 128 L 845.500 114.500 867.921 114.230 C 882.406 114.056, 890.813 113.570, 891.671 112.858 C 893.403 111.420, 893.509 96.909, 891.800 95.200 C 890.938 94.338, 884.315 94, 868.319 94 L 846.038 94 845.386 91.401 C 845.027 89.972, 844.953 83.467, 845.222 76.947 C 846.010 57.809, 846.200 57.678, 874 57 L 894.500 56.500 894.791 48.241 C 895.067 40.375, 894.970 39.939, 892.739 39.091 C 885.922 36.499, 858.495 35.218, 847.988 37.001 M 938.123 37.470 C 934.616 38.271, 929.216 40.424, 926.123 42.254 C 908.346 52.774, 907.341 83.006, 924.292 97.313 C 927.157 99.731, 936.770 106.483, 945.656 112.318 C 954.836 118.346, 962.824 124.346, 964.156 126.213 C 966.068 128.894, 966.499 130.760, 966.494 136.338 C 966.488 142.766, 966.296 143.347, 963.283 146.039 C 957.936 150.816, 953.703 151.426, 934.604 150.172 C 925.312 149.561, 917.324 149.300, 916.854 149.590 C 915.433 150.468, 915.818 166.604, 917.289 167.825 C 921.219 171.087, 949.231 173.198, 960.128 171.055 C 973.188 168.485, 982.611 161.451, 987.664 150.500 C 990.095 145.230, 990.435 143.283, 990.457 134.500 C 990.480 125.557, 990.177 123.836, 987.590 118.218 C 983.743 109.862, 976.623 103.395, 960.383 93.509 C 938.114 79.952, 935 77.069, 935 70 C 935 66.164, 937.374 61.406, 939.983 60.009 C 944.576 57.551, 952.433 57.016, 968.780 58.047 C 980.697 58.799, 985.615 58.785, 986.405 57.995 C 988.125 56.275, 987.802 42.370, 986 40.589 C 982.416 37.047, 949.395 34.896, 938.123 37.470 M 313 38.058 C 308.875 38.558, 304.484 39.502, 303.243 40.156 L 300.986 41.346 301.243 105.923 L 301.500 170.500 312 170.500 L 322.500 170.500 322.766 142.765 L 323.032 115.030 325.266 114.510 C 326.495 114.224, 330.416 114.329, 333.980 114.745 L 340.460 115.500 346.980 130.094 C 350.566 138.121, 356.134 150.609, 359.352 157.844 L 365.205 171 376.634 171 C 385.224 171, 388.190 170.669, 388.573 169.669 C 388.854 168.938, 384.959 160.050, 379.918 149.919 C 369.105 128.192, 364 117.186, 364 115.603 C 364 114.971, 365.591 113.598, 367.535 112.551 C 372.580 109.834, 378.745 102.776, 381.840 96.175 C 384.276 90.979, 384.500 89.446, 384.500 78 C 384.500 66.084, 384.354 65.193, 381.388 58.932 C 378.179 52.160, 372.685 45.933, 367.587 43.290 C 358.630 38.646, 353.849 37.732, 337 37.437 C 327.925 37.279, 317.125 37.558, 313 38.058 M 528.684 38.399 C 519.757 41.699, 518.152 45.044, 510.592 76.105 C 496.319 134.749, 489.627 163.676, 489.565 167 C 489.500 170.478, 489.532 170.503, 494.500 171 C 497.250 171.275, 502.196 171.275, 505.491 171 L 511.482 170.500 518.596 138.500 C 522.508 120.900, 528.015 95.957, 530.833 83.072 C 533.651 70.186, 536.386 59.214, 536.911 58.689 C 539.411 56.189, 540.766 59.456, 544.777 77.646 C 547.063 88.016, 552.545 112.899, 556.959 132.942 C 561.372 152.985, 565.411 169.811, 565.934 170.334 C 567.306 171.706, 585.846 171.554, 587.239 170.161 C 588.088 169.312, 586.909 162.883, 582.579 144.762 C 579.391 131.418, 573.205 105.425, 568.832 87 C 564.319 67.984, 559.784 51.208, 558.342 48.199 C 554.623 40.435, 549.853 37.575, 540.073 37.244 C 535.407 37.086, 531.035 37.530, 528.684 38.399 M 600.454 39.326 C 600.133 40.606, 600.021 65.243, 600.204 94.076 C 600.537 146.287, 600.548 146.524, 602.872 152.332 C 605.924 159.961, 609.847 164.286, 616.818 167.710 C 622.113 170.310, 623.499 170.523, 637.166 170.840 C 651.870 171.181, 665.253 169.865, 667.695 167.838 C 669.728 166.151, 669.491 151.403, 667.418 150.607 C 666.548 150.273, 658.111 149.993, 648.668 149.985 C 629.501 149.969, 627.500 149.467, 624.752 143.986 C 623.157 140.806, 623.003 136.096, 623.002 90.332 C 623.001 62.739, 622.727 39.452, 622.393 38.582 C 621.893 37.280, 619.949 37, 611.412 37 C 601.387 37, 601.018 37.078, 600.454 39.326 M 687.250 38.031 L 685 38.936 685 104.361 C 685 163.098, 685.162 169.848, 686.582 170.393 C 687.452 170.727, 691.897 171, 696.459 171 C 702.957 171, 705.053 170.641, 706.128 169.346 C 707.259 167.982, 707.500 156.478, 707.500 103.765 C 707.500 29.905, 708.656 36.955, 696.559 37.063 C 692.676 37.098, 688.487 37.534, 687.250 38.031 M 727 37.873 C 724.560 38.573, 724.500 38.818, 724.500 48.045 L 724.500 57.500 740 58 L 755.500 58.500 755.759 113.408 C 755.940 151.933, 756.350 168.716, 757.131 169.658 C 758.446 171.243, 774.600 171.538, 777 170.022 C 778.294 169.204, 778.569 161.472, 779 113.787 L 779.500 58.500 794.640 58.225 C 808.926 57.965, 809.810 57.834, 810.314 55.907 C 811.074 53.003, 810.513 39.180, 809.599 38.265 C 808.623 37.287, 730.337 36.916, 727 37.873 M 325.250 59.031 C 323.041 59.919, 323 60.243, 323 76.861 C 323 91.372, 323.226 93.873, 324.582 94.393 C 327.702 95.591, 344.677 94.988, 349.681 93.502 C 359.291 90.648, 362.274 86.607, 362.093 76.688 C 361.919 67.104, 357.892 61.854, 348.874 59.454 C 342.931 57.872, 328.764 57.619, 325.250 59.031 M 123.637 75.442 C 120.962 76.160, 118.381 77.367, 117.902 78.124 C 117.423 78.881, 117.024 87.704, 117.015 97.731 L 117 115.962 119.584 116.610 C 123.392 117.566, 152.904 116.354, 157.151 115.067 C 159.158 114.459, 161.025 113.378, 161.298 112.665 C 162.227 110.244, 161.981 79.081, 161.013 76.534 L 160.050 74 144.275 74.067 C 134.654 74.109, 126.603 74.645, 123.637 75.442 M 175.691 78.478 C 173.567 79.585, 172.449 79.673, 171.110 78.836 C 169.721 77.969, 168.869 78.132, 167.169 79.587 C 165.317 81.173, 165 82.495, 165 88.639 C 165 93.268, 165.420 95.973, 166.177 96.226 C 166.835 96.445, 167.017 97.164, 166.588 97.858 C 166 98.809, 165.494 98.825, 164.411 97.926 C 163.272 96.981, 163 97.164, 163 98.878 C 163 100.045, 163.613 101, 164.361 101 C 165.299 101, 165.563 101.835, 165.210 103.680 L 164.698 106.359 167.099 104.111 C 169.484 101.877, 169.502 101.876, 169.820 103.931 C 170.147 106.049, 172 106.879, 172 104.908 C 172 103.267, 175.637 98.970, 176.389 99.722 C 176.749 100.082, 176.921 99.291, 176.772 97.965 C 176.593 96.376, 177.012 95.544, 178 95.527 C 178.825 95.512, 179.500 94.921, 179.500 94.214 C 179.500 93.506, 180.057 92.583, 180.738 92.162 C 181.710 91.561, 181.719 90.717, 180.783 88.237 C 179.537 84.936, 180.454 82.498, 182 85 C 183.663 87.691, 184.330 85.030, 183.002 81.005 C 181.556 76.625, 180.165 76.144, 175.691 78.478 M 111.542 83.868 C 111.170 85.041, 110.235 86, 109.464 86 C 108.629 86, 108.295 86.606, 108.638 87.500 C 108.955 88.325, 108.746 89, 108.174 89 C 107.603 89, 106.849 89.900, 106.500 91 C 105.795 93.222, 103.414 93.694, 102.720 91.750 C 102.475 91.063, 101.905 90.845, 101.454 91.267 C 101.002 91.688, 101.166 92.566, 101.817 93.217 C 103.473 94.873, 103.293 96.326, 101.515 95.644 C 99.776 94.977, 97.576 98.452, 98.392 100.578 C 99.081 102.375, 98.063 105.157, 96.964 104.478 C 96.510 104.197, 95.875 104.394, 95.553 104.915 C 95.231 105.436, 95.408 106.134, 95.946 106.467 C 96.572 106.854, 96.520 107.960, 95.800 109.540 C 95.181 110.898, 94.927 112.260, 95.234 112.567 C 95.942 113.275, 104.340 113.538, 109.192 113.005 C 113.833 112.495, 114.051 111.703, 113.858 96.135 C 113.708 84.127, 112.870 79.685, 111.542 83.868 M 104.500 88 C 104.160 88.550, 104.584 89, 105.441 89 C 106.298 89, 107 88.550, 107 88 C 107 87.450, 106.577 87, 106.059 87 C 105.541 87, 104.840 87.450, 104.500 88 M 170.500 99 C 170.160 99.550, 170.359 100, 170.941 100 C 171.523 100, 172 99.550, 172 99 C 172 98.450, 171.802 98, 171.559 98 C 171.316 98, 170.840 98.450, 170.500 99 M 108 148.884 C 108 149.443, 105.322 150.204, 102.050 150.574 C 97.786 151.056, 95.976 151.708, 95.666 152.874 C 95.293 154.272, 95.216 154.254, 95.116 152.750 C 95.052 151.787, 94.277 151, 93.393 151 C 92.391 151, 91.998 151.553, 92.349 152.468 C 92.659 153.275, 92.557 154.156, 92.122 154.425 C 90.969 155.137, 90.848 162.847, 91.958 164.921 C 92.573 166.071, 92.514 167.973, 91.789 170.337 C 90.827 173.471, 90.931 174.266, 92.535 176.038 C 94.202 177.880, 95.419 178.075, 104.090 177.881 L 113.782 177.665 113.641 163.082 L 113.500 148.500 110.750 148.184 C 109.237 148.010, 108 148.325, 108 148.884 M 290.333 197.456 C 285.338 199.629, 283.002 202.657, 281.834 208.471 C 280.868 213.284, 280.986 214.340, 282.947 218.391 C 285.546 223.759, 289.366 226.002, 295.904 225.996 C 304.420 225.989, 308.982 220.976, 307.837 212.881 C 307.537 210.765, 306.915 210.466, 302.250 210.198 C 298.128 209.960, 297 210.216, 297 211.387 C 297 212.389, 298.231 212.981, 300.750 213.190 C 303.983 213.457, 304.543 213.871, 304.811 216.189 C 305.271 220.174, 301.965 223, 296.844 223 C 291.643 223, 287.007 219.682, 285.193 214.661 C 282.385 206.888, 290.242 197.825, 298.297 199.546 C 300.059 199.923, 302.082 200.700, 302.792 201.273 C 303.698 202.003, 304.432 201.968, 305.242 201.158 C 306.691 199.709, 305.587 198.636, 301.101 197.136 C 296.735 195.677, 294.254 195.750, 290.333 197.456 M 574 196.650 C 570.570 198.047, 569 200.396, 569 204.132 C 569 208.710, 571.642 210.889, 578.212 211.728 C 580.570 212.029, 583.743 212.903, 585.261 213.669 C 587.572 214.836, 587.919 215.506, 587.391 217.781 C 587.044 219.277, 586.053 221.063, 585.189 221.750 C 582.716 223.717, 575.640 223.291, 572.727 221 C 569.827 218.719, 567.993 218.427, 568.015 220.250 C 568.057 223.649, 572.563 226, 579.036 226 C 587.660 226, 591.778 222.469, 590.833 215.886 C 590.432 213.093, 584.690 209, 581.173 209 C 576.486 209, 572 206.777, 572 204.454 C 572 199.554, 578.566 197.482, 584.421 200.535 C 587.975 202.389, 590.363 200.934, 587.866 198.437 C 586.248 196.820, 576.628 195.580, 574 196.650 M 973.500 196.666 C 968.032 198.126, 965.028 205.171, 968.425 208.568 C 970.324 210.467, 974.511 211.999, 977.815 212.004 C 979.292 212.006, 981.953 212.893, 983.729 213.976 C 987.133 216.052, 987.238 217.704, 984.193 221.250 C 981.955 223.856, 973.652 223.652, 970.923 220.923 C 968.809 218.809, 965.503 219.010, 966.236 221.207 C 967.533 225.100, 979.725 227.449, 985.343 224.890 C 988.466 223.466, 990.254 220.104, 989.832 216.445 C 989.411 212.793, 984.038 209, 979.286 209 C 974.569 209, 970.070 206.452, 970.015 203.750 C 970.007 203.338, 970.900 202.100, 972 201 C 974.463 198.537, 980.600 198.328, 983.134 200.621 C 984.942 202.257, 988 201.909, 988 200.067 C 988 197.693, 978.232 195.402, 973.500 196.666 M 11 211.500 L 11 226 20.500 226 C 28.986 226, 30 225.808, 30 224.198 C 30 222.627, 29.132 222.412, 23.250 222.520 C 19.538 222.588, 15.938 222.450, 15.250 222.215 C 14.340 221.903, 14 218.412, 14 209.393 C 14 199.044, 13.753 197, 12.500 197 C 11.236 197, 11 199.278, 11 211.500 M 43.975 199.565 C 43.439 200.976, 43 202.776, 43 203.565 C 43 205.590, 44.953 205.353, 45.604 203.250 C 45.902 202.287, 46.563 200.719, 47.073 199.764 C 48.335 197.399, 48.249 197, 46.475 197 C 45.637 197, 44.512 198.154, 43.975 199.565 M 62.940 197.750 C 62.907 198.162, 62.882 204.575, 62.884 212 C 62.887 223.410, 63.128 225.550, 64.444 225.823 C 65.796 226.104, 66 224.233, 66 211.573 C 66 199.286, 65.765 197, 64.500 197 C 63.675 197, 62.973 197.338, 62.940 197.750 M 83 211.573 C 83 224.620, 83.174 226.113, 84.662 225.823 C 86.064 225.550, 86.294 224.253, 86.137 217.500 C 86.034 213.100, 85.685 207.588, 85.362 205.250 C 84.944 202.234, 85.130 201, 86.003 201 C 86.776 201, 87.056 201.929, 86.755 203.500 C 86.382 205.454, 86.690 206, 88.170 206 C 89.211 206, 90.361 206.787, 90.725 207.750 C 91.090 208.713, 91.863 210.011, 92.444 210.636 C 93.025 211.262, 95.965 214.974, 98.979 218.886 C 101.992 222.799, 104.804 226, 105.229 226 C 105.653 226, 106 219.475, 106 211.500 C 106 198.334, 105.838 197, 104.243 197 C 102.684 197, 102.526 197.894, 102.844 204.907 C 103.248 213.797, 102.245 217.146, 99.910 214.700 C 99.135 213.887, 97.600 211.963, 96.500 210.425 C 94.206 207.217, 89.814 201.739, 88.943 201 C 88.619 200.725, 88.064 199.713, 87.708 198.750 C 87.353 197.787, 86.149 197, 85.031 197 C 83.082 197, 83 197.592, 83 211.573 M 120.667 197.667 C 119.018 199.315, 120.388 200, 125.336 200 L 130.671 200 130.553 213 C 130.445 224.980, 130.579 226, 132.268 226 C 133.958 226, 134.088 225.007, 133.932 213.250 L 133.763 200.500 138.882 200.198 C 142.543 199.982, 144 199.483, 144 198.448 C 144 197.269, 141.892 197, 132.667 197 C 126.433 197, 121.033 197.300, 120.667 197.667 M 158 211.500 L 158 226.070 168.250 225.785 C 176.568 225.554, 178.500 225.217, 178.500 224 C 178.500 222.824, 176.667 222.392, 170 222 L 161.500 221.500 161.294 217.782 C 161.180 215.737, 161.630 213.728, 162.294 213.318 C 162.957 212.908, 166.762 212.708, 170.750 212.874 C 177.532 213.157, 178 213.042, 178 211.088 C 178 209.136, 177.452 209, 169.560 209 L 161.121 209 161.310 204.750 L 161.500 200.500 170 200.367 C 176.456 200.266, 178.500 199.905, 178.500 198.867 C 178.500 197.818, 176.111 197.434, 168.250 197.215 L 158 196.930 158 211.500 M 194.094 211.536 L 194.085 226.071 203.792 225.786 C 211.628 225.555, 213.500 225.211, 213.500 224 C 213.500 222.775, 212.195 222.563, 206.369 222.846 C 201.678 223.074, 198.991 222.794, 198.517 222.028 C 198.121 221.387, 197.812 215.494, 197.829 208.932 C 197.858 197.913, 197.716 197, 195.981 197 C 194.230 197, 194.102 197.983, 194.094 211.536 M 228.305 211.535 L 228.251 226.069 237.876 225.785 C 245.637 225.555, 247.500 225.210, 247.500 224 C 247.500 222.792, 246.298 222.566, 241.322 222.840 C 231.661 223.372, 231.618 223.309, 231.903 209.115 C 232.130 197.808, 232.019 197, 230.252 197 C 228.484 197, 228.355 197.958, 228.305 211.535 M 263 211.500 C 263 223.722, 263.236 226, 264.500 226 C 265.764 226, 266 223.722, 266 211.500 C 266 199.278, 265.764 197, 264.500 197 C 263.236 197, 263 199.278, 263 211.500 M 323 211.500 L 323 226 333.500 226 C 343.264 226, 344 225.863, 344 224.039 C 344 222.262, 343.177 222.051, 335.250 221.789 L 326.500 221.500 326.182 218.185 C 325.682 212.973, 326.957 212.233, 335.498 212.782 C 342.503 213.231, 343 213.130, 343 211.255 C 343 209.432, 342.294 209.234, 335.324 209.099 C 330.136 208.999, 327.399 209.354, 326.879 210.196 C 325.585 212.289, 325.261 210.741, 325.895 205.500 L 326.500 200.500 335 200.369 C 341.966 200.262, 343.558 199.946, 343.823 198.619 C 344.105 197.209, 342.784 197, 333.573 197 L 323 197 323 211.500 M 361 210.500 C 361 217.925, 360.976 224.338, 360.947 224.750 C 360.918 225.162, 361.631 225.653, 362.531 225.839 C 363.974 226.139, 364.134 225.013, 363.882 216.344 C 363.637 207.940, 363.830 206.464, 365.211 206.198 C 366.210 206.005, 368.081 207.710, 370.118 210.671 C 371.928 213.302, 374.104 216.317, 374.955 217.370 C 379.430 222.916, 382.285 226, 382.946 226 C 383.352 226, 383.735 219.475, 383.797 211.500 C 383.905 197.545, 383.833 197, 381.873 197 C 379.940 197, 379.866 197.434, 380.394 205.676 C 380.967 214.616, 380.424 219.380, 378.937 218.461 C 378.470 218.172, 378.341 217.275, 378.651 216.468 C 379.002 215.553, 378.609 215, 377.607 215 C 376.723 215, 376 214.425, 376 213.723 C 376 213.020, 374.762 211.025, 373.250 209.288 C 371.738 207.552, 368.985 204.076, 367.133 201.565 C 361.627 194.099, 361 195.013, 361 210.500 M 406.637 198.143 C 403.701 199.850, 401 202.867, 401 204.441 C 401 205.234, 400.550 206.160, 400 206.500 C 399.450 206.840, 399 209.090, 399 211.500 C 399 213.910, 399.450 216.160, 400 216.500 C 400.550 216.840, 401 217.766, 401 218.559 C 401 220.154, 403.517 222.831, 406.821 224.750 C 410.940 227.143, 424.646 225.347, 423.663 222.544 C 423.292 221.483, 422.427 221.489, 415.728 222.599 C 410.407 223.481, 406.289 221.487, 403.947 216.897 C 402.876 214.797, 402 212.364, 402 211.490 C 402 209.070, 404.955 203.710, 407.358 201.772 C 409.716 199.871, 418.458 199.315, 419.500 201 C 420.462 202.556, 423 202.176, 423 200.475 C 423 199.637, 421.846 198.512, 420.435 197.975 C 417.042 196.685, 408.978 196.783, 406.637 198.143 M 439 211.535 L 439 226.070 449.238 225.785 C 457.966 225.542, 459.525 225.248, 459.804 223.790 C 460.090 222.298, 459.007 222.043, 451.316 221.790 L 442.500 221.500 442.177 218.123 C 442 216.265, 442.335 214.265, 442.922 213.678 C 443.509 213.091, 447.245 212.586, 451.225 212.555 C 457.292 212.509, 458.516 212.217, 458.804 210.750 C 459.109 209.192, 458.200 209, 450.516 209 L 441.885 209 442.193 204.750 L 442.500 200.500 451.250 200.211 C 458.126 199.984, 460 199.609, 460 198.461 C 460 197.272, 458.042 197, 449.500 197 L 439 197 439 211.535 M 492 211.500 L 492 226 498.179 226 C 501.577 226, 505.965 225.442, 507.929 224.759 C 511.848 223.398, 515.997 219.383, 515.999 216.950 C 515.999 216.097, 516.515 214.885, 517.145 214.255 C 518.006 213.394, 517.968 211.914, 516.993 208.305 C 514.634 199.567, 510.674 197, 499.550 197 L 492 197 492 211.500 M 532 210.465 C 532 217.909, 532 224.338, 532 224.750 C 532 225.162, 536.612 225.500, 542.250 225.500 C 550.694 225.500, 552.500 225.236, 552.500 224 C 552.500 222.824, 550.667 222.392, 544 222 L 535.500 221.500 535.467 218.209 C 535.413 212.937, 536.123 212.514, 544.449 212.861 C 551.469 213.154, 552 213.034, 552 211.150 C 552 209.262, 551.431 209.137, 543.607 209.312 L 535.213 209.500 535.513 205.500 C 535.678 203.300, 535.855 201.162, 535.907 200.750 C 535.958 200.338, 539.862 200, 544.583 200 C 551.004 200, 553.062 199.685, 552.752 198.750 C 552.465 197.885, 549.203 197.412, 542.169 197.215 L 532 196.930 532 210.465 M 622.667 197.667 C 621.131 199.202, 622.270 199.908, 626.750 200.195 L 631.500 200.500 631.500 213.251 C 631.500 225.808, 631.534 226.002, 633.750 226.001 C 635.968 226, 636 225.814, 636 213 L 636 200 641 200 C 644.778 200, 646 199.633, 646 198.500 C 646 197.255, 644.074 197, 634.667 197 C 628.433 197, 623.033 197.300, 622.667 197.667 M 659.500 211.250 L 659.500 225.500 669.750 225.785 C 679.419 226.054, 680 225.957, 680 224.075 C 680 222.267, 679.229 222.054, 671.750 221.790 L 663.500 221.500 663.396 218.548 C 663.182 212.439, 663.398 212.296, 672.072 212.798 C 679.591 213.233, 680 213.149, 680 211.169 C 680 209.246, 679.355 209.058, 671.830 208.790 L 663.660 208.500 663.580 204.500 L 663.500 200.500 671.750 200.210 C 678.182 199.983, 680 199.598, 680 198.460 C 680 197.275, 678.068 197, 669.750 197 L 659.500 197 659.500 211.250 M 695.866 197.750 C 695.792 198.162, 695.680 204.687, 695.616 212.250 L 695.500 226 697.889 226 C 700.195 226, 700.260 225.798, 699.748 220.154 L 699.218 214.308 703.342 215.063 C 705.984 215.546, 708.012 216.646, 708.983 218.125 C 711.565 222.053, 716.203 226, 718.237 226 C 720 226, 719.929 225.701, 717.465 222.750 C 715.973 220.963, 714.133 219.140, 713.376 218.700 C 711.192 217.431, 711.773 215.037, 714.518 213.993 C 719.709 212.020, 720.474 204.180, 715.894 199.901 C 712.978 197.177, 712.277 197, 704.394 197 C 699.777 197, 695.940 197.338, 695.866 197.750 M 734.124 211.554 C 734.189 224.529, 734.376 226.073, 735.848 225.781 C 737.192 225.514, 737.504 224.152, 737.522 218.476 C 737.534 214.639, 737.646 208.912, 737.772 205.750 L 738 200 744 200 C 750.886 200, 754 202.105, 754 206.759 C 754 210.589, 750.704 212.500, 744.097 212.500 C 740.670 212.500, 738.536 212.957, 738.263 213.750 C 737.974 214.593, 738.965 215, 741.304 215 C 744.307 215, 745.362 215.734, 749.137 220.453 C 752.034 224.073, 754.256 225.921, 755.750 225.953 C 756.987 225.979, 758 225.844, 758 225.652 C 758 225.461, 755.991 223.099, 753.535 220.402 L 749.070 215.500 752.004 214.260 C 753.618 213.577, 755.669 211.606, 756.562 209.879 C 758.067 206.970, 758.062 206.463, 756.493 202.985 C 754.292 198.104, 751.614 197, 741.979 197 L 734.052 197 734.124 211.554 M 772.500 211.499 C 772.500 224.640, 772.664 225.998, 774.250 225.999 C 775.836 226, 776 224.643, 776 211.500 C 776 198.357, 775.836 197, 774.250 197 C 772.664 196.999, 772.500 198.356, 772.500 211.499 M 791 198.500 C 791 199.633, 792.222 200, 796 200 C 801.742 200, 801.202 198.301, 801.005 215.750 C 800.895 225.463, 800.996 226, 802.944 226 C 804.913 226, 805 225.451, 805 213 L 805 200 810 200 C 813.778 200, 815 199.633, 815 198.500 C 815 197.250, 813 197, 803 197 C 793 197, 791 197.250, 791 198.500 M 832.606 200.250 C 829.353 203.086, 828.807 204.211, 828.316 209.089 C 827.283 219.346, 832.713 225.989, 842.136 225.996 C 847.601 226.001, 851.130 224.376, 854.238 220.424 C 856.028 218.148, 856.495 216.293, 856.474 211.524 C 856.431 201.543, 851.815 197, 841.716 197 C 837.074 197, 835.820 197.447, 832.606 200.250 M 872.500 211.500 C 872.500 224.642, 872.664 226, 874.250 226 C 875.836 226, 876 224.643, 876 211.500 C 876 198.357, 875.836 197, 874.250 197 C 872.664 197, 872.500 198.357, 872.500 211.500 M 892.300 211.236 C 892.478 223.929, 892.690 225.509, 894.257 225.811 C 895.873 226.122, 895.994 225.075, 895.757 212.825 L 895.500 199.500 901.435 199.848 C 911.056 200.413, 914.616 204.548, 910.187 210.017 C 908.711 211.840, 907.288 212.278, 902.521 212.378 C 898.820 212.455, 896.513 212.960, 896.250 213.750 C 895.973 214.581, 896.937 215, 899.128 215 C 901.835 215, 903.337 215.982, 907.542 220.500 C 910.357 223.525, 913.412 226, 914.330 226 C 916.892 226, 916.351 224.887, 911.411 220 L 906.862 215.500 910.354 214.144 C 916.781 211.647, 917.515 204.294, 911.814 199.497 C 909.167 197.269, 907.943 197, 900.473 197 L 892.099 197 892.300 211.236 M 930.940 197.715 C 930.907 198.147, 930.883 204.575, 930.886 212 L 930.892 225.500 940.946 225.785 C 950.419 226.054, 951 225.955, 951 224.075 C 951 222.267, 950.229 222.054, 942.750 221.790 L 934.500 221.500 934.500 217.015 L 934.500 212.530 942.111 212.847 C 948.398 213.110, 949.831 212.883, 950.345 211.545 C 951.225 209.250, 949.121 208.725, 940.745 209.149 L 933.500 209.517 933.844 204.796 L 934.188 200.075 942.600 199.788 C 954.660 199.375, 953.708 197.561, 941.250 197.215 C 935.612 197.058, 930.973 197.283, 930.940 197.715 M 495.646 202 C 495.751 203.375, 495.874 208.438, 495.919 213.250 L 496 222 499.875 222 C 509.928 222, 513.428 219.090, 513.304 210.834 C 513.200 203.948, 508.913 200.399, 499.977 199.802 C 495.697 199.516, 495.464 199.634, 495.646 202 M 699.792 205.750 C 700.043 208.912, 700.386 211.656, 700.554 211.847 C 700.722 212.037, 703.122 212.176, 705.888 212.154 C 712.762 212.101, 715 210.742, 715 206.620 C 715 201.713, 712.501 200, 705.339 200 L 699.335 200 699.792 205.750 M 834.554 202.943 C 832.088 205.517, 831.751 206.603, 831.866 211.589 C 832.008 217.753, 832.853 219.356, 837.128 221.566 C 844.067 225.155, 851.334 221.921, 853.006 214.500 C 854.157 209.392, 853.390 206.196, 850.184 202.750 C 848.036 200.440, 846.805 200, 842.500 200 C 838.132 200, 836.957 200.435, 834.554 202.943 M 363.079 202.583 C 363.127 203.748, 363.364 203.985, 363.683 203.188 C 363.972 202.466, 363.936 201.603, 363.604 201.271 C 363.272 200.939, 363.036 201.529, 363.079 202.583" stroke="none" fill="#ffffff" fill-rule="evenodd"/>
</svg>