<svg xmlns="http://www.w3.org/2000/svg" width="1000" height="236" viewBox="0 0 1000 236" version="1.1">
	<path d="M 162.582 10.316 C 161.507 11.103, 160.981 12.410, 161.275 13.566 C 161.731 15.353, 161.777 15.341, 161.884 13.403 C 161.948 12.249, 163.012 10.817, 164.250 10.220 C 165.488 9.624, 166.024 9.105, 165.441 9.068 C 164.859 9.030, 163.572 9.592, 162.582 10.316 M 167.107 9.441 C 167.832 10.166, 181.976 10.358, 182.681 9.652 C 183.040 9.293, 179.583 9, 175 9 C 170.417 9, 166.865 9.198, 167.107 9.441 M 184.500 10 C 184.840 10.550, 185.766 11, 186.559 11 C 187.754 11, 188 13.740, 188 27.031 C 188 38.980, 187.682 43.163, 186.750 43.456 C 186.063 43.673, 180.236 44.048, 173.802 44.291 C 162.517 44.716, 162.089 44.657, 161.688 42.616 L 161.272 40.500 161.136 42.628 C 160.956 45.444, 159.483 46.471, 153.549 47.921 C 132.212 53.133, 112.595 66.865, 100.879 84.791 C 95.586 92.890, 90.555 105.001, 89.482 112.225 C 88.814 116.723, 88.605 116.977, 85.140 117.506 C 56.584 121.859, 33.176 136.189, 19.136 157.910 C 15.256 163.914, 8.945 178.495, 9.049 181.218 C 9.076 181.923, 10.185 179.675, 11.513 176.223 C 16.515 163.226, 23.378 155.521, 34.664 150.234 C 40.433 147.531, 40.773 147.496, 64.250 147.185 L 88 146.869 88 162.863 C 88 176.070, 88.274 179.131, 89.571 180.429 C 90.821 181.678, 93.542 182, 102.871 182 C 110.660 182, 115.003 181.597, 115.800 180.800 C 116.641 179.959, 117 174.426, 117 162.319 L 117 145.038 119.750 144.444 C 121.263 144.117, 126.770 142.423, 131.988 140.679 C 159.268 131.566, 181.713 107.655, 187.529 81.513 L 189.129 74.322 199.421 72.292 C 216.686 68.887, 232.068 61.262, 244.165 50.112 C 254.698 40.404, 262.554 28.422, 267.155 15.050 C 269.666 7.751, 268.082 9.753, 264.502 18.403 C 260.710 27.566, 252.245 36.719, 244.244 40.310 C 235.973 44.022, 226.972 45.103, 207 44.781 L 189.500 44.500 189.235 28 C 189.010 13.924, 188.725 11.316, 187.294 10.250 C 185.284 8.751, 183.637 8.604, 184.500 10 M 428.650 37.049 C 421.785 38.201, 413.556 42.502, 410.028 46.782 C 403.648 54.522, 403.500 55.831, 403.500 104.500 C 403.500 154.123, 403.519 154.268, 411.179 162.578 C 417.747 169.704, 422.977 171.334, 440.798 171.808 C 456.098 172.216, 471.289 170.824, 473.750 168.789 C 475.399 167.426, 475.440 153.840, 473.800 152.200 C 472.952 151.352, 467.082 151, 453.768 151 C 425.832 151, 425.517 150.744, 425.506 128 L 425.500 114.500 449 114 L 472.500 113.500 472.792 105.153 C 472.977 99.859, 472.658 96.293, 471.920 95.403 C 470.982 94.274, 466.291 94, 447.878 94 L 425 94 425.044 82.750 C 425.100 68.215, 426.090 63.180, 429.462 60.279 C 432.024 58.075, 432.757 58, 451.622 58 C 463.158 58, 471.922 57.577, 473.066 56.965 C 474.730 56.074, 475 54.816, 475 47.940 C 475 40.325, 474.882 39.906, 472.484 38.994 C 466.149 36.585, 438.678 35.366, 428.650 37.049 M 846.054 37.557 C 837.152 39.487, 831.206 43.394, 827.327 49.863 C 822.244 58.339, 821.776 63.695, 822.205 108.500 C 822.636 153.428, 822.718 153.990, 830.037 162.305 C 836.507 169.655, 841.731 171.327, 859.728 171.807 C 874.014 172.188, 889.960 170.879, 892.859 169.087 C 893.711 168.560, 893.997 165.759, 893.793 159.914 L 893.500 151.500 872.500 150.975 C 860.950 150.687, 850.696 150.070, 849.713 149.604 C 845.899 147.797, 845 143.786, 845 128.568 L 845 114.037 868.250 113.768 L 891.500 113.500 891.791 104.585 C 892.002 98.127, 891.727 95.443, 890.791 94.850 C 890.081 94.399, 879.456 94.024, 867.180 94.015 L 844.859 94 845.180 78.411 L 845.500 62.822 848.306 60.411 C 851.071 58.035, 851.404 58, 871.356 58 C 885.768 58, 891.946 57.654, 892.800 56.800 C 893.529 56.071, 894 52.528, 894 47.775 C 894 38.411, 894.290 38.617, 878.938 37.042 C 865.504 35.663, 853.954 35.844, 846.054 37.557 M 940.763 36.962 C 931.788 38.607, 926.093 41.111, 921.086 45.613 C 914.237 51.770, 911.707 58.437, 911.615 70.567 C 911.552 78.803, 911.836 80.224, 914.714 86.067 C 916.457 89.605, 919.389 93.959, 921.230 95.742 C 923.071 97.524, 932.870 104.499, 943.004 111.242 C 964.760 125.715, 966.360 127.505, 965.791 136.733 C 965.471 141.935, 964.936 143.458, 962.553 145.945 C 958.036 150.660, 951.801 151.583, 933.184 150.293 C 924.617 149.699, 917.005 149.445, 916.268 149.727 C 915.254 150.116, 914.998 152.447, 915.214 159.308 L 915.500 168.374 920.500 169.751 C 927.461 171.669, 953.078 172.547, 960 171.105 C 978.338 167.285, 988.561 155.513, 989.756 136.836 C 990.142 130.818, 989.785 127.652, 988.097 122.095 C 984.959 111.761, 978.213 104.947, 960.347 94.066 C 952.731 89.428, 944.413 84.139, 941.863 82.314 C 931.753 75.079, 931.581 64.371, 941.491 59.246 C 944.035 57.931, 947.600 57.791, 965.148 58.317 C 983.265 58.861, 985.883 58.746, 986.405 57.387 C 987.639 54.172, 987.030 42.173, 985.559 40.702 C 982.630 37.772, 950.828 35.118, 940.763 36.962 M 312.512 38.172 C 308.119 38.672, 303.506 39.749, 302.262 40.564 L 300 42.046 300 105.988 C 300 179.708, 298.657 172, 311.500 172 C 323.936 172, 323 174.453, 323 141.848 L 323 113.767 325.250 114.370 C 326.488 114.701, 330.223 114.979, 333.551 114.986 L 339.602 115 352.015 143.035 C 361.557 164.583, 364.900 171.187, 366.465 171.578 C 367.584 171.858, 372.775 171.954, 378 171.793 C 386.630 171.527, 387.524 171.317, 387.767 169.500 C 387.915 168.400, 382.220 155.725, 375.113 141.334 L 362.191 115.168 367.812 111.834 C 374.446 107.899, 379.008 102.257, 382.004 94.282 C 383.887 89.269, 384.132 86.900, 383.838 76.477 C 383.522 65.238, 383.285 64.017, 380.200 57.753 C 375.130 47.457, 366.468 41.333, 352.957 38.491 C 345.103 36.839, 325.564 36.685, 312.512 38.172 M 527.500 38.834 C 522.620 41.169, 518.585 45.330, 516.673 50 C 515.884 51.925, 509.051 79.483, 501.489 111.240 C 490.217 158.571, 487.964 169.252, 488.992 170.490 C 489.946 171.640, 492.476 172, 499.599 172 C 508.221 172, 509.063 171.824, 510.346 169.750 C 511.111 168.513, 517.084 143.032, 523.619 113.126 C 531.237 78.264, 535.973 58.570, 536.817 58.244 C 537.542 57.964, 538.568 58.168, 539.099 58.699 C 539.629 59.229, 545.490 84.376, 552.123 114.581 C 558.756 144.787, 564.647 170.063, 565.214 170.750 C 566.291 172.056, 582.357 172.568, 585.418 171.393 C 586.288 171.059, 587 169.758, 587 168.501 C 587 163.803, 559.868 52.386, 557.658 48.009 C 556.372 45.461, 553.592 42.254, 551.233 40.596 C 547.683 38.101, 545.936 37.618, 539.287 37.297 C 533.119 36.998, 530.668 37.318, 527.500 38.834 M 600.442 38.292 C 600.154 39.041, 600.050 64.402, 600.209 94.649 L 600.500 149.645 603.510 155.530 C 607.139 162.622, 612.867 167.306, 620.816 169.680 C 631.507 172.874, 664.805 171.164, 667.750 167.270 C 668.440 166.358, 669 162.822, 669 159.380 C 669 149.906, 669.213 150, 647.651 150 C 628.216 150, 626.583 149.638, 623.758 144.699 C 622.810 143.042, 622.377 129.568, 622 90 L 621.500 37.500 611.232 37.215 C 603.289 36.994, 600.846 37.238, 600.442 38.292 M 684.667 38.667 C 684.300 39.033, 684 68.418, 684 103.967 C 684 152.904, 684.291 168.891, 685.200 169.800 C 686.828 171.428, 704.172 171.428, 705.800 169.800 C 706.708 168.892, 707 153.107, 707 104.882 C 707 69.837, 706.727 40.452, 706.393 39.582 C 705.894 38.282, 703.962 38, 695.560 38 C 689.935 38, 685.033 38.300, 684.667 38.667 M 723.425 39.334 C 723.144 40.067, 723.046 44.455, 723.207 49.084 L 723.500 57.500 739.250 57.775 L 755 58.051 755 113.325 C 755 154.983, 755.296 168.896, 756.200 169.800 C 757.945 171.545, 775.402 171.425, 776.869 169.658 C 777.650 168.716, 778.060 151.933, 778.241 113.408 L 778.500 58.500 794 58 L 809.500 57.500 809.799 50.012 C 809.963 45.893, 809.842 41.506, 809.530 40.262 L 808.962 38 766.450 38 C 731.941 38, 723.841 38.251, 723.425 39.334 M 326.750 58.663 L 323 59.121 323 77.161 L 323 95.201 335.750 94.845 C 346.566 94.543, 349.208 94.141, 353.167 92.195 C 358.808 89.423, 360.925 86.434, 361.660 80.205 C 362.751 70.968, 358.843 63.632, 351.110 60.402 C 347.494 58.891, 333.226 57.872, 326.750 58.663 M 127.500 74.698 C 125.850 74.931, 122.803 75.564, 120.729 76.105 L 116.958 77.088 117.229 96.794 L 117.500 116.500 132.500 116.730 C 150.506 117.007, 158.882 115.645, 160.612 112.161 C 161.384 110.605, 161.923 110.270, 162.220 111.160 C 162.641 112.423, 165.506 110.471, 172.404 104.224 C 173.794 102.965, 174.088 102.905, 173.493 104 C 173.011 104.890, 173.050 105.161, 173.590 104.667 C 174.090 104.208, 174.503 103.533, 174.507 103.167 C 174.518 102.051, 181.288 92, 182.028 92 C 182.903 92, 187 79.624, 187 76.979 C 187 75.113, 186.289 75, 174.500 75 L 162 75 161.837 80.250 L 161.674 85.500 161.087 80 L 160.500 74.500 145.500 74.387 C 137.250 74.326, 129.150 74.465, 127.500 74.698 M 112.441 80.574 C 111.374 81.440, 111.132 81.820, 111.905 81.420 C 112.828 80.941, 113.065 81.086, 112.595 81.845 C 112.203 82.480, 111.112 83, 110.170 83 C 109.228 83, 107.435 84.013, 106.185 85.250 C 102.369 89.027, 97.002 95.456, 97.001 96.250 C 97 96.662, 97.016 97.241, 97.036 97.536 C 97.055 97.830, 96.399 98.743, 95.578 99.565 C 94.757 100.386, 94.339 101.720, 94.649 102.529 C 94.960 103.338, 94.774 104, 94.237 104 C 93.700 104, 92.707 106.138, 92.032 108.750 C 91.357 111.362, 90.638 114.063, 90.434 114.750 C 90.150 115.705, 93.125 116, 103.031 116 L 116 116 116 97.500 C 116 87.325, 115.636 79, 115.191 79 C 114.746 79, 113.509 79.708, 112.441 80.574 M 101.500 146.951 L 89.500 147.500 89.224 162.653 C 88.877 181.760, 88.312 181, 102.871 181 C 109.883 181, 114.016 180.584, 114.800 179.800 C 116.548 178.052, 116.501 145.919, 114.750 146.201 C 114.063 146.312, 108.100 146.649, 101.500 146.951 M 45.328 196.770 C 43.664 197.037, 42.997 198.056, 42.479 201.127 C 42.106 203.331, 42.011 205.345, 42.268 205.601 C 42.524 205.857, 43.024 204.252, 43.379 202.034 C 43.733 199.815, 44.468 198, 45.012 198 C 46.271 198, 46.261 199.185, 44.972 202.574 C 44.407 204.061, 44.131 205.464, 44.360 205.693 C 44.588 205.921, 45.499 203.983, 46.385 201.385 C 47.270 198.787, 47.883 196.607, 47.747 196.541 C 47.611 196.474, 46.523 196.577, 45.328 196.770 M 101.201 205.281 L 101.402 214.500 101.747 206.531 C 101.937 202.147, 102.559 198.273, 103.130 197.920 C 103.759 197.531, 103.544 197.039, 102.584 196.671 C 101.201 196.140, 101.026 197.232, 101.201 205.281 M 105 210.500 C 105 218.475, 104.662 224.997, 104.250 224.993 C 103.838 224.989, 100.800 221.555, 97.500 217.363 C 89.754 207.521, 85.654 202.934, 89.579 208.500 C 95.999 217.604, 103.178 226, 104.543 226 C 105.754 226, 106 223.472, 106 211 C 106 202.750, 105.775 196, 105.500 196 C 105.225 196, 105 202.525, 105 210.500 M 156.998 211.250 L 157 226 168 226 C 178.982 226, 179 225.996, 179 223.570 C 179 221.178, 178.862 221.141, 170.250 221.187 L 161.500 221.235 160.892 217.367 L 160.284 213.500 160.142 217.128 C 159.947 222.105, 161.686 223.227, 169.214 222.978 C 177.280 222.711, 178 222.795, 178 224 C 178 224.600, 174 225, 168 225 L 158 225 158 211.500 L 158 198 168 198 C 174 198, 178 198.400, 178 199 C 178 199.579, 174.740 200.006, 170.250 200.015 C 165.988 200.024, 161.906 200.407, 161.181 200.867 C 160.354 201.391, 159.981 203.159, 160.181 205.602 L 160.500 209.500 168.750 209.790 C 174.947 210.009, 177 210.423, 177 211.457 C 177 212.511, 175.357 212.795, 169.999 212.667 C 166.149 212.575, 162.999 212.838, 162.999 213.250 C 163 213.662, 166.375 214, 170.500 214 C 177.833 214, 178 213.944, 178 211.500 C 178 209.028, 177.904 209, 169.440 209 L 160.879 209 161.190 205.250 L 161.500 201.500 170.250 201.211 C 178.076 200.953, 179 200.722, 179 199.023 C 179 197.293, 178.028 197.097, 167.998 196.812 L 156.996 196.500 156.998 211.250 M 193 211.139 L 193 226 203 226 C 212.333 226, 213 225.867, 213 224 C 213 222.178, 212.333 222, 205.500 222 L 198 222 198 209.617 L 198 197.233 195.500 196.755 L 193 196.277 193 211.139 M 227 211.250 L 227 226 237.500 226 C 247.333 226, 248 225.873, 248 224 C 248 222.167, 247.333 222, 240 222 L 232 222 232 209.250 L 232 196.500 229.500 196.500 L 227 196.500 227 211.250 M 263 197 C 260.602 197.768, 260.591 197.805, 262.750 197.900 C 264.967 197.999, 265 198.196, 265 211.500 C 265 222.715, 264.751 225, 263.529 225 C 262.324 225, 262.002 222.604, 261.747 211.750 L 261.437 198.500 261.218 212.250 L 261 226 263.500 226 L 266 226 266 211 C 266 202.750, 265.887 196.045, 265.750 196.100 C 265.613 196.155, 264.375 196.560, 263 197 M 287.367 197.918 C 283.821 200.080, 280.978 203.701, 281.044 205.973 C 281.069 206.813, 281.948 205.874, 282.999 203.886 C 284.098 201.805, 286.371 199.577, 288.355 198.636 C 292.722 196.563, 299.884 196.530, 302.794 198.568 C 305.825 200.691, 304.537 202.582, 301.443 200.554 C 298.591 198.686, 293.363 198.592, 290.190 200.353 C 284.617 203.445, 282.114 212.863, 285.558 217.779 C 286.415 219.003, 286.885 220.378, 286.602 220.835 C 286.319 221.292, 286.631 221.737, 287.294 221.823 C 300.921 223.589, 303.478 223.013, 304.212 218.009 C 304.763 214.254, 302.842 212.433, 298.781 212.859 C 296.171 213.133, 295.891 212.918, 296.473 211.085 C 296.862 209.861, 296.694 209, 296.067 209 C 295.480 209, 295 210.125, 295 211.500 C 295 213.750, 295.400 214, 299 214 C 302.767 214, 303 214.173, 303 216.965 C 303 220.571, 300.727 222, 294.989 222 C 288.996 222, 285 217.861, 285 211.654 C 285 203.070, 292.996 197.720, 300.487 201.292 C 302.904 202.445, 304.043 202.557, 304.876 201.724 C 306.605 199.995, 306.252 199.181, 303.050 197.526 C 298.916 195.388, 291.199 195.581, 287.367 197.918 M 321.998 211.250 L 322 226 333 226 L 344 226 344 223.500 C 344 222.125, 343.520 221, 342.933 221 C 342.320 221, 342.136 221.853, 342.500 223 C 343.106 224.910, 342.680 225, 333.067 225 L 323 225 323 211.500 L 323 198 333 198 C 345.105 198, 346.483 199.777, 334.750 200.256 L 326.500 200.593 335.250 200.796 C 343.309 200.984, 344 200.847, 344 199.062 C 344 197.282, 343.108 197.099, 332.998 196.812 L 321.996 196.500 321.998 211.250 M 378.811 206.158 C 378.640 211.469, 378.837 215.605, 379.250 215.349 C 379.663 215.092, 380 211.084, 380 206.441 C 380 199.605, 380.285 198, 381.500 198 C 382.759 198, 383 200.167, 383 211.500 C 383 218.955, 382.592 225, 382.089 225 C 381.150 225, 380.027 223.710, 371.515 212.856 C 363.452 202.574, 363 202.717, 363 215.559 C 363 223.284, 362.727 225, 361.500 225 C 360.241 225, 360 222.833, 360 211.500 C 360 194.783, 360.664 194.448, 370 206.458 C 373.575 211.058, 376.664 214.659, 376.865 214.462 C 377.066 214.264, 374.181 210.255, 370.454 205.551 C 365.409 199.186, 363.079 197, 361.339 197 L 359 197 359 211.500 L 359 226 361.465 226 C 363.906 226, 363.933 225.901, 364.215 215.750 L 364.500 205.500 372.494 215.750 C 383.589 229.975, 384 229.814, 384 211.250 L 384 196.500 381.561 196.500 C 379.166 196.500, 379.117 196.672, 378.811 206.158 M 406.071 197.752 C 400.938 200.369, 398.692 204.088, 398.226 210.737 C 397.890 215.548, 398.212 217.078, 400.181 220 C 404.499 226.408, 412.959 228.715, 420.532 225.551 C 424.299 223.977, 424.786 222.898, 422.564 221.053 C 421.518 220.185, 420.584 220.152, 419.130 220.931 C 418.031 221.519, 415.267 222, 412.989 222 C 406.929 222, 403 217.870, 403 211.500 C 403 205.130, 406.929 201, 412.989 201 C 415.267 201, 418.031 201.481, 419.130 202.069 C 420.584 202.848, 421.518 202.815, 422.564 201.947 C 424.703 200.172, 424.350 199.394, 420.599 197.614 C 416.166 195.511, 410.358 195.566, 406.071 197.752 M 437.914 197 C 437.553 199.196, 438.052 223.385, 438.467 223.800 C 438.760 224.093, 439 218.378, 439 211.100 L 439 197.867 449.002 198.184 C 454.503 198.358, 459.003 198.191, 459.002 197.814 C 459 197.037, 438.041 196.228, 437.914 197 M 571.500 197.155 C 568.511 198.789, 567 201.078, 567 203.969 C 567 208.422, 569.520 210.755, 575.758 212.075 C 583.230 213.655, 586.212 215.503, 585.811 218.304 C 585.124 223.110, 575.369 224.276, 571.511 220.013 C 570.149 218.507, 569.319 218.294, 567.861 219.074 C 563.526 221.394, 570.685 227, 577.982 227 C 585.942 227, 591 223.366, 591 217.648 C 591 212.151, 588.226 209.845, 580 208.502 C 577.525 208.098, 574.712 207.354, 573.750 206.849 C 571.731 205.788, 571.454 202.946, 573.200 201.200 C 574.868 199.532, 582.123 199.697, 584.640 201.461 C 586.359 202.664, 587.036 202.694, 588.489 201.632 C 590.130 200.432, 590.061 200.193, 587.491 198.171 C 585.973 196.977, 583.553 196.020, 582.115 196.044 C 579.850 196.082, 580.012 196.270, 583.324 197.452 C 587.870 199.073, 588.413 199.523, 587.534 200.944 C 587.081 201.678, 586.181 201.540, 584.712 200.511 C 581.653 198.369, 574.716 198.552, 572.655 200.829 C 570.276 203.457, 570.561 206.714, 573.250 207.638 C 574.487 208.063, 578.199 209.106, 581.497 209.955 C 588.342 211.718, 590.667 214.685, 589.472 220.128 C 588.081 226.463, 574.591 228.046, 569.068 222.523 C 566.028 219.483, 567.210 219.303, 572.500 222 C 578.904 225.265, 585.471 223.955, 586.671 219.174 C 587.653 215.262, 585.819 213.627, 578.406 211.805 C 571.371 210.076, 568 207.548, 568 204 C 568 201.150, 571.265 197.906, 575.024 197.022 C 577.774 196.375, 577.978 196.190, 576 196.133 C 574.625 196.093, 572.600 196.553, 571.500 197.155 M 621.136 198.250 C 621.003 200.939, 621.116 200.996, 626.250 200.820 L 631.500 200.640 626.813 200.268 C 622.930 199.959, 622.052 199.518, 621.699 197.698 C 621.346 195.877, 621.249 195.972, 621.136 198.250 M 633.500 197 L 622.500 197.605 633.250 197.802 C 643.902 197.998, 647.941 199.530, 639.750 200.268 L 635.500 200.651 640.250 200.825 C 644.697 200.989, 645 200.840, 645 198.500 C 645 197.125, 644.888 196.089, 644.750 196.198 C 644.612 196.306, 639.550 196.667, 633.500 197 M 658 211.250 L 658 226 669 226 L 680 226 680 223.436 C 680 220.874, 679.996 220.873, 671.750 221.096 L 663.500 221.320 663.190 217.660 L 662.879 214 671.440 214 C 679.904 214, 680 213.972, 680 211.500 C 680 209.031, 679.896 209, 671.557 209 L 663.115 209 662.722 205.250 L 662.329 201.500 662.414 205.500 L 662.500 209.500 670.819 209.792 C 676.784 210.001, 679.022 210.425, 678.726 211.292 C 678.457 212.080, 675.911 212.500, 671.407 212.500 C 667.608 212.500, 663.938 212.864, 663.250 213.309 C 662.563 213.754, 662 215.843, 662 217.952 C 662 220.141, 662.536 221.956, 663.250 222.183 C 663.938 222.402, 667.763 222.505, 671.750 222.412 C 677.324 222.283, 679 222.563, 679 223.622 C 679 224.701, 676.829 225, 669 225 L 659 225 659 211.500 L 659 198 669 198 C 680.828 198, 682.581 199.758, 671.250 200.257 L 663.500 200.598 671.750 200.799 C 679.699 200.993, 680 200.918, 680 198.750 C 680 196.553, 679.741 196.500, 669 196.500 L 658 196.500 658 211.250 M 694.412 196.917 C 694.185 197.146, 694 203.783, 694 211.667 L 694 226 696.500 226 C 698.840 226, 698.989 225.697, 698.825 221.250 L 698.651 216.500 698.268 220.750 C 698.019 223.507, 697.401 225, 696.508 225 C 695.408 225, 695.125 222.283, 695.100 211.500 L 695.069 198 704.080 198 C 712.314 198, 713.303 198.212, 715.545 200.455 C 717.100 202.009, 718 204.050, 718 206.020 C 718 210.128, 716.243 213.307, 714.371 212.589 C 713.560 212.278, 713.142 212.421, 713.442 212.907 C 713.743 213.393, 713.316 214.048, 712.494 214.364 C 710.220 215.236, 710.663 216.622, 714.616 220.997 C 717.841 224.566, 718.007 225, 716.146 225 C 714.039 225, 709.258 219.601, 709.775 217.805 C 709.926 217.281, 709.639 217.105, 709.138 217.415 C 708.637 217.724, 707.671 217.308, 706.991 216.489 C 706.261 215.609, 704.271 215.058, 702.128 215.142 L 698.500 215.284 702.167 215.892 C 704.890 216.343, 706.908 217.723, 710.002 221.250 C 713.221 224.918, 714.848 226, 717.145 226 L 720.119 226 715.810 220.851 C 712.617 217.036, 711.874 215.573, 712.943 215.203 C 713.737 214.929, 715.424 213.666, 716.693 212.398 C 720.468 208.623, 719.297 200.491, 714.640 198.140 C 712.588 197.104, 695.263 196.056, 694.412 196.917 M 732.998 211.250 L 733 226 735.500 226 C 737.833 226, 738 225.667, 738 221 C 738 216.217, 738.119 215.999, 740.750 215.980 C 742.814 215.965, 744.628 217.235, 748.020 221.069 C 751.766 225.302, 753.026 226.119, 755.377 225.839 L 758.214 225.500 754.107 220.847 C 749.676 215.826, 749.283 215, 751.326 215 C 752.055 215, 753.630 213.958, 754.826 212.686 C 757.639 209.691, 757.774 203.178, 755.091 199.861 C 753.373 197.736, 752.174 197.450, 743.089 197 L 732.996 196.500 732.998 211.250 M 771 211.139 L 771 226 773.500 226 L 776 226 776 211.617 L 776 197.233 773.500 196.755 L 771 196.277 771 211.139 M 834.200 197.786 C 830.424 199.865, 826.981 204.564, 827.083 207.500 C 827.130 208.874, 827.522 208.479, 828.335 206.239 C 831.613 197.199, 844.244 194.035, 851.222 200.505 C 857.142 205.994, 857.274 215.548, 851.516 221.831 C 848.308 225.332, 847.858 225.500, 841.682 225.500 C 836.747 225.500, 834.716 225.053, 833.129 223.616 C 831.984 222.580, 831.295 221.332, 831.598 220.842 C 831.901 220.351, 831.553 220.074, 830.824 220.225 C 830.028 220.391, 829.530 219.624, 829.574 218.300 C 829.615 217.090, 829.277 216.329, 828.824 216.609 C 828.024 217.103, 827.555 214.042, 827.965 211 C 828.102 209.987, 827.831 209.825, 827.133 210.501 C 825.867 211.726, 827.140 218.038, 829.325 221.373 C 832.768 226.629, 842.464 228.545, 848.929 225.248 C 853.809 222.760, 856.028 219.206, 856.614 212.941 C 857.199 206.689, 855.260 201.932, 850.791 198.657 C 846.983 195.865, 838.498 195.420, 834.200 197.786 M 871 211.139 L 871 226 873.500 226 L 876 226 876 211.617 L 876 197.233 873.500 196.755 L 871 196.277 871 211.139 M 891 211.031 L 891 226 893.500 226 C 895.840 226, 895.989 225.697, 895.825 221.250 L 895.651 216.500 895.268 220.750 C 895.010 223.609, 894.413 225, 893.443 225 C 892.258 225, 892 222.605, 892 211.583 C 892 202.041, 892.346 198.051, 893.199 197.767 C 893.950 197.517, 893.762 197.123, 892.699 196.715 C 891.147 196.119, 891 197.356, 891 211.031 M 929 211.250 L 929 226 940 226 L 951 226 951 223.427 L 951 220.853 942.498 221.177 L 933.995 221.500 933.998 217.750 L 934 214 942 214 C 949.867 214, 950 213.958, 950 211.500 C 950 209.042, 949.867 209, 942 209 L 934 209 934 205 L 934 201 942.500 201 C 950.648 201, 951 200.907, 951 198.750 C 951 196.553, 950.741 196.500, 940 196.500 L 929 196.500 929 211.250 M 968.758 197.976 C 967.376 199.063, 966.008 200.863, 965.717 201.976 C 964.913 205.051, 966.413 204.393, 967.644 201.132 C 968.450 198.997, 969.721 198, 972.613 197.235 C 975.781 196.397, 976.016 196.188, 973.885 196.103 C 972.447 196.047, 970.139 196.889, 968.758 197.976 M 980.861 196.999 C 982.709 197.435, 984.943 198.514, 985.825 199.396 C 987.296 200.868, 987.251 201, 985.273 201 C 984.088 201, 982.840 200.550, 982.500 200 C 981.535 198.439, 973.693 198.826, 971.223 200.557 C 966.664 203.750, 969.958 208.329, 977.616 209.444 C 983.297 210.272, 986.747 212.222, 987.990 215.308 C 988.859 217.464, 988.874 217.466, 988.937 215.405 C 989.035 212.158, 986.015 210.182, 978.568 208.621 C 970.348 206.898, 968.304 204.839, 971.571 201.571 C 973.526 199.617, 979.964 199.522, 982.545 201.409 C 984.788 203.049, 988.237 201.781, 987.408 199.620 C 986.743 197.888, 982.542 195.970, 979.703 196.102 C 978.207 196.172, 978.578 196.459, 980.861 196.999 M 10.720 197.702 C 12.846 198.113, 12.953 198.642, 13.254 210.316 L 13.568 222.500 13.784 209.750 L 14 197 11.250 197.136 C 8.938 197.251, 8.853 197.341, 10.720 197.702 M 61 211.500 L 61 226 63.500 226 L 66 226 66 211.500 L 66 197 63.500 197 L 61 197 61 211.500 M 92.070 206.250 C 95.993 211.338, 99.681 215.675, 100.267 215.888 C 101.187 216.224, 98.730 212.890, 88.356 199.721 C 87.177 198.225, 85.925 197, 85.575 197 C 85.224 197, 88.147 201.162, 92.070 206.250 M 119 199 C 119 200.733, 119.667 201, 124 201 L 129 201 129 213.500 L 129 226 131.500 226 L 134 226 134 213.500 L 134 201 139 201 C 141.750 201, 144 200.593, 144 200.095 C 144 199.279, 137.362 199.589, 134.250 200.551 C 133.341 200.832, 133 204.216, 133 212.969 C 133 222.884, 132.742 225, 131.531 225 C 130.334 225, 130.010 222.731, 129.781 212.750 L 129.500 200.500 124.750 200.195 C 115.465 199.599, 120.191 198.057, 132.250 197.747 L 144.500 197.432 131.750 197.216 C 119.595 197.010, 119 197.093, 119 199 M 408.542 197.729 C 398.584 200.259, 395.564 215.233, 403.524 222.610 C 406.747 225.597, 413.950 226.671, 418.683 224.870 C 422.097 223.570, 423.181 221.095, 420 221.862 C 419.175 222.060, 416.132 222.440, 413.238 222.705 C 408.372 223.150, 407.762 222.957, 405.126 220.135 C 399.011 213.588, 400.771 204.316, 408.804 200.763 C 412.925 198.940, 413.535 198.907, 417.118 200.314 C 419.540 201.266, 421.212 201.466, 421.593 200.850 C 422.295 199.713, 422.365 199.777, 418.703 198.202 C 415.880 196.989, 412.142 196.815, 408.542 197.729 M 491 211.500 L 491 226 499.250 225.996 C 508.728 225.992, 512.804 224.214, 515.562 218.881 C 517.743 214.662, 517.093 205.947, 514.318 202.209 C 511.242 198.065, 508.242 197.031, 499.250 197.015 L 491 197 491 211.500 M 530.229 199.500 C 530.116 200.875, 530.467 202, 531.011 202 C 531.555 202, 532 201.100, 532 200 C 532 198.140, 532.667 198, 541.500 198 C 552.938 198, 554.310 199.770, 543.250 200.257 L 535.500 200.598 544.188 200.799 C 552.320 200.987, 552.866 200.872, 552.725 199 C 552.584 197.130, 551.858 197, 541.505 197 L 530.436 197 530.229 199.500 M 790 199 C 790 200.733, 790.667 201, 795 201 L 800 201 800 213.500 L 800 226 802.500 226 L 805 226 805 213.500 L 805 201 810 201 C 814.333 201, 815 200.733, 815 199 C 815 197.107, 814.333 197, 802.500 197 C 790.667 197, 790 197.107, 790 199 M 902.840 197.912 C 911.512 198.607, 914 200.665, 914 207.145 C 914 210.568, 913.554 211.330, 910.500 213.133 C 908.575 214.268, 907 215.415, 907 215.680 C 907 215.946, 908.629 218.152, 910.620 220.582 C 913.923 224.612, 914.055 225, 912.120 225 C 910.954 225, 909.995 224.662, 909.989 224.250 C 909.983 223.838, 908.149 221.588, 905.914 219.250 C 902.674 215.862, 901.206 215.030, 898.675 215.150 L 895.500 215.300 898.500 215.693 C 900.560 215.963, 902.916 217.667, 906.020 221.132 C 909.753 225.298, 911.035 226.118, 913.377 225.839 L 916.214 225.500 912.107 220.847 C 907.600 215.740, 907.270 215, 909.500 215 C 914.984 215, 917.131 204.040, 912.545 199.455 C 910.349 197.258, 909.323 197.017, 902.795 197.162 L 895.500 197.323 902.840 197.912 M 62 211.500 C 62 222.833, 62.241 225, 63.500 225 C 64.759 225, 65 222.833, 65 211.500 C 65 200.167, 64.759 198, 63.500 198 C 62.241 198, 62 200.167, 62 211.500 M 194 211.500 L 194 225 203 225 C 208.333 225, 212 224.593, 212 224 C 212 223.431, 209.067 223, 205.200 223 C 201.460 223, 197.924 222.524, 197.343 221.943 C 196.673 221.273, 196.433 216.688, 196.689 209.443 C 197.036 199.612, 196.875 198, 195.546 198 C 194.228 198, 194 199.987, 194 211.500 M 228 211.500 L 228 225 237.500 225 C 248.926 225, 250.345 223.210, 239.250 222.792 L 231.500 222.500 231.219 210.250 C 230.990 200.269, 230.666 198, 229.469 198 C 228.249 198, 228 200.292, 228 211.500 M 492 211.603 L 492 225.205 500.481 224.853 C 508.452 224.521, 509.152 224.310, 512.119 221.343 C 518.036 215.425, 516.786 203.009, 509.915 199.456 C 508.179 198.559, 504.203 198, 499.550 198 L 492 198 492 211.603 M 734 211.500 C 734 219.833, 734.383 225, 735 225 C 735.550 225, 736 223.620, 736 221.934 C 736 217.293, 737.639 215, 740.958 215 C 743.180 215, 744.872 216.174, 748.303 220.096 C 750.945 223.117, 753.416 225.052, 754.368 224.846 C 755.623 224.576, 755.210 223.692, 752.488 220.817 C 750.570 218.791, 749 216.665, 749 216.092 C 749 215.520, 750.295 214.381, 751.879 213.563 C 756.568 211.138, 757.510 205.190, 753.927 200.635 C 751.965 198.140, 751.381 198, 742.927 198 L 734 198 734 211.500 M 772 211.500 C 772 222.833, 772.241 225, 773.500 225 C 774.759 225, 775 222.833, 775 211.500 C 775 200.167, 774.759 198, 773.500 198 C 772.241 198, 772 200.167, 772 211.500 M 791 198.945 C 791 199.465, 793.138 200.028, 795.750 200.195 L 800.500 200.500 800.781 212.750 C 801.007 222.609, 801.342 225, 802.500 225 C 803.658 225, 803.993 222.609, 804.219 212.750 L 804.500 200.500 809.250 200.195 C 811.862 200.028, 814 199.465, 814 198.945 C 814 198.406, 809.056 198, 802.500 198 C 795.944 198, 791 198.406, 791 198.945 M 872 211.500 C 872 222.833, 872.241 225, 873.500 225 C 874.759 225, 875 222.833, 875 211.500 C 875 200.167, 874.759 198, 873.500 198 C 872.241 198, 872 200.167, 872 211.500 M 930 211.500 L 930 225 940 225 C 946 225, 950 224.600, 950 224 C 950 223.021, 948.071 222.774, 939 222.591 C 932.884 222.467, 932.250 221.864, 932.926 216.814 L 933.500 212.528 941.250 212.852 C 947.800 213.126, 949 212.930, 949 211.588 C 949 210.290, 947.735 210, 942.082 210 C 933.172 210, 932.480 209.682, 932.597 205.641 C 932.750 200.392, 933.407 200, 942.059 200 C 946.686 200, 950 199.583, 950 199 C 950 198.400, 946 198, 940 198 L 930 198 930 211.500 M 9 212.333 L 9 226 19.500 226 C 29.333 226, 30 225.873, 30 224 C 30 222.155, 29.400 222.015, 22.250 222.199 L 14.500 222.397 21.750 222.743 C 32.322 223.246, 30.695 225, 19.657 225 L 10.313 225 10.090 212.267 C 9.967 205.263, 9.672 199.338, 9.433 199.100 C 9.195 198.862, 9 204.817, 9 212.333 M 82.218 212.250 L 82 226 84.750 225.864 C 87.065 225.749, 87.148 225.660, 85.279 225.298 C 83.137 224.884, 83.046 224.396, 82.747 211.684 L 82.437 198.500 82.218 212.250 M 836.299 200.946 C 830.179 204.703, 828.375 211.822, 832.026 217.810 C 834.847 222.438, 840.200 224.556, 845.250 223.043 C 853.721 220.505, 855.851 208.033, 848.861 201.898 C 847.858 201.018, 847.215 200.118, 847.434 199.898 C 847.653 199.679, 845.957 199.383, 843.666 199.240 C 840.905 199.068, 838.420 199.644, 836.299 200.946 M 447.280 200.736 C 449.909 200.943, 453.959 200.940, 456.280 200.731 C 458.601 200.521, 456.450 200.352, 451.500 200.355 C 446.550 200.358, 444.651 200.530, 447.280 200.736 M 501.457 201.021 C 506.121 201.615, 507.911 202.358, 509.707 204.445 C 512.222 207.370, 512.818 213.604, 510.920 217.150 C 509.559 219.693, 504.141 222, 499.532 222 L 496 222 496 212 C 496 206.500, 495.630 202, 495.177 202 C 494.257 202, 494.569 220.494, 495.515 222.025 C 496.402 223.460, 502.558 223.211, 506.454 221.584 C 510.611 219.847, 513.009 216.379, 513.179 211.858 C 513.449 204.667, 508.376 199.932, 500.615 200.131 L 495.500 200.262 501.457 201.021 M 705.288 200.907 C 712.352 201.524, 713.956 202.579, 713.985 206.628 C 714.008 209.867, 711.309 211.440, 704.599 212.098 L 698.500 212.695 704.561 212.848 C 711.674 213.026, 715 210.850, 715 206.018 C 715 201.737, 711.835 199.967, 704.527 200.157 L 698.500 200.315 705.288 200.907 M 736.963 201.544 C 736.015 202.687, 735.918 204.314, 736.591 207.794 L 737.500 212.500 742.841 212.805 C 749.867 213.207, 753 211.273, 753 206.534 C 753 204.133, 752.338 202.649, 750.777 201.557 C 747.803 199.473, 738.689 199.465, 736.963 201.544 M 836.353 201.875 C 832.138 204.514, 830.341 209.858, 831.909 215.092 C 833.392 220.039, 836.294 222, 842.134 222 C 846.142 222, 847.198 221.553, 849.411 218.923 C 857.284 209.567, 846.518 195.510, 836.353 201.875 M 895.248 201.250 C 894.653 201.995, 894.553 204.317, 895 207 L 895.750 211.500 895.875 206.250 L 896 201 901.500 201 C 907.070 201, 911.046 203.204, 910.968 206.250 C 910.884 209.572, 907.845 211.507, 901.707 212.148 L 895.500 212.796 902 212.451 C 910.137 212.020, 910.645 211.911, 910.761 210.583 C 910.813 209.988, 911.140 208.583, 911.489 207.462 C 911.898 206.145, 911.368 204.466, 909.988 202.712 C 908.106 200.319, 907.172 200, 902.050 200 C 898.604 200, 895.840 200.508, 895.248 201.250 M 534.175 204.691 C 534.079 206.996, 534.516 209.201, 535.146 209.590 C 535.777 209.980, 539.649 210.201, 543.752 210.081 C 549.550 209.912, 551.115 210.157, 550.777 211.182 C 550.486 212.065, 547.728 212.665, 542.421 213 L 534.500 213.500 534.182 216.815 C 533.684 222.005, 535.004 222.804, 543.114 222.224 C 548.516 221.837, 550.413 222.048, 551.071 223.108 C 551.782 224.255, 549.958 224.597, 540.717 225.051 L 529.500 225.601 541.320 225.801 C 553.054 225.999, 553.137 225.984, 552.820 223.750 C 552.520 221.639, 551.961 221.482, 543.750 221.211 L 535 220.922 535 217.461 L 535 214 543.500 214 C 551.900 214, 552 213.971, 552 211.500 C 552 209.031, 551.896 209, 543.557 209 L 535.115 209 534.732 204.750 L 534.349 200.500 534.175 204.691 M 737.817 202.711 C 737.636 203.653, 737.650 206.128, 737.849 208.211 L 738.210 212 743.534 212 C 749.677 212, 752 210.344, 752 205.964 C 752 202.304, 749.671 201, 743.139 201 C 739.222 201, 738.076 201.369, 737.817 202.711 M 441.381 205.500 L 441.500 209.500 449.750 209.790 C 456.032 210.012, 458 210.416, 458 211.486 C 458 212.581, 456.340 212.861, 450.493 212.753 C 446.317 212.675, 442.513 213.087, 441.920 213.680 C 441.334 214.266, 441.040 216.265, 441.267 218.123 L 441.680 221.500 441.840 217.750 L 442 214 450.500 214 C 458.900 214, 459 213.971, 459 211.500 C 459 209.031, 458.896 209, 450.560 209 L 442.121 209 441.691 205.250 L 441.262 201.500 441.381 205.500 M 634 204.667 C 634 206.133, 634.309 207.024, 634.687 206.646 C 635.693 205.641, 635.807 202, 634.833 202 C 634.375 202, 634 203.200, 634 204.667 M 698.286 206.500 C 698.294 209.250, 698.488 210.256, 698.718 208.736 C 698.947 207.216, 698.941 204.966, 698.704 203.736 C 698.467 202.506, 698.279 203.750, 698.286 206.500 M 325.400 205.500 C 325.400 206.875, 325.760 208, 326.200 208 C 326.640 208, 327 206.875, 327 205.500 C 327 204.125, 326.640 203, 326.200 203 C 325.760 203, 325.400 204.125, 325.400 205.500 M 631.214 214.250 L 631 226 633.559 226 C 634.966 226, 635.852 225.570, 635.527 225.044 C 635.202 224.518, 634.290 224.335, 633.502 224.638 C 632.319 225.092, 632.011 223.200, 631.747 213.844 L 631.428 202.500 631.214 214.250 M 966.063 206.177 C 965.962 208.856, 970.793 211.904, 976.300 212.634 C 979.763 213.094, 982.080 214.062, 983.575 215.676 C 985.367 217.609, 985.876 217.766, 986.349 216.534 C 986.667 215.703, 986.607 215.119, 986.214 215.234 C 985.821 215.350, 984.375 214.713, 983 213.818 C 981.625 212.924, 978.475 211.872, 976 211.480 C 970.275 210.574, 968.109 209.419, 967.007 206.685 C 966.361 205.080, 966.110 204.945, 966.063 206.177 M 85 215.441 C 85 220.480, 85.411 224, 86 224 C 86.583 224, 87 220.686, 87 216.059 C 87 211.691, 86.550 207.840, 86 207.500 C 85.363 207.106, 85 209.990, 85 215.441 M 280.419 212.824 C 280.768 218.985, 283.009 222.640, 288.071 225.305 C 292.490 227.632, 300.636 227.161, 304.487 224.355 C 306.991 222.531, 307.236 221.781, 307.241 215.927 L 307.247 209.500 304.124 209.187 C 302.387 209.012, 301 209.346, 301 209.937 C 301 210.521, 302.125 211, 303.500 211 C 305.864 211, 306 211.299, 306 216.515 C 306 221.663, 305.784 222.161, 302.750 224.011 C 299.109 226.231, 294.201 226.476, 289.049 224.694 C 284.941 223.273, 281.851 218.507, 280.828 212.013 C 280.119 207.510, 280.118 207.512, 280.419 212.824 M 634 214 C 634 217.300, 634.429 220, 634.953 220 C 635.477 220, 635.815 217.304, 635.703 214.009 C 635.439 206.204, 634 206.197, 634 214 M 334.250 209.743 C 339.769 209.986, 342 210.459, 342 211.384 C 342 212.301, 340.015 212.749, 335.273 212.903 C 325.950 213.204, 325.994 214, 335.333 214 C 342.844 214, 343 213.949, 343 211.500 C 343 209.019, 342.937 209.002, 334.750 209.201 L 326.500 209.402 334.250 209.743 M 530.454 211.417 C 530.524 215.084, 532 215.799, 532 212.167 C 532 210.425, 531.642 209, 531.204 209 C 530.765 209, 530.428 210.088, 530.454 211.417 M 325.846 213.500 C 324.953 214.866, 325.504 220.935, 326.607 221.874 C 327.098 222.293, 330.650 222.317, 334.500 221.929 L 341.500 221.223 334.292 221.361 L 327.085 221.500 326.792 217 C 326.632 214.525, 326.206 212.950, 325.846 213.500 M 965.743 219.084 C 963.218 220.555, 965.188 223.763, 969.801 225.690 C 977.682 228.983, 989.070 225.349, 988.961 219.576 C 988.930 217.956, 988.624 218.184, 987.566 220.616 C 986.121 223.934, 981.998 226, 976.819 226 C 973.466 226, 967.569 223.729, 966.522 222.036 C 965.096 219.728, 967.096 219.686, 971.103 221.938 C 975.390 224.347, 980.678 224.342, 983.589 221.926 C 986.294 219.681, 984.978 218.957, 982.083 221.097 C 978.633 223.648, 973.125 223.125, 969.944 219.944 C 967.702 217.702, 968.008 217.765, 965.743 219.084 M 443 221.972 C 443 222.532, 446.036 222.850, 450.156 222.722 C 455.048 222.570, 457.443 222.884, 457.727 223.715 C 458.033 224.608, 455.266 225.017, 447.322 225.253 L 436.500 225.575 448.111 225.788 L 459.723 226 459.245 223.500 C 458.783 221.085, 458.498 221, 450.883 221 C 446.445 221, 443 221.425, 443 221.972 M 531.079 222.583 C 531.127 223.748, 531.364 223.985, 531.683 223.188 C 531.972 222.466, 531.936 221.603, 531.604 221.271 C 531.272 220.939, 531.036 221.529, 531.079 222.583" stroke="none" fill="#ffffff" fill-rule="evenodd"/>
</svg>