<svg xmlns="http://www.w3.org/2000/svg" width="1000" height="236" viewBox="0 0 1000 236" version="1.1">
	<path d="M 162.811 10.250 C 161.947 10.938, 160.947 12.850, 160.590 14.500 C 160.113 16.698, 160.211 17.099, 160.954 16 C 161.513 15.175, 161.976 13.875, 161.985 13.110 C 161.993 12.346, 162.787 11.123, 163.750 10.392 C 164.713 9.661, 165.249 9.049, 164.941 9.032 C 164.634 9.014, 163.675 9.563, 162.811 10.250 M 171.750 9.732 C 174.088 9.943, 177.912 9.943, 180.250 9.732 C 182.588 9.522, 180.675 9.349, 176 9.349 C 171.325 9.349, 169.412 9.522, 171.750 9.732 M 186.250 10.305 C 187.785 11.547, 188 13.689, 188 27.740 L 188 43.759 175.250 44.205 C 166.794 44.501, 162.253 44.289, 161.765 43.576 C 161.319 42.922, 161.025 43.171, 161.015 44.211 C 161.005 45.385, 159.664 46.260, 156.750 46.996 C 148.238 49.144, 137.357 53.260, 131.245 56.642 C 110.029 68.382, 93.780 89.738, 89.741 111.187 L 88.670 116.875 81.585 118.059 C 49.469 123.426, 22.808 144.131, 12.032 172.073 C 10.364 176.398, 9.022 180.512, 9.049 181.218 C 9.076 181.923, 10.185 179.675, 11.513 176.223 C 16.515 163.226, 23.378 155.521, 34.664 150.234 C 40.433 147.531, 40.773 147.496, 64.250 147.185 L 88 146.869 88 162.863 C 88 176.070, 88.274 179.131, 89.571 180.429 C 90.821 181.678, 93.542 182, 102.871 182 C 110.660 182, 115.003 181.597, 115.800 180.800 C 116.641 179.959, 117 174.426, 117 162.319 L 117 145.038 119.750 144.444 C 121.263 144.117, 126.721 142.440, 131.879 140.717 C 159.206 131.591, 181.716 107.644, 187.529 81.513 L 189.129 74.322 199.421 72.292 C 228.367 66.583, 251.654 48.981, 263.425 23.911 C 265.339 19.835, 267.177 15.150, 267.509 13.500 C 267.842 11.850, 266.679 13.801, 264.925 17.835 C 258.650 32.270, 246.542 41.753, 231.500 44.012 C 227.650 44.590, 216.625 44.936, 207 44.781 L 189.500 44.500 189.226 27.772 C 188.961 11.599, 188.878 11.009, 186.726 9.967 C 184.713 8.993, 184.667 9.025, 186.250 10.305 M 428.942 36.934 C 415.995 39.336, 408.351 45.741, 404.910 57.072 C 403.007 63.334, 402.916 65.997, 403.200 106.595 L 403.500 149.500 406.101 155 C 409.396 161.967, 413.062 165.624, 420 168.870 C 424.952 171.186, 426.961 171.481, 440.154 171.828 C 454.984 172.218, 471.401 170.742, 473.729 168.810 C 475.397 167.425, 475.455 153.855, 473.800 152.200 C 472.951 151.351, 467.031 151, 453.550 150.998 C 430.241 150.997, 428.221 150.368, 426.243 142.500 C 425.498 139.538, 425.090 132.813, 425.243 126 L 425.500 114.500 449 114 L 472.500 113.500 472.792 105.153 C 472.977 99.859, 472.658 96.293, 471.920 95.403 C 470.982 94.274, 466.291 94, 447.878 94 L 425 94 425.024 82.250 C 425.053 68.111, 426.046 63.233, 429.503 60.250 C 432.018 58.081, 432.819 58, 451.865 58 C 466.258 58, 472.089 57.655, 473.355 56.730 C 474.801 55.672, 475.043 54.126, 474.796 47.500 L 474.500 39.541 469 38.282 C 462.131 36.710, 435.060 35.798, 428.942 36.934 M 848 36.999 C 836.802 38.901, 829.956 43.765, 825.631 52.891 L 822.500 59.500 822.183 100.500 C 821.795 150.744, 822.450 155.349, 831.162 163.699 C 837.672 169.937, 842.733 171.376, 859.728 171.817 C 874.004 172.188, 889.971 170.872, 892.859 169.087 C 893.711 168.560, 893.997 165.759, 893.793 159.914 L 893.500 151.500 872.500 150.975 C 860.950 150.687, 850.696 150.070, 849.713 149.604 C 845.899 147.797, 845 143.786, 845 128.568 L 845 114.037 868.250 113.768 L 891.500 113.500 891.792 105.153 C 891.977 99.859, 891.658 96.293, 890.920 95.403 C 889.984 94.275, 885.362 94, 867.378 94 L 845 94 845 78.923 L 845 63.846 847.923 60.923 L 850.846 58 871.223 58 C 885.738 58, 891.945 57.655, 892.800 56.800 C 893.529 56.071, 894 52.528, 894 47.775 C 894 40.387, 893.863 39.898, 891.544 39.017 C 885.154 36.587, 857.872 35.323, 848 36.999 M 940.763 36.962 C 927.166 39.454, 918.198 45.561, 913.950 55.221 C 912.075 59.483, 911.616 62.330, 911.569 70 C 911.518 78.210, 911.863 80.253, 914.106 85.046 C 918.187 93.762, 922.060 97.305, 942.545 111.056 C 953.094 118.136, 962.573 125.183, 963.612 126.715 C 966.352 130.756, 966.238 140.856, 963.410 144.677 C 959.880 149.446, 956.582 150.488, 945 150.494 C 939.225 150.497, 930.225 150.275, 925 150 L 915.500 149.500 915.500 159 L 915.500 168.500 920.500 169.897 C 923.867 170.838, 931.380 171.322, 943.500 171.379 C 963.308 171.472, 966.183 170.878, 975 164.874 C 985.001 158.064, 989.511 148.427, 989.479 133.936 C 989.459 125.187, 989.180 123.808, 986.205 117.764 C 982.236 109.702, 975.368 103.156, 963.229 95.867 C 937.892 80.652, 934.012 77.244, 934.004 70.200 C 933.998 65.372, 936.402 61.512, 940.677 59.483 C 944.062 57.877, 946.537 57.759, 965.127 58.317 C 983.264 58.861, 985.883 58.746, 986.405 57.387 C 987.639 54.172, 987.030 42.173, 985.559 40.702 C 982.630 37.772, 950.828 35.118, 940.763 36.962 M 312.512 38.172 C 308.119 38.672, 303.506 39.749, 302.262 40.564 L 300 42.046 300 105.823 C 300 154.094, 300.292 169.892, 301.200 170.800 C 303.098 172.698, 319.459 172.398, 321.429 170.429 C 322.781 169.076, 323 165.020, 323 141.312 L 323 113.767 325.250 114.370 C 326.488 114.701, 330.223 114.979, 333.551 114.986 L 339.602 115 352.015 143.035 C 361.557 164.583, 364.900 171.187, 366.465 171.578 C 367.584 171.858, 372.770 171.954, 377.989 171.793 C 385.973 171.546, 387.529 171.231, 387.801 169.804 C 387.980 168.871, 382.291 156.177, 375.158 141.596 L 362.191 115.083 367.440 112.121 C 373.707 108.584, 377.415 104.422, 380.910 97 C 383.297 91.931, 383.500 90.443, 383.500 78 C 383.500 65.487, 383.306 64.087, 380.852 58.852 C 373.679 43.553, 359.151 36.875, 333.590 37.131 C 326.391 37.203, 316.905 37.671, 312.512 38.172 M 526.008 39.713 C 521.423 42.120, 520.067 43.497, 517.802 48.048 C 515.947 51.776, 510.803 71.529, 501.538 110.500 C 494.085 141.850, 487.990 168.239, 487.993 169.143 C 488.003 171.512, 490.066 172, 500.059 172 C 508.208 172, 509.069 171.811, 510.332 169.750 C 511.090 168.513, 517.046 143.037, 523.568 113.137 C 535.055 60.470, 536.340 55.940, 539.030 58.630 C 539.522 59.122, 545.347 84.230, 551.974 114.424 C 558.601 144.618, 564.523 169.925, 565.134 170.661 C 565.908 171.594, 568.914 172, 575.041 172 C 585.336 172, 587.001 171.533, 586.997 168.643 C 586.995 167.464, 580.697 140.175, 573.001 108 C 557.705 44.051, 557.625 43.819, 549.500 39.603 C 546.893 38.250, 543.063 37.406, 538.500 37.178 C 532.340 36.871, 530.841 37.175, 526.008 39.713 M 599.990 39.019 C 599.194 40.507, 598.977 56.118, 599.237 93.304 C 599.559 139.410, 599.803 146.107, 601.326 150.706 C 606.863 167.417, 620.677 173.297, 648.989 170.994 C 655.870 170.434, 662.850 169.613, 664.500 169.169 C 667.496 168.363, 667.500 168.351, 667.793 160.016 C 668.004 154.016, 667.723 151.441, 666.793 150.851 C 666.082 150.400, 657.388 150.024, 647.473 150.015 C 628.235 149.999, 626.577 149.627, 623.758 144.699 C 622.810 143.042, 622.377 129.568, 622 90 L 621.500 37.500 611.304 37.216 C 601.835 36.952, 601.027 37.080, 599.990 39.019 M 684.667 38.667 C 684.300 39.033, 684 68.418, 684 103.967 C 684 152.904, 684.291 168.891, 685.200 169.800 C 686.828 171.428, 704.172 171.428, 705.800 169.800 C 706.708 168.892, 707 153.107, 707 104.882 C 707 69.837, 706.727 40.452, 706.393 39.582 C 705.894 38.282, 703.962 38, 695.560 38 C 689.935 38, 685.033 38.300, 684.667 38.667 M 723.425 39.334 C 723.144 40.067, 723.046 44.455, 723.207 49.084 L 723.500 57.500 739 58 L 754.500 58.500 754.759 113.408 C 754.940 151.933, 755.350 168.716, 756.131 169.658 C 757.598 171.425, 775.055 171.545, 776.800 169.800 C 777.704 168.896, 778 154.978, 778 113.300 L 778 58 793.393 58 C 811.071 58, 810 58.645, 810 48 C 810 36.925, 814.691 38, 766.362 38 C 731.926 38, 723.841 38.251, 723.425 39.334 M 327.250 58.668 L 323 59.115 323 77.158 L 323 95.201 335.750 94.845 C 346.726 94.539, 349.177 94.157, 353.363 92.100 C 357.085 90.273, 358.665 88.748, 360.091 85.606 C 364.791 75.258, 360.141 63.502, 350 60.091 C 346.062 58.766, 333.685 57.992, 327.250 58.668 M 127.500 74.646 C 125.850 74.907, 122.803 75.564, 120.729 76.105 L 116.958 77.088 117.229 96.794 L 117.500 116.500 131.500 116.789 C 147.713 117.123, 158.549 115.695, 160.232 113 C 160.850 112.010, 161.951 111.428, 162.678 111.707 C 163.405 111.986, 164 111.716, 164 111.107 C 164 110.498, 164.787 109.986, 165.750 109.968 C 167.663 109.934, 173 105.661, 173 104.163 C 173 103.650, 174.074 102.526, 175.387 101.666 C 178.065 99.911, 181.646 94.537, 182.161 91.500 C 182.347 90.400, 183.030 88.938, 183.678 88.250 C 184.905 86.949, 187.629 76.284, 186.911 75.592 C 186.283 74.987, 130.917 74.105, 127.500 74.646 M 112.729 80.092 C 111.755 80.659, 111.216 81.540, 111.531 82.050 C 111.846 82.560, 111.515 82.751, 110.796 82.475 C 109.216 81.869, 102 87.604, 102 89.466 C 102 90.192, 101.325 91.045, 100.500 91.362 C 99.675 91.678, 99 92.381, 99 92.924 C 99 93.467, 97.865 95.584, 96.478 97.628 C 95.091 99.672, 93.256 103.854, 92.400 106.922 C 91.544 109.990, 90.623 113.287, 90.354 114.250 C 89.906 115.852, 90.968 116, 102.933 116 L 116 116 116 97.500 C 116 87.325, 115.662 79.014, 115.250 79.030 C 114.838 79.047, 113.703 79.525, 112.729 80.092 M 100.750 146.747 L 89 147.063 89 162.909 C 89 175.227, 89.310 179.012, 90.392 179.910 C 91.318 180.679, 95.754 180.971, 103.642 180.783 L 115.500 180.500 115.774 163.250 C 116.028 147.230, 115.921 146.015, 114.274 146.215 C 113.298 146.333, 107.213 146.573, 100.750 146.747 M 13.389 208.500 C 13.390 215.650, 13.550 218.444, 13.742 214.708 C 13.935 210.973, 13.934 205.123, 13.739 201.708 C 13.545 198.294, 13.387 201.350, 13.389 208.500 M 45.328 196.770 C 43.664 197.037, 42.997 198.056, 42.479 201.127 C 42.106 203.331, 42.011 205.345, 42.268 205.601 C 42.524 205.857, 43.024 204.252, 43.379 202.034 C 43.733 199.815, 44.468 198, 45.012 198 C 46.271 198, 46.261 199.185, 44.972 202.574 C 44.407 204.061, 44.131 205.464, 44.360 205.693 C 44.588 205.921, 45.499 203.983, 46.385 201.385 C 47.270 198.787, 47.883 196.607, 47.747 196.541 C 47.611 196.474, 46.523 196.577, 45.328 196.770 M 65 210.500 C 65 222.602, 64.756 225, 63.527 225 C 62.314 225, 62.001 222.493, 61.748 210.750 L 61.441 196.500 61.220 211.250 L 61 226 63.500 226 L 66 226 66 211 C 66 202.750, 65.775 196, 65.500 196 C 65.225 196, 65 202.525, 65 210.500 M 101.160 205.250 C 101.323 214.655, 101.719 213.534, 102.222 202.248 C 102.375 198.810, 102.162 195.997, 101.750 195.998 C 101.338 195.999, 101.072 200.162, 101.160 205.250 M 105 210.500 C 105 218.475, 104.625 225, 104.166 225 C 103.707 225, 99.807 220.500, 95.500 215 C 87.870 205.258, 83.984 201.155, 89.663 208.837 C 106.180 231.180, 106 231.156, 106 211 C 106 202.750, 105.775 196, 105.500 196 C 105.225 196, 105 202.525, 105 210.500 M 119 198.743 C 119 200.785, 119.477 201, 124 201 L 129 201 129 213.500 L 129 226 131.500 226 L 134 226 134 213.552 L 134 201.105 139.006 200.715 L 144.011 200.326 138.756 200.413 L 133.500 200.500 133.219 212.750 C 132.993 222.609, 132.658 225, 131.500 225 C 130.342 225, 130.007 222.609, 129.781 212.750 L 129.500 200.500 124.750 200.195 C 118.850 199.817, 118.519 198.227, 124.250 197.793 L 128.500 197.471 123.750 196.978 C 119.341 196.521, 119 196.648, 119 198.743 M 193.221 210.750 L 193 226 203 226 C 212.333 226, 213 225.867, 213 224 C 213 222.155, 212.400 222.015, 205.250 222.199 L 197.500 222.397 204.750 222.743 C 215.122 223.236, 213.776 225, 203.027 225 L 194.053 225 193.748 210.250 L 193.442 195.500 193.221 210.750 M 227.221 210.750 L 227 226 237.750 225.789 L 248.500 225.578 238.277 225.254 L 228.053 224.931 227.748 210.215 L 227.442 195.500 227.221 210.750 M 231.455 209.249 L 231.500 222.500 239.752 223 C 244.291 223.275, 248.003 223.162, 248.002 222.750 C 248.001 222.338, 244.413 222, 240.029 222 L 232.058 222 231.734 208.999 L 231.409 195.997 231.455 209.249 M 265 210.500 C 265 222.722, 264.764 225, 263.500 225 C 262.241 225, 262 222.843, 262 211.583 C 262 201.786, 262.337 198.031, 263.250 197.662 C 263.997 197.361, 263.795 197.126, 262.750 197.079 C 261.160 197.007, 261 198.327, 261 211.500 L 261 226 263.500 226 L 266 226 266 211 C 266 202.750, 265.775 196, 265.500 196 C 265.225 196, 265 202.525, 265 210.500 M 286.898 198.270 C 281.986 201.552, 279.803 206.340, 280.280 212.791 C 280.733 218.914, 283.074 222.674, 288.071 225.305 C 292.308 227.536, 300.280 227.175, 304.250 224.573 C 306.652 222.998, 306.978 222.183, 306.825 218.135 L 306.651 213.500 306.265 217.801 C 305.946 221.365, 305.333 222.436, 302.690 224.047 C 298.727 226.464, 292.603 226.548, 288 224.248 C 279.126 219.815, 278.626 204.247, 287.190 199.026 C 289.267 197.759, 292.252 197.006, 295.203 197.004 C 299.740 197, 305 198.605, 305 199.994 C 305 201.643, 303.534 201.810, 300.923 200.460 C 292.996 196.361, 284 202.229, 284 211.500 C 284 218.672, 288.450 223, 295.825 223 C 301.173 223, 304.189 220.601, 303.806 216.654 C 303.527 213.780, 303.158 213.472, 299.651 213.184 C 296.406 212.917, 295.881 212.564, 296.307 210.934 C 296.585 209.870, 296.405 209, 295.906 209 C 295.408 209, 295 210.125, 295 211.500 C 295 213.750, 295.400 214, 299 214 C 302.767 214, 303 214.173, 303 216.965 C 303 220.571, 300.727 222, 294.989 222 C 288.996 222, 285 217.861, 285 211.654 C 285 203.070, 292.996 197.720, 300.487 201.292 C 302.904 202.445, 304.043 202.557, 304.876 201.724 C 306.605 199.995, 306.252 199.181, 303.050 197.526 C 298.568 195.208, 290.956 195.559, 286.898 198.270 M 322.221 210.750 L 322 226 333 226 C 343.984 226, 344 225.996, 344 223.569 C 344 221.187, 343.805 221.131, 334.545 220.819 C 329.184 220.638, 325.469 220.877, 325.965 221.370 C 326.446 221.848, 330.325 222.298, 334.584 222.370 C 339.791 222.457, 342.465 222.910, 342.747 223.750 C 343.064 224.695, 340.712 225, 333.110 225 L 323.053 225 322.748 210.250 L 322.442 195.500 322.221 210.750 M 359 210.833 L 359 226 361.500 226 L 364 226 363.792 216.250 L 363.585 206.500 363.255 215.750 C 362.990 223.186, 362.629 225, 361.415 225 C 360.134 225, 359.929 222.876, 360.056 210.936 C 360.138 203.201, 359.934 196.601, 359.603 196.270 C 359.271 195.938, 359 202.492, 359 210.833 M 379.365 205.500 C 379.368 211, 379.536 213.122, 379.738 210.216 C 379.941 207.311, 379.939 202.811, 379.734 200.216 C 379.528 197.622, 379.363 200, 379.365 205.500 M 382.824 210.499 C 383.082 222.042, 382.878 224.992, 381.824 224.960 C 381.096 224.938, 377.350 220.686, 373.500 215.509 C 369.650 210.333, 366.139 206.076, 365.698 206.049 C 365.258 206.022, 368.363 210.500, 372.598 216 C 383.511 230.169, 384 229.954, 384 211 C 384 202.750, 383.663 195.999, 383.250 195.999 C 382.837 195.998, 382.646 202.523, 382.824 210.499 M 406.020 197.752 C 400.845 200.352, 398 205.228, 398 211.500 C 398 223.309, 409.755 230.532, 420.599 225.386 C 424.350 223.606, 424.703 222.828, 422.564 221.053 C 421.518 220.185, 420.584 220.152, 419.130 220.931 C 415.626 222.806, 409.361 222.218, 406.538 219.750 C 401.510 215.354, 401.564 207.061, 406.647 203.063 C 409.533 200.793, 415.811 200.293, 419.130 202.069 C 420.584 202.848, 421.518 202.815, 422.564 201.947 C 424.685 200.187, 424.370 199.547, 420.466 197.685 C 415.921 195.518, 410.416 195.543, 406.020 197.752 M 491 210.833 L 491 226 499.250 225.799 L 507.500 225.598 499.703 225.256 L 491.907 224.914 492.056 210.893 C 492.139 203.182, 491.934 196.601, 491.603 196.270 C 491.271 195.938, 491 202.492, 491 210.833 M 571.500 197.155 C 568.441 198.828, 567 201.095, 567 204.237 C 567 207.725, 571.002 212.015, 574.205 211.961 C 576.107 211.928, 575.906 211.664, 573.032 210.418 C 568.974 208.657, 568.036 207.440, 568.015 203.905 C 567.998 200.906, 570.553 198.254, 574.643 197.028 C 576.651 196.426, 576.906 196.155, 575.500 196.116 C 574.400 196.086, 572.600 196.553, 571.500 197.155 M 582.198 196.949 C 586.752 197.835, 589.671 199.968, 587.859 201.087 C 587.180 201.507, 585.709 201.209, 584.590 200.425 C 581.635 198.356, 574.680 198.591, 572.655 200.829 C 568.924 204.951, 572.086 208.545, 580.415 209.649 C 594.518 211.520, 592.736 226, 578.403 226 C 574.517 226, 568.636 223.838, 567.494 221.990 C 566.317 220.085, 569.119 218.976, 570.817 220.675 C 576.465 226.322, 588.302 223.322, 586.631 216.667 C 585.964 214.009, 581.268 211.536, 578.329 212.295 C 577.006 212.637, 577.199 212.800, 579.027 212.884 C 582.745 213.055, 586.170 215.802, 585.807 218.322 C 585.119 223.090, 575.965 224.195, 571.545 220.042 C 569.644 218.256, 569.141 218.176, 567.476 219.394 C 565.828 220.599, 565.760 221.006, 566.965 222.458 C 570.649 226.896, 578.951 228.301, 585.452 225.585 C 589.233 224.005, 591 221.430, 591 217.500 C 591 212.115, 588.230 209.941, 579.518 208.487 C 572.484 207.313, 569.977 204.423, 573.200 201.200 C 574.930 199.470, 582.031 199.718, 584.088 201.580 C 585.523 202.879, 586.238 202.943, 588.108 201.942 L 590.382 200.725 587.635 198.363 C 585.880 196.853, 583.735 196.042, 581.694 196.115 L 578.500 196.230 582.198 196.949 M 621.136 198.250 C 621.005 200.906, 621.163 200.994, 625.750 200.825 L 630.500 200.651 626.312 200.271 C 622.951 199.966, 622.041 199.458, 621.699 197.696 C 621.346 195.879, 621.249 195.975, 621.136 198.250 M 644 197.943 C 644 199.501, 643.160 199.961, 639.750 200.268 L 635.500 200.651 640.250 200.825 C 644.697 200.989, 645 200.840, 645 198.500 C 645 197.125, 644.775 196, 644.500 196 C 644.225 196, 644 196.874, 644 197.943 M 658.221 210.750 L 658 226 669 226 L 680 226 680 223.500 C 680 221.029, 679.900 221, 671.500 221 L 663 221 663 217.500 L 663 214 670.883 214 C 678.498 214, 678.783 213.915, 679.245 211.500 L 679.723 209 671.422 209 L 663.121 209 662.706 205.491 L 662.290 201.983 662.395 205.741 L 662.500 209.500 670.250 209.792 C 676.130 210.014, 678 210.426, 678 211.500 C 678 212.574, 676.130 212.986, 670.250 213.208 L 662.500 213.500 662.500 217.500 L 662.500 221.500 670.750 221.790 C 677.182 222.017, 679 222.402, 679 223.540 C 679 224.722, 677.102 225, 669.027 225 L 659.053 225 658.748 210.250 L 658.442 195.500 658.221 210.750 M 679 197.960 C 679 199.720, 678.162 199.953, 670.750 200.256 L 662.500 200.593 671.250 200.796 C 679.971 200.999, 680 200.992, 680 198.500 C 680 197.125, 679.775 196, 679.500 196 C 679.225 196, 679 196.882, 679 197.960 M 694 211 L 694 226 696.500 226 C 698.833 226, 699 225.667, 699 221 C 699 216.023, 699.015 216, 702.250 216.014 C 704.930 216.026, 706.202 216.895, 709.500 220.964 C 712.800 225.036, 714.079 225.909, 716.805 225.950 L 720.111 226 715.843 221.046 C 713.496 218.321, 711.363 216.304, 711.103 216.564 C 710.843 216.824, 712.380 218.828, 714.518 221.018 C 717.963 224.546, 718.162 225, 716.262 225 C 714.916 225, 712.535 223.122, 709.862 219.951 C 706.042 215.421, 705.240 214.933, 702.052 215.201 C 698.573 215.494, 698.494 215.597, 698.195 220.250 C 697.976 223.665, 697.470 225, 696.394 225 C 695.120 225, 694.942 222.842, 695.199 210.498 C 695.364 202.523, 695.163 195.998, 694.750 195.998 C 694.337 195.999, 694 202.750, 694 211 M 732.500 197 C 732.160 197.550, 732.359 198, 732.941 198 C 733.523 198, 734 197.550, 734 197 C 734 196.450, 733.802 196, 733.559 196 C 733.316 196, 732.840 196.450, 732.500 197 M 771.221 210.750 L 771 226 773.750 225.864 C 776.068 225.749, 776.151 225.660, 774.276 225.298 C 772.116 224.880, 772.044 224.452, 771.747 210.184 L 771.442 195.500 771.221 210.750 M 790.136 198.250 C 790.005 200.901, 790.179 201, 795 201 L 800 201 800 213.500 L 800 226 802.500 226 L 805 226 805 213.552 L 805 201.105 810.006 200.715 L 815.011 200.326 809.756 200.413 L 804.500 200.500 804.219 212.750 C 803.993 222.609, 803.658 225, 802.500 225 C 801.342 225, 801.007 222.609, 800.781 212.750 L 800.500 200.500 795.813 200.198 C 791.902 199.946, 791.055 199.532, 790.699 197.698 C 790.346 195.877, 790.249 195.972, 790.136 198.250 M 834.270 197.483 C 827.517 200.418, 824.366 210.519, 827.790 218.258 C 829.713 222.606, 832 225.214, 832 223.059 C 832 222.477, 831.599 222, 831.109 222 C 830.618 222, 829.457 220.100, 828.528 217.779 C 826.157 211.852, 827.197 205.847, 831.388 201.274 C 834.070 198.347, 835.488 197.660, 839.671 197.258 C 846.701 196.582, 851.662 199.045, 854.105 204.424 C 857.239 211.324, 856.009 217.964, 850.691 222.866 C 847.617 225.699, 840.599 226.753, 835.843 225.095 C 833.291 224.205, 832.815 224.215, 833.738 225.138 C 835.875 227.275, 845.106 227.336, 849 225.238 C 853.007 223.079, 857 216.223, 857 211.500 C 857 206.625, 852.999 199.749, 849 197.752 C 844.818 195.663, 838.713 195.551, 834.270 197.483 M 871.221 210.750 L 871 226 873.750 225.864 C 876.068 225.749, 876.151 225.660, 874.276 225.298 C 872.116 224.880, 872.044 224.452, 871.747 210.184 L 871.442 195.500 871.221 210.750 M 929.221 210.750 L 929 226 940 226 L 951 226 951 223.500 C 951 221.029, 950.900 221, 942.500 221 C 935.167 221, 934 220.767, 934 219.300 C 934 217.946, 933.747 217.853, 932.758 218.842 C 930.276 221.324, 933.937 222.158, 947.750 222.258 C 948.987 222.267, 950 222.888, 950 223.637 C 950 224.697, 947.779 225, 940.027 225 L 930.053 225 929.748 210.250 L 929.442 195.500 929.221 210.750 M 969.321 197.189 C 966.057 198.767, 964.473 203.313, 965.946 206.870 C 967.287 210.108, 970.128 211.691, 976.283 212.630 C 978.602 212.985, 981.288 213.678, 982.250 214.172 C 984.709 215.434, 984.440 219.578, 981.777 221.443 C 980.555 222.299, 980.035 223, 980.623 223 C 982.366 223, 985 219.506, 985 217.194 C 985 214.368, 981.649 212.323, 975.563 211.436 C 963.821 209.725, 962.710 198.804, 974.090 196.964 C 978.173 196.303, 978.241 196.246, 975 196.193 C 973.075 196.161, 970.520 196.609, 969.321 197.189 M 981.314 197.017 C 982.862 197.481, 984.795 198.415, 985.611 199.092 C 987.936 201.022, 985.125 202.128, 982.414 200.351 C 981.057 199.462, 978.456 199.001, 975.864 199.189 C 972.342 199.444, 971.287 200.008, 970.032 202.311 C 968.592 204.953, 968.632 205.230, 970.714 206.942 C 971.932 207.943, 975.082 209.085, 977.714 209.480 C 982.766 210.237, 986.017 211.576, 987.235 213.400 C 988.675 215.556, 988.003 220.997, 986.056 222.944 C 982.074 226.926, 971.626 226.876, 967.346 222.855 C 963.894 219.612, 966.447 218.685, 970.764 221.614 C 972.697 222.926, 975.454 223.964, 976.890 223.921 C 979.660 223.837, 979.204 223.551, 974.725 222.562 C 973.198 222.225, 971.050 221.050, 969.952 219.952 C 968.362 218.362, 967.548 218.172, 965.964 219.019 C 961.220 221.558, 968.963 227, 977.320 227 C 983.032 227, 988.369 223.567, 988.828 219.597 C 989.615 212.791, 986.836 209.944, 978 208.502 C 970.187 207.227, 968.131 205.011, 971.571 201.571 C 973.547 199.596, 979.887 199.532, 982.640 201.461 C 984.359 202.664, 985.036 202.694, 986.489 201.632 C 988.130 200.432, 988.061 200.193, 985.491 198.171 C 983.973 196.977, 981.778 196.039, 980.615 196.086 C 978.928 196.155, 979.069 196.343, 981.314 197.017 M 9 211.500 L 9 226 19.500 226 C 29.333 226, 30 225.873, 30 224 C 30 222.155, 29.400 222.015, 22.250 222.199 L 14.500 222.397 21.750 222.743 C 32.434 223.251, 30.650 225, 19.447 225 L 9.895 225 10.197 210.998 C 10.364 203.297, 10.162 196.997, 9.750 196.998 C 9.338 196.999, 9 203.525, 9 211.500 M 82.395 210.500 C 82.396 218.200, 82.553 221.218, 82.743 217.206 C 82.934 213.195, 82.932 206.895, 82.741 203.206 C 82.549 199.518, 82.393 202.800, 82.395 210.500 M 92.121 206.016 C 96.038 210.975, 99.728 215.332, 100.321 215.699 C 101.250 216.273, 98.464 212.552, 88.356 199.721 C 87.177 198.225, 85.939 197, 85.606 197 C 85.272 197, 88.204 201.057, 92.121 206.016 M 157.395 210.500 C 157.396 218.200, 157.553 221.218, 157.743 217.206 C 157.934 213.195, 157.932 206.895, 157.741 203.206 C 157.549 199.518, 157.393 202.800, 157.395 210.500 M 161.813 197.683 C 162.534 197.972, 163.397 197.936, 163.729 197.604 C 164.061 197.272, 163.471 197.036, 162.417 197.079 C 161.252 197.127, 161.015 197.364, 161.813 197.683 M 176.750 197.662 C 179.960 198.957, 177.285 199.948, 169.750 200.256 L 161.500 200.593 170.250 200.796 C 178.401 200.986, 179 200.863, 179 199 C 179 197.732, 178.360 197.029, 177.250 197.079 C 176.205 197.126, 176.003 197.361, 176.750 197.662 M 325.250 197.689 C 326.212 197.941, 327.788 197.941, 328.750 197.689 C 329.712 197.438, 328.925 197.232, 327 197.232 C 325.075 197.232, 324.288 197.438, 325.250 197.689 M 339.750 197.723 C 345.853 198.481, 343.014 199.919, 334.750 200.256 L 326.500 200.593 335.250 200.796 C 343.401 200.986, 344 200.863, 344 199 C 344 197.327, 343.387 197.026, 340.250 197.160 C 336.558 197.318, 336.550 197.326, 339.750 197.723 M 363.621 198.250 C 364.452 199.655, 375.802 213.951, 377.316 215.500 C 379.697 217.936, 376.191 212.909, 370.166 205.250 C 364.258 197.738, 361.702 195.005, 363.621 198.250 M 406.270 198.483 C 396.248 202.839, 396.575 220.417, 406.757 224.672 C 410.857 226.385, 419.160 225.942, 421.648 223.877 C 423.743 222.138, 421.732 220.538, 419.173 221.907 C 415.283 223.989, 409.291 223.236, 405.997 220.250 C 400.293 215.081, 400.374 207.388, 406.184 202.498 C 408.840 200.264, 410.096 199.896, 413.927 200.231 C 416.442 200.451, 419.119 200.826, 419.875 201.065 C 422.422 201.870, 422.077 199.356, 419.479 198.172 C 416.059 196.614, 410.254 196.751, 406.270 198.483 M 437 197.861 C 437 198.335, 438.125 198.508, 439.500 198.245 C 440.875 197.982, 442 197.594, 442 197.383 C 442 197.173, 440.875 197, 439.500 197 C 438.125 197, 437 197.388, 437 197.861 M 444.750 197.662 C 445.438 197.940, 446.563 197.940, 447.250 197.662 C 447.938 197.385, 447.375 197.158, 446 197.158 C 444.625 197.158, 444.063 197.385, 444.750 197.662 M 457.622 198.456 C 458.075 199.639, 456.706 199.977, 450.340 200.255 L 442.500 200.598 450.750 200.799 C 458.400 200.985, 459 200.855, 459 199 C 459 197.900, 458.564 197, 458.031 197 C 457.499 197, 457.314 197.655, 457.622 198.456 M 505.500 197.844 C 510.671 199.238, 513.122 201.047, 514.585 204.548 C 517.458 211.424, 515.464 220.343, 510.456 223.023 C 509.107 223.746, 508.213 224.547, 508.470 224.804 C 508.727 225.061, 510.114 224.500, 511.552 223.558 C 516.506 220.312, 518.448 211.357, 515.638 204.718 C 513.731 200.211, 510.886 197.987, 506.374 197.475 C 502.978 197.089, 502.870 197.135, 505.500 197.844 M 530 211.500 L 530 226 541.750 225.786 L 553.500 225.572 542.198 225.253 L 530.895 224.934 531.198 210.965 C 531.364 203.283, 531.163 196.997, 530.750 196.998 C 530.337 196.999, 530 203.525, 530 211.500 M 534.813 197.683 C 535.534 197.972, 536.397 197.936, 536.729 197.604 C 537.061 197.272, 536.471 197.036, 535.417 197.079 C 534.252 197.127, 534.015 197.364, 534.813 197.683 M 544.269 197.693 C 545.242 197.947, 546.592 197.930, 547.269 197.656 C 547.946 197.382, 547.150 197.175, 545.500 197.195 C 543.850 197.215, 543.296 197.439, 544.269 197.693 M 625.264 197.718 C 626.784 197.947, 629.034 197.941, 630.264 197.704 C 631.494 197.467, 630.250 197.279, 627.500 197.286 C 624.750 197.294, 623.744 197.488, 625.264 197.718 M 661.813 197.683 C 662.534 197.972, 663.397 197.936, 663.729 197.604 C 664.061 197.272, 663.471 197.036, 662.417 197.079 C 661.252 197.127, 661.015 197.364, 661.813 197.683 M 672.750 197.662 C 673.438 197.940, 674.563 197.940, 675.250 197.662 C 675.938 197.385, 675.375 197.158, 674 197.158 C 672.625 197.158, 672.063 197.385, 672.750 197.662 M 709.750 197.662 C 710.438 197.940, 711.563 197.940, 712.250 197.662 C 712.938 197.385, 712.375 197.158, 711 197.158 C 709.625 197.158, 709.063 197.385, 709.750 197.662 M 741.269 197.693 C 742.242 197.947, 743.592 197.930, 744.269 197.656 C 744.946 197.382, 744.150 197.175, 742.500 197.195 C 740.850 197.215, 740.296 197.439, 741.269 197.693 M 749.228 197.714 C 756.639 198.840, 758.511 211.243, 751.685 213.993 C 750.080 214.639, 749.945 214.890, 751.177 214.937 C 753.835 215.037, 757 210.185, 757 206.011 C 757 201.196, 753.297 196.936, 749.298 197.150 L 746.500 197.300 749.228 197.714 M 774.638 198.500 C 774.955 199.325, 775.391 200, 775.607 200 C 775.823 200, 776 199.325, 776 198.500 C 776 197.675, 775.564 197, 775.031 197 C 774.499 197, 774.322 197.675, 774.638 198.500 M 797.750 197.706 C 798.987 197.944, 801.013 197.944, 802.250 197.706 C 803.487 197.467, 802.475 197.272, 800 197.272 C 797.525 197.272, 796.513 197.467, 797.750 197.706 M 808.813 197.683 C 809.534 197.972, 810.397 197.936, 810.729 197.604 C 811.061 197.272, 810.471 197.036, 809.417 197.079 C 808.252 197.127, 808.015 197.364, 808.813 197.683 M 812.813 197.683 C 813.534 197.972, 814.397 197.936, 814.729 197.604 C 815.061 197.272, 814.471 197.036, 813.417 197.079 C 812.252 197.127, 812.015 197.364, 812.813 197.683 M 907.730 197.703 C 914.905 199.089, 916.199 211.453, 909.439 214.023 C 906.237 215.241, 906.345 215.902, 910.509 220.568 C 913.296 223.691, 913.682 224.571, 912.389 224.846 C 911.414 225.054, 908.975 223.150, 906.303 220.096 C 902.579 215.839, 901.322 215.025, 898.672 215.150 L 895.500 215.300 898.500 215.712 C 900.544 215.993, 902.933 217.728, 906 221.157 C 909.675 225.267, 911.005 226.126, 913.255 225.844 L 916.010 225.500 912.048 221 C 907.780 216.153, 907.257 215, 909.326 215 C 912.115 215, 915 210.495, 915 206.140 C 915 201.213, 911.559 196.913, 907.795 197.136 L 905.500 197.272 907.730 197.703 M 932.269 197.693 C 933.242 197.947, 934.592 197.930, 935.269 197.656 C 935.946 197.382, 935.150 197.175, 933.500 197.195 C 931.850 197.215, 931.296 197.439, 932.269 197.693 M 948.750 197.662 C 952.077 199.005, 949.229 200, 942.059 200 C 937.691 200, 933.908 200.338, 933.651 200.750 C 933.395 201.162, 937.193 201.356, 942.092 201.179 C 950.113 200.890, 951 200.666, 951 198.929 C 951 197.728, 950.339 197.030, 949.250 197.079 C 948.205 197.126, 948.003 197.361, 948.750 197.662 M 715.908 200.204 C 716.682 201.196, 717.643 203.693, 718.043 205.753 C 718.767 209.484, 718.771 209.486, 718.885 206.306 C 718.959 204.241, 718.205 202.279, 716.750 200.757 C 715.513 199.462, 715.134 199.213, 715.908 200.204 M 843.146 200.092 C 848.002 201.500, 851.048 204.939, 851.692 209.739 C 852.376 214.841, 849.901 219.703, 845.685 221.536 C 843.663 222.416, 843.167 222.936, 844.327 222.961 C 846.730 223.012, 851.722 217.955, 852.559 214.622 C 854.266 207.819, 849.608 200.495, 842.964 199.535 L 839.500 199.035 843.146 200.092 M 890.997 212.252 L 890.500 226.003 893.500 225.866 C 895.812 225.759, 895.991 225.629, 894.279 225.298 C 892.135 224.883, 892.047 224.406, 891.776 211.684 L 891.494 198.500 890.997 212.252 M 437.217 212.750 L 437 226 448.750 225.786 L 460.500 225.572 449.280 225.254 L 438.059 224.935 437.747 212.218 L 437.435 199.500 437.217 212.750 M 495.003 200.630 C 495.004 201.108, 497.744 201.500, 501.090 201.500 C 506.517 201.500, 507.435 201.803, 509.587 204.306 C 512.449 207.634, 512.837 213.792, 510.418 217.485 C 509.548 218.813, 507.268 220.417, 505.351 221.049 C 503.434 221.682, 502.073 222.406, 502.325 222.658 C 503.255 223.588, 509.790 220.138, 511.369 217.883 C 514.050 214.055, 513.487 207.577, 510.149 203.840 C 507.656 201.050, 506.525 200.593, 501.149 200.204 C 497.767 199.960, 495.001 200.151, 495.003 200.630 M 539.250 200.735 C 541.862 200.941, 546.138 200.941, 548.750 200.735 C 551.362 200.529, 549.225 200.360, 544 200.360 C 538.775 200.360, 536.638 200.529, 539.250 200.735 M 698.406 201.386 C 698.113 202.148, 698.049 204.735, 698.262 207.136 C 698.646 211.450, 698.653 211.440, 698.825 206.250 L 699 201 704.845 201 C 709.238 201, 711.101 201.454, 712.345 202.829 C 714.650 205.375, 714.409 208.600, 711.777 210.443 C 710.555 211.299, 710.035 212, 710.623 212 C 712.373 212, 715 208.502, 715 206.171 C 715 202.084, 711.612 200, 704.969 200 C 700.751 200, 698.777 200.417, 698.406 201.386 M 743.787 200.903 C 750.319 201.525, 751.956 202.667, 751.985 206.628 C 752.007 209.774, 749.370 211.419, 743.096 212.172 L 737.500 212.844 743.754 212.608 C 750.683 212.346, 752.910 210.702, 752.968 205.807 C 753.015 201.859, 749.691 199.969, 743.027 200.152 L 737.500 200.305 743.787 200.903 M 833.573 202.924 C 829.857 206.802, 829.092 213.231, 831.829 217.582 C 833.952 220.960, 840.624 225.417, 841.481 224.030 C 841.777 223.552, 840.404 222.629, 838.432 221.977 C 829.753 219.113, 828.391 206.781, 836.225 202.004 C 838.026 200.906, 838.797 200.006, 837.937 200.004 C 837.077 200.002, 835.114 201.316, 833.573 202.924 M 901 200.907 C 908.866 201.625, 910 202.271, 910 206.036 C 910 210.189, 906.423 212.293, 900.120 211.848 C 897.407 211.657, 895.428 211.887, 895.722 212.361 C 896.513 213.637, 907.579 212.594, 909.416 211.070 C 910.287 210.347, 911 208.261, 911 206.434 C 911 201.702, 908.094 199.960, 900.527 200.157 L 894.500 200.315 901 200.907 M 160.381 205.500 L 160.500 209.500 168.750 209.790 C 175.071 210.013, 177 210.413, 177 211.500 C 177 212.587, 175.071 212.987, 168.750 213.210 L 160.500 213.500 160.381 217.500 L 160.262 221.500 160.691 217.750 L 161.121 214 169.560 214 C 177.896 214, 178 213.969, 178 211.500 C 178 209.031, 177.896 209, 169.560 209 L 161.121 209 160.691 205.250 L 160.262 201.500 160.381 205.500 M 441.381 205.500 L 441.500 209.500 449.750 209.790 C 456.071 210.013, 458 210.413, 458 211.500 C 458 212.587, 456.071 212.987, 449.750 213.210 L 441.500 213.500 441.177 216.877 C 441 218.735, 441.287 220.687, 441.816 221.216 C 442.949 222.349, 459.001 222.848, 459 221.750 C 459 221.338, 455.175 221, 450.500 221 L 442 221 442 217.500 L 442 214 450.500 214 C 458.900 214, 459 213.971, 459 211.500 C 459 209.031, 458.896 209, 450.560 209 L 442.121 209 441.691 205.250 L 441.262 201.500 441.381 205.500 M 534.381 205.500 L 534.500 209.500 542.750 209.790 C 549.067 210.013, 551 210.413, 551 211.498 C 551 212.570, 549.111 212.999, 543.250 213.257 L 535.500 213.598 543.750 213.799 C 551.937 213.998, 552 213.981, 552 211.500 C 552 209.031, 551.896 209, 543.560 209 L 535.121 209 534.691 205.250 L 534.262 201.500 534.381 205.500 M 634.378 213 C 634.378 219.325, 634.541 221.912, 634.739 218.750 C 634.937 215.588, 634.937 210.412, 634.739 207.250 C 634.541 204.088, 634.378 206.675, 634.378 213 M 736.286 206.500 C 736.294 209.250, 736.488 210.256, 736.718 208.736 C 736.947 207.216, 736.941 204.966, 736.704 203.736 C 736.467 202.506, 736.279 203.750, 736.286 206.500 M 933.158 205 C 933.158 206.375, 933.385 206.938, 933.662 206.250 C 933.940 205.563, 933.940 204.438, 933.662 203.750 C 933.385 203.063, 933.158 203.625, 933.158 205 M 300.250 209.689 C 301.212 209.941, 302.788 209.941, 303.750 209.689 C 304.712 209.438, 303.925 209.232, 302 209.232 C 300.075 209.232, 299.288 209.438, 300.250 209.689 M 306.158 211 C 306.158 212.375, 306.385 212.938, 306.662 212.250 C 306.940 211.563, 306.940 210.438, 306.662 209.750 C 306.385 209.063, 306.158 209.625, 306.158 211 M 334.250 209.743 C 340.107 210.001, 342 210.430, 342 211.500 C 342 212.573, 340.141 212.987, 334.330 213.208 C 329.105 213.407, 326.579 213.906, 326.405 214.775 C 326.265 215.476, 326.379 215.589, 326.658 215.025 C 326.941 214.454, 330.674 214, 335.083 214 C 342.861 214, 343 213.956, 343 211.500 C 343 209.019, 342.937 209.002, 334.750 209.201 L 326.500 209.402 334.250 209.743 M 495.300 214 C 495.300 217.025, 495.487 218.262, 495.716 216.750 C 495.945 215.238, 495.945 212.762, 495.716 211.250 C 495.487 209.738, 495.300 210.975, 495.300 214 M 941.186 209.742 C 948.188 210.052, 948.910 210.278, 949.300 212.291 C 949.657 214.135, 949.750 214.046, 949.864 211.750 L 950 209 941.750 209.201 L 933.500 209.402 941.186 209.742 M 717 210.801 C 717 211.425, 715.763 212.607, 714.250 213.428 C 712.737 214.249, 712.013 214.938, 712.639 214.960 C 714.382 215.021, 718.600 211.273, 717.750 210.419 C 717.337 210.005, 717 210.177, 717 210.801 M 702.264 212.718 C 703.784 212.947, 706.034 212.941, 707.264 212.704 C 708.494 212.467, 707.250 212.279, 704.500 212.286 C 701.750 212.294, 700.744 212.488, 702.264 212.718 M 933.143 213.890 C 932.197 214.490, 932.122 214.957, 932.893 215.434 C 933.502 215.810, 934 215.661, 934 215.103 C 934 214.541, 937.238 213.934, 941.250 213.743 L 948.500 213.397 941.500 213.214 C 937.650 213.113, 933.889 213.417, 933.143 213.890 M 534.252 217.500 C 534.263 219.700, 534.468 220.482, 534.707 219.238 C 534.946 217.994, 534.937 216.194, 534.687 215.238 C 534.437 214.282, 534.241 215.300, 534.252 217.500 M 740.500 215.740 C 742.514 216.035, 744.978 217.825, 748 221.187 C 751.645 225.244, 753.014 226.129, 755.207 225.847 L 757.913 225.500 753.342 220.500 L 748.770 215.500 752.452 220.250 C 755.597 224.308, 755.855 225, 754.223 225 C 753.160 225, 750.444 222.784, 748.097 220 C 744.553 215.797, 743.372 215.024, 740.690 215.150 L 737.500 215.300 740.500 215.740 M 775.272 220 C 775.272 222.475, 775.467 223.488, 775.706 222.250 C 775.944 221.012, 775.944 218.988, 775.706 217.750 C 775.467 216.512, 775.272 217.525, 775.272 220 M 736.079 220.680 C 736.013 224.190, 735.639 224.930, 733.750 225.294 C 732.011 225.629, 732.193 225.759, 734.549 225.864 C 737.491 225.995, 737.585 225.868, 737.227 222.250 C 736.672 216.654, 736.168 215.965, 736.079 220.680 M 196 220 C 196 220.550, 196.450 221, 197 221 C 197.550 221, 198 220.550, 198 220 C 198 219.450, 197.550 219, 197 219 C 196.450 219, 196 219.450, 196 220 M 162 222 C 162 223.174, 162.769 223.174, 165.500 222 C 167.272 221.238, 167.187 221.133, 164.750 221.070 C 163.238 221.032, 162 221.450, 162 222 M 172.422 221.907 C 175.130 222.233, 177.525 223.047, 177.744 223.715 C 178.037 224.606, 175.254 225.017, 167.322 225.253 L 156.500 225.575 167.750 225.788 L 179 226 179 223.500 C 179 221.105, 178.759 221.007, 173.250 221.157 L 167.500 221.314 172.422 221.907 M 538 221.617 C 543.884 222.365, 552.003 222.442, 552.001 221.750 C 552.001 221.338, 548.288 221.067, 543.750 221.150 C 539.212 221.232, 536.625 221.443, 538 221.617 M 497.750 222.662 C 498.438 222.940, 499.563 222.940, 500.250 222.662 C 500.938 222.385, 500.375 222.158, 499 222.158 C 497.625 222.158, 497.063 222.385, 497.750 222.662 M 83.269 225.693 C 84.242 225.947, 85.592 225.930, 86.269 225.656 C 86.946 225.382, 86.150 225.175, 84.500 225.195 C 82.850 225.215, 82.296 225.439, 83.269 225.693 M 631.250 225.689 C 632.212 225.941, 633.788 225.941, 634.750 225.689 C 635.712 225.438, 634.925 225.232, 633 225.232 C 631.075 225.232, 630.288 225.438, 631.250 225.689" stroke="none" fill="#ffffff" fill-rule="evenodd"/>
</svg>