<svg xmlns="http://www.w3.org/2000/svg" width="1000" height="235" viewBox="0 0 1000 235" version="1.1">
	<path d="M 162.274 9.793 C 161.403 10.358, 160.970 15.611, 160.774 27.982 L 160.500 45.376 151.500 48.022 C 140.177 51.351, 132.872 54.659, 124.825 60.102 C 106.973 72.177, 95.109 89.017, 90.101 109.390 L 88.386 116.365 79.443 118.109 C 57.077 122.471, 38.489 133.023, 25.428 148.772 C 20.180 155.101, 10 173.709, 10 176.974 C 10 177.793, 11.791 174.897, 13.980 170.539 C 18.677 161.190, 24.190 155.230, 31.900 151.168 C 40.136 146.829, 45.931 146, 68.049 146 L 88 146 88 162.300 C 88 173.644, 88.365 178.965, 89.200 179.800 C 90.008 180.608, 94.578 181, 103.200 181 C 110.240 181, 116.086 180.887, 116.191 180.750 C 116.297 180.613, 116.634 172.411, 116.941 162.525 L 117.500 144.549 124.438 142.734 C 154.164 134.956, 177.324 113.915, 185.787 87 C 186.911 83.425, 188.220 78.936, 188.695 77.026 C 189.544 73.618, 189.701 73.528, 196.870 72.327 C 221.597 68.187, 243.861 54.338, 257.094 34.866 C 261.513 28.363, 267.998 14.702, 267.948 12 C 267.932 11.175, 266.925 12.765, 265.710 15.534 C 259.913 28.739, 254.049 35.185, 243.123 40.362 L 236.500 43.500 213 43.500 L 189.500 43.500 189 26.500 L 188.500 9.500 176 9.249 C 169.125 9.111, 162.949 9.356, 162.274 9.793 M 163.198 11.262 C 162.288 12.358, 162.022 16.956, 162.223 28.135 C 162.499 43.439, 162.509 43.501, 164.865 43.835 C 166.166 44.019, 167.704 43.696, 168.283 43.117 C 168.892 42.508, 171.894 42.248, 175.417 42.499 C 179.851 42.815, 180.687 42.702, 178.500 42.084 C 175.752 41.308, 175.904 41.227, 180.309 41.118 C 182.954 41.053, 184.900 41.354, 184.632 41.786 C 184.365 42.218, 184.971 42.571, 185.979 42.571 C 187.666 42.571, 187.815 41.460, 187.856 28.536 C 187.881 20.816, 187.586 13.825, 187.200 13 C 186.289 11.048, 185.300 10.842, 173.974 10.251 C 166.270 9.849, 164.210 10.042, 163.198 11.262 M 320.500 36.980 C 307.761 37.910, 301.455 39.372, 300.603 41.593 C 300.271 42.457, 300 71.387, 300 105.882 C 300 153.329, 300.292 168.892, 301.200 169.800 C 302.828 171.428, 320.172 171.428, 321.800 169.800 C 322.675 168.925, 323 161.200, 323 141.300 L 323 114 328.750 114.118 C 340.487 114.360, 338.729 112.211, 352.375 143 L 364.563 170.500 375.947 170.784 C 382.209 170.941, 387.730 170.670, 388.218 170.182 C 388.734 169.666, 383.644 158.081, 376.053 142.493 C 368.874 127.753, 363 115.394, 363 115.030 C 363 114.666, 364.688 113.414, 366.750 112.247 C 372.126 109.207, 378.580 102.235, 380.909 96.953 C 384.227 89.428, 385.446 79.363, 384.119 70.441 C 382.661 60.637, 380.004 54.634, 374.702 49.166 C 364.474 38.616, 348.197 34.957, 320.500 36.980 M 425.734 37.088 C 416.124 39.352, 408.501 46.174, 405.284 55.391 C 403.677 59.994, 403.500 64.856, 403.500 104.522 L 403.500 148.543 406.810 155.267 C 412.237 166.288, 420.279 170.677, 436.894 171.683 C 446.874 172.287, 468.065 170.686, 472.521 168.992 C 475.018 168.043, 475.074 167.816, 474.791 159.759 L 474.500 151.500 453.954 151 C 425.561 150.309, 426 150.671, 426 127.935 L 426 114 448.378 114 C 466.362 114, 470.984 113.725, 471.920 112.597 C 472.658 111.707, 472.977 108.141, 472.792 102.847 L 472.500 94.500 449.250 94.232 L 426 93.963 426 79.432 C 426 64.219, 426.893 60.228, 430.713 58.375 C 431.696 57.899, 441.950 57.282, 453.500 57.004 L 474.500 56.500 474.788 47.829 C 475.115 37.972, 475.833 38.763, 465 37.045 C 457.214 35.811, 431.034 35.840, 425.734 37.088 M 531.799 36.903 C 526.326 38.036, 520.319 42.454, 517.958 47.082 C 515.583 51.737, 487.662 167.678, 488.433 169.686 C 488.805 170.656, 491.684 171, 499.433 171 C 508.414 171, 510.062 170.747, 510.845 169.250 C 511.349 168.287, 517.056 143.200, 523.528 113.500 C 530 83.800, 535.900 58.844, 536.640 58.043 C 537.570 57.036, 538.306 56.906, 539.023 57.623 C 539.594 58.194, 543.874 75.950, 548.535 97.081 C 553.195 118.211, 558.644 142.925, 560.643 152 C 562.641 161.075, 564.720 169.063, 565.261 169.750 C 566.708 171.588, 586.596 171.496, 587.305 169.647 C 587.887 168.131, 560.794 53.815, 558.650 48.743 C 556.922 44.654, 552.418 40.108, 548.418 38.417 C 544.309 36.679, 536.369 35.956, 531.799 36.903 M 601.750 37.080 C 600.118 38.031, 600.001 41.657, 600.012 90.800 C 600.025 148.337, 600.215 150.576, 605.747 158.447 C 612.793 168.473, 622.515 171.570, 644 170.632 C 660.173 169.926, 666.824 168.886, 668.106 166.862 C 669.468 164.713, 669.185 152.399, 667.747 151.205 C 667.015 150.597, 658.815 150.027, 647.997 149.833 C 629.001 149.491, 626.247 148.932, 624.269 145.022 C 623.846 144.185, 623.275 119.746, 623 90.713 C 622.569 45.250, 622.292 37.794, 621 36.978 C 618.996 35.712, 603.962 35.792, 601.750 37.080 M 844.081 37.588 C 833.811 40.350, 827.938 45.913, 824.306 56.322 C 822.675 60.997, 822.500 65.578, 822.500 103.500 C 822.500 142.462, 822.641 145.934, 824.455 151.500 C 827.182 159.872, 834.469 167.167, 842.619 169.684 C 852.759 172.815, 889.750 171.650, 893.313 168.087 C 894.065 167.335, 894.434 160.020, 894.081 152.851 C 894.009 151.387, 891.669 151.160, 873.250 150.828 C 858.630 150.565, 851.810 150.068, 850.165 149.147 C 846.093 146.866, 845 142.291, 845 127.532 L 845 114 867.965 114 C 889.646 114, 890.987 113.892, 891.965 112.066 C 893.407 109.371, 893.283 96.683, 891.800 95.200 C 890.937 94.337, 884.184 94, 867.730 94 L 844.859 94 845.180 78.416 L 845.500 62.831 848.766 59.916 L 852.032 57 872.541 57 C 892.910 57, 893.055 56.985, 893.834 54.750 C 895.026 51.332, 894.377 39.851, 892.942 38.964 C 888.104 35.974, 853.690 35.005, 844.081 37.588 M 936.251 37.478 C 925.332 40.558, 918.875 45.510, 914.776 53.945 C 913.097 57.401, 912.473 60.791, 912.188 68 C 911.463 86.350, 915.882 92.617, 941.417 109.443 C 950.813 115.634, 959.923 122.036, 961.663 123.670 C 967.516 129.165, 968.148 140.021, 962.938 145.566 C 958.497 150.294, 952.459 150.967, 927.796 149.487 L 916.092 148.785 915.495 151.163 C 915.167 152.471, 915.034 156.682, 915.199 160.520 L 915.500 167.498 919.372 168.763 C 921.502 169.459, 928.551 170.559, 935.038 171.207 C 961.923 173.896, 979.228 167.152, 986.891 151 C 989.233 146.063, 989.500 144.323, 989.500 134 C 989.500 123.441, 989.272 122.036, 986.712 116.822 C 982.867 108.993, 975.028 102.150, 958.399 92.105 C 940.968 81.576, 936.339 77.889, 935.152 73.588 C 933.213 66.567, 935.984 60.935, 942.622 58.400 C 946.498 56.920, 949.141 56.800, 962.791 57.484 C 971.431 57.917, 980.300 58.323, 982.500 58.386 L 986.500 58.500 986.500 49 L 986.500 39.500 980.500 38.204 C 970.992 36.149, 942.609 35.684, 936.251 37.478 M 685.200 38.200 C 683.795 39.605, 683.452 166.588, 684.847 168.787 C 685.448 169.733, 688.420 169.998, 696.082 169.787 L 706.500 169.500 706.757 104.611 C 706.944 57.512, 706.705 39.349, 705.885 38.361 C 704.404 36.576, 686.960 36.440, 685.200 38.200 M 724.035 38.934 C 722.586 41.642, 722.712 55.312, 724.200 56.800 C 725.025 57.625, 730.022 58, 740.200 58 L 755 58 755 112.878 C 755 158.650, 755.232 167.948, 756.398 168.915 C 757.306 169.669, 761.242 169.974, 767.648 169.787 L 777.500 169.500 777.758 113.750 L 778.017 58 792.427 58 C 800.352 58, 807.548 57.727, 808.418 57.393 C 809.693 56.904, 810 55.097, 810 48.093 C 810 42.665, 809.549 38.949, 808.800 38.200 C 807.905 37.305, 797.097 37, 766.335 37 C 726.561 37, 725.033 37.070, 724.035 38.934 M 323.667 58.667 C 323.300 59.033, 323 67.095, 323 76.581 L 323 93.829 330.343 94.517 C 339.031 95.332, 349.846 93.858, 354.307 91.253 C 359.157 88.420, 362 83.524, 362 78.001 C 362 68.161, 357.823 61.916, 349.609 59.476 C 344.587 57.985, 324.961 57.372, 323.667 58.667 M 122 75.319 L 117.500 76.500 117.229 96.250 L 116.958 116 134.729 115.923 C 145.486 115.877, 154.079 115.371, 156.500 114.641 L 160.500 113.436 160.500 93.968 L 160.500 74.500 143.500 74.319 C 133.038 74.207, 124.769 74.592, 122 75.319 M 162 91.865 L 162 108.788 164.750 108.650 C 166.262 108.574, 168.026 107.834, 168.669 107.006 C 169.313 106.178, 170.438 105.490, 171.169 105.478 C 171.901 105.465, 172.384 104.748, 172.242 103.884 C 172.100 103.020, 173.262 100.976, 174.824 99.341 C 176.386 97.707, 178.713 94.505, 179.994 92.225 C 181.275 89.946, 182.771 88.358, 183.319 88.697 C 183.928 89.073, 184.082 88.423, 183.717 87.026 C 183.352 85.630, 183.702 84.156, 184.613 83.244 C 185.477 82.381, 185.980 80.429, 185.804 78.625 L 185.500 75.500 173.750 75.221 L 162 74.942 162 91.865 M 109.592 81.899 C 108.714 82.869, 108.334 84.035, 108.748 84.490 C 109.162 84.946, 108.718 85.038, 107.762 84.695 C 106.806 84.352, 106.103 84.393, 106.200 84.786 C 106.490 85.956, 101.884 93, 100.830 93 C 100.295 93, 100.586 92.271, 101.476 91.381 C 102.367 90.490, 102.844 89.511, 102.537 89.204 C 101.820 88.487, 99.037 92.251, 99.605 93.170 C 99.840 93.550, 98.928 95.054, 97.578 96.510 C 96.114 98.090, 95.369 99.798, 95.732 100.743 C 96.107 101.721, 95.932 102.076, 95.275 101.670 C 93.913 100.828, 92.866 103.487, 93.701 105.664 C 94.131 106.783, 93.957 107.091, 93.170 106.605 C 92.472 106.173, 92 106.498, 92 107.410 C 92 108.388, 92.629 108.758, 93.750 108.438 C 94.713 108.163, 94.487 108.471, 93.250 109.122 C 91.948 109.807, 91 111.241, 91 112.525 C 91 114.658, 91.382 114.750, 100.750 114.867 C 106.112 114.935, 111.698 114.740, 113.162 114.435 L 115.824 113.880 115.916 98.690 C 115.967 90.335, 115.669 83.017, 115.254 82.427 C 113.806 80.367, 111.198 80.123, 109.592 81.899 M 181.100 92.295 C 179.835 94.402, 179.857 94.423, 181.579 92.774 C 182.570 91.824, 183.166 90.832, 182.903 90.569 C 182.640 90.306, 181.829 91.083, 181.100 92.295 M 101.725 146.747 L 89.951 147.064 90.225 163.282 L 90.500 179.500 101.988 179.785 C 111.922 180.031, 113.646 179.836, 114.738 178.344 C 115.610 177.151, 116 172.342, 116 162.777 C 116 151.072, 115.756 148.843, 114.416 148.329 C 113.141 147.840, 113.092 147.557, 114.166 146.876 C 114.900 146.411, 115.050 146.120, 114.500 146.230 C 113.950 146.340, 108.201 146.573, 101.725 146.747 M 290.462 196.064 C 284.984 197.657, 280 205.072, 280 211.629 C 280 216.022, 283.110 221.905, 286.561 224.038 C 291.883 227.327, 302.541 226.667, 305.707 222.853 C 306.326 222.107, 306.959 218.798, 307.113 215.499 L 307.395 209.500 301.256 209.204 C 295.600 208.931, 295.129 209.069, 295.271 210.954 C 295.398 212.628, 296.114 213, 299.213 213 C 302.840 213, 303 213.141, 303 216.339 C 303 218.948, 302.442 219.933, 300.453 220.839 C 290.529 225.361, 281.519 215.734, 286.154 205.561 C 288.514 200.383, 296.845 198.013, 301.804 201.109 C 303.408 202.111, 304.237 202.163, 305.088 201.312 C 306.650 199.750, 305.384 198.058, 301.410 196.398 C 297.679 194.839, 294.959 194.756, 290.462 196.064 M 409.395 195.946 C 398.037 198.660, 394.062 214.204, 402.554 222.697 C 406.235 226.378, 417.622 227.225, 422.266 224.163 C 424.886 222.435, 424.939 222.255, 423.266 220.746 C 421.730 219.361, 421.175 219.334, 419 220.542 C 414.505 223.036, 409.531 222.377, 405.968 218.815 C 403.016 215.862, 402.816 215.237, 403.229 210.255 C 403.528 206.642, 404.335 204.221, 405.690 202.865 C 408.423 200.132, 414.865 199.362, 418.643 201.316 C 421.390 202.736, 421.698 202.713, 422.761 201.011 C 423.635 199.612, 423.621 198.935, 422.705 198.189 C 421.576 197.270, 414.098 194.895, 413 195.108 C 412.725 195.161, 411.103 195.538, 409.395 195.946 M 572.060 196.752 C 567.811 198.911, 566.306 202.780, 568.188 206.705 C 569.754 209.974, 572.896 211.632, 578.738 212.271 C 581.069 212.526, 583.656 213.300, 584.488 213.990 C 586.300 215.494, 586.467 219.133, 584.800 220.800 C 582.423 223.177, 572.887 221.815, 570.922 218.819 C 570.603 218.333, 569.343 218.307, 568.115 218.762 L 565.887 219.586 567.905 222.152 C 570.719 225.730, 577.448 227.495, 582.789 226.057 C 587.511 224.785, 589.736 222.899, 590.607 219.430 C 592.158 213.249, 588.654 209.457, 580.150 208.113 C 572.253 206.865, 569.758 203.684, 574.223 200.557 C 577.063 198.567, 580.941 198.570, 583.788 200.564 C 586.203 202.255, 590.360 201.628, 589.745 199.665 C 589.153 197.770, 582.775 195.003, 579 195.003 C 577.075 195.003, 573.952 195.790, 572.060 196.752 M 836.735 196.680 C 830.572 198.477, 827.739 202.466, 827.184 210.129 C 826.701 216.810, 829.178 222.006, 834.047 224.524 C 837.977 226.557, 846.485 226.412, 850.191 224.250 C 856.488 220.576, 858.837 210.475, 855.083 203.210 C 851.758 196.774, 844.848 194.314, 836.735 196.680 M 972.500 195.704 C 968.896 196.597, 966 200.131, 966 203.635 C 966 208.086, 969.014 210.656, 975.895 212.071 C 982.961 213.525, 985 214.601, 985 216.880 C 985 221.824, 975.643 223.867, 970.724 219.997 C 968.284 218.078, 965 218.168, 965 220.155 C 965 222.132, 970.289 225.873, 973.961 226.493 C 978.559 227.270, 985.285 225.447, 987.711 222.767 C 988.757 221.612, 989.455 219.241, 989.455 216.846 C 989.455 211.725, 986.691 209.510, 978.510 208.074 C 975.108 207.476, 971.974 206.304, 971.289 205.371 C 968.523 201.610, 974.642 197.610, 979.926 199.724 C 981.342 200.291, 983.175 201.030, 984 201.366 C 984.825 201.703, 986.175 201.549, 987 201.022 C 988.290 200.200, 988.202 199.768, 986.374 197.935 C 984.233 195.788, 976.909 194.610, 972.500 195.704 M 9.225 210.750 L 9.500 225.500 19.750 225.785 L 30 226.070 30 223.482 C 30 220.911, 29.952 220.896, 22.500 221.093 C 18.375 221.203, 15 221.657, 15 222.102 C 15 222.548, 18.262 223.068, 22.250 223.257 C 29.263 223.591, 29.197 223.609, 20.250 223.801 L 11 224 11 211 C 11 194.222, 12.826 193.614, 13.253 210.250 L 13.568 222.500 13.784 209.250 L 14 196 11.475 196 L 8.951 196 9.225 210.750 M 43 197.375 C 43 198.131, 42.719 200.156, 42.375 201.875 C 41.430 206.602, 44.407 205.938, 46.391 200.980 C 48.435 195.872, 48.458 196, 45.500 196 C 44.045 196, 43 196.575, 43 197.375 M 61 211 L 61 226 63.500 226 L 66 226 66 211 L 66 196 63.500 196 L 61 196 61 211 M 82 211.070 C 82 225.852, 82.040 226.133, 84.117 225.820 C 86.112 225.519, 86.243 224.880, 86.367 214.845 C 86.440 208.985, 86.162 204.399, 85.750 204.654 C 85.338 204.909, 85 209.340, 85 214.500 C 85 219.676, 84.552 224.159, 84 224.500 C 83.351 224.901, 83 220.125, 83 210.904 L 83 196.690 85.250 198.595 C 86.487 199.643, 87.799 200.950, 88.164 201.500 C 88.529 202.050, 89.966 203.822, 91.357 205.438 C 92.748 207.053, 93.656 208.748, 93.374 209.204 C 92.669 210.345, 91 209.180, 91 207.548 C 91 206.814, 90.325 205.955, 89.500 205.638 C 87.259 204.778, 87.608 205.566, 92.112 211.533 C 94.374 214.528, 96.694 216.689, 97.267 216.335 C 97.870 215.962, 98.010 216.174, 97.601 216.837 C 96.753 218.208, 102.762 226, 104.667 226 C 105.718 226, 106 222.829, 106 211 L 106 196 103.500 196 C 101.021 196, 101 196.074, 101 204.893 C 101 212.442, 101.264 213.887, 102.750 214.452 C 104.153 214.986, 104.252 214.869, 103.250 213.859 C 101.834 212.433, 101.546 210.601, 102.866 211.417 C 103.342 211.712, 103.531 210.501, 103.286 208.726 C 102.369 202.100, 102.521 198.678, 103.750 198.259 C 104.708 197.933, 105 200.889, 105 210.917 C 105 218.113, 104.635 224, 104.188 224 C 103.035 224, 99.427 218.922, 98.496 215.989 C 97.761 213.672, 97.831 213.610, 99.606 215.008 C 102.061 216.942, 101.568 216.236, 92.448 204.751 C 82.462 192.175, 82 192.455, 82 211.070 M 119 198 C 119 200.140, 119.457 200.288, 125.250 200.020 L 129 199.847 129 212.924 L 129 226 131.500 226 L 134 226 134 212.924 L 134 199.849 138.670 200.136 C 142.869 200.394, 143.356 200.200, 143.503 198.212 C 143.663 196.040, 143.442 196, 131.333 196 C 119.667 196, 119 196.108, 119 198 M 157 211.034 L 157 226.068 167.652 225.784 C 177.831 225.513, 178.320 225.400, 178.646 223.250 C 178.979 221.058, 178.755 221, 170.006 221 C 162.062 221, 161.041 220.798, 161.170 219.250 C 161.444 215.989, 161.003 213, 160.250 213 C 159.838 213, 159.500 214.982, 159.500 217.405 C 159.500 219.827, 159.806 221.620, 160.181 221.388 C 160.555 221.157, 161.075 221.312, 161.335 221.734 C 161.596 222.155, 165.226 222.500, 169.402 222.500 C 173.578 222.500, 176.996 222.838, 176.998 223.250 C 176.999 223.662, 172.716 224, 167.480 224 L 157.961 224 158.065 211 C 158.162 198.894, 158.301 198, 160.085 198 C 162.124 198, 162.663 199.472, 161 200.500 C 159.955 201.146, 159.630 206.868, 160.508 209.168 C 160.890 210.167, 163.075 210.417, 169.258 210.166 C 179.237 209.762, 178.960 210.897, 168.820 211.961 L 161.500 212.728 169.750 212.864 C 177.323 212.989, 178 212.839, 178 211.040 C 178 209.276, 177.178 209.052, 169.750 208.790 L 161.500 208.500 161.190 204.750 L 160.879 201 169.940 201 C 178.937 201, 179 200.983, 179 198.500 L 179 196 168 196 L 157 196 157 211.034 M 193 211 L 193 226 202.941 226 C 212.905 226, 214.509 225.489, 213.423 222.661 C 212.967 221.473, 211.116 221.152, 204.935 221.190 C 200.587 221.216, 197.274 221.634, 197.574 222.119 C 197.873 222.604, 201.016 223, 204.559 223 C 208.102 223, 211 223.338, 211 223.750 C 211 224.162, 207.175 224.500, 202.500 224.500 L 194 224.500 194 210.691 C 194 201.740, 194.352 197.099, 195 197.500 C 195.569 197.851, 196 202.863, 196 209.118 C 196 216.197, 196.356 219.898, 197 219.500 C 197.572 219.146, 198 213.990, 198 207.441 L 198 196 195.500 196 L 193 196 193 211 M 227 211.035 L 227 226.070 237.250 225.785 C 247.018 225.513, 247.515 225.394, 247.820 223.250 C 248.127 221.087, 247.847 221, 240.570 221 C 231.184 221, 230.538 222.781, 239.750 223.258 C 245.743 223.569, 245.463 223.630, 237.250 223.804 C 229.027 223.978, 228.002 223.806, 228.015 222.250 C 228.033 220.206, 229.961 216.781, 229.985 218.750 C 229.993 219.438, 230.450 220, 231 220 C 231.611 220, 232 215.333, 232 208 L 232 196 229.500 196 L 227 196 227 211.035 M 261.190 210.750 C 261.493 225.177, 261.549 225.507, 263.750 225.820 C 265.998 226.139, 266 226.125, 266 211.070 L 266 196 263.440 196 L 260.880 196 261.190 210.750 M 322 211 L 322 226 333 226 L 344 226 344 223.500 C 344 221.029, 343.900 221, 335.500 221 L 327 221 327 217 C 327 212.543, 326.502 212.748, 336.750 212.990 C 342.450 213.125, 343 212.956, 343 211.069 C 343 209.149, 342.422 209, 335 209 L 327 209 327 204.441 C 327 201.656, 326.611 200.122, 326 200.500 C 324.485 201.436, 324.804 207.592, 326.437 208.948 C 327.264 209.634, 330.975 210.134, 335.187 210.127 C 340.416 210.118, 342.013 210.391, 340.790 211.084 C 339.849 211.618, 336.160 211.882, 332.592 211.670 C 325.567 211.253, 325 211.645, 325 216.927 C 325 221.306, 327.535 222.656, 335.250 222.385 C 338.962 222.254, 342 222.565, 342 223.074 C 342 223.583, 337.986 224, 333.079 224 L 324.159 224 323.539 221.177 C 323.198 219.624, 323.031 213.964, 323.168 208.600 C 323.378 200.364, 323.699 198.697, 325.229 197.877 C 327.460 196.684, 329.107 197.557, 328.349 199.532 C 327.883 200.748, 329.176 201, 335.893 201 C 343.874 201, 344 200.961, 344 198.500 L 344 196 333 196 L 322 196 322 211 M 359.288 210.750 C 359.494 225.082, 359.562 225.509, 361.687 225.811 C 363.806 226.113, 363.883 225.785, 364.187 215.107 C 364.391 207.920, 364.160 204.433, 363.521 205.075 C 362.983 205.616, 362.670 210.095, 362.827 215.029 C 363.012 220.840, 362.740 224, 362.056 224 C 361.369 224, 361 219.460, 361 211 C 361 200.111, 361.244 198, 362.500 198 C 363.974 198, 364.427 199.141, 364.043 201.886 C 363.918 202.783, 364.423 203.052, 365.478 202.647 C 366.606 202.214, 367.627 202.938, 368.803 205.005 C 369.736 206.645, 370.864 207.990, 371.309 207.994 C 371.754 207.997, 371.819 208.484, 371.454 209.075 C 371.029 209.762, 369.875 209.310, 368.259 207.825 C 364.502 204.373, 366.601 207.738, 374.289 217.495 C 383.704 229.443, 384 229.247, 384 211.073 L 384 196 381.536 196 C 379.106 196, 379.069 196.132, 378.786 205.750 L 378.500 215.500 371.046 205.750 C 365.500 198.496, 363.013 196, 361.334 196 C 359.082 196, 359.076 196.042, 359.288 210.750 M 438 211.034 L 438 226.068 448.750 225.784 C 459.038 225.512, 459.514 225.403, 459.820 223.250 C 460.131 221.059, 459.903 221, 451.070 221 L 442 221 442 216.969 C 442 214.308, 441.490 212.742, 440.500 212.362 C 438.655 211.654, 438.339 199.527, 440.136 198.416 C 442.203 197.138, 454.657 196.707, 456.616 197.845 C 458.103 198.708, 456.908 198.946, 450.950 198.970 C 446.450 198.988, 442.915 199.485, 442.200 200.200 C 440.818 201.582, 440.556 209, 441.889 209 C 442.378 209, 442.715 209.787, 442.639 210.750 C 442.519 212.265, 443.606 212.539, 450.750 212.790 C 458.430 213.061, 459 212.943, 459 211.081 C 459 209.266, 458.237 209.054, 450.750 208.790 L 442.500 208.500 442.190 204.750 L 441.879 201 450.940 201 C 459.937 201, 460 200.983, 460 198.500 L 460 196 449 196 L 438 196 438 211.034 M 491 211 L 491 226 498.184 226 C 510.705 226, 517 221.148, 517 211.497 C 517 200.901, 511.049 196, 498.184 196 L 491 196 491 211 M 531 211 L 531 226 542 226 L 553 226 553 223.500 C 553 221.028, 552.904 221, 544.441 221 C 539.354 221, 536.118 221.381, 536.463 221.940 C 536.793 222.474, 540.054 222.628, 544.022 222.295 C 549.120 221.868, 551 222.034, 551 222.914 C 551 223.576, 550.550 223.840, 550 223.500 C 549.450 223.160, 549.001 223.246, 549.002 223.691 C 549.004 224.136, 545.179 224.354, 540.502 224.177 L 532 223.853 532 210.927 C 532 198.020, 532.004 198, 534.353 198 C 535.648 198, 539.473 197.711, 542.853 197.358 C 547.170 196.906, 549 197.055, 549 197.858 C 549 198.597, 546.707 199, 542.500 199 C 538.833 199, 536 199.436, 536 200 C 536 200.588, 539.500 201, 544.500 201 C 552.900 201, 553 200.971, 553 198.500 L 553 196 542 196 L 531 196 531 211 M 575 197.265 C 573.075 197.768, 570.938 198.645, 570.250 199.213 C 567.811 201.227, 569.180 208.762, 572 208.845 C 572.275 208.853, 573.767 209.341, 575.315 209.930 C 576.863 210.518, 579.203 211, 580.514 211 C 581.824 211, 584.097 212.112, 585.564 213.472 C 588.795 216.466, 588.353 219.883, 584.399 222.474 C 581.109 224.630, 574.046 223.813, 571.482 220.980 C 569.725 219.039, 568 219.161, 568 221.226 C 568 221.835, 568.293 222.040, 568.651 221.682 C 569.009 221.324, 569.834 221.758, 570.483 222.646 C 572.201 224.996, 580.687 225.576, 585.279 223.657 C 588.149 222.458, 589 221.538, 589 219.633 C 589 218.275, 589.273 216.452, 589.607 215.582 C 590.005 214.544, 589.662 214, 588.607 214 C 587.723 214, 587.112 213.455, 587.250 212.788 C 587.401 212.054, 584.834 210.915, 580.736 209.899 C 577.016 208.976, 573.352 207.707, 572.594 207.078 C 570.288 205.164, 570.104 202.265, 572.151 200.069 C 574.531 197.513, 583.033 197.129, 584.991 199.489 C 585.671 200.308, 586.665 200.707, 587.200 200.376 C 590.240 198.497, 580.137 195.921, 575 197.265 M 621 198 C 621 199.733, 621.667 200, 626 200 L 631 200 631 213 L 631 226 633.500 226 L 636 226 636 212.899 L 636 199.799 640.500 200.157 C 644.610 200.483, 645 200.319, 645 198.257 C 645 196.040, 644.789 196, 633 196 C 621.667 196, 621 196.111, 621 198 M 659 210 C 659 217.700, 658.888 224.338, 658.750 224.750 C 658.612 225.162, 663.337 225.628, 669.250 225.784 L 680 226.068 680 223.534 C 680 221.017, 679.942 221, 671.333 221 C 666.567 221, 662.966 221.299, 663.331 221.664 C 663.696 222.029, 666.584 222.250, 669.748 222.154 C 672.911 222.059, 676.175 222.428, 677 222.975 C 678.050 223.671, 675.728 223.974, 669.257 223.985 L 660.014 224 660.124 211 C 660.209 201.002, 660.537 198, 661.545 198 C 662.537 198, 662.716 199.349, 662.282 203.556 C 661.755 208.665, 661.884 209.157, 663.895 209.683 C 666.081 210.255, 666.081 210.255, 664.041 211.684 C 662.558 212.722, 662.036 214.123, 662.132 216.807 L 662.263 220.500 662.882 217 L 663.500 213.500 671.750 213.210 C 679.117 212.950, 680 212.714, 680 211 C 680 209.286, 679.117 209.050, 671.750 208.790 L 663.500 208.500 663.190 204.750 L 662.879 201 671.440 201 C 679.904 201, 680 200.972, 680 198.500 L 680 196 669.500 196 L 659 196 659 210 M 695 210.950 C 695 226.130, 695.001 226.139, 697.250 225.820 C 699.049 225.564, 699.534 224.803, 699.672 222.022 C 699.767 220.109, 699.418 217.859, 698.897 217.022 C 698.068 215.689, 697.968 215.687, 698.094 217 C 698.442 220.649, 697.919 224, 697 224 C 696.436 224, 696 221.167, 696 217.500 C 696 212.219, 696.299 211, 697.594 211 C 698.470 211, 699.423 211.900, 699.710 213 C 700.066 214.359, 701.078 215.002, 702.867 215.007 C 704.840 215.012, 706.627 216.388, 710 220.500 C 713.461 224.720, 715.135 225.988, 717.250 225.993 C 718.763 225.997, 719.978 225.662, 719.951 225.250 C 719.924 224.838, 718.127 222.700, 715.958 220.500 C 712.493 216.985, 710.438 212.917, 712.896 214.436 C 714.900 215.674, 718.202 211.391, 718.709 206.894 C 719.138 203.087, 718.824 201.907, 716.741 199.485 C 714.390 196.752, 713.767 196.582, 704.631 196.183 L 695 195.761 695 210.950 M 733 210.903 L 733 226 735.500 226 C 737.864 226, 738 225.700, 738 220.500 C 738 215.107, 738.056 215, 740.880 215 C 743.086 215, 744.635 216.069, 747.506 219.573 C 750.175 222.830, 751.563 223.837, 752.327 223.073 C 752.917 222.483, 753.872 222.014, 754.450 222.030 C 755.028 222.047, 754.712 222.519, 753.750 223.080 C 750.899 224.740, 751.742 226, 755.703 226 L 759.406 226 755.852 222.250 C 753.898 220.188, 751.556 217.387, 750.649 216.027 C 749.501 214.306, 749 214.041, 749 215.155 C 749 216.035, 749.670 217.311, 750.489 217.991 C 751.308 218.671, 751.688 219.695, 751.334 220.268 C 750.934 220.916, 751.185 221.004, 752 220.500 C 752.871 219.962, 753.068 220.081, 752.588 220.858 C 752.108 221.634, 750.539 220.682, 747.895 218.012 C 745.074 215.163, 743.081 214, 741.020 214 C 737.573 214, 736.766 215.060, 736.614 219.791 C 736.551 221.739, 735.932 223.523, 735.239 223.754 C 734.253 224.082, 734.075 221.475, 734.423 211.837 C 734.668 205.052, 734.898 199.162, 734.934 198.750 C 734.970 198.338, 738.263 198.083, 742.250 198.185 C 748.884 198.354, 749.035 198.402, 744.030 198.745 C 741.022 198.951, 737.995 199.589, 737.304 200.163 C 736.027 201.223, 736.015 210.349, 737.289 211.623 C 738.308 212.641, 745.178 213.175, 748.748 212.513 C 750.945 212.105, 752.421 211.035, 753.312 209.205 C 754.854 206.037, 754.843 205.244, 753.212 202.311 C 752.470 200.977, 752.367 199.891, 752.947 199.533 C 754.295 198.699, 756 202.299, 756 205.980 C 756 207.985, 755.089 210.001, 753.439 211.652 C 750.221 214.870, 750.817 215.718, 754.347 212.941 C 757.978 210.086, 758.096 203.386, 754.588 199.306 C 752.306 196.652, 751.656 196.481, 742.588 196.153 L 733 195.807 733 210.903 M 771 211 L 771 226 773.500 226 L 776 226 776 211 L 776 196 773.500 196 L 771 196 771 211 M 791 198.257 C 791 200.319, 791.390 200.483, 795.500 200.157 L 800 199.799 800 212.899 L 800 226 802.470 226 L 804.940 226 805.220 213.250 L 805.500 200.500 810.250 200.195 C 814.184 199.943, 815 199.556, 815 197.945 C 815 196.126, 814.221 196, 803 196 C 791.211 196, 791 196.040, 791 198.257 M 871 211 L 871 226 873.500 226 L 876 226 876 211 L 876 196 873.500 196 L 871 196 871 211 M 891 211 L 891 226 893.500 226 C 895.872 226, 895.991 225.731, 895.820 220.750 L 895.640 215.500 895.267 220.198 C 894.982 223.797, 894.556 224.767, 893.447 224.341 C 891.480 223.587, 891.290 198.038, 893.250 197.932 C 895.173 197.828, 906.281 197.813, 908.250 197.912 C 909.212 197.960, 910 198.338, 910.001 198.750 C 910.001 199.162, 906.738 199.500, 902.751 199.500 L 895.500 199.500 895.200 205.256 C 894.919 210.644, 895.064 211.074, 897.477 211.991 C 898.895 212.530, 901.505 212.829, 903.277 212.655 C 905.050 212.482, 907.218 212.945, 908.096 213.685 C 909.452 214.829, 910.072 214.731, 912.233 213.031 C 915.421 210.523, 916.407 206.764, 914.997 202.491 C 913.438 197.767, 909.110 196, 899.099 196 L 891 196 891 211 M 929 211 L 929 226 940 226 L 951 226 951 223.500 C 951 221.042, 950.867 221, 943 221 C 938.421 221, 935 221.421, 935 221.984 C 935 222.571, 938.020 222.832, 942.500 222.630 C 946.625 222.445, 950 222.677, 950 223.147 C 950 223.616, 945.751 224, 940.557 224 L 931.114 224 930.807 211.482 C 930.638 204.597, 930.630 198.583, 930.788 198.117 C 930.947 197.652, 932.484 197.435, 934.205 197.635 C 937.610 198.032, 939.357 199, 936.667 199 C 935.750 199, 935 199.450, 935 200 C 935 200.583, 938.333 201, 943 201 C 950.867 201, 951 200.958, 951 198.500 L 951 196 940 196 L 929 196 929 211 M 972.500 197.529 C 970.300 198.321, 968.436 198.977, 968.358 198.985 C 967.521 199.074, 967.214 204.431, 967.936 206.333 C 968.890 208.840, 975.020 211.724, 976.911 210.555 C 977.434 210.232, 978.149 210.432, 978.500 211 C 978.851 211.568, 979.590 211.753, 980.143 211.412 C 980.696 211.070, 982.312 211.850, 983.735 213.145 C 985.158 214.440, 985.953 214.825, 985.501 214 C 985.049 213.175, 985.051 212.837, 985.505 213.248 C 987.359 214.930, 986.781 218.857, 984.341 221.150 C 981.218 224.083, 974.210 224.405, 971.276 221.750 C 969.057 219.742, 967 219.461, 967 221.167 C 967 221.808, 967.293 222.040, 967.651 221.682 C 968.009 221.324, 968.861 221.795, 969.544 222.729 C 971.133 224.902, 981.502 225.133, 985.344 223.081 C 987.588 221.882, 988 220.994, 988 217.357 C 988 213.590, 987.627 212.858, 985.017 211.509 C 983.377 210.661, 979.956 209.682, 977.417 209.334 C 971.328 208.499, 966.667 203.560, 970.016 201.490 C 970.575 201.144, 970.805 200.494, 970.528 200.045 C 969.900 199.030, 973.369 198.054, 978 197.943 C 980.872 197.875, 981.141 197.705, 979.500 197 C 976.892 195.879, 977.128 195.862, 972.500 197.529 M 123 197.869 C 123 198.491, 124.323 199, 125.941 199 C 127.559 199, 129.205 199.523, 129.600 200.162 C 129.995 200.801, 130.231 206.426, 130.124 212.662 C 129.959 222.300, 130.162 224, 131.474 224 C 132.795 224, 132.948 222.557, 132.537 214.012 C 131.917 201.150, 132.463 199.671, 138.108 198.900 C 142.353 198.320, 142.299 198.295, 136.500 198.139 C 133.200 198.051, 128.813 197.699, 126.750 197.358 C 124.262 196.947, 123 197.119, 123 197.869 M 163 198 C 163 198.571, 166 199, 170 199 C 174 199, 177 198.571, 177 198 C 177 197.429, 174 197, 170 197 C 166 197, 163 197.429, 163 198 M 289.667 197.667 C 288.084 199.249, 289.228 199.816, 292.032 198.839 C 294.996 197.806, 298.487 198.002, 302.500 199.428 C 303.800 199.890, 303.625 199.601, 302 198.605 C 299.494 197.067, 290.918 196.415, 289.667 197.667 M 332.500 198 C 332.119 198.617, 333.843 199, 337 199 C 340.157 199, 341.881 198.617, 341.500 198 C 341.160 197.450, 339.135 197, 337 197 C 334.865 197, 332.840 197.450, 332.500 198 M 405.832 199.526 C 401.516 202.349, 400.997 203.078, 399.927 207.824 C 398.802 212.810, 400.677 218.980, 404.189 221.853 C 407.756 224.771, 416.662 225.725, 419.597 223.504 C 421.837 221.809, 420.758 221.635, 416.165 222.953 C 413.577 223.695, 411.812 223.486, 408.172 222.007 C 405.602 220.963, 403.916 220.085, 404.424 220.055 C 404.933 220.025, 404.438 218.988, 403.326 217.750 C 400.052 214.108, 400.333 207.313, 403.937 203 C 406.760 199.621, 407.098 199.500, 413.754 199.503 C 421.506 199.505, 421.717 197.612, 414 197.305 C 410.721 197.175, 408.505 197.778, 405.832 199.526 M 493.198 197.767 C 492.350 198.050, 492 201.925, 492 211.017 L 492 223.867 500.168 223.684 C 506.125 223.550, 508.461 223.124, 508.798 222.111 C 509.108 221.178, 508.833 220.985, 507.961 221.524 C 507.247 221.966, 504.324 222.430, 501.466 222.557 C 496.527 222.776, 496.196 222.631, 494.797 219.644 C 493.706 217.312, 493.567 215.596, 494.260 213 C 494.775 211.075, 494.993 207.688, 494.746 205.474 C 494.171 200.328, 495.764 198.776, 501.287 199.099 C 505.985 199.374, 509.093 200.602, 510.311 202.667 C 510.758 203.423, 511.622 203.734, 512.231 203.357 C 512.944 202.917, 513.116 203.255, 512.714 204.304 C 512.369 205.202, 512.518 206.202, 513.044 206.527 C 515.039 207.760, 514.068 214.766, 511.474 217.848 C 509.656 220.009, 509.287 221.059, 510.155 221.596 C 510.882 222.045, 511.969 221.427, 512.892 220.037 C 517.646 212.876, 515.336 201.182, 508.767 199.161 C 505.143 198.047, 495.067 197.144, 493.198 197.767 M 633 197.965 C 625.473 198.376, 623.774 198.675, 627 199.019 L 631.500 199.500 631.781 211.750 C 631.983 220.565, 632.403 224, 633.281 224 C 634.178 224.001, 634.465 220.898, 634.367 212.250 C 634.279 204.462, 634.617 200.252, 635.367 199.765 C 635.990 199.361, 638.188 199.024, 640.250 199.015 C 642.313 199.007, 644 198.550, 644 198 C 644 197.450, 643.888 197.088, 643.750 197.196 C 643.612 197.303, 638.775 197.650, 633 197.965 M 665 198.140 C 665 198.613, 667.925 199, 671.500 199 C 675.075 199, 678 198.636, 678 198.192 C 678 197.748, 675.075 197.361, 671.500 197.332 C 667.925 197.304, 665 197.667, 665 198.140 M 702 197.906 C 702 198.833, 709.958 199.542, 711.481 198.750 C 711.745 198.613, 712.737 199.607, 713.684 200.959 C 715.371 203.367, 716.343 211.330, 714.837 210.399 C 714.417 210.140, 713.157 210.843, 712.036 211.964 C 710.916 213.084, 710 213.536, 710 212.969 C 710 211.863, 703.136 211.970, 702.446 213.087 C 702.038 213.747, 707.721 215.417, 709.324 215.109 C 709.778 215.022, 709.821 215.480, 709.422 216.127 C 709.013 216.789, 709.501 217.893, 710.538 218.652 C 711.553 219.393, 712.071 220, 711.691 220 C 711.311 220, 711.900 220.900, 713 222 C 714.100 223.100, 715.563 223.985, 716.250 223.967 C 716.945 223.948, 716.566 223.153, 715.397 222.175 C 713.140 220.289, 711 216.816, 711 215.041 C 711 214.441, 712.133 213.520, 713.518 212.993 C 716.322 211.927, 718.195 208.095, 717.563 204.715 C 717.335 203.497, 717.115 202.173, 717.074 201.773 C 716.807 199.163, 702 195.364, 702 197.906 M 797.500 198 C 792.532 198.550, 792.188 198.695, 795.500 198.847 C 798.766 198.997, 804.393 200.932, 801.715 200.985 C 801.283 200.993, 801.397 201.873, 801.968 202.939 C 802.538 204.006, 802.667 205.087, 802.253 205.341 C 801.140 206.024, 801.974 224, 803.117 224 C 803.704 224, 804.030 219.445, 803.935 212.585 C 803.768 200.537, 804.091 199.009, 806.809 198.985 C 808.266 198.971, 808.293 198.835, 807 198 C 806.175 197.467, 805.050 197.099, 804.500 197.183 C 803.950 197.267, 800.800 197.635, 797.500 198 M 810.500 198 C 808.592 198.820, 808.603 198.863, 810.750 198.930 C 811.987 198.968, 813 198.550, 813 198 C 813 197.450, 812.888 197.032, 812.750 197.070 C 812.612 197.109, 811.600 197.527, 810.500 198 M 837.288 197.692 C 831.127 198.515, 826.943 206.554, 828.462 214.650 C 829.290 219.063, 833.957 224.030, 837.173 223.921 C 838.453 223.878, 838.949 223.619, 838.275 223.346 C 837.601 223.073, 836.814 222.884, 836.525 222.925 C 835.628 223.053, 832 219.058, 832 217.941 C 832 217.359, 831.609 217.124, 831.131 217.419 C 830.653 217.714, 830.399 215.378, 830.565 212.228 C 831.040 203.268, 831.406 201.500, 832.786 201.500 C 833.494 201.500, 834.394 201.050, 834.786 200.500 C 836.568 198.004, 845.447 198.196, 848.943 200.807 C 850.340 201.850, 851.910 204.233, 852.430 206.102 C 852.951 207.971, 853.851 209.819, 854.430 210.208 C 855.148 210.691, 855.088 211.312, 854.242 212.158 C 853.559 212.841, 853 214.245, 853 215.277 C 853 216.309, 851.650 218.504, 850 220.154 C 846.415 223.738, 846.014 225.833, 849.397 223.297 C 850.715 222.309, 851.603 221.185, 851.369 220.800 C 851.135 220.415, 851.804 219.640, 852.854 219.078 C 855.973 217.409, 856.598 209.867, 854.053 204.610 C 851.271 198.862, 845.707 196.566, 837.288 197.692 M 939.500 198 C 939.115 198.623, 941.069 198.994, 944.691 198.985 C 948.810 198.974, 950.064 198.687, 949 198 C 947.026 196.724, 940.288 196.724, 939.500 198 M 62.806 210.998 C 62.983 218.561, 63.519 224, 64.085 224 C 65.401 224, 64.826 198.772, 63.500 198.330 C 62.857 198.115, 62.609 202.641, 62.806 210.998 M 228.301 207.334 C 228.139 214.914, 228.374 216.667, 229.552 216.667 C 230.734 216.667, 230.956 214.938, 230.752 207.335 C 230.420 195.042, 228.563 195.041, 228.301 207.334 M 380 204.941 C 380 208.759, 380.450 212.160, 381 212.500 C 381.550 212.840, 382 213.616, 382 214.226 C 382 214.835, 381.704 215.037, 381.342 214.675 C 380.980 214.313, 380.164 214.449, 379.529 214.976 C 378.743 215.628, 377.317 214.969, 375.070 212.917 C 371.477 209.635, 369.935 209.642, 372.238 212.929 C 373.031 214.061, 373.977 214.690, 374.340 214.327 C 374.703 213.964, 375 214.317, 375 215.111 C 375 215.906, 375.900 217.326, 377 218.268 C 378.100 219.210, 379 220.686, 379 221.549 C 379 222.412, 379.450 222.840, 380 222.500 C 380.550 222.160, 381 222.434, 381 223.108 C 381 223.782, 381.327 224.006, 381.727 223.606 C 382.127 223.207, 382.464 217.282, 382.477 210.441 C 382.494 201.145, 382.184 198.002, 381.250 198.001 C 380.370 198, 380 200.054, 380 204.941 M 696 204 C 696 209.870, 697.434 212.214, 698.294 207.750 C 698.666 205.821, 698.747 205.892, 698.864 208.250 C 698.997 210.945, 699.127 211, 705.300 211 C 712.247 211, 714 209.977, 714 205.922 C 714 202.219, 712.217 201.080, 706.084 200.863 C 702.748 200.745, 700.624 200.185, 700.299 199.338 C 700.017 198.602, 698.934 198, 697.893 198 C 696.246 198, 696 198.780, 696 204 M 750 199.589 C 750 200.902, 748.958 201.119, 743.998 200.839 L 737.996 200.500 737.998 205.750 L 738 211 743.845 211 C 748.238 211, 750.101 210.546, 751.345 209.171 C 753.244 207.073, 753.503 204.429, 751.906 203.442 C 751.304 203.070, 751.017 201.693, 751.267 200.383 C 751.518 199.072, 751.335 198, 750.861 198 C 750.388 198, 750 198.715, 750 199.589 M 772.964 198.833 C 772.627 209.850, 773.063 223.521, 773.759 223.753 C 774.799 224.100, 774.725 199.392, 773.683 198.350 C 773.308 197.974, 772.984 198.192, 772.964 198.833 M 873 211 C 873 219, 873.385 224, 874 224 C 874.615 224, 875 219, 875 211 C 875 203, 874.615 198, 874 198 C 873.385 198, 873 203, 873 211 M 983 199 C 983.825 199.533, 984.950 199.969, 985.500 199.969 C 986.050 199.969, 985.825 199.533, 985 199 C 984.175 198.467, 983.050 198.031, 982.500 198.031 C 981.950 198.031, 982.175 198.467, 983 199 M 44 199.918 C 44 200.423, 43.699 201.622, 43.330 202.582 C 42.909 203.680, 43.050 204.087, 43.709 203.680 C 45.092 202.825, 46.070 199, 44.906 199 C 44.408 199, 44 199.413, 44 199.918 M 263 211.500 C 263 219.167, 263.387 224, 264 224 C 264.613 224, 265 219.167, 265 211.500 C 265 203.833, 264.613 199, 264 199 C 263.387 199, 263 203.833, 263 211.500 M 286.250 199.720 C 285.563 199.966, 285 200.767, 285 201.500 C 285 202.233, 284.540 202.987, 283.978 203.174 C 283.416 203.361, 282.723 204.861, 282.439 206.507 C 282.154 208.153, 281.699 210.240, 281.427 211.145 C 280.813 213.187, 283.842 221, 285.248 221 C 285.815 221, 286.790 221.698, 287.413 222.550 C 289.104 224.862, 298.417 225.371, 302.612 223.380 C 305.844 221.846, 306 221.525, 306 216.386 C 306 211.972, 305.684 210.977, 304.250 210.871 C 298.286 210.432, 297 210.491, 297 211.204 C 297 211.642, 298.334 212, 299.965 212 C 305.567 212, 306.455 219.678, 301.147 222.228 C 297.363 224.046, 290.576 222.983, 286.997 220.011 C 284.330 217.796, 284 216.915, 284.004 212.011 C 284.006 208.220, 284.647 205.450, 286.058 203.137 C 288.229 199.575, 288.262 199.002, 286.250 199.720 M 910.555 199.911 C 910.094 200.657, 910.210 201.512, 910.824 201.891 C 911.932 202.576, 913.207 210.220, 912.109 209.600 C 911.774 209.411, 910.600 210.167, 909.500 211.281 C 907.688 213.117, 907.672 213.245, 909.332 212.653 C 910.339 212.294, 911.556 212, 912.035 212 C 912.514 212, 913.366 210.335, 913.927 208.301 C 914.711 205.464, 914.635 204.239, 913.605 203.051 C 912.866 202.198, 912.060 200.847, 911.814 200.049 C 911.453 198.881, 911.208 198.854, 910.555 199.911 M 835.707 202.016 C 827.584 208.406, 831.864 222, 842 222 C 849.205 222, 853.957 215.051, 851.885 207.545 C 849.962 200.582, 841.296 197.620, 835.707 202.016 M 896.415 200.917 C 896.187 201.146, 896 203.508, 896 206.167 L 896 211 901.929 211 C 908.164 211, 911 209.474, 911 206.120 C 911 202.631, 908.683 201.159, 902.665 200.825 C 899.455 200.646, 896.642 200.688, 896.415 200.917 M 932.950 201.500 C 932.648 202.600, 932.651 204.850, 932.956 206.500 C 933.507 209.476, 933.575 209.505, 941.506 210.067 C 950.723 210.720, 951.058 211.105, 942.500 211.211 C 934.197 211.314, 932.961 212.119, 933.175 217.285 L 933.349 221.500 933.732 217.250 L 934.115 213 942.557 213 C 950.333 213, 951 212.842, 951 211 C 951 209.158, 950.333 209, 942.555 209 L 934.110 209 933.805 204.250 C 933.626 201.461, 933.273 200.326, 932.950 201.500 M 496 211 L 496 221 501.035 221 C 503.970 221, 507.091 220.332, 508.517 219.397 C 513.429 216.178, 513.565 205.910, 508.739 202.529 C 507.449 201.626, 504.395 201, 501.277 201 L 496 201 496 211 M 534.217 205.165 L 534.516 209.500 542.508 210 C 546.904 210.275, 550.050 210.790, 549.500 211.145 C 548.950 211.500, 546.533 211.621, 544.129 211.413 C 541.725 211.206, 539.025 211.464, 538.129 211.988 C 536.996 212.649, 538.859 212.948, 544.250 212.970 C 551.343 212.997, 552 212.831, 552 211 C 552 209.167, 551.333 209, 544 209 L 536 209 536 205.559 C 536 203.666, 535.531 201.828, 534.959 201.475 C 534.283 201.057, 534.022 202.351, 534.217 205.165 M 697.730 201.643 C 697.444 202.114, 697.838 203.080, 698.605 203.789 C 700.151 205.218, 700.447 204.253, 699.110 202.143 C 698.637 201.397, 698.016 201.172, 697.730 201.643 M 94 210 C 94 210.550, 94.477 211, 95.059 211 C 95.641 211, 95.840 210.550, 95.500 210 C 95.160 209.450, 94.684 209, 94.441 209 C 94.198 209, 94 209.450, 94 210 M 444 211.034 C 442.941 211.743, 444.780 211.989, 450.250 211.873 C 454.512 211.782, 458 211.324, 458 210.854 C 458 209.656, 445.825 209.813, 444 211.034 M 667 211 C 667 211.550, 668.125 212, 669.500 212 C 670.875 212, 672 211.550, 672 211 C 672 210.450, 670.875 210, 669.500 210 C 668.125 210, 667 210.450, 667 211 M 674.500 211 C 674.840 211.550, 675.316 212, 675.559 212 C 675.802 212, 676 211.550, 676 211 C 676 210.450, 675.523 210, 674.941 210 C 674.359 210, 674.160 210.450, 674.500 211 M 893.158 212 C 893.158 213.375, 893.385 213.938, 893.662 213.250 C 893.940 212.563, 893.940 211.438, 893.662 210.750 C 893.385 210.063, 893.158 210.625, 893.158 212 M 95.553 212.915 C 95.231 213.436, 95.394 214.125, 95.915 214.447 C 96.436 214.769, 97.125 214.606, 97.447 214.085 C 97.769 213.564, 97.606 212.875, 97.085 212.553 C 96.564 212.231, 95.875 212.394, 95.553 212.915 M 439 218.500 L 439 224 448.750 223.801 C 457.969 223.613, 458.094 223.584, 451.045 223.253 C 446.944 223.061, 443.007 222.421, 442.295 221.830 C 441.583 221.239, 441 219.010, 441 216.878 C 441 214.745, 440.550 213, 440 213 C 439.450 213, 439 215.475, 439 218.500 M 534.750 213.571 C 534.337 213.990, 534 215.698, 534 217.367 C 534 219.536, 534.307 220.093, 535.078 219.322 C 535.671 218.729, 536.009 217.021, 535.828 215.526 C 535.648 214.031, 535.163 213.151, 534.750 213.571 M 898.678 214.718 C 901.041 215.014, 903.049 216.512, 906.505 220.558 C 910.213 224.898, 911.760 226, 914.146 226 L 917.137 226 911.911 219.991 C 909.036 216.686, 906.467 214.199, 906.202 214.465 C 905.937 214.730, 907.393 216.799, 909.438 219.063 C 911.482 221.326, 912.880 223.454, 912.543 223.791 C 911.817 224.517, 907 219.544, 907 218.069 C 907 216.491, 901.417 213.982, 898.300 214.160 C 895.644 214.312, 895.663 214.341, 898.678 214.718 M 841 224 C 839.827 224.758, 840.086 224.973, 842.191 224.985 C 843.671 224.993, 845.160 224.550, 845.500 224 C 846.289 222.723, 842.976 222.723, 841 224" stroke="none" fill="#ffffff" fill-rule="evenodd"/>
</svg>