<svg xmlns="http://www.w3.org/2000/svg" width="1000" height="235" viewBox="0 0 1000 235" version="1.1">
	<path d="M 162.309 11.250 C 161.864 11.938, 161.275 20.090, 161 29.366 L 160.500 46.231 153.322 48.052 C 138.192 51.890, 123.277 60.419, 112.429 71.438 C 100.692 83.359, 94.773 93.610, 91.082 108.407 C 89.997 112.756, 88.593 116.634, 87.960 117.024 C 87.328 117.415, 84.266 118.005, 81.156 118.336 C 74.220 119.072, 60.063 123.783, 52.218 127.965 C 43.073 132.839, 33.061 140.973, 26.242 149.070 C 19.973 156.514, 12.528 169.872, 11.512 175.500 C 11.034 178.145, 11.140 178.065, 12.407 174.824 C 16.533 164.269, 25.317 154.619, 34.880 150.135 C 40.391 147.551, 40.970 147.494, 64.750 147.172 L 89 146.844 89 163.354 C 89 179.342, 89.068 179.887, 91.138 180.544 C 94.840 181.719, 115.069 181.331, 116.339 180.061 C 117.120 179.280, 117.523 173.524, 117.569 162.464 C 117.607 153.425, 117.951 145.716, 118.333 145.334 C 118.715 144.951, 122.276 143.814, 126.246 142.805 C 142.995 138.552, 161.801 126.410, 172.599 112.876 C 180.833 102.556, 187.245 88.785, 188.676 78.347 C 189.004 75.956, 189.548 73.997, 189.886 73.992 C 193.318 73.950, 205.102 71.415, 211.500 69.343 C 227.475 64.168, 242.383 54.241, 252.711 41.901 C 257.898 35.703, 268 17.420, 268 14.230 C 268 13.310, 266.485 15.694, 264.633 19.528 C 260.632 27.813, 254.472 35.053, 248.391 38.617 C 240.121 43.463, 236.165 44.072, 212.660 44.114 C 200.647 44.135, 190.652 43.986, 190.448 43.782 C 190.245 43.578, 190.009 36.681, 189.925 28.456 C 189.840 20.230, 189.357 12.713, 188.851 11.750 C 188.049 10.227, 186.321 10, 175.524 10 C 166.697 10, 162.885 10.361, 162.309 11.250 M 164.802 12.674 C 163.482 14.139, 163.092 17.220, 162.828 28.251 L 162.500 42.003 165 42.017 C 166.981 42.028, 167.189 42.232, 166 43 C 164.718 43.828, 164.754 43.972, 166.250 43.985 C 167.213 43.993, 168 43.293, 168 42.429 C 168 41, 168.143 41, 169.571 42.429 C 171.337 44.194, 172.440 44.521, 171.500 43 C 171.160 42.450, 171.527 42, 172.316 42 C 173.105 42, 175.269 41.766, 177.125 41.481 C 179.620 41.097, 179.978 41.193, 178.500 41.849 C 177.037 42.498, 177.797 42.686, 181.330 42.548 C 184.255 42.434, 186.516 41.796, 187.064 40.930 C 187.562 40.143, 187.976 33.987, 187.985 27.250 C 188.004 11.630, 187.924 11.528, 175.432 11.132 C 167.773 10.890, 166.205 11.117, 164.802 12.674 M 429.602 37.038 C 417.737 38.903, 410.186 44.826, 405.914 55.619 C 403.650 61.339, 403.576 62.531, 403.210 99.213 C 402.802 140.159, 403.377 147.694, 407.590 156.599 C 410.871 163.535, 415.850 167.568, 424.326 170.156 C 430.488 172.038, 432.920 172.194, 449.326 171.758 C 461.055 171.446, 468.919 170.783, 471.500 169.887 L 475.500 168.498 475.795 161.768 C 476.287 150.557, 477.175 151.001, 454.215 150.996 C 426.284 150.991, 425.677 150.466, 426.219 126.778 L 426.500 114.500 448.921 114.230 C 463.406 114.056, 471.813 113.570, 472.671 112.858 C 474.285 111.519, 474.505 98.813, 472.965 95.934 C 471.987 94.108, 470.646 94, 448.965 94 L 426 94 426 81.943 C 426 68.299, 427.295 61.607, 430.349 59.468 C 432.024 58.295, 436.505 58, 452.651 58 C 476.610 58, 476.008 58.254, 475.985 48.179 C 475.976 44.505, 475.637 40.977, 475.230 40.339 C 473.442 37.527, 441.288 35.201, 429.602 37.038 M 849.445 36.992 C 838.450 38.606, 830.824 43.810, 826.375 52.734 L 823.500 58.500 823.500 103.500 C 823.500 154.244, 823.500 154.248, 831.179 162.578 C 837.823 169.786, 842.983 171.390, 860.903 171.818 C 876.259 172.184, 891.324 170.795, 893.750 168.789 C 895.399 167.426, 895.440 153.840, 893.800 152.200 C 892.949 151.349, 886.967 151, 873.250 151 C 851.622 151, 849.269 150.446, 846.897 144.797 C 845.951 142.542, 845.511 137.232, 845.506 128 L 845.500 114.500 869 114 L 892.500 113.500 892.787 104.903 C 892.998 98.575, 892.713 96.007, 891.708 95.172 C 890.803 94.421, 882.781 93.948, 867.921 93.770 L 845.500 93.500 845.515 80.500 C 845.532 65.884, 846.711 60.908, 850.576 59.147 C 852.188 58.413, 859.935 58, 872.113 58 C 883.311 58, 891.927 57.574, 893.066 56.965 C 894.730 56.074, 895 54.816, 895 47.940 C 895 38.269, 895.447 38.560, 878.306 37.056 C 865.158 35.903, 856.985 35.885, 849.445 36.992 M 945 36.637 C 928.046 39.113, 920.339 43.852, 915.135 55 C 912.949 59.684, 912.567 61.909, 912.558 70 C 912.548 78.547, 912.857 80.160, 915.640 86.077 C 919.417 94.109, 924.227 98.440, 943 110.713 C 960.610 122.225, 962.755 123.868, 965.064 127.603 C 969.358 134.552, 966.507 145.441, 959.463 148.994 C 956.312 150.583, 944.074 150.951, 926 150 L 916.500 149.500 916.500 158.935 L 916.500 168.369 921.500 169.839 C 925.018 170.874, 931.835 171.337, 944.500 171.401 C 961.192 171.487, 962.897 171.325, 967.961 169.178 C 979.764 164.174, 986.150 157.110, 989.130 145.759 C 991.333 137.368, 991.450 132.545, 989.640 124.853 C 986.802 112.797, 979.876 105.245, 961.637 94.321 C 944.708 84.181, 939.058 80.143, 936.940 76.670 C 933.068 70.319, 935.207 62.553, 941.674 59.484 C 945.049 57.883, 947.569 57.760, 966.133 58.293 C 989.632 58.968, 988.009 59.572, 987.986 50.168 C 987.966 41.666, 987.307 40.157, 983.135 39.054 C 975.891 37.138, 951.956 35.622, 945 36.637 M 319.500 37.521 C 318.400 37.725, 314.458 38.178, 310.741 38.527 C 306.848 38.892, 303.349 39.793, 302.491 40.652 C 301.201 41.942, 301 50.731, 301 105.871 C 301 154.105, 301.292 169.892, 302.200 170.800 C 303.453 172.053, 318.489 172.517, 321.418 171.393 C 322.808 170.860, 323 167.410, 323 142.952 C 323 127.643, 323.337 114.911, 323.750 114.658 C 324.163 114.405, 328.060 114.490, 332.410 114.849 L 340.321 115.500 348.910 134.663 C 353.635 145.202, 359.040 157.352, 360.922 161.663 C 362.804 165.973, 364.784 170.077, 365.321 170.781 C 366.035 171.719, 369.272 171.987, 377.398 171.781 L 388.500 171.500 388.345 169 C 388.260 167.625, 382.522 155.056, 375.595 141.070 C 368.668 127.083, 363 115.505, 363 115.340 C 363 115.175, 364.731 114.158, 366.847 113.078 C 372.275 110.309, 380.464 100.989, 382.479 95.286 C 385.062 87.977, 385.577 74.689, 383.617 65.882 C 380.801 53.222, 373.805 45.520, 360.471 40.400 C 354.128 37.964, 352.058 37.697, 337.500 37.436 C 328.700 37.278, 320.600 37.316, 319.500 37.521 M 529.211 38.129 C 527.403 38.650, 524.167 40.833, 522.022 42.978 C 517.743 47.257, 516.679 50.246, 511.161 73.500 C 509.465 80.650, 506.729 92.125, 505.081 99 C 503.434 105.875, 500.004 120.275, 497.460 131 C 494.915 141.725, 491.971 153.976, 490.917 158.224 C 488.586 167.614, 488.510 170.598, 490.582 171.393 C 493.642 172.567, 509.708 172.056, 510.792 170.750 C 511.903 169.412, 514.022 160.212, 525.480 107 C 527.434 97.925, 529.921 86.675, 531.007 82 C 536.648 57.715, 536.399 58.500, 538.450 58.500 C 540.521 58.500, 541.241 61.190, 549.963 101.500 C 559.962 147.713, 564.984 169.276, 566.049 170.559 C 566.924 171.614, 569.601 172, 576.041 172 C 586.132 172, 588 171.518, 588 168.917 C 588 167.889, 586.004 158.824, 583.564 148.774 C 574.918 113.151, 566.392 77.327, 562.913 62 C 558.653 43.232, 552.307 36.861, 538.101 37.090 C 535.020 37.140, 531.020 37.607, 529.211 38.129 M 601.035 38.934 C 600.362 40.192, 600 57.921, 600 89.602 C 600 148.584, 600.526 153.042, 608.531 161.903 C 615.800 169.949, 629.117 172.923, 649.711 171.098 C 656.745 170.475, 663.850 169.605, 665.500 169.164 C 668.472 168.370, 668.503 168.289, 668.794 160.586 C 668.978 155.715, 668.652 152.285, 667.921 151.405 C 666.999 150.294, 663.019 150, 648.925 150 C 638.378 150, 630.134 149.562, 628.743 148.929 C 623.429 146.507, 623.522 147.475, 623.215 91.561 C 623.021 56.006, 622.588 39.208, 621.843 38.311 C 621.088 37.401, 617.898 37, 611.413 37 C 603.200 37, 601.945 37.234, 601.035 38.934 M 685.667 38.667 C 685.300 39.033, 685 68.418, 685 103.967 C 685 152.904, 685.291 168.891, 686.200 169.800 C 686.961 170.561, 690.792 171, 696.665 171 C 704.801 171, 706.056 170.764, 706.965 169.066 C 708.083 166.976, 708.495 42.454, 707.393 39.582 C 706.894 38.282, 704.962 38, 696.560 38 C 690.935 38, 686.033 38.300, 685.667 38.667 M 724.425 39.334 C 724.144 40.067, 724.046 44.455, 724.207 49.084 L 724.500 57.500 740 58 L 755.500 58.500 755.759 113.408 C 755.940 151.933, 756.350 168.716, 757.131 169.658 C 758.641 171.477, 776.521 171.557, 777.691 169.750 C 778.136 169.063, 778.725 143.750, 779 113.500 L 779.500 58.500 794.640 58.225 C 809.335 57.957, 809.798 57.884, 810.376 55.725 C 811.149 52.841, 811.145 43.143, 810.370 40.250 L 809.767 38 767.352 38 C 732.925 38, 724.841 38.251, 724.425 39.334 M 327 58.815 L 323.500 59.500 323.500 77 L 323.500 94.500 333.408 94.788 C 346.117 95.158, 353.111 93.720, 357.546 89.825 C 363.481 84.614, 364.431 73.904, 359.594 66.723 C 355.871 61.196, 350.313 58.890, 339.739 58.485 C 334.658 58.290, 328.925 58.439, 327 58.815 M 124.464 75.381 C 121.695 76.061, 118.963 76.905, 118.393 77.257 C 117.727 77.669, 117.423 84.775, 117.541 97.198 L 117.724 116.500 135.612 116.500 C 147.976 116.500, 154.665 116.088, 157.271 115.166 L 161.042 113.831 160.771 94.166 L 160.500 74.500 145 74.323 C 135.463 74.214, 127.563 74.621, 124.464 75.381 M 180.554 77.087 C 181.017 77.837, 179.094 78.112, 174.363 77.973 C 170.588 77.863, 166.375 77.823, 165 77.885 L 162.500 77.998 162.824 88.749 C 163.113 98.351, 163.380 99.694, 165.324 101.313 C 167.465 103.096, 167.466 103.116, 165.413 102.547 C 163.597 102.044, 163.308 102.427, 163.193 105.484 C 163.077 108.577, 163.353 109, 165.491 109 C 166.828 109, 168.396 108.438, 168.976 107.750 C 169.556 107.063, 171.149 105.239, 172.516 103.698 C 173.882 102.158, 175 100.466, 175 99.940 C 175 99.413, 176.284 97.210, 177.853 95.044 C 180.073 91.980, 180.974 91.371, 181.912 92.303 C 182.851 93.235, 182.975 93.124, 182.472 91.802 C 182.116 90.867, 182.633 88.737, 183.623 87.062 C 185.028 84.682, 185.156 83.756, 184.210 82.810 C 183.263 81.863, 182.983 82.133, 182.921 84.050 C 182.878 85.397, 182.600 85.893, 182.305 85.151 C 181.583 83.340, 184.036 78.904, 185.321 79.698 C 185.946 80.085, 186.081 79.654, 185.670 78.582 C 185.301 77.622, 185 76.648, 185 76.418 C 185 76.188, 183.848 76, 182.441 76 C 180.853 76, 180.137 76.412, 180.554 77.087 M 113.452 80.816 C 112.929 81.192, 111.988 82.400, 111.362 83.500 C 110.735 84.600, 109.503 85.438, 108.622 85.363 C 107.742 85.288, 107.237 85.575, 107.501 86.001 C 107.764 86.428, 106.258 88.289, 104.153 90.138 C 102.048 91.987, 100.498 94.010, 100.707 94.634 C 100.917 95.258, 100.394 96.463, 99.545 97.313 C 98.695 98.162, 97.968 99.677, 97.930 100.679 C 97.866 102.340, 97.792 102.328, 97.095 100.547 C 96.450 98.896, 96.212 99.128, 95.559 102.047 C 95.135 103.946, 94.637 106.400, 94.454 107.500 C 94.270 108.600, 93.915 110.665, 93.665 112.090 C 93.222 114.620, 93.349 114.684, 99.199 114.896 C 103.195 115.040, 104.970 114.760, 104.534 114.056 C 103.714 112.729, 107.018 112.676, 110.401 113.962 C 115.286 115.820, 115.925 113.737, 115.781 96.425 C 115.710 87.888, 115.371 80.729, 115.028 80.517 C 114.685 80.305, 113.976 80.440, 113.452 80.816 M 111.250 147.689 C 113.342 148.236, 113.597 150, 111.583 150 C 110.804 150, 109.966 150.563, 109.721 151.250 C 109.413 152.112, 108.484 151.774, 106.728 150.161 C 104.394 148.017, 103.629 147.881, 97.591 148.527 L 91 149.233 91 164.010 C 91 176.561, 91.238 178.877, 92.582 179.393 C 93.452 179.727, 98.611 180, 104.047 180 C 112.458 180, 114.060 179.739, 114.808 178.250 C 115.291 177.287, 115.766 170.232, 115.863 162.571 C 116.049 147.952, 115.757 146.917, 111.500 147.131 C 109.821 147.216, 109.781 147.305, 111.250 147.689 M 289.071 197.752 C 283.339 200.674, 281.499 204.143, 281.504 212.016 C 281.508 218.248, 281.779 219.160, 284.457 221.955 C 289.724 227.453, 298.876 228.361, 305.010 223.993 C 307.755 222.038, 308 221.377, 308 215.932 L 308 210 302 210 C 296.591 210, 296 210.205, 296 212.078 C 296 213.864, 296.515 214.110, 299.667 213.828 C 302.921 213.537, 303.417 213.803, 304.064 216.188 C 304.612 218.208, 304.316 219.309, 302.872 220.616 C 300.204 223.031, 291.874 223.098, 289.251 220.726 C 288.172 219.750, 286.662 219.114, 285.895 219.312 C 285.128 219.510, 284.848 219.480, 285.272 219.245 C 285.697 219.011, 285.753 216.617, 285.396 213.927 C 284.901 210.194, 285.148 208.423, 286.440 206.451 C 287.834 204.324, 287.909 203.568, 286.865 202.183 C 285.815 200.790, 285.827 200.704, 286.933 201.685 C 287.972 202.606, 288.801 202.521, 290.654 201.307 C 292.916 199.825, 294.344 199.814, 303.392 201.208 C 306.848 201.741, 306.283 199.016, 302.620 197.486 C 297.914 195.520, 293.270 195.611, 289.071 197.752 M 408.643 197.028 C 402.721 198.803, 399 204.308, 399 211.297 C 399 219.586, 403.747 225.390, 411.475 226.549 C 418.254 227.565, 426.862 223.790, 423.716 221.179 C 422.764 220.389, 421.230 220.499, 418.082 221.584 C 410.496 224.197, 404.650 220.919, 403.444 213.375 C 402.594 208.061, 404.924 203.481, 409.613 201.245 C 412.861 199.696, 413.481 199.689, 417.553 201.153 C 421.428 202.547, 422.119 202.561, 423.188 201.274 C 424.173 200.086, 424.033 199.587, 422.453 198.653 C 418.062 196.060, 413.617 195.537, 408.643 197.028 M 573.035 196.734 C 572.229 197.051, 570.781 198.253, 569.818 199.405 C 565.466 204.610, 569.648 211.443, 577.838 212.512 C 584.845 213.427, 587 214.582, 587 217.422 C 587 222.807, 579.592 224.585, 572.876 220.810 C 569.908 219.142, 568.702 218.898, 567.813 219.787 C 566.088 221.512, 569.437 224.771, 574.271 226.073 C 582.550 228.302, 592.061 223.816, 591.433 217.977 C 591.286 216.615, 591.129 214.931, 591.083 214.235 C 590.964 212.424, 584.968 209.008, 581.899 209.004 C 577.107 208.997, 572.999 206.985, 573.015 204.652 C 573.038 201.491, 574.114 200.335, 577.774 199.541 C 580.172 199.021, 581.915 199.342, 584.290 200.743 C 587.773 202.798, 590 202.681, 590 200.442 C 590 197.202, 578.332 194.651, 573.035 196.734 M 837.397 196.640 C 834.492 197.276, 829.500 202.806, 828.134 206.899 C 826.771 210.986, 826.656 214.330, 827.907 213.558 C 828.405 213.249, 828.583 213.880, 828.301 214.959 C 827.557 217.800, 831.491 223.544, 835.259 225.121 C 842.487 228.145, 851.593 226.050, 854.792 220.628 C 859.074 213.371, 858.524 206.919, 853.122 201.001 C 850.011 197.593, 848.795 196.973, 844.500 196.606 C 841.750 196.371, 838.554 196.386, 837.397 196.640 M 972 196.656 C 967.101 198.632, 965.106 205.963, 968.534 209.391 C 970.274 211.131, 976.225 212.986, 980.095 212.994 C 981.522 212.997, 983.506 213.902, 984.504 215.004 C 987.157 217.935, 985.235 221.678, 980.633 222.541 C 976.507 223.315, 973.256 222.461, 970.400 219.852 C 968.517 218.132, 968.167 218.094, 967.012 219.485 C 965.945 220.771, 966.026 221.372, 967.483 222.981 C 971.770 227.718, 982.551 227.999, 987.405 223.501 C 992.472 218.805, 989.468 210.680, 982.207 209.443 C 975.005 208.215, 971 206.910, 971 205.790 C 971 205.167, 970.224 203.722, 969.277 202.579 C 968.329 201.435, 968.163 201.032, 968.909 201.682 C 969.971 202.608, 970.867 202.419, 973.049 200.805 C 976.162 198.504, 981.813 198.865, 984.005 201.505 C 984.929 202.619, 985.680 202.706, 987.227 201.879 C 989.243 200.800, 989.243 200.798, 987.161 198.716 C 985.626 197.181, 983.554 196.557, 979.289 196.342 C 976.105 196.182, 972.825 196.323, 972 196.656 M 10 211.500 L 10 226 20 226 C 29.333 226, 30 225.867, 30 224 C 30 222.167, 29.333 222, 22.025 222 L 14.049 222 14.275 209.500 C 14.498 197.136, 14.475 196.999, 12.250 197 C 10.020 197, 10 197.130, 10 211.500 M 43.436 199.750 C 43.104 201.262, 42.660 203.063, 42.448 203.750 C 42.235 204.440, 42.896 205, 43.923 205 C 45.054 205, 46.020 204.057, 46.387 202.593 C 46.720 201.269, 47.267 199.469, 47.603 198.593 C 48.042 197.449, 47.625 197, 46.126 197 C 44.661 197, 43.858 197.820, 43.436 199.750 M 62 211.570 C 62 225.875, 62.039 226.133, 64.133 225.820 C 66.189 225.512, 66.270 224.987, 66.383 211.251 C 66.499 197.107, 66.483 197.002, 64.250 197.001 C 62.020 197, 62 197.127, 62 211.570 M 82 211.500 L 82 226 84.500 226 C 86.991 226, 87 225.967, 87 216.500 C 87 211.275, 86.588 207, 86.083 207 C 85.579 207, 84.975 207.563, 84.741 208.250 C 84.506 208.938, 84.356 206.951, 84.407 203.836 C 84.481 199.320, 84.762 198.390, 85.796 199.246 C 86.508 199.837, 86.868 200.900, 86.596 201.609 C 86.302 202.376, 86.637 202.693, 87.422 202.392 C 88.148 202.113, 89.020 202.609, 89.360 203.494 C 89.718 204.430, 89.563 204.848, 88.989 204.493 C 87.289 203.443, 87.908 205.588, 90 208 C 91.100 209.268, 92.002 210.575, 92.005 210.903 C 92.007 211.231, 93.559 213.188, 95.454 215.250 C 97.348 217.313, 98.678 219, 98.409 219 C 98.139 219, 99.062 220.233, 100.460 221.740 C 101.857 223.247, 103 224.822, 103 225.240 C 103 225.658, 103.787 226, 104.750 226.001 C 106.336 226.001, 106.500 224.644, 106.500 211.504 C 106.500 197.137, 106.480 197.007, 104.250 197.003 C 102.082 197, 102 197.329, 102 206.083 C 102 211.079, 101.600 215.017, 101.111 214.833 C 100.201 214.492, 96.219 209.766, 90 201.646 C 87.714 198.661, 85.719 197.063, 84.250 197.038 C 82.018 197, 82 197.118, 82 211.500 M 120 198.991 C 120 200.733, 120.593 200.952, 124.750 200.741 L 129.500 200.500 129.656 213 C 129.803 224.801, 129.927 225.518, 131.875 225.816 C 133.858 226.119, 133.950 225.624, 134.220 213.316 L 134.500 200.500 139.250 200.840 C 143.510 201.145, 144 200.965, 144 199.090 C 144 197.086, 143.506 197, 132 197 C 120.685 197, 120 197.114, 120 198.991 M 157 211.500 L 157 226 168 226 C 178.333 226, 179 225.879, 179 224 C 179 222.159, 178.333 222, 170.605 222 L 162.210 222 161.829 218 C 161.610 215.711, 161.886 213.969, 162.474 213.927 C 163.038 213.886, 166.762 213.866, 170.750 213.883 C 174.738 213.899, 178.067 213.482, 178.150 212.956 C 178.675 209.612, 178.419 209.500, 170.250 209.476 C 164.031 209.458, 162 209.780, 162 210.785 C 162 211.538, 162.502 211.808, 163.155 211.405 C 163.870 210.962, 164.038 211.130, 163.595 211.845 C 163.203 212.480, 162.265 213, 161.511 213 C 160.756 213, 159.944 214.012, 159.706 215.250 C 159.467 216.488, 159.211 215.363, 159.136 212.750 C 159.041 209.428, 159.376 208.075, 160.250 208.250 C 161.053 208.411, 161.518 207.247, 161.549 205 L 161.598 201.500 170.299 201.211 C 178.178 200.949, 179 200.737, 179 198.961 C 179 197.132, 178.261 197, 168 197 L 157 197 157 211.500 M 193 211.500 L 193 226 203.500 226 C 213.333 226, 214 225.873, 214 224 C 214 222.167, 213.333 222, 206 222 L 198 222 198 209.500 L 198 197 195.500 197 L 193 197 193 211.500 M 228 211.500 L 228 226 238 226 C 247.333 226, 248 225.867, 248 224 C 248 222.165, 247.333 222, 239.943 222 L 231.886 222 232.193 209.498 C 232.497 197.109, 232.480 196.996, 230.250 196.998 C 228.020 197, 228 197.130, 228 211.500 M 262 211.500 C 262 225.870, 262.020 226, 264.250 226 C 266.480 226.001, 266.500 225.871, 266.500 211.504 C 266.500 197.137, 266.480 197.007, 264.250 197.003 C 262.020 197, 262 197.129, 262 211.500 M 294.813 197.683 C 295.534 197.972, 296.397 197.936, 296.729 197.604 C 297.061 197.272, 296.471 197.036, 295.417 197.079 C 294.252 197.127, 294.015 197.364, 294.813 197.683 M 322.536 210.750 C 322.647 218.313, 322.797 224.838, 322.869 225.250 C 322.941 225.662, 327.725 226, 333.500 226 C 343.333 226, 344 225.873, 344 224 C 344 222.153, 343.332 222, 335.250 221.997 L 326.500 221.994 326.453 218.033 L 326.405 214.072 334.953 213.786 C 342.738 213.525, 343.500 213.322, 343.500 211.500 C 343.500 209.704, 342.790 209.487, 336.522 209.369 C 328.488 209.218, 326.914 209.612, 327.670 211.583 C 328.019 212.492, 327.549 213, 326.357 212.999 C 325.082 212.999, 324.455 212.216, 324.356 210.499 C 324.264 208.902, 324.742 208, 325.681 208 C 326.739 208, 327.060 207.090, 326.825 204.750 L 326.500 201.500 335.250 201.211 C 343.177 200.949, 344 200.738, 344 198.961 C 344 197.134, 343.262 197, 333.167 197 L 322.334 197 322.536 210.750 M 360 211.500 C 360 225.870, 360.020 226, 362.250 226.001 C 364.453 226.002, 364.493 225.799, 364.152 216.251 C 363.961 210.888, 363.398 206.003, 362.901 205.396 C 361.891 204.162, 362.060 199, 363.111 199 C 364.089 199, 365.015 201.797, 364.194 202.271 C 363.812 202.492, 364.048 202.541, 364.718 202.380 C 366.394 201.977, 367.311 203.708, 365.756 204.338 C 364.938 204.670, 364.851 205.136, 365.506 205.674 C 366.059 206.128, 367.776 208.196, 369.321 210.269 C 370.966 212.476, 372.601 213.747, 373.266 213.336 C 374.099 212.821, 374.081 212.527, 373.201 212.234 C 372.540 212.013, 372 211.366, 372 210.794 C 372 210.171, 372.605 210.257, 373.512 211.010 C 374.649 211.953, 374.747 212.600, 373.910 213.609 C 373.053 214.641, 373.568 215.943, 376.133 219.226 C 383.842 229.095, 384 228.938, 384 211.430 C 384 197.071, 383.969 196.865, 381.841 197.180 C 379.802 197.482, 379.694 197.973, 379.910 205.981 C 380.036 210.646, 380.496 214.921, 380.932 215.481 C 382.128 217.019, 383.052 221.615, 382.313 222.354 C 381.533 223.134, 378 220.119, 378 218.674 C 378 218.115, 377.255 216.835, 376.345 215.829 C 375.435 214.823, 375.155 214, 375.723 214 C 376.291 214, 377.437 215.012, 378.269 216.250 C 379.101 217.488, 380.041 218.252, 380.359 217.949 C 380.676 217.645, 378.695 214.947, 375.956 211.952 C 373.218 208.958, 369.519 204.369, 367.738 201.756 C 365.490 198.456, 363.812 197.003, 362.250 197.002 C 360.020 197, 360 197.129, 360 211.500 M 438 211.500 L 438 226 449 226 C 459.333 226, 460 225.879, 460 224 C 460 222.152, 459.333 222, 451.243 222 L 442.486 222 442.830 217.670 L 443.174 213.341 451.087 213.799 C 458.993 214.257, 459 214.255, 459 211.744 C 459 209.256, 458.921 209.232, 451.086 209.416 L 443.172 209.601 442.805 205.748 C 442.603 203.630, 442.639 201.694, 442.885 201.448 C 443.132 201.202, 447.083 201, 451.667 201 C 459.333 201, 460 200.840, 460 199 C 460 197.121, 459.333 197, 449 197 L 438 197 438 211.500 M 491.801 211.498 L 492.103 226 499.301 225.998 C 511.485 225.996, 517.045 221.636, 517.273 211.906 C 517.523 201.226, 512.443 197.001, 499.349 196.998 L 491.500 196.997 491.801 211.498 M 531.500 211.501 L 531.500 226.001 542.250 226 C 552.333 226, 553 225.876, 553 224 C 553 222.157, 552.333 222, 544.500 222 L 536 222 536 219.122 C 536 217.540, 535.325 215.685, 534.500 215 C 533.675 214.315, 533 212.630, 533 211.255 C 533 209.137, 533.231 208.947, 534.512 210.010 C 535.589 210.904, 535.725 211.626, 534.986 212.517 C 534.169 213.502, 535.847 213.799, 542.856 213.911 C 550.225 214.028, 551.873 213.774, 552.386 212.436 C 553.505 209.519, 551.907 208.872, 544.152 209.103 C 536.737 209.324, 536.491 209.256, 536.201 206.916 C 535.616 202.191, 534.680 201.390, 533.961 205 L 533.263 208.500 533.132 204.832 C 532.976 200.508, 533.842 197.785, 535.121 198.575 C 535.622 198.885, 535.774 199.557, 535.457 200.069 C 535.118 200.617, 538.605 201, 543.941 201 C 552.333 201, 553 200.853, 553 199 C 553 197.124, 552.334 197, 542.250 197.001 L 531.500 197.001 531.500 211.501 M 622 199 C 622 200.669, 622.667 201, 626.031 201 C 628.692 201, 630.258 200.490, 630.638 199.500 C 630.955 198.675, 632.339 198, 633.714 198 C 635.583 198, 636.061 198.399, 635.607 199.582 C 635.273 200.452, 635 201.577, 635 202.082 C 635 203.716, 633.161 203.054, 632.689 201.250 C 632.438 200.287, 632.180 205.463, 632.116 212.750 C 632.006 225.306, 632.103 226, 633.970 226 C 635.813 226, 635.958 225.174, 636.220 213.250 L 636.500 200.500 640.977 200.500 C 644.443 200.500, 645.532 200.105, 645.800 198.750 C 646.115 197.161, 645.037 197, 634.073 197 C 622.667 197, 622 197.110, 622 199 M 659.056 211.533 L 659.186 226.066 669.831 225.783 C 679.042 225.538, 680.521 225.264, 680.811 223.750 C 681.110 222.189, 680.184 222, 672.256 222 L 663.366 222 663.933 217.750 L 664.501 213.500 672.250 213.853 L 680 214.206 680 211.603 C 680 209.016, 679.951 209, 672 209 L 664 209 664 205 L 664 201 672.500 201 C 680.333 201, 681 200.843, 681 199 C 681 197.121, 680.333 197, 669.963 197 L 658.926 197 659.056 211.533 M 695.500 211.500 C 695.500 225.870, 695.520 226, 697.750 226 C 699.783 226, 700 225.519, 700 221 C 700 216.033, 700.021 216, 703.228 216 C 705.849 216, 707.309 216.959, 710.999 221.100 C 714.513 225.044, 716.091 226.120, 717.967 225.850 L 720.392 225.500 717.139 221.803 C 715.049 219.427, 713.335 218.318, 712.344 218.698 C 709.933 219.623, 712.842 215.423, 715.655 213.917 C 720.363 211.398, 720.717 202.495, 716.249 198.981 C 714.157 197.335, 712.187 197, 704.615 197 L 695.500 197 695.500 211.500 M 733.453 201.658 C 733.923 207.804, 734.029 208.033, 735 205 C 735.657 202.950, 735.806 203.309, 735.830 207 C 735.852 210.377, 735.645 211.001, 735 209.500 L 734.141 207.500 733.997 209.500 C 733.918 210.600, 733.695 214.762, 733.500 218.750 C 733.153 225.856, 733.194 226, 735.573 226 C 737.811 226, 738 225.620, 738 221.117 C 738 216.586, 738.198 216.195, 740.750 215.698 C 743.092 215.243, 744.256 215.966, 748.601 220.582 C 751.703 223.876, 754.544 226, 755.851 226 C 758.875 226, 758.552 225.171, 753.321 219.500 C 750.784 216.750, 748.985 215.287, 749.323 216.250 C 749.661 217.213, 749.501 218, 748.969 218 C 748.436 218, 748 217.325, 748 216.500 C 748 215.675, 747.550 215, 747 215 C 746.450 215, 746 214.611, 746 214.135 C 746 213.659, 747.973 213.434, 750.385 213.635 C 754.154 213.949, 754.997 213.654, 756.385 211.535 C 758.709 207.988, 758.396 203.572, 755.588 200.306 C 753.289 197.632, 752.705 197.484, 743.130 197.158 L 733.083 196.815 733.453 201.658 M 772 211.500 C 772 225.333, 772.092 226, 774 226 C 775.908 226, 776 225.333, 776 211.500 C 776 197.667, 775.908 197, 774 197 C 772.092 197, 772 197.667, 772 211.500 M 791 199.076 C 791 200.840, 791.565 201.127, 794.750 200.980 C 796.813 200.884, 799.063 200.850, 799.750 200.903 C 800.678 200.975, 801 204.218, 801 213.500 C 801 225.333, 801.107 226, 803 226 C 804.893 226, 805 225.333, 805 213.500 C 805 204.218, 805.322 200.975, 806.250 200.903 C 806.938 200.850, 809.188 200.884, 811.250 200.980 C 814.435 201.127, 815 200.840, 815 199.076 C 815 197.090, 814.481 197, 803 197 C 791.519 197, 791 197.090, 791 199.076 M 872 211.500 C 872 225.333, 872.092 226, 874 226 C 875.908 226, 876 225.333, 876 211.500 C 876 197.667, 875.908 197, 874 197 C 872.092 197, 872 197.667, 872 211.500 M 892 211.500 C 892 225.333, 892.092 226, 894 226 C 895.733 226, 896 225.333, 896 221 L 896 216 899.422 216 C 902.287 216, 903.570 216.828, 907.288 221.079 C 910.848 225.149, 912.254 226.093, 914.359 225.829 L 916.986 225.500 913.042 221.500 C 908.405 216.797, 908.100 215.293, 911.518 213.993 C 916.591 212.064, 917.452 204.298, 913.077 199.923 C 910.276 197.122, 909.776 197, 901.077 197 L 892 197 892 211.500 M 930 211.500 L 930 226 941.044 226 C 951.007 226, 952.059 225.829, 951.794 224.250 C 951.545 222.769, 950.038 222.423, 942 222 C 932.735 221.512, 932.495 221.438, 932.298 219 L 932.097 216.500 932.949 219 C 933.701 221.209, 933.812 221.030, 933.900 217.463 L 934 213.426 942.250 213.463 C 949.846 213.497, 950.500 213.341, 950.500 211.500 C 950.500 209.729, 949.735 209.466, 943.831 209.206 C 937.641 208.933, 936.977 209.112, 934.581 211.696 L 932 214.480 932.118 208.990 C 932.218 204.385, 932.360 203.983, 933 206.500 C 933.719 209.327, 933.770 209.258, 933.882 205.289 L 934 201.078 942.739 200.789 C 950.130 200.545, 951.529 200.230, 951.812 198.750 C 952.114 197.169, 951.080 197, 941.073 197 L 930 197 930 211.500 M 974.750 197.662 C 975.438 197.940, 976.563 197.940, 977.250 197.662 C 977.938 197.385, 977.375 197.158, 976 197.158 C 974.625 197.158, 974.063 197.385, 974.750 197.662 M 129.250 199.080 C 130.213 199.641, 131 200.752, 131 201.550 C 131 202.347, 131.450 203, 132 203 C 132.550 203, 133 202.587, 133 202.082 C 133 201.577, 133.273 200.452, 133.607 199.582 C 134.087 198.330, 133.514 198.006, 130.857 198.030 C 128.092 198.055, 127.809 198.241, 129.250 199.080 M 298 198.383 C 298 198.594, 299.111 198.979, 300.470 199.239 C 301.828 199.499, 302.702 199.326, 302.411 198.856 C 301.899 198.027, 298 197.610, 298 198.383 M 337.269 198.693 C 338.242 198.947, 339.592 198.930, 340.269 198.656 C 340.946 198.382, 340.150 198.175, 338.500 198.195 C 336.850 198.215, 336.296 198.439, 337.269 198.693 M 412.250 198.689 C 413.212 198.941, 414.788 198.941, 415.750 198.689 C 416.712 198.438, 415.925 198.232, 414 198.232 C 412.075 198.232, 411.288 198.438, 412.250 198.689 M 503.813 198.683 C 504.534 198.972, 505.397 198.936, 505.729 198.604 C 506.061 198.272, 505.471 198.036, 504.417 198.079 C 503.252 198.127, 503.015 198.364, 503.813 198.683 M 661.070 201.750 C 661.127 204.758, 661.311 205.104, 662 203.500 C 663.194 200.721, 663.194 198, 662 198 C 661.450 198, 661.032 199.688, 661.070 201.750 M 697.434 199.311 C 697.157 200.032, 697.059 205.770, 697.215 212.061 L 697.500 223.500 698.790 218.013 C 699.660 214.313, 699.742 212.414, 699.040 212.180 C 697.707 211.736, 697.669 202, 699 202 C 699.550 202, 700 204.250, 700 207 L 700 212 705.845 212 C 712.288 212, 715 210.232, 715 206.032 C 715 202.589, 712.184 201.067, 705.750 201.032 C 700.072 201, 697.884 199.547, 702.250 198.706 C 703.861 198.396, 703.568 198.234, 701.219 198.136 C 699.326 198.058, 697.724 198.555, 697.434 199.311 M 737.029 198.961 C 736.220 199.473, 735.771 200.104, 736.031 200.364 C 736.290 200.624, 737.376 200.198, 738.443 199.418 C 740.576 197.858, 739.383 197.472, 737.029 198.961 M 801.519 199.739 C 801.927 200.707, 802.181 203.058, 802.085 204.962 C 801.988 206.867, 802.253 208.080, 802.674 207.659 C 803.095 207.238, 803.555 205.162, 803.697 203.045 C 803.882 200.282, 803.507 199.025, 802.366 198.587 C 801.150 198.120, 800.951 198.391, 801.519 199.739 M 903.813 198.683 C 904.534 198.972, 905.397 198.936, 905.729 198.604 C 906.061 198.272, 905.471 198.036, 904.417 198.079 C 903.252 198.127, 903.015 198.364, 903.813 198.683 M 934.750 198.662 C 935.438 198.940, 936.563 198.940, 937.250 198.662 C 937.938 198.385, 937.375 198.158, 936 198.158 C 934.625 198.158, 934.063 198.385, 934.750 198.662 M 324.500 200 C 324.160 200.550, 324.359 201, 324.941 201 C 325.523 201, 326 200.550, 326 200 C 326 199.450, 325.802 199, 325.559 199 C 325.316 199, 324.840 199.450, 324.500 200 M 493.651 200.468 C 493.341 201.275, 493.467 202.170, 493.930 202.457 C 494.393 202.743, 495.007 202.083, 495.293 200.989 C 495.891 198.703, 494.498 198.261, 493.651 200.468 M 894.459 200.067 C 894.096 200.653, 894.014 201.348, 894.276 201.610 C 894.538 201.872, 895.019 201.392, 895.345 200.543 C 896.021 198.781, 895.445 198.471, 894.459 200.067 M 440.079 201.583 C 440.127 202.748, 440.364 202.985, 440.683 202.188 C 440.972 201.466, 440.936 200.603, 440.604 200.271 C 440.272 199.939, 440.036 200.529, 440.079 201.583 M 510.405 201.854 C 512.521 204.238, 513 204.456, 513 203.035 C 513 202.505, 511.988 201.539, 510.750 200.890 C 508.512 199.715, 508.510 199.720, 510.405 201.854 M 752.624 201.609 C 753.173 203.158, 753.051 203.274, 751.947 202.250 C 751.166 201.525, 747.955 201, 744.300 201 L 738 201 738 206.500 C 738 210.232, 737.598 212.001, 736.750 212.002 C 736.060 212.003, 735.400 213.425, 735.277 215.175 C 735.040 218.532, 736.539 217.995, 737.162 214.500 C 737.467 212.794, 738.514 212.427, 744.297 212 C 751.580 211.463, 752.958 210.484, 752.985 205.833 C 752.993 204.367, 753.499 203, 754.110 202.797 C 754.800 202.567, 754.603 201.915, 753.587 201.072 C 752.158 199.887, 752.038 199.954, 752.624 201.609 M 836.786 201.553 C 831.964 204.170, 830.637 214.300, 834.456 219.338 C 836.054 221.446, 842.542 223.218, 845.500 222.354 C 851.230 220.681, 854.190 213.917, 852.159 207.137 C 850.283 200.874, 842.946 198.210, 836.786 201.553 M 896.509 201.832 C 896.229 202.564, 896 205.152, 896 207.582 L 896 212 902 212 C 906.667 212, 908.444 211.556, 910 210 C 912.390 207.610, 912.500 206.158, 910.506 203.312 C 909.321 201.620, 907.768 201.108, 903.015 200.839 C 898.693 200.595, 896.876 200.872, 896.509 201.832 M 64.300 206 C 64.300 209.025, 64.487 210.262, 64.716 208.750 C 64.945 207.238, 64.945 204.762, 64.716 203.250 C 64.487 201.738, 64.300 202.975, 64.300 206 M 195.365 210.500 C 195.368 216, 195.536 218.122, 195.738 215.216 C 195.941 212.311, 195.939 207.811, 195.734 205.216 C 195.528 202.622, 195.363 205, 195.365 210.500 M 496.667 201.667 C 496.300 202.033, 496 206.812, 496 212.287 L 496 222.240 502.039 221.804 C 510.268 221.208, 512.500 218.986, 512.500 211.386 C 512.500 206.535, 512.143 205.519, 509.694 203.413 C 507.575 201.590, 505.720 201, 502.111 201 C 499.483 201, 497.033 201.300, 496.667 201.667 M 851.500 202 C 851.840 202.550, 852.316 203, 852.559 203 C 852.802 203, 853 202.550, 853 202 C 853 201.450, 852.523 201, 851.941 201 C 851.359 201, 851.160 201.450, 851.500 202 M 912.975 206.796 L 913.458 211.500 913.797 207.618 C 913.984 205.483, 913.767 203.367, 913.315 202.915 C 912.863 202.463, 912.710 204.210, 912.975 206.796 M 283.459 204.067 C 282.433 205.727, 283.354 205.957, 284.789 204.399 C 285.499 203.630, 285.638 203, 285.098 203 C 284.559 203, 283.821 203.480, 283.459 204.067 M 401.667 204.667 C 401.300 205.033, 401.014 206.046, 401.030 206.917 C 401.055 208.217, 401.251 208.174, 402.122 206.675 C 403.199 204.823, 402.887 203.447, 401.667 204.667 M 368 205.941 C 368 206.459, 368.445 207.157, 368.989 207.493 C 369.555 207.843, 369.723 207.442, 369.382 206.552 C 368.717 204.820, 368 204.503, 368 205.941 M 717.158 207 C 717.158 208.375, 717.385 208.938, 717.662 208.250 C 717.940 207.563, 717.940 206.438, 717.662 205.750 C 717.385 205.063, 717.158 205.625, 717.158 207 M 854.079 206.583 C 854.127 207.748, 854.364 207.985, 854.683 207.188 C 854.972 206.466, 854.936 205.603, 854.604 205.271 C 854.272 204.939, 854.036 205.529, 854.079 206.583 M 440.115 213.639 C 440.215 219.601, 440.328 219.995, 440.975 216.646 C 441.384 214.526, 442.191 212.500, 442.769 212.143 C 443.440 211.728, 443.130 210.644, 441.909 209.136 L 440 206.778 440.115 213.639 M 633.079 208.583 C 633.127 209.748, 633.364 209.985, 633.683 209.188 C 633.972 208.466, 633.936 207.603, 633.604 207.271 C 633.272 206.939, 633.036 207.529, 633.079 208.583 M 661.176 210.709 C 661.258 213.023, 661.702 214.684, 662.162 214.400 C 663.295 213.700, 663.196 209.850, 661.999 208 C 661.296 206.914, 661.069 207.662, 661.176 210.709 M 282.890 208.250 C 282.282 209.638, 282.437 214.848, 283.075 214.454 C 283.537 214.168, 283.821 212.600, 283.707 210.969 C 283.525 208.361, 283.247 207.436, 282.890 208.250 M 753.564 210.707 C 753.022 212.132, 753.136 212.247, 754.124 211.267 C 754.808 210.588, 755.115 209.781, 754.807 209.474 C 754.499 209.166, 753.940 209.721, 753.564 210.707 M 802.982 214.298 L 803.463 219.500 803.796 215.114 C 803.979 212.702, 803.762 210.361, 803.314 209.912 C 802.866 209.464, 802.717 211.437, 802.982 214.298 M 94.910 211.500 C 96.645 214.892, 97.969 216.554, 97.985 215.361 C 97.993 214.734, 97.075 213.159, 95.944 211.861 C 94.327 210.005, 94.106 209.928, 94.910 211.500 M 493.300 215 C 493.300 218.025, 493.487 219.262, 493.716 217.750 C 493.945 216.238, 493.945 213.762, 493.716 212.250 C 493.487 210.738, 493.300 211.975, 493.300 215 M 84.300 216 C 84.300 219.025, 84.487 220.262, 84.716 218.750 C 84.945 217.238, 84.945 214.762, 84.716 213.250 C 84.487 211.738, 84.300 212.975, 84.300 216 M 304.076 212.727 C 304.823 213.702, 305.561 214.688, 305.717 214.917 C 305.873 215.146, 306 214.631, 306 213.774 C 306 212.916, 305.261 211.931, 304.359 211.584 C 302.930 211.036, 302.893 211.184, 304.076 212.727 M 893.918 211.128 C 892.661 216.819, 893.815 219.083, 895.944 215.105 C 896.697 213.698, 896.577 212.894, 895.479 211.983 C 894.666 211.307, 893.963 210.923, 893.918 211.128 M 910 212 C 909.175 212.533, 907.263 212.976, 905.750 212.985 C 902.604 213.002, 902.205 214.037, 904.750 215.578 C 906.149 216.426, 907.080 216.073, 909.397 213.819 C 912.396 210.900, 912.585 210.329, 910 212 M 712 213.125 C 712 213.842, 710.911 214.032, 709 213.650 C 705.482 212.946, 705.035 214.062, 708.258 215.500 C 710.072 216.309, 710.922 216.071, 712.714 214.250 C 714.322 212.616, 714.528 212, 713.464 212 C 712.659 212, 712 212.506, 712 213.125 M 362.195 215.500 C 362.215 217.150, 362.439 217.704, 362.693 216.731 C 362.947 215.758, 362.930 214.408, 362.656 213.731 C 362.382 213.054, 362.175 213.850, 362.195 215.500 M 633.252 216.500 C 633.263 218.700, 633.468 219.482, 633.707 218.238 C 633.946 216.994, 633.937 215.194, 633.687 214.238 C 633.437 213.282, 633.241 214.300, 633.252 216.500 M 986.170 214 C 986.186 214.825, 986.560 216.625, 987 218 C 987.644 220.010, 987.806 220.108, 987.830 218.500 C 987.846 217.400, 987.473 215.600, 987 214.500 C 986.473 213.275, 986.152 213.081, 986.170 214 M 103 215.858 C 103 216.944, 102.485 218.005, 101.857 218.214 C 100.356 218.715, 102.541 223.007, 104.285 222.985 C 105.048 222.975, 104.942 222.609, 104 222 C 103 221.354, 102.917 221.026, 103.750 221.015 C 105.240 220.997, 105.455 215.399, 104 214.500 C 103.450 214.160, 103 214.771, 103 215.858 M 830.038 216 C 830.052 216.825, 830.724 218.374, 831.532 219.441 C 833.420 221.937, 833.408 221.011, 831.506 217.364 C 830.685 215.789, 830.024 215.175, 830.038 216 M 853.162 217.543 C 851.487 221.220, 851.807 222.005, 853.618 218.662 C 854.464 217.100, 854.969 215.636, 854.741 215.407 C 854.512 215.179, 853.802 216.140, 853.162 217.543 M 513.015 218.250 C 513.028 220.069, 513.216 220.213, 514 219 C 515.253 217.061, 515.253 216, 514 216 C 513.450 216, 513.007 217.012, 513.015 218.250 M 893.769 219.956 C 893.078 222.417, 893.491 223.842, 894.581 222.753 C 894.900 222.433, 895.004 221.121, 894.810 219.836 L 894.459 217.500 893.769 219.956 M 63.583 219.866 C 63.152 220.563, 63.070 221.403, 63.400 221.733 C 64.295 222.628, 65.271 221.312, 64.787 219.862 C 64.449 218.846, 64.213 218.846, 63.583 219.866 M 263.638 220.500 C 263.322 221.325, 263.499 222, 264.031 222 C 264.564 222, 265 221.325, 265 220.500 C 265 219.675, 264.823 219, 264.607 219 C 264.391 219, 263.955 219.675, 263.638 220.500 M 588 220.059 C 588 220.641, 588.450 220.840, 589 220.500 C 589.550 220.160, 590 219.684, 590 219.441 C 590 219.198, 589.550 219, 589 219 C 588.450 219, 588 219.477, 588 220.059 M 908 219.378 C 908 219.585, 908.788 220.373, 909.750 221.128 C 911.336 222.371, 911.371 222.336, 910.128 220.750 C 908.821 219.084, 908 218.555, 908 219.378 M 132.079 221.583 C 132.127 222.748, 132.364 222.985, 132.683 222.188 C 132.972 221.466, 132.936 220.603, 132.604 220.271 C 132.272 219.939, 132.036 220.529, 132.079 221.583 M 713 220.882 C 713 221.432, 713.450 222.160, 714 222.500 C 714.550 222.840, 715 222.668, 715 222.118 C 715 221.568, 714.550 220.840, 714 220.500 C 713.450 220.160, 713 220.332, 713 220.882 M 968 220.902 C 968 221.940, 969.902 223.443, 970.466 222.850 C 970.649 222.658, 970.169 221.920, 969.399 221.211 C 968.630 220.501, 968 220.362, 968 220.902 M 159.252 222 C 159.475 222.825, 160.746 223.583, 162.078 223.685 C 163.988 223.830, 164.077 223.753, 162.500 223.319 C 161.400 223.016, 160.128 222.258, 159.674 221.634 C 159.128 220.885, 158.985 221.009, 159.252 222 M 286.500 222 C 286.840 222.550, 287.316 223, 287.559 223 C 287.802 223, 288 222.550, 288 222 C 288 221.450, 287.523 221, 286.941 221 C 286.359 221, 286.160 221.450, 286.500 222 M 405 222.027 C 405 222.896, 408.882 224.451, 409.503 223.831 C 409.696 223.637, 408.762 222.964, 407.427 222.334 C 406.092 221.704, 405 221.566, 405 222.027 M 571.226 222.579 C 572.176 223.570, 573.168 224.166, 573.431 223.903 C 573.694 223.640, 572.917 222.829, 571.705 222.100 C 569.598 220.835, 569.577 220.857, 571.226 222.579 M 230 223 C 230 223.550, 230.702 224, 231.559 224 C 232.416 224, 232.840 223.550, 232.500 223 C 232.160 222.450, 231.459 222, 230.941 222 C 230.423 222, 230 222.450, 230 223 M 440 223 C 440 223.550, 441.012 223.993, 442.250 223.985 C 444.069 223.972, 444.213 223.784, 443 223 C 441.061 221.747, 440 221.747, 440 223 M 494 223 C 494 223.550, 494.477 224, 495.059 224 C 495.641 224, 495.840 223.550, 495.500 223 C 495.160 222.450, 494.684 222, 494.441 222 C 494.198 222, 494 222.450, 494 223 M 585 223 C 584.099 223.582, 583.975 223.975, 584.691 223.985 C 585.346 223.993, 586.160 223.550, 586.500 223 C 587.267 221.758, 586.921 221.758, 585 223 M 13.269 223.693 C 14.242 223.947, 15.592 223.930, 16.269 223.656 C 16.946 223.382, 16.150 223.175, 14.500 223.195 C 12.850 223.215, 12.296 223.439, 13.269 223.693 M 195.813 223.683 C 196.534 223.972, 197.397 223.936, 197.729 223.604 C 198.061 223.272, 197.471 223.036, 196.417 223.079 C 195.252 223.127, 195.015 223.364, 195.813 223.683 M 325.500 224 C 325.840 224.550, 326.541 225, 327.059 225 C 327.577 225, 328 224.550, 328 224 C 328 223.450, 327.298 223, 326.441 223 C 325.584 223, 325.160 223.450, 325.500 224 M 504.750 223.662 C 505.438 223.940, 506.563 223.940, 507.250 223.662 C 507.938 223.385, 507.375 223.158, 506 223.158 C 504.625 223.158, 504.063 223.385, 504.750 223.662 M 533.813 223.683 C 534.534 223.972, 535.397 223.936, 535.729 223.604 C 536.061 223.272, 535.471 223.036, 534.417 223.079 C 533.252 223.127, 533.015 223.364, 533.813 223.683 M 540 224 C 539.175 224.533, 538.950 224.969, 539.500 224.969 C 540.050 224.969, 541.175 224.533, 542 224 C 542.825 223.467, 543.050 223.031, 542.500 223.031 C 541.950 223.031, 540.825 223.467, 540 224 M 664.813 223.683 C 665.534 223.972, 666.397 223.936, 666.729 223.604 C 667.061 223.272, 666.471 223.036, 665.417 223.079 C 664.252 223.127, 664.015 223.364, 664.813 223.683 M 669.269 223.693 C 670.242 223.947, 671.592 223.930, 672.269 223.656 C 672.946 223.382, 672.150 223.175, 670.500 223.195 C 668.850 223.215, 668.296 223.439, 669.269 223.693 M 836.813 223.683 C 837.534 223.972, 838.397 223.936, 838.729 223.604 C 839.061 223.272, 838.471 223.036, 837.417 223.079 C 836.252 223.127, 836.015 223.364, 836.813 223.683 M 933.800 224.200 C 934.733 225.133, 935.267 225.133, 936.200 224.200 C 937.133 223.267, 936.867 223, 935 223 C 933.133 223, 932.867 223.267, 933.800 224.200" stroke="none" fill="#ffffff" fill-rule="evenodd"/>
</svg>