<svg xmlns="http://www.w3.org/2000/svg" width="1000" height="453" viewBox="0 0 1000 453" version="1.1">
	<path d="M 499.264 25.938 C 489.838 26.404, 486.652 26.919, 485.387 28.184 C 483.916 29.656, 483.754 34.085, 483.828 70.987 L 483.909 112.148 486.955 116.745 C 490.583 122.223, 490.778 124.922, 487.750 127.759 C 483.584 131.661, 480.769 132, 452.507 132 C 420.838 132, 412.115 132.908, 404.703 136.973 C 401.841 138.543, 395.755 140.759, 391.177 141.898 C 382.938 143.947, 378.234 146.400, 375.756 149.938 C 375.052 150.944, 372.418 152.733, 369.904 153.915 C 366.773 155.387, 364.636 157.303, 363.123 159.994 C 361.908 162.156, 359.639 164.833, 358.080 165.943 C 355.329 167.902, 354.704 168.946, 349.983 179.464 C 348.758 182.194, 346.652 186.175, 345.304 188.311 C 341.280 194.686, 339.824 204.364, 339.892 224.284 C 339.962 244.540, 341.099 252.909, 344.548 258.554 C 345.873 260.724, 348.721 266.100, 350.875 270.500 C 356.366 281.713, 368.634 295.471, 377.152 299.969 C 380.644 301.812, 384.971 304.591, 386.768 306.146 C 390.670 309.518, 389.917 309.331, 412.401 312.524 C 427.634 314.688, 435.087 315.136, 462.401 315.533 C 480.056 315.790, 499.702 316.232, 506.059 316.517 C 517.125 317.013, 517.710 316.938, 519.756 314.760 C 523.658 310.607, 524.819 306.238, 524.332 297.554 C 523.718 286.608, 523.347 285.249, 520.748 284.394 C 519.511 283.988, 498.025 283.587, 473 283.505 C 424.092 283.343, 423.145 283.253, 415.519 278.021 C 413.309 276.504, 408.268 273.639, 404.317 271.653 C 399.580 269.272, 396.195 266.758, 394.378 264.271 C 392.862 262.197, 390.154 258.925, 388.360 257 C 383.597 251.889, 381.246 245.682, 379.360 233.245 C 377.710 222.365, 377.719 222.016, 379.971 209.938 C 382.161 198.185, 382.427 197.499, 386.378 193.411 C 388.645 191.065, 392.100 187.425, 394.055 185.322 C 400.098 178.825, 407.974 173.081, 412.334 171.989 C 414.625 171.416, 420.100 169.511, 424.500 167.756 L 432.500 164.566 469.500 163.973 C 489.850 163.648, 508.602 163.775, 511.172 164.257 C 516.282 165.214, 519.883 163.997, 523.385 160.127 C 524.961 158.386, 525.134 157.275, 524.456 153.275 C 523.342 146.698, 523.150 43.734, 524.240 37.298 C 524.830 33.821, 524.760 31.421, 524.031 30.058 C 522.592 27.370, 517.795 24.958, 514.300 25.167 C 512.760 25.259, 505.994 25.606, 499.264 25.938 M 799.711 27.947 C 788.096 28.381, 784.716 28.822, 783.965 30 C 781.769 33.440, 781.011 39.282, 781.006 52.800 C 781 67.736, 781.921 71.817, 785.760 73.872 C 786.717 74.384, 794.797 74.959, 803.715 75.150 C 821.869 75.539, 822.038 75.485, 824.456 68.451 C 825.949 64.106, 825.534 37.810, 823.887 32.397 C 822.927 29.245, 819.361 26.831, 816.203 27.197 C 815.266 27.306, 807.845 27.644, 799.711 27.947 M 865.721 28.260 C 860.272 30.076, 860.523 23.598, 860.211 170.500 C 860.052 245.300, 860.183 307.949, 860.501 309.721 C 860.819 311.492, 862.177 314.245, 863.518 315.839 L 865.957 318.738 878.229 318.791 C 891.823 318.850, 894.096 318.199, 897.067 313.392 C 899.039 310.200, 899.065 308.388, 899.054 173.598 C 899.042 28.651, 899.175 32.876, 894.510 29.007 C 893.135 27.867, 889.811 27.507, 880.431 27.482 C 873.678 27.464, 867.058 27.814, 865.721 28.260 M 952.742 27.946 C 941.647 28.527, 940.829 28.716, 938.242 31.303 L 935.500 34.045 935 170.772 C 934.638 269.760, 934.807 308.328, 935.612 310.500 C 937.855 316.552, 939.593 317.213, 955.711 318.144 C 963.812 318.612, 971.197 318.755, 972.123 318.461 C 973.049 318.167, 974.541 316.380, 975.438 314.489 C 976.922 311.362, 977.067 298.701, 977.039 174.175 C 977.023 98.893, 976.723 35.867, 976.374 34.119 C 975.561 30.053, 971.654 26.951, 967.615 27.165 C 965.902 27.255, 959.209 27.607, 952.742 27.946 M 108.500 126.054 C 104.650 127.619, 99.025 129.392, 96 129.994 C 88.007 131.585, 86.373 132.480, 83.483 136.846 C 81.736 139.486, 79.485 141.307, 76.613 142.404 C 74.263 143.301, 71.054 145.378, 69.483 147.018 C 65.956 150.700, 61.697 151.015, 59.604 147.750 C 58.810 146.512, 57.852 142.946, 57.475 139.825 C 56.356 130.573, 54.872 129.760, 39.847 130.166 C 31.349 130.396, 26.565 130.974, 24.500 132.021 C 21.699 133.441, 21.505 133.905, 21.577 139.021 C 21.620 142.034, 21.774 181.175, 21.920 226 C 22.205 313.744, 22.069 311.550, 27.477 315.803 C 30.009 317.795, 30.963 317.900, 41.348 317.327 C 53.831 316.638, 57.306 315.151, 59.393 309.601 C 60.252 307.315, 60.419 292.698, 60.027 254 C 59.735 225.125, 59.859 199.341, 60.302 196.703 C 60.745 194.064, 62.434 189.657, 64.054 186.909 C 65.674 184.160, 67 181.516, 67 181.033 C 67 179.071, 72.233 174.124, 75.832 172.684 C 77.943 171.839, 80.982 170.051, 82.585 168.711 C 89.541 162.894, 98.623 160.155, 114.465 159.098 C 123.286 158.510, 123.466 158.446, 125.715 155.102 C 127.616 152.275, 128 150.376, 128 143.795 C 128 134.969, 126.490 127.392, 124.204 124.750 C 122.044 122.254, 116.772 122.691, 108.500 126.054 M 222.912 123.993 C 220.939 124.492, 217.063 125.792, 214.300 126.882 C 211.537 127.971, 206.402 129.358, 202.888 129.964 C 199.375 130.570, 195.198 131.326, 193.608 131.644 C 192.017 131.961, 188.867 133.894, 186.608 135.938 C 184.348 137.982, 179.791 141.277, 176.480 143.260 C 172.402 145.702, 168.935 148.904, 165.736 153.183 C 163.139 156.657, 159.681 161.226, 158.053 163.335 C 156.425 165.444, 154.407 169.529, 153.568 172.413 C 152.730 175.296, 150.914 179.321, 149.534 181.355 C 148.153 183.390, 146.312 186.430, 145.443 188.110 C 141.896 194.969, 141.033 247.389, 144.267 259.567 C 145.007 262.355, 146.999 266.405, 148.694 268.567 C 150.389 270.730, 152.766 275.544, 153.975 279.265 C 155.643 284.399, 156.998 286.659, 159.591 288.637 C 161.471 290.071, 163.960 292.937, 165.123 295.004 C 166.285 297.072, 169.025 299.770, 171.211 300.998 C 173.397 302.227, 176.607 304.752, 178.343 306.610 C 180.814 309.253, 183.373 310.522, 190.123 312.452 C 194.866 313.808, 200.266 315.804, 202.123 316.887 C 208.044 320.340, 217.038 321.269, 244.004 321.212 C 270.727 321.155, 274.779 320.682, 289.614 315.890 C 293.267 314.710, 297.646 312.501, 299.346 310.982 C 302.362 308.287, 302.442 307.984, 302.657 298.503 C 302.861 289.438, 302.715 288.624, 300.483 286.392 C 297.185 283.094, 294.686 283.367, 285.246 288.057 C 275.934 292.685, 267.935 293.956, 248 293.976 C 232.828 293.992, 225.498 292.726, 220.500 289.227 C 218.300 287.686, 213.575 285.370, 210 284.080 C 201.856 281.140, 200.896 280.463, 196.290 274.420 C 194.227 271.714, 191.351 268.496, 189.899 267.270 C 188.447 266.043, 186.241 262.318, 184.997 258.992 C 182.177 251.451, 182.523 240.467, 185.717 236.159 C 189.459 231.110, 190.273 231.048, 251.424 231.150 C 305.941 231.241, 308.408 231.166, 309.773 229.372 C 310.947 227.831, 311.082 224.216, 310.539 208.949 C 309.808 188.381, 309.106 183.864, 306.058 180.077 C 303.299 176.651, 302.119 173.853, 299.924 165.530 C 298.409 159.785, 297.331 157.846, 293.793 154.502 C 291.432 152.270, 288.752 149.026, 287.837 147.293 C 286.923 145.560, 284.673 143.369, 282.837 142.425 C 281.002 141.481, 277.700 138.802, 275.500 136.470 C 271.839 132.591, 270.865 132.131, 264 131.036 C 259.875 130.379, 252.274 128.513, 247.109 126.890 C 236.689 123.617, 228.343 122.617, 222.912 123.993 M 785.250 129.989 C 783.462 131.079, 781.983 132.765, 781.963 133.735 C 781.943 134.706, 781.959 174.816, 781.999 222.869 C 782.078 318.205, 781.875 314.861, 787.720 317.084 C 789.163 317.632, 796.564 318.243, 804.165 318.440 C 820.301 318.859, 821.960 318.189, 823.904 310.467 C 824.738 307.157, 825.020 282.021, 824.921 220.028 C 824.790 137.944, 824.701 134.038, 822.906 131.087 L 821.029 128 804.765 128.004 C 790.315 128.007, 788.137 128.229, 785.250 129.989 M 565.465 130.952 C 561.895 132.399, 561.271 134.272, 560.744 145.122 C 560.124 157.907, 560.494 160.221, 563.667 163.394 L 566.110 165.837 609.805 166.202 L 653.500 166.568 664.500 170.399 C 679.159 175.503, 682.345 177.232, 689.981 184.224 C 696.649 190.329, 702.463 198.506, 706.751 207.805 C 709.495 213.756, 710.714 225.129, 709.581 234.199 C 708.174 245.455, 693.481 265.852, 683.500 270.405 C 681.300 271.408, 677.471 273.505, 674.990 275.065 C 665.579 280.982, 662.971 281.257, 611.697 281.749 C 565.801 282.189, 564.856 282.238, 562.947 284.287 C 561.058 286.315, 561 288.360, 561.004 352.939 C 561.007 416.466, 561.094 419.641, 562.899 422.602 C 565.232 426.428, 567.960 426.974, 584.800 426.989 C 598.693 427.001, 601.932 425.991, 603.999 421.003 C 604.964 418.674, 605.282 408.365, 605.289 379.195 C 605.298 345.165, 605.099 340.093, 603.649 337.289 C 602.742 335.535, 602 332.247, 602 329.984 C 602 319.926, 604.827 319.067, 639.500 318.581 C 654.350 318.374, 668.750 317.718, 671.500 317.125 C 691.756 312.757, 701.403 310.074, 703.811 308.139 C 705.290 306.950, 708.729 304.745, 711.454 303.239 C 714.178 301.733, 718.453 298.454, 720.954 295.954 C 723.454 293.454, 726.426 290.754, 727.558 289.954 C 728.690 289.154, 731.004 286.475, 732.702 284 C 734.399 281.525, 736.945 278.424, 738.359 277.109 C 739.914 275.662, 741.992 271.513, 743.618 266.609 C 745.096 262.149, 747.629 255.963, 749.247 252.862 C 751.735 248.092, 752.330 245.441, 753.114 235.634 C 754.472 218.638, 753.078 206.182, 748.712 196.309 C 746.813 192.014, 744.489 186.025, 743.548 183 C 742.607 179.975, 740.589 176.150, 739.063 174.500 C 737.538 172.850, 734.915 169.475, 733.235 167 C 729.462 161.443, 723.088 155.337, 716.500 150.967 C 713.750 149.143, 710.272 146.641, 708.770 145.407 C 707.269 144.173, 702.319 141.986, 697.770 140.547 C 693.222 139.108, 686.575 136.624, 683 135.026 C 677.920 132.756, 673.988 131.890, 665 131.064 C 651.583 129.831, 568.463 129.737, 565.465 130.952 M 221.232 152.550 C 212.470 154.909, 197 164.134, 197 167 C 197 167.507, 194.932 170.461, 192.405 173.563 C 184.772 182.935, 182.253 191.072, 185.071 197.257 C 187.395 202.357, 188.203 202.477, 222.500 202.824 C 240.100 203.003, 256.939 202.848, 259.920 202.481 C 267.130 201.593, 271 197.964, 271 192.091 C 271 185.478, 268.751 179.002, 264.931 174.614 C 262.961 172.351, 260.317 168.638, 259.054 166.363 C 257.228 163.072, 255.061 161.296, 248.459 157.678 C 243.662 155.050, 237.728 152.681, 234.396 152.065 C 227.485 150.788, 227.823 150.775, 221.232 152.550" stroke="none" fill="#ffffff" fill-rule="evenodd"/>
</svg>