<svg xmlns="http://www.w3.org/2000/svg" width="1000" height="133" viewBox="0 0 1000 133" version="1.1">
	<path d="M 202.200 12.200 C 201.297 13.103, 201 26.551, 201 66.578 C 201 123.259, 200.955 122.732, 205.702 121.819 C 207.363 121.500, 207.520 119.670, 207.768 97.737 L 208.036 74 218.843 74 L 229.649 74 248.078 97.750 C 263.393 117.488, 266.928 121.500, 269.003 121.500 C 270.928 121.500, 271.561 120.928, 271.768 119 C 271.973 117.083, 268.207 111.599, 255.633 95.500 C 242.608 78.824, 239.567 74.366, 240.865 73.848 C 241.764 73.490, 244.570 72.466, 247.099 71.573 C 256.671 68.195, 264.969 57.233, 266.545 45.887 C 268.479 31.963, 258.389 16.569, 244.655 12.490 C 238.186 10.569, 204.064 10.336, 202.200 12.200 M 208.449 19.272 C 208.181 19.971, 208.082 30.884, 208.231 43.522 L 208.500 66.500 222 66.816 C 229.447 66.990, 237.790 66.636, 240.607 66.026 C 256.068 62.679, 264.095 45.131, 256.526 31.225 C 253.192 25.099, 248.593 21.284, 242.239 19.372 C 236.087 17.520, 209.152 17.440, 208.449 19.272 M 308.390 20.427 C 307.168 23.611, 308.443 26.493, 311.215 26.813 C 313.421 27.067, 314.052 26.643, 314.577 24.550 C 315.332 21.541, 313.624 19, 310.846 19 C 309.796 19, 308.691 19.642, 308.390 20.427 M 309.724 45.134 C 308.140 46.021, 308 49.138, 308 83.581 C 308 117.360, 308.162 121.125, 309.636 121.691 C 310.536 122.036, 311.998 121.860, 312.886 121.300 C 314.316 120.399, 314.530 116.057, 314.762 83.183 C 315.008 48.420, 314.912 46.023, 313.236 45.126 C 312.096 44.516, 310.824 44.519, 309.724 45.134 M 479.650 45.028 C 472.108 46.326, 464.641 50.518, 459.131 56.548 C 444.224 72.857, 446.143 100.333, 463.142 113.994 C 474.803 123.365, 492.416 124.455, 504.869 116.578 C 511.052 112.667, 517.170 105.308, 516.812 102.214 C 516.274 97.560, 513.312 98.251, 507.935 104.283 C 501.264 111.768, 495.600 114.372, 486 114.368 C 477.014 114.364, 472.883 112.777, 466.471 106.866 C 461.264 102.066, 457.376 95.203, 456.397 89.083 L 455.744 85 487.801 85 C 526.763 85, 525.291 85.582, 521.025 71.855 C 515.165 52.999, 498 41.869, 479.650 45.028 M 355.029 45.961 C 352.992 47.249, 353.906 50.051, 364.999 76.500 C 370.074 88.600, 376.329 103.675, 378.900 110 C 382.999 120.087, 383.863 121.500, 385.928 121.500 C 388.780 121.500, 388.684 121.663, 395.409 105.500 C 418.905 49.036, 418.982 48.835, 417.949 46.905 C 416.888 44.923, 415.248 44.507, 413.450 45.765 C 412.872 46.169, 406.684 60.188, 399.698 76.918 C 392.712 93.648, 386.772 107.561, 386.498 107.835 C 385.769 108.565, 385.884 108.808, 378.994 92 C 360.384 46.601, 359.656 44.991, 357.724 45.015 C 357.051 45.024, 355.838 45.449, 355.029 45.961 M 555.456 46.254 C 555.191 46.944, 555.093 64.150, 555.237 84.491 C 555.487 119.610, 555.594 121.491, 557.356 121.830 C 561.040 122.539, 561.486 120.460, 562 100.175 L 562.500 80.444 565.800 73.748 C 569.674 65.887, 577.486 56.946, 582.602 54.519 C 584.590 53.575, 588.257 52.510, 590.750 52.152 C 595.576 51.458, 597.745 49.385, 596.645 46.517 C 596.083 45.052, 595.019 44.831, 590.221 45.178 C 580.884 45.853, 572.418 51.121, 564.795 61 L 562.094 64.500 562.047 55.950 C 562.018 50.693, 561.538 46.938, 560.800 46.200 C 559.230 44.630, 556.067 44.661, 555.456 46.254 M 475.748 53.427 C 468.536 56, 461.699 62.690, 458.531 70.272 C 455.542 77.425, 453.804 77, 486.067 77 L 515.135 77 514.475 74.750 C 510.399 60.856, 499.269 51.984, 486 52.054 C 482.425 52.072, 477.812 52.690, 475.748 53.427" stroke="none" fill="#ffffff" fill-rule="evenodd"/>
</svg>