<svg xmlns="http://www.w3.org/2000/svg" width="1000" height="132" viewBox="0 0 1000 132" version="1.1">
	<path d="M 202.635 12.510 C 201.667 15.031, 201.908 119.307, 202.885 120.848 C 203.355 121.590, 204.586 122.034, 205.620 121.836 C 207.379 121.498, 207.532 119.965, 208 97.987 L 208.500 74.500 219.396 74.215 C 229.725 73.944, 230.386 74.048, 232.090 76.215 C 236.968 82.418, 244.230 91.758, 251 100.535 C 264.680 118.271, 268.096 122.128, 269.834 121.797 C 272.643 121.262, 272.321 117.319, 269.097 112.776 C 267.428 110.424, 263.011 104.599, 259.281 99.831 C 242.990 79.004, 239.969 74.858, 240.481 74.031 C 240.779 73.549, 242.480 72.850, 244.261 72.479 C 252.117 70.842, 259.188 64.822, 263.619 56 C 265.951 51.356, 266.379 49.255, 266.369 42.500 C 266.360 35.722, 265.920 33.613, 263.490 28.696 C 260.196 22.030, 254.768 16.710, 248.122 13.637 C 243.979 11.721, 241.417 11.467, 223.385 11.178 C 205.411 10.890, 203.202 11.032, 202.635 12.510 M 208.449 19.272 C 208.181 19.971, 208.082 30.884, 208.231 43.522 L 208.500 66.500 224.709 66.775 C 239.483 67.025, 241.317 66.861, 245.438 64.924 C 261.799 57.233, 265.315 37.497, 252.580 24.837 C 246.745 19.037, 242.560 18, 224.980 18 C 212.923 18, 208.816 18.316, 208.449 19.272 M 309.667 19.667 C 308.305 21.028, 309.017 25.793, 310.678 26.430 C 313.177 27.389, 315.385 24.669, 314.611 21.585 C 313.995 19.130, 311.263 18.070, 309.667 19.667 M 309 82.965 C 309 116.050, 309.199 121.139, 310.513 121.643 C 311.345 121.963, 312.700 121.664, 313.525 120.979 C 314.817 119.907, 314.988 114.602, 314.762 82.618 L 314.500 45.500 311.750 45.184 L 309 44.867 309 82.965 M 356.250 45.662 C 354.322 46.440, 354.760 50.415, 357.413 56.220 C 358.740 59.124, 361.251 65.100, 362.994 69.500 C 364.736 73.900, 366.800 78.963, 367.581 80.750 C 368.361 82.537, 369.638 85.463, 370.418 87.250 C 371.198 89.037, 373.705 95.225, 375.989 101 C 382.168 116.622, 385.037 122.140, 386.805 121.796 C 388.831 121.402, 390.703 117.837, 396.410 103.500 C 399.037 96.900, 402.005 89.700, 403.005 87.500 C 404.004 85.300, 406.251 79.900, 407.998 75.500 C 409.745 71.100, 412.191 65.250, 413.433 62.500 C 418.611 51.042, 419.440 48.011, 417.835 46.407 C 415.231 43.803, 413.235 45.937, 409.489 55.329 C 405.935 64.238, 404.918 66.675, 401.699 74 C 400.853 75.925, 398.735 81.100, 396.992 85.500 C 395.248 89.900, 392.896 95.525, 391.765 98 C 390.633 100.475, 389.403 103.625, 389.032 105 C 387.872 109.293, 385.765 107.766, 382.824 100.500 C 381.266 96.650, 379.589 92.600, 379.098 91.500 C 376.671 86.069, 374.966 82.015, 373 77 C 371.814 73.975, 370.204 70.037, 369.422 68.250 C 368.640 66.463, 367.362 63.538, 366.582 61.750 C 365.802 59.962, 364.372 56.475, 363.404 54 C 361.414 48.914, 359.080 44.961, 358.135 45.079 C 357.786 45.122, 356.938 45.385, 356.250 45.662 M 476 46.189 C 460.888 52.561, 452.936 61.943, 450.098 76.750 C 447.078 92.501, 455.995 110.844, 470.004 117.700 C 479.833 122.511, 487.249 123.115, 497.085 119.908 C 505.161 117.274, 511.259 112.843, 515.847 106.276 C 517.654 103.690, 517.884 102.653, 517.014 101.026 C 516.418 99.912, 515.484 99, 514.940 99 C 514.396 99, 511.374 101.609, 508.225 104.799 C 500.994 112.122, 496.446 114.309, 487.395 114.810 C 481.174 115.155, 479.577 114.854, 474.550 112.393 C 467.351 108.868, 460.765 101.660, 458.006 94.286 C 454.070 83.765, 451.687 84.539, 488.950 84.236 C 513.373 84.037, 521.597 83.666, 522.198 82.736 C 523.487 80.741, 521.955 72.966, 518.999 66.500 C 514.270 56.152, 507.848 50.257, 497 46.305 C 492.815 44.780, 479.516 44.707, 476 46.189 M 556.200 46.200 C 555.311 47.089, 555 56.773, 555 83.578 C 555 115.366, 555.192 119.915, 556.584 121.070 C 557.732 122.023, 558.625 122.096, 559.834 121.334 C 561.277 120.425, 561.536 117.751, 561.766 101.392 C 561.997 84.996, 562.294 81.940, 564.016 78.261 C 565.107 75.929, 566 73.767, 566 73.456 C 566 71.989, 574.238 60.998, 577.455 58.173 C 581.677 54.467, 587.094 52, 591.011 52 C 592.533 52, 594.826 51.152, 596.107 50.115 C 598.103 48.498, 598.244 47.999, 597.095 46.615 C 596.288 45.643, 594.230 45, 591.925 45 C 588.351 45, 586.328 45.568, 580 48.347 C 575.984 50.111, 568.279 56.812, 565.968 60.551 C 564.796 62.448, 563.424 64, 562.918 64 C 562.413 64, 562 60.265, 562 55.700 C 562 47.670, 561.127 45, 558.500 45 C 557.895 45, 556.860 45.540, 556.200 46.200 M 481 51.903 C 469.459 54.312, 458.423 65.025, 457.722 74.500 L 457.500 77.500 485.775 77.766 C 517.536 78.064, 516.423 78.340, 513.927 70.778 C 512.187 65.505, 504.175 56.770, 498.751 54.231 C 493.763 51.897, 485.942 50.871, 481 51.903" stroke="none" fill="#ffffff" fill-rule="evenodd"/>
</svg>