<svg xmlns="http://www.w3.org/2000/svg" width="1000" height="133" viewBox="0 0 1000 133" version="1.1">
	<path d="M 203.250 11.617 C 202.272 12.047, 202 24.016, 202 66.615 C 202 116.101, 202.149 121.120, 203.636 121.691 C 204.536 122.036, 205.998 121.860, 206.886 121.301 C 208.282 120.421, 208.536 117.159, 208.769 97.108 L 209.037 73.933 219.746 74.216 L 230.455 74.500 243.271 91 C 250.319 100.075, 258.586 110.788, 261.642 114.807 C 267.372 122.343, 269.987 123.589, 272.305 119.889 C 273.411 118.123, 273.011 117.504, 260.436 101.500 C 248.448 86.243, 240 75.139, 240 74.637 C 240 74.374, 241.463 73.858, 243.250 73.491 C 248.313 72.449, 256.153 67.267, 259.985 62.427 C 272.802 46.241, 266.981 22.311, 248.122 13.652 C 243.983 11.752, 241.462 11.506, 224 11.298 C 213.275 11.171, 203.938 11.314, 203.250 11.617 M 209 42.383 L 209 67 225.351 67 C 240.802 67, 241.957 66.865, 246.330 64.539 C 252.439 61.291, 256.566 56.605, 258.596 50.613 C 261.679 41.511, 258.778 30.364, 251.794 24.474 C 245.781 19.405, 242.719 18.682, 225.250 18.207 L 209 17.765 209 42.383 M 309.040 20.452 C 306.600 23.392, 309.827 28.048, 313.364 26.691 C 316.430 25.514, 314.786 19, 311.422 19 C 310.775 19, 309.703 19.653, 309.040 20.452 M 309.238 46.162 C 308.300 47.100, 308 56.151, 308 83.578 C 308 122.005, 308.086 122.708, 312.702 121.819 C 314.395 121.493, 314.500 119.255, 314.500 83.486 C 314.500 46.189, 314.464 45.495, 312.488 45.212 C 311.382 45.053, 309.919 45.481, 309.238 46.162 M 355.569 46.573 C 354.706 47.437, 354 48.225, 354 48.326 C 354 48.427, 356.517 54.582, 359.594 62.005 C 364.853 74.691, 368.356 83.190, 377.733 106 C 383.559 120.172, 384.295 121.468, 386.719 121.814 C 389.126 122.158, 388.660 123.010, 396.475 104 C 398.850 98.225, 404.889 83.713, 409.896 71.751 C 414.903 59.789, 419 49.343, 419 48.536 C 419 46.677, 415.777 44.902, 414.187 45.885 C 413.524 46.294, 411.131 51.100, 408.870 56.565 C 395.921 87.863, 395.526 88.811, 392.037 97 C 390.279 101.125, 388.595 105.306, 388.293 106.291 C 387.102 110.186, 385.165 106.963, 378.502 90 C 377.746 88.075, 375.795 83.350, 374.166 79.500 C 367.275 63.217, 364.786 57.208, 362.876 52.246 C 360.538 46.174, 357.966 44.177, 355.569 46.573 M 473.634 47.201 C 469.207 48.743, 466.250 50.747, 461.580 55.372 C 454.895 61.992, 452.897 65.459, 450.529 74.550 C 448.163 83.633, 448.890 90.811, 453.207 101 C 455.641 106.746, 464.497 115.614, 470.810 118.628 C 478.825 122.454, 490.225 123.052, 498.153 120.062 C 511.006 115.213, 522.211 101.937, 515.593 99.397 C 514.684 99.048, 511.775 101.242, 507.820 105.257 C 500.701 112.484, 495.160 115, 486.359 115 C 473.070 115, 460.049 104.607, 457.546 92 C 457.163 90.075, 456.629 87.713, 456.358 86.750 C 455.896 85.110, 457.851 85, 487.498 85 C 508.634 85, 519.815 84.634, 521.191 83.898 C 523.021 82.918, 523.180 82.185, 522.610 77.338 C 521.917 71.441, 517.736 62.217, 513.446 57.118 C 504.406 46.375, 487.848 42.250, 473.634 47.201 M 556.200 46.200 C 554.779 47.621, 554.473 118.620, 555.878 120.837 C 556.345 121.573, 557.800 122.023, 559.113 121.837 L 561.500 121.500 562 101.477 L 562.500 81.453 566.486 73.713 C 570.333 66.242, 576.536 58.661, 581.419 55.461 C 582.711 54.614, 586.605 53.343, 590.073 52.636 C 596.921 51.239, 599.256 49.219, 597.070 46.584 C 594.344 43.300, 583.309 45.628, 575.216 51.196 C 572.860 52.817, 569.276 56.361, 567.253 59.071 C 565.229 61.782, 563.219 64, 562.787 64 C 562.354 64, 562 60.265, 562 55.700 C 562 47.670, 561.127 45, 558.500 45 C 557.895 45, 556.860 45.540, 556.200 46.200 M 476.860 53.507 C 470.796 55.453, 462.828 62.697, 459.578 69.219 C 454.884 78.640, 452.962 78, 485.941 78 C 501.859 78, 515.087 77.662, 515.337 77.250 C 515.587 76.838, 514.876 74.053, 513.756 71.063 C 511.416 64.813, 504.607 57.436, 498.535 54.572 C 493.315 52.110, 482.822 51.595, 476.860 53.507" stroke="none" fill="#ffffff" fill-rule="evenodd"/>
</svg>