<svg xmlns="http://www.w3.org/2000/svg" width="1000" height="1000" viewBox="0 0 1000 1000" version="1.1">
	<path d="M 566.528 300.483 C 532.284 306.485, 509.936 326.594, 503.306 357.370 C 502.462 361.291, 501.485 370.575, 501.135 378 L 500.500 391.500 484.750 391.775 L 469 392.051 469 404.075 C 469 422.255, 470.388 423.840, 489.500 427.479 L 500.500 429.573 500.756 514.481 C 500.956 580.884, 501.283 599.561, 502.256 600.179 C 502.940 600.614, 516.164 600.976, 531.643 600.985 C 556.704 600.998, 559.854 600.822, 560.409 599.376 C 560.752 598.482, 561.010 560.120, 560.982 514.126 L 560.931 430.500 586.716 430 L 612.500 429.500 612.772 410.766 L 613.044 392.033 586.272 391.766 L 559.500 391.500 559.574 377.500 C 559.644 364.115, 559.780 363.213, 562.663 356.965 C 566.169 349.370, 571.907 343.903, 578.867 341.527 C 581.415 340.657, 588.870 339.505, 595.433 338.967 C 607.446 337.983, 610.963 336.829, 612.854 333.250 C 613.363 332.288, 613.941 324.975, 614.140 317 L 614.500 302.500 608.500 301.182 C 599.510 299.207, 576.036 298.816, 566.528 300.483 M 150 316.961 C 127.428 319.812, 105.878 330.113, 90.959 345.180 C 75.230 361.066, 68.052 380.417, 69.329 403.494 C 70.045 416.432, 71.819 423.830, 76.581 433.734 C 83.322 447.753, 94.831 458.711, 110.500 466.032 C 120.523 470.714, 131.299 474.379, 155.741 481.417 C 184.112 489.586, 195.058 495.857, 201.269 507.500 C 203.029 510.799, 203.396 513.165, 203.362 521 C 203.324 529.508, 202.997 531.178, 200.223 537 C 196.505 544.804, 195.858 545.622, 189.685 550.319 C 182.120 556.075, 172.913 558.470, 158.500 558.432 C 139.780 558.383, 127.499 554.291, 106.679 541.167 C 94.846 533.708, 90.163 532.384, 83.563 534.633 C 78.552 536.341, 77.811 537.177, 64.644 555.996 C 60.990 561.219, 58 566.014, 58 566.653 C 58 569.489, 72.706 579.871, 86.552 586.809 C 128.254 607.705, 176.566 609.598, 212.500 591.743 C 234.517 580.803, 249.176 564.293, 256.629 542.042 C 263.857 520.464, 263.398 498.637, 255.350 481.229 C 245.888 460.762, 227.664 448.440, 188.337 435.919 C 160.495 427.055, 154.676 424.958, 146.159 420.726 C 136.088 415.721, 128.993 408.617, 127.018 401.563 C 123.302 388.292, 131.177 371.938, 144.358 365.549 C 155.206 360.291, 176.835 359.593, 191 364.042 C 195.125 365.338, 203.987 369.189, 210.693 372.601 C 225.461 380.115, 229.361 380.986, 235.252 378.084 C 239.025 376.226, 240.501 374.300, 248.449 360.861 L 257.398 345.729 254.449 343.278 C 241.473 332.493, 220.560 323.200, 199.738 318.966 C 188.304 316.641, 161.184 315.548, 150 316.961 M 369 386.690 C 336.520 388.212, 305.290 399.397, 283.567 417.288 L 280.634 419.703 286.254 428.602 C 295.584 443.375, 300.403 446.643, 311.543 445.749 C 316.750 445.331, 320.523 444.045, 330.761 439.200 C 350.228 429.989, 352.154 429.500, 369 429.500 C 382.013 429.500, 384.013 429.736, 388.500 431.799 C 397.213 435.806, 402.610 442.144, 405.578 451.852 C 407.618 458.525, 408.470 477.377, 406.793 478.717 C 406.082 479.284, 399.650 480.060, 392.500 480.439 C 347.135 482.849, 315.151 491.279, 292.175 506.881 C 270.691 521.470, 263.777 548.737, 275.499 572.640 C 285.481 592.994, 307.772 604.001, 339 603.995 C 363.103 603.991, 381.520 598.027, 402.831 583.325 C 407.963 579.784, 412.629 577.043, 413.199 577.233 C 413.769 577.423, 415.527 581.119, 417.104 585.445 C 422.195 599.409, 423.913 600.314, 446.275 600.822 C 458.518 601.100, 463.449 600.872, 464.525 599.979 C 466.688 598.184, 466.707 468.270, 464.547 453.942 C 458.645 414.789, 431.191 390.612, 388.500 386.971 C 382.450 386.455, 377.050 386.112, 376.500 386.209 C 375.950 386.306, 372.575 386.522, 369 386.690 M 690.500 388.474 C 679.742 390.189, 671.863 392.346, 662.941 396.019 C 632.868 408.398, 613.078 430.469, 603.329 462.500 C 600.717 471.082, 600.589 472.475, 600.585 492.500 C 600.581 510.792, 600.863 514.629, 602.772 522.253 C 605.751 534.148, 609.806 544.272, 615.565 554.190 C 621.985 565.246, 637.381 580.643, 648.569 587.195 C 672.925 601.458, 703.757 606.802, 737.038 602.528 C 765.724 598.844, 789.853 588.969, 806.154 574.241 C 809.698 571.040, 811.106 567.639, 809.220 566.833 C 808.791 566.650, 804.735 562.182, 800.207 556.904 C 795.678 551.627, 790.833 546.789, 789.440 546.154 C 784.061 543.704, 778.452 544.737, 766.097 550.455 C 744.039 560.663, 731.854 563.644, 716.063 562.696 C 698.220 561.624, 687.019 557.156, 676.890 547.070 C 669.988 540.197, 666.113 533.746, 662.963 523.885 C 660.584 516.437, 658.713 506.190, 659.404 504.389 C 659.852 503.222, 671.424 503, 731.904 503 C 775.307 503, 804.869 502.620, 806.387 502.043 C 811.274 500.185, 812.498 495.921, 812.423 481 C 812.309 457.942, 807.932 442.705, 796.695 426.244 C 779.313 400.781, 748.845 386.870, 711 387.116 C 704.125 387.161, 694.900 387.772, 690.500 388.474 M 698.063 426.555 C 685.432 429.294, 674.297 437.366, 667.919 448.408 C 664.454 454.405, 659.682 469.082, 660.825 470.225 C 661.262 470.662, 683.642 470.902, 710.560 470.760 L 759.500 470.500 759.215 466.500 C 757.755 446.014, 745.949 431.608, 726.458 426.531 C 719.291 424.664, 706.734 424.675, 698.063 426.555 M 845.667 503.667 C 845.300 504.033, 845 525.858, 845 552.167 L 845 600 893.500 600 L 942 600 942 551.500 L 942 503 894.167 503 C 867.858 503, 846.033 503.300, 845.667 503.667 M 387.500 513.099 C 351.699 516.564, 332.275 524.547, 327.981 537.559 C 326.160 543.075, 327.218 552.831, 330.120 557.284 C 338.068 569.483, 366.712 571.244, 387.429 560.807 C 392.636 558.184, 402.829 550.939, 405.776 547.767 C 407.977 545.396, 408.042 544.784, 407.776 528.908 L 407.500 512.500 402 512.364 C 398.975 512.289, 392.450 512.620, 387.500 513.099 M 595.590 637.477 C 588.371 640.445, 582.544 645.849, 579.390 652.500 C 576.253 659.117, 576.035 671.582, 578.938 678.355 C 582.673 687.069, 591.691 693.668, 603.252 696.147 C 614.766 698.617, 634.299 694.664, 635.558 689.610 C 635.847 688.449, 635.952 682.775, 635.792 677 L 635.500 666.500 624.732 666.216 C 613.041 665.908, 612.114 666.335, 613.398 671.448 C 613.925 673.548, 614.677 673.934, 618.755 674.195 L 623.500 674.500 623.803 679.779 C 624.106 685.042, 624.095 685.062, 620.303 686.648 C 615.854 688.510, 605.757 687.969, 601.278 685.630 C 597.359 683.583, 593.371 679.135, 591.553 674.782 C 589.746 670.456, 589.638 661.916, 591.332 657.247 C 595.306 646.291, 610.063 641.338, 622.377 646.826 C 628.544 649.575, 630.131 649.554, 632.826 646.686 C 635.791 643.530, 635.559 641.761, 631.896 639.598 C 623.139 634.425, 605.518 633.396, 595.590 637.477 M 647 665.391 L 647 696 653.467 696 L 659.934 696 660.217 684.750 L 660.500 673.500 664.477 673.500 C 668.400 673.500, 668.538 673.630, 674.640 683 C 684.006 697.384, 682.461 696.157, 690.761 695.806 L 698.022 695.500 689.511 683.184 C 684.830 676.410, 681 670.478, 681 670.001 C 681 669.525, 681.865 668.860, 682.922 668.525 C 683.979 668.189, 686.406 666.186, 688.315 664.073 C 696.716 654.774, 692.568 640.764, 680.277 636.931 C 678.200 636.283, 669.862 635.534, 661.750 635.267 L 647 634.782 647 665.391 M 723.994 635.890 C 710.287 640.302, 702 651.430, 702 665.423 C 702 683.261, 713.304 695.345, 731.261 696.703 C 740.675 697.415, 747.456 695.833, 754.295 691.329 C 763.198 685.467, 767.224 677.450, 767.293 665.454 C 767.362 653.335, 761.142 643.217, 750.395 637.964 C 746.450 636.036, 743.657 635.524, 736 635.327 C 730.775 635.193, 725.372 635.446, 723.994 635.890 M 776.710 635.623 C 775.582 636.751, 775.887 672.375, 777.072 677.900 C 778.630 685.164, 783.016 690.648, 789.819 693.837 C 794.803 696.173, 796.726 696.497, 805.500 696.473 C 816.171 696.445, 818.685 695.660, 824.924 690.411 C 826.664 688.946, 829.080 685.893, 830.294 683.624 C 832.377 679.730, 832.500 678.272, 832.500 657.500 L 832.500 635.500 826.500 635.500 L 820.500 635.500 820 656.680 C 819.542 676.083, 819.326 678.097, 817.429 680.680 C 812.932 686.803, 802.664 688.922, 796.299 685.040 C 790.199 681.322, 789.555 678.758, 789 656 L 788.500 635.500 782.960 635.206 C 779.913 635.045, 777.101 635.232, 776.710 635.623 M 845.750 635.561 C 845.337 635.986, 845 649.758, 845 666.167 L 845 696 851.465 696 L 857.930 696 858.215 685.750 L 858.500 675.500 868.042 674.876 C 884.764 673.784, 892 667.797, 892 655.057 C 892 646.119, 887.702 640.153, 879 637.013 C 875.065 635.594, 846.913 634.364, 845.750 635.561 M 902.099 636.381 C 901.248 637.407, 900.955 645.530, 901.048 665.550 C 901.119 680.811, 901.410 693.905, 901.695 694.649 C 902.108 695.723, 906.400 696, 922.607 696 L 943 696 943 692.019 C 943 687.134, 942.830 687.079, 926.500 686.745 L 914.500 686.500 914.243 680.500 C 913.779 669.693, 913.450 670, 925.500 670 C 935.742 670, 935.975 669.949, 936.571 667.572 C 936.906 666.237, 936.889 664.227, 936.533 663.105 C 935.943 661.246, 934.946 661.042, 925.193 660.783 L 914.500 660.500 914.576 653.167 C 914.629 648.078, 915.074 645.572, 916.031 644.981 C 916.790 644.512, 923.056 644.170, 929.955 644.221 L 942.500 644.315 942.500 639.907 L 942.500 635.500 922.890 635.229 C 906.913 635.009, 903.061 635.222, 902.099 636.381 M 660.667 644.667 C 659.601 645.732, 659.898 662.498, 661.002 663.602 C 662.568 665.168, 674.720 663.564, 677.013 661.489 C 681.687 657.258, 680.278 648.309, 674.507 645.570 C 671.209 644.005, 661.934 643.400, 660.667 644.667 M 729.733 645.091 C 724.500 646.320, 721.234 648.680, 718.188 653.432 C 715.948 656.927, 715.575 658.626, 715.541 665.500 C 715.505 672.458, 715.856 674.106, 718.236 678.154 C 724.990 689.643, 743.274 690.099, 750.644 678.962 C 755.546 671.554, 754.968 657.681, 749.485 651.165 C 745.112 645.967, 736.836 643.422, 729.733 645.091 M 858.480 645.192 C 858.172 645.994, 858.051 650.891, 858.210 656.075 L 858.500 665.500 863.500 665.824 C 870.616 666.285, 875.665 664.548, 877.494 661.011 C 879.897 656.365, 879.416 651.497, 876.199 647.896 C 873.672 645.068, 872.695 644.711, 866.218 644.248 C 860.510 643.839, 858.925 644.033, 858.480 645.192" stroke="none" fill="#ffffff" fill-rule="evenodd"/>
</svg>