<svg xmlns="http://www.w3.org/2000/svg" width="1000" height="1000" viewBox="0 0 1000 1000" version="1.1">
	<path d="M 563.808 300.974 C 552.339 303.392, 548.936 304.550, 540 309.075 C 525.280 316.528, 515.112 326.982, 508.352 341.614 C 503.736 351.606, 501.944 360.534, 501.153 377.500 L 500.500 391.500 484.750 391.775 L 469 392.051 469.015 404.275 C 469.037 422.355, 470.260 423.812, 488.562 427.544 C 495.128 428.883, 500.610 429.984, 500.744 429.989 C 500.879 429.995, 501.104 468.362, 501.244 515.250 L 501.500 600.500 531 600.500 L 560.500 600.500 560.756 515.250 L 561.011 430 587.006 430 L 613 430 613 411.016 L 613 392.033 586.250 391.766 L 559.500 391.500 559.575 378 C 559.639 366.406, 559.973 363.670, 561.945 358.619 C 567.006 345.660, 575.922 340.340, 594.810 339.011 C 601.240 338.559, 607.707 337.638, 609.182 336.965 C 613.271 335.099, 614.180 331.463, 614.347 316.310 L 614.500 302.505 607 300.848 C 596.439 298.515, 575.173 298.577, 563.808 300.974 M 148.083 317.118 C 139.175 318.315, 123.757 323.108, 115.500 327.248 C 91.263 339.398, 75.242 359.299, 70.381 383.292 C 68.589 392.133, 68.924 411.025, 71.030 420 C 72.817 427.612, 80.517 442.134, 86.019 448.268 C 98.626 462.325, 112.809 469.263, 151.656 480.374 C 175.093 487.078, 185.958 491.621, 192.736 497.550 C 199.255 503.253, 201.764 507.357, 203.079 514.468 C 205.223 526.069, 201.124 539.798, 193.336 547.095 C 184.408 555.461, 175.335 558.340, 158 558.309 C 140.193 558.277, 128.531 554.423, 107.565 541.643 C 94.624 533.754, 90.725 532.459, 84.750 534.065 C 79.346 535.518, 75.752 539.348, 65.272 554.818 L 57.044 566.964 63.175 572.066 C 86.411 591.403, 123.653 604, 157.587 604 C 208.887 604, 247.615 577.996, 258.746 536.078 C 262.350 522.506, 262.542 503.116, 259.189 491.500 C 251.085 463.430, 231.734 448.817, 183 433.964 C 146.526 422.849, 134.645 416.623, 128.679 405.500 C 125.409 399.403, 125.718 388.377, 129.371 380.774 C 133.195 372.816, 140.287 366.814, 149.391 363.830 C 155.369 361.871, 158.568 361.502, 169.500 361.511 C 185.326 361.523, 191.515 363.190, 210.034 372.424 C 216.927 375.862, 223.777 378.978, 225.254 379.349 C 229.132 380.322, 235.935 378.520, 238.657 375.798 C 242.069 372.385, 257.137 346.798, 256.583 345.356 C 255.736 343.149, 241.688 333.930, 232.418 329.498 C 223.285 325.132, 207.643 320.123, 196.500 317.996 C 188.392 316.449, 157.265 315.884, 148.083 317.118 M 360 387.122 C 331.844 390.359, 308.994 398.685, 289.500 412.810 C 285.098 416, 281.551 419.299, 281.613 420.145 C 281.763 422.200, 292.011 437.796, 295.449 441.201 C 299.161 444.879, 304.028 446.295, 311.349 445.828 C 316.309 445.511, 320.018 444.253, 330.500 439.331 C 350.533 429.924, 352.194 429.500, 369 429.500 C 381.702 429.500, 384.073 429.765, 388.122 431.637 C 394.359 434.521, 400.427 440.185, 403.022 445.545 C 405.646 450.966, 407.918 463.221, 407.965 472.205 L 408 478.909 404.750 479.395 C 402.962 479.661, 394.075 480.360, 385 480.946 C 363.620 482.328, 350.481 484.316, 334.763 488.548 C 311.846 494.719, 296.839 501.975, 285.262 512.483 C 280.451 516.851, 278.060 520.092, 274.805 526.662 C 270.926 534.489, 270.551 535.943, 270.171 544.634 C 269.660 556.327, 271.188 564.451, 275.500 572.955 C 285.940 593.547, 306.902 603.951, 338 603.975 C 364.414 603.996, 382.326 598.154, 404.244 582.372 L 412.988 576.076 414.358 578.788 C 415.112 580.280, 416.515 583.904, 417.475 586.841 C 419.776 593.878, 423.871 598.429, 429.236 599.909 C 431.926 600.651, 439.405 600.977, 449.500 600.793 L 465.500 600.500 465.500 528.500 C 465.500 449.606, 465.467 449.090, 459.565 434.453 C 445.304 399.086, 408.424 381.554, 360 387.122 M 689.770 388.553 C 679.002 390.229, 674.331 391.430, 666 394.662 C 623.795 411.035, 599.765 446.293, 599.659 492 C 599.585 523.874, 609.023 550.131, 627.682 569.961 C 641.309 584.442, 655.824 593.101, 676.296 598.958 C 689.493 602.734, 699.175 604.001, 714.822 603.997 C 748.990 603.990, 778.436 595.418, 800.288 579.120 C 803.154 576.981, 806.742 573.913, 808.260 572.300 L 811.021 569.369 801.610 558.434 C 796.434 552.420, 791.219 546.911, 790.021 546.192 C 785.228 543.315, 778.954 544.471, 764.851 550.827 C 747.197 558.784, 737.145 561.812, 725.766 562.597 C 699.592 564.404, 679.108 554.914, 668.262 535.958 C 664.899 530.081, 660.488 516.158, 659.407 508.013 L 658.742 503 732.236 503 C 804.460 503, 805.775 502.965, 808.298 500.980 C 811.996 498.071, 813.404 490.179, 812.678 476.433 C 811.240 449.232, 802.836 429.597, 785.638 413.261 C 771.079 399.431, 752.937 391.272, 729.500 388.013 C 719.787 386.662, 700.204 386.928, 689.770 388.553 M 699.634 426.154 C 687.707 428.436, 675.659 436.624, 669.032 446.950 C 666.275 451.246, 662.412 461.050, 660.639 468.250 L 659.962 471 709.481 471 L 759 471 759 466.710 C 759 451.843, 749.758 436.962, 736.280 430.130 C 726.860 425.354, 712.158 423.759, 699.634 426.154 M 845.240 551.512 L 845.500 600.023 894 600.262 L 942.500 600.500 942.760 551.750 L 943.019 503 894 503 L 844.981 503 845.240 551.512 M 388.500 513.113 C 374.138 514.432, 355.825 518.042, 347.796 521.139 C 333.380 526.698, 327.063 533.964, 327.050 545 C 327.033 560.029, 337.467 567.589, 358 567.424 C 374.520 567.291, 388.751 561.946, 402.045 550.883 L 408.048 545.887 407.774 529.194 L 407.500 512.500 402 512.439 C 398.975 512.406, 392.900 512.709, 388.500 513.113 M 597.533 636.610 C 573.368 644.282, 568.590 676.808, 589.575 690.779 C 597.010 695.728, 603.568 697.293, 614.887 696.819 C 622.613 696.495, 625.629 695.895, 630.250 693.763 L 636 691.111 636 678.555 L 636 666 624.500 666 L 613 666 613 669.441 C 613 673.323, 613.627 673.954, 617.661 674.134 C 623.572 674.398, 624 674.796, 624 680.032 C 624 685.812, 622.703 686.866, 614.551 687.707 C 600.675 689.139, 589.965 679.566, 590.022 665.782 C 590.058 657.054, 595.244 648.735, 602.315 646.064 C 607.008 644.290, 617.966 644.802, 622.859 647.022 C 628.936 649.779, 631.110 649.522, 633.763 645.733 C 635.905 642.673, 635.932 642.427, 634.263 641.137 C 633.293 640.388, 630.475 638.834, 628 637.684 C 621.976 634.884, 604.868 634.281, 597.533 636.610 M 646.983 635.366 C 646.974 635.715, 646.967 648.375, 646.967 663.500 C 646.967 678.625, 646.974 692.242, 646.983 693.760 C 647 696.478, 647.095 696.519, 653.250 696.510 L 659.500 696.500 660 685 L 660.500 673.500 664.187 673.193 C 667.873 672.887, 667.879 672.893, 675.442 684.443 C 679.989 691.389, 683.705 696.055, 684.754 696.139 C 690.444 696.591, 698 696.448, 698 695.888 C 698 695.068, 690.045 683.317, 684.524 675.983 L 680.371 670.466 684.708 667.640 C 691.882 662.966, 694.641 654.585, 691.615 646.662 C 689.852 642.046, 686.611 639.116, 681 637.066 C 677.390 635.747, 647.013 634.229, 646.983 635.366 M 722.293 636.393 C 713.626 639.216, 705.310 647.625, 703.015 655.887 C 701.325 661.972, 701.798 672.385, 704.037 678.369 C 706.298 684.412, 711.973 690.349, 719.151 694.179 C 722.943 696.203, 724.909 696.500, 734.500 696.500 C 744.647 696.500, 745.918 696.280, 750.884 693.665 C 761.539 688.055, 767.382 678.462, 767.430 666.500 C 767.468 657.020, 764.980 650.192, 759.394 644.444 C 752.921 637.784, 747.513 635.674, 736 635.318 C 729.901 635.129, 724.994 635.514, 722.293 636.393 M 776.167 657.331 L 776.500 679.663 779.522 684.548 C 785.259 693.822, 793.667 697.531, 807.328 696.814 C 816.408 696.337, 821.776 694.045, 827.211 688.325 C 832.241 683.032, 833 678.775, 833 655.874 L 833 635 826.500 635 L 820 635 819.994 654.250 C 819.991 664.837, 819.528 675.159, 818.965 677.186 C 815.858 688.374, 797.573 690.242, 791.548 679.986 C 789.697 676.835, 789.468 674.505, 789.163 655.750 L 788.825 635 782.329 635 L 775.834 635 776.167 657.331 M 845.235 665.476 L 845.500 696.216 851.719 696.358 L 857.939 696.500 858.219 686 L 858.500 675.500 868 674.922 C 884.715 673.905, 892 667.828, 892 654.903 C 892 646.214, 888.426 640.779, 880.486 637.397 C 877.517 636.133, 872.479 635.576, 860.735 635.217 L 844.971 634.735 845.235 665.476 M 901.667 635.667 C 900.894 636.439, 900.746 693.174, 901.511 695.168 C 901.917 696.226, 906.183 696.457, 922.261 696.293 L 942.500 696.086 942.500 691.793 L 942.500 687.500 928.750 687.222 L 915 686.944 915 678.472 L 915 670 926 670 L 937 670 937 665.500 L 937 661 926 661 L 915 661 915 653 L 915 645 929 645 L 943 645 943 640 L 943 635 922.667 635 C 911.483 635, 902.033 635.300, 901.667 635.667 M 660.667 644.667 C 660.300 645.033, 660 649.533, 660 654.667 L 660 664 666.050 664 C 673.034 664, 677.109 662.252, 678.805 658.528 C 682.502 650.414, 676.390 644.023, 664.917 644.006 C 662.946 644.003, 661.033 644.300, 660.667 644.667 M 858.480 645.192 C 858.172 645.994, 858.051 650.891, 858.210 656.075 L 858.500 665.500 865.793 665.434 C 872.343 665.375, 873.362 665.092, 875.793 662.661 C 878.007 660.447, 878.500 659.052, 878.500 655 C 878.500 650.974, 878.003 649.549, 875.851 647.396 C 873.626 645.171, 872.070 644.666, 866.121 644.241 C 860.503 643.839, 858.924 644.035, 858.480 645.192 M 724.238 647.518 C 716.609 652.189, 713.359 662.844, 716.386 673.257 C 719.881 685.278, 732.824 690.341, 744.689 684.328 C 747.449 682.929, 749.258 680.914, 751.250 677.019 C 756.356 667.035, 754.214 654.316, 746.428 648.377 C 743.267 645.966, 741.584 645.475, 735.593 645.215 C 729.393 644.947, 727.963 645.237, 724.238 647.518" stroke="none" fill="#ffffff" fill-rule="evenodd"/>
</svg>