<svg xmlns="http://www.w3.org/2000/svg" width="1000" height="1000" viewBox="0 0 1000 1000" version="1.1">
	<path d="M 563.144 301.106 C 537.615 306.465, 519.441 319.387, 509.675 339.123 C 503.893 350.807, 502.160 358.582, 501.231 377 L 500.500 391.500 484.750 391.775 L 469 392.051 469.015 404.275 C 469.024 412.108, 469.483 417.397, 470.292 418.996 C 472.274 422.912, 478.713 425.773, 490.051 427.774 L 500.500 429.617 500.756 515.324 L 501.011 601.030 530.756 600.765 L 560.500 600.500 560.756 515.250 L 561.011 430 587.006 430 L 613 430 613 411.016 L 613 392.033 586.250 391.766 L 559.500 391.500 559.566 378 C 559.627 365.581, 559.856 363.958, 562.428 357.737 C 567.635 345.138, 576.339 340.302, 596.285 338.928 C 607.246 338.172, 610.908 336.918, 612.862 333.250 C 613.375 332.288, 613.953 324.977, 614.147 317.004 L 614.500 302.508 607 300.850 C 596.158 298.453, 575.201 298.575, 563.144 301.106 M 148.083 317.186 C 132.095 319.187, 111.531 327.753, 98.826 337.703 C 86.215 347.580, 75.383 363.699, 71.409 378.500 C 70.523 381.800, 69.570 389.225, 69.292 395 C 68.057 420.594, 76.353 441.174, 93.661 455.451 C 105.437 465.164, 118.798 470.906, 151.502 480.309 C 180.083 488.527, 188.302 492.265, 195.884 500.490 C 202.922 508.126, 204.919 515.630, 203.032 527.354 C 201.078 539.489, 195.035 547.968, 184.500 553.354 C 177.174 557.100, 170.889 558.268, 158 558.279 C 140.119 558.294, 127.970 554.329, 108.312 542.063 C 94.967 533.736, 91.072 532.365, 85.226 533.939 C 79.386 535.512, 77.325 537.624, 66.627 553 L 57.234 566.500 59.817 569.263 C 66.036 575.918, 83.964 586.602, 98.640 592.401 C 148.947 612.279, 203.055 606.022, 234.607 576.679 C 265.493 547.954, 271.135 495.483, 246.380 467.185 C 234.061 453.102, 217.787 444.729, 180 433.031 C 157.030 425.921, 149.493 423.031, 141.863 418.408 C 129.619 410.989, 124.676 401.307, 126.919 389.134 C 128.354 381.346, 129.956 378.087, 135.087 372.521 C 144.041 362.808, 163.789 358.661, 183.162 362.426 C 192.591 364.259, 202.215 367.914, 213.500 373.949 C 218.450 376.596, 223.925 379.068, 225.666 379.442 C 229.875 380.346, 236.113 378.573, 238.805 375.707 C 241.117 373.246, 257 347.185, 257 345.853 C 257 344.664, 247.332 337.626, 240.080 333.537 C 214.744 319.249, 180.389 313.143, 148.083 317.186 M 358 387.488 C 339.321 389.567, 321.784 394.537, 307.258 401.870 C 300.511 405.276, 283.933 416.171, 282.055 418.434 C 281.005 419.699, 281.883 421.645, 287.372 430.225 C 295.993 443.697, 298.596 445.500, 309.427 445.500 C 317.245 445.500, 317.910 445.305, 330.500 439.336 C 350.231 429.981, 352.113 429.500, 369 429.500 C 382.864 429.500, 383.751 429.623, 389.214 432.306 C 401.225 438.204, 406.702 448.714, 407.708 467.793 L 408.292 478.855 404.896 479.390 C 403.028 479.684, 396.550 480.193, 390.500 480.521 C 346.080 482.927, 310.920 492.561, 291 507.785 C 282.927 513.955, 281.047 515.992, 276.600 523.392 C 271.820 531.346, 270 538.185, 270 548.194 C 270 577.289, 289.088 597.752, 321.065 602.941 C 329.003 604.229, 346.056 604.256, 355.758 602.996 C 373.461 600.696, 392.219 592.205, 409.264 578.775 L 413.028 575.810 414.865 580.155 C 415.875 582.545, 417.466 586.598, 418.400 589.163 C 422.128 599.397, 427.372 601.300, 450.500 600.815 L 465.500 600.500 465.500 528.500 C 465.500 450.230, 465.451 449.420, 459.840 435.166 C 449.972 410.093, 428.112 393.037, 399.436 388.037 C 389.787 386.354, 370.485 386.099, 358 387.488 M 695 387.694 C 657.969 391.656, 626.308 412.609, 610.679 443.500 C 602.650 459.370, 598.210 480.664, 599.390 497.647 C 601.620 529.727, 610.523 552.056, 628.654 571.033 C 649.562 592.918, 678.693 604.037, 714.974 603.983 C 747.411 603.934, 774.501 596.526, 796.696 581.634 C 800.480 579.095, 805.239 575.315, 807.271 573.235 L 810.965 569.451 802.052 558.976 C 797.149 553.214, 791.869 547.715, 790.319 546.755 C 784.977 543.449, 779.113 544.401, 764.642 550.923 C 742.535 560.885, 737.004 562.296, 720 562.308 C 706.644 562.318, 704.869 562.096, 697.500 559.502 C 677.547 552.477, 667.291 540.547, 661.497 517.622 C 660.123 512.189, 659 506.676, 659 505.372 L 659 503 732.545 503 L 806.091 503 808.476 500.615 C 812.237 496.854, 813.309 490.987, 812.699 477.500 C 812.051 463.155, 810.087 453.404, 805.660 442.551 C 791.199 407.098, 755.949 386.582, 710.500 387.166 C 703.900 387.251, 696.925 387.489, 695 387.694 M 702.500 425.649 C 685.197 429.252, 674.947 436.209, 667.680 449.281 C 664.221 455.504, 659.690 469.357, 660.763 470.430 C 661.077 470.744, 683.308 471, 710.167 471 L 759 471 759 466.710 C 759 451.894, 749.665 436.857, 736.281 430.116 C 728.106 425.998, 711.418 423.791, 702.500 425.649 M 845.240 551.520 L 845.500 600.040 894 600.270 L 942.500 600.500 942.760 551.750 L 943.019 503 894 503 L 844.981 503 845.240 551.520 M 394.500 512.666 C 367.968 514.134, 343.612 520.486, 334.328 528.357 C 325.529 535.818, 324.504 551.603, 332.290 559.752 C 337.538 565.246, 344.719 567.425, 357.500 567.404 C 373.812 567.377, 385.530 563.355, 399.480 552.995 C 408.459 546.326, 408.087 547.409, 407.775 528.893 L 407.500 512.500 404 512.417 C 402.075 512.371, 397.800 512.483, 394.500 512.666 M 597.936 636.546 C 578.496 642.536, 570.177 665.133, 581.129 682.201 C 587.635 692.339, 599.501 697.493, 614.756 696.804 C 621.051 696.519, 625.180 695.720, 629.500 693.951 L 635.500 691.492 635.780 678.746 L 636.060 666 624.470 666 L 612.879 666 613.190 669.750 L 613.500 673.500 618.750 673.802 L 624 674.105 624 679.517 C 624 685.856, 622.863 686.851, 614.664 687.691 C 600.626 689.129, 590.077 679.820, 590.022 665.946 C 589.990 657.741, 593.580 651.091, 599.899 647.651 C 606.252 644.194, 615.743 643.973, 623.043 647.114 C 628.966 649.662, 631.904 649.125, 634.308 645.056 L 636.096 642.029 632.798 639.999 C 624.830 635.093, 608.045 633.431, 597.936 636.546 M 647 665.606 L 647 696.500 653.500 696.500 L 660 696.500 660 684.750 L 660 673 663.969 673 C 667.928 673, 667.957 673.029, 675.383 684.418 L 682.828 695.836 690.416 696.168 C 694.590 696.351, 698.004 696.199, 698.002 695.830 C 697.998 694.512, 682.582 672.777, 681.304 672.286 C 679.096 671.439, 679.841 670.169, 683.589 668.391 C 691.511 664.632, 695.042 653.851, 691.052 645.608 C 689.281 641.949, 687.814 640.567, 683.418 638.416 C 678.441 635.981, 676.656 635.710, 662.488 635.233 L 647 634.713 647 665.606 M 722.293 636.393 C 713.396 639.291, 705.238 647.704, 702.888 656.405 C 702.279 658.657, 701.971 664.141, 702.203 668.592 C 702.540 675.050, 703.160 677.597, 705.274 681.205 C 711.134 691.204, 719.927 696.143, 733 696.779 C 740.047 697.121, 742.517 696.808, 747.449 694.949 C 754.945 692.124, 762.031 685.612, 765.117 678.714 C 768.361 671.462, 768.355 659.582, 765.104 652.666 C 762.205 646.498, 756.089 640.379, 750.149 637.705 C 744.269 635.058, 728.652 634.322, 722.293 636.393 M 776.174 657.250 C 776.487 677.725, 776.686 679.819, 778.660 683.500 C 783.353 692.249, 792.305 696.975, 804.212 696.990 C 814.598 697.003, 821.636 694.357, 826.792 688.499 C 832.424 682.101, 833 679.050, 833 655.634 L 833 635 826.500 635 L 820 635 819.994 654.250 C 819.991 664.837, 819.516 675.203, 818.938 677.285 C 815.769 688.697, 797.714 690.410, 791.500 679.887 C 789.706 676.850, 789.467 674.359, 789.178 655.750 L 788.855 635 782.344 635 L 775.834 635 776.174 657.250 M 845.750 635.555 C 844.986 636.348, 844.658 695.322, 845.413 696.083 C 845.641 696.313, 848.551 696.348, 851.879 696.163 L 857.932 695.826 858.216 685.663 L 858.500 675.500 867.500 674.901 C 884.629 673.761, 892 667.774, 892 655 C 892 646.210, 888.452 640.786, 880.486 637.402 C 877.557 636.157, 872.522 635.584, 861.500 635.242 C 853.250 634.986, 846.163 635.126, 845.750 635.555 M 901.614 635.816 C 901.323 636.287, 901.178 649.909, 901.292 666.086 L 901.500 695.500 922.308 695.770 L 943.117 696.041 942.808 691.770 L 942.500 687.500 928.500 687 L 914.500 686.500 914.702 679 C 914.813 674.875, 914.925 671.163, 914.952 670.750 C 914.978 670.337, 919.950 670, 926 670 L 937 670 937 665.533 L 937 661.066 925.893 660.783 L 914.786 660.500 914.786 653 L 914.785 645.500 928.643 645 L 942.500 644.500 942.500 640 L 942.500 635.500 922.322 635.230 C 911.224 635.081, 901.905 635.345, 901.614 635.816 M 660.667 644.667 C 660.300 645.033, 660 649.533, 660 654.667 L 660 664 666.050 664 C 674.128 664, 677.583 662.123, 679.154 656.882 C 680.694 651.741, 679.107 648.328, 673.980 645.752 C 670.578 644.042, 661.991 643.342, 660.667 644.667 M 858.480 645.192 C 858.172 645.994, 858.051 650.891, 858.210 656.075 L 858.500 665.500 865.728 665.500 C 872.295 665.500, 873.210 665.246, 875.728 662.727 C 878.011 660.444, 878.500 659.081, 878.500 655 C 878.500 650.974, 878.003 649.549, 875.851 647.396 C 873.626 645.171, 872.070 644.666, 866.121 644.241 C 860.503 643.839, 858.924 644.035, 858.480 645.192 M 724.503 647.242 C 718.498 650.725, 715.522 656.773, 715.510 665.521 C 715.490 679.544, 723.015 687.490, 735.633 686.770 C 747.852 686.073, 753.482 679.362, 753.476 665.500 C 753.472 656.230, 751.966 652.601, 746.344 648.313 C 743.272 645.970, 741.549 645.475, 735.593 645.223 C 729.649 644.972, 727.853 645.299, 724.503 647.242" stroke="none" fill="#ffffff" fill-rule="evenodd"/>
</svg>