<svg xmlns="http://www.w3.org/2000/svg" width="1000" height="960" viewBox="0 0 1000 960" version="1.1">
	<path d="M 0 480.001 L 0 960.002 500.250 959.751 L 1000.500 959.500 1000.751 479.750 L 1001.002 0 500.501 0 L 0 0 0 480.001 M 0.496 480.500 C 0.496 744.500, 0.610 852.351, 0.750 720.168 C 0.890 587.986, 0.890 371.986, 0.750 240.168 C 0.610 108.351, 0.496 216.500, 0.496 480.500 M 462 189.025 C 450.863 189.727, 446.200 190.417, 418.500 195.458 C 411.350 196.759, 401.675 198.341, 397 198.975 C 384.111 200.720, 370.433 203.725, 366.780 205.614 C 364.983 206.543, 361.259 209, 358.506 211.072 C 355.753 213.144, 349.900 216.476, 345.500 218.476 C 330.750 225.179, 328.897 226.389, 322.546 233.460 C 319.069 237.332, 314.387 241.850, 312.144 243.500 C 308.696 246.035, 306.528 249.522, 298.152 266 C 291.879 278.342, 287.790 287.676, 287.013 291.428 C 285.271 299.831, 285.185 326.895, 286.872 335.500 C 288.098 341.754, 293.064 352.962, 296.397 357 C 297.078 357.825, 298.955 361.642, 300.568 365.482 C 302.853 370.924, 305.064 374.013, 310.587 379.482 C 314.485 383.342, 319.320 388.568, 321.331 391.095 C 324.144 394.630, 327.124 396.733, 334.244 400.206 C 339.335 402.689, 345.750 406.480, 348.500 408.630 C 358.794 416.680, 363.310 418.553, 380.687 421.984 C 391.035 424.026, 406.391 428.453, 408.500 430.001 C 410.108 431.182, 418.980 433.889, 426.521 435.499 C 434.052 437.108, 453.670 439.012, 488.500 441.515 C 500.600 442.385, 511.625 443.364, 513 443.690 C 516.727 444.575, 523.324 448.070, 524.715 449.896 C 526.755 452.575, 526.200 454.963, 521.250 464.780 C 517.553 472.113, 515.391 475.100, 511.500 478.249 C 508.750 480.475, 502.675 486.167, 498 490.898 C 482.912 506.167, 473.791 514.205, 469.298 516.193 C 457.142 521.569, 432.637 518.669, 405.906 508.689 C 400.733 506.757, 390.650 503.996, 383.500 502.552 C 366.408 499.100, 362.932 497.870, 354.904 492.435 C 338.724 481.480, 327.962 481.239, 319.440 491.638 C 317.434 494.087, 313.426 497.839, 310.534 499.975 C 307.642 502.111, 303.217 506.745, 300.700 510.272 C 297.629 514.576, 294.049 518.042, 289.812 520.814 C 286.340 523.086, 282.710 526.194, 281.744 527.722 C 280.779 529.250, 277.516 534.272, 274.494 538.882 C 271.472 543.493, 269 548.098, 269 549.117 C 269 552.354, 274.225 556.773, 283.500 561.380 C 288.450 563.838, 294.921 567.928, 297.881 570.467 C 305.013 576.587, 306.396 577.212, 321 580.924 C 336.818 584.945, 338.751 585.708, 353.966 593.932 C 373.046 604.247, 373.358 604.449, 375.263 607.710 C 377.814 612.078, 376.318 615.041, 368.783 620.545 C 360.680 626.465, 357.999 629.052, 278.203 707.956 C 241.190 744.555, 203.706 781.496, 194.906 790.048 C 186.105 798.599, 178.030 806.924, 176.959 808.548 C 172.782 814.884, 175.304 820.944, 183.211 823.570 C 187.648 825.044, 194.169 825.256, 236.881 825.316 C 290.534 825.391, 289.802 825.463, 301.580 818.920 C 304.993 817.023, 311.315 811.792, 316.509 806.565 C 321.464 801.579, 327.314 795.882, 329.509 793.905 C 331.704 791.928, 336.232 787.428, 339.571 783.905 C 344.516 778.687, 354.494 768.713, 359.500 763.984 C 361.652 761.951, 391.550 732.941, 392.357 732.103 C 393.160 731.269, 410.191 714.221, 412.083 712.357 C 422.491 702.105, 431.226 693.314, 434 690.301 C 435.925 688.211, 440.132 684.025, 443.350 681 C 448.082 676.551, 485.895 639.593, 492.736 632.731 C 497.453 627.999, 512.588 612.853, 513.231 612.220 C 519.982 605.578, 530.490 595.029, 534 591.370 C 536.475 588.789, 540.709 584.613, 543.409 582.089 C 550.500 575.460, 569.535 556.849, 583.192 543.192 C 587.422 538.961, 591.809 534.600, 592.940 533.500 C 594.072 532.400, 597.874 528.575, 601.391 525 C 604.907 521.425, 610.196 516.229, 613.142 513.453 C 616.089 510.677, 620.106 506.627, 622.070 504.453 C 624.033 502.279, 628.311 498.025, 631.575 495 C 634.839 491.975, 639.307 487.571, 641.505 485.214 C 647.939 478.311, 668.432 458.710, 671.921 456.121 C 673.684 454.813, 676.860 451.397, 678.978 448.530 C 681.096 445.663, 685.757 441.016, 689.335 438.204 C 692.914 435.392, 697.213 431.098, 698.889 428.662 C 700.564 426.226, 704.855 421.939, 708.422 419.135 C 711.990 416.332, 716.714 411.595, 718.920 408.609 C 721.125 405.623, 724.789 401.902, 727.061 400.340 C 732.709 396.457, 735.969 393.246, 739.455 388.135 C 741.080 385.752, 744.923 381.868, 747.996 379.503 C 751.068 377.139, 755.814 372.573, 758.541 369.358 C 763.829 363.124, 767.747 359.484, 771.949 356.901 C 773.380 356.022, 776.534 352.593, 778.959 349.282 C 781.383 345.970, 785.572 341.756, 788.268 339.916 C 793.084 336.629, 796.143 333.462, 800.896 326.839 C 802.214 325.003, 806.012 321.475, 809.335 319 C 812.659 316.525, 816.791 312.475, 818.518 310 C 820.245 307.525, 824.911 302.858, 828.888 299.629 C 832.865 296.400, 837.889 291.450, 840.053 288.629 C 842.217 285.808, 845.597 282.375, 847.563 281 C 854.255 276.320, 857.070 273.765, 858.436 271.131 C 860.317 267.505, 866.403 261.402, 871.089 258.444 C 873.235 257.089, 876.980 253.247, 879.411 249.906 C 881.842 246.565, 886.565 241.842, 889.906 239.411 C 893.247 236.980, 897.108 233.205, 898.486 231.022 C 899.864 228.839, 903.356 225.257, 906.246 223.061 C 909.136 220.865, 912.794 218.072, 914.377 216.853 C 917.977 214.081, 920.009 209.330, 919.968 203.782 C 919.930 198.602, 918.492 196.521, 913.514 194.441 C 910.263 193.083, 903.476 192.858, 865.117 192.837 C 840.577 192.823, 818.250 192.792, 815.500 192.766 C 811.399 192.728, 808.232 193.801, 797.888 198.730 C 786.996 203.919, 784.861 205.336, 782.233 209.119 C 778.575 214.387, 773.829 218.892, 768.736 221.933 C 766.666 223.169, 762.953 227.010, 760.485 230.469 C 757.956 234.013, 753.650 238.375, 750.621 240.461 C 747.616 242.530, 743.233 246.961, 740.683 250.506 C 738.173 253.994, 733.626 258.690, 730.578 260.942 C 727.530 263.194, 723.222 267.492, 721.005 270.493 C 718.788 273.494, 714.337 277.809, 711.113 280.083 C 707.889 282.356, 702.684 287.359, 699.546 291.201 C 696.408 295.042, 692.535 298.931, 690.940 299.842 C 689.345 300.754, 686.119 303.727, 683.770 306.448 C 681.422 309.170, 676.800 313.962, 673.500 317.098 C 667.627 322.680, 665.158 325.166, 655.959 334.763 C 653.461 337.368, 649.523 340.989, 647.206 342.809 C 644.890 344.628, 641.205 348.754, 639.016 351.976 C 630.889 363.944, 620.831 365.684, 589 360.631 C 563.640 356.604, 552.834 354.452, 541 351.070 C 523.933 346.192, 504.456 343.243, 471 340.472 C 453.675 339.037, 437.250 337.385, 434.500 336.801 C 429.584 335.757, 421.919 332.598, 417 329.588 C 415.625 328.747, 410.643 326.304, 405.928 324.159 C 396.834 320.021, 389 313.630, 389 310.349 C 389 309.271, 390.012 307.040, 391.250 305.393 C 395.190 300.147, 408.347 288.343, 412.729 286.123 C 423.822 280.503, 444.768 278.735, 495 279.178 C 527.099 279.461, 531.934 279.303, 535.096 277.866 C 537.073 276.967, 546.073 268.861, 555.096 259.854 C 564.118 250.847, 573.437 241.962, 575.805 240.111 C 579.525 237.202, 584.752 230.947, 593.750 218.635 C 596.739 214.545, 596.674 209.765, 593.588 206.679 C 590.346 203.437, 578.753 200.415, 562.116 198.476 C 554.757 197.619, 545.758 196.293, 542.118 195.531 C 517.119 190.295, 484.221 187.623, 462 189.025" stroke="none" fill="#ffffff" fill-rule="evenodd"/>
</svg>