<svg xmlns="http://www.w3.org/2000/svg" width="1000" height="755" viewBox="0 0 1000 755" version="1.1">
	<path d="M 47.998 33.934 C 47.997 34.520, 47.996 192.725, 47.996 385.500 C 47.996 578.275, 47.997 736.480, 47.998 737.066 C 47.999 737.653, 49.237 737.990, 50.750 737.816 L 53.500 737.500 53.756 654.403 L 54.011 571.307 69.256 570.623 C 77.640 570.247, 85.850 569.532, 87.500 569.033 C 89.150 568.535, 93.875 567.238, 98 566.151 C 106.109 564.015, 111.625 562.210, 114 560.916 C 114.825 560.466, 117.525 559.083, 120 557.843 C 134.593 550.527, 152.155 532.793, 155.496 522 C 155.921 520.625, 156.884 518.612, 157.635 517.527 C 158.386 516.443, 159 514.585, 159 513.400 C 159 512.214, 159.626 509.727, 160.390 507.872 C 162.261 503.335, 163.254 487.799, 162.108 481 C 161.128 475.186, 158.624 467.685, 156.997 465.691 C 156.463 465.036, 154.536 462.478, 152.717 460.007 C 147.711 453.208, 138.812 446.599, 127.075 440.964 C 121.259 438.171, 115.719 435.462, 114.764 434.943 C 113.809 434.424, 112.452 434, 111.749 434 C 111.046 434, 108.791 433.100, 106.739 432 C 104.686 430.900, 101.907 430, 100.563 430 C 99.218 430, 97.872 429.603, 97.572 429.117 C 97.272 428.631, 93.758 427.196, 89.763 425.929 C 85.768 424.661, 82.073 423.259, 81.550 422.812 C 81.028 422.365, 79.952 422, 79.160 422 C 78.367 422, 75.645 421.032, 73.110 419.849 C 59.877 413.672, 55.432 411.407, 54.765 410.500 C 54.361 409.950, 54.038 390.825, 54.047 368 L 54.063 326.500 56.281 324.907 C 60.627 321.786, 69.921 316.999, 71.696 316.968 C 72.688 316.951, 74.374 316.276, 75.441 315.468 C 76.509 314.661, 78.637 314, 80.171 314 C 81.705 314, 84.881 313.212, 87.230 312.250 C 93.414 309.716, 143.654 309.774, 151.932 312.326 C 154.919 313.247, 159.060 314, 161.134 314 C 163.209 314, 166.060 314.526, 167.470 315.168 C 169.657 316.165, 170.247 316.054, 171.485 314.418 C 173.261 312.071, 173.424 307.824, 171.800 306.200 C 171.140 305.540, 169.452 304.986, 168.050 304.968 C 166.647 304.951, 164.626 304.276, 163.559 303.468 C 162.374 302.572, 159.374 302, 155.858 302 C 152.690 302, 147.506 301.325, 144.339 300.500 C 136.337 298.416, 98.307 298.437, 92.500 300.529 C 90.300 301.321, 86.475 301.991, 84 302.017 C 81.525 302.043, 78.626 302.724, 77.559 303.532 C 76.491 304.339, 74.536 305, 73.213 305 C 71.891 305, 69.614 305.640, 68.154 306.423 C 64.919 308.157, 56.367 312.077, 55.285 312.322 C 54.853 312.420, 54.275 249.725, 54 173 L 53.500 33.500 50.750 33.184 C 49.237 33.010, 47.999 33.347, 47.998 33.934 M 238.405 343.104 C 236.985 344.672, 236.334 347.406, 235.847 353.854 C 235.488 358.609, 234.661 365.562, 234.010 369.303 C 232.472 378.145, 232.863 379, 238.433 379 C 244.007 379, 244.534 378.115, 245.317 367.435 C 245.643 362.999, 246.379 358.132, 246.954 356.620 C 248.650 352.160, 248.299 342.329, 246.418 341.607 C 243.379 340.441, 240.295 341.016, 238.405 343.104 M 360.972 400.359 C 354.390 401.777, 341.240 409.364, 332.452 416.813 C 331.875 417.302, 328.950 419.426, 325.952 421.532 C 322.953 423.639, 319.953 425.843, 319.285 426.431 C 316.127 429.208, 315.024 430.002, 314.292 430.023 C 313.856 430.036, 311.763 431.611, 309.640 433.523 C 307.516 435.435, 305.491 437.002, 305.140 437.005 C 304.122 437.012, 297.700 443.312, 295.412 446.547 C 293.318 449.508, 290.031 463.218, 289.964 469.270 C 289.945 471.047, 289.277 475.200, 288.480 478.500 C 287.683 481.800, 287.024 486.750, 287.016 489.500 C 287.007 492.251, 286.333 497.651, 285.517 501.500 C 283.613 510.490, 283.607 518.635, 285.500 524 C 286.325 526.338, 287 529.531, 287 531.095 C 287 534.180, 289.942 540.624, 293.660 545.683 C 294.947 547.434, 296 549.289, 296 549.806 C 296 550.586, 302.836 557.137, 306.516 559.883 C 312.823 564.590, 325.163 569.717, 333.310 571.016 C 336.165 571.471, 340.300 572.318, 342.500 572.898 C 347.542 574.227, 360.098 574.228, 366 572.901 C 368.475 572.344, 373.200 571.444, 376.500 570.900 C 379.800 570.357, 383.400 569.510, 384.500 569.019 C 385.600 568.528, 387.625 567.819, 389 567.445 C 393.193 566.302, 395 564.013, 395 559.845 C 395 556.257, 394.804 556, 392.059 556 C 390.441 556, 388.856 556.424, 388.536 556.942 C 388.215 557.460, 385.826 558.173, 383.227 558.527 C 380.627 558.880, 377.082 559.806, 375.349 560.584 C 371.027 562.526, 342.632 562.579, 338.941 560.652 C 337.533 559.918, 334.525 559.020, 332.257 558.657 C 326.076 557.669, 316.269 552.139, 310.565 546.427 C 305.047 540.901, 299.464 530.825, 298.415 524.500 C 296.788 514.696, 298.478 480.989, 300.913 474.685 C 301.511 473.137, 302 469.969, 302 467.645 C 302 462.039, 304.664 452.036, 306.795 449.643 C 308.716 447.485, 331.598 430, 332.501 430 C 332.821 430, 334.077 429.071, 335.292 427.936 C 336.506 426.801, 339.838 424.318, 342.697 422.418 C 345.555 420.518, 348.480 418.384, 349.197 417.676 C 350.900 415.993, 355.534 413.445, 360.372 411.531 C 368.804 408.197, 390.392 410.729, 402.546 416.478 C 409.288 419.668, 409.632 419.922, 416.355 426.645 C 423.543 433.832, 425.999 437.737, 428.268 445.583 C 430.782 454.276, 428.813 491.833, 425.127 505.500 C 424.533 507.700, 424.037 512.567, 424.024 516.316 C 424.011 520.064, 423.586 523.906, 423.079 524.852 C 422.573 525.798, 421.673 530.606, 421.081 535.536 C 420.098 543.713, 418.755 553.289, 416.108 571.004 C 415.574 574.581, 414.434 578.856, 413.574 580.504 C 412.715 582.152, 412.008 584.400, 412.002 585.500 C 411.991 587.706, 407.916 596.190, 403.753 602.672 C 401.040 606.897, 390.277 618, 388.895 618 C 388.481 618, 387.514 618.629, 386.745 619.398 C 384.725 621.418, 374.056 626.631, 370.261 627.453 C 368.480 627.838, 366.766 628.569, 366.452 629.077 C 366.139 629.585, 364.221 630.016, 362.191 630.035 C 360.161 630.054, 355.575 630.714, 352 631.500 C 344.002 633.259, 330.348 633.396, 321.100 631.810 C 312.444 630.326, 310.751 631.284, 311.200 637.414 L 311.500 641.500 318 642.133 C 334.395 643.730, 357.813 642.709, 368 639.954 C 372.922 638.623, 387.199 632.941, 388 631.995 C 388.275 631.670, 390.525 630.226, 393 628.787 C 397.575 626.126, 404.676 619.617, 411 612.287 C 414.260 608.509, 416.391 605.146, 419.420 599 C 420.098 597.625, 421.406 595.001, 422.326 593.169 C 423.247 591.337, 424 588.727, 424 587.369 C 424 586.012, 424.668 583.608, 425.485 582.029 C 426.302 580.449, 427.429 575.634, 427.989 571.328 C 428.548 567.023, 429.687 559, 430.518 553.500 C 431.349 548, 432.434 539.675, 432.928 535 C 433.422 530.325, 434.315 525.233, 434.913 523.685 C 435.511 522.137, 436 517.859, 436 514.178 C 436 510.498, 436.490 505.915, 437.089 503.993 C 438.181 500.490, 440.119 486.753, 442.026 469 C 443.404 456.161, 440.936 436.954, 437.389 432.921 C 436.625 432.053, 436 430.796, 436 430.129 C 436 426.003, 414.171 406, 409.669 406 C 408.971 406, 407.972 405.615, 407.450 405.145 C 405.762 403.625, 396.704 401.179, 388.678 400.075 C 378.794 398.717, 368.085 398.826, 360.972 400.359 M 562.721 400.140 C 555.711 401.484, 542.822 409.098, 529.500 419.765 C 528.950 420.205, 526.250 422.232, 523.500 424.268 C 520.750 426.304, 518.028 428.360, 517.452 428.836 C 516.875 429.312, 513.950 431.398, 510.952 433.470 C 504.405 437.994, 496 445.955, 496 447.631 C 496 448.295, 495.362 450.112, 494.582 451.669 C 493.069 454.688, 491.254 466.048, 488.059 492.500 C 487.395 498, 486.209 505.081, 485.425 508.235 C 484.641 511.389, 483.995 516.789, 483.989 520.235 C 483.983 523.681, 483.308 528.709, 482.489 531.409 C 481.670 534.109, 481 538.467, 481 541.094 C 481 543.720, 480.360 548.936, 479.579 552.685 C 478.331 558.670, 477.622 565.906, 477.907 569.750 C 478.014 571.194, 485.712 571.469, 487.864 570.105 C 488.680 569.588, 489.581 566.085, 490.110 561.371 C 490.596 557.042, 491.425 551.475, 491.953 549 C 492.481 546.525, 492.932 542.194, 492.956 539.376 C 492.980 536.557, 493.675 532.338, 494.500 530 C 495.325 527.662, 496 522.727, 496 519.033 C 496 515.340, 496.670 510.109, 497.489 507.409 C 498.308 504.709, 498.974 500.925, 498.968 499 C 498.958 495.520, 500.809 482.245, 503.569 466 C 504.363 461.325, 505.010 456.517, 505.007 455.315 C 504.999 452.862, 515.244 442, 517.565 442 C 518.354 442, 519 441.610, 519 441.133 C 519 440.656, 522.139 438.160, 525.976 435.586 C 529.812 433.012, 533.525 430.333, 534.226 429.634 C 534.927 428.934, 537.975 426.635, 541 424.524 C 544.025 422.413, 546.725 420.419, 547 420.093 C 548.552 418.253, 557.166 413.117, 561.234 411.606 C 564.784 410.287, 567.911 409.959, 573.734 410.295 C 592.622 411.384, 607.448 417.703, 616.848 428.671 C 619.124 431.327, 620.990 434.007, 620.994 434.628 C 620.997 435.248, 621.675 436.315, 622.500 437 C 623.325 437.685, 624.003 438.977, 624.006 439.872 C 624.010 440.768, 624.737 442.850, 625.623 444.500 C 627.743 448.450, 628.537 467.746, 627.021 478.500 C 626.400 482.900, 625.443 490.550, 624.892 495.500 C 624.342 500.450, 623.445 505.938, 622.900 507.697 C 622.355 509.455, 621.496 515.080, 620.991 520.197 C 620.486 525.313, 619.373 534, 618.517 539.500 C 616.345 553.454, 614.846 568.158, 615.439 569.702 C 616.149 571.552, 623.506 571.351, 625.429 569.429 C 626.293 568.564, 627.020 566.877, 627.044 565.679 C 627.102 562.783, 628.525 551.907, 630.535 539 C 631.434 533.225, 632.535 524.450, 632.983 519.500 C 633.431 514.550, 634.255 509.150, 634.816 507.500 C 635.376 505.850, 636.097 500.591, 636.418 495.812 C 636.739 491.034, 637.529 485.859, 638.173 484.312 C 639.753 480.520, 639.939 442.866, 638.388 440.906 C 637.776 440.133, 636.988 438.293, 636.636 436.819 C 635.647 432.673, 629.202 422.437, 624.824 418.059 C 610.231 403.467, 584.338 395.996, 562.721 400.140 M 755.451 400.397 C 748.539 402.076, 734.330 410.702, 723.452 419.823 C 722.875 420.307, 719.950 422.401, 716.952 424.477 C 713.953 426.553, 710.350 429.320, 708.945 430.626 C 707.540 431.932, 705.959 433, 705.431 433 C 703.279 433, 690.999 445.303, 689.182 449.280 C 686.800 454.494, 684.005 468.933, 683.985 476.132 C 683.977 479.084, 683.321 483.300, 682.529 485.500 C 680.390 491.437, 680.366 529.229, 682.500 531 C 683.325 531.685, 684 533.159, 684 534.276 C 684 539.552, 694.682 553.886, 702.907 559.647 C 706.746 562.336, 718.338 568, 720.002 568 C 720.881 568, 722.027 568.408, 722.550 568.906 C 723.072 569.404, 726.425 570.300, 730 570.898 C 733.575 571.496, 738.975 572.488, 742 573.103 C 748.174 574.358, 766.024 573.791, 773 572.118 C 775.475 571.525, 781.100 570.615, 785.500 570.097 C 797.664 568.663, 802.249 567.411, 804.214 564.984 C 806.301 562.407, 806.517 559.673, 804.750 558.211 C 803.467 557.150, 787.859 558.840, 779.500 560.945 C 773.196 562.533, 739.474 562.290, 736.200 560.634 C 734.715 559.882, 731.700 558.941, 729.500 558.543 C 724.075 557.560, 715.489 553.434, 709.824 549.088 C 704.801 545.233, 696.020 532.832, 695.968 529.519 C 695.951 528.408, 695.276 526.626, 694.468 525.559 C 692.337 522.741, 692.362 490.060, 694.500 484 C 695.325 481.662, 696 477.343, 696 474.403 C 696 467.017, 698.952 454.093, 701.437 450.601 C 703.188 448.141, 740.036 419.867, 748.192 414.727 C 755.802 409.930, 768.214 408.641, 778.846 411.543 C 791.157 414.904, 795 416.224, 795 417.093 C 795 417.592, 795.671 418, 796.491 418 C 800.450 418, 812.507 429.817, 816.123 437.241 C 820.912 447.073, 821 447.566, 821 464.534 L 821 481 771.115 481 L 721.230 481 719.615 483.465 C 717.562 486.598, 717.547 489.612, 719.582 490.393 C 721.858 491.267, 827.277 491.114, 828.638 490.235 C 829.263 489.831, 830.501 487.758, 831.388 485.628 C 832.687 482.507, 833 477.894, 833 461.864 C 833 450.924, 832.594 441.191, 832.098 440.236 C 831.601 439.281, 829.820 435.575, 828.139 432 C 826.459 428.425, 823.016 423.150, 820.488 420.278 C 815.635 414.762, 803.527 406, 800.757 406 C 799.856 406, 798.866 405.592, 798.557 405.092 C 797.734 403.761, 788.554 401.215, 780.308 400.032 C 771.087 398.709, 761.841 398.844, 755.451 400.397 M 929.500 400.490 C 921.731 401.714, 916.611 403.030, 912.500 404.860 C 911.400 405.350, 909.375 406.254, 908 406.868 C 904.883 408.261, 902.598 409.695, 897.504 413.456 C 883.329 423.919, 877.345 440.463, 880.516 460.417 C 881.190 464.657, 882.141 466.173, 887.415 471.417 C 894.775 478.734, 906.271 484.714, 917.330 486.977 C 919.437 487.408, 921.665 488.265, 922.280 488.880 C 922.896 489.496, 924.870 490, 926.666 490 C 928.462 490, 931.410 490.620, 933.216 491.378 C 935.022 492.137, 939.200 493.591, 942.500 494.611 C 945.800 495.631, 950.300 497.478, 952.500 498.716 C 954.700 499.954, 957.455 501.391, 958.623 501.910 C 961.513 503.195, 967.315 510.704, 968.792 515.071 C 973.247 528.242, 964.121 547.015, 949.799 554.142 C 943.298 557.377, 939.168 559.001, 937.349 559.035 C 936.332 559.055, 934.375 559.714, 933 560.500 C 929.288 562.622, 886.896 562.620, 880.644 560.497 C 878.210 559.671, 873.357 558.884, 869.859 558.747 L 863.500 558.500 863.500 562.843 C 863.500 566.998, 863.670 567.244, 867.412 568.531 C 869.563 569.270, 874.288 570.163, 877.912 570.515 C 881.535 570.866, 888.037 571.794, 892.360 572.577 C 901.421 574.217, 916.454 574.375, 923 572.897 C 925.475 572.339, 930.425 571.429, 934 570.874 C 937.575 570.320, 940.928 569.447, 941.450 568.933 C 941.973 568.420, 943.085 568, 943.923 568 C 944.761 568, 948.822 566.313, 952.948 564.250 C 961.979 559.736, 971.597 551.013, 974.898 544.345 C 976.217 541.680, 977.672 538.731, 978.131 537.791 C 978.590 536.851, 979.688 532.585, 980.571 528.311 C 983.228 515.445, 980.036 504.801, 971.183 497.011 C 968.608 494.744, 965.787 492.240, 964.916 491.445 C 964.045 490.650, 962.447 490, 961.366 490 C 960.285 490, 958.874 489.474, 958.232 488.832 C 956.976 487.576, 951.067 485.184, 947 484.284 C 945.625 483.980, 944.028 483.362, 943.450 482.910 C 942.873 482.458, 940.398 481.777, 937.950 481.396 C 935.503 481.016, 932.612 480.096, 931.527 479.352 C 930.443 478.609, 927.941 478, 925.969 478 C 923.996 478, 921.509 477.339, 920.441 476.532 C 919.374 475.724, 917.703 475.049, 916.729 475.032 C 910.520 474.920, 893 462.400, 893 458.075 C 893 457.103, 892.263 454.829, 891.361 453.023 C 889.963 450.220, 889.901 449.060, 890.939 445.119 C 891.607 442.579, 892.392 439.053, 892.682 437.285 C 892.973 435.517, 893.838 433.549, 894.605 432.913 C 895.372 432.276, 896 431.172, 896 430.459 C 896 428.112, 906.198 418.965, 911.737 416.345 C 922.046 411.468, 926.548 410.627, 944.500 410.224 C 957.448 409.934, 963.659 410.242, 970.557 411.517 C 981.893 413.611, 984.168 413.333, 985.441 409.697 C 987.483 403.870, 985.340 402.906, 965 400.499 C 950.301 398.760, 940.507 398.757, 929.500 400.490 M 233.106 400.850 C 230.161 401.699, 228.318 407.760, 227.435 419.500 C 227.104 423.900, 226.381 428.850, 225.829 430.500 C 225.276 432.150, 224.434 437.550, 223.956 442.500 C 223.479 447.450, 222.384 456, 221.524 461.500 C 220.664 467, 219.516 475.641, 218.973 480.703 C 218.431 485.764, 217.566 491.010, 217.053 492.361 C 216.539 493.712, 215.829 498.795, 215.475 503.658 C 215.120 508.521, 214.400 513.912, 213.874 515.638 C 213.349 517.363, 212.520 522.988, 212.032 528.138 C 211.543 533.287, 210.614 540.616, 209.967 544.425 C 208.321 554.103, 209.023 562.820, 211.759 566.661 C 217.969 575.382, 240.570 576.430, 242.684 568.095 C 243.559 564.647, 241.769 562.446, 238.359 562.778 C 232.540 563.345, 224.867 561.867, 222.777 559.777 C 220.879 557.879, 220.768 556.950, 221.360 547.922 C 221.713 542.534, 222.451 536.943, 223.001 535.498 C 223.550 534.052, 224 530.271, 224 527.094 C 224 523.917, 224.670 519.109, 225.489 516.409 C 226.308 513.709, 227.010 509.250, 227.049 506.500 C 227.088 503.750, 227.571 499.250, 228.123 496.500 C 229.064 491.812, 230.288 483.204, 232.887 463 C 233.488 458.325, 234.434 452.928, 234.990 451.007 C 235.545 449.085, 236.011 445.035, 236.024 442.007 C 236.037 438.978, 236.531 434.700, 237.121 432.500 C 237.712 430.300, 238.607 424, 239.112 418.500 C 239.617 413, 240.479 407.178, 241.028 405.563 C 241.577 403.948, 241.683 402.292, 241.263 401.884 C 240.008 400.663, 235.665 400.113, 233.106 400.850 M 54.243 493.250 L 54.500 559.500 67.500 559.212 C 86.312 558.796, 96.477 556.804, 107.331 551.407 C 108.888 550.633, 110.768 550, 111.510 550 C 112.251 550, 113.459 549.438, 114.194 548.750 C 114.929 548.063, 117.215 546.639, 119.274 545.588 C 127.688 541.290, 141.806 525.605, 143.563 518.603 C 143.911 517.216, 144.827 515.558, 145.598 514.919 C 146.369 514.279, 147 512.515, 147 511 C 147 509.484, 147.675 506.629, 148.500 504.654 C 150.717 499.348, 150.427 487.904, 147.884 480.377 C 145.278 472.663, 138.381 463.835, 130.971 458.732 C 124.741 454.441, 106.277 445.016, 104.007 444.968 C 103.178 444.951, 101.626 444.276, 100.559 443.468 C 99.491 442.661, 97.669 442, 96.509 442 C 95.349 442, 93.973 441.621, 93.450 441.159 C 92.928 440.696, 89.350 439.292, 85.500 438.038 C 81.650 436.784, 78.050 435.424, 77.500 435.017 C 76.950 434.609, 75.150 433.973, 73.500 433.603 C 70.648 432.964, 66.731 431.337, 60.846 428.348 C 59.386 427.607, 57.245 427, 56.089 427 L 53.986 427 54.243 493.250" stroke="none" fill="#ffffff" fill-rule="evenodd"/>
</svg>