<svg xmlns="http://www.w3.org/2000/svg" width="1000" height="1000" viewBox="0 0 1000 1000" version="1.1">
	<path d="M 443.314 312.924 C 441.561 314.007, 439.635 315.814, 439.032 316.940 C 438.253 318.396, 438.028 348.350, 438.251 420.743 L 438.566 522.500 441.793 534 C 443.568 540.325, 445.948 549.325, 447.083 554 C 448.656 560.484, 450.308 564.234, 454.051 569.811 C 456.749 573.833, 459.497 578.928, 460.158 581.134 C 460.878 583.537, 463.292 587.087, 466.180 589.990 C 468.831 592.655, 471 595.293, 471 595.853 C 471 597.595, 488.203 614.299, 494.212 618.390 C 499.659 622.100, 500.035 622.207, 502.323 620.708 C 504.875 619.036, 507.279 611.982, 506.268 609.132 C 505.950 608.235, 500.632 602.550, 494.451 596.500 C 488.269 590.450, 482.654 584.375, 481.973 583 C 481.291 581.625, 478.535 577.509, 475.848 573.853 C 473.161 570.197, 470.062 564.572, 468.961 561.353 C 467.860 558.134, 465.437 552.575, 463.577 549 C 457.241 536.819, 457.625 544.052, 457.039 425.823 C 456.501 317.417, 456.495 317.138, 454.401 314.323 C 451.779 310.796, 447.609 310.271, 443.314 312.924 M 650.500 339.562 C 648.850 340.415, 645.475 343.065, 643 345.453 C 640.525 347.840, 636.621 350.732, 634.326 351.878 C 632.030 353.025, 628.449 355.523, 626.369 357.428 C 623.588 359.976, 619.930 361.731, 612.544 364.062 C 607.020 365.806, 601.150 368.047, 599.500 369.043 C 597.849 370.040, 593.349 371.745, 589.500 372.832 C 580.922 375.256, 575.705 377.445, 574.208 379.250 C 572.168 381.707, 569.956 392.049, 571.037 394.069 C 573.949 399.510, 594.640 399.162, 604.500 393.507 C 606.700 392.246, 612.550 389.986, 617.500 388.485 C 628.268 385.221, 630.873 383.981, 637.776 378.832 C 641.802 375.829, 643.763 373.391, 646.054 368.542 C 647.935 364.561, 650.809 360.619, 653.751 357.986 C 660.260 352.160, 663 348.154, 663 344.461 C 663 338.566, 656.989 336.210, 650.500 339.562 M 96.500 402.458 C 93.200 403.152, 87.125 405.304, 83 407.239 C 78.875 409.174, 73.788 411.361, 71.696 412.099 C 69.604 412.837, 66.679 414.774, 65.196 416.403 C 63.713 418.033, 60.358 421.490, 57.739 424.086 C 52.241 429.538, 50.787 432.578, 48.592 443.208 C 46.482 453.425, 46.584 459.041, 49.043 467.912 C 51.437 476.553, 52.387 478.095, 57.421 481.511 C 59.490 482.915, 62.285 485.374, 63.633 486.976 C 64.980 488.577, 68.474 490.782, 71.396 491.875 C 78.755 494.628, 104.547 499, 113.432 499 C 126.773 499, 148.726 504.215, 153.975 508.632 C 157.087 511.251, 161.025 521.286, 160.964 526.444 C 160.905 531.534, 158.332 540.726, 156.081 543.887 C 152.453 548.982, 144.897 554.956, 140.606 556.122 C 138.348 556.736, 134.475 557.834, 132 558.562 C 123.253 561.137, 112.474 562.188, 106.303 561.068 C 96.153 559.226, 84.307 555.816, 80.340 553.593 C 78.228 552.410, 74.925 549.216, 73 546.496 C 67.722 539.039, 61.743 533.224, 58.520 532.416 C 53.925 531.262, 50.570 533.719, 50.171 538.531 C 49.648 544.840, 51.574 549.288, 57.500 555.456 C 60.525 558.604, 63 561.527, 63 561.951 C 63 562.374, 65.813 564.213, 69.250 566.036 C 72.688 567.859, 77.102 570.628, 79.059 572.189 C 85.004 576.931, 94.115 578.258, 117 577.718 C 138.728 577.205, 144.066 576.122, 150.608 570.901 C 152.749 569.193, 157.022 566.518, 160.104 564.957 C 164.184 562.890, 166.073 561.238, 167.050 558.879 C 167.788 557.098, 169.849 553.731, 171.630 551.397 C 177.687 543.463, 180.022 536.131, 179.976 525.201 C 179.937 516.267, 178.301 511.196, 173.208 504.221 C 167.929 496.992, 155.308 487.830, 147.153 485.306 C 144.234 484.402, 134.303 483.522, 120.500 482.945 C 92.057 481.754, 91.494 481.661, 81.217 476.433 C 71.437 471.458, 66.876 467.020, 64.561 460.226 C 62.297 453.580, 62.591 451.318, 66.759 443.325 C 71.229 434.753, 73.116 432.480, 80.149 427.200 C 87.900 421.380, 91.828 420.545, 111.500 420.537 C 132.941 420.529, 138.284 421.630, 145.311 427.508 C 152.918 433.871, 156.171 437.222, 159.240 441.860 C 161.705 445.583, 162.389 446, 166.040 446 C 171.314 446, 175.805 443.625, 176.612 440.409 C 177.991 434.917, 160.145 414.139, 151.462 411.125 C 149.283 410.369, 144.350 408.246, 140.500 406.407 C 136.650 404.568, 130.575 402.602, 127 402.039 C 118.420 400.687, 103.974 400.886, 96.500 402.458 M 294.500 402.344 C 291.200 403.051, 286.700 404.551, 284.500 405.677 C 282.300 406.803, 277.350 408.748, 273.500 409.998 C 264.295 412.989, 261.966 414.229, 257.612 418.457 C 255.609 420.402, 252.225 423.095, 250.092 424.442 C 247.960 425.788, 245.197 428.377, 243.953 430.195 C 242.709 432.013, 239.807 435.525, 237.503 438 C 235.199 440.475, 232.303 444.975, 231.069 448 C 229.834 451.025, 227.033 457.144, 224.844 461.598 C 221.423 468.557, 220.714 471.177, 219.798 480.230 C 219.039 487.729, 219.044 493.731, 219.814 501.055 C 220.770 510.160, 221.404 512.332, 225.317 519.922 C 227.749 524.640, 230.296 530.226, 230.976 532.336 C 231.655 534.446, 234.099 538.297, 236.406 540.894 C 238.712 543.491, 241.626 547.277, 242.881 549.308 C 244.136 551.339, 245.551 553, 246.025 553 C 246.498 553, 249.546 555.463, 252.798 558.473 C 256.049 561.484, 260.861 564.869, 263.491 565.996 C 266.121 567.124, 270.852 569.638, 274.004 571.583 C 281.123 575.978, 291.049 577.916, 306.678 577.965 C 321.577 578.012, 332.355 576.446, 338.500 573.341 C 356.338 564.329, 358.112 563.183, 365.644 555.800 C 380.327 541.408, 382.965 538.351, 384.527 533.920 C 385.383 531.489, 388.199 525.267, 390.783 520.092 L 395.482 510.685 395.850 492.972 C 396.257 473.359, 395.386 468.240, 390.006 458.617 C 388.432 455.803, 385.942 450.470, 384.472 446.766 C 382.823 442.609, 380.530 438.917, 378.482 437.118 C 376.657 435.516, 373.921 432.327, 372.402 430.031 C 370.882 427.735, 368.033 425.032, 366.070 424.023 C 364.106 423.015, 360.529 420.362, 358.119 418.128 C 355.709 415.893, 351.659 413.308, 349.119 412.383 C 346.579 411.458, 341.125 409.356, 337 407.713 C 332.875 406.069, 327.700 404.075, 325.500 403.280 C 319.992 401.291, 301.952 400.746, 294.500 402.344 M 853 402.445 C 849.975 403.147, 845.216 404.873, 842.424 406.279 C 839.633 407.686, 834.179 409.799, 830.305 410.976 C 826.228 412.214, 822.049 414.265, 820.381 415.847 C 818.796 417.349, 815.475 420.100, 813 421.961 C 810.525 423.822, 806.700 427.179, 804.500 429.422 C 799.611 434.406, 789.753 448.054, 787.108 453.500 C 784.438 458.996, 780 481.309, 780 489.234 C 780 502.205, 785.496 526.506, 789.541 531.419 C 790.936 533.114, 794.355 537.987, 797.139 542.250 C 799.922 546.513, 802.553 550, 802.984 550 C 803.415 550, 806.747 552.893, 810.390 556.429 C 814.156 560.086, 819.488 564.040, 822.756 565.600 C 825.915 567.107, 830.988 569.842, 834.029 571.676 C 841.052 575.913, 851.610 578, 866.016 578 C 880.213 578, 891.495 576.417, 896.692 573.695 C 915.590 563.799, 917.937 562.276, 926.579 554.297 C 932.538 548.796, 937.089 543.559, 939.516 539.408 C 941.575 535.887, 944.144 531.992, 945.225 530.753 C 948.564 526.926, 949.824 523.661, 952.117 512.892 C 957.149 489.265, 953.208 456.227, 944.495 448.996 C 943.587 448.242, 941.700 445.347, 940.301 442.563 C 937.448 436.882, 928.552 426.886, 922.719 422.807 C 920.601 421.325, 917.123 418.537, 914.991 416.611 C 912.858 414.684, 909.175 412.594, 906.807 411.965 C 904.438 411.337, 898.725 409.062, 894.110 406.911 C 881.647 401.099, 866.078 399.408, 853 402.445 M 293.500 421.061 C 285.130 422.194, 282.123 423.326, 277.291 427.166 C 275.286 428.760, 271.813 430.895, 269.573 431.912 C 264.366 434.276, 253.644 444.808, 250.872 450.282 C 249.697 452.602, 247.261 456.144, 245.457 458.154 C 240.796 463.349, 238.643 473.600, 238.663 490.500 C 238.686 509.330, 240.228 514.725, 249.600 528.742 C 254.487 536.052, 258.582 541.002, 261.308 542.896 C 263.614 544.497, 267.013 547.173, 268.862 548.843 C 273.462 552.996, 277.867 554.935, 289 557.706 C 304.935 561.672, 310.507 561.724, 325.493 558.049 C 337.867 555.014, 343.059 552.833, 346.676 549.152 C 347.569 548.243, 350.594 545.895, 353.399 543.933 C 356.205 541.971, 359.937 538.371, 361.694 535.933 C 363.451 533.495, 366.202 529.925, 367.808 528 C 369.413 526.075, 371.412 523.150, 372.249 521.500 C 379.803 506.608, 378.808 467.495, 370.600 456.672 C 368.860 454.377, 366.452 450.894, 365.249 448.931 C 362.130 443.844, 352.190 434.644, 346.955 432 C 344.505 430.762, 340.412 428.228, 337.859 426.369 C 335.016 424.299, 331.141 422.590, 327.859 421.959 C 320.022 420.451, 301.566 419.969, 293.500 421.061 M 853.547 421.111 C 845.440 422.293, 841.772 423.615, 836.191 427.372 C 833.578 429.130, 829.437 431.613, 826.989 432.889 C 824.542 434.164, 819.656 438.199, 816.133 441.854 C 811.051 447.126, 808.385 451.188, 803.238 461.500 L 796.750 474.500 796.250 486 C 795.628 500.306, 796.769 506.050, 802.525 517.578 C 804.974 522.485, 806.983 526.958, 806.989 527.518 C 806.995 528.078, 809.700 531.445, 813 535 C 816.300 538.555, 819 541.715, 819 542.022 C 819 542.329, 821.250 543.894, 824 545.500 C 826.750 547.106, 829 548.714, 829 549.074 C 829 552.845, 855.552 561.251, 867.500 561.263 C 879.338 561.275, 906 552.792, 906 549.013 C 906 548.620, 908.179 546.944, 910.843 545.288 C 913.507 543.632, 916.910 540.673, 918.406 538.712 C 919.902 536.751, 922.585 533.600, 924.368 531.709 C 926.151 529.818, 928.792 525.172, 930.235 521.385 C 931.679 517.598, 934.083 511.575, 935.577 508 C 937.645 503.052, 938.394 499.351, 938.715 492.500 C 939.192 482.271, 938.477 479.189, 931.754 462.500 C 928.287 453.893, 926.343 450.521, 922.822 447 C 920.346 444.525, 917.382 441.127, 916.234 439.449 C 915.086 437.771, 911.752 435.106, 908.824 433.527 C 905.896 431.948, 902.125 429.622, 900.445 428.358 C 891.298 421.478, 871.755 418.458, 853.547 421.111" stroke="none" fill="#ffffff" fill-rule="evenodd"/>
</svg>