<svg xmlns="http://www.w3.org/2000/svg" width="1000" height="569" viewBox="0 0 1000 569" version="1.1">
	<path d="M 600 55.393 C 600 55.609, 600.675 56.045, 601.500 56.362 C 602.325 56.678, 603 56.501, 603 55.969 C 603 55.436, 602.325 55, 601.500 55 C 600.675 55, 600 55.177, 600 55.393 M 483 59.335 C 483 60.395, 486.401 60.667, 499.500 60.658 C 512.513 60.649, 516 60.366, 516 59.323 C 516 58.279, 512.519 58, 499.500 58 C 486.407 58, 483 58.276, 483 59.335 M 378.250 64.648 C 376.462 65.529, 375 66.616, 375 67.064 C 375 68.066, 383.780 65.165, 384.558 63.906 C 385.447 62.468, 381.804 62.896, 378.250 64.648 M 616.442 63.906 C 617.192 65.119, 626 68.085, 626 67.125 C 626 66.160, 619.417 63, 617.407 63 C 616.568 63, 616.134 63.408, 616.442 63.906 M 427.250 66.644 C 424.940 67.609, 425.973 69.835, 429.042 70.509 C 431.975 71.153, 441.582 70.480, 445.305 69.369 C 446.298 69.073, 446.936 68.306, 446.724 67.665 C 446.329 66.473, 429.740 65.604, 427.250 66.644 M 554.423 67.066 C 552.700 67.706, 552.793 67.895, 555.319 68.892 C 556.870 69.503, 559.120 69.764, 560.319 69.471 C 561.519 69.178, 564.558 69.329, 567.072 69.807 C 572.478 70.834, 577.048 69.648, 575.120 67.720 C 573.773 66.373, 557.662 65.864, 554.423 67.066 M 405.835 74.673 C 403.628 75.257, 402.599 78.122, 404.216 79.180 C 406.544 80.703, 415.190 79.668, 416.397 77.722 C 417.249 76.348, 417.159 75.725, 416 74.987 C 414.491 74.025, 408.930 73.853, 405.835 74.673 M 585 74.927 C 583.831 75.719, 583.749 76.336, 584.627 77.722 C 585.473 79.059, 587.023 79.490, 590.869 79.458 C 596.407 79.412, 599.225 77.825, 597.259 75.859 C 595.727 74.327, 586.879 73.655, 585 74.927 M 638 74.282 C 638 74.571, 639.462 76.469, 641.250 78.499 C 644.534 82.230, 652 86.824, 652 85.114 C 652 84.312, 650.021 82.686, 639.847 75.128 C 638.831 74.373, 638 73.993, 638 74.282 M 353.815 81.035 C 350.069 83.013, 348.392 84.725, 349.305 85.639 C 350.026 86.359, 358 81.176, 358 79.987 C 358 78.762, 358.226 78.705, 353.815 81.035 M 389.893 83.885 C 387.897 85.502, 387.756 86.001, 388.905 87.385 C 390.912 89.804, 397.200 89.510, 398.817 86.922 C 401.597 82.470, 394.586 80.085, 389.893 83.885 M 603.200 83.200 C 601.448 84.952, 601.730 86.785, 603.934 87.965 C 606.788 89.492, 610.569 89.224, 612.095 87.385 C 614.793 84.135, 606.273 80.127, 603.200 83.200 M 341.500 91 C 341.160 91.550, 341.332 92, 341.882 92 C 342.432 92, 343.160 91.550, 343.500 91 C 343.840 90.450, 343.668 90, 343.118 90 C 342.568 90, 341.840 90.450, 341.500 91 M 375.202 92.690 C 373.823 95.369, 374.823 97.002, 377.833 96.985 C 381.880 96.961, 383.743 95.449, 382.399 93.278 C 380.851 90.778, 376.375 90.412, 375.202 92.690 M 619.667 91.667 C 618.431 92.903, 618.988 95.781, 620.582 96.393 C 624.964 98.075, 627.620 96.231, 625.830 92.750 C 624.950 91.039, 620.990 90.343, 619.667 91.667 M 630.250 99.662 C 627.959 100.587, 628.852 103.925, 631.573 104.608 C 635.256 105.532, 636.849 103.596, 634.521 101.024 C 632.618 98.921, 632.322 98.826, 630.250 99.662 M 366.363 101.497 C 365.440 103.902, 367.616 105.732, 369.778 104.369 C 372.206 102.836, 371.917 100.559, 369.246 100.180 C 367.861 99.983, 366.749 100.492, 366.363 101.497 M 655.688 118.646 C 654.272 120.061, 655.073 122, 657.073 122 C 658.471 122, 659.041 121.457, 658.823 120.333 C 658.466 118.492, 656.759 117.574, 655.688 118.646 M 343 120.500 C 343 121.325, 343.675 122, 344.500 122 C 345.325 122, 346 121.325, 346 120.500 C 346 119.675, 345.325 119, 344.500 119 C 343.675 119, 343 119.675, 343 120.500 M 305.556 128.556 C 304.612 129.995, 304.065 131.399, 304.340 131.674 C 304.615 131.949, 305.612 130.995, 306.556 129.556 C 307.499 128.116, 308.046 126.713, 307.771 126.438 C 307.496 126.163, 306.499 127.116, 305.556 128.556 M 693 126.777 C 693 128.041, 696.255 132.362, 698.642 134.266 C 699.859 135.237, 701.373 137.599, 702.005 139.516 C 702.638 141.432, 703.795 143, 704.578 143 C 707.296 143, 705.968 140.040, 700.500 133.912 C 697.475 130.521, 695 127.354, 695 126.874 C 695 126.393, 694.550 126, 694 126 C 693.450 126, 693 126.350, 693 126.777 M 334 129.083 C 334 131.520, 336.337 131.176, 336.823 128.667 C 337.015 127.680, 336.505 127, 335.573 127 C 334.646 127, 334 127.855, 334 129.083 M 663.188 128.739 C 663.690 131.345, 667 131.636, 667 129.073 C 667 127.642, 666.358 127, 664.927 127 C 663.496 127, 662.957 127.539, 663.188 128.739 M 557.332 137.578 C 556.563 139.581, 559.594 142.806, 560.960 141.440 C 562.301 140.099, 561.089 136, 559.352 136 C 558.574 136, 557.665 136.710, 557.332 137.578 M 672.600 137.600 C 672.234 138.554, 672.384 139.784, 672.934 140.334 C 673.601 141.001, 674.156 140.756, 674.600 139.600 C 674.966 138.646, 674.816 137.416, 674.266 136.866 C 673.599 136.199, 673.044 136.444, 672.600 137.600 M 296.429 139.468 C 294.331 142.670, 294.955 144.902, 297.295 142.563 C 298.826 141.031, 299.717 137, 298.523 137 C 298.261 137, 297.318 138.111, 296.429 139.468 M 325.555 138.250 C 325.345 138.938, 324.920 140.963, 324.612 142.750 C 324.135 145.509, 324.348 146, 326.025 146 C 327.402 146, 328.004 145.319, 328.014 143.750 C 328.021 142.512, 328.299 140.488, 328.630 139.250 C 329.077 137.583, 328.806 137, 327.585 137 C 326.679 137, 325.765 137.563, 325.555 138.250 M 440.500 139 C 439.771 140.180, 440.717 142, 442.059 142 C 442.577 142, 443 141.100, 443 140 C 443 137.891, 441.545 137.309, 440.500 139 M 431.574 148.667 C 430.099 152.512, 429.740 161.721, 431.034 162.521 C 433.532 164.065, 436 159.277, 436 152.889 C 436 147.778, 435.750 147, 434.107 147 C 433.066 147, 431.926 147.750, 431.574 148.667 M 681.250 148.714 C 679.427 149.374, 679.638 156.647, 681.500 157.362 C 684.057 158.343, 686 156.912, 686 154.048 C 686 151.072, 683.254 147.988, 681.250 148.714 M 316.200 150.200 C 313.408 152.992, 315.532 158.197, 319.084 157.268 C 321.793 156.559, 321.899 149, 319.200 149 C 318.210 149, 316.860 149.540, 316.200 150.200 M 566 155.378 C 566 158.656, 566.524 161.190, 567.342 161.869 C 569.396 163.573, 570 162.201, 570 155.833 C 570 150.667, 569.771 150, 568 150 C 566.248 150, 566 150.667, 566 155.378 M 307.667 160.667 C 307.300 161.033, 307 163.412, 307 165.952 C 307 169.905, 307.289 170.571, 309 170.571 C 310.159 170.571, 311 169.905, 311 168.986 C 311 168.114, 311.507 166.893, 312.127 166.273 C 313.788 164.612, 312.334 160, 310.148 160 C 309.150 160, 308.033 160.300, 307.667 160.667 M 688.500 161 C 687.441 162.713, 688.784 166.703, 690.661 167.424 C 692.749 168.225, 694.100 166.295, 693.759 163 C 693.482 160.326, 689.786 158.920, 688.500 161 M 298.997 178.006 C 298.221 179.456, 298.255 181.118, 299.120 184.006 C 300.377 188.203, 302 189.360, 302 186.059 C 302 184.991, 302.450 183.840, 303 183.500 C 304.382 182.646, 304.256 178.656, 302.800 177.200 C 301.112 175.512, 300.232 175.698, 298.997 178.006 M 698.200 177.200 C 696.744 178.656, 696.618 182.646, 698 183.500 C 698.550 183.840, 699 184.991, 699 186.059 C 699 189.360, 700.623 188.203, 701.880 184.006 C 703.578 178.338, 701.291 174.109, 698.200 177.200 M 728.079 183.583 C 728.127 184.748, 728.364 184.985, 728.683 184.188 C 728.972 183.466, 728.936 182.603, 728.604 182.271 C 728.272 181.939, 728.036 182.529, 728.079 183.583 M 504.660 187.482 C 503.831 188.312, 503.417 189.877, 503.719 191.034 C 504.260 193.101, 504.264 193.101, 506.630 190.878 C 507.934 189.653, 509 188.055, 509 187.326 C 509 185.551, 506.501 185.641, 504.660 187.482 M 290.447 199.431 C 289.757 203.110, 290.275 206.410, 291.950 208.992 C 293.745 211.760, 295.123 208.580, 294.804 202.405 C 294.567 197.821, 294.126 196.448, 292.807 196.197 C 291.562 195.961, 290.937 196.817, 290.447 199.431 M 707.194 201.069 C 707.381 204.293, 708.008 206.510, 708.806 206.773 C 709.794 207.099, 710.037 205.920, 709.806 201.931 C 709.619 198.707, 708.992 196.490, 708.194 196.227 C 707.206 195.901, 706.963 197.080, 707.194 201.069 M 430.607 218.582 C 429.658 221.054, 429.895 225.817, 431 226.500 C 431.550 226.840, 432 227.991, 432 229.059 C 432 232.149, 433.689 231.307, 434.375 227.875 C 435.482 222.339, 435.101 218.253, 433.418 217.607 C 431.283 216.788, 431.297 216.783, 430.607 218.582 M 567 217.982 C 565.202 219.121, 565.104 230.201, 566.887 230.796 C 567.499 231, 568.053 231.917, 568.118 232.833 C 568.285 235.206, 570.205 225.182, 570.366 221.093 C 570.509 217.454, 569.422 216.449, 567 217.982 M 715.327 221.589 C 714.657 223.337, 715.646 238.980, 716.480 239.813 C 717.726 241.059, 718.307 238.451, 718.774 229.529 C 719.215 221.100, 719.080 220, 717.605 220 C 716.688 220, 715.663 220.715, 715.327 221.589 M 283.087 221.946 C 280.884 223.308, 280.586 231.919, 282.584 236.500 C 284.275 240.380, 284.349 240.425, 285.064 238 C 286.057 234.631, 286.156 223.794, 285.208 222.303 C 284.748 221.578, 283.910 221.438, 283.087 221.946 M 440.711 238.622 C 439.662 239.672, 439.846 244, 440.941 244 C 441.459 244, 442.134 243.592, 442.443 243.092 C 443.205 241.860, 441.605 237.729, 440.711 238.622 M 723.965 264.123 C 722.551 269.362, 723.144 307.145, 724.699 310.965 C 725.702 313.426, 725.705 313.425, 726.783 309.965 C 729.433 301.467, 729.006 263.606, 726.229 260.829 C 725.451 260.051, 724.813 260.980, 723.965 264.123 M 273.910 265.535 C 272.027 270.921, 272.010 303.438, 273.890 306.857 C 276.174 311.013, 277.242 307.694, 278.089 293.812 C 278.860 281.177, 278.049 269.011, 276.083 263.694 C 275.382 261.800, 275.147 261.999, 273.910 265.535 M 473.431 274.112 C 472.385 275.805, 475.006 276.927, 479.783 276.831 C 482.486 276.777, 483.943 276.328, 483.707 275.622 C 483.502 275.005, 482.846 274.500, 482.250 274.500 C 481.654 274.500, 480.829 274.163, 480.417 273.750 C 479.265 272.598, 474.204 272.860, 473.431 274.112 M 526 273.882 C 526 274.432, 526.450 275.160, 527 275.500 C 527.550 275.840, 528 275.668, 528 275.118 C 528 274.568, 527.550 273.840, 527 273.500 C 526.450 273.160, 526 273.332, 526 273.882 M 523 275.059 C 523 275.641, 523.450 275.840, 524 275.500 C 524.550 275.160, 525 274.684, 525 274.441 C 525 274.198, 524.550 274, 524 274 C 523.450 274, 523 274.477, 523 275.059 M 379.538 276.348 C 376.507 278.565, 378.677 280, 385.059 280 C 390.201 280, 391 279.748, 391 278.125 C 391 275.168, 382.875 273.908, 379.538 276.348 M 437.500 276.178 C 434.523 277.840, 434.428 278.026, 436.029 279.039 C 438.350 280.507, 451.339 280.204, 453.489 278.632 C 455.301 277.307, 455.294 277.227, 453.246 276.132 C 450.544 274.686, 440.117 274.716, 437.500 276.178 M 483.015 283.954 C 479.919 286.332, 480.980 287.538, 485.803 287.122 C 490.367 286.729, 493 285.391, 493 283.465 C 493 281.278, 486.055 281.618, 483.015 283.954 M 508.607 283.582 C 507.699 285.947, 507.730 285.989, 511.468 287.551 C 515.361 289.177, 519.605 289.447, 520.425 288.121 C 520.724 287.637, 519.789 286.062, 518.348 284.621 C 515.314 281.586, 509.606 280.978, 508.607 283.582 M 459.667 283.667 C 458.431 284.903, 458.988 287.781, 460.582 288.393 C 463.417 289.481, 466.050 289.034, 466.694 287.355 C 467.732 284.649, 461.799 281.534, 459.667 283.667 M 362.105 285.804 C 360.676 288.474, 362.216 290.235, 365.304 289.460 C 368.373 288.690, 370.443 286.525, 369.527 285.044 C 368.442 283.288, 363.162 283.828, 362.105 285.804 M 401 285.883 C 401 287.792, 403.466 289.023, 405.750 288.254 C 406.438 288.023, 407 286.971, 407 285.917 C 407 284.454, 406.290 284, 404 284 C 401.729 284, 401 284.457, 401 285.883 M 423.104 284.914 C 421.041 286.221, 422.566 289, 425.346 289 C 428.036 289, 430.520 286.650, 429.527 285.044 C 428.743 283.776, 425.021 283.701, 423.104 284.914 M 558.200 285.200 C 557.540 285.860, 557 286.067, 557 285.661 C 557 284.259, 553.250 288.508, 551.567 291.817 C 549.246 296.379, 548.968 305.881, 551.114 307.272 C 552.002 307.848, 553.464 308.036, 554.364 307.691 C 555.670 307.190, 556.003 305.592, 556.014 299.781 C 556.031 290.771, 556.653 288.324, 559.092 287.686 C 560.142 287.412, 561 286.470, 561 285.594 C 561 283.700, 559.860 283.540, 558.200 285.200 M 584 286 C 584 286.550, 584.675 287, 585.500 287 C 586.325 287, 587 286.550, 587 286 C 587 285.450, 586.325 285, 585.500 285 C 584.675 285, 584 285.450, 584 286 M 600 286.969 C 600 287.501, 600.675 287.678, 601.500 287.362 C 602.325 287.045, 603 286.609, 603 286.393 C 603 286.177, 602.325 286, 601.500 286 C 600.675 286, 600 286.436, 600 286.969 M 475 290.765 C 472.632 291.548, 470 294.174, 470 295.754 C 470 297.604, 475.915 303.171, 477.102 302.437 C 478.184 301.768, 478.316 291.297, 477.250 290.694 C 476.837 290.461, 475.825 290.493, 475 290.765 M 411.667 292.667 C 411.300 293.033, 411 294.833, 411 296.667 C 411 299.025, 411.458 300, 412.566 300 C 416.706 300, 419.998 295.907, 417.895 293.373 C 416.710 291.946, 412.828 291.506, 411.667 292.667 M 353.241 298.986 C 350.748 302.978, 352.470 316, 355.491 316 C 357.376 316, 358 313.639, 358 306.500 C 358 303.015, 357.727 299.452, 357.393 298.582 C 356.563 296.418, 354.733 296.596, 353.241 298.986 M 387.441 307.532 C 388.509 308.339, 390.926 309, 392.814 309 C 395.750 309, 396.065 308.784, 395 307.500 C 394.251 306.598, 392.110 306.013, 389.628 306.032 C 385.781 306.061, 385.632 306.164, 387.441 307.532 M 405.713 308.402 C 402.294 311.339, 402.220 314.324, 405.528 315.831 C 407.809 316.870, 408.151 316.732, 409.028 314.426 C 410.190 311.370, 410.248 308.938, 409.197 307.285 C 408.633 306.397, 407.697 306.697, 405.713 308.402 M 436.401 307.742 C 434.777 309.366, 434.704 309.985, 435.913 311.894 C 436.552 312.903, 437.912 313.110, 440.830 312.643 C 443.049 312.288, 446.016 312.436, 447.424 312.971 C 450.845 314.272, 453 313.299, 453 310.452 C 453 307.332, 452.172 306.962, 444.427 306.627 C 439.763 306.426, 437.387 306.756, 436.401 307.742 M 497 307.904 C 497 310.694, 500.379 312.403, 503.060 310.968 C 506.356 309.204, 505.067 306.548, 500.742 306.190 C 497.549 305.925, 497 306.176, 497 307.904 M 617.736 306.597 C 616.551 307.782, 618.024 309, 620.642 309 C 622.215 309, 623.011 308.529, 622.755 307.750 C 622.294 306.350, 618.788 305.545, 617.736 306.597 M 446.595 326.548 C 445.382 327.761, 444.599 327.856, 442.974 326.986 C 441.834 326.376, 439.686 326.017, 438.201 326.188 C 435.936 326.450, 435.500 326.984, 435.500 329.500 C 435.500 332.052, 435.923 332.548, 438.338 332.825 C 439.997 333.015, 441.953 332.447, 443.045 331.460 C 444.764 329.904, 445.041 329.898, 446.528 331.385 C 450.136 334.993, 455.228 331.991, 453.168 327.470 C 451.887 324.659, 448.903 324.240, 446.595 326.548 M 517.307 330.856 C 513.479 334.862, 513.231 335.429, 514.462 337.372 C 516.835 341.114, 518.531 350.920, 517.181 353.082 C 515.348 356.016, 515.772 357.726, 518.500 358.411 C 519.875 358.756, 521 359.480, 521 360.019 C 521 361.284, 524.063 361.258, 526 359.977 C 527.270 359.137, 527.117 358.689, 525 357.053 C 522.588 355.188, 522.482 354.617, 522 340.794 L 521.500 326.468 517.307 330.856 M 282.725 332.875 C 282.326 334.731, 282 339.092, 282 342.566 C 282 348.806, 283.371 351.602, 285.096 348.878 C 286.256 347.047, 286.247 336.656, 285.085 335.450 C 284.581 334.928, 284.008 333.375, 283.810 332 C 283.486 329.746, 283.379 329.832, 282.725 332.875 M 387.500 333 C 387.840 333.550, 388.740 334, 389.500 334 C 390.260 334, 391.160 333.550, 391.500 333 C 391.852 332.431, 390.991 332, 389.500 332 C 388.009 332, 387.148 332.431, 387.500 333 M 549.559 333.333 C 548.009 334.467, 547.892 335.179, 548.781 338.083 C 549.356 339.963, 550.096 343.788, 550.426 346.584 C 550.931 350.872, 550.710 351.953, 549.012 353.489 C 546.268 355.972, 546.486 357.003, 549.750 356.985 C 554.874 356.956, 555.472 355.842, 555.843 345.645 C 556.292 333.280, 554.482 329.733, 549.559 333.333 M 352.975 336.565 C 351 341.759, 352.638 348, 355.975 348 C 357.759 348, 358 347.355, 358 342.582 C 358 339.602, 357.727 336.452, 357.393 335.582 C 356.465 333.164, 354.065 333.698, 352.975 336.565 M 715.646 335.764 C 715.181 336.517, 714.737 344.352, 714.911 348.750 C 714.971 350.255, 715.623 351, 716.883 351 C 719.156 351, 719.690 348.624, 719.184 340.750 C 718.929 336.775, 718.399 335, 717.466 335 C 716.725 335, 715.905 335.344, 715.646 335.764 M 473.577 340.332 C 470.476 343.433, 470.429 344.004, 473 347.273 C 474.100 348.671, 475 351.180, 475 352.849 C 475 354.517, 475.397 356.127, 475.883 356.428 C 476.368 356.728, 477.088 353.108, 477.481 348.385 C 478.323 338.280, 477.443 336.466, 473.577 340.332 M 498.661 340.441 C 498.297 341.389, 498 343.510, 498 345.155 C 498 347.464, 498.399 348.071, 499.750 347.815 C 501.969 347.394, 502.535 343.115, 500.703 340.609 C 499.422 338.857, 499.274 338.845, 498.661 340.441 M 413 344.500 C 413 346.333, 413.533 347, 415 347 C 416.467 347, 417 346.333, 417 344.500 C 417 342.667, 416.467 342, 415 342 C 413.533 342, 413 342.667, 413 344.500 M 360 352.300 C 360 353.565, 360.540 355.140, 361.200 355.800 C 362.793 357.393, 366.483 357.328, 367.849 355.682 C 369.595 353.579, 366.505 350, 362.943 350 C 360.539 350, 360 350.421, 360 352.300 M 421.362 352.500 C 420.241 355.420, 421.694 356.873, 425.189 356.328 C 429.488 355.658, 429.670 355.398, 427.506 353.006 C 425.364 350.640, 422.176 350.377, 421.362 352.500 M 460.597 353.165 C 458.221 356.557, 458.564 357, 463.566 357 C 467.958 357, 468.121 356.895, 467.816 354.250 C 467.386 350.513, 462.924 349.843, 460.597 353.165 M 402.500 354 C 402.160 354.550, 402.809 355, 403.941 355 C 405.073 355, 406 354.550, 406 354 C 406 353.450, 405.352 353, 404.559 353 C 403.766 353, 402.840 353.450, 402.500 354 M 597 356.500 C 597 357.325, 597.675 358, 598.500 358 C 599.325 358, 600 357.325, 600 356.500 C 600 355.675, 599.325 355, 598.500 355 C 597.675 355, 597 355.675, 597 356.500 M 560.750 358.689 C 558.606 359.250, 558.434 362.569, 560.509 363.365 C 563.489 364.509, 569.682 360.913, 568.375 358.798 C 567.860 357.964, 563.750 357.905, 560.750 358.689 M 374 360.062 C 374 362.358, 377.424 371.649, 379.228 374.250 C 382.064 378.337, 383 377.629, 383 371.401 C 383 366.470, 383.358 365.468, 386 363 C 387.650 361.459, 389 359.928, 389 359.599 C 389 359.269, 385.625 359, 381.500 359 C 376.874 359, 374 359.407, 374 360.062 M 441.273 361.727 L 444 364.455 446.727 361.727 L 449.455 359 444 359 L 438.545 359 441.273 361.727 M 536.813 359.683 C 537.534 359.972, 538.397 359.936, 538.729 359.604 C 539.061 359.272, 538.471 359.036, 537.417 359.079 C 536.252 359.127, 536.015 359.364, 536.813 359.683 M 605 360.326 C 605 361.055, 606.141 362.723, 607.536 364.034 C 610.024 366.371, 610.133 366.383, 613.286 364.670 C 615.054 363.709, 617.625 362.051, 619 360.984 L 621.500 359.044 613.250 359.022 C 607.054 359.006, 605 359.330, 605 360.326 M 643 364.429 C 643 369.318, 645.566 373.291, 647.130 370.824 C 649.043 367.807, 647.030 360, 644.339 360 C 643.422 360, 643 361.395, 643 364.429 M 290.607 363.582 C 290.273 364.452, 290 366.665, 290 368.500 C 290 372.827, 290.872 375, 292.607 375 C 293.609 375, 294 373.619, 294 370.082 C 294 364.864, 293.291 362, 292 362 C 291.568 362, 290.941 362.712, 290.607 363.582 M 353.840 364.189 C 353.047 365.604, 352.545 369.989, 352.545 375.500 C 352.545 384.570, 353.954 389.511, 356.318 388.732 C 358.086 388.149, 359.324 376.109, 358.353 368.946 C 357.431 362.154, 355.891 360.530, 353.840 364.189 M 707.607 363.582 C 707.273 364.452, 707 367.377, 707 370.082 C 707 373.603, 707.393 375, 708.383 375 C 710.383 375, 710.926 371.788, 709.810 366.558 C 708.744 361.558, 708.506 361.238, 707.607 363.582 M 611.158 372 C 611.158 373.375, 611.385 373.938, 611.662 373.250 C 611.940 372.563, 611.940 371.438, 611.662 370.750 C 611.385 370.063, 611.158 370.625, 611.158 372 M 613.015 373.750 C 613.007 375.538, 613.450 377, 614 377 C 615.270 377, 615.270 373.965, 614 372 C 613.264 370.862, 613.027 371.284, 613.015 373.750 M 560.272 387 C 560.272 389.475, 560.467 390.488, 560.706 389.250 C 560.944 388.012, 560.944 385.988, 560.706 384.750 C 560.467 383.512, 560.272 384.525, 560.272 387 M 298.629 388.523 C 297.844 390.571, 299.745 394.252, 301.318 393.727 C 303.162 393.113, 302.787 387.583, 300.876 387.215 C 299.983 387.043, 298.972 387.632, 298.629 388.523 M 698.667 387.667 C 697.665 388.668, 697.865 393.799, 698.932 394.458 C 700.330 395.322, 702.853 391.152, 702.273 388.935 C 701.772 387.019, 699.954 386.380, 698.667 387.667 M 459.200 389.200 C 457.025 391.375, 457.935 392, 463.250 391.978 L 468.500 391.956 466 390 C 463.121 387.748, 460.912 387.488, 459.200 389.200 M 530.250 391.706 C 526.959 392.340, 527.502 394, 531 394 C 533 394, 534 393.500, 534 392.500 C 534 391.675, 533.663 391.061, 533.250 391.136 C 532.837 391.211, 531.487 391.467, 530.250 391.706 M 432.188 395.739 C 432.600 397.876, 435.965 398.675, 437.064 396.896 C 438.218 395.029, 437.259 394, 434.368 394 C 432.518 394, 431.942 394.459, 432.188 395.739 M 566.079 395.583 C 566.127 396.748, 566.364 396.985, 566.683 396.188 C 566.972 395.466, 566.936 394.603, 566.604 394.271 C 566.272 393.939, 566.036 394.529, 566.079 395.583 M 306.932 404.126 C 305.585 406.645, 307.120 411, 309.356 411 C 312.150 411, 313.354 408.269, 312 405.001 C 310.543 401.483, 308.533 401.136, 306.932 404.126 M 689.430 404.421 C 688.563 407.879, 689.260 410.426, 691.176 410.795 C 693.175 411.180, 694.429 407.847, 693.571 404.428 C 692.786 401.297, 690.216 401.293, 689.430 404.421 M 433 411.500 C 433 413.975, 433.450 416, 434 416 C 434.550 416, 435 413.975, 435 411.500 C 435 409.025, 434.550 407, 434 407 C 433.450 407, 433 409.025, 433 411.500 M 561.750 414.484 C 560.237 415.815, 559 417.151, 559 417.452 C 559 417.753, 561.195 418, 563.878 418 C 569.443 418, 571.526 416.440, 569.557 413.747 C 567.801 411.346, 565.017 411.608, 561.750 414.484 M 315.377 415.459 C 314.597 417.494, 316.796 423.708, 318.533 424.374 C 321.062 425.345, 322.933 419.594, 321.393 415.582 C 320.630 413.594, 316.128 413.502, 315.377 415.459 M 406.750 414.637 C 405.788 414.917, 405 415.789, 405 416.573 C 405 417.721, 407.100 417.997, 415.750 417.986 C 426.737 417.972, 431 417.402, 431 415.946 C 431 415.494, 430.212 415.096, 429.250 415.061 C 428.288 415.027, 423.225 414.802, 418 414.563 C 412.775 414.324, 407.712 414.357, 406.750 414.637 M 578.500 415 C 578.160 415.550, 578.160 416.450, 578.500 417 C 579.289 418.276, 594 418.321, 594 417.047 C 594 414.770, 579.801 412.895, 578.500 415 M 681 419.111 C 681 425.524, 683.786 425.447, 685.321 418.992 C 686.019 416.053, 685.187 414.555, 682.750 414.361 C 681.303 414.246, 681 415.069, 681 419.111 M 294 427.097 C 294 429.046, 298.353 435.442, 298.789 434.134 C 299.524 431.928, 298.014 428.078, 295.988 426.994 C 294.532 426.214, 294 426.242, 294 427.097 M 703.724 428.752 C 702.776 429.800, 702.008 431.747, 702.017 433.079 C 702.033 435.383, 702.134 435.344, 704.105 432.265 C 706.538 428.468, 706.264 425.946, 703.724 428.752 M 324.667 429.667 C 323.331 431.003, 324.049 433.956, 325.958 434.978 C 327.509 435.808, 328.115 435.654, 328.873 434.237 C 330.517 431.165, 326.995 427.339, 324.667 429.667 M 671.990 431.018 C 670.586 433.642, 671.844 436.164, 674.377 435.803 C 677.389 435.373, 677.923 430.475, 675.041 429.721 C 673.669 429.362, 672.643 429.798, 671.990 431.018 M 332.955 439.554 C 331.542 441.257, 332.342 443.810, 334.555 444.659 C 336.733 445.495, 339.353 442.689, 338.603 440.324 C 337.876 438.035, 334.588 437.587, 332.955 439.554 M 663.698 438.636 C 662.418 439.915, 662.980 444.055, 664.513 444.643 C 665.345 444.963, 666.695 444.668, 667.513 443.989 C 669.139 442.639, 669.554 439, 668.082 439 C 667.577 439, 666.541 438.761, 665.780 438.469 C 665.018 438.177, 664.082 438.252, 663.698 438.636 M 305.638 443.500 C 305.955 444.325, 306.391 445, 306.607 445 C 306.823 445, 307 444.325, 307 443.500 C 307 442.675, 306.564 442, 306.031 442 C 305.499 442, 305.322 442.675, 305.638 443.500 M 405 446.433 C 405 448.565, 408.979 449.368, 418.250 449.106 C 420.738 449.036, 422 448.531, 422 447.607 C 422 445.590, 419.720 445, 411.918 445 C 406.580 445, 405 445.327, 405 446.433 M 441.695 445.700 C 440.702 445.957, 440.063 446.693, 440.275 447.334 C 440.745 448.754, 452.159 450.428, 455.555 449.576 C 458.308 448.885, 458.821 446.529, 456.418 445.607 C 454.633 444.922, 444.449 444.986, 441.695 445.700 M 486.750 445.746 C 476.839 446.078, 472.823 448, 482.039 448 C 484.811 448, 491.322 448.473, 496.509 449.052 C 506.532 450.169, 510.468 449.383, 509.356 446.485 C 508.924 445.361, 507.293 445.051, 502.643 445.209 C 499.264 445.324, 492.113 445.566, 486.750 445.746 M 523.684 445.741 C 519.735 445.987, 517.995 446.488, 518.264 447.302 C 518.810 448.952, 538.457 450.202, 542.750 448.861 C 544.538 448.302, 546 447.478, 546 447.029 C 546 445.037, 540.269 444.706, 523.684 445.741 M 588.250 445.662 C 586.509 446.365, 586.691 447.667, 588.634 448.413 C 591.147 449.377, 597 447.961, 597 446.389 C 597 445.010, 591.084 444.519, 588.250 445.662 M 569 447 C 569 447.550, 569.563 448.006, 570.250 448.014 C 570.938 448.021, 572.513 448.299, 573.750 448.630 C 575.404 449.074, 576 448.805, 576 447.617 C 576 446.436, 575.057 446, 572.500 446 C 570.575 446, 569 446.450, 569 447 M 343.250 447.718 C 341.143 448.474, 341.760 452, 344 452 C 345.313 452, 346 451.333, 346 450.059 C 346 447.854, 345.072 447.065, 343.250 447.718 M 654.336 449.567 C 654.005 450.429, 654.196 451.596, 654.761 452.161 C 656.422 453.822, 659.474 452.663, 659.820 450.240 C 660.080 448.412, 659.660 448, 657.538 448 C 656.099 448, 654.669 448.700, 654.336 449.567 M 685.981 453.523 C 684.924 454.796, 684.986 454.943, 686.359 454.416 C 687.261 454.069, 688 453.384, 688 452.893 C 688 451.607, 687.421 451.788, 685.981 453.523 M 351.169 458.161 C 351.351 459.447, 352.175 460.500, 353 460.500 C 355.169 460.500, 354.870 456.599, 352.669 456.175 C 351.249 455.901, 350.912 456.347, 351.169 458.161 M 646.336 457.567 C 645.502 459.739, 647.618 461.782, 649.133 460.267 C 650.413 458.987, 649.620 456, 648 456 C 647.415 456, 646.667 456.705, 646.336 457.567 M 322.020 462.524 C 322.716 463.362, 323.491 463.842, 323.743 463.591 C 324.436 462.897, 323.027 461, 321.819 461 C 321.155 461, 321.231 461.574, 322.020 462.524 M 677.500 462 C 677.160 462.550, 677.359 463, 677.941 463 C 678.523 463, 679 462.550, 679 462 C 679 461.450, 678.802 461, 678.559 461 C 678.316 461, 677.840 461.450, 677.500 462 M 637 467 C 637 467.550, 637.648 468, 638.441 468 C 639.234 468, 640.160 467.550, 640.500 467 C 640.840 466.450, 640.191 466, 639.059 466 C 637.927 466, 637 466.450, 637 467 M 330.500 471 C 330.840 471.550, 331.541 472, 332.059 472 C 332.577 472, 333 471.550, 333 471 C 333 470.450, 332.298 470, 331.441 470 C 330.584 470, 330.160 470.450, 330.500 471 M 668.500 471 C 668.160 471.550, 668.359 472, 668.941 472 C 669.523 472, 670 471.550, 670 471 C 670 470.450, 669.802 470, 669.559 470 C 669.316 470, 668.840 470.450, 668.500 471 M 373.494 474.009 C 372.718 475.266, 373.834 479, 374.986 479 C 375.454 479, 376.490 479.251, 377.289 479.558 C 379.347 480.347, 381.924 477.426, 381.294 475.018 C 380.899 473.505, 379.935 473, 377.442 473 C 375.614 473, 373.837 473.454, 373.494 474.009 M 620.667 473.667 C 620.300 474.033, 620 475.383, 620 476.667 C 620 478.586, 620.525 479, 622.965 479 C 625.992 479, 628.719 475.973, 627.487 473.979 C 626.806 472.876, 621.691 472.642, 620.667 473.667 M 385.290 482.530 C 383.801 483.618, 383.761 484.007, 384.982 485.478 C 386.026 486.736, 387.175 486.993, 389.444 486.475 C 391.125 486.092, 393.316 485.802, 394.312 485.832 C 396.797 485.905, 396.080 482.798, 393.500 482.312 C 388.279 481.329, 386.882 481.366, 385.290 482.530 M 608.254 482.637 C 606.594 483.927, 606.607 484.083, 608.500 485.544 C 611.466 487.834, 616.420 487.063, 616.820 484.250 C 617.007 482.933, 616.592 481.947, 615.820 481.872 C 615.094 481.802, 613.489 481.639, 612.254 481.509 C 611.019 481.380, 609.219 481.887, 608.254 482.637 M 649 487 C 647.707 487.835, 647.734 487.971, 649.191 487.985 C 650.121 487.993, 651.160 487.550, 651.500 487 C 652.282 485.734, 650.958 485.734, 649 487 M 403.500 489.771 C 398.294 490.969, 400.147 496.007, 405.785 495.986 C 411.468 495.965, 414 495, 414 492.852 C 414 491.799, 413.438 490.765, 412.750 490.555 C 410.044 489.728, 405.400 489.335, 403.500 489.771 M 587.206 491.568 C 585.974 492.431, 585.210 493.530, 585.507 494.011 C 586.276 495.255, 594.503 496.342, 597.487 495.593 C 600.333 494.878, 600.949 491.578, 598.418 490.607 C 595.472 489.476, 589.456 489.992, 587.206 491.568 M 357.882 493.779 C 358.830 495.550, 363.662 498, 366.208 498 C 368.023 498, 365.779 495.931, 362.182 494.288 C 360.157 493.362, 358.119 492.417, 357.653 492.187 C 357.187 491.957, 357.290 492.673, 357.882 493.779 M 639 494.148 C 634.657 496.314, 632.353 498.284, 633.655 498.718 C 635.291 499.264, 642.045 496.046, 642.667 494.425 C 643.506 492.239, 642.918 492.194, 639 494.148 M 428 499.777 C 416.312 500.367, 417.627 502.583, 430.250 503.572 C 438.582 504.224, 439 504.161, 439 502.242 C 439 499.906, 436.509 499.348, 428 499.777 M 564.814 500.044 C 563.547 500.343, 562.358 501.380, 562.172 502.348 C 561.868 503.926, 562.693 504.088, 570.166 503.916 C 579.790 503.695, 581 503.385, 581 501.143 C 581 499.777, 579.831 499.500, 574.059 499.500 C 570.241 499.500, 566.081 499.745, 564.814 500.044 M 377 504.407 C 377 505.183, 383.100 508.233, 383.617 507.716 C 383.854 507.479, 383.475 506.826, 382.774 506.265 C 381.214 505.016, 377 503.660, 377 504.407 M 620.465 504.952 C 618.324 505.819, 615.216 509, 616.510 509 C 617.447 509, 624 504.992, 624 504.418 C 624 503.821, 622.811 504.001, 620.465 504.952 M 471.250 508.732 C 465.882 509.216, 465.567 511.501, 470.750 512.358 C 479.085 513.736, 491 512.643, 491 510.500 C 491 508.367, 483.127 507.662, 471.250 508.732 M 515.873 508.690 C 515.118 508.794, 511.350 509.206, 507.500 509.604 L 500.500 510.328 505 511.261 C 510.444 512.389, 534.603 512.645, 537.750 511.607 C 542.543 510.027, 539.548 509.109, 528.623 508.811 C 522.366 508.640, 516.628 508.585, 515.873 508.690" stroke="none" fill="#ffffff" fill-rule="evenodd"/>
</svg>