<svg xmlns="http://www.w3.org/2000/svg" width="1000" height="1000" viewBox="0 0 1000 1000" version="1.1">
	<path d="M 914.500 273.146 C 911.619 274.887, 910.262 276.748, 906.947 283.500 C 901.595 294.403, 903.576 308.556, 911.497 315.997 C 915.204 319.480, 923.103 319.849, 929 316.815 C 935.995 313.216, 938.495 307.862, 938.486 296.500 C 938.480 288.398, 938.181 286.955, 935.490 282.041 C 933.781 278.922, 931.149 275.800, 929.347 274.756 C 925.327 272.427, 917.156 271.541, 914.500 273.146 M 439.156 287.523 C 437.283 289.098, 435.109 292.758, 433.364 297.273 L 430.570 304.500 430.740 414.247 C 430.857 489.259, 431.261 525.973, 432.017 530.247 C 433.826 540.473, 438.870 556.917, 441.266 560.401 C 445.654 566.780, 456.706 576.107, 461.632 577.590 C 468.284 579.592, 490.194 579.494, 496.235 577.436 C 504.707 574.549, 511.388 565.654, 511.462 557.163 C 511.532 549.161, 505.771 546.331, 486.997 545.148 C 480.670 544.750, 474.957 544.091, 474.300 543.686 C 472.492 542.568, 460.043 526.183, 458.703 523.155 C 456.937 519.167, 456.424 415.141, 458.141 409.003 C 458.973 406.028, 460.939 402.966, 463.952 399.952 C 469.600 394.304, 475.329 392.450, 484.294 393.369 C 495.114 394.477, 508.662 389.645, 511.077 383.815 C 512.718 379.853, 511.591 371.638, 508.885 367.839 C 504.914 362.262, 499.346 360.630, 484 360.543 C 471.552 360.473, 470.156 360.273, 466.089 357.983 C 457.625 353.219, 457.527 352.879, 457.303 327.678 C 457.078 302.276, 455.479 291.752, 451.192 287.465 C 447.900 284.173, 443.109 284.196, 439.156 287.523 M 308.500 346.451 C 299.731 348.286, 297.489 349.407, 287.463 356.976 C 271.748 368.840, 268.493 373.650, 264.991 390.186 C 261.725 405.602, 261.485 413.969, 263.964 426 C 266.969 440.589, 270.089 447.161, 276.107 451.579 C 278.755 453.522, 282.390 456.999, 284.185 459.306 C 288.345 464.652, 287.746 464.288, 299.500 468.602 C 305 470.621, 312.425 473.981, 316 476.070 C 319.575 478.159, 326.775 481.069, 332 482.536 C 343.376 485.732, 347.793 488.153, 354.747 495.004 C 361.847 501.998, 363.691 507.987, 362.081 518.813 C 360.765 527.660, 358.717 531.654, 353.946 534.676 C 352.051 535.876, 349.026 538.069, 347.224 539.550 C 340.964 544.694, 337.173 546, 328.499 546 C 318.133 546, 310.143 543.894, 302 539.015 C 298.425 536.872, 293.006 534.195, 289.957 533.066 C 286.907 531.935, 282.600 529.267, 280.377 527.132 C 278.157 524.998, 275.393 522.745, 274.236 522.126 C 271.202 520.503, 263.400 520.742, 259.872 522.566 C 254.520 525.334, 251.295 536.459, 253.895 543.185 C 255.710 547.881, 268.273 559.689, 275 563.023 C 278.575 564.794, 283.525 567.714, 286 569.512 C 292.131 573.966, 296.881 575.795, 306.820 577.528 C 316.730 579.256, 340.088 579.470, 348.526 577.911 C 356.765 576.388, 362.206 573.284, 371.798 564.635 C 385.902 551.919, 388.307 548.135, 391.097 534.265 C 394.473 517.483, 393.276 494.209, 388.413 482.069 C 387.220 479.091, 383.431 474.431, 376.860 467.860 C 367.078 458.078, 363.430 455.589, 355 452.949 C 352.525 452.173, 347.714 449.639, 344.310 447.317 C 339.846 444.272, 335.384 442.352, 328.310 440.431 C 315.786 437.029, 312.051 435.100, 303.699 427.716 C 295.325 420.313, 294 417.856, 294 409.731 C 294 400.054, 296.327 393.436, 300.803 390.388 C 309.021 384.790, 318.328 379.821, 321.583 379.293 C 326.604 378.478, 336.542 380.862, 344 384.671 C 347.575 386.497, 351.023 387.992, 351.661 387.995 C 352.300 387.998, 356.575 389.618, 361.161 391.595 C 371.795 396.180, 379.153 396.975, 383.810 394.041 C 389.601 390.394, 391.365 383.120, 388.457 374.879 C 386.184 368.436, 381.665 364.378, 370.680 358.917 C 365.279 356.232, 359.708 353.129, 358.299 352.021 C 351.242 346.469, 323.333 343.348, 308.500 346.451 M 594.583 346.042 C 583.284 347.814, 576.477 350.106, 570.080 354.292 C 566.544 356.606, 561.366 359.625, 558.575 361 C 552.209 364.136, 550.002 368.127, 550.005 376.500 C 550.009 385.316, 552.249 388.495, 559.528 390.006 C 567.288 391.617, 574.918 390.130, 584.689 385.102 C 599.066 377.704, 612.458 376.158, 621.713 380.829 C 637.640 388.865, 641.002 391.287, 644.988 397.598 C 647.155 401.030, 649.382 404.118, 649.936 404.460 C 652.180 405.847, 655.129 414.867, 655.682 422.033 C 656.314 430.228, 654.855 434.937, 651.055 436.970 C 648.314 438.438, 639.368 438.246, 624.970 436.411 C 610.461 434.562, 598.129 435.040, 584.186 437.992 C 572.428 440.481, 566.839 442.947, 563.878 446.952 C 562.593 448.689, 559.389 451.435, 556.757 453.055 C 551.789 456.112, 548.811 460.009, 546.866 466 C 546.242 467.925, 544.009 472.425, 541.905 476 C 536.700 484.843, 534.740 493.724, 534.733 508.500 C 534.725 522.980, 536.530 530.801, 542.001 540 C 544.128 543.575, 546.652 548.525, 547.612 551 C 550.075 557.353, 551.876 559.884, 555.128 561.566 C 556.685 562.371, 560.849 565.734, 564.382 569.039 C 570.247 574.524, 571.521 575.228, 579.032 577.127 C 586.043 578.900, 589.493 579.150, 602.379 578.815 C 618.571 578.394, 622.688 577.338, 630.233 571.675 C 635.598 567.649, 643.708 564, 647.292 564 C 650.923 564, 653.090 565.846, 656.856 572.147 C 660.719 578.611, 663.023 579.490, 675.622 579.307 C 694.139 579.039, 699.878 576.326, 700.732 567.434 C 701.432 560.152, 699.508 554.260, 695.232 550.593 C 688.692 544.984, 687.187 542.948, 686.069 538.198 C 685.356 535.167, 684.824 513.092, 684.569 476 C 684.317 439.324, 683.762 416.177, 683.038 412.085 C 682.414 408.557, 680.181 401.582, 678.075 396.585 C 675.970 391.588, 673.680 385.700, 672.987 383.500 C 669.463 372.313, 665.462 367.508, 650.536 356.537 C 638.412 347.626, 632.805 345.901, 614.500 345.455 C 606.800 345.267, 597.838 345.531, 594.583 346.042 M 792 346.066 C 783.795 347.292, 778.687 349.412, 772.412 354.195 C 769.305 356.563, 764.458 359.625, 761.641 361 C 758.253 362.653, 755.499 364.982, 753.509 367.874 C 751.854 370.279, 748.096 374.779, 745.158 377.874 C 739.185 384.163, 738.167 385.855, 734.528 395.522 C 733.127 399.243, 730.233 405.485, 728.097 409.394 C 723.172 418.403, 721.369 426.564, 719.829 446.821 C 717.823 473.199, 721.244 506.688, 726.770 514.779 C 729.548 518.846, 733.725 527.693, 736.526 535.444 C 737.630 538.498, 740.513 542.752, 744.069 546.575 C 747.235 549.978, 750.526 554.117, 751.382 555.772 C 752.267 557.483, 755.778 560.575, 759.519 562.938 C 763.139 565.224, 766.865 568.008, 767.800 569.125 C 773.881 576.391, 786.887 579.431, 808.949 578.745 C 827.162 578.178, 834.050 576.310, 840.251 570.255 C 842.329 568.226, 847.024 564.751, 850.684 562.533 C 855.443 559.649, 857.912 557.386, 859.351 554.588 C 860.458 552.437, 863.280 548.873, 865.623 546.669 C 871.088 541.526, 872.713 535.752, 871.008 527.537 C 869.709 521.283, 868.040 519.679, 861.248 518.162 C 855.575 516.894, 849.999 518.242, 847.500 521.484 C 841.986 528.640, 838.213 532.426, 835.437 533.588 C 833.753 534.293, 830.153 536.712, 827.437 538.963 C 824.722 541.213, 820.281 543.718, 817.568 544.528 C 806.919 547.707, 792.222 545.434, 785.289 539.534 C 783.205 537.761, 779.475 535.061, 777 533.534 C 770.497 529.523, 767.130 526.082, 765.003 521.274 C 763.973 518.946, 761.147 514.220, 758.723 510.771 C 750.466 499.025, 748.560 489.745, 748.602 461.500 C 748.643 434.217, 750.607 425.363, 759.628 411.808 C 762.643 407.277, 765.786 402.146, 766.612 400.406 C 768.597 396.222, 771.186 393.916, 779 389.374 C 800.363 376.955, 805.135 376.240, 819 383.382 C 833.221 390.708, 837.370 393.458, 840.500 397.631 C 848.518 408.321, 856.689 409.894, 867.193 402.771 C 870.353 400.628, 871.634 394.711, 870.530 387.352 C 869.979 383.679, 868.828 381.633, 865.046 377.602 C 862.413 374.796, 859.572 371.149, 858.732 369.498 C 856.715 365.532, 854.565 363.692, 848.250 360.526 C 845.363 359.079, 840.956 356.125, 838.457 353.963 C 829.950 346.600, 810.524 343.298, 792 346.066 M 904.121 345.936 C 896.495 347.887, 894 351.084, 894 358.906 C 894 365.025, 895.793 369.221, 900.432 373.954 C 902.882 376.454, 905.342 379.716, 905.900 381.202 C 906.555 382.947, 906.967 416.864, 907.062 476.909 C 907.225 579.444, 906.936 574.805, 913.364 577.858 C 917.316 579.735, 932.534 579.568, 939.400 577.572 C 950.995 574.201, 951.743 567.646, 942.250 552.608 L 936.500 543.500 936 448.500 C 935.607 373.900, 935.225 353.019, 934.220 351.260 C 932 347.374, 927.443 345.823, 917.101 345.433 C 911.821 345.234, 905.979 345.460, 904.121 345.936 M 604 465.696 C 596.924 466.455, 586.230 469.182, 583.273 470.980 C 581.600 471.997, 578.959 474.556, 577.404 476.665 C 575.848 478.774, 572.678 482.584, 570.358 485.132 C 565.171 490.829, 563.745 495.688, 563.794 507.500 C 563.849 520.812, 565.302 524.325, 575.140 534.938 C 585.212 545.803, 587.876 547.098, 601.511 547.757 C 615.797 548.448, 620.878 547.135, 630 540.395 C 640.213 532.850, 641.012 532.027, 647.943 521.924 C 655.514 510.889, 657.412 504.016, 656.761 490 C 656.313 480.334, 654.978 476.100, 651.343 472.811 C 648.591 470.320, 635.989 467.254, 623.576 466.055 C 612.738 465.008, 610.746 464.972, 604 465.696 M 52.124 504.368 L 49.900 506.735 49.974 636.493 C 50.022 721.379, 50.403 767.836, 51.075 770.834 C 52.338 776.470, 52.814 777.053, 60.846 782.784 C 67.421 787.476, 72.345 788.618, 75.326 786.144 C 76.023 785.566, 79.800 783.508, 83.718 781.571 C 87.968 779.471, 92.589 776.183, 95.171 773.421 C 97.552 770.876, 101.525 767.745, 104 766.464 C 106.475 765.183, 111.961 761.220, 116.191 757.658 C 120.421 754.095, 126.564 749.750, 129.844 748.003 C 133.123 746.255, 137.225 743.059, 138.960 740.900 C 140.694 738.742, 144.426 735.804, 147.253 734.372 C 150.079 732.940, 154.891 729.425, 157.946 726.561 C 161.001 723.698, 165.525 720.187, 168 718.760 C 170.475 717.332, 175.650 713.528, 179.500 710.306 C 183.350 707.084, 189.016 702.945, 192.091 701.109 C 195.888 698.841, 198.742 696.122, 200.982 692.635 C 202.797 689.811, 206.050 685.167, 208.212 682.315 C 210.374 679.464, 213.052 674.739, 214.164 671.815 C 218.115 661.430, 217.602 639.598, 213.209 631.137 C 207.912 620.936, 204.091 615.189, 200.175 611.536 C 197.796 609.316, 193.672 605.388, 191.011 602.807 C 188.350 600.226, 183.649 596.690, 180.565 594.950 C 177.481 593.209, 173.387 589.869, 171.468 587.526 C 169.548 585.183, 165.395 581.887, 162.239 580.201 C 159.082 578.514, 154.925 575.477, 153 573.452 C 151.075 571.426, 145.744 567.302, 141.152 564.286 C 136.561 561.271, 130.386 556.613, 127.430 553.936 C 124.473 551.259, 120.268 548.157, 118.084 547.043 C 115.901 545.929, 112.436 543.010, 110.385 540.557 C 108.334 538.103, 104.146 534.753, 101.078 533.112 C 98.010 531.471, 93.700 528.252, 91.500 525.959 C 89.300 523.665, 85.700 520.641, 83.500 519.239 C 81.300 517.836, 76.329 514.074, 72.454 510.879 C 65.457 505.109, 59.768 502, 56.206 502 C 55.185 502, 53.348 503.065, 52.124 504.368" stroke="none" fill="#ffffff" fill-rule="evenodd"/>
</svg>