<svg xmlns="http://www.w3.org/2000/svg" width="1000" height="297" viewBox="0 0 1000 297" version="1.1">
	<path d="M 899.500 75.392 C 879.383 80.953, 861.394 95.102, 852.753 112.160 C 847.003 123.512, 845.996 126.688, 844.458 138.334 C 840.690 166.862, 851.043 192.605, 873.116 209.589 C 879.831 214.757, 889.270 219.308, 899.500 222.313 C 909.153 225.147, 929.625 225.320, 939 222.646 C 968.419 214.254, 987.781 194.586, 994.566 166.200 C 996.407 158.501, 996.380 138.741, 994.518 130.812 C 989.934 111.288, 978.762 95.265, 962.325 84.639 C 958.379 82.087, 954.623 80, 953.979 80 C 953.335 80, 951.614 79.342, 950.154 78.538 C 939.604 72.726, 914.733 71.181, 899.500 75.392 M 7.250 76.019 C 5.081 76.902, 5 77.399, 5 89.768 C 5 98.415, 5.391 102.991, 6.200 103.800 C 7.055 104.655, 13.244 105, 27.700 105 C 38.865 105, 48.103 105.112, 48.230 105.250 C 48.356 105.388, 48.693 131.600, 48.980 163.500 L 49.500 221.500 63.921 221.779 C 71.853 221.932, 78.738 221.662, 79.220 221.180 C 79.703 220.697, 80.065 195.313, 80.025 164.629 C 79.977 127.246, 80.301 108.305, 81.012 106.977 C 82.013 105.107, 83.171 105, 102.335 105 C 116.763 105, 122.946 104.654, 123.800 103.800 C 125.261 102.339, 125.452 79.263, 124.022 77 C 123.200 75.699, 115.529 75.474, 66.287 75.301 C 33.644 75.186, 8.543 75.491, 7.250 76.019 M 311.116 76.360 C 310.295 77.350, 310.057 97.335, 310.243 149.610 L 310.500 221.500 324.363 221.779 C 333.732 221.967, 338.675 221.685, 339.613 220.907 C 340.757 219.957, 341 212.085, 341 175.937 C 341 151.836, 341.359 131.896, 341.798 131.625 C 342.961 130.906, 344.518 132.153, 346.014 135 C 347.473 137.779, 356.129 151.369, 362.116 160.281 C 364.252 163.461, 366 166.224, 366 166.420 C 366 166.802, 375.814 181.988, 378.492 185.750 C 379.373 186.988, 380.493 188, 380.982 188 C 382.169 188, 389.725 176.933, 404.931 152.918 C 406.818 149.938, 410.238 144.575, 412.531 141 C 414.824 137.425, 417.249 133.458, 417.920 132.185 C 418.896 130.333, 419.423 130.106, 420.560 131.049 C 421.740 132.029, 422.023 139.755, 422.240 176.864 L 422.500 221.500 437.500 221.500 L 452.500 221.500 452.757 149.610 C 452.943 97.335, 452.705 77.350, 451.884 76.360 C 450.543 74.744, 424.729 74.392, 420.672 75.935 C 418.531 76.749, 415.271 81.407, 406.500 96.185 C 405.950 97.112, 403.250 101.528, 400.500 106 C 397.750 110.472, 395.050 114.888, 394.500 115.815 C 386.580 129.158, 382.628 135, 381.519 135 C 380.380 135, 377.396 130.936, 372.533 122.764 C 368.834 116.548, 357.241 97.398, 356 95.455 C 355.175 94.163, 352.346 89.465, 349.714 85.014 C 346.625 79.792, 344.032 76.582, 342.399 75.962 C 338.290 74.399, 312.470 74.728, 311.116 76.360 M 649.176 76.288 C 648.276 77.372, 648.049 95.207, 648.243 149.610 L 648.500 221.500 698.941 221.759 C 730.414 221.921, 749.745 221.655, 750.347 221.053 C 751.897 219.503, 751.425 194.885, 749.826 193.871 C 749.097 193.409, 733.339 193.024, 714.809 193.015 C 694.507 193.006, 680.884 192.621, 680.528 192.045 C 680.203 191.520, 679.949 165.757, 679.962 134.795 C 679.977 100.720, 679.609 77.908, 679.031 77 C 677.642 74.816, 650.926 74.179, 649.176 76.288 M 780.571 76.571 C 779.172 77.970, 779 85.913, 779 148.949 C 779 208.089, 779.228 219.945, 780.386 220.906 C 781.326 221.686, 786.397 221.967, 796.136 221.778 L 810.500 221.500 810.757 149.610 C 810.943 97.335, 810.705 77.350, 809.884 76.360 C 808.128 74.245, 782.715 74.428, 780.571 76.571 M 908.999 103.856 C 903.511 105.029, 894.939 110.065, 889.841 115.111 C 875.664 129.144, 872.733 153.548, 882.898 172.925 C 886.035 178.905, 894.336 186.928, 900.830 190.256 C 914.873 197.452, 933.924 195.691, 945.997 186.080 C 952.478 180.920, 954.462 178.411, 958.711 170 L 962.500 162.500 962.500 149 L 962.500 135.500 958.711 128 C 954.480 119.624, 952.520 117.138, 945.997 111.866 C 938.381 105.711, 932.775 103.734, 922 103.401 C 916.775 103.239, 910.924 103.444, 908.999 103.856" stroke="none" fill="#ffffff" fill-rule="evenodd"/>
</svg>