<svg xmlns="http://www.w3.org/2000/svg" width="1000" height="275" viewBox="0 0 1000 275" version="1.1">
	<path d="M 499.246 6.701 C 498.167 8.240, 497.109 9.961, 496.893 10.525 C 496.677 11.089, 494.025 15.696, 491 20.763 C 487.395 26.801, 484.891 29.980, 483.732 29.988 C 482.180 29.999, 470.046 18.259, 469.167 15.896 C 468.354 13.712, 467.062 15.424, 465.502 20.750 C 462.980 29.364, 462.188 31, 460.542 31 C 459.717 31, 454.875 28.975, 449.782 26.500 C 444.688 24.025, 440.170 22, 439.740 22 C 439.310 22, 439.080 31.113, 439.229 42.250 L 439.500 62.500 500.750 63 C 541.238 63.331, 562.014 63.161, 562.039 62.500 C 562.250 57.071, 561.834 22.501, 561.554 22.221 C 561.352 22.018, 557.316 23.911, 552.585 26.426 C 547.855 28.942, 543.126 31, 542.076 31 C 540.576 31, 539.691 29.445, 537.951 23.750 C 536.733 19.762, 535.518 16.120, 535.251 15.656 C 534.984 15.192, 531.256 18.541, 526.967 23.098 C 520.077 30.416, 518.975 31.224, 517.525 30.020 C 516.621 29.271, 512.580 23.087, 508.544 16.280 L 501.206 3.902 499.246 6.701 M 11.225 133.219 C 11.533 195.215, 11.177 192.177, 19.074 200.074 C 26.005 207.005, 25.961 207, 86.209 207 L 140.062 207 139.781 194.750 L 139.500 182.500 87.759 182.241 L 36.018 181.982 35.759 130.241 L 35.500 78.500 23.225 78.219 L 10.951 77.938 11.225 133.219 M 172.268 79.409 C 165.767 81.783, 160.354 86.558, 157.624 92.330 L 155 97.876 155 142.816 C 155 191.488, 154.976 191.253, 160.568 197.899 C 162.022 199.626, 165.301 202.268, 167.855 203.770 L 172.500 206.500 227.887 206.500 L 283.274 206.500 283.185 195.099 C 283.137 188.828, 282.719 183.319, 282.258 182.858 C 281.796 182.396, 258.487 181.902, 230.459 181.759 L 179.500 181.500 179.500 168.500 L 179.500 155.500 231.500 155 C 272.242 154.608, 283.478 154.229, 283.400 153.250 C 283.345 152.563, 283.233 147.054, 283.150 141.009 L 283 130.018 231.250 129.759 L 179.500 129.500 179.221 116.896 C 179.006 107.178, 179.256 104.032, 180.313 103.156 C 181.287 102.347, 196.332 101.944, 232.416 101.759 L 283.148 101.500 283.148 90 L 283.148 78.500 229.324 78.365 C 190.167 78.267, 174.619 78.551, 172.268 79.409 M 298.472 79.217 C 298.202 79.923, 298.098 108.850, 298.241 143.500 L 298.500 206.500 310.750 206.781 L 323 207.062 323 181.031 L 323 155 331.243 155 L 339.486 155 365.248 180.750 L 391.009 206.500 409.036 206.813 L 427.063 207.127 426.781 194.813 L 426.500 182.500 413.846 182.370 L 401.192 182.240 388.596 169.771 C 381.668 162.913, 376 156.784, 376 156.151 C 376 155.336, 380.204 155, 390.385 155 C 407.357 155, 413.123 153.588, 418.850 148.029 C 426.098 140.996, 427 137.505, 427 116.500 C 427 95.750, 426.169 92.369, 419.407 85.607 C 412.024 78.224, 414.768 78.532, 353.731 78.217 C 309.890 77.991, 298.864 78.191, 298.472 79.217 M 459.597 79.340 C 453.911 80.924, 445.546 88.949, 443.587 94.699 C 441.270 101.499, 441.212 183.515, 443.520 190.056 C 445.646 196.083, 449.278 200.491, 454.784 203.728 L 459.500 206.500 504.249 206.789 C 532.784 206.973, 550.385 206.704, 552.828 206.046 C 559.907 204.140, 566.930 197.093, 569.714 189.104 C 570.645 186.432, 570.974 174.441, 570.985 142.761 C 570.999 102.624, 570.880 99.705, 569.028 94.832 C 566.448 88.041, 560.918 82.487, 554.253 79.994 C 549.215 78.108, 546.604 78.007, 506.212 78.126 C 478.899 78.207, 462.093 78.645, 459.597 79.340 M 602.385 79.613 C 596.697 81.636, 590.651 87.083, 588.123 92.462 C 586.186 96.583, 586 98.686, 586 116.500 C 586 138.883, 586.848 142.146, 594.329 148.550 C 601.578 154.755, 603.665 155, 649.182 155 L 690 155 690 168.491 L 690 181.982 638.250 182.241 L 586.500 182.500 586.219 194.750 L 585.938 207 640.219 206.990 L 694.500 206.980 699.556 204.626 C 706.100 201.579, 711.501 195.227, 713.555 188.164 C 714.816 183.825, 715.093 179.138, 714.833 166.561 C 714.515 151.225, 714.370 150.235, 711.622 144.639 C 708.716 138.721, 703.166 133.686, 697.179 131.539 C 695.706 131.011, 675.600 130.336, 652.500 130.039 L 610.500 129.500 610.218 117.141 C 610.030 108.882, 610.320 104.320, 611.091 103.391 C 612.049 102.236, 620.974 102, 663.654 102 L 715.063 102 714.782 90.250 L 714.500 78.500 660.500 78.324 C 615.310 78.178, 605.829 78.388, 602.385 79.613 M 746.173 79.269 C 744.342 79.855, 740.612 82.342, 737.882 84.796 C 729.146 92.650, 729.500 90.213, 729.500 142.500 C 729.500 187.655, 729.539 188.574, 731.649 192.513 C 734.381 197.614, 738.386 201.619, 743.487 204.351 C 747.427 206.461, 748.463 206.505, 800.500 206.790 C 829.650 206.949, 854.527 206.824, 855.782 206.513 C 858.016 205.958, 858.057 205.703, 857.782 194.223 L 857.500 182.500 805.750 182.241 L 754 181.982 754 168.491 L 754 155 804.418 155 C 832.148 155, 855.548 154.727, 856.418 154.393 C 857.738 153.887, 858 151.816, 858 141.902 L 858 130.018 806.250 129.759 L 754.500 129.500 754.500 116 L 754.500 102.500 806.250 102.241 L 858 101.982 858 89.991 L 858 78 803.750 78.102 C 768.414 78.169, 748.340 78.575, 746.173 79.269 M 871.019 78.719 C 871.030 79.149, 870.771 100.969, 870.445 127.210 C 870.024 161.021, 870.188 177.189, 871.008 182.710 C 872.834 195.005, 877.575 201.408, 887.770 205.349 C 891.490 206.787, 897.319 207, 932.985 207 C 972.442 207, 973.967 207.070, 974.965 208.934 C 976.496 211.796, 976.315 232.678, 974.750 233.691 C 974.063 234.136, 950.550 234.500, 922.500 234.500 L 871.500 234.500 871.500 246.500 L 871.500 258.500 927 258.500 C 978.180 258.500, 982.752 258.362, 985.734 256.733 C 989.946 254.431, 995.144 249.161, 996.867 245.447 C 997.618 243.826, 998.631 241.719, 999.117 240.764 C 999.606 239.801, 1000 203.123, 1000 158.514 L 1000 78 987.500 78 L 975 78 975 130 L 975 182 935.509 182 L 896.018 182 895.759 130.250 L 895.500 78.500 883.250 78.219 C 876.513 78.065, 871.009 78.290, 871.019 78.719 M 324.250 102.662 C 323.337 103.031, 323 106.788, 323 116.595 L 323 130.023 362.750 129.761 L 402.500 129.500 402.782 117.141 C 402.970 108.882, 402.680 104.320, 401.909 103.391 C 400.959 102.246, 394.110 102.014, 363.128 102.079 C 342.432 102.122, 324.938 102.385, 324.250 102.662 M 467.667 102.667 C 467.300 103.033, 467 121.033, 467 142.667 L 467 182 506.500 182 L 546 182 546 142.607 C 546 107.608, 545.824 103.146, 544.418 102.607 C 542.254 101.776, 468.500 101.834, 467.667 102.667 M 463.638 236.695 C 462.554 237.779, 464.102 239, 466.559 239 C 469.675 239, 469.631 239.652, 465.979 247.708 C 464.317 251.373, 463.138 254.850, 463.359 255.436 C 463.581 256.021, 464.294 255.157, 464.945 253.515 C 466.314 250.063, 468.732 244.495, 470.271 241.250 C 470.869 239.989, 472.253 238.994, 473.419 238.986 C 474.564 238.979, 476.512 238.701, 477.750 238.370 C 479.629 237.866, 480 238.165, 480 240.183 C 480 241.513, 479.626 243.028, 479.168 243.550 C 477.865 245.038, 473.926 255.259, 474.453 255.786 C 474.713 256.046, 475.459 254.963, 476.111 253.379 C 480.300 243.205, 482.498 239.051, 483.829 238.793 C 484.665 238.632, 487.857 238.725, 490.924 239 C 496.106 239.465, 496.522 239.693, 496.814 242.226 C 497.254 246.044, 492.050 249.297, 486.853 248.452 C 482.481 247.741, 480.753 249.501, 484.990 250.348 C 487.070 250.764, 488.135 251.690, 488.582 253.470 C 488.986 255.082, 489.916 256, 491.144 256 C 492.800 256, 492.910 255.701, 491.930 253.869 C 490.928 251.998, 491.278 251.277, 494.798 247.962 C 499.746 243.301, 500.776 240.515, 498.485 237.984 C 496.961 236.300, 495.152 236.111, 480.506 236.111 C 471.550 236.111, 463.959 236.374, 463.638 236.695 M 551.560 238.250 C 550.157 239.488, 548.894 241.625, 548.754 243 C 548.517 245.329, 548.918 245.568, 554.607 246.500 C 557.965 247.050, 561.464 248.127, 562.381 248.893 C 564.436 250.609, 565.396 249.822, 564.539 247.122 C 564 245.423, 562.901 245.044, 557.801 244.796 C 553.261 244.576, 551.427 244.047, 550.604 242.722 C 548.983 240.111, 551.327 239.034, 558.668 239.015 C 565.193 238.999, 568 238.361, 568 236.893 C 568 236.402, 564.875 236, 561.056 236 C 555.277 236, 553.683 236.378, 551.560 238.250 M 573.481 236.765 C 572.166 237.715, 564.712 255.046, 565.347 255.681 C 565.780 256.113, 567.917 251.869, 569.968 246.500 C 572.910 238.800, 573.199 238.603, 581 238.956 C 586.003 239.182, 588 239.927, 588 241.567 C 588 242.355, 588.450 243, 589 243 C 590.561 243, 590.174 239.316, 588.429 237.571 C 586.777 235.920, 575.496 235.312, 573.481 236.765 M 598.500 237.406 C 592.214 240.187, 587.723 248.400, 589.472 253.913 C 590.803 258.105, 608.043 255.984, 607.985 251.635 C 607.974 250.838, 607.743 250.855, 607.211 251.693 C 606.793 252.350, 604.299 253.463, 601.668 254.166 C 595.387 255.846, 591.659 254.075, 591.184 249.185 C 590.930 246.571, 591.558 245.242, 594.383 242.417 C 597.753 239.047, 598.157 238.914, 604.199 239.201 L 610.500 239.500 610.823 242.877 C 611 244.735, 610.663 246.737, 610.073 247.327 C 608.725 248.675, 608.689 250, 610 250 C 610.550 250, 611 249.325, 611 248.500 C 611 247.675, 611.450 247, 612 247 C 613.624 247, 613.157 239.300, 611.429 237.571 C 609.503 235.646, 602.675 235.559, 598.500 237.406 M 619.200 237.200 C 618.540 237.860, 618 239.155, 618 240.078 C 618 241, 617.325 242.315, 616.500 243 C 615.675 243.685, 615 244.871, 615 245.636 C 615 246.401, 614.550 247.921, 614 249.014 C 613.450 250.106, 612.550 251.894, 612 252.986 C 610.803 255.365, 610.751 256, 611.755 256 C 612.170 256, 613.593 253.188, 614.917 249.750 C 618.972 239.218, 619.218 239, 627.008 239 C 632.249 239, 633.923 239.357, 634.389 240.572 C 635.953 244.647, 629.596 249.296, 623.757 248.348 C 619.457 247.650, 617.852 249.520, 622.033 250.357 C 624.007 250.751, 625.361 251.819, 625.992 253.478 C 627.289 256.891, 629.887 256.859, 629.233 253.439 C 628.851 251.440, 629.527 250.159, 632.309 247.611 C 636.759 243.535, 638.071 239.256, 635.456 237.344 C 633.131 235.644, 620.865 235.535, 619.200 237.200 M 642.765 236.569 C 641.660 237.673, 642.913 239, 645.059 239 C 647.585 239, 647.557 241.472, 644.970 246.826 C 641.914 253.152, 640.957 256, 641.889 256 C 642.351 256, 643.524 253.863, 644.496 251.250 C 645.468 248.637, 646.654 246.072, 647.131 245.550 C 647.609 245.028, 648 243.845, 648 242.922 C 648 240.551, 649.852 239.372, 654.750 238.625 C 658.498 238.053, 659 238.203, 659 239.894 C 659 240.948, 658.036 243.766, 656.858 246.155 C 653.182 253.611, 652.647 254.981, 653.198 255.531 C 654.150 256.483, 665.992 256.500, 665.742 255.550 C 665.609 255.043, 663.586 254.746, 661.248 254.890 C 655.561 255.240, 655.091 253.609, 658.540 245.493 C 661.342 238.901, 661.896 238.489, 667.365 238.929 C 671.175 239.235, 675 238.218, 675 236.899 C 675 236.198, 672.527 236.012, 667.750 236.353 C 659.035 236.974, 660.214 236.973, 650.987 236.359 C 646.855 236.084, 643.155 236.178, 642.765 236.569 M 702.200 237.200 C 701.540 237.860, 701 238.991, 701 239.714 C 701 240.436, 700.588 241.809, 700.084 242.764 C 699.580 243.719, 698.396 246.300, 697.451 248.500 C 696.507 250.700, 695.328 253.287, 694.832 254.250 C 694.336 255.213, 694.286 256, 694.721 256 C 695.156 256, 696.116 254.537, 696.855 252.750 C 697.594 250.963, 699.282 247.118, 700.607 244.206 L 703.015 238.913 710.258 239.206 C 717.205 239.488, 717.500 239.600, 717.500 241.960 C 717.500 245.562, 711.596 249.334, 707.238 248.517 C 705.438 248.179, 703.411 248.253, 702.733 248.680 C 701.935 249.183, 702.555 249.644, 704.490 249.987 C 706.465 250.336, 707.927 251.448, 708.795 253.258 C 710.477 256.767, 713.295 257.025, 712.434 253.592 C 711.958 251.696, 712.593 250.472, 715.417 247.842 C 717.494 245.908, 719.266 243.140, 719.623 241.271 C 720.168 238.428, 719.921 237.920, 717.556 237.021 C 713.861 235.616, 703.665 235.735, 702.200 237.200 M 747.705 239.250 C 745.294 244.397, 740.979 255.313, 741.252 255.576 C 741.663 255.972, 747.283 256.312, 750.765 256.151 C 753.034 256.046, 755.168 254.897, 757.765 252.382 C 761.019 249.230, 761.080 249.093, 758.245 251.321 C 755.002 253.870, 747.106 255.802, 745.071 254.544 C 743.496 253.571, 743.754 251.412, 746 246.764 C 747.100 244.487, 748 242.064, 748 241.380 C 748 239.720, 751.686 238.585, 756 238.917 C 760.933 239.297, 762.279 240.700, 761.531 244.686 C 761.179 246.563, 761.324 248, 761.867 248 C 762.393 248, 763.143 246.113, 763.533 243.807 C 764.485 238.167, 761.979 236, 754.503 236 C 749.531 236, 749.141 236.186, 747.705 239.250 M 769.734 237.911 C 769.282 239.639, 769.587 239.833, 772.003 239.349 C 773.539 239.042, 776.754 238.725, 779.148 238.645 C 785.986 238.417, 784.231 236.532, 776.878 236.207 C 770.969 235.946, 770.199 236.129, 769.734 237.911 M 787.557 238.223 C 786.701 239.445, 786 240.800, 786 241.233 C 786 242.056, 782.559 250.149, 780.849 253.347 C 780.306 254.363, 780.118 255.451, 780.431 255.764 C 781.190 256.524, 781.190 256.525, 784.504 248.554 C 788.504 238.932, 789.265 238.326, 796.530 238.970 C 801.824 239.440, 802.537 239.762, 802.828 241.815 C 803.338 245.414, 799.608 248, 793.906 248 C 791.273 248, 788.840 248.450, 788.500 249 C 788.117 249.619, 789.927 250, 793.254 250 C 797.813 250, 799.021 249.584, 801.242 247.250 C 807.697 240.463, 805.413 236, 795.485 236 C 790.034 236, 788.888 236.321, 787.557 238.223 M 840.128 238.546 C 838.217 240.154, 837 242.116, 837 243.589 C 837 245.619, 837.514 246.018, 840.250 246.115 C 842.038 246.178, 844.270 246.153, 845.211 246.059 C 848.025 245.777, 850.995 247.921, 851.068 250.285 L 851.135 252.500 852.196 250.305 C 854.082 246.403, 852.616 245, 846.654 245 C 840.492 245, 838.234 243.429, 840.312 240.587 C 841.309 239.225, 843.236 238.802, 849.045 238.670 C 858.308 238.459, 858.934 236.608, 849.878 236.207 C 843.957 235.945, 842.924 236.193, 840.128 238.546 M 883.254 237.146 C 882.624 237.776, 882.351 239.505, 882.648 240.989 C 883.015 242.824, 882.213 245.616, 880.140 249.723 C 877.138 255.669, 877.049 257, 879.652 257 C 880.989 257, 886.624 246.792, 888.071 241.751 C 889.225 237.728, 885.875 234.525, 883.254 237.146 M 893.417 239.519 C 887.922 245.345, 889.158 250, 896.200 250 C 898.290 250, 900 250.450, 900 251 C 900 251.555, 897.345 252, 894.035 252 C 889.234 252, 887.875 252.364, 887.070 253.869 C 885.638 256.545, 886.570 257, 893.487 257 C 899.044 257, 900.026 256.669, 903.630 253.585 C 905.824 251.706, 908.469 248.286, 909.508 245.983 C 911.211 242.205, 911.251 241.537, 909.915 239.148 C 908.617 236.829, 907.713 236.462, 902.634 236.198 C 897.100 235.909, 896.678 236.061, 893.417 239.519 M 914.081 237.402 C 912.250 239.609, 913.627 241, 917.642 241 C 919.581 241, 921.017 241.386, 920.833 241.858 C 920.650 242.330, 917.236 245.521, 913.247 248.949 C 909.258 252.377, 906.247 255.591, 906.556 256.091 C 907.765 258.047, 910.731 256.745, 916 251.947 C 919.025 249.192, 922.737 246.022, 924.250 244.901 L 927 242.864 927 245.277 C 927 248.394, 929.918 251, 933.408 251 C 935.944 251, 936.108 251.234, 935.500 254 C 934.605 258.073, 937.456 258.109, 939.783 254.055 C 940.713 252.435, 942.267 250.902, 943.237 250.648 C 944.449 250.331, 945 249.205, 945 247.044 C 945 245.315, 945.713 242.521, 946.585 240.835 C 947.783 238.519, 947.888 237.493, 947.014 236.635 C 945.736 235.380, 943.890 237.245, 940.760 242.955 C 939.277 245.659, 938.538 246.082, 935.760 245.814 C 932.336 245.484, 932.337 245.485, 933.651 238.977 L 934.160 236.453 924.747 236.173 C 917.322 235.952, 915.069 236.211, 914.081 237.402 M 506.571 246.097 C 501.780 251.100, 498.132 255.465, 498.464 255.798 C 498.797 256.130, 502.091 253.156, 505.784 249.188 C 512.334 242.153, 514.231 240.947, 515.506 243.009 C 516.766 245.048, 514.855 247.874, 511.705 248.631 L 508.500 249.402 512 249.951 C 514.910 250.407, 515.553 250.964, 515.816 253.250 C 516.007 254.908, 516.738 256, 517.656 256 C 518.959 256, 519.077 254.732, 518.469 247.250 C 517.737 238.232, 517.450 237, 516.081 237 C 515.641 237, 511.361 241.094, 506.571 246.097 M 529.296 239.250 C 528.722 240.488, 527.247 243.750, 526.017 246.500 C 524.787 249.250, 523.380 252.281, 522.891 253.236 C 521.584 255.784, 521.801 256.410, 523.500 255 C 524.325 254.315, 525 253.204, 525 252.531 C 525 249.627, 529.158 243.069, 531.035 243.015 C 531.329 243.007, 532.663 245.925, 534 249.500 C 535.337 253.075, 537.009 256, 537.715 256 C 538.422 256, 539 255.562, 539 255.027 C 539 254.183, 541.815 247.553, 545.272 240.252 C 545.857 239.015, 546.094 237.760, 545.797 237.464 C 545.500 237.167, 544.007 239.866, 542.479 243.462 C 539.488 250.498, 537.555 251.615, 535.921 247.250 C 533.783 241.541, 531.593 237, 530.977 237 C 530.625 237, 529.869 238.012, 529.296 239.250 M 678.378 238.750 C 677.782 240.616, 676.334 244.175, 674.784 247.588 C 674.263 248.736, 673.985 250.986, 674.168 252.588 C 674.490 255.412, 674.682 255.507, 680.500 255.743 C 684.140 255.891, 687.104 255.497, 688.037 254.743 C 690.457 252.785, 694 247.350, 694 245.596 C 694 244.718, 694.450 244, 695 244 C 695.550 244, 696 243.127, 696 242.059 C 696 240.991, 696.450 239.840, 697 239.500 C 698.227 238.742, 698.321 237, 697.136 237 C 696.661 237, 695.477 239.137, 694.505 241.750 C 691.443 249.986, 689.214 252.865, 685.028 253.992 C 680.818 255.126, 676.086 253.979, 675.882 251.775 C 675.623 248.991, 677.105 244.405, 680.093 238.750 C 680.693 237.613, 680.653 237, 679.977 237 C 679.405 237, 678.686 237.787, 678.378 238.750 M 809.431 238.607 C 809.092 239.648, 807.922 242.341, 806.832 244.591 C 805.685 246.958, 804.987 250.118, 805.175 252.091 C 805.486 255.350, 805.694 255.514, 809.920 255.816 C 817.925 256.388, 821.196 254.444, 824.559 247.115 C 825.472 245.127, 826.844 242.193, 827.609 240.596 C 829.246 237.179, 829.272 237, 828.122 237 C 827.639 237, 826.215 239.752, 824.957 243.115 C 823.699 246.478, 821.756 250.081, 820.639 251.122 C 817.846 253.724, 812.403 255.104, 809.415 253.968 C 806.343 252.800, 806.262 249.587, 809.136 242.905 C 810.311 240.174, 810.997 237.663, 810.660 237.326 C 810.323 236.989, 809.770 237.566, 809.431 238.607 M 832.418 240.596 C 829.450 247.799, 827.839 251.487, 826.847 253.347 C 826.305 254.363, 826.106 255.440, 826.406 255.739 C 826.705 256.038, 827.861 254.194, 828.975 251.642 C 830.089 249.089, 831.911 244.911, 833.025 242.358 C 834.139 239.806, 834.820 237.487, 834.538 237.205 C 834.257 236.923, 833.302 238.450, 832.418 240.596 M 765.283 248 L 762.126 255.500 768.313 256.077 C 771.716 256.395, 774.928 256.282, 775.450 255.827 C 775.974 255.371, 774.553 255, 772.282 255 C 770.017 255, 767.452 254.727, 766.582 254.393 C 764.826 253.719, 764.439 250.465, 766 249.500 C 766.550 249.160, 767 248.046, 767 247.024 C 767 246.003, 767.501 245, 768.114 244.795 C 768.727 244.591, 769.051 243.541, 768.834 242.462 C 768.569 241.145, 767.401 242.965, 765.283 248 M 896.200 242.200 C 894.058 244.342, 894.912 245, 899.833 245 C 905.233 245, 906.514 244.324, 904.869 242.342 C 903.486 240.675, 897.818 240.582, 896.200 242.200 M 586.500 245 C 586.160 245.550, 586.359 246, 586.941 246 C 587.523 246, 588 245.550, 588 245 C 588 244.450, 587.802 244, 587.559 244 C 587.316 244, 586.840 244.450, 586.500 245 M 661.500 246 C 660.782 247.161, 660.632 247.090, 664.500 247.412 C 668.001 247.703, 670 247.151, 670 245.893 C 670 244.663, 662.266 244.761, 661.500 246 M 771.500 246 C 771.139 246.583, 772.156 247, 773.941 247 C 775.623 247, 777.326 247.034, 777.725 247.075 C 778.124 247.116, 778.611 246.666, 778.808 246.075 C 779.265 244.704, 772.345 244.633, 771.500 246 M 578.828 247.903 C 571.339 248.706, 570.239 250.008, 577.083 249.968 C 580.252 249.950, 583.306 249.327, 584.441 248.468 C 585.509 247.661, 585.959 247.066, 585.441 247.147 C 584.924 247.228, 581.947 247.568, 578.828 247.903 M 560.139 253.033 C 558.260 254.598, 556.270 255, 550.389 255 C 546.325 255, 543 255.403, 543 255.895 C 543 256.387, 546.678 256.592, 551.173 256.349 C 557.904 255.985, 559.668 255.536, 561.173 253.801 C 564.106 250.419, 563.668 250.093, 560.139 253.033 M 847 254 C 846.175 254.533, 842.436 254.976, 838.691 254.985 C 834.918 254.993, 832.130 255.401, 832.438 255.899 C 833.004 256.815, 844.978 256.459, 848.220 255.430 C 849.199 255.119, 850 254.446, 850 253.933 C 850 252.743, 848.907 252.768, 847 254" stroke="none" fill="#ffffff" fill-rule="evenodd"/>
</svg>