<svg xmlns="http://www.w3.org/2000/svg" width="1000" height="489" viewBox="0 0 1000 489" version="1.1">
	<path d="M 347.455 77.455 C 345.394 79.515, 345 80.872, 345 85.905 C 345 96.946, 346.657 101.789, 352.545 107.962 C 358.794 114.513, 361.844 120.276, 365.531 132.500 C 368.926 143.754, 371.136 148.152, 376.639 154.603 C 381.286 160.051, 385.791 169.032, 388.431 178.114 C 389.323 181.183, 392.118 187.701, 394.642 192.597 C 398.986 201.026, 399.201 201.822, 398.672 207.549 C 397.908 215.815, 395.700 221.926, 389.703 232.373 C 385.607 239.508, 384.533 242.347, 384.218 246.873 C 383.707 254.199, 385.105 257.605, 389.477 259.691 C 392.739 261.246, 393.252 261.250, 396.402 259.748 C 404.350 255.958, 416.194 236.395, 423.028 215.770 C 428.526 199.174, 428.857 198.450, 434.141 191.439 C 436.780 187.936, 439.372 182.239, 442.555 172.939 C 447.484 158.536, 449.234 155.030, 455.001 148 C 459.900 142.029, 461.396 138.974, 466.097 125.340 C 470.295 113.165, 471.382 111.013, 476.724 104.290 C 481.448 98.343, 483 94.008, 483 86.755 C 483 72.822, 476.561 72.238, 461.140 84.771 C 455.262 89.548, 453.594 92.551, 449.419 105.873 C 447.458 112.128, 443.468 121.803, 440.552 127.373 C 437.636 132.943, 433.834 140.875, 432.104 145 C 428.183 154.346, 422.950 161.579, 418.613 163.648 C 415.555 165.106, 415.004 165.096, 411.690 163.523 C 407.526 161.547, 402.358 155.577, 397.646 147.300 C 395.830 144.110, 392.697 138.942, 390.684 135.816 C 386.668 129.582, 384.140 123.668, 380.289 111.505 C 376.161 98.464, 373.639 93.922, 365.911 85.610 C 359.412 78.620, 354.320 75, 350.987 75 C 350.394 75, 348.805 76.105, 347.455 77.455 M 541.452 76.763 C 533.892 80.006, 521.350 87.978, 520.083 90.345 C 518.271 93.731, 519.077 96.985, 522.327 99.400 C 525.007 101.390, 526.415 101.505, 549.327 101.598 C 571.533 101.688, 574.066 101.880, 580.453 103.951 C 589.511 106.888, 594 111.131, 594 116.754 C 594 121.343, 592.312 123.490, 583.704 129.849 C 580.523 132.199, 575.576 136.623, 572.710 139.679 C 569.845 142.735, 563 148.733, 557.500 153.007 C 552 157.281, 540.394 167.466, 531.708 175.639 C 515.494 190.898, 511.601 194.247, 503.880 199.582 C 500.693 201.784, 496.745 206.636, 490.051 216.582 C 484.899 224.237, 479.864 232.300, 478.864 234.500 C 474.703 243.645, 477.433 249.939, 488.537 256.807 C 500.911 264.459, 495.071 263.899, 564.791 264.129 C 634.820 264.361, 630.752 264.733, 635.045 257.696 C 639.599 250.230, 638.095 243.444, 631.288 240.747 C 628.053 239.465, 621.323 239.322, 585.184 239.767 C 539.094 240.335, 535.629 240.053, 527.806 235.092 C 522.625 231.806, 519.473 226.235, 520.494 222.167 C 520.862 220.703, 523.938 216.799, 527.331 213.493 C 540.049 201.100, 552.937 189.636, 557.148 186.971 C 559.541 185.456, 564.650 180.962, 568.500 176.984 C 572.350 173.005, 577.975 168.064, 581 166.002 C 584.025 163.940, 589.324 159.072, 592.775 155.184 C 596.226 151.296, 601.626 146.536, 604.775 144.605 C 608.116 142.557, 612.280 138.770, 614.774 135.511 C 617.124 132.439, 621.141 128.480, 623.701 126.713 C 632.305 120.773, 634.606 118.168, 638.409 110.063 C 644.802 96.440, 644.352 90.772, 636.188 82.137 C 630.064 75.658, 625.906 74.466, 614.999 76.061 C 607.483 77.160, 563.429 76.789, 550.500 75.518 C 547.048 75.179, 544.247 75.565, 541.452 76.763 M 185.500 77.490 C 180.609 79.205, 174.230 85.976, 169.445 94.533 C 164 104.268, 158.959 132.014, 152.007 190.500 C 149.815 208.944, 148.060 215.178, 143.777 219.738 C 139.111 224.704, 130.845 221.093, 123.474 210.868 C 121.346 207.916, 118.277 203.946, 116.655 202.047 C 111.434 195.936, 108.144 187.110, 104.050 168.229 C 101.886 158.253, 98.915 147.259, 97.447 143.796 C 89.454 124.946, 87.945 120.894, 85.468 111.626 C 78.760 86.526, 76.813 82.543, 69.592 79.148 C 53.788 71.720, 47.979 85.008, 58.480 104.565 C 61.252 109.727, 63.602 116.026, 65.011 122.065 C 66.221 127.254, 68.047 135.005, 69.067 139.289 C 70.088 143.573, 72.800 151.448, 75.093 156.789 C 81.217 171.053, 85.587 184.378, 90.428 203.544 C 93.667 216.372, 95.704 222.309, 98.660 227.544 C 100.820 231.370, 103.843 237.467, 105.377 241.093 C 111.919 256.555, 121.157 263.592, 134.647 263.391 C 140.416 263.305, 143.081 262.683, 148.461 260.165 C 162.678 253.512, 164.665 250.464, 166.056 233.176 C 166.573 226.754, 167.669 218.125, 168.493 214 C 169.316 209.875, 170.900 198.625, 172.012 189 C 173.125 179.375, 174.436 168.734, 174.927 165.353 C 175.799 159.341, 177.973 154.659, 180.966 152.345 C 183.610 150.301, 196.394 147.796, 200.371 148.542 C 210.292 150.403, 213.816 164.503, 219.463 224.934 C 221.337 244.986, 222.318 247.342, 231.975 255 C 242.113 263.040, 245.246 264.426, 254.233 264.848 C 261.091 265.169, 262.458 264.921, 266.324 262.656 C 271.916 259.379, 283.665 245.977, 286.620 239.504 C 287.877 236.752, 291.432 224.375, 294.521 212 C 301.064 185.788, 301.924 183.202, 307.707 172.374 C 318.288 152.562, 320.746 114.415, 311.955 106.459 C 310.351 105.007, 309.543 104.887, 307.537 105.801 C 304.187 107.327, 301.795 112.429, 298.065 126 C 296.327 132.325, 293.151 141.117, 291.008 145.538 C 285.448 157.008, 285.192 157.830, 281.994 174.469 C 273.752 217.355, 271.688 220.590, 255.155 216.538 C 242.780 213.505, 240.618 211.214, 237.125 197.429 C 235.189 189.792, 234.353 183.970, 230.026 148 C 227.663 128.356, 222.802 105.448, 219.523 98.500 C 218.225 95.750, 214.461 90.291, 211.157 86.370 C 206.381 80.700, 204.176 78.907, 200.397 77.620 C 194.655 75.663, 190.807 75.630, 185.500 77.490" stroke="none" fill="#ffffff" fill-rule="evenodd"/>
</svg>