<svg xmlns="http://www.w3.org/2000/svg" width="1000" height="207" viewBox="0 0 1000 207" version="1.1">
	<path d="M 92 19.136 C 88.093 19.671, 82.708 21.405, 78.500 23.484 C 74.650 25.386, 69.925 27.562, 68 28.318 C 59.774 31.552, 40.921 48.330, 37.074 55.840 C 36.043 57.853, 33.804 61.249, 32.099 63.388 C 30.395 65.526, 29 67.857, 29 68.568 C 29 69.280, 27.169 75.405, 24.932 82.181 C 20.939 94.270, 20.870 94.724, 21.211 106.500 C 21.528 117.418, 21.945 119.681, 25.840 131.607 C 28.950 141.130, 31.198 146.149, 34.060 149.958 C 36.227 152.841, 38 155.704, 38 156.320 C 38 157.314, 40.886 160.554, 48.200 167.769 C 54.312 173.799, 60.075 178.045, 66 180.884 C 69.575 182.597, 73.889 184.897, 75.586 185.995 C 79.127 188.287, 100.758 191.972, 110.767 191.989 C 116.736 191.999, 139.649 188.778, 143.621 187.370 C 144.655 187.004, 146.850 185.713, 148.500 184.502 C 150.150 183.291, 153.696 181.332, 156.380 180.148 C 159.065 178.965, 163.115 176.369, 165.380 174.380 C 174.486 166.385, 177.820 163.099, 180.595 159.386 C 182.192 157.249, 184.256 154.934, 185.181 154.241 C 186.106 153.549, 187.828 150.399, 189.008 147.241 C 190.187 144.084, 191.739 140.825, 192.456 140 C 196.830 134.965, 199.006 123.487, 198.992 105.526 C 198.982 92.021, 197.477 83.447, 194.192 78.190 C 192.712 75.820, 190.600 72.168, 189.500 70.074 C 187.598 66.455, 179.739 58.390, 171.100 51.193 C 168.795 49.272, 164.062 46.912, 159.815 45.564 C 155.792 44.288, 150.700 42.443, 148.500 41.464 C 145.452 40.108, 141.882 39.684, 133.500 39.684 C 123.876 39.684, 121.738 40.009, 116.410 42.287 C 113.061 43.719, 108.250 45.412, 105.719 46.049 C 103.188 46.687, 99.403 48.648, 97.309 50.409 C 95.214 52.170, 92.056 54.615, 90.291 55.844 C 88.527 57.072, 84.301 61.508, 80.901 65.702 C 76 71.746, 74.008 75.313, 71.286 82.913 C 64.405 102.129, 64.364 107.382, 70.982 122.080 C 76.789 134.976, 83.012 140.868, 94.678 144.518 C 108.701 148.906, 112.023 148.891, 127.752 144.367 C 133.731 142.648, 140.802 137.072, 146.500 129.583 C 152.603 121.563, 153.437 118.800, 153.470 106.500 C 153.496 96.903, 153.222 95.053, 151.320 92 C 147.985 86.645, 144.123 83.427, 137 80.067 C 127.874 75.763, 123.658 75.975, 113 81.274 C 105.138 85.183, 104.297 85.900, 101.799 90.829 C 97.952 98.421, 97.344 103.873, 99.633 110.230 C 101.353 115.007, 101.854 115.519, 106 116.744 C 111.532 118.380, 116.132 117.650, 119.714 114.570 C 122.109 112.509, 122.267 112.027, 121.034 110.541 C 120.264 109.613, 117.916 107.978, 115.817 106.907 C 112.643 105.287, 112 104.441, 112 101.881 C 112 97.557, 114.643 92.484, 117.595 91.139 C 120.816 89.671, 130.183 89.671, 133.403 91.138 C 137.201 92.868, 143 102.232, 143 106.633 C 143 110.629, 137.794 121.944, 134.500 125.109 C 129.579 129.837, 124.130 134, 121.610 134.958 C 120.103 135.531, 115.169 136, 110.646 136 C 100.931 136, 98.066 134.804, 89.101 127.006 C 81.864 120.712, 79.991 115.983, 80.016 104.068 C 80.048 88.607, 82.326 83.811, 95.976 70.477 C 103.680 62.949, 108.562 61.113, 123.042 60.293 C 130.741 59.857, 134.196 60.160, 140.922 61.861 C 149.114 63.932, 151.664 65.526, 160.782 74.270 C 164.535 77.870, 171.169 89.616, 172.038 94.202 C 174.226 105.738, 172.569 121.875, 168.566 128.022 C 167.305 129.960, 165.246 133.560, 163.991 136.022 C 160.716 142.448, 151.783 151.929, 146.047 155.065 C 143.339 156.546, 139.912 158.711, 138.431 159.876 C 134.890 162.661, 129.473 164.057, 118.500 165.011 C 109.521 165.792, 95.872 164.835, 88.737 162.924 C 86.667 162.369, 83.517 160.645, 81.737 159.093 C 79.957 157.540, 77.490 155.955, 76.256 155.569 C 72.071 154.263, 54 134.620, 54 131.378 C 54 130.561, 52.380 125.079, 50.399 119.196 C 47.181 109.636, 46.864 107.777, 47.412 101.687 C 47.750 97.940, 48.655 93.367, 49.425 91.525 C 50.195 89.683, 51.598 84.649, 52.542 80.338 C 54.494 71.435, 55.301 69.514, 58.569 66 C 59.848 64.625, 61.577 61.925, 62.411 60 C 63.738 56.939, 70.791 49.144, 80.500 40.007 C 83.247 37.422, 86.680 35.367, 98.302 29.353 C 100.584 28.172, 105.726 26.646, 109.729 25.961 C 131.487 22.239, 115.184 15.963, 92 19.136 M 766.464 65.415 C 765.081 67.526, 764.920 72.227, 765.193 102.665 C 765.535 140.764, 765.719 142.009, 771.287 143.950 C 775.326 145.358, 781.320 145.280, 782.800 143.800 C 785.240 141.360, 784.172 137.332, 780.250 134.186 L 776.500 131.179 776.169 98.840 C 775.885 71.145, 775.611 66.249, 774.264 64.750 C 772.012 62.246, 768.335 62.559, 766.464 65.415 M 478.885 66.812 C 477.573 67.808, 474.400 69.830, 471.834 71.305 C 465.176 75.130, 460.344 81.168, 459.028 87.306 C 456.569 98.771, 455.954 106.436, 456.931 113.452 C 458.899 127.587, 460.066 131.266, 463.756 134.956 C 465.676 136.876, 467.920 139.474, 468.743 140.730 C 471.188 144.462, 479.736 146.385, 490.686 145.665 C 501.734 144.940, 505.633 143.481, 509.269 138.714 C 512.341 134.687, 512.781 130.893, 510.405 128.921 C 509.068 127.812, 508.379 127.870, 506.155 129.281 C 499.110 133.752, 495.413 134.956, 488.664 134.978 L 481.829 135 476.436 129.250 C 470.114 122.509, 469.600 120.717, 469.634 105.500 C 469.667 90.954, 470.774 87.344, 476.745 82.322 C 485.617 74.860, 488.152 74.414, 494.196 79.250 C 499.672 83.631, 501.781 85.858, 504.376 90 C 507.171 94.461, 510.107 94.951, 512.885 91.420 C 515.528 88.059, 515.574 84.045, 513.025 79.050 C 511.464 75.988, 509.192 74.116, 502.157 70.090 C 494.180 65.525, 492.644 65, 487.266 65 C 483.022 65, 480.573 65.529, 478.885 66.812 M 315.209 66.984 C 306.658 69.010, 305.979 72.364, 306.339 110.784 C 306.614 140.100, 306.690 141.135, 308.740 143.184 C 310.618 145.063, 311.194 145.162, 313.843 144.065 C 318.157 142.278, 319.375 138.492, 318.531 129.490 C 317.830 122.003, 317.841 121.950, 320.899 119.094 C 325.662 114.645, 328.278 114.440, 334.544 118.025 C 339.151 120.661, 340.126 121.745, 341.097 125.311 C 344.087 136.288, 345.304 139.078, 348.148 141.471 C 357.145 149.041, 364.053 142.252, 357.372 132.406 C 355.926 130.276, 353.958 126.276, 352.998 123.517 C 352.038 120.758, 350.708 117.054, 350.042 115.287 C 348.976 112.461, 349.110 111.558, 351.151 107.787 C 352.427 105.429, 354.693 102.047, 356.186 100.271 C 361.470 93.988, 361.172 86.943, 355.270 78.619 C 352.200 74.290, 350.115 72.629, 344.001 69.641 C 336.961 66.200, 335.946 65.982, 327.500 66.090 C 322.550 66.153, 317.019 66.556, 315.209 66.984 M 237.469 68.500 C 237.211 69.325, 236.763 70.744, 236.473 71.653 C 235.747 73.929, 237.779 79.701, 239.546 80.379 C 240.343 80.685, 242.158 83.391, 243.579 86.392 C 245 89.393, 246.780 92.086, 247.536 92.375 C 249.651 93.187, 253 100.520, 253 104.338 C 253 108.747, 250.522 114.650, 248.136 115.927 C 247.109 116.477, 245.091 119.305, 243.651 122.213 C 242.210 125.121, 239.659 129.110, 237.981 131.077 C 232.621 137.362, 233.244 145, 239.117 145 C 242.249 145, 250.575 135.181, 253.278 128.300 C 255.921 121.571, 256.616 121, 262.164 121 L 267.084 121 270.041 127.250 C 274.074 135.774, 281.511 145, 284.348 145 C 287.281 145, 291.002 142.307, 290.990 140.193 C 290.975 137.602, 286.538 128.726, 284.233 126.678 C 283.105 125.675, 281.607 123.425, 280.903 121.678 C 280.199 119.930, 277.839 115.940, 275.658 112.811 C 270.779 105.812, 270.624 102.299, 274.941 96.568 C 276.626 94.331, 278.876 90.699, 279.940 88.497 C 281.004 86.295, 283.253 83.173, 284.938 81.560 C 287.488 79.117, 288 77.854, 288 74.013 C 288 69.340, 286.736 67, 284.212 67 C 281.799 67, 273.993 76.255, 270.929 82.750 C 268.591 87.706, 267.512 89, 265.718 89 C 262.372 89, 256.279 83.483, 253.442 77.886 C 249.769 70.636, 238.812 64.198, 237.469 68.500 M 840.161 69.547 C 837.723 74.898, 839.402 81, 843.313 81 C 846.709 81, 850 78.233, 850 75.378 C 850 68.170, 842.746 63.872, 840.161 69.547 M 379.445 70.060 C 377.617 72.078, 377.483 74.139, 377.211 104.437 C 377.035 124.117, 377.310 137.684, 377.917 139.281 C 379.816 144.275, 382.257 144.955, 398.652 145.055 C 415.909 145.161, 421.405 143.857, 420.822 139.796 C 420.316 136.267, 416.459 135.031, 405.899 135.015 C 394.878 134.998, 390.455 133.822, 389.614 130.687 C 389.291 129.484, 389.021 116.568, 389.014 101.984 C 389.001 78.053, 388.819 75.129, 387.138 71.984 C 384.915 67.825, 382.105 67.122, 379.445 70.060 M 802.073 75.635 C 800.933 77.084, 800 78.909, 800 79.690 C 800 80.471, 798.425 84.079, 796.500 87.706 C 794.575 91.333, 793 94.682, 793 95.148 C 793 95.613, 794.575 97.738, 796.500 99.868 L 800 103.742 800 117.928 C 800 140.782, 802.047 145, 813.135 145 C 817.644 145, 819.457 144.543, 820.977 143.023 C 823.561 140.439, 822.668 138.381, 817.910 135.954 C 815.796 134.876, 813.602 133.125, 813.033 132.062 C 812.464 130.998, 812 123.872, 812 116.188 C 812 101.025, 811.908 101.292, 818.262 98.118 C 822.612 95.944, 822.377 93.432, 817.514 90.130 C 814.047 87.775, 813.358 86.654, 812.216 81.506 C 811.494 78.251, 810.420 75.006, 809.829 74.294 C 808.058 72.159, 804.295 72.810, 802.073 75.635 M 323.388 80.081 C 318.827 83.697, 318.164 85.034, 318.070 90.816 C 317.979 96.438, 319.212 98.557, 323.994 100.997 C 328.495 103.293, 331.634 103.489, 337.200 101.822 C 341.889 100.417, 344.154 96.759, 344.250 90.436 C 344.335 84.795, 341.963 81.342, 336.353 78.937 C 330.179 76.290, 327.918 76.490, 323.388 80.081 M 542.155 89.536 C 534.817 91.129, 533.559 91.984, 530.907 97.183 C 529.836 99.282, 528.496 101, 527.929 101 C 525.702 101, 524 108.028, 524.002 117.218 C 524.003 127.510, 524.536 128.970, 531.709 138.318 C 535.799 143.649, 536.115 143.839, 542.901 145.052 C 550.479 146.406, 559.290 145.350, 563.515 142.582 C 564.701 141.805, 567.653 137.869, 570.075 133.835 C 574.220 126.930, 574.498 126.001, 574.811 118 C 575.110 110.363, 574.883 109.043, 572.572 105 C 571.157 102.525, 569.323 99.046, 568.495 97.270 C 566.583 93.167, 563.982 91.487, 556.540 89.551 C 549.635 87.754, 550.361 87.755, 542.155 89.536 M 945.500 89.637 C 940.342 91.231, 937.007 93.491, 936.990 95.405 C 936.985 96.007, 935.444 98.433, 933.565 100.796 C 930.785 104.293, 930.021 106.293, 929.459 111.541 C 928.674 118.870, 929.509 127.553, 931.293 130.606 C 939.217 144.170, 941.603 145.696, 953.201 144.618 C 961.792 143.819, 964 144.817, 964 149.498 C 964 152.216, 963.132 153.760, 959.808 156.954 C 955.035 161.540, 950.790 162.746, 945.527 161.009 C 940.727 159.425, 936.716 161.725, 937.190 165.789 C 937.628 169.554, 941.165 170.968, 950.185 170.985 C 958.520 171.001, 962.234 170.009, 965.437 166.913 C 966.572 165.816, 968.755 163.924, 970.289 162.709 C 974.757 159.170, 976.074 151.809, 977.032 125.002 C 977.494 112.076, 978.170 99.852, 978.535 97.838 C 979.105 94.693, 978.867 93.969, 976.849 92.708 C 975.557 91.900, 970 90.737, 964.500 90.122 C 959 89.508, 953.600 88.800, 952.500 88.549 C 951.400 88.298, 948.250 88.788, 945.500 89.637 M 609.500 90.057 C 607.300 90.512, 602.038 90.911, 597.807 90.942 C 586.702 91.026, 587 90.293, 587 117.500 C 587 135.843, 587.262 139.929, 588.557 141.777 C 590.385 144.388, 593.857 144.642, 598.050 142.474 C 601.344 140.771, 601.235 141.396, 601.012 125.399 C 600.850 113.781, 602.650 104.493, 605.642 101.501 C 607.847 99.296, 616.198 99.530, 619.099 101.879 C 621.340 103.694, 621.437 104.403, 621.959 122.832 C 622.317 135.442, 622.898 142.304, 623.675 143.078 C 625.362 144.760, 629.907 144.522, 631.775 142.653 C 633.143 141.286, 633.337 138.362, 633.127 122.278 C 632.883 103.611, 632.696 101.388, 630.862 95.339 C 629.224 89.936, 620.506 87.781, 609.500 90.057 M 657 90.903 C 649.631 93.835, 646.998 101.956, 650.543 110.817 C 651.824 114.017, 653.128 115.169, 658.208 117.587 C 663.884 120.288, 668.989 123.631, 673.250 127.437 C 675.596 129.532, 675.490 133.667, 673.057 134.970 C 670.569 136.301, 662.817 136.581, 656.853 135.556 C 652.551 134.816, 652.081 134.946, 650.532 137.311 C 649.247 139.273, 649.106 140.330, 649.928 141.865 C 651.422 144.658, 653.637 145.148, 665.295 145.269 C 679.932 145.420, 683.710 143.451, 687.021 133.949 C 688.053 130.986, 687.984 129.458, 686.605 124.712 C 685.260 120.085, 684.351 118.723, 681.726 117.396 C 679.952 116.500, 677.586 114.933, 676.469 113.915 C 675.353 112.897, 671.528 110.587, 667.969 108.782 C 664.411 106.977, 661.360 104.739, 661.188 103.808 C 660.624 100.753, 666.597 98.525, 675.385 98.512 C 681.796 98.502, 683.477 98.173, 684.380 96.750 C 685.748 94.594, 684.387 92.057, 680.902 90.265 C 677.209 88.365, 662.381 88.761, 657 90.903 M 892 90.145 C 890.608 90.712, 886.968 90.885, 883.788 90.536 C 877.643 89.862, 872.807 91.455, 871.621 94.545 C 871.280 95.435, 871 105.765, 871 117.500 C 871 129.235, 871.280 139.565, 871.621 140.455 C 871.963 141.346, 873.572 142.762, 875.197 143.602 C 877.861 144.980, 878.391 144.974, 880.576 143.542 C 882.952 141.985, 883 141.674, 883.012 127.727 C 883.023 114.071, 884.487 104.113, 886.828 101.772 C 888.089 100.511, 895.322 99.613, 898.268 100.352 C 902.200 101.339, 902.999 104.864, 903.014 121.297 C 903.021 129.659, 903.303 137.531, 903.641 138.790 C 904.798 143.109, 913.250 145.607, 916.320 142.537 C 917.539 141.319, 917.700 137.854, 917.287 121.787 L 916.792 102.500 913.601 97.007 C 911.846 93.986, 909.305 90.955, 907.955 90.272 C 905.026 88.790, 895.513 88.714, 892 90.145 M 703.486 91.657 C 702.026 93.117, 701.873 95.757, 702.194 113.907 C 702.606 137.156, 703.407 140.566, 709.171 143.645 C 713.766 146.099, 723.019 145.870, 729.794 143.133 C 734.652 141.170, 735.328 141.118, 737.995 142.497 C 741.496 144.308, 745.166 144.434, 746.800 142.800 C 747.666 141.934, 748 135.002, 748 117.911 C 748 96.439, 747.829 94.010, 746.169 91.960 C 744.001 89.283, 740.231 89.769, 736.836 93.164 C 734.839 95.161, 734.754 95.992, 735.270 108.388 C 735.777 120.582, 735.665 121.745, 733.665 125 C 732.482 126.925, 730.836 129.850, 730.007 131.500 C 728.144 135.209, 723.245 135.933, 718.006 133.274 C 713.598 131.037, 713.135 128.708, 713.058 108.405 C 713.007 95.096, 712.784 93.114, 711.171 91.655 C 708.834 89.540, 705.602 89.541, 703.486 91.657 M 838.571 91.571 C 836.597 93.546, 836.574 96.736, 838.500 101.346 C 839.638 104.069, 840 109.125, 840 122.277 C 840 142.391, 840.375 143.535, 846.902 143.364 C 853.998 143.178, 854.001 143.170, 853.994 121.128 C 853.991 110.332, 853.514 99.789, 852.933 97.698 C 851.188 91.414, 842.454 87.689, 838.571 91.571 M 542.665 100.256 C 540.582 101.778, 538.028 110.886, 538.012 116.846 C 537.997 122.213, 540.672 131.863, 542.865 134.353 C 544.187 135.855, 545.525 136.121, 549.915 135.757 C 556.794 135.187, 558.436 133.272, 560 124.001 C 561.443 115.444, 559.889 103.889, 556.891 100.891 C 554.652 98.652, 545.422 98.240, 542.665 100.256 M 948.232 100.750 C 946.445 102.323, 944.331 107.751, 942.621 115.158 C 941.909 118.244, 945.422 130.624, 947.755 133.250 C 949.968 135.741, 959.069 135.686, 961.348 133.168 C 963.801 130.457, 965.292 120.640, 964.709 111.038 C 964.274 103.874, 963.856 102.302, 961.987 100.788 C 959.024 98.389, 950.941 98.367, 948.232 100.750" stroke="none" fill="#ffffff" fill-rule="evenodd"/>
</svg>