<svg xmlns="http://www.w3.org/2000/svg" width="1000" height="450" viewBox="0 0 1000 450" version="1.1">
	<path d="M 454.116 42.454 C 453.065 46.629, 453.619 54.862, 455.583 64.250 C 456.501 68.634, 458.789 67.592, 459.562 62.438 C 460.191 58.241, 458.587 40.759, 457.396 38.832 C 456.271 37.011, 455.185 38.210, 454.116 42.454 M 466.163 99.750 C 465.664 100.713, 464.944 103.647, 464.563 106.271 C 463.710 112.149, 461.706 114.110, 454.271 116.339 C 446.941 118.537, 445.562 119.415, 446.323 121.399 C 447.874 125.442, 464.046 122.111, 468.486 116.834 C 470.593 114.330, 471 112.820, 471 107.505 C 471 104.017, 470.727 100.452, 470.393 99.582 C 469.586 97.479, 467.293 97.570, 466.163 99.750 M 410.139 128.040 C 405.471 129.086, 403.256 131.398, 404.958 133.450 C 406.472 135.274, 410.587 135.418, 418.097 133.909 C 424.391 132.645, 427.926 130.526, 426.358 128.958 C 425.044 127.644, 414.559 127.051, 410.139 128.040 M 460.500 152.022 C 458.850 152.484, 452.630 153.339, 446.678 153.921 C 439.723 154.601, 432.651 156.053, 426.887 157.985 C 421.954 159.637, 416.043 161.289, 413.752 161.656 C 408.549 162.488, 405 165.865, 405 169.985 C 405 171.676, 406.136 175.760, 407.525 179.059 C 411.860 189.359, 415.812 206.732, 416.580 218.864 C 417.152 227.903, 417.685 230.601, 419.307 232.663 C 421.237 235.117, 421.627 235.198, 428.412 234.564 C 435.222 233.927, 447.829 230.933, 460.500 226.943 C 463.800 225.904, 472.518 224.191, 479.874 223.136 C 496.918 220.691, 497.886 219.426, 491.615 207.784 C 487.424 200.004, 487.498 200.341, 485.045 178.160 C 483.935 168.127, 482.535 159, 481.934 157.877 C 481.333 156.753, 478.514 154.751, 475.670 153.427 C 470.373 150.961, 465.796 150.537, 460.500 152.022 M 692.494 329.009 C 691.551 330.536, 692.949 334, 694.508 334 C 696.423 334, 697.244 332.345, 696.497 329.991 C 695.827 327.881, 693.539 327.319, 692.494 329.009 M 343.190 335.673 C 343.544 339.866, 346 341.607, 346 337.665 C 346 334.472, 345.054 332, 343.833 332 C 343.308 332, 343.019 333.653, 343.190 335.673 M 505 337.378 C 505 342.039, 506.869 344.648, 509.487 343.643 C 511.554 342.850, 511.379 340.134, 509.011 336.250 C 506.302 331.807, 505 332.173, 505 337.378 M 743.607 337.582 C 741.922 341.973, 743.549 345.423, 746.750 344.246 C 748.343 343.660, 748.378 338.778, 746.800 337.200 C 745.187 335.587, 744.333 335.689, 743.607 337.582 M 542.362 339.500 C 541.646 341.364, 542.588 344, 543.969 344 C 544.536 344, 545 342.650, 545 341 C 545 337.860, 543.351 336.922, 542.362 339.500" stroke="none" fill="#ffffff" fill-rule="evenodd"/>
</svg>