<svg xmlns="http://www.w3.org/2000/svg" width="100%" viewBox="0 0 84 26" fill="none" class="navbar2_logo" ><path d="M52.4349 25.1698C50.8335 25.1698 49.3787 24.7976 48.0705 24.0533C46.7849 23.3089 45.7699 22.2939 45.0256 21.0082C44.2813 19.7226 43.9092 18.2903 43.9092 16.7114C43.9092 15.1099 44.2813 13.6776 45.0256 12.4145C45.7699 11.1288 46.7849 10.1138 48.0705 9.36944C49.3787 8.6251 50.8335 8.25293 52.4349 8.25293C53.6979 8.25293 54.8708 8.50104 55.9534 8.99727C57.0586 9.47094 57.9946 10.1589 58.7614 11.0611L56.3255 13.531C55.8519 12.9671 55.2767 12.5498 54.6001 12.2791C53.946 11.9859 53.2243 11.8393 52.4349 11.8393C51.5101 11.8393 50.6869 12.0536 49.9651 12.4821C49.2659 12.8881 48.7133 13.452 48.3073 14.1738C47.9239 14.8956 47.7322 15.7415 47.7322 16.7114C47.7322 17.6587 47.9239 18.5045 48.3073 19.2489C48.7133 19.9707 49.2659 20.5458 49.9651 20.9744C50.6869 21.3804 51.5101 21.5834 52.4349 21.5834C53.2243 21.5834 53.946 21.4481 54.6001 21.1774C55.2767 20.8842 55.8519 20.4556 56.3255 19.8917L58.7614 22.3616C57.9946 23.2638 57.0586 23.963 55.9534 24.4593C54.8708 24.9329 53.6979 25.1698 52.4349 25.1698Z" fill="#02265B"></path><path d="M36.8026 24.5671C35.2582 25.0689 33.7523 25.1787 32.2852 24.8965C30.8324 24.5859 29.5428 23.9377 28.4162 22.9519C27.311 21.9592 26.511 20.7013 26.0161 19.1782C25.5212 17.6551 25.4326 16.1779 25.7501 14.7466C26.0607 13.2939 26.7016 12.0184 27.6729 10.9202C28.6656 9.81497 29.902 9.02191 31.3821 8.54098C32.8193 8.074 34.1929 7.99528 35.503 8.30482C36.8345 8.60739 37.9995 9.23681 38.9979 10.1931C40.0178 11.1424 40.7683 12.3571 41.2492 13.8373C41.3328 14.0947 41.3985 14.3698 41.4462 14.6626C41.5084 14.927 41.5596 15.2306 41.5998 15.5732L28.9223 19.6925L27.9814 16.7965L38.8248 13.2732L37.8819 14.8602C37.5324 13.9303 37.0921 13.1958 36.5613 12.6568C36.0304 12.1178 35.4089 11.7743 34.6968 11.6262C34.0061 11.4712 33.2317 11.533 32.3737 11.8118C31.4727 12.1046 30.7525 12.552 30.213 13.1542C29.6735 13.7564 29.3364 14.4707 29.2017 15.2971C29.0601 16.1021 29.1461 16.9872 29.4598 17.9525C29.7734 18.9179 30.2418 19.7025 30.8649 20.3064C31.488 20.9103 32.2197 21.301 33.06 21.4786C33.8933 21.6347 34.7712 21.5629 35.6936 21.2632C36.4873 21.0054 37.1713 20.6289 37.7457 20.134C38.3415 19.6321 38.7882 19.0363 39.0859 18.3467L42.0805 19.8995C41.6155 21.0229 40.9199 21.9842 39.9938 22.7831C39.0676 23.5821 38.0039 24.1768 36.8026 24.5671Z" fill="#02265B"></path><path d="M19.4482 25.2492V1.94363L23.1698 0.72168V25.2492H19.4482Z" fill="#02265B"></path><path d="M60.834 25.2788V9.39772L64.5555 8.13184V25.2788H60.834Z" fill="#02265B"></path><path d="M15.2474 16.6996C15.2474 20.4496 12.2076 23.4894 8.45801 23.4894C4.70842 23.4894 1.66863 20.4496 1.66863 16.6996C1.66863 12.9497 4.70842 9.90984 8.45801 9.90984C12.2076 9.90984 15.2474 12.9497 15.2474 16.6996Z" stroke="#02265B" stroke-width="3.33726"></path><rect x="13.582" y="16.7568" width="3.33717" height="8.51596" fill="#02265B"></rect><path d="M82.3284 16.6996C82.3284 20.4496 79.2887 23.4894 75.5391 23.4894C71.7895 23.4894 68.7497 20.4496 68.7497 16.6996C68.7497 12.9497 71.7895 9.90984 75.5391 9.90984C79.2887 9.90984 82.3284 12.9497 82.3284 16.6996Z" stroke="#02265B" stroke-width="3.33726"></path><rect x="80.6631" y="16.7568" width="3.33717" height="8.51596" fill="#02265B"></rect></svg>