<svg width="34" height="69" viewBox="0 0 34 69" fill="none" xmlns="http://www.w3.org/2000/svg">
<path d="M29.642 0C28.3812 0.14417 27.1203 0.0720851 25.9337 0.360426C24.2278 0.792937 22.522 1.36962 20.9645 2.23464C11.3228 7.49686 4.20279 15.1379 1.23612 25.4461C-1.73056 35.9705 0.642774 45.9182 8.35612 54.208C12.2128 58.389 16.8853 61.5607 22.077 64.0116C23.0412 64.4441 23.9312 64.8766 25.4887 65.6696C23.3378 66.6067 21.7062 67.3275 20.0003 68.0484C20.0745 68.2646 20.0745 68.4809 20.1487 68.7692C20.6678 68.8413 21.187 69.0576 21.7062 68.9855C24.302 68.7692 26.8978 68.4809 29.4937 68.1926C31.1995 67.9763 32.9795 67.8321 33.7212 66.03C34.537 64.1558 33.4245 62.5699 32.1637 61.3445C30.3837 59.6865 28.3812 58.1727 26.3787 56.731C25.9337 56.4427 25.1178 56.731 24.4503 56.731C24.4503 57.3798 24.2278 58.1727 24.5245 58.6052C25.4887 59.9028 26.6753 60.984 27.862 62.2095C27.6395 62.2816 27.4912 62.4257 27.417 62.3537C11.1003 56.731 1.38445 45.1974 3.09029 28.762C3.16445 27.969 3.31278 27.1761 3.60945 26.3832C7.24363 15.3541 14.2895 7.20852 25.1178 2.23464C26.527 1.58587 28.1587 1.29753 29.7162 0.865021C29.7162 0.57668 29.642 0.288341 29.642 0Z" fill="#061A40"/>
</svg>
