<svg width="22" height="14" viewBox="0 0 22 14" fill="none" xmlns="http://www.w3.org/2000/svg">
<g id="Logo">
<path fill-rule="evenodd" clip-rule="evenodd" d="M21.4202 0.5L14.7702 13.5H8.52403L11.307 8.11222H11.1822C8.88623 11.0927 5.46058 13.0548 0.57959 13.5V8.18683C0.57959 8.18683 3.70208 8.00237 5.5377 6.07249H0.57959V0.500103H6.15197V5.08331L6.27704 5.0828L8.55415 0.500103H12.7684V5.05425L12.8934 5.05404L15.2559 0.5H21.4202Z" fill="white"/>
<path d="M21.4202 0.5L14.7702 13.5H8.52403L11.307 8.11222H11.1822C8.88623 11.0927 5.46058 13.0548 0.57959 13.5V8.18683C0.57959 8.18683 3.70208 8.00237 5.5377 6.07249H0.57959V0.500103H6.15197V5.08331L6.27704 5.0828L8.55415 0.500103H12.7684V5.05425L12.8934 5.05404L15.2559 0.5H21.4202Z" fill="white"/>
<path fill-rule="evenodd" clip-rule="evenodd" d="M21.4202 0.5L14.7702 13.5H8.52403L11.307 8.11222H11.1822C8.88623 11.0927 5.46058 13.0548 0.57959 13.5V8.18683C0.57959 8.18683 3.70208 8.00237 5.5377 6.07249H0.57959V0.500103H6.15197V5.08331L6.27704 5.0828L8.55415 0.500103H12.7684V5.05425L12.8934 5.05404L15.2559 0.5H21.4202Z" fill="white"/>
<path d="M21.4202 0.5L14.7702 13.5H8.52403L11.307 8.11222H11.1822C8.88623 11.0927 5.46058 13.0548 0.57959 13.5V8.18683C0.57959 8.18683 3.70208 8.00237 5.5377 6.07249H0.57959V0.500103H6.15197V5.08331L6.27704 5.0828L8.55415 0.500103H12.7684V5.05425L12.8934 5.05404L15.2559 0.5H21.4202Z" fill="white"/>
<path fill-rule="evenodd" clip-rule="evenodd" d="M21.4202 0.5L14.7702 13.5H8.52403L11.307 8.11222H11.1822C8.88623 11.0927 5.46058 13.0548 0.57959 13.5V8.18683C0.57959 8.18683 3.70208 8.00237 5.5377 6.07249H0.57959V0.500103H6.15197V5.08331L6.27704 5.0828L8.55415 0.500103H12.7684V5.05425L12.8934 5.05404L15.2559 0.5H21.4202Z" fill="white"/>
<path d="M21.4202 0.5L14.7702 13.5H8.52403L11.307 8.11222H11.1822C8.88623 11.0927 5.46058 13.0548 0.57959 13.5V8.18683C0.57959 8.18683 3.70208 8.00237 5.5377 6.07249H0.57959V0.500103H6.15197V5.08331L6.27704 5.0828L8.55415 0.500103H12.7684V5.05425L12.8934 5.05404L15.2559 0.5H21.4202Z" fill="white"/>
<path fill-rule="evenodd" clip-rule="evenodd" d="M21.4202 0.5L14.7702 13.5H8.52403L11.307 8.11222H11.1822C8.88623 11.0927 5.46058 13.0548 0.57959 13.5V8.18683C0.57959 8.18683 3.70208 8.00237 5.5377 6.07249H0.57959V0.500103H6.15197V5.08331L6.27704 5.0828L8.55415 0.500103H12.7684V5.05425L12.8934 5.05404L15.2559 0.5H21.4202Z" fill="white"/>
<path d="M21.4202 0.5L14.7702 13.5H8.52403L11.307 8.11222H11.1822C8.88623 11.0927 5.46058 13.0548 0.57959 13.5V8.18683C0.57959 8.18683 3.70208 8.00237 5.5377 6.07249H0.57959V0.500103H6.15197V5.08331L6.27704 5.0828L8.55415 0.500103H12.7684V5.05425L12.8934 5.05404L15.2559 0.5H21.4202Z" fill="white"/>
</g>
</svg>
