<svg xmlns="http://www.w3.org/2000/svg" width="100%" viewBox="0 0 46 45" fill="none" class="icon-1x1-medium"><rect x="1" y="0.5" width="44" height="44" rx="22" stroke="currentColor" stroke-opacity="0.25"></rect><g clip-path="url(#clip0_464_1042)"><path d="M14.891 19.2883H18.5773V31.145H14.891V19.2883ZM16.7343 13.3945C17.9124 13.3945 18.8699 14.352 18.8699 15.5321C18.8699 16.7111 17.9124 17.6685 16.7343 17.6685C15.5533 17.6685 14.5986 16.7111 14.5986 15.5321C14.5986 14.352 15.5533 13.3945 16.7343 13.3945Z" fill="currentColor"></path><path d="M20.8887 19.2877H24.4233V20.9091H24.4737C24.9657 19.9765 26.1682 18.9941 27.9604 18.9941C31.692 18.9941 32.3808 21.449 32.3808 24.6415V31.1444H28.6974V25.3785C28.6974 24.0031 28.6734 22.2346 26.7824 22.2346C24.8647 22.2346 24.5721 23.7336 24.5721 25.2797V31.1444H20.8887V19.2877Z" fill="currentColor"></path></g><defs><clipPath id="clip0_464_1042"><rect width="18" height="18" fill="currentColor" transform="translate(14.5 13.2793)"></rect></clipPath></defs></svg>