<svg width="53" height="53" viewBox="0 0 53 53" fill="none" xmlns="http://www.w3.org/2000/svg">
<rect width="53" height="53" rx="6" fill="#25A18E" fill-opacity="0.2"/>
<g clip-path="url(#clip0_428_5745)">
<path d="M34.5331 34.5323C36.2161 32.8493 33.9839 27.8885 29.5474 23.452C25.1109 19.0155 20.1501 16.7834 18.4671 18.4663C16.7841 20.1493 19.0163 25.1102 23.4528 29.5467C27.8893 33.9831 32.8501 36.2153 34.5331 34.5323Z" stroke="#25A18E" stroke-linecap="round" stroke-linejoin="round"/>
<path d="M29.5474 29.548C33.9839 25.1115 36.2161 20.1507 34.5331 18.4677C32.8501 16.7847 27.8893 19.0169 23.4528 23.4533C19.0163 27.8898 16.7841 32.8507 18.4671 34.5337C20.1501 36.2166 25.1109 33.9845 29.5474 29.548Z" stroke="#25A18E" stroke-linecap="round" stroke-linejoin="round"/>
<path d="M26.5 27.6719C27.1472 27.6719 27.6719 27.1472 27.6719 26.5C27.6719 25.8528 27.1472 25.3281 26.5 25.3281C25.8528 25.3281 25.3281 25.8528 25.3281 26.5C25.3281 27.1472 25.8528 27.6719 26.5 27.6719Z" fill="#25A18E"/>
</g>
<defs>
<clipPath id="clip0_428_5745">
<rect width="25" height="25" fill="white" transform="translate(14 14)"/>
</clipPath>
</defs>
</svg>
