<svg width="53" height="53" viewBox="0 0 53 53" fill="none" xmlns="http://www.w3.org/2000/svg">
<rect width="53" height="53" rx="6" fill="#25A18E" fill-opacity="0.2"/>
<g clip-path="url(#clip0_428_5842)">
<path d="M17.2813 28.209C16.8745 26.0133 17.2648 23.7446 18.3819 21.8111C19.4991 19.8776 21.2697 18.4063 23.375 17.6621V24.6934L17.2813 28.209Z" stroke="#25A18E" stroke-linecap="round" stroke-linejoin="round"/>
<path d="M26.5 26.541V17.125C28.1425 17.1252 29.7562 17.557 31.1793 18.3771C32.6025 19.1972 33.7852 20.3768 34.6091 21.7978C35.4329 23.2187 35.869 24.8312 35.8736 26.4738C35.8782 28.1163 35.4511 29.7312 34.6353 31.1568C33.8194 32.5823 32.6433 33.7685 31.2247 34.5966C29.8062 35.4246 28.195 35.8654 26.5525 35.8748C24.91 35.8843 23.2938 35.462 21.8659 34.6504C20.4379 33.8387 19.2482 32.6661 18.416 31.25L26.5 26.541Z" stroke="#25A18E" stroke-linecap="round" stroke-linejoin="round"/>
</g>
<defs>
<clipPath id="clip0_428_5842">
<rect width="25" height="25" fill="white" transform="translate(14 14)"/>
</clipPath>
</defs>
</svg>
