<svg width="53" height="53" viewBox="0 0 53 53" fill="none" xmlns="http://www.w3.org/2000/svg">
<rect width="53" height="53" rx="6" fill="#25A18E" fill-opacity="0.2"/>
<g clip-path="url(#clip0_428_5757)">
<path d="M26.5 29.625C28.6574 29.625 30.4062 27.8761 30.4062 25.7188C30.4062 23.5614 28.6574 21.8125 26.5 21.8125C24.3426 21.8125 22.5938 23.5614 22.5938 25.7188C22.5938 27.8761 24.3426 29.625 26.5 29.625Z" stroke="#25A18E" stroke-linecap="round" stroke-linejoin="round"/>
<path d="M20.2306 33.4674C20.8184 32.3096 21.7153 31.3372 22.8219 30.6579C23.9286 29.9787 25.2017 29.6191 26.5001 29.6191C27.7986 29.6191 29.0717 29.9787 30.1783 30.6579C31.2849 31.3372 32.1819 32.3096 32.7697 33.4674" stroke="#25A18E" stroke-linecap="round" stroke-linejoin="round"/>
<path d="M35.7451 24.9375C36.0747 26.8959 35.7734 28.9083 34.8846 30.6842C33.9959 32.4602 32.5658 33.9077 30.8007 34.8178C29.0356 35.7279 27.027 36.0535 25.0648 35.7476C23.1026 35.4416 21.2885 34.52 19.8842 33.1158C18.48 31.7116 17.5584 29.8974 17.2524 27.9352C16.9465 25.973 17.2721 23.9644 18.1822 22.1993C19.0923 20.4343 20.5399 19.0041 22.3158 18.1154C24.0917 17.2266 26.1041 16.9253 28.0625 17.2549" stroke="#25A18E" stroke-linecap="round" stroke-linejoin="round"/>
<path d="M31.9688 19.4688L33.5312 21.0312L36.6562 17.9062" stroke="#25A18E" stroke-linecap="round" stroke-linejoin="round"/>
</g>
<defs>
<clipPath id="clip0_428_5757">
<rect width="25" height="25" fill="white" transform="translate(14 14)"/>
</clipPath>
</defs>
</svg>
